<svg xmlns="http://www.w3.org/2000/svg" height="1024" preserveAspectRatio="none" style="display: block;" version="1.1" viewBox="0 0 2048 2048" width="1024">
<path d="M 1124.24 859.5 C 1172.33 858.98 1236.31 862.759 1278.05 888.421 C 1318.48 913.274 1314.61 945.878 1323.44 985.338 C 1387.56 962.455 1462.66 982.17 1503.37 1037.38 C 1559.33 1113.27 1533.07 1220.75 1460.12 1274.69 C 1423.66 1301.69 1377.87 1312.89 1333.07 1305.76 C 1324.58 1330.74 1316.69 1344.77 1305.92 1367.8 C 1320.1 1370.46 1335.16 1370.9 1349.52 1372.58 C 1393.09 1377.65 1445.73 1386.06 1482.16 1411.69 C 1495.73 1421.24 1507.3 1433.72 1509.95 1450.76 C 1512.48 1467.02 1506.23 1482.35 1496.8 1495.25 C 1438.92 1574.38 1236.33 1634.76 1142.37 1657.22 C 1090.47 1669.35 1038.08 1679.24 985.334 1686.86 C 875.014 1702.34 712.278 1712.56 603.922 1677.46 C 584.654 1671.02 551.164 1653.64 543.794 1633.01 C 517.622 1559.73 652.619 1505.35 701.055 1484.65 C 695.324 1478.87 683.949 1469.21 677.605 1463.28 C 583.909 1375.79 577.281 1298.03 554.642 1181.7 L 542.676 1119.69 C 539.949 1105.45 536.27 1090.58 535.946 1076.06 C 535.417 1052.36 548.015 1031.84 563.999 1015.27 C 640.592 935.903 876.286 886.166 986.738 870.637 C 1032.29 863.986 1078.21 860.266 1124.24 859.5 z M 1339.7 1079.65 C 1340.93 1093.45 1345.11 1110.43 1347.47 1124.55 C 1351.43 1147.17 1353.15 1170.34 1352.95 1193.28 C 1352.91 1197.66 1351.3 1216.12 1353.84 1217.42 C 1366.17 1223.71 1392.31 1213.56 1402.36 1207.96 C 1471.42 1161.85 1449.12 1059.52 1371.24 1065.25 C 1356.84 1067.86 1351.13 1070.07 1339.7 1079.65 z" fill="rgb(42,28,16)" transform="translate(0,0)"></path>
<path d="M 1265.9 956.864 C 1268.93 961.209 1296.66 1118.36 1299.47 1138.57 C 1301.24 1151.14 1302.23 1163.8 1302.42 1176.49 C 1305.62 1362.85 1140.74 1522.91 956.659 1525.16 C 861.353 1525.61 769.722 1488.42 701.692 1421.67 C 668.804 1387.82 639.509 1338.34 627.788 1292.98 C 620.963 1266.57 615.536 1233.6 610.45 1206.43 C 602.748 1165.79 595.322 1125.09 588.172 1084.34 C 590.39 1086.27 592.698 1088.1 595.088 1089.81 C 655.367 1133.43 832.478 1110.78 904.61 1098.43 C 999.413 1082.2 1208.49 1036.74 1265.9 956.864 z" fill="rgb(245,201,122)" transform="translate(0,0)"></path>
<path d="M 1276.29 1411.35 C 1279.92 1411.8 1286.09 1412.04 1289.84 1412.27 C 1345.27 1415.69 1448.25 1442.1 1357.92 1502.77 C 1344.96 1511.47 1331.69 1519.87 1316.98 1526.86 C 1206.48 1579.33 1079.36 1610.76 958.009 1626.16 C 916.1 1631.15 873.969 1634.04 831.772 1634.84 C 794.245 1635.48 756.743 1632.54 719.774 1626.05 C 683.385 1618.33 620.488 1597.47 671.591 1553.93 C 692.452 1536.16 717.363 1524.95 742.256 1513.87 C 758.951 1522.16 771.103 1529.81 789.121 1537.71 C 859.008 1568.37 933.44 1581.97 1009.33 1570.7 C 1115.71 1554.48 1211.53 1497.29 1276.29 1411.35 z" fill="rgb(224,168,90)" transform="translate(0,0)"></path>
<path d="M 1110.46 906.453 C 1151.56 905.239 1194.41 906.918 1233.6 920.332 C 1278.25 935.617 1268.34 957.717 1236.97 981.071 C 1236.43 979.305 1235.38 976.104 1234.69 974.61 C 1231.73 968.18 1220.05 961.762 1213.53 959.837 C 1107.1 928.432 929.798 958.085 826.638 987.308 C 786.227 998.889 746.761 1013.54 708.585 1031.14 C 686.218 1041.71 654.239 1058.27 638.733 1077.52 C 631.659 1086.3 631.558 1092.13 632.896 1102.16 C 620.195 1098.2 604.923 1093.64 594.68 1084.8 C 590.81 1081.46 587.781 1077.1 587.737 1071.82 C 587.667 1063.29 594.941 1055.2 600.574 1049.38 C 659.058 988.912 829.503 945.925 913.398 929.833 C 978.032 917.436 1044.66 907.959 1110.46 906.453 z" fill="rgb(245,201,122)" transform="translate(0,0)"></path>
<path d="M 828.363 870.229 C 862.228 849.388 901.035 816.603 916.052 780.193 C 970.53 648.108 802.026 627.545 714.021 610.949 C 684.508 605.383 659.995 596.449 634.285 585.977 C 570.496 559.995 527.221 500.126 558.367 432.151 C 583.165 377.884 634.389 340.156 689.541 319.555 L 690.374 321.474 C 656.558 338.03 633.424 353.78 610.224 383.409 C 540.461 472.502 570.805 539.807 672.544 573.027 C 690.837 578.984 709.431 583.976 728.249 587.98 C 800.144 602.831 901.224 612.08 942.216 685.534 C 954.077 706.787 954.177 736.816 946.26 759.802 C 929.681 807.938 886.884 844.602 842.406 867.009 C 838.193 869.132 833.889 871.013 829.424 872.413 L 828.363 870.229 z" fill="rgb(42,28,16)" transform="translate(0,0)"></path>
<path d="M 820.791 287.397 L 821.015 289.874 C 777.341 312.949 739.456 345.847 722.994 394.513 C 716.391 414.035 716.639 439.976 726.835 458.574 C 746.333 494.138 793.544 510.635 831.298 520.962 C 912.142 543.078 1023.78 551.628 1072.21 630.898 C 1085.78 653.118 1087.83 685.505 1080.65 710.173 C 1071.74 740.798 1051.02 769.156 1027.17 790.145 C 1024.77 792.256 1016.84 798.936 1014.19 800.394 C 999.109 812.562 983.542 822.194 966.185 830.774 C 958.981 834.335 947.17 838.222 941.265 841.328 L 939.983 840.191 C 956.421 833.849 978.272 816.455 992.914 806.726 C 996.899 802.725 1003.28 797.371 1007.64 793.479 C 1010.14 790.276 1014.91 785.659 1017.87 782.609 C 1032.5 763.814 1040.97 753.125 1050.44 730.69 C 1059.81 708.479 1065.21 675.543 1054.11 652.728 C 1010.18 562.48 864.241 566.257 782.942 531.877 C 748.408 517.273 715.634 499.545 700.573 464.244 C 690.186 439.9 691.795 413.123 701.929 389.469 C 723.369 339.425 772.161 307.134 820.791 287.397 z" fill="rgb(42,28,16)" transform="translate(0,0)"></path>
<path d="M 809.871 879.258 C 814.676 877.486 823.603 872.715 828.363 870.229 L 829.424 872.413 C 822.736 875.52 818.444 877.901 811.292 880.246 L 809.871 879.258 z" fill="rgb(117,59,23)" fill-opacity="0.898039" transform="translate(0,0)"></path>
<path d="M 833.557 282.23 L 834.843 283.713 C 832.822 284.714 831.134 285.28 829.111 286.222 C 826.062 287.29 823.951 288.579 821.015 289.874 L 820.791 287.397 C 823.493 286.308 825.786 285.434 828.533 284.478 C 830.385 283.499 831.632 283.008 833.557 282.23 z" fill="rgb(156,106,46)" transform="translate(0,0)"></path>
<path d="M 698.753 316.501 L 699.228 318.232 C 696.342 319.088 693.165 320.321 690.374 321.474 L 689.541 319.555 C 692.762 318.354 695.468 317.474 698.753 316.501 z" fill="rgb(117,59,23)" fill-opacity="0.894118" transform="translate(0,0)"></path>
<path d="M 833.557 282.23 C 835.825 281.632 840.833 279.602 843.079 280.247 C 843.117 280.345 843.155 280.443 843.192 280.542 C 841.515 281.494 836.796 283.16 834.843 283.713 L 833.557 282.23 z" fill="rgb(167,142,125)" fill-opacity="0.678431" transform="translate(0,0)"></path>
<path d="M 936.907 841.654 L 937.089 843.39 C 935.805 843.852 929.16 847.233 928.702 845.51 C 929.344 844.316 935.617 842.121 936.907 841.654 z" fill="rgb(167,142,125)" fill-opacity="0.431373" transform="translate(0,0)"></path>
<path d="M 807.26 880.758 L 807.111 882.118 C 804.328 883.074 801.588 884.149 798.897 885.34 L 798.772 883.723 C 801.877 882.54 804.024 881.695 807.26 880.758 z" fill="rgb(167,142,125)" fill-opacity="0.690196" transform="translate(0,0)"></path>
<path d="M 701.703 315.296 C 702.656 315.023 706.729 313.367 707.241 314.667 C 706.692 315.567 703.516 316.847 702.245 317.576 L 701.703 315.296 z" fill="rgb(167,142,125)" fill-opacity="0.588235" transform="translate(0,0)"></path>
<path d="M 701.703 315.296 L 702.245 317.576 L 699.228 318.232 L 698.753 316.501 C 699.778 316.062 700.654 315.683 701.703 315.296 z" fill="rgb(161,123,101)" fill-opacity="0.694118" transform="translate(0,0)"></path>
<path d="M 939.983 840.191 L 941.265 841.328 C 939.777 842.029 938.534 842.644 937.089 843.39 L 936.907 841.654 L 939.983 840.191 z" fill="rgb(117,59,23)" fill-opacity="0.576471" transform="translate(0,0)"></path>
<path d="M 809.871 879.258 L 811.292 880.246 L 807.111 882.118 L 807.26 880.758 C 808.152 880.23 808.955 879.747 809.871 879.258 z" fill="rgb(167,142,125)" fill-opacity="0.529412" transform="translate(0,0)"></path>
<path d="M 798.772 883.723 L 798.897 885.34 C 797.913 885.673 796.576 886.403 795.562 885.761 C 795.544 885.656 795.526 885.55 795.508 885.445 C 796.124 884.422 797.765 884.08 798.772 883.723 z" fill="rgb(210,197,176)" fill-opacity="0.466667" transform="translate(0,0)"></path>
<metadata><recraft-signature>{"signed_by": "recraft", "signature_b64": "E9qAvMgsWowqwolzL7Z5ypbhL+wySh9xs+1oD/1o8y9BTDpXbFMEIP9rQdCLQGCudE0gCNjkIZSOi1ciGz11Cg==", "signing_algo": "Ed25519", "generation_timestamp": 1781894733, "identifier": "db53ae64-feea-4479-baac-2cd062aa78ef"}</recraft-signature></metadata></svg>