<svg xmlns="http://www.w3.org/2000/svg" height="1024" preserveAspectRatio="none" style="display: block;" version="1.1" viewBox="0 0 2048 2048" width="1024">
<path d="M 651.797 792.972 C 722.142 794.981 797.524 793.921 868.176 793.961 L 1236.66 794.009 L 1389.46 793.948 C 1414.56 793.897 1443.38 792.873 1468.18 794.595 C 1504.78 797.139 1514.79 849.27 1471.34 856.695 C 1472.04 867.696 1471.83 881.709 1471.93 892.956 C 1506.36 893.176 1541.17 897.51 1573.61 909.39 C 1632.77 931.058 1684.85 976.956 1711.09 1034.56 C 1735.87 1089.33 1738.17 1151.64 1717.5 1208.09 C 1670.08 1334.7 1526.35 1391.19 1402.37 1344.07 C 1396.5 1351.31 1385.2 1363.31 1378.53 1370.09 C 1328.4 1420.48 1263.96 1454.22 1193.99 1466.74 C 1165.31 1471.68 1141.78 1472.47 1112.77 1472.68 L 956.503 1472.85 C 918.817 1472.91 873.99 1473.97 836.906 1469.84 C 759.898 1461.06 688.051 1426.73 632.823 1372.35 C 584.132 1324.01 547.325 1251.84 540.381 1183.42 C 536.39 1144.1 538.027 1089.77 538.039 1049.02 L 538.012 856.894 C 531.119 855.842 523.863 856.28 516.965 856.885 C 522.797 853.187 537.593 846.466 544.491 843.147 C 564.093 833.741 583.76 824.472 603.49 815.34 C 612.565 811.078 643.999 795.109 651.797 792.972 z M 1443.7 1277.6 C 1487.64 1289.93 1534.67 1284.35 1574.51 1262.09 C 1580.2 1258.79 1585.68 1255.16 1590.94 1251.2 C 1625.5 1223.38 1647.25 1191.01 1652.14 1145.96 C 1656.87 1104.36 1644.51 1062.62 1617.89 1030.3 C 1589.84 996.056 1549.6 975.982 1505.71 971.878 C 1494.44 970.866 1483.12 970.614 1471.82 971.123 C 1470.22 1012.52 1470.37 1060.69 1471.34 1102.01 C 1472.98 1172.3 1468.7 1211.3 1443.7 1277.6 z" fill="rgb(224,168,90)" transform="translate(0,0)"></path>
<path d="M 651.797 792.972 C 722.142 794.981 797.524 793.921 868.176 793.961 L 1236.66 794.009 L 1389.46 793.948 C 1414.56 793.897 1443.38 792.873 1468.18 794.595 C 1504.78 797.139 1514.79 849.27 1471.34 856.695 C 1440.03 858.529 1392.09 857.117 1359.82 857.147 L 1140.54 857.197 L 538.012 856.894 C 531.119 855.842 523.863 856.28 516.965 856.885 C 522.797 853.187 537.593 846.466 544.491 843.147 C 564.093 833.741 583.76 824.472 603.49 815.34 C 612.565 811.078 643.999 795.109 651.797 792.972 z" fill="rgb(42,28,16)" transform="translate(0,0)"></path>
<path d="M 706.173 481.639 C 708.651 490.144 710.825 501.698 712.989 510.625 L 731.592 589.403 C 742.911 637.993 755.822 688.081 767.77 736.653 C 732.497 756.38 685.222 772.85 651.797 792.972 C 643.999 795.109 612.565 811.078 603.49 815.34 C 583.76 824.472 564.093 833.741 544.491 843.147 C 537.593 846.466 522.797 853.187 516.965 856.885 C 499.244 864.904 480.476 874.91 462.042 881.103 C 451.621 865.744 441.945 849.242 432.119 833.437 C 411.753 800.994 391.645 768.391 371.796 735.63 C 359.446 715.745 346.989 695.927 334.425 676.177 C 327.273 664.909 318.557 651.954 312.266 640.364 C 318.058 642.544 325.328 644.748 331.352 646.379 C 375.16 658.238 419.661 672.384 463.591 683.207 C 466.147 670.863 468.129 646.337 469.904 632.837 C 475.721 588.596 479.376 543.188 485.688 499.046 C 495.532 504.978 515.768 522.458 526.514 530.404 C 560.983 555.892 596.14 584.822 630.895 609.637 C 637.604 599.834 643.259 587.87 649.518 577.819 C 667.853 548.382 686.708 509.623 706.173 481.639 z" fill="rgb(245,201,122)" transform="translate(0,0)"></path>
<path d="M 739.108 1545.98 C 747.055 1534.57 782.674 1519.28 796.472 1517.24 C 937.081 1496.54 1063.04 1713.7 980.738 1828.15 C 977.373 1832.83 970.968 1841.05 965.603 1843.03 C 964.016 1844.22 963.55 1844.71 962.103 1846.15 C 954.122 1853.71 943.758 1858.86 933.791 1863.21 C 904.762 1876.31 874.533 1875.83 845.092 1863.71 C 747.339 1823.5 669.219 1694.63 707.848 1590.03 C 711.087 1581.26 727.882 1551.2 736.413 1547.68 C 737.089 1547.3 738.451 1546.62 739.108 1545.98 z M 753.399 1557.23 C 775.678 1573.48 790.03 1583.69 805.538 1607.6 C 850.988 1677.69 843.678 1767.62 915.045 1823.38 C 923.059 1829.64 933.681 1837.79 944.07 1839.08 C 947.599 1838.64 949.464 1838.57 952.962 1837.77 C 951.471 1834.52 930.377 1817.69 924.502 1811.54 C 913.747 1800.48 904.608 1787.95 897.359 1774.33 C 869.78 1722.71 867.098 1673.86 839.771 1623.25 C 822.427 1591.13 794.632 1562.51 758.792 1552.06 C 752.278 1553.36 750.871 1551.43 753.399 1557.23 z" fill="rgb(42,28,16)" transform="translate(0,0)"></path>
<path d="M 739.108 1545.98 C 747.055 1534.57 782.674 1519.28 796.472 1517.24 C 937.081 1496.54 1063.04 1713.7 980.738 1828.15 C 977.373 1832.83 970.968 1841.05 965.603 1843.03 C 963.67 1841.67 954.139 1834.59 952.962 1837.77 C 951.471 1834.52 930.377 1817.69 924.502 1811.54 C 913.747 1800.48 904.608 1787.95 897.359 1774.33 C 869.78 1722.71 867.098 1673.86 839.771 1623.25 C 822.427 1591.13 794.632 1562.51 758.792 1552.06 C 752.278 1553.36 750.871 1551.43 753.399 1557.23 C 752.069 1557.34 738.349 1548.96 736.413 1547.68 C 737.089 1547.3 738.451 1546.62 739.108 1545.98 z" fill="rgb(42,28,16)" transform="translate(0,0)"></path>
<path d="M 739.108 1545.98 C 741.076 1546.31 743.038 1546.68 744.994 1547.07 C 749.155 1547.89 754.992 1549.95 758.792 1552.06 C 752.278 1553.36 750.871 1551.43 753.399 1557.23 C 752.069 1557.34 738.349 1548.96 736.413 1547.68 C 737.089 1547.3 738.451 1546.62 739.108 1545.98 z" fill="rgb(254,254,254)" transform="translate(0,0)"></path>
<path d="M 952.962 1837.77 C 954.139 1834.59 963.67 1841.67 965.603 1843.03 C 964.016 1844.22 963.55 1844.71 962.103 1846.15 C 958.678 1845.28 945.011 1842.42 944.07 1839.08 C 947.599 1838.64 949.464 1838.57 952.962 1837.77 z" fill="rgb(254,254,254)" transform="translate(0,0)"></path>
<path d="M 1070.83 1844.45 C 1068.41 1842.39 1064.76 1838.7 1062.74 1836.37 C 970.288 1729.54 1087.83 1510.5 1224.52 1516.68 C 1245.34 1517.62 1281.67 1530.54 1295.19 1546.03 C 1296.23 1547.03 1297.22 1547.49 1298.5 1548.24 C 1307.86 1554.02 1319 1573.28 1323.7 1583.06 C 1373.28 1686.19 1280.98 1845.36 1172.95 1869.88 C 1142.61 1876.69 1110.8 1871.18 1084.52 1854.56 C 1080.09 1851.74 1075.83 1848.66 1071.76 1845.33 L 1070.83 1844.45 z M 1097.55 1837.56 C 1098.22 1837.47 1099.04 1837.39 1099.65 1837.13 C 1146.86 1818.13 1173.86 1762.31 1188.1 1716.71 C 1204.09 1665.47 1215.32 1609.99 1259.55 1574.73 C 1265.01 1570.38 1283.24 1558.41 1285.98 1553.89 C 1283.99 1553.06 1282.25 1552.27 1280.19 1551.62 C 1255.1 1555.19 1227.42 1579.9 1211.91 1599.18 C 1170.93 1650.09 1169.84 1726.54 1137.32 1780.11 C 1130.12 1792.02 1121.67 1803.14 1112.12 1813.27 C 1107.3 1818.3 1092.38 1830 1092.08 1834.55 C 1093.91 1835.55 1095.73 1836.55 1097.55 1837.56 z" fill="rgb(42,28,16)" transform="translate(0,0)"></path>
<path d="M 1298.5 1548.24 C 1307.86 1554.02 1319 1573.28 1323.7 1583.06 C 1373.28 1686.19 1280.98 1845.36 1172.95 1869.88 C 1142.61 1876.69 1110.8 1871.18 1084.52 1854.56 C 1080.09 1851.74 1075.83 1848.66 1071.76 1845.33 L 1070.83 1844.45 C 1072.73 1843.03 1089.11 1832.87 1090.44 1832.45 C 1090.87 1832.69 1091.37 1833.86 1092.08 1834.55 C 1093.91 1835.55 1095.73 1836.55 1097.55 1837.56 C 1098.22 1837.47 1099.04 1837.39 1099.65 1837.13 C 1146.86 1818.13 1173.86 1762.31 1188.1 1716.71 C 1204.09 1665.47 1215.32 1609.99 1259.55 1574.73 C 1265.01 1570.38 1283.24 1558.41 1285.98 1553.89 C 1284.67 1558.71 1296.97 1549.18 1298.5 1548.24 z" fill="rgb(42,28,16)" transform="translate(0,0)"></path>
<path d="M 1070.83 1844.45 C 1072.73 1843.03 1089.11 1832.87 1090.44 1832.45 C 1090.87 1832.69 1091.37 1833.86 1092.08 1834.55 C 1093.91 1835.55 1095.73 1836.55 1097.55 1837.56 C 1097.38 1841.65 1076.04 1845.23 1071.76 1845.33 L 1070.83 1844.45 z" fill="rgb(254,254,254)" transform="translate(0,0)"></path>
<path d="M 1295.19 1546.03 C 1296.23 1547.03 1297.22 1547.49 1298.5 1548.24 C 1296.97 1549.18 1284.67 1558.71 1285.98 1553.89 C 1283.99 1553.06 1282.25 1552.27 1280.19 1551.62 C 1281 1548.99 1292.32 1546.66 1295.19 1546.03 z" fill="rgb(254,254,254)" transform="translate(0,0)"></path>
<path d="M 988.351 179.285 C 1012.01 177.637 1015.64 177.394 1015.83 201.507 L 1015.37 543.809 L 1015.44 655.062 C 1015.55 677.137 1016.14 699.897 1015.16 721.927 C 1014.97 726.124 1013.79 726.844 1010.82 729.873 C 1002.64 730.873 992.055 732.971 985.686 726.846 C 984.013 722.858 983.892 717.285 983.881 712.945 C 983.603 598.562 983.976 484.064 983.918 369.692 L 983.733 253.083 C 983.577 231.597 983.126 209.258 983.619 187.757 C 983.722 183.265 985.152 182.068 988.351 179.285 z" fill="rgb(224,168,90)" transform="translate(0,0)"></path>
<path d="M 892.381 263.22 C 894.715 263.154 897.05 263.112 899.385 263.094 C 902.691 263.076 912.905 263.396 913.685 265.876 C 918.44 281.004 916.563 317.972 916.55 332.965 L 916.498 430.999 L 916.244 580.591 C 916.191 602.729 916.456 624.915 916.296 647.039 C 916.235 655.428 917.088 657.38 911.599 662.628 C 904.16 663.339 891.206 665.257 885.998 659.038 C 884.16 649.122 884.676 631.246 884.689 620.691 L 884.793 563.914 L 884.916 357.179 C 884.901 333.614 884.113 292.958 885.872 268.488 C 886.013 266.528 890.396 264.276 892.381 263.22 z" fill="rgb(224,168,90)" transform="translate(0,0)"></path>
<path d="M 1092.11 263.52 C 1099.89 263.206 1108.08 261.332 1112.55 268.951 C 1113.76 280.905 1113.16 304.868 1113.17 317.463 L 1113.18 404.421 C 1113.05 485.228 1112.81 566.038 1112.78 646.842 C 1112.78 656.677 1113.8 661.063 1103.17 663.154 C 1098.42 663.2 1083.09 664.222 1082.65 657.444 C 1080.82 628.997 1081.26 599.096 1081.29 570.607 L 1081.91 352.615 C 1081.96 341.954 1080.57 271.001 1083.59 266.267 C 1086.47 263.819 1088.33 263.995 1092.11 263.52 z" fill="rgb(224,168,90)" transform="translate(0,0)"></path>
<metadata><recraft-signature>{"signed_by": "recraft", "signature_b64": "+EdSt8dGVgmsoJKM5z0H7MDvp/zlQpM77OyTROQ7SdT64L67MkBchNyC9QmBTIevnIVeS4ZClN0ep3TXSaD2Bg==", "signing_algo": "Ed25519", "generation_timestamp": 1781870663, "identifier": "36513019-cfca-4dfd-a2e2-145fa97a90be"}</recraft-signature></metadata></svg>