<svg xmlns="http://www.w3.org/2000/svg" height="1024" preserveAspectRatio="none" style="display: block;" version="1.1" viewBox="0 0 2048 2048" width="1024">
<path d="M 966.847 633.354 C 952.472 575.213 918.571 514.457 870.192 477.752 C 813.662 434.862 743.552 421.728 705.816 355.317 C 686.559 321.239 681.633 280.906 692.123 243.195 C 702.922 204.53 729.105 174.506 763.868 155.036 C 795.732 137.189 848.3 126.726 883.636 136.847 C 889.892 138.125 897.118 139.693 903.191 141.669 L 903.674 141.953 C 914.364 144.65 927.006 150.706 934.992 152.56 L 937.825 154.432 C 943.609 156.518 946.678 158.315 951.974 161.245 C 995.214 180.976 1054.49 241.581 1078.42 282.695 C 1082.9 290.38 1090.21 300.503 1093.51 308.706 C 1129.4 368.278 1146.04 466.933 1135.3 537.507 C 1135.24 537.779 1135.17 538.05 1135.1 538.322 C 1133.83 559.951 1120.15 611.43 1111.09 630.987 C 1116.39 631.921 1124.09 633.063 1129.12 634.297 C 1139.47 636.185 1155.62 639.343 1165.27 643.235 C 1221.67 654.325 1265.84 713.026 1252.26 770.345 C 1244.84 801.651 1233.56 812.796 1210.81 833.678 C 1212.4 973.558 1269.11 1016.21 1315.69 1134.42 C 1329.73 1170.69 1340.2 1208.25 1346.95 1246.55 C 1354.25 1289.55 1355.71 1327.96 1356.88 1371.2 C 1359.22 1447.37 1356.31 1523.6 1348.15 1599.36 C 1345.74 1621.61 1341.66 1670.04 1335.65 1690.19 C 1335.02 1696.16 1333.49 1700.44 1331.73 1706.11 C 1330.93 1709.18 1330.48 1711.14 1329.24 1714.11 C 1326.03 1721.88 1323.21 1728.18 1319.48 1735.7 L 1314.57 1744.67 C 1319.51 1766.11 1321.44 1787.23 1315.84 1808.78 C 1307.88 1839.38 1287.63 1861.65 1260.73 1877.3 C 1171.8 1929.06 978.837 1922.98 881.164 1896.65 C 843.62 1886.53 808.372 1869.01 788.589 1834.17 C 773.615 1807.8 770.815 1774.27 778.858 1745.18 C 772 1731.05 761.908 1713.36 759.288 1697.7 C 740.464 1585.25 735.945 1469.54 739.272 1355.7 C 740.699 1289.37 747.156 1221.48 768.98 1158.42 C 783.546 1116.33 805.672 1075.59 826.54 1036.29 C 861.494 970.472 884.846 909.169 883.9 833.443 C 864.61 814.897 852.388 800.79 845.425 773.96 C 838.375 747.583 842.479 719.468 856.776 696.208 C 882.56 653.334 922.325 644.667 966.847 633.354 z M 819.76 1237.28 C 817.567 1256.61 813.649 1276.72 812.399 1296.06 C 806.805 1382.63 808.596 1468.67 813.007 1555.22 C 813.873 1572.2 817.867 1594.23 817.896 1610.54 C 821.288 1633.76 821.841 1668.26 830.052 1690.27 C 858.168 1758.92 930.236 1773.76 997.022 1777.21 C 1074.88 1781.23 1205.3 1786.37 1253.09 1713.1 C 1258.95 1704.14 1263.33 1694.31 1266.08 1683.97 C 1270.71 1666.36 1273.58 1637.79 1275.73 1618.96 C 1286.33 1530.83 1290 1442.01 1286.7 1353.31 C 1286 1335.23 1284.36 1298.38 1280.78 1281.01 C 1220.4 1299.14 1142.01 1282.84 1094.19 1242.2 C 1062.11 1214.94 1042.62 1191.95 1000.94 1175.43 C 959.417 1158.5 912.827 1158.99 871.674 1176.8 C 856.149 1183.6 832.525 1198.46 826.115 1214.72 C 824.014 1222.22 821.95 1229.81 819.76 1237.28 z M 1060.61 584.892 C 1060.67 586.86 1060.7 588.829 1060.71 590.798 L 1063.57 590.008 L 1064.48 585.998 C 1086.4 502.249 1069.21 404.432 1025.79 330.289 C 994.203 276.134 944.446 223.274 882.729 205.787 C 836.548 192.702 770.66 209.586 759.273 261.515 C 746.739 318.668 786.848 350.494 831.878 373.237 C 850.214 382.497 879.917 398.432 895.987 409.433 C 955.474 450.829 997.9 512.422 1015.37 582.757 C 1019.16 597.726 1021.09 613.345 1023.21 628.652 C 1023.16 631.03 1023.01 631.748 1023.63 633.946 L 1026.19 633.907 C 1026.08 632.833 1025.98 631.758 1025.89 630.681 C 1026.36 621.1 1026.45 611.504 1026.17 601.915 C 1023.89 530.65 1001.84 467.801 956.442 412.05 C 944.74 397.996 932.862 385.133 917.907 374.131 C 886.686 351.164 826.661 337.635 828.219 289.253 C 828.589 280.923 833.292 270.934 839.561 265.487 C 879.002 231.223 940.648 264.584 968.947 296.693 C 1014.29 348.144 1043.77 418.123 1055.56 485.043 C 1061.01 515.933 1061.44 554.526 1060.61 584.892 z M 846.501 1784.4 C 855.216 1819.77 893.669 1827.68 925.11 1834.12 C 1010.47 1851.63 1103.65 1850.16 1188.51 1830.29 C 1205.92 1826.13 1228.22 1818.59 1240.46 1804.94 C 1245.83 1797.49 1247.28 1794.55 1249.89 1785.36 C 1179.33 1825.63 978.159 1825.78 898.075 1804.38 C 881.826 1800.04 862.229 1791.45 846.501 1784.4 z M 849.933 1144.66 L 883.721 1132.06 C 882.684 1130.11 881.404 1127.5 878.953 1127.35 C 871.714 1126.9 870.723 1118.9 864.346 1119.55 L 862.337 1119.71 C 856.998 1127.96 854.049 1135.79 849.933 1144.66 z" fill="rgb(42,28,16)" transform="translate(0,0)"></path>
<path d="M 956.882 816.591 C 1012.42 802.444 1081.86 802.958 1137.87 814.822 C 1140.46 868.481 1142.3 901.533 1157.93 953.758 C 1175.33 1011.91 1202.72 1053.29 1229.26 1106.89 C 1251.48 1151.77 1264.97 1194.44 1276.31 1242.96 C 1250.93 1250.27 1230.87 1253.2 1205.16 1249.19 C 1159.31 1242.04 1123.48 1222.01 1090.69 1190.05 C 1081.44 1181.04 1069.43 1171.51 1059.39 1163.1 C 1016.85 1131.79 960.363 1119.19 908.313 1126.68 C 902.196 1127.56 888.86 1132.2 883.721 1132.06 C 882.684 1130.11 881.404 1127.5 878.953 1127.35 C 871.714 1126.9 870.723 1118.9 864.346 1119.55 L 862.337 1119.71 C 865.424 1110.53 872.686 1097.13 877.458 1088.58 C 905.787 1037.78 929.543 987.5 943.215 930.615 C 952.324 892.716 954.613 855.563 956.882 816.591 z" fill="rgb(240,230,216)" transform="translate(0,0)"></path>
<path d="M 1025.89 630.681 C 1026.36 621.1 1026.45 611.504 1026.17 601.915 C 1023.89 530.65 1001.84 467.801 956.442 412.05 C 944.74 397.996 932.862 385.133 917.907 374.131 C 886.686 351.164 826.661 337.635 828.219 289.253 C 828.589 280.923 833.292 270.934 839.561 265.487 C 879.002 231.223 940.648 264.584 968.947 296.693 C 1014.29 348.144 1043.77 418.123 1055.56 485.043 C 1061.01 515.933 1061.44 554.526 1060.61 584.892 C 1060.67 586.86 1060.7 588.829 1060.71 590.798 L 1063.57 590.008 C 1061.88 595.867 1060.57 601.238 1058.53 607.122 C 1053.62 626.429 1043.76 646.53 1025.21 655.74 C 1023.52 651.354 1023.88 639.545 1023.63 633.946 L 1026.19 633.907 C 1026.08 632.833 1025.98 631.758 1025.89 630.681 z" fill="rgb(156,106,46)" transform="translate(0,0)"></path>
<path d="M 1023.63 633.946 L 1026.19 633.907 C 1026.39 641.041 1026.4 648.7 1025.21 655.74 C 1023.52 651.354 1023.88 639.545 1023.63 633.946 z" fill="rgb(240,230,216)" transform="translate(0,0)"></path>
<path d="M 1060.71 590.798 L 1063.57 590.008 C 1061.88 595.867 1060.57 601.238 1058.53 607.122 C 1058.17 603.063 1058.79 594.307 1060.71 590.798 z" fill="rgb(240,230,216)" transform="translate(0,0)"></path>
<path d="M 1027.49 695.417 C 1043.07 693.934 1063.82 694.191 1081.08 695.37 C 1115.33 697.707 1187.1 704.434 1184.72 752.642 C 1184.1 764.996 1174.65 774.648 1165.47 782.38 C 1132.5 778.093 1105.06 774.888 1071.94 773.336 C 1041.06 772.658 1010.16 773.86 979.42 776.937 C 964.211 778.608 948.82 781.485 933.547 783.532 C 931.234 782.245 929.036 780.761 926.976 779.098 C 919.17 772.956 914.208 763.893 913.24 754.007 C 907.914 700.423 991.765 697.898 1027.49 695.417 z" fill="rgb(156,106,46)" transform="translate(0,0)"></path>
<path d="M 1060.61 584.892 L 1064.48 585.998 L 1063.57 590.008 L 1060.71 590.798 C 1060.7 588.829 1060.67 586.86 1060.61 584.892 z" fill="rgb(255,255,255)" fill-opacity="0.117647" transform="translate(0,0)"></path>
<path d="M 1023.21 628.652 C 1024.33 630.117 1024.21 630.081 1025.89 630.681 C 1025.98 631.758 1026.08 632.833 1026.19 633.907 L 1023.63 633.946 C 1023.01 631.748 1023.16 631.03 1023.21 628.652 z" fill="rgb(255,255,255)" fill-opacity="0.384314" transform="translate(0,0)"></path>
<metadata><recraft-signature>{"signed_by": "recraft", "signature_b64": "NGl17W0VUuv4TL2AOXxAqQA+uhtD4cunYk2qJsW+jfys4nG0BsChgOeqJIMKKKlNadhK8uF3e2+ecyS5cEwQCg==", "signing_algo": "Ed25519", "generation_timestamp": 1781894732, "identifier": "2d28502e-0b3b-4246-bc41-61058bf7bbf8"}</recraft-signature></metadata></svg>