<svg xmlns="http://www.w3.org/2000/svg" height="1024" preserveAspectRatio="none" style="display: block;" version="1.1" viewBox="0 0 2048 2048" width="1024">
<path d="M 1297.67 798.099 L 1297.36 799.735 C 1294.99 812.91 1295.08 825.724 1291.61 840.045 C 1275.31 907.256 1245.98 943.927 1195.62 986.819 C 1209.77 987.202 1227.14 987.27 1241.24 986.543 C 1282.95 984.394 1294.17 998.143 1293.99 1038.92 C 1305.63 1040.55 1317.23 1039.45 1328.79 1040.06 C 1349.5 1041.16 1369.38 1051.76 1382.14 1068.04 C 1398.42 1087.96 1400.54 1114.13 1397.85 1138.82 C 1395.89 1156.74 1385.62 1176.55 1371.42 1187.75 C 1365.59 1192.35 1356.78 1195.75 1349.78 1198.28 C 1340.26 1201.72 1336.78 1202.66 1331.16 1211.24 C 1329.67 1291.71 1330.95 1376.66 1330.97 1457.51 L 1330.96 1546.47 C 1330.95 1561.01 1330.33 1583.2 1331.53 1597.13 C 1331.73 1597.46 1331.93 1597.79 1332.13 1598.11 C 1337.11 1608.07 1352.57 1609.43 1363.12 1615.47 C 1390.07 1630.9 1399.2 1654.16 1398.71 1684.25 C 1398.54 1694.61 1399.1 1701.21 1396.87 1711.72 C 1392.91 1730.66 1381.6 1747.24 1365.42 1757.83 C 1337.51 1775.81 1293.28 1770.98 1260.52 1770.97 L 1150.51 1770.95 L 810.181 1771.02 L 645.36 1770.96 C 621.076 1771.02 576.625 1773.55 554.919 1768.94 C 501.845 1757.68 490.17 1702.84 499.499 1656.62 C 502.994 1639.3 517.275 1624.09 532.547 1615.57 C 545.196 1608.4 556.136 1609.83 564.156 1598.7 L 564.646 1598.03 C 565.782 1572.77 565.305 1543.36 565.371 1517.82 L 565.298 1362.16 L 565.388 1262.49 C 565.365 1246.21 565.508 1229.76 564.942 1213.49 C 563.824 1200.77 546.643 1200.24 537.873 1195.61 C 510.1 1180.96 499.843 1159.76 497.301 1130.03 C 493.075 1080.6 519.177 1042.08 570.675 1039.87 C 580.435 1039.45 592.19 1040.2 602.276 1039.54 C 599.567 1013.42 600.747 990.14 633.913 986.926 C 654.999 984.882 678.951 988.886 699.831 985.867 L 699.008 984.951 C 689.264 974.3 677.26 965.436 666.785 953.719 C 624.766 906.711 605.69 860.596 601.251 797.812 C 630.905 797.03 665.244 797.891 695.193 797.912 L 882.167 797.926 L 1168.37 798.05 C 1211.47 797.837 1254.57 797.853 1297.67 798.099 z" fill="rgb(42,28,16)" transform="translate(0,0)"></path>
<path d="M 1038.43 1192.5 L 1182.55 1192.82 C 1205.48 1192.83 1230.52 1191.95 1253.45 1193.72 C 1259.83 1194.22 1268.58 1199.01 1273.12 1203.43 C 1281.49 1211.57 1286.46 1222.34 1286.2 1234.12 C 1286.65 1307.31 1286.34 1380.51 1286.53 1453.72 L 1286.61 1535.38 C 1286.55 1557.71 1290.46 1585.36 1273.61 1601.38 C 1265.84 1608.77 1259.62 1611.66 1249.06 1612.51 C 1234.66 1613.67 1220.03 1613.18 1205.63 1613.15 L 1126.02 1613.09 L 851.75 1613.07 L 709.312 1613.11 C 693.649 1613.11 652.801 1614.01 640.003 1612.25 C 632.601 1611.24 625.667 1608.05 620.08 1603.09 C 611.083 1595.09 607.097 1586.37 606.757 1574.52 C 606.002 1548.18 606.179 1521.66 606.162 1495.3 L 606.226 1350.18 L 606.038 1269.02 C 605.997 1248.44 602.116 1220.82 618.018 1205.5 C 625.342 1198.45 630.813 1194.72 640.941 1193.68 C 655.928 1192.15 671.236 1192.68 686.318 1192.68 L 766.4 1192.74 L 1038.43 1192.5 z" fill="rgb(224,168,90)" transform="translate(0,0)"></path>
<path d="M 565.657 1085.36 C 616.491 1084.06 672.08 1085.1 723.18 1085.08 L 1022.28 1085.05 L 1222.86 1085.15 C 1256.91 1085.17 1290.94 1084.85 1325 1085.45 C 1351.42 1085.02 1356.09 1106.57 1354.27 1128.3 C 1352.88 1144.89 1347.88 1149.2 1332.25 1149.14 L 789.285 1148.99 L 639.339 1149.07 C 625.559 1149.07 562.083 1150.47 547.864 1147.21 C 538.319 1145.02 538.576 1100.95 546.837 1094.14 C 554.17 1088.09 553.64 1087.19 565.657 1085.36 z" fill="rgb(224,168,90)" transform="translate(0,0)"></path>
<path d="M 548.739 1659.07 C 594.315 1657.69 646.57 1658.86 692.491 1658.88 L 965.179 1658.99 L 1210.57 1659.01 C 1252.76 1658.98 1302.14 1657.69 1343.59 1659.21 C 1357.32 1666.25 1353.42 1684.79 1352.76 1697.78 C 1352.31 1706.52 1348.22 1713.12 1341.27 1718.23 C 1336.43 1720.51 1333.12 1721.96 1327.71 1722 C 1279.37 1722.37 1230.74 1722.26 1182.43 1722.27 L 895.977 1722.19 L 675.434 1722.18 L 605.359 1722.23 C 592.671 1722.24 576.766 1722.69 564.38 1721.89 C 557.107 1721.4 550.383 1717.85 545.866 1712.13 C 539.136 1703.75 540.234 1680.71 541.508 1670.15 C 542.214 1664.29 544.191 1662.25 548.739 1659.07 z" fill="rgb(224,168,90)" transform="translate(0,0)"></path>
<path d="M 634.586 994.462 C 670.556 993.566 708.532 994.61 744.669 994.713 L 940.009 994.717 L 1145.3 994.339 C 1181.8 994.22 1218.42 993.938 1254.92 994.088 C 1260.4 994.11 1264.14 994.543 1269.21 996.808 C 1276.22 999.91 1281.63 1005.79 1284.14 1013.03 C 1290.3 1031.19 1278.29 1043.84 1261.32 1047.99 C 1220.58 1049.1 1173.59 1047.95 1132.51 1047.9 L 896.241 1047.84 L 728.024 1047.74 C 697.836 1047.78 667.51 1047.94 637.331 1047.64 C 597.717 1047.26 598.435 997.324 634.586 994.462 z" fill="rgb(224,168,90)" transform="translate(0,0)"></path>
<path d="M 1419.23 462.417 C 1393.36 448.627 1374.22 432.749 1365.33 403.674 C 1357.81 379.174 1360.59 352.666 1373.04 330.264 C 1398.2 284.268 1459.99 268.953 1505.08 294.006 C 1527.46 306.457 1543.92 327.352 1550.78 352.023 C 1557.34 375.771 1553.96 401.164 1541.41 422.363 C 1530.08 441.62 1517.45 450.179 1499.13 461.944 C 1500.19 489.207 1501.53 521.03 1481.95 541.442 C 1467.96 556.016 1452.59 561.703 1432.74 561.877 C 1409.11 562.085 1385.6 561.738 1362.06 561.831 L 1187.77 561.881 L 1130.43 561.635 C 1115.76 561.571 1098.48 560.788 1084.16 563.336 C 1040.01 571.19 981.432 593.248 982.861 647.305 C 982.943 650.089 983.069 652.871 983.238 655.65 C 999.959 655.942 1010.84 652.675 1023.39 662.653 C 1027.52 677.053 1025.11 702.11 1025.7 718.689 C 1058.32 719.567 1093.36 718.718 1126.17 718.465 C 1132.93 702.032 1141.09 691.372 1158.26 684.22 C 1174.36 677.626 1192.42 677.695 1208.47 684.414 C 1224.77 691.426 1233.58 702.208 1240.22 718.315 C 1262.54 719.971 1285.65 718.498 1307.89 718.936 C 1324.82 719.269 1348.36 715.919 1359.89 730.831 C 1375.62 751.178 1363.15 781.562 1336.83 783.431 C 1323.76 784.359 1311.82 783.329 1299.07 783.429 C 1298.48 788.461 1297.93 793.022 1297.67 798.099 C 1254.57 797.853 1211.47 797.837 1168.37 798.05 L 882.167 797.926 L 695.193 797.912 C 665.244 797.891 630.905 797.03 601.251 797.812 L 600.752 783.798 C 581.501 783.818 553.709 787.572 540.472 774.496 C 534.297 768.323 530.858 759.929 530.927 751.197 C 530.854 715.272 567.701 718.806 592.29 718.937 C 612.678 719.045 633.957 719.508 654.273 718.737 C 663.66 700.176 671.75 689.024 692.489 682.213 C 708.762 676.818 726.529 678.266 741.714 686.224 C 757.165 694.185 762.763 703.17 769.024 718.555 C 802.37 718.383 836.812 719.428 870.04 718.557 C 870.025 714.155 869.928 709.507 869.945 705.119 C 870.087 669.16 860.343 655.178 903.646 655.209 C 904.169 613.716 912.562 581.917 943.417 552.195 C 1016.69 481.611 1107.3 490.955 1199.74 491 C 1268.11 490.707 1336.47 490.767 1404.84 491.182 C 1415.2 491.18 1419.49 490.527 1419.87 478.791 C 1420.03 473.728 1419.52 467.527 1419.23 462.417 z" fill="rgb(42,28,16)" transform="translate(0,0)"></path>
<path d="M 600.752 783.798 L 1074.89 783.327 L 1221.86 783.502 C 1246.85 783.542 1274.45 784.3 1299.07 783.429 C 1298.48 788.461 1297.93 793.022 1297.67 798.099 C 1254.57 797.853 1211.47 797.837 1168.37 798.05 L 882.167 797.926 L 695.193 797.912 C 665.244 797.891 630.905 797.03 601.251 797.812 L 600.752 783.798 z" fill="rgb(224,168,90)" transform="translate(0,0)"></path>
<path d="M 1489.46 465.166 L 1490.45 465.394 C 1492.08 468.77 1491.77 475.593 1491.93 479.585 C 1492.82 501.175 1491.22 522.533 1475.17 538.784 C 1456.5 557.674 1430.93 554.833 1406.84 554.813 L 1343.24 554.765 L 1111.32 554.796 C 1060.36 555.163 984.701 576.85 976.286 635.859 C 975.475 641.548 975.834 649.107 975.931 654.932 L 909.947 654.862 C 907.47 560.141 993.003 510.309 1077.29 499.575 C 1096.11 497.178 1115.64 497.932 1134.62 497.956 L 1209.71 498.006 L 1371.29 497.859 C 1376.23 497.889 1381.38 498.061 1386.34 497.983 C 1421.24 497.436 1427.29 503.834 1426.82 465.249 C 1449.83 471.342 1466.57 471.643 1489.46 465.166 z" fill="rgb(224,168,90)" transform="translate(0,0)"></path>
<path d="M 1447.25 309.946 C 1484.25 304.534 1518.69 330.023 1524.31 366.998 C 1529.94 403.974 1504.65 438.553 1467.71 444.395 C 1430.46 450.285 1395.54 424.741 1389.86 387.461 C 1384.19 350.181 1409.93 315.404 1447.25 309.946 z" fill="rgb(224,168,90)" transform="translate(0,0)"></path>
<path d="M 1448.29 333.629 C 1472.38 328.633 1495.97 344.067 1501.03 368.139 C 1506.1 392.21 1490.73 415.842 1466.67 420.977 C 1442.52 426.132 1418.77 410.689 1413.68 386.52 C 1408.6 362.35 1424.11 338.646 1448.29 333.629 z" fill="rgb(42,28,16)" transform="translate(0,0)"></path>
<path d="M 886.565 662.322 C 927.267 660.823 970.658 662.037 1011.32 663.294 C 1022.14 663.629 1019.64 707.454 1017.74 713.11 C 1015.23 715.477 1015.82 714.696 1011.25 714.839 L 877.634 714.839 C 877.33 704.063 874.804 675.68 879.69 666.061 C 880.942 663.595 883.99 662.923 886.565 662.322 z" fill="rgb(224,168,90)" transform="translate(0,0)"></path>
<metadata><recraft-signature>{"signed_by": "recraft", "signature_b64": "IY0qq/wzFoA/NbUMB74IfpIDOccpCosbaa5DmluWl7kjN80Uq2z4YtQKgVg9uNRJPQ9O+lj3ffbH48tiyqt2Dw==", "signing_algo": "Ed25519", "generation_timestamp": 1781871035, "identifier": "3c01c05f-863f-4abe-9a08-5b5a8fe042ba"}</recraft-signature></metadata></svg>