<svg xmlns="http://www.w3.org/2000/svg" height="1024" preserveAspectRatio="none" style="display: block;" version="1.1" viewBox="0 0 2048 2048" width="1024">
<path d="M 868.151 704.661 C 896.83 705.49 928.895 704.848 957.807 704.913 L 1111.92 705.25 L 1173.69 705.01 C 1201.15 704.893 1235.81 701.168 1243.22 739.31 C 1246.04 753.875 1244.35 775.611 1244.2 791.073 C 1283.75 792.695 1330.38 791.381 1370.65 791.232 L 1572.67 791.126 L 1647.93 791.139 C 1704.6 791.137 1718.15 785.043 1714.65 851.495 C 1713.58 871.82 1700.95 881.684 1681.29 879.576 C 1680.48 915.239 1680.93 952.471 1680.9 988.235 L 1681.11 1184.78 C 1681.33 1264.23 1679.65 1347.09 1681.09 1426.06 C 1698.28 1426.39 1717.01 1425.83 1734 1426.92 C 1734.5 1439.61 1734.51 1452.31 1734.03 1465.01 L 307.168 1464.78 C 306.976 1451.92 306.955 1439.06 307.105 1426.2 C 318.934 1426.08 332.318 1425.65 344.014 1426.29 C 346.39 1380.4 344.416 1322.17 344.677 1275.02 L 344.009 889.369 C 343.979 864.212 343.059 828.989 346.082 804.819 C 350.136 772.408 406.111 764.974 426.341 787.583 C 441.361 804.37 437.121 831.937 437.223 853.49 C 443.938 852.575 461.737 853.119 469.652 853.162 C 488.459 853.244 507.266 853.228 526.072 853.116 L 752.261 853.265 C 754.558 821.506 750.213 781.91 752.982 749.496 C 754.123 736.146 762.139 723.604 772.704 715.374 C 795.872 705.214 859.224 714.873 867.429 709.653 L 868.151 704.661 z" fill="rgb(245,201,122)" transform="translate(0,0)"></path>
<path d="M 1007.83 1142.25 C 1018.22 1178.04 1065.54 1181.59 1083.39 1146.83 C 1098.14 1172 1127.92 1180.89 1149.97 1159.39 L 1151.21 1426.15 L 1330.38 1425.96 L 1330.45 1283.25 C 1330.47 1274.01 1331.48 1226.96 1330.27 1220.88 C 1330.69 1217.6 1329.94 1218.66 1331.69 1216.65 L 1334.22 1220.18 C 1341.24 1232.72 1354.87 1236.74 1368.41 1233.75 C 1380.28 1231.12 1386.58 1224.59 1392.85 1214.93 C 1395.96 1220.01 1398.41 1223.69 1403.43 1227.13 C 1411.16 1232.38 1420.73 1234.17 1429.85 1232.08 C 1441.19 1229.58 1446.53 1224.03 1452.22 1214.83 C 1467.95 1239.23 1497.29 1240.21 1511.49 1213.64 C 1515.9 1220.71 1519.41 1225.73 1526.74 1229.96 C 1534.38 1234.36 1543.52 1235.39 1551.94 1232.78 C 1563.1 1229.28 1568.59 1221.54 1573.57 1211.77 L 1574.86 1217.56 C 1574.39 1285.82 1573.55 1357.79 1574.68 1425.91 C 1609.99 1425.94 1645.82 1425.64 1681.09 1426.06 C 1698.28 1426.39 1717.01 1425.83 1734 1426.92 C 1734.5 1439.61 1734.51 1452.31 1734.03 1465.01 L 307.168 1464.78 C 306.976 1451.92 306.955 1439.06 307.105 1426.2 C 318.934 1426.08 332.318 1425.65 344.014 1426.29 C 349.978 1427.17 369.809 1426.77 376.956 1426.75 L 445.008 1426.31 L 445.125 1213.98 C 450.041 1220.83 452.213 1224.61 460.077 1229.04 C 467.691 1233.33 476.729 1234.32 485.088 1231.77 C 496.515 1228.28 500.926 1221.63 506.002 1211.99 C 509.955 1219.07 511.798 1222.9 518.789 1227.64 C 526.179 1232.6 535.262 1234.37 543.975 1232.54 C 555.468 1230.14 560.59 1223.6 566.374 1214.52 C 582.47 1239.73 609.061 1239.21 625.505 1214.71 C 641.796 1239.07 668.008 1241.14 685.126 1216.49 L 687.618 1209.98 L 689.409 1214.63 L 689.68 1218.94 C 691.32 1286.97 690.558 1357.83 690.701 1426.1 L 794.924 1426.05 C 814.387 1426.03 838.634 1426.51 857.823 1425.33 L 857.443 1254.83 C 857.298 1221.3 856.26 1183.08 858.073 1150.05 C 876.129 1178.46 921.086 1178.87 932.374 1147.03 C 936.485 1152.93 940.355 1158.97 946.575 1162.74 C 972.69 1178.58 996.319 1167.88 1007.83 1142.25 z" fill="rgb(42,28,16)" transform="translate(0,0)"></path>
<path d="M 1244.2 791.073 C 1283.75 792.695 1330.38 791.381 1370.65 791.232 L 1572.67 791.126 L 1647.93 791.139 C 1704.6 791.137 1718.15 785.043 1714.65 851.495 C 1713.58 871.82 1700.95 881.684 1681.29 879.576 C 1672.44 877.841 1645.56 878.195 1635.99 878.17 L 1557.03 877.999 L 1244.19 878.012 C 1243.98 849.033 1243.98 820.052 1244.2 791.073 z" fill="rgb(224,168,90)" transform="translate(0,0)"></path>
<path d="M 427.252 1100.31 L 570.51 1100.33 C 612.237 1100.4 655.556 1101.05 697.136 1100.2 C 714.777 1126.17 730.654 1156.5 745.859 1184.2 L 744.868 1182.85 C 744.475 1192.44 745.268 1206.59 741.621 1214.98 C 732.482 1235.99 705.234 1235.97 691.069 1220.5 C 690.6 1219.99 690.137 1219.46 689.68 1218.94 L 689.409 1214.63 L 687.618 1209.98 C 688.361 1203.31 688.751 1197.9 689.046 1191.19 L 442.057 1191.17 C 442.224 1203.32 442.714 1212.66 433.498 1222.43 C 428.096 1228.26 420.516 1231.59 412.566 1231.62 C 388.941 1231.72 382.279 1210.93 383.537 1191.83 C 383.607 1190.77 379.738 1188.69 378.871 1188.24 C 378.991 1182.39 421.875 1108.77 427.252 1100.31 z" fill="rgb(224,168,90)" transform="translate(0,0)"></path>
<path d="M 1318.15 1100.05 L 1586.75 1100.1 L 1617.93 1156.91 C 1622.12 1164.57 1631.03 1179.61 1633.65 1186.96 C 1632.29 1189.56 1632.97 1188.68 1630.55 1190.47 C 1630.31 1201.75 1629.86 1217.05 1620.51 1224.4 C 1604.67 1236.86 1587.27 1232.18 1575.64 1218.49 L 1574.86 1217.56 L 1573.57 1211.77 C 1573.81 1205.2 1574.17 1198.33 1574.17 1191.79 C 1492.1 1191.07 1410.03 1190.91 1327.97 1191.31 C 1328.8 1202.42 1329.88 1214.94 1321.92 1221.86 C 1296.28 1244.14 1265.5 1224.45 1271.21 1191.46 C 1271.67 1188.78 1269.96 1188.17 1267.91 1187.22 C 1267.77 1181.52 1311.51 1110.99 1318.15 1100.05 z" fill="rgb(224,168,90)" transform="translate(0,0)"></path>
<path d="M 344.009 889.369 C 343.979 864.212 343.059 828.989 346.082 804.819 C 350.136 772.408 406.111 764.974 426.341 787.583 C 441.361 804.37 437.121 831.937 437.223 853.49 C 394.984 859.742 364.753 838.098 344.009 889.369 z" fill="rgb(224,168,90)" transform="translate(0,0)"></path>
<path d="M 838.636 978.428 C 876.428 977.523 917.092 978.52 955.059 978.662 L 1164.69 978.931 C 1187.93 1013.12 1215.23 1062.52 1236.92 1099.42 C 1236.94 1112.72 1237.94 1131.49 1233.23 1143.72 C 1229.73 1152.95 1222.61 1160.35 1213.52 1164.21 C 1203.13 1168.85 1191.26 1168.85 1180.87 1164.22 C 1169.7 1159.26 1164.06 1152.67 1159.61 1141.71 C 1160.27 1136.67 1160.59 1132.07 1160.95 1127.02 L 1160.83 1111.54 C 1126.09 1110.1 1083.03 1111.29 1047.51 1111.38 L 853.781 1111.94 C 853.822 1123.56 854.847 1135.77 849.568 1146.26 C 844.836 1155.81 836.293 1162.93 826.039 1165.85 C 815.156 1168.96 802.766 1167.62 793.027 1161.74 C 784.399 1156.57 778.215 1148.14 775.871 1138.36 C 774.21 1131.53 773.422 1106.41 776.128 1100.66 C 794.831 1060.91 816.735 1016.34 838.636 978.428 z" fill="rgb(224,168,90)" transform="translate(0,0)"></path>
<path d="M 988.779 798.406 C 1023.54 793.864 1062.8 805.254 1090.1 826.848 C 1125.11 854.54 1140.5 889.829 1146.1 932.983 L 1009.75 932.917 L 852.668 932.782 C 854.449 903.533 865.368 875.582 883.884 852.87 C 909.577 821.072 948.568 802.737 988.779 798.406 z" fill="rgb(42,28,16)" transform="translate(0,0)"></path>
<path d="M 559.319 938.422 C 630.131 933.587 685.525 991.173 691.316 1059.6 L 572.5 1059.55 L 438.85 1059.4 C 441.045 1042.18 442.996 1028.78 450.543 1012.86 C 472.371 966.806 509.211 942.577 559.319 938.422 z" fill="rgb(42,28,16)" transform="translate(0,0)"></path>
<path d="M 1445.1 939.424 C 1472.2 937.289 1505 946.732 1526.28 963.642 C 1560.58 990.911 1571.35 1018.2 1576.99 1059.82 L 1457.75 1059.39 L 1324.95 1059.13 C 1327.07 1018.79 1343.92 987.47 1376.08 963.141 C 1397.57 946.881 1418.65 941.525 1445.1 939.424 z" fill="rgb(42,28,16)" transform="translate(0,0)"></path>
<path d="M 772.704 715.374 C 773.996 707.793 773.453 697.806 773.436 689.952 C 773.285 667.353 773.209 644.653 773.056 622.064 C 772.955 607.144 772.621 591.629 782.759 579.484 C 790.165 570.612 801.312 565.786 812.742 565.113 C 827.996 564.215 845.247 565.495 856.385 577.306 C 860.649 581.813 865.368 589.858 866.265 595.973 C 871.345 630.599 865.161 668.824 868.039 703.45 L 868.151 704.661 L 867.429 709.653 C 859.224 714.873 795.872 705.214 772.704 715.374 z" fill="rgb(224,168,90)" transform="translate(0,0)"></path>
<metadata><recraft-signature>{"signed_by": "recraft", "signature_b64": "Tr7cRyVXQtmUlJtzGnXQW4p1fcYYgUIoPS4yvOaaUeN+O206e/hHKoJjqUj35O7J+64kGY5rMiDy+KLZkeL1Dg==", "signing_algo": "Ed25519", "generation_timestamp": 1781871045, "identifier": "8d7ec4fa-6053-46d6-a1d9-98bbf3e8bbc6"}</recraft-signature></metadata></svg>