<svg xmlns="http://www.w3.org/2000/svg" height="1024" preserveAspectRatio="none" style="display: block;" version="1.1" viewBox="0 0 2048 2048" width="1024">
<path d="M 537.958 264.616 C 540.185 257.402 542.851 250.331 545.942 243.442 C 580.385 167.338 658.441 115.264 741.057 109.116 C 765.468 107.299 789.606 107.706 814.059 107.731 L 923.645 107.854 L 1012.82 107.731 C 1034.16 107.633 1060.05 106.923 1080.89 109.268 C 1107.79 112.173 1134.04 119.411 1158.63 130.702 C 1217.31 157.728 1258.37 205.025 1280.6 265.13 C 1284.7 277.199 1289.73 295.301 1290.27 308.21 C 1292.54 315.959 1291.99 340.09 1291.89 348.866 C 1270.27 348.946 1247.84 348.149 1226.45 348.811 C 1235.17 355.47 1263.29 390.996 1268.68 400.972 C 1281.33 416.851 1308.04 469.461 1311.88 489.526 C 1334.15 551.391 1339.85 621.09 1315.91 683.39 C 1314.94 686.712 1314.05 689.649 1312.9 692.915 L 1307.87 705.265 C 1279.41 767.758 1238.95 816.057 1183.13 856.091 C 1177.75 859.949 1159.37 873.269 1153.73 875.469 C 1147.89 879.535 1128.76 888.42 1126.48 892.508 L 1128.46 895.217 C 1139.43 903.951 1161.31 925.728 1169.88 936.763 C 1175.1 941.37 1181.78 950.911 1185.99 956.717 C 1258.34 965.957 1367.26 969.948 1437.47 950.132 C 1506.2 930.733 1537.74 896.73 1607.26 947.911 C 1628.03 891.717 1917.38 894.383 1921.72 951.658 C 1923.29 970.084 1922.71 1002.42 1921.78 1021.16 C 1921.72 1026.71 1921.32 1030.65 1920.73 1036.09 C 1917.82 1059.35 1909.28 1085.37 1894.79 1104.06 C 1879.68 1126.67 1853.65 1149.08 1827.75 1159.48 C 1827.56 1159.5 1827.37 1159.52 1827.18 1159.55 C 1797.44 1176.33 1749.52 1175.98 1718.14 1166.81 C 1683.2 1156.6 1656.12 1137.04 1633.3 1109.46 C 1632.31 1108.27 1625.1 1109.88 1623.48 1110.22 C 1610.96 1140.15 1588.2 1164.71 1557.89 1177.26 C 1514.52 1195.22 1374.89 1180.97 1322.54 1174.29 C 1299.16 1171.3 1274.73 1165.76 1251.29 1164.71 C 1245.81 1217.46 1236.75 1269.61 1208.48 1316.04 C 1197.89 1338.13 1175.94 1366.06 1159.9 1384.29 C 1154.71 1389.85 1149.38 1395.76 1144.09 1401.18 L 1143.67 1412.2 C 1144.32 1437.25 1143.89 1464.03 1143.84 1489.2 C 1143.79 1512.06 1144.28 1536.8 1143.7 1559.52 L 1143.91 1615.8 C 1152.23 1618.9 1164.37 1622.86 1171.03 1628.28 C 1175.37 1630.77 1178.7 1633.94 1182.33 1637.33 C 1217.49 1670.11 1205.86 1721.03 1207.79 1764.51 C 1224.63 1768.43 1252.39 1777.4 1262.29 1793.09 C 1274.04 1804.27 1281.72 1826.51 1282.21 1842.77 C 1283.16 1874.35 1263.15 1905.81 1234.1 1918.34 C 1230.84 1919.74 1223.54 1922.39 1220.13 1922.61 C 1197.63 1928.72 1136.9 1926.11 1107.74 1925.81 C 1043.26 1925.15 945.75 1943.56 932.299 1855.15 C 930.46 1843.06 934.086 1829.74 934.818 1817.79 L 934.868 1816.88 C 935.714 1772.59 935.192 1730.41 934.788 1686.29 C 933.676 1673.53 934.151 1656.64 934.186 1643.73 C 934.256 1618.01 934.55 1592.28 935.066 1566.56 L 934.922 1496.02 C 919.436 1495.99 903.33 1496.19 887.902 1495.7 C 887.648 1545.81 887.643 1595.92 887.89 1646.02 C 888.165 1665.71 891.191 1692.65 889.988 1710.28 C 890.626 1733.22 891.283 1774.84 890.177 1797.32 L 890.461 1806.73 C 890.709 1816.37 893.371 1827.65 894.415 1837.48 C 896.795 1860.42 889.058 1883.26 873.226 1900.04 C 866.929 1906.67 857.207 1914.16 848.676 1917.46 C 826.837 1927.89 803.314 1926.01 779.714 1926.02 L 713.374 1926.03 L 658.412 1926 C 648.162 1925.99 630.903 1926.46 621.27 1924.71 C 587.684 1923.91 554.814 1892.66 548.762 1860.05 C 545.875 1845.66 548.213 1829.84 552.753 1816.07 C 566.428 1783.52 589.575 1773.23 621.486 1764.89 C 625.311 1697.91 604.044 1648.01 680.067 1616.53 C 682.264 1582.2 680.647 1533.65 680.832 1498.23 C 680.981 1469.91 681.939 1425.15 679.948 1398.53 C 678.192 1397.17 664.962 1382.16 662.613 1379.51 C 640.295 1354.32 621.668 1325.52 607.386 1295.08 C 601.754 1283.07 597.493 1269.51 591.755 1257.4 L 591.26 1256.37 C 581.833 1268.65 596.386 1377.9 580.698 1406.13 C 579.114 1417.3 560.497 1437.01 551.173 1444.04 C 529.081 1460.53 501.34 1467.58 474.055 1463.61 C 447.863 1459.9 424.196 1444.82 408.612 1423.61 C 403.075 1416.11 398.625 1407.87 395.391 1399.12 C 390.727 1386.42 389.636 1375.76 386.759 1362.83 C 379.251 1329.09 373.46 1285.79 378.896 1251.34 C 379.848 1238.35 382.746 1215.63 386.826 1203.02 C 394.163 1161.99 420.534 1105.02 443.735 1070.18 C 447.062 1065.18 456.048 1051.5 460.184 1047.86 C 464.77 1040.25 477.215 1026.26 483.419 1019.56 C 524.415 975.123 574.73 940.3 630.76 917.585 C 648.576 908.934 674.468 900.832 693.128 894.977 C 688.505 892.028 682.495 889.011 677.633 886.634 C 547.851 823.167 468.191 687.048 493.433 542.22 C 497.585 518.397 504.59 498.647 510.888 475.489 L 509.09 474.635 C 511.29 468.869 511.334 475.74 514.324 467.909 C 525.332 439.074 540.58 411.43 559.288 386.836 C 568.949 374.136 580.127 362.24 589.976 349.042 L 569.606 348.145 C 563.137 348.885 536.335 348.335 528.093 348.427 C 526.933 338.672 527.549 330.101 528.093 320.389 C 529.338 298.077 531.762 285.756 537.958 264.616 z" fill="rgb(42,28,16)" transform="translate(0,0)"></path>
<path d="M 1212.89 477.126 L 1302.92 477.148 C 1305.78 484.503 1308.49 492.76 1311.11 500.264 C 1324.39 546.386 1331.38 584.93 1323.47 633.779 C 1321.42 646.435 1317.98 659.236 1315.16 671.787 L 1310.82 685.037 L 1305.57 699.674 C 1282.97 746.323 1264.02 776.484 1226.48 813.812 C 1219.5 820.757 1198.41 837.489 1194.04 842.283 C 1140.17 881.554 1101.78 901.823 1036.81 921.118 C 778.285 997.902 428.977 822.463 504.034 514.493 C 506.89 502.773 510.689 487.753 516.691 477.223 L 603.901 477.219 C 600.971 495.045 600.009 508.242 602.843 526.32 C 608.672 562.532 628.657 594.943 658.397 616.411 C 689.795 638.856 728.886 647.765 766.909 641.139 C 803.402 635 835.96 614.615 857.422 584.469 C 880.778 551.141 886.477 516.482 879.449 477.163 L 936.488 477.695 C 934.408 493.889 933.215 508.515 935.413 524.779 C 940.484 560.912 959.85 593.496 989.165 615.219 C 1020.22 638.306 1059.27 647.886 1097.49 641.789 C 1134.95 635.979 1168.47 615.279 1190.44 584.39 C 1213.31 552.917 1218.84 514.909 1212.89 477.126 z" fill="rgb(245,201,122)" transform="translate(0,0)"></path>
<path d="M 1048 695.171 C 1058.27 694.719 1068.92 696.569 1076.67 703.49 C 1100.45 725.179 1090.85 749.941 1073.2 770.796 C 1011.28 843.922 903.001 861.048 816.589 825.452 C 792.877 815.684 775.041 803.384 755.599 786.984 C 744.65 776.793 727.564 757.36 723.196 742.86 C 720.306 733.368 721.404 723.108 726.237 714.442 C 731.416 705.438 740.109 698.996 750.231 696.661 C 778.496 689.96 785.882 708.599 801.947 724.076 C 852.861 773.124 942.367 777.723 998.199 734.63 C 1018.51 718.953 1022.35 701.134 1048 695.171 z" fill="rgb(42,28,16)" transform="translate(0,0)"></path>
<path d="M 635.876 660.525 C 663.271 655.956 689.141 674.587 693.491 702.017 C 697.841 729.448 679.003 755.168 651.539 759.298 C 624.383 763.381 599.016 744.802 594.715 717.68 C 590.415 690.559 608.79 665.043 635.876 660.525 z" fill="rgb(42,28,16)" transform="translate(0,0)"></path>
<path d="M 641.023 665.383 C 665.658 663.605 687.074 682.125 688.869 706.758 C 690.665 731.391 672.16 752.82 647.528 754.633 C 622.871 756.448 601.416 737.921 599.619 713.263 C 597.822 688.605 616.364 667.163 641.023 665.383 z" fill="rgb(224,168,90)" transform="translate(0,0)"></path>
<path d="M 1167.1 661.095 C 1194.22 656.66 1219.83 675.009 1224.35 702.123 C 1228.87 729.238 1210.6 754.898 1183.5 759.502 C 1156.28 764.127 1130.48 745.76 1125.94 718.525 C 1121.4 691.29 1139.85 665.549 1167.1 661.095 z" fill="rgb(42,28,16)" transform="translate(0,0)"></path>
<path d="M 1166.84 666.263 C 1191.24 661.646 1214.75 677.689 1219.36 702.089 C 1223.96 726.489 1207.9 749.997 1183.5 754.585 C 1159.12 759.168 1135.63 743.128 1131.04 718.749 C 1126.44 694.37 1142.46 670.877 1166.84 666.263 z" fill="rgb(224,168,90)" transform="translate(0,0)"></path>
<path d="M 533.4 305.664 C 537.934 284.494 537.907 274.73 546.827 253.325 C 569.551 198.798 614.298 154.594 668.428 131.765 C 690.211 122.58 713.221 116.636 736.727 114.123 C 760.462 111.406 787.599 112.038 811.653 112.087 L 904.55 112.108 L 1004.91 112.083 C 1028.44 112.085 1054.42 111.483 1077.67 113.913 C 1101.06 116.171 1124 121.797 1145.78 130.619 C 1207.94 156.432 1248.83 199.555 1274.49 261.047 C 1284.97 292.14 1287.49 311.255 1287.26 344.351 C 1246.97 344.783 1205.83 343.988 1165.4 343.974 L 880.221 343.742 L 531.861 344.01 C 531.493 333.57 531.805 323.117 532.794 312.717 L 533.4 305.664 z" fill="rgb(224,168,90)" transform="translate(0,0)"></path>
<path d="M 1055.89 920.76 C 1067.13 917.393 1081.94 911.155 1093.1 906.699 C 1092.15 994.451 1093.2 1082.94 1092.9 1170.79 C 1092.64 1222.62 1092.77 1274.45 1093.29 1326.28 C 1093.44 1349.18 1092.74 1375.05 1093.63 1397.53 C 1053.18 1395.77 1002.19 1397.1 960.899 1397.06 C 885.288 1396.77 809.676 1396.95 734.066 1397.58 L 733.819 1118.11 C 733.136 1049.44 733.362 980.766 734.497 912.104 C 747.265 917.195 760.237 921.195 773.048 926.098 C 772.965 972.39 773.181 1018.68 773.697 1064.97 C 773.756 1069.79 772.936 1086.21 773.847 1089.15 C 775.829 1089.76 774.975 1089.79 776.382 1089.53 C 785.653 1090.34 800.366 1089.91 810.041 1089.9 L 865.857 1089.91 L 1056.44 1090.02 C 1056.13 1079.27 1055.91 1068.3 1056.03 1057.55 C 1056.55 1012.14 1054.67 966.105 1055.89 920.76 z" fill="rgb(156,106,46)" transform="translate(0,0)"></path>
<path d="M 636.837 919.87 C 654.937 912.71 669.032 907.47 687.833 902.536 C 672.468 917.702 657.8 932.767 644.799 950.077 C 601.459 1007.78 576.845 1079.88 576.429 1152.15 C 576.156 1170.73 577.586 1189.3 580.703 1207.61 C 581.791 1214.24 586.732 1235.11 586.264 1240.08 C 582.769 1277.21 582.266 1313.68 583.691 1351.01 C 584.102 1361.81 582.685 1373.32 583.068 1383.67 C 577.974 1405.02 571.152 1420.22 554.456 1435.34 C 535.368 1452.52 510.233 1461.4 484.589 1460.03 C 459.138 1458.47 434.22 1446.94 417.483 1427.48 C 398.702 1405.63 396.765 1386.58 391.015 1360.41 C 381.617 1317.63 380.185 1290.68 383.243 1247.63 C 384.581 1238.3 385.983 1228.98 387.449 1219.66 C 388.257 1217.96 390.888 1206.37 391.371 1204.19 C 408.455 1127.09 444.819 1068.31 497.81 1011.15 C 502.162 1008.4 512.809 996.905 517.364 992.865 C 552.82 961.42 593.175 937.434 636.837 919.87 z" fill="rgb(224,168,90)" transform="translate(0,0)"></path>
<path d="M 1527.51 926.393 C 1555.68 923.744 1582.59 935.168 1604.4 952.217 C 1568.84 951.199 1534.29 954.113 1512.99 986.971 C 1501.74 1004.68 1497.97 1026.13 1502.51 1046.62 C 1513.76 1099.26 1568.15 1123.28 1617.93 1111.89 C 1595.48 1165.48 1546.23 1182.81 1492.62 1181.04 C 1456.3 1179.83 1422.79 1179.39 1386.24 1176.36 C 1341.03 1172.04 1295.96 1166.22 1251.13 1158.92 C 1251.81 1088.81 1230.6 1020.25 1190.46 962.769 C 1289.12 970.669 1394.79 978.948 1487.75 937.332 C 1500.83 931.474 1513.27 927.78 1527.51 926.393 z" fill="rgb(224,168,90)" transform="translate(0,0)"></path>
<path d="M 1097.71 1253.21 C 1140.73 1253.16 1187.38 1252.61 1230.19 1253.7 C 1222.96 1275.78 1215.39 1292.47 1204.87 1313.24 C 1190.16 1338.75 1178.53 1356.59 1158.65 1378.87 C 1120.97 1421.34 1073.11 1453.55 1019.57 1472.47 C 865.9 1526.19 704.367 1457.39 624.379 1317.55 C 612.88 1297.44 604.385 1275.69 596.793 1253.87 C 611.848 1253.01 630.069 1253.5 645.319 1253.55 L 729.234 1253.81 L 729.091 1402.22 L 1097.85 1402.14 L 1097.71 1253.21 z" fill="rgb(245,201,122)" transform="translate(0,0)"></path>
<path d="M 1253.91 1899.15 C 1249 1903.66 1243.59 1907.61 1237.79 1910.91 C 1202.88 1930.44 1099.51 1917.09 1055.74 1921.13 C 1046.39 1921.99 1022.51 1921.37 1013.06 1920.79 C 1005.98 1920.42 998.959 1919.27 992.128 1917.36 C 971.743 1911.57 955.945 1899.57 945.613 1881 C 936.213 1864.28 934.009 1844.46 939.506 1826.08 C 947.809 1798.1 977.327 1772.09 1006.74 1770.89 C 1072.19 1768.42 1138.14 1769.91 1203.66 1770.28 C 1235.23 1770.46 1259.2 1791.31 1272.65 1818.25 C 1282.54 1849.92 1277.62 1875.26 1253.91 1899.15 z" fill="rgb(245,201,122)" transform="translate(0,0)"></path>
<path d="M 555.671 1822.43 C 563.091 1802.63 575.352 1786.72 595.087 1777.9 C 603.837 1774.1 613.132 1771.69 622.631 1770.79 C 639.446 1769.1 659.156 1769.66 676.252 1769.84 C 722.226 1770.33 768.741 1768.81 814.621 1770.11 C 866.76 1771.6 904.047 1822.95 885.317 1872.44 C 883.137 1878.12 879.684 1883.74 876.594 1888.97 C 859.087 1908.87 841.865 1920.4 814.636 1920.76 C 781.437 1921.2 745.852 1921.69 712.747 1921.21 C 685.981 1920.82 645.672 1922.76 620.574 1920.25 C 577.238 1912.6 552.449 1883.65 551.927 1839.77 C 552.942 1832.27 553.43 1829.62 555.671 1822.43 z" fill="rgb(245,201,122)" transform="translate(0,0)"></path>
<path d="M 1610.06 962.182 C 1629.26 981.752 1664.74 988.528 1691.16 991.927 C 1751.33 999.668 1867.66 1000.75 1916.87 963.332 C 1917.51 980.952 1917.41 999.067 1917.5 1016.73 C 1917.25 1022.24 1917.09 1031.73 1916.35 1036.86 C 1912.32 1062 1905.22 1080.06 1890.94 1101.44 C 1883.47 1111.99 1876.29 1120.75 1866.55 1129.36 C 1864.48 1131.18 1855.75 1137.84 1854.7 1139.39 C 1824.68 1158.31 1801.14 1168.49 1764.5 1168.74 C 1722.63 1168.79 1682.4 1152.44 1652.43 1123.2 C 1605.93 1077.18 1610.4 1021.43 1610.06 962.182 z" fill="rgb(224,168,90)" transform="translate(0,0)"></path>
<path d="M 878.984 348.173 C 890.671 349.043 906.845 348.659 918.957 348.674 L 987.53 348.722 L 1220.5 348.926 C 1228.77 357.561 1236.72 366.501 1244.33 375.727 C 1246.64 378.511 1260.97 397.348 1262.33 398.313 C 1265.34 404.024 1271.93 413.829 1275.62 420.071 C 1285.16 435.855 1293.25 452.47 1299.78 469.713 C 1271.1 470.435 1240.2 469.69 1211.17 469.869 C 1208.06 460.05 1204.98 451.78 1200.18 442.596 C 1182.45 409.343 1152.25 384.49 1116.2 373.501 C 1066.89 358.221 1009.63 373.124 973.368 409.452 C 955.175 427.681 946.482 445.611 939.097 469.828 C 918.701 470.093 898.046 469.138 877.792 469.656 C 874.498 459.472 871.249 450.641 866.159 441.149 C 848.243 408.165 817.906 383.693 781.879 373.162 C 745.223 362.606 705.877 367.028 672.479 385.456 C 638.47 404.216 616.927 433.404 606.229 470.293 C 577.085 469.481 547.926 469.348 518.776 469.894 C 538.106 424.516 562.541 383.088 598.816 348.959 C 620.315 348.455 642.141 349.039 663.741 348.715 C 735.489 349.242 807.24 349.062 878.984 348.173 z" fill="rgb(224,168,90)" transform="translate(0,0)"></path>
<path d="M 778.149 927.093 C 850.489 944.79 912.886 949.98 987.049 937.364 C 1007.97 933.805 1031.03 929.271 1051.15 922.582 C 1051.52 976.523 1052.03 1031.02 1051.65 1084.95 L 853.273 1085.15 C 844.587 1085.16 783.657 1084.53 777.829 1085.78 L 778.149 927.093 z" fill="rgb(245,201,122)" transform="translate(0,0)"></path>
<path d="M 940.383 1810.12 C 939.49 1802.52 939.422 1788.92 939.959 1780.95 C 943.575 1727.24 923.472 1659.1 981.239 1628.74 C 989.769 1624.22 999.009 1621.19 1008.56 1619.79 C 1037.78 1615.64 1076.44 1620.63 1106.7 1618.75 C 1121.73 1617.82 1138.82 1618.88 1153.27 1623.29 C 1189.47 1640.61 1203.35 1666.4 1202.31 1705.53 C 1201.8 1724.93 1202.39 1745.32 1202.07 1764.9 L 1075.68 1764.64 C 1057.83 1764.59 1039.84 1764.8 1022.02 1764.71 C 996.229 1764.57 974.18 1771.21 955.489 1789.99 C 949.543 1795.96 944.459 1802.74 940.383 1810.12 z" fill="rgb(156,106,46)" transform="translate(0,0)"></path>
<path d="M 693.7 1619.33 C 710.567 1616.39 747.335 1619.45 765.859 1618.96 C 799.484 1618.07 837.268 1615.5 862.946 1641.15 C 872.468 1650.58 879.301 1662.38 882.741 1675.33 C 887.207 1692.27 886.045 1720.85 886.052 1739.48 L 886.045 1808.38 C 875.163 1792.95 868.09 1784.04 851.478 1775.1 C 825.915 1760.98 783.442 1764.89 753.963 1764.95 L 626.432 1765 C 625.765 1752.36 626.199 1739.38 625.989 1727.04 C 625.405 1692.62 624.812 1657.6 655.163 1634.69 C 668.09 1624.93 677.796 1621.81 693.7 1619.33 z" fill="rgb(156,106,46)" transform="translate(0,0)"></path>
<path d="M 1097.99 904.943 C 1103.96 902.131 1110.52 897.614 1117.09 896.126 C 1120.01 895.463 1120.96 896.803 1123.49 898.489 C 1134.11 907.14 1141.2 914.201 1151.15 923.201 C 1160.49 932.792 1169.29 942.894 1177.51 953.461 C 1235.25 1028.02 1253.28 1113.48 1241.65 1205.68 C 1193.95 1205.27 1145.63 1205.81 1097.87 1206 L 1097.99 904.943 z" fill="rgb(245,201,122)" transform="translate(0,0)"></path>
<path d="M 700.896 898.713 L 729.357 910.153 C 730.052 949.507 729.155 989.863 729.172 1029.31 C 729.477 1088.16 729.467 1147.01 729.143 1205.86 L 610.75 1205.71 C 602.453 1205.7 594.035 1205.5 585.728 1205.39 C 569.699 1084.68 609.169 979.056 700.896 898.713 z" fill="rgb(245,201,122)" transform="translate(0,0)"></path>
<path d="M 1139.05 1406.02 C 1139.02 1422.01 1138.7 1441.3 1139.84 1457.02 C 1139.47 1474.04 1139.01 1502.68 1139.95 1519.28 C 1137.98 1545.87 1139.61 1586.61 1139.15 1614.5 C 1106.04 1613.34 1072.65 1614.17 1039.52 1613.82 C 1026.55 1613.69 1012.81 1613.53 1000.16 1616.52 C 985.988 1619.77 972.91 1626.66 962.208 1636.5 C 953.644 1644.58 946.714 1654.24 941.797 1664.94 L 939.551 1669.97 C 939.108 1669.93 938.666 1669.88 938.224 1669.84 C 938.587 1667.87 938.882 1664.18 939.114 1662.05 C 938.382 1654.09 938.902 1636.53 938.931 1627.87 L 939.156 1564.07 L 939.828 1495.18 C 1014.16 1489.11 1084.25 1456.1 1139.05 1406.02 z" fill="rgb(224,168,90)" transform="translate(0,0)"></path>
<path d="M 686.343 1403.83 C 730.035 1445.21 783.903 1474.29 842.474 1488.12 C 857.675 1491.74 869.287 1492.45 883.254 1495.29 C 883.883 1529.02 884.056 1562.75 883.772 1596.48 C 883.751 1608.97 883.025 1631.67 883.824 1643.64 L 883.87 1661.29 C 876.846 1649.11 869.799 1639.48 858.504 1630.84 C 848.718 1623.3 837.32 1618.11 825.201 1615.7 C 807.29 1612.16 706.042 1612.66 685.878 1615.26 C 685.587 1569.83 685.62 1524.4 685.977 1478.98 C 685.997 1458.98 684.609 1422.13 686.343 1403.83 z" fill="rgb(224,168,90)" transform="translate(0,0)"></path>
<path d="M 1125.59 1210.5 C 1164.01 1210.11 1202.42 1210.04 1240.84 1210.29 C 1238.19 1222.94 1235.3 1235.54 1232.19 1248.09 L 1213.25 1248.12 L 1097.32 1247.98 L 1097.4 1210.82 L 1125.59 1210.5 z" fill="rgb(156,106,46)" transform="translate(0,0)"></path>
<path d="M 586.177 1210.52 C 631.977 1209.28 683.074 1210.67 729.235 1211.01 L 729.127 1248.23 C 684.785 1248.73 639.414 1248.08 594.909 1248.11 C 591.877 1235.61 588.361 1223.18 586.177 1210.52 z" fill="rgb(156,106,46)" transform="translate(0,0)"></path>
<path d="M 1758.91 911.443 C 1760.44 911.398 1761.96 911.384 1763.49 911.401 C 1791.66 911.656 1917.3 917.632 1916.71 954.028 L 1915.5 955.035 C 1892.81 929.105 1804.03 924.127 1770.05 923.29 C 1734.13 922.558 1695.61 925.621 1660.52 933.538 C 1651.16 935.651 1614.91 945.362 1611.71 954.625 C 1605.14 919.205 1734.91 912.414 1758.91 911.443 z" fill="rgb(224,168,90)" transform="translate(0,0)"></path>
<path d="M 1584.15 999.37 C 1591.13 999.16 1598.01 999.199 1605.07 998.963 C 1605.59 1014.5 1605.31 1030.75 1608.29 1045.99 C 1609.44 1051.81 1610.76 1057.6 1612.26 1063.34 C 1601.15 1066.42 1597.92 1067.4 1586.16 1066.83 L 1584.97 1066.58 C 1579.38 1065.45 1574.4 1063.81 1569.79 1060.26 C 1561.75 1054.14 1556.53 1045.03 1555.31 1035 C 1552.75 1014.91 1564.74 1001.71 1584.15 999.37 z" fill="rgb(224,168,90)" transform="translate(0,0)"></path>
<metadata><recraft-signature>{"signed_by": "recraft", "signature_b64": "JnaOJkkPCZO6OSjaZ6j/Ibe56lbhfGnMLpempwBxf8cwIRGsmcGtTtY3CEt+1HsVUAghbCSu3k5E+cvj8QdmAQ==", "signing_algo": "Ed25519", "generation_timestamp": 1781871037, "identifier": "243a97a3-9481-45e2-8cf8-58c985400225"}</recraft-signature></metadata></svg>