<svg xmlns="http://www.w3.org/2000/svg" height="1024" preserveAspectRatio="none" style="display: block;" version="1.1" viewBox="0 0 2048 2048" width="1024">
<path d="M 879.361 429.598 C 912.895 403.926 946.793 368.198 979.17 341.334 C 1050.84 281.867 1142 252.021 1235.04 264.492 C 1338.2 278.32 1431.25 343.786 1493.74 425.081 C 1515.45 453.327 1547.51 501.516 1561.22 534.609 C 1613.7 639.307 1645.06 780.146 1670.19 894.317 L 1699.6 1023.45 C 1712.8 1082.31 1730.14 1141.57 1741.54 1200.79 C 1758.49 1288.81 1773.36 1377.75 1778.89 1467.31 C 1787.8 1611.64 1670.4 1722.75 1532.31 1735.39 C 1511.19 1737.32 1489.25 1736.49 1468.07 1736.54 L 1372.36 1736.9 L 1061.15 1736.88 L 712.434 1736.92 L 606.861 1736.9 C 586.394 1736.91 562.506 1737.53 542.362 1736.31 C 518.922 1734.73 495.781 1730.15 473.506 1722.68 C 469.145 1721.19 464.804 1719.63 460.484 1718.02 C 429.742 1706.17 402.683 1690.21 378.065 1668.47 C 325.205 1621.79 294.406 1559.98 291.328 1489.01 C 289.942 1457.05 294.717 1425.58 299.37 1393.76 C 308.966 1328.14 322.92 1263.19 336.436 1198.28 L 353.551 1118.26 C 362.242 1076.77 371.747 1031.46 384.384 990.953 C 396.667 950.806 413.184 912.078 433.656 875.423 C 466.744 815.701 524.177 757.158 570.786 706.477 C 510.278 676.335 470.542 646.494 442.28 582.397 C 418.232 526.369 417.556 463.057 440.403 406.528 C 463.28 350.027 507.426 304.767 563.339 280.488 C 620.055 256.324 684.012 255.504 741.328 278.207 C 798.328 301.254 848.33 349.585 870.508 407.358 C 873.383 414.848 876.225 422.204 879.361 429.598 z" fill="rgb(245,201,122)" transform="translate(0,0)"></path>
<path d="M 1561.22 534.609 C 1613.7 639.307 1645.06 780.146 1670.19 894.317 L 1699.6 1023.45 C 1712.8 1082.31 1730.14 1141.57 1741.54 1200.79 C 1758.49 1288.81 1773.36 1377.75 1778.89 1467.31 C 1787.8 1611.64 1670.4 1722.75 1532.31 1735.39 C 1511.19 1737.32 1489.25 1736.49 1468.07 1736.54 L 1372.36 1736.9 L 1061.15 1736.88 L 712.434 1736.92 L 606.861 1736.9 C 586.394 1736.91 562.506 1737.53 542.362 1736.31 C 518.922 1734.73 495.781 1730.15 473.506 1722.68 C 469.145 1721.19 464.804 1719.63 460.484 1718.02 C 475.158 1702.22 507.491 1675.9 524.829 1661.1 C 628.559 1572.53 753.591 1488.48 879.168 1434.68 C 905.11 1423.54 931.482 1413.43 958.223 1404.37 C 981.937 1396.45 1005.95 1389.7 1029.72 1381.48 C 1112.76 1352.77 1187.11 1314.25 1247.85 1249.57 C 1307.34 1187.61 1338.5 1111.37 1357.87 1028.87 C 1389.55 893.913 1426.41 756.575 1492.16 633.711 C 1511.24 598.061 1535.25 565.596 1561.22 534.609 z" fill="rgb(224,168,90)" transform="translate(0,0)"></path>
<path d="M 1469.73 1234.52 C 1480.03 1234.39 1490.32 1234.15 1500.61 1233.82 C 1501.04 1315.22 1498.82 1398.86 1499.86 1479.71 C 1499.53 1483.58 1498.16 1494.48 1500.18 1497.31 C 1501.58 1495.58 1501.62 1495.89 1502.38 1493.92 C 1549.38 1422.64 1614.63 1413.87 1691.54 1392.83 C 1678.23 1417.14 1663.37 1438.95 1648.34 1461.97 C 1613.48 1515.34 1556.09 1522.92 1497.38 1531.99 C 1497.2 1551.66 1496.5 1571.31 1495.28 1590.94 C 1485.25 1590.86 1474.3 1590.32 1464.2 1589.99 C 1464.64 1538.28 1468.02 1484.72 1468.78 1432.46 C 1397.89 1411.58 1361.24 1393.46 1327.32 1323.99 C 1319.18 1307.31 1308.49 1290.01 1300.37 1272.77 C 1369.5 1304.77 1426.17 1304.33 1469.11 1381.37 C 1470.16 1364.69 1469.81 1345.28 1469.87 1328.28 C 1469.99 1297.03 1469.94 1265.78 1469.73 1234.52 z" fill="rgb(42,28,16)" transform="translate(0,0)"></path>
<path d="M 1577.03 792.365 L 1577.52 792.91 C 1577.51 799.254 1575.35 807.438 1574.08 813.83 C 1554.33 913.127 1496.6 963.294 1400.23 985.989 C 1397.74 983.98 1399.92 972.375 1400.33 969.185 C 1413.54 868.253 1480.33 812.377 1577.03 792.365 z" fill="rgb(42,28,16)" transform="translate(0,0)"></path>
<path d="M 1218.8 1436.27 L 1219.55 1437.96 C 1207.09 1549.72 1156.13 1607.07 1047.34 1632.94 C 1047 1632.34 1046.46 1631.52 1046.52 1630.82 C 1049.6 1596.05 1058.41 1559.54 1076.2 1529.46 C 1106.58 1478.07 1163.11 1450.66 1218.8 1436.27 z" fill="rgb(42,28,16)" transform="translate(0,0)"></path>
<path d="M 1421.33 1154.47 C 1445.56 1150.39 1468.57 1166.52 1472.99 1190.69 C 1477.41 1214.86 1461.6 1238.1 1437.49 1242.86 C 1421.6 1246 1405.24 1240.33 1394.69 1228.04 C 1384.14 1215.74 1381.03 1198.72 1386.54 1183.48 C 1392.06 1168.25 1405.35 1157.16 1421.33 1154.47 z" fill="rgb(42,28,16)" transform="translate(0,0)"></path>
<path d="M 1473.04 1065.48 C 1497.3 1060.56 1520.95 1076.29 1525.79 1100.57 C 1530.63 1124.86 1514.81 1148.45 1490.51 1153.2 C 1466.33 1157.92 1442.89 1142.2 1438.08 1118.04 C 1433.27 1093.88 1448.9 1070.38 1473.04 1065.48 z" fill="rgb(42,28,16)" transform="translate(0,0)"></path>
<path d="M 1532.34 1155.52 C 1556.28 1150.46 1579.83 1165.64 1585.1 1189.54 C 1590.37 1213.44 1575.39 1237.12 1551.54 1242.59 C 1527.39 1248.13 1503.36 1232.93 1498.03 1208.74 C 1492.69 1184.55 1508.1 1160.65 1532.34 1155.52 z" fill="rgb(42,28,16)" transform="translate(0,0)"></path>
<path d="M 570.786 706.477 C 510.278 676.335 470.542 646.494 442.28 582.397 C 418.232 526.369 417.556 463.057 440.403 406.528 C 463.28 350.027 507.426 304.767 563.339 280.488 C 620.055 256.324 684.012 255.504 741.328 278.207 C 798.328 301.254 848.33 349.585 870.508 407.358 C 873.383 414.848 876.225 422.204 879.361 429.598 C 808.187 489.483 738.166 550.724 669.336 613.289 C 636.719 643.166 603.294 677.373 570.786 706.477 z" fill="rgb(224,168,90)" transform="translate(0,0)"></path>
<path d="M 572.14 1193.27 C 582.431 1193.37 592.723 1193.35 603.014 1193.2 C 603.655 1251.21 608.275 1316.68 612.255 1374.68 C 617.855 1358.47 625.871 1336.92 634.389 1322.42 C 663.265 1273.23 720.988 1250.6 765.253 1215 C 757.471 1246.15 749.166 1277.58 739.158 1308.07 C 723.003 1357.28 659.305 1388.27 614.735 1408.92 C 617.681 1437.91 619.244 1466.89 622.267 1496.21 C 623.472 1505.91 624.615 1515.08 625.333 1524.86 C 614.947 1524.38 605.489 1524.62 595.129 1524.85 C 591.118 1500.85 589.093 1466.6 587.095 1441.75 C 574.409 1439.65 559.021 1434.97 547.21 1430.97 C 490.49 1411.74 464.56 1383.02 437.57 1331.37 C 429.49 1315.91 420.226 1300.4 412.287 1283.96 C 481.998 1310.24 541.681 1320.46 582.001 1389.5 L 574.363 1254.27 C 573.415 1234.99 571.749 1212.24 572.14 1193.27 z" fill="rgb(42,28,16)" transform="translate(0,0)"></path>
<path d="M 1065.03 832.018 C 1074.7 831.959 1085.19 831.682 1094.77 832.246 C 1095.49 909.761 1093.66 987.278 1089.28 1064.67 C 1134.42 976.316 1181.79 974.237 1262.11 931.59 C 1255.16 953.805 1246.98 974.537 1237.9 995.95 C 1224.66 1027.18 1209.73 1050.67 1178.64 1066.29 C 1148.87 1081.25 1119.76 1089.61 1087.15 1095.49 C 1086.79 1114.36 1084.2 1153.33 1081.96 1172.21 L 1051.06 1172 C 1054.44 1124.52 1058.74 1076.32 1060.21 1028.84 C 1003.79 1017.08 958.357 997.512 927.533 946.995 C 913.099 923.338 898.095 897.82 885.717 873.129 C 906.278 880.541 926.693 888.35 946.951 896.553 C 1005.07 919.91 1030.25 938.045 1059.42 994.008 C 1061.35 990.323 1060.03 987.733 1062.71 987.053 C 1065.32 935.059 1065.03 883.997 1065.03 832.018 z" fill="rgb(42,28,16)" transform="translate(0,0)"></path>
<path d="M 1059.42 994.008 C 1061.35 990.323 1060.03 987.733 1062.71 987.053 C 1062.75 988.816 1062.87 996.507 1061.45 997.343 C 1060.35 996.796 1059.86 995.146 1059.42 994.008 z" fill="rgb(224,168,90)" transform="translate(0,0)"></path>
<path d="M 644.787 794.308 C 756.334 828.244 800.013 890.316 804.868 1005.19 C 699.107 973.592 650.546 901.744 644.787 794.308 z" fill="rgb(42,28,16)" transform="translate(0,0)"></path>
<path d="M 1241.55 407.537 C 1272.99 413.884 1314.01 433.208 1338.82 453.595 C 1389.58 495.299 1401.78 545.273 1408.08 606.789 C 1345.55 590.289 1292.49 557.879 1264.98 497.439 C 1250.92 466.536 1246.26 440.447 1241.55 407.537 z" fill="rgb(42,28,16)" transform="translate(0,0)"></path>
<path d="M 825.495 1132.51 C 860.055 1140.49 899.05 1156.8 926.971 1179.09 C 974.753 1217.24 990.848 1273.52 997.436 1331.73 C 972.68 1325.16 935.071 1308.9 914.435 1294.78 C 855.345 1254.34 837.8 1198.64 825.495 1132.51 z" fill="rgb(42,28,16)" transform="translate(0,0)"></path>
<path d="M 1127.47 748.252 C 1152.02 744.671 1174.78 761.797 1178.13 786.376 C 1181.48 810.955 1164.15 833.551 1139.54 836.677 C 1115.25 839.762 1093.01 822.7 1089.7 798.441 C 1086.39 774.182 1103.25 751.787 1127.47 748.252 z" fill="rgb(42,28,16)" transform="translate(0,0)"></path>
<path d="M 527.944 1106.74 C 552.439 1104.1 574.441 1121.81 577.091 1146.31 C 579.741 1170.8 562.036 1192.81 537.542 1195.47 C 513.039 1198.12 491.021 1180.41 488.37 1155.91 C 485.719 1131.4 503.439 1109.39 527.944 1106.74 z" fill="rgb(42,28,16)" transform="translate(0,0)"></path>
<path d="M 633.58 1107.11 C 657.718 1102.5 681.03 1118.3 685.688 1142.43 C 690.345 1166.56 674.591 1189.9 650.473 1194.61 C 626.284 1199.33 602.858 1183.52 598.186 1159.32 C 593.515 1135.12 609.373 1111.73 633.58 1107.11 z" fill="rgb(42,28,16)" transform="translate(0,0)"></path>
<path d="M 1024.15 747.539 C 1048.64 746.753 1069.16 765.895 1070.08 790.377 C 1071 814.86 1051.98 835.488 1027.5 836.542 C 1002.83 837.605 982.006 818.396 981.078 793.722 C 980.151 769.048 999.475 748.33 1024.15 747.539 z" fill="rgb(42,28,16)" transform="translate(0,0)"></path>
<path d="M 576.884 1013.4 C 601.09 1009.34 623.999 1025.68 628.046 1049.89 C 632.093 1074.09 615.745 1097 591.537 1101.03 C 567.341 1105.07 544.454 1088.73 540.409 1064.54 C 536.364 1040.35 552.692 1017.45 576.884 1013.4 z" fill="rgb(42,28,16)" transform="translate(0,0)"></path>
<path d="M 1076.58 658.289 C 1100.93 655.203 1123.15 672.477 1126.17 696.833 C 1129.18 721.189 1111.84 743.364 1087.48 746.309 C 1063.21 749.243 1041.15 731.99 1038.15 707.733 C 1035.14 683.477 1052.33 661.363 1076.58 658.289 z" fill="rgb(42,28,16)" transform="translate(0,0)"></path>
<metadata><recraft-signature>{"signed_by": "recraft", "signature_b64": "6fZFY+ESen8R/RRIC6M0PYxX89rbcDhyWuzw7P3sMrV/YFtCsQprjCUmXkJ5rIAe5To3XooSr9t+uPsVegwHAw==", "signing_algo": "Ed25519", "generation_timestamp": 1781871049, "identifier": "1791feec-5b34-4f19-b0d5-9d7e9a90b870"}</recraft-signature></metadata></svg>