<svg xmlns="http://www.w3.org/2000/svg" height="1024" preserveAspectRatio="none" style="display: block;" version="1.1" viewBox="0 0 2048 2048" width="1024">
<path d="M 1618.13 1373.81 C 1628.7 1380.11 1639.37 1388.36 1649.54 1395.53 L 1690.07 1423.52 C 1719.56 1443.99 1749.45 1464.54 1778.83 1485.16 C 1791.2 1494.04 1799.15 1504.12 1801.02 1519.68 C 1803.92 1543.74 1790.13 1563.46 1767.27 1570.48 C 1750.4 1575.65 1733.42 1580.2 1716.43 1585.05 L 1611.24 1614.89 L 1246.13 1719 L 1074.02 1768.86 C 973.34 1798.06 999.56 1799.91 906.968 1750.82 L 815.172 1702.97 L 540.395 1561.27 L 343.077 1462.09 C 336.385 1458.7 329.498 1455.43 322.89 1451.89 C 295.719 1437.33 264.506 1431.61 264.245 1393.51 C 263.72 1316.82 264.099 1240.14 264.072 1163.46 L 264.055 723.438 L 263.991 480.772 L 263.92 405.128 C 263.912 380.799 259.3 353.48 277.47 335.006 C 286.913 325.329 300.009 320.099 313.521 320.609 C 322.842 321.047 350.63 329.532 361.478 332.604 C 393.327 341.629 425.131 350.814 456.888 360.16 L 694.505 427.442 L 752.5 444.328 C 757.135 445.671 776.417 451.553 779.844 451.526 C 793.696 451.415 813.607 447.196 827.645 444.801 L 922.108 428.443 L 1407.98 344.612 L 1518.35 325.271 C 1547.03 320.361 1579.65 309.36 1602.77 332.738 C 1609.69 339.643 1614.44 348.416 1616.45 357.982 C 1619.01 370.456 1618.11 414.86 1618.1 430.061 L 1617.89 574.746 C 1629.87 592.289 1647.19 608.491 1661.03 624.501 C 1695.79 664.697 1732.44 703.265 1767.07 743.563 C 1775.91 753.848 1785.35 763.59 1793.93 774.152 C 1794.57 787.502 1794.69 811.096 1793.04 823.804 C 1788.83 854.806 1772.65 882.93 1747.97 902.162 C 1726 919.012 1696.97 928.304 1669.41 924.296 C 1641.12 920.184 1622.86 906.272 1605.79 884.158 C 1599.84 901.785 1594.32 912.633 1581.79 926.625 C 1578.88 929.877 1572.46 936.042 1570.66 939.255 L 1571.17 1026.66 C 1615.47 1031.26 1619.42 1060.62 1617.96 1097.42 C 1617.4 1111.58 1617.98 1128.28 1617.97 1142.66 L 1617.75 1283.41 C 1617.61 1311.31 1616.45 1346.35 1618.13 1373.81 z" fill="rgb(42,28,16)" transform="translate(0,0)"></path>
<path d="M 826.148 856.932 C 841.996 878.279 866.411 916.541 880.867 939.257 C 881.118 964.63 878.352 996.6 887.675 1019.7 C 897.25 1043.42 913.739 1060.57 937.324 1070.5 C 961.499 1080.54 988.683 1080.5 1012.83 1070.39 C 1042.61 1058.16 1062.76 1034.31 1075.04 1005.05 C 1087.45 1018.74 1097.32 1026.39 1114.97 1033 C 1140.07 1042.61 1167.96 1041.81 1192.46 1030.78 C 1223.7 1016.42 1241.84 990.938 1253.59 959.709 C 1257.07 963.652 1260.56 967.696 1264.27 971.401 C 1308.01 1015.15 1379.78 999.967 1412.87 951.187 C 1419.31 941.699 1422.96 934.746 1427.87 924.293 C 1458.05 961.665 1501.62 971.755 1546.03 953.778 C 1553.2 950.875 1564.6 940.945 1570.66 939.255 L 1571.17 1026.66 C 1557.46 1028.82 1549.12 1031.63 1538.66 1041.58 C 1522.44 1057.03 1525.62 1079.73 1525.58 1100.38 L 1525.51 1153.96 L 1525.23 1358.32 C 1466.3 1371.24 1397.74 1389.94 1338.98 1405.28 C 1338.33 1341.33 1339.39 1277.23 1338.97 1213.26 C 1338.97 1194.82 1339.06 1175.91 1339.03 1157.51 C 1339.01 1138.15 1340.31 1117.52 1326.65 1102 C 1319.94 1094.38 1307.11 1086.58 1296.93 1086.91 C 1276.37 1087.59 1252.84 1093.32 1232.85 1097.39 L 1143.06 1115.6 L 1025 1139.22 C 1001.6 1143.89 977.725 1148.24 954.785 1154.31 C 938.903 1159.1 927.731 1172.88 925.614 1189.1 C 923.807 1202.95 924.271 1215.92 924.271 1229.66 L 924.331 1290.74 C 924.702 1365.04 924.637 1439.34 924.136 1513.63 C 895.725 1522.81 855.324 1532.04 826.196 1538.81 C 825.009 1457.2 826.027 1373.15 826.016 1291.31 L 826.148 856.932 z" fill="rgb(224,168,90)" transform="translate(0,0)"></path>
<path d="M 353.186 428.145 C 365.407 430.595 381.842 435.565 394.088 438.986 L 461.405 457.757 L 615.089 499.649 C 654.242 510.58 693.82 522.539 733.152 532.671 L 733.819 1560.05 C 703.197 1543.5 670.387 1527.46 639.264 1511.38 L 474.702 1426.44 C 434.134 1405.82 393.485 1385.85 353.57 1363.91 C 353.097 1309.96 352.962 1256 353.164 1202.04 L 353.213 934.361 C 352.252 765.624 352.243 596.883 353.186 428.145 z" fill="rgb(224,168,90)" transform="translate(0,0)"></path>
<path d="M 460.158 721.339 C 476.778 721.65 528.36 740.39 547.689 746.288 C 580.373 756.263 619.459 766.611 650.253 781.074 C 658.302 784.854 669.919 802.775 670.41 812.089 C 671.533 833.394 671.11 855.565 671.127 877.128 L 671.139 1014.8 L 671.071 1219.34 C 671.071 1254.11 671.448 1288.94 670.613 1323.69 C 669.969 1350.48 651.686 1364.14 626.63 1367.22 C 619.775 1366.78 612.301 1364.74 605.971 1362.05 C 569.705 1346.66 533.84 1329.92 498.186 1313.12 C 477.654 1303.44 454.637 1294.11 434.897 1283.14 C 425.667 1277.32 417.896 1265.75 416.565 1254.63 C 414.455 1236.99 415.285 1216.71 415.268 1198.86 L 415.244 1085.87 L 415.57 871.051 C 415.61 835.826 414.922 800.572 415.727 765.37 C 416.335 738.818 435.635 724.718 460.158 721.339 z" fill="rgb(42,28,16)" transform="translate(0,0)"></path>
<path d="M 506.982 831.488 C 529.986 838.346 556.827 845.903 579.01 854.13 L 578.997 1250.89 C 563.27 1246.31 523.859 1228.24 507.006 1221.03 L 506.982 831.488 z" fill="rgb(224,168,90)" transform="translate(0,0)"></path>
<path d="M 1521.56 417.273 C 1523.06 416.963 1522.12 417.037 1524.38 417.566 C 1526.41 423.386 1525.01 558.278 1525 575.526 C 1464.96 589.051 1403.82 600.313 1343.57 612.971 L 829.328 719.606 C 826.963 719.598 827.964 720.012 826.296 718.441 C 825.438 714.073 825.947 675.12 825.949 668.3 L 825.983 537.979 C 848.736 532.936 880.049 528.443 903.55 524.22 C 968.197 512.567 1032.94 501.464 1097.78 490.911 L 1521.56 417.273 z" fill="rgb(224,168,90)" transform="translate(0,0)"></path>
<path d="M 1549.64 1442.2 C 1550.01 1442.16 1550.39 1442.07 1550.76 1442.09 C 1556.31 1442.35 1646.88 1502.68 1654.5 1509 C 1623.59 1518.69 1589.77 1527.55 1558.39 1536.54 L 1353.18 1594.98 C 1234.75 1628.65 1115.02 1664.88 996.345 1696.93 C 989.486 1692.99 981.773 1689.19 974.701 1685.54 C 933.191 1664.95 893.958 1642.81 852.835 1621.92 C 862.968 1618.55 878.136 1615.13 888.878 1612.32 L 964.172 1592.81 C 1030.51 1575.13 1096.95 1557.83 1163.49 1540.91 L 1421.69 1474.4 C 1463.26 1463.77 1507.9 1451.53 1549.64 1442.2 z" fill="rgb(224,168,90)" transform="translate(0,0)"></path>
<path d="M 1244.82 1185.23 L 1246.18 1185.53 C 1247.93 1190.57 1246.92 1238.36 1246.93 1247.25 L 1246.97 1429.37 C 1227.38 1432.7 1185.86 1444.92 1165.07 1450.37 C 1116.18 1462.71 1067.4 1475.48 1018.74 1488.69 L 1018.05 1488.39 C 1015.83 1485.29 1017.07 1261.85 1017.03 1234.69 C 1092.8 1217.06 1169.41 1202.87 1244.82 1185.23 z" fill="rgb(224,168,90)" transform="translate(0,0)"></path>
<metadata><recraft-signature>{"signed_by": "recraft", "signature_b64": "trvC69DaRYuILglNpN1REcmCWQYVfM3ZtrQnafSF2USs+GbarITG+NNsQfpTf+qliuzQApVcjvZeXBndimF8Aw==", "signing_algo": "Ed25519", "generation_timestamp": 1781871037, "identifier": "f64db098-a285-4404-90be-b21124fd77c2"}</recraft-signature></metadata></svg>