<svg xmlns="http://www.w3.org/2000/svg" height="1024" preserveAspectRatio="none" style="display: block;" version="1.1" viewBox="0 0 2048 2048" width="1024">
<path d="M 1147.56 679.325 C 1148.84 683.147 1153.97 685.655 1157.83 687.535 C 1196.85 706.516 1247.61 709.226 1288.41 695.04 C 1296.38 692.335 1303.98 688.624 1311.02 683.996 C 1314.45 756.011 1319.97 833.414 1325.31 905.64 C 1368.19 908.77 1398.13 920.69 1427.08 953.556 C 1464.94 996.535 1456.25 1034.96 1458.1 1086.19 C 1475.39 1091.78 1498.15 1102.39 1515.46 1109.48 C 1527.26 1114.31 1549.05 1122.14 1559.29 1127.4 C 1556.01 1132.99 1552.33 1139.59 1548.74 1144.89 L 1535.05 1139.79 C 1519.52 1166.13 1504.86 1194.81 1490.02 1221.76 C 1480.62 1238.84 1464.76 1265.75 1457.94 1283.01 L 1458.12 1384.44 C 1458.06 1399.35 1458.47 1418.43 1457.74 1432.99 C 1455.22 1457.66 1463.39 1484.5 1443.1 1505.35 C 1430.51 1518.3 1415.04 1521.89 1397.7 1521.98 C 1336.07 1522.31 1274.42 1522.38 1212.8 1522.48 L 827.549 1522.46 L 641.555 1522.16 L 586.576 1522.06 C 561.623 1522.06 537.669 1525.71 518.775 1506.38 C 498.385 1485.52 502.513 1459.02 503.034 1432.56 L 502.86 1162.72 L 502.915 1074.09 C 502.972 1055.62 502.073 1027.84 505.568 1010.5 C 510.286 986.654 521.912 964.724 538.998 947.436 C 570.023 915.731 605.18 907.04 647.694 906.509 C 758.529 796.674 909.681 751.044 1062.24 784.021 C 1090.39 790.105 1111.98 794.394 1139.48 804.391 C 1141.17 762.881 1146.42 720.164 1147.56 679.325 z" fill="rgb(224,168,90)" transform="translate(0,0)"></path>
<path d="M 503.034 1432.56 C 543.994 1433.34 586.35 1432.6 627.411 1432.52 L 828.162 1432.45 L 1457.74 1432.99 C 1455.22 1457.66 1463.39 1484.5 1443.1 1505.35 C 1430.51 1518.3 1415.04 1521.89 1397.7 1521.98 C 1336.07 1522.31 1274.42 1522.38 1212.8 1522.48 L 827.549 1522.46 L 641.555 1522.16 L 586.576 1522.06 C 561.623 1522.06 537.669 1525.71 518.775 1506.38 C 498.385 1485.52 502.513 1459.02 503.034 1432.56 z" fill="rgb(42,28,16)" transform="translate(0,0)"></path>
<path d="M 1147.56 679.325 C 1148.84 683.147 1153.97 685.655 1157.83 687.535 C 1196.85 706.516 1247.61 709.226 1288.41 695.04 C 1296.38 692.335 1303.98 688.624 1311.02 683.996 C 1314.45 756.011 1319.97 833.414 1325.31 905.64 L 1314.09 906.259 C 1259.18 855.327 1207.29 832.168 1139.48 804.391 C 1141.17 762.881 1146.42 720.164 1147.56 679.325 z" fill="rgb(42,28,16)" transform="translate(0,0)"></path>
<path d="M 1458.1 1086.19 C 1475.39 1091.78 1498.15 1102.39 1515.46 1109.48 C 1527.26 1114.31 1549.05 1122.14 1559.29 1127.4 C 1556.01 1132.99 1552.33 1139.59 1548.74 1144.89 L 1535.05 1139.79 C 1519.52 1166.13 1504.86 1194.81 1490.02 1221.76 C 1480.62 1238.84 1464.76 1265.75 1457.94 1283.01 C 1456.6 1267.96 1457.57 1233.83 1457.6 1217.24 L 1458.1 1086.19 z" fill="rgb(42,28,16)" transform="translate(0,0)"></path>
<path d="M 706.618 1062.32 C 753.025 1054.35 805.09 1090.2 813.596 1136.4 C 818.537 1163.23 816.948 1192.79 816.959 1220.17 L 816.977 1338.07 L 732.5 1338 L 620.438 1337.9 L 620.017 1212.46 C 619.975 1194.35 618.884 1156.6 621.895 1140.26 C 624.484 1126.06 630.259 1112.64 638.785 1101 C 655.717 1077.89 678.913 1066.72 706.618 1062.32 z" fill="rgb(42,28,16)" transform="translate(0,0)"></path>
<path d="M 980.197 1063.42 C 1007.2 1063.07 1032.66 1073.18 1051.73 1092.33 C 1064.16 1104.92 1072.83 1120.73 1076.75 1137.99 C 1081.02 1156.14 1079.36 1195.98 1079.4 1216.13 L 1079.86 1338.21 L 985.169 1338.11 L 883.36 1337.95 L 883.071 1216.17 C 883.028 1195.13 881.65 1156.06 885.825 1137.39 C 889.172 1122.81 896.008 1109.26 905.746 1097.91 C 925.75 1074.4 950.347 1065.73 980.197 1063.42 z" fill="rgb(42,28,16)" transform="translate(0,0)"></path>
<path d="M 1229.85 1064.37 C 1284.2 1056.84 1335.65 1094.85 1340.51 1149.8 C 1342.28 1169.83 1341.12 1194.12 1341.11 1214.56 L 1341.01 1338.03 L 1256.5 1338.06 L 1145.59 1337.92 L 1145.34 1213.91 C 1145.3 1194.42 1144.04 1158.7 1147.38 1141.02 C 1149.99 1126.89 1155.79 1113.55 1164.33 1102 C 1180.7 1080.01 1203.11 1068.28 1229.85 1064.37 z" fill="rgb(42,28,16)" transform="translate(0,0)"></path>
<path d="M 942.025 819.417 C 949.258 818.696 961.528 818.729 968.992 818.647 C 1060.39 817.668 1150.14 843.101 1227.43 891.89 C 1237.05 897.829 1262.4 913.523 1270.03 921 L 1018.25 921.248 L 685.547 921.044 C 765.198 855.009 839.588 827.319 942.025 819.417 z" fill="rgb(42,28,16)" transform="translate(0,0)"></path>
<path d="M 1143.61 367.16 C 1180.79 366.92 1217.97 366.925 1255.14 367.177 C 1276.98 367.215 1301.65 366.46 1323.06 367.15 C 1324.11 383.716 1323.51 403.043 1323.76 420.01 C 1314.34 420.111 1304.45 420.055 1295.07 420.354 C 1295.59 446.494 1298.11 476.032 1299.99 502.199 L 1307.4 611.515 C 1308.66 631.028 1311.77 665.866 1311.02 683.996 C 1303.98 688.624 1296.38 692.335 1288.41 695.04 C 1247.61 709.226 1196.85 706.516 1157.83 687.535 C 1153.97 685.655 1148.84 683.147 1147.56 679.325 C 1148.09 657.856 1152.17 631.922 1154.44 610.13 C 1157.89 576.985 1160.36 543.914 1163.55 510.803 C 1166.44 480.86 1170.9 450.141 1171.84 419.995 L 1143.54 419.941 C 1143.49 404.066 1142.76 382.587 1143.61 367.16 z" fill="rgb(245,201,122)" transform="translate(0,0)"></path>
<path d="M 1143.61 367.16 C 1180.79 366.92 1217.97 366.925 1255.14 367.177 C 1276.98 367.215 1301.65 366.46 1323.06 367.15 C 1324.11 383.716 1323.51 403.043 1323.76 420.01 C 1314.34 420.111 1304.45 420.055 1295.07 420.354 C 1254.53 419.653 1212.5 420.076 1171.84 419.995 L 1143.54 419.941 C 1143.49 404.066 1142.76 382.587 1143.61 367.16 z" fill="rgb(42,28,16)" transform="translate(0,0)"></path>
<metadata><recraft-signature>{"signed_by": "recraft", "signature_b64": "SJYllNeMz1kAXjzjhuTlQlvpb8Are1hciK9O4jazzmWXmmhqb/RCG2nX8fpU+2Vkk8Zr8mcD3CNw+ZE9nFrxDQ==", "signing_algo": "Ed25519", "generation_timestamp": 1781871047, "identifier": "6a522ad5-3dc4-4fb3-be67-b5d797520a18"}</recraft-signature></metadata></svg>