<svg xmlns="http://www.w3.org/2000/svg" height="1024" preserveAspectRatio="none" style="display: block;" version="1.1" viewBox="0 0 2048 2048" width="1024">
<path d="M 1524.92 1010.49 C 1542.75 1010.36 1561.67 1009.91 1579.4 1010.59 C 1579.86 1017.06 1580.48 1021.71 1581.48 1028.12 C 1661.42 1029.71 1728.7 1053.27 1786.44 1110.61 C 1836.82 1159.77 1865.44 1227.03 1865.95 1297.41 C 1865.79 1363.02 1835.05 1434.79 1788.3 1480.85 C 1758.88 1509.84 1705.89 1538.31 1665.94 1549.34 C 1629.38 1559.44 1585.82 1558.03 1548.01 1557.53 L 1447.44 1556.01 C 1430.57 1575.42 1411.68 1596.79 1393.28 1614.6 C 1332.75 1672.57 1262.23 1719.12 1185.14 1752.01 C 1041.34 1814.02 880.557 1824.54 729.906 1781.79 C 699.586 1773.22 674.486 1763.38 645.528 1751.76 C 507.845 1692.05 393.479 1588.93 319.88 1458.14 C 284.167 1393.55 256.274 1312.48 247.845 1238.88 C 239.697 1167.73 242.144 1082.12 262.011 1013.04 C 272.612 1011.77 293.644 1012.36 305.12 1012.41 L 382.586 1012.71 L 632.75 1012.98 L 1524.92 1010.49 z M 1521.11 1430.58 C 1550.4 1434.29 1601.48 1434.14 1631.11 1428.9 C 1641.5 1427.06 1651.84 1422.68 1661.37 1418.35 C 1702.61 1396.64 1726.21 1371.12 1740.29 1326.16 C 1749.81 1295.74 1741.97 1261.73 1726.94 1234.7 C 1695.26 1177.71 1653.02 1155.81 1588.92 1157.03 C 1587.45 1176.13 1586.71 1193.92 1584.32 1213.01 C 1574.51 1288.34 1553.19 1361.72 1521.11 1430.58 z" fill="rgb(42,28,16)" transform="translate(0,0)"></path>
<path d="M 910.779 237.707 C 916.881 243.095 927.562 259.471 932.902 266.51 C 945.911 283.658 958.401 301.189 970.858 318.73 C 996.624 355.011 1024.85 390.086 1050.95 426.109 C 1065.94 447.152 1081.09 468.08 1096.39 488.889 C 1104.57 500.044 1115.58 515.884 1124.81 525.727 C 1134.87 510.323 1146.65 486.304 1156 469.552 L 1235.93 324.855 C 1242.61 312.881 1258.76 280.308 1265.34 271.208 C 1274.81 286.276 1284.9 304.528 1294.15 320.089 L 1376.82 460.599 C 1387.91 479.438 1399.02 499.425 1410.67 517.824 C 1429.67 501.33 1459.33 468.483 1478.09 449.273 L 1608.49 316.146 C 1618.83 305.567 1655.83 265.093 1665.47 258.224 C 1665.09 269.264 1662.05 286.258 1660.74 297.878 C 1656.72 333.452 1650.58 368.977 1645.66 404.437 L 1607.01 687.971 L 1579.19 890.865 C 1575.6 917.194 1570.45 967.062 1564.62 990.351 L 937.5 988.998 L 264.247 990.075 C 253.501 908.784 243.264 827.426 233.538 746.006 L 189.388 400.715 C 183.594 355.883 178.877 311.332 172.517 266.465 C 195.078 287.642 223.555 319.062 245.677 341.727 C 304.451 402.219 363.529 462.414 422.91 522.311 C 436.777 499.658 448.033 477.383 460.618 454.073 L 522.887 339.367 C 534.816 317.45 547.222 293.581 559.851 272.311 C 570.536 288.132 582.881 312.029 593.098 329.372 L 668.234 457.528 C 677.824 474.123 693.861 504.916 704.362 519.613 C 712.566 509.987 721.475 496.979 729.14 486.568 C 743.815 466.792 758.328 446.896 772.678 426.882 C 805.08 381.381 837.926 336.198 871.21 291.339 C 884.442 273.435 897.064 255.271 910.779 237.707 z" fill="rgb(224,168,90)" transform="translate(0,0)"></path>
<metadata><recraft-signature>{"signed_by": "recraft", "signature_b64": "c/AP2QJJeMDN0xo4PVUA9go8TXNRwEREYgTWJPUX4NSMlX69XJpsgm4VnuJeKiLPvEhZZC9kDZveFWj9zQSuDw==", "signing_algo": "Ed25519", "generation_timestamp": 1781871050, "identifier": "17158a91-f183-414a-9ec4-16ff1349de64"}</recraft-signature></metadata></svg>