<svg xmlns="http://www.w3.org/2000/svg" height="1024" preserveAspectRatio="none" style="display: block;" version="1.1" viewBox="0 0 2048 2048" width="1024">
<path d="M 852.796 437.551 C 855.761 435.32 858.269 434.247 861.651 432.759 C 913.195 410.09 959.059 408.381 1011.18 427.796 C 1019.55 428.499 1027.33 429.624 1036.16 430.225 L 1038.96 430.302 C 1047.6 430.157 1055.94 429.35 1064.49 428.815 C 1146.95 423.667 1226.03 466.376 1283.2 522.948 C 1370.08 608.931 1427.74 729.711 1454.99 847.761 C 1467.89 905.975 1474.94 965.332 1476.04 1024.95 C 1478.79 1200.34 1422.69 1396.54 1299.83 1525.98 C 1234.08 1595.24 1147.41 1642.31 1049.51 1618.99 L 1031.74 1618.98 C 1021.67 1621.19 1011.29 1625.71 999.398 1628.11 C 961.534 1635.71 920.443 1627.32 885.301 1612.76 C 809.797 1581.48 750.151 1521.86 704.405 1455.44 C 695.393 1442.36 678.291 1417.33 672.28 1402.86 C 667.348 1395.88 655.266 1371.4 651.392 1363.39 C 620.29 1299.05 598.954 1231.71 585.859 1161.51 C 581.489 1138.09 576.909 1112.99 576.045 1089.06 C 571.538 1071 571.25 984.672 573.968 966.464 C 573.901 949.151 576.671 925.521 578.717 907.994 C 586.005 845.568 601.608 780.135 622.927 721.088 C 661.625 613.908 745.411 486.503 852.796 437.551 z" fill="rgb(224,168,90)" transform="translate(0,0)"></path>
<path d="M 1011.18 427.796 C 1019.55 428.499 1027.33 429.624 1036.16 430.225 L 1038.96 430.302 C 1047.6 430.157 1055.94 429.35 1064.49 428.815 C 1146.95 423.667 1226.03 466.376 1283.2 522.948 C 1370.08 608.931 1427.74 729.711 1454.99 847.761 C 1467.89 905.975 1474.94 965.332 1476.04 1024.95 C 1478.79 1200.34 1422.69 1396.54 1299.83 1525.98 C 1234.08 1595.24 1147.41 1642.31 1049.51 1618.99 L 1031.74 1618.98 C 1040.57 1613.9 1044.74 1611.85 1053.19 1605.71 C 1040.36 1587.57 1034.4 1569.83 1032.09 1547.65 C 1026.49 1493.92 1044.95 1438.34 1077.85 1395.96 C 1087.9 1383.02 1100.77 1372.14 1109.91 1360.45 C 1127.6 1337.82 1136.26 1300.09 1139.54 1272.36 C 1147.51 1205.05 1120.96 1130.31 1073.54 1082.01 C 1060.27 1068.5 1045.39 1057.63 1031.65 1044.93 C 998.61 1014.52 979.117 972.199 974.262 927.997 C 967.113 862.906 988.472 799.146 1030.66 749.581 C 1036.87 742.285 1044.22 734.367 1049.92 726.695 C 1116.43 637.169 1112.07 504.581 1019.97 434.007 C 1017.05 431.917 1014.09 429.895 1011.18 427.796 z" fill="rgb(224,168,90)" transform="translate(0,0)"></path>
<path d="M 1038.96 430.302 C 1047.6 430.157 1055.94 429.35 1064.49 428.815 C 1146.95 423.667 1226.03 466.376 1283.2 522.948 C 1370.08 608.931 1427.74 729.711 1454.99 847.761 C 1467.89 905.975 1474.94 965.332 1476.04 1024.95 C 1478.79 1200.34 1422.69 1396.54 1299.83 1525.98 C 1234.08 1595.24 1147.41 1642.31 1049.51 1618.99 C 1059.57 1615.69 1070.34 1613.79 1081.54 1610.14 C 1116.78 1598.67 1150.08 1578.72 1178.3 1554.39 C 1304.45 1445.64 1363.52 1267.31 1378.58 1106.48 C 1397.18 907.838 1350.08 701.838 1222.15 545.996 C 1183.28 498.645 1129.13 454.815 1070.27 437.667 C 1061.18 435.021 1048.12 431.137 1038.96 430.302 z" fill="rgb(42,28,16)" transform="translate(0,0)"></path>
<path d="M 1011.18 427.796 C 1019.55 428.499 1027.33 429.624 1036.16 430.225 C 1032.03 435.943 1026.39 434.438 1019.97 434.007 C 1017.05 431.917 1014.09 429.895 1011.18 427.796 z" fill="rgb(245,201,122)" transform="translate(0,0)"></path>
<path d="M 1106.11 1545.82 C 1059.89 1547.57 1073.45 1496.18 1090.08 1471.86 C 1107.3 1446.67 1153.53 1405.49 1185.45 1427.61 C 1208.04 1443.28 1186.94 1489.19 1172.89 1504.61 C 1157.33 1522.91 1135.16 1542.63 1109.79 1545.27 L 1108.64 1545.37 C 1107.56 1545.96 1107.52 1545.82 1106.11 1545.82 z" fill="rgb(42,28,16)" transform="translate(0,0)"></path>
<path d="M 1106.11 1545.82 C 1107.29 1545.07 1107.2 1545.16 1108.64 1545.37 C 1107.56 1545.96 1107.52 1545.82 1106.11 1545.82 z" fill="rgb(156,106,46)" transform="translate(0,0)"></path>
<path d="M 1163.35 1423.31 C 1177.77 1421.88 1191.61 1429.77 1192.72 1444.95 C 1195.95 1489.26 1149.15 1538.61 1106.91 1543.64 C 1044.25 1551.29 1085.99 1435.09 1163.35 1423.31 z" fill="rgb(245,201,122)" transform="translate(0,0)"></path>
<path d="M 852.796 437.551 C 855.761 435.32 858.269 434.247 861.651 432.759 C 913.195 410.09 959.059 408.381 1011.18 427.796 C 1014.09 429.895 1017.05 431.917 1019.97 434.007 C 1112.07 504.581 1116.43 637.169 1049.92 726.695 C 1044.22 734.367 1036.87 742.285 1030.66 749.581 C 988.472 799.146 967.113 862.906 974.262 927.997 C 979.117 972.199 998.61 1014.52 1031.65 1044.93 C 1045.39 1057.63 1060.27 1068.5 1073.54 1082.01 C 1120.96 1130.31 1147.51 1205.05 1139.54 1272.36 C 1136.26 1300.09 1127.6 1337.82 1109.91 1360.45 C 1100.77 1372.14 1087.9 1383.02 1077.85 1395.96 C 1044.95 1438.34 1026.49 1493.92 1032.09 1547.65 C 1034.4 1569.83 1040.36 1587.57 1053.19 1605.71 C 1044.74 1611.85 1040.57 1613.9 1031.74 1618.98 C 1021.67 1621.19 1011.29 1625.71 999.398 1628.11 C 961.534 1635.71 920.443 1627.32 885.301 1612.76 C 809.797 1581.48 750.151 1521.86 704.405 1455.44 C 695.393 1442.36 678.291 1417.33 672.28 1402.86 C 678.322 1409.16 691.595 1434.07 697.899 1443.48 C 758.083 1533.35 835.336 1606.79 944.302 1627.91 C 930.495 1614.95 919.459 1599.33 911.858 1581.99 C 885.048 1522.21 902.306 1446.79 937.2 1393.36 C 945.818 1379.26 959.48 1368.14 969.327 1355.32 C 1024.24 1283.82 1015.95 1187.18 955.625 1121.77 C 942.61 1107.66 931.905 1101.35 918.516 1089.07 C 897.201 1069.53 878.783 1039.09 866.243 1013.26 C 826.429 926.652 835.584 814.975 889.447 736.209 C 915.611 697.948 937.699 685.601 954.993 638.633 C 973.757 587.672 976.288 519.906 945.041 473.38 C 928.753 449.127 921.992 450.04 907.478 418.665 C 885.977 425.126 872.693 430.872 852.796 437.551 z" fill="rgb(42,28,16)" transform="translate(0,0)"></path>
<path d="M 576.045 1089.06 C 571.538 1071 571.25 984.672 573.968 966.464 C 575.335 980.521 573.725 1011.08 574.043 1027.93 C 574.382 1041 574.864 1054.08 575.491 1067.14 C 575.767 1073.36 576.72 1083.42 576.045 1089.06 z" fill="rgb(156,106,46)" transform="translate(0,0)"></path>
<path d="M 653.608 1041.55 C 635.565 1020.58 630.676 984.553 629.391 957.471 C 623.764 813.696 678.881 662.61 772.339 553.587 C 792.942 529.552 847.88 469.175 884.054 501.489 C 892.819 509.319 896.957 524.385 897.268 536.287 C 898.272 538.136 898.001 538.459 897.777 540.782 L 897.848 544.465 C 898.063 550.26 898.172 552.461 897.105 558.108 C 897.064 590.217 876.256 642.824 856.399 667.475 C 841.332 686.18 829.053 698.772 815.367 719.794 C 786.745 764.619 767.05 814.549 757.363 866.843 C 755.392 877.232 752.841 891.888 752.619 902.247 C 752.627 903.233 752.662 903.134 752.23 904.03 C 749.013 945.872 734.945 1017.27 702.48 1044.7 C 687.73 1054.54 674.807 1056.41 659.212 1046.74 C 656.837 1045.06 655.591 1043.66 653.608 1041.55 z" fill="rgb(42,28,16)" transform="translate(0,0)"></path>
<path d="M 655.756 1040.63 C 630.698 1012.82 628.769 946.164 631.227 909.597 C 640.725 768.277 700.741 622.86 803.56 523.899 C 822.503 505.666 861.633 478.613 884.433 504.974 C 897.526 520.113 896.378 543.909 894.794 562.623 C 891.198 599.521 876.241 637.996 853.873 667.609 C 846.011 678.019 836.844 687.374 828.879 697.375 C 820.188 708.29 810.314 723.435 803.38 735.55 C 783.454 770.673 768.696 808.485 759.563 847.82 C 746.188 904.971 748.613 1002.86 700.465 1043.63 C 683.849 1054.89 671.965 1053.2 656.396 1042.01 C 656.18 1041.38 656.156 1041.11 655.756 1040.63 z" fill="rgb(245,201,122)" transform="translate(0,0)"></path>
<path d="M 655.756 1040.63 C 656.156 1041.11 656.18 1041.38 656.396 1042.01 C 657.309 1043.6 658.247 1045.18 659.212 1046.74 C 656.837 1045.06 655.591 1043.66 653.608 1041.55 L 655.756 1040.63 z" fill="rgb(156,106,46)" transform="translate(0,0)"></path>
<path d="M 897.105 558.108 C 896.668 552.237 896.817 550.377 897.848 544.465 C 898.063 550.26 898.172 552.461 897.105 558.108 z" fill="rgb(156,106,46)" transform="translate(0,0)"></path>
<path d="M 897.268 536.287 C 898.272 538.136 898.001 538.459 897.777 540.782 C 896.722 538.835 896.944 538.537 897.268 536.287 z" fill="rgb(156,106,46)" transform="translate(0,0)"></path>
<path d="M 754.976 1317.13 C 720.317 1276.21 723.087 1215.48 761.329 1177.87 C 799.57 1140.27 860.338 1138.53 900.674 1173.88 C 941.009 1209.22 947.258 1269.69 915.004 1312.54 C 882.749 1355.39 822.908 1366.11 777.786 1337.12 C 776.367 1336.37 776.349 1336.28 774.904 1335.2 C 773.535 1334.4 773.131 1334.31 772.067 1333.17 C 771.623 1332.84 771.183 1332.5 770.745 1332.17 C 769.508 1331.35 769.091 1331.22 768.145 1330.1 C 767.356 1329.45 766.577 1328.8 765.808 1328.12 C 763.781 1326.85 763.664 1326.84 762.319 1324.94 C 760.53 1323.22 758.803 1321.45 757.143 1319.61 C 756.021 1318.52 755.897 1318.39 754.976 1317.13 z" fill="rgb(42,28,16)" transform="translate(0,0)"></path>
<path d="M 822.8 1151.05 C 877.793 1145.38 927.036 1185.2 933.001 1240.16 C 938.967 1295.12 899.415 1344.58 844.487 1350.84 C 789.135 1357.16 739.213 1317.23 733.201 1261.85 C 727.19 1206.46 767.383 1156.76 822.8 1151.05 z" fill="rgb(245,201,122)" transform="translate(0,0)"></path>
<metadata><recraft-signature>{"signed_by": "recraft", "signature_b64": "2ijuyYHfMrisKlVnFQ+9idhJvWzX4mNVWCi6qaDd03u3UPjls3sC05Svej/1+XSbBJssK5BH021jRxb9bIDvCA==", "signing_algo": "Ed25519", "generation_timestamp": 1781871032, "identifier": "49cadc00-9433-41b9-87df-ba6703498f88"}</recraft-signature></metadata></svg>