<svg xmlns="http://www.w3.org/2000/svg" height="1024" preserveAspectRatio="none" style="display: block;" version="1.1" viewBox="0 0 2048 2048" width="1024">
<defs>
	<linearGradient gradientUnits="userSpaceOnUse" id="Gradient1" x1="1023.68" x2="1026.29" y1="330.689" y2="403.668">
		<stop class="stop0" offset="0" stop-color="rgb(252,220,155)" stop-opacity="0.901961"></stop>
		<stop class="stop1" offset="1" stop-color="rgb(253,227,175)" stop-opacity="0.984314"></stop>
	</linearGradient>
	<linearGradient gradientUnits="userSpaceOnUse" id="Gradient2" x1="1786.63" x2="1480.36" y1="946.286" y2="903.311">
		<stop class="stop0" offset="0" stop-color="rgb(244,243,244)" stop-opacity="0"></stop>
		<stop class="stop1" offset="1" stop-color="rgb(234,233,232)" stop-opacity="0.552941"></stop>
	</linearGradient>
</defs>
<path d="M 598.389 960.43 C 614.569 867.619 636.476 782.295 685.456 699.17 C 740.998 604.91 837.414 497.898 956.565 499.011 C 982.71 499.255 1002.92 508.396 1024.85 521.162 C 1046.95 510.16 1066.35 502.782 1092.04 503.236 C 1210.08 505.324 1298.4 603.182 1356.44 696.164 C 1356.72 696.509 1357 696.854 1357.29 697.199 C 1401.51 735.117 1434.24 823.809 1450.13 878.576 C 1455.89 898.438 1458.56 916.963 1463.23 936.503 C 1493.29 895.921 1520.21 863.997 1565.33 838.584 C 1609.79 813.548 1654.95 810.599 1702.39 796.022 C 1751.46 780.948 1787.21 742.347 1811.41 698.011 C 1825.7 719.602 1838.11 749.408 1839.51 775.404 C 1841.35 809.312 1825.23 854.496 1802.39 879.438 C 1811.09 878.295 1822.14 876.233 1830.45 875.467 C 1817.82 935.262 1791.04 978 1736.66 1006.88 C 1744.08 1009.29 1751.52 1011.61 1758.99 1013.84 C 1745.96 1032.61 1707.77 1063.27 1687.05 1074.06 C 1673.61 1081.05 1659.21 1086 1644.31 1088.75 C 1638.24 1089.83 1632.07 1090.5 1625.94 1091.16 C 1629.88 1096.01 1635.12 1102.87 1639.21 1107.34 C 1595.92 1130.1 1549.58 1140.51 1501.03 1126.9 C 1496.31 1125.58 1484 1120.68 1479.94 1118.05 L 1475.28 1116.29 C 1472.6 1330.43 1343.59 1590.24 1121.31 1653.24 C 1107.6 1657.13 1089.31 1660.93 1075.08 1661.08 C 1055.27 1665.64 1014.98 1661.22 993.622 1659.06 C 926.945 1652.31 818.967 1602.12 788.466 1540.05 C 784.741 1535.93 780.096 1531.42 776.09 1527.65 C 685.288 1442 629.884 1322.3 605.887 1201.03 C 599.857 1170.56 596.517 1138.07 593.319 1106.64 C 574.708 1115.32 566.566 1121.37 545.458 1127.21 C 500.242 1139.71 449.856 1129.04 409.707 1106.12 C 414.16 1100.8 418.012 1096.11 422.93 1091.21 C 413.146 1089.81 403.321 1088.46 393.752 1086.06 C 355.551 1076.5 316.043 1043.63 289.956 1014.01 C 296.267 1012.62 305.821 1009.38 312.237 1007.43 C 262.058 980.298 228.656 931.083 219.537 874.875 C 228.521 876.575 238.03 877.993 247.087 879.49 C 201.543 816.838 196.985 763.424 238.591 698.131 C 246.269 710.115 251.367 720.233 260.192 732.059 C 297.276 781.757 340.75 797.365 399.413 809.122 C 418.719 812.991 444.993 820.552 463.245 827.842 C 515.191 848.589 577.54 908.023 598.389 960.43 z M 388.083 918.05 C 344.645 931.178 303.185 921.999 260.797 911.757 C 266.868 923.907 272.24 934.35 280.994 944.956 C 317.806 989.554 375.124 999.463 429.855 994.612 C 406.772 1011.81 370.478 1021.21 342.306 1025.59 C 371.371 1050.1 403.892 1064.47 442.512 1061.13 C 457.237 1059.86 474.891 1054.79 489.396 1050.91 C 477.351 1065.71 462.888 1077.75 452.228 1090.98 C 505.154 1115.68 545.283 1100.85 592.077 1072.19 C 592.684 1059.17 592.354 1046.12 591.089 1033.14 C 572.456 961.412 538.047 898.82 471.339 863.256 C 383.908 816.643 311.162 845.1 242.585 754.282 C 224.769 829.322 286.254 895.621 355.812 912.216 C 366.298 914.718 377.415 916.39 388.083 918.05 z M 1458.85 1058.61 L 1458.83 1063.39 C 1459.06 1078.3 1469.77 1080.35 1482.06 1085.95 C 1523.85 1106.42 1554.12 1109.23 1597.94 1091.36 C 1587.03 1078.97 1573.69 1066.09 1561.93 1054.27 C 1560.52 1052.45 1560.42 1052.4 1559.52 1050.31 L 1560.37 1047.89 C 1567.32 1045.87 1573.79 1054.01 1579.84 1055.92 C 1587.94 1058.1 1596.21 1059.6 1604.56 1060.44 C 1645.14 1064.29 1674.91 1051.73 1705.6 1026.18 C 1674.6 1019.68 1655.93 1015.05 1627.41 1000.34 C 1624.45 998.632 1622.22 997.898 1620.99 994.832 L 1622 993.15 C 1630.39 990.354 1638.19 995.834 1644.99 995.857 C 1680.55 995.976 1720.57 988.367 1747.92 964.581 C 1763.76 953.53 1781.25 929.188 1789.07 911.646 C 1767.62 917.508 1749.29 921.575 1727.03 923.395 C 1705 925.048 1676.04 923.287 1654.78 916.988 C 1664.08 916.564 1672.37 916.085 1681.58 914.529 C 1725.34 907.205 1764.28 882.489 1789.54 846.005 C 1810.55 815.807 1813.6 790.798 1807.49 755.914 C 1772.86 798.784 1733.73 818.756 1680.38 830.471 C 1668.54 833.072 1646.93 836.404 1636.37 840.619 C 1606.1 845.887 1572.67 864.421 1549.1 883.574 L 1547.11 885.179 C 1531.48 897.646 1517.25 914.254 1504.68 929.736 C 1493.6 941.262 1480.91 968.046 1474.7 983.284 L 1473.84 984.205 C 1472.76 987.813 1471.5 991.237 1470.43 994.844 C 1469.7 996.802 1468.82 998.927 1468.29 1000.92 C 1462.03 1023.12 1460.19 1035.68 1458.85 1058.61 z M 1364.49 797.996 C 1330.06 716.239 1280.12 636.6 1207.73 583.344 C 1170.93 556.272 1102.62 526.279 1057.07 546.742 C 1094.39 588.983 1113.54 615.804 1111.77 676.657 C 1109.64 749.689 1044.68 805.225 1061.37 878.621 C 1066.97 898.509 1086.21 924.521 1063.79 942.382 C 1043.82 958.304 1025.58 944.83 1013.87 928.588 C 956.042 848.342 1003.01 783.859 1035.32 707.453 C 1051.98 668.039 1047.65 611.44 1021.78 577.165 C 979.196 510.76 900.045 535.463 844.995 574.011 C 729.288 655.034 664.771 801.459 640.306 936.805 C 610.621 1103.28 641.253 1285.59 737.888 1425.96 C 767.027 1468.29 825.703 1531.1 872.857 1553.3 C 884.246 1561.25 900.564 1568.5 913.507 1573.95 C 1114.97 1658.75 1293.17 1484.02 1364.23 1310.35 C 1429.84 1149.99 1430.46 958.131 1364.49 797.996 z" fill="rgb(83,44,17)" transform="translate(0,0)"></path>
<path d="M 1807.49 755.914 C 1813.6 790.798 1810.55 815.807 1789.54 846.005 C 1764.28 882.489 1725.34 907.205 1681.58 914.529 C 1672.37 916.085 1664.08 916.564 1654.78 916.988 C 1676.04 923.287 1705 925.048 1727.03 923.395 C 1734.25 926.415 1739.81 923.491 1747.49 922.99 C 1751.05 922.758 1755.28 920.914 1758.96 920.935 C 1764.61 920.527 1771.92 915.707 1776.92 920.111 C 1777.75 920.852 1780.49 922.144 1780.92 923.021 C 1779.92 927.156 1772 935.75 1770.04 939.528 C 1765.85 947.609 1750.93 957.754 1747.92 964.581 C 1720.57 988.367 1680.55 995.976 1644.99 995.857 C 1638.19 995.834 1630.39 990.354 1622 993.15 L 1620.99 994.832 C 1622.22 997.898 1624.45 998.632 1627.41 1000.34 C 1627.75 1002.98 1623.78 1032.49 1623.08 1036.88 C 1624.46 1039.77 1625.28 1040.45 1625.18 1043.38 C 1615.62 1051.57 1588.58 1038.78 1579.84 1055.92 C 1573.79 1054.01 1567.32 1045.87 1560.37 1047.89 L 1559.52 1050.31 C 1560.42 1052.4 1560.52 1052.45 1561.93 1054.27 L 1560.37 1054.58 C 1560.48 1055.76 1560.61 1057.21 1560.77 1058.91 C 1557.31 1064.53 1552.74 1072.32 1549.04 1077.47 C 1559.91 1075.3 1561.16 1072.11 1568.55 1081.4 C 1569.32 1075.22 1560.57 1069.81 1563.71 1061.61 L 1565.55 1060.32 C 1570.08 1064.86 1574.22 1069.61 1578.62 1074.3 C 1582.96 1078.94 1591.11 1085.74 1594.64 1090.48 C 1569.01 1103.16 1533.65 1105.32 1507.24 1094.99 C 1500.58 1092.38 1480.19 1084.79 1475.65 1079.86 L 1476.1 1078.14 C 1495.52 1091.26 1504.19 1088.54 1525.68 1090.02 C 1546.97 1091.48 1547.28 1096.9 1568.62 1084.51 C 1548.84 1084.28 1549.24 1085.17 1529.07 1080.17 C 1512.64 1086.42 1517.22 1081.96 1505.97 1074.97 C 1502.27 1075.24 1497.8 1076.68 1494.41 1074.64 C 1485.34 1069.18 1475.79 1071.58 1471.11 1061.46 L 1470.4 1059.88 L 1468.25 1061.16 C 1468.01 1060.26 1467.76 1059.36 1467.51 1058.45 C 1465.46 1054.3 1467.2 1051.58 1467.32 1047.57 C 1466.93 1045.78 1465.96 1044.19 1465.51 1042.42 C 1465.27 1041.45 1468.3 1039.68 1466.81 1039.05 C 1465.86 1037.7 1467.06 1034.94 1465.79 1033.37 C 1465.61 1033.34 1465.44 1033.31 1465.26 1033.28 C 1465.01 1033.35 1464.77 1033.41 1464.52 1033.47 C 1464.19 1033.58 1463.99 1033.17 1463.83 1033.11 C 1462.48 1032.61 1464.68 1022.59 1464.7 1022.57 C 1465.71 1023.14 1465.1 1023.08 1465.74 1023.7 C 1468.88 1026.86 1470.88 1025.82 1470.37 1032.32 C 1469.68 1041.22 1478.23 1037.01 1478.76 1040.53 C 1477.52 1040.6 1478.12 1040.44 1477.34 1041.04 C 1478.56 1045.6 1479.7 1050.66 1479.14 1055.48 C 1478.6 1060.12 1485.17 1060.07 1485.13 1060.22 C 1485.19 1055.69 1483.2 1054.68 1483.38 1049.11 C 1483.62 1041.39 1477.76 1033.7 1474.33 1027.72 C 1472.03 1023.7 1475.39 1018.25 1473.6 1012.92 C 1471.05 1005.33 1470.17 1010.06 1468.29 1000.92 C 1468.82 998.927 1469.7 996.802 1470.43 994.844 C 1480.89 998.778 1488.37 985.721 1474.7 983.284 C 1480.91 968.046 1493.6 941.262 1504.68 929.736 C 1508.56 929.028 1508.04 927.625 1510.4 924.724 C 1514.43 919.614 1519.93 917.594 1522.23 911.183 C 1522.64 910.024 1529.61 903.249 1530.97 902.453 C 1533.89 900.745 1535.59 897.573 1538.39 895.929 C 1538.88 895.643 1540.79 897.304 1541.68 896.789 C 1541.84 896.7 1543.47 896.593 1543.94 896.746 C 1544.01 898.019 1521.18 920.305 1521.05 921.269 L 1521.23 921.402 C 1536.3 917.495 1542.13 898.499 1556.07 893.962 L 1556.52 893.762 C 1567.96 888.888 1575.18 878.203 1587.95 874.606 C 1589.61 874.139 1603.78 866.436 1603.72 865.801 C 1603.41 862.687 1614.56 859.639 1612.34 858.014 C 1607.83 857.588 1599.1 863.56 1593.5 863.995 C 1589.08 864.339 1580 867.756 1575.31 869.354 C 1574.55 869.613 1574.31 870.468 1573.53 868.736 C 1581.49 861.64 1594.94 857.127 1604.38 852.413 C 1613.55 847.83 1628.8 846.028 1636.37 840.619 C 1646.93 836.404 1668.54 833.072 1680.38 830.471 C 1733.73 818.756 1772.86 798.784 1807.49 755.914 z" fill="url(#Gradient2)" transform="translate(0,0)"></path>
<path d="M 1458.85 1058.61 C 1459.24 1058.35 1459.98 1057.81 1460.38 1057.82 C 1461.87 1061.32 1463.67 1061.62 1467.18 1061.26 L 1468.25 1061.16 L 1470.4 1059.88 L 1471.11 1061.46 C 1475.79 1071.58 1485.34 1069.18 1494.41 1074.64 C 1497.8 1076.68 1502.27 1075.24 1505.97 1074.97 C 1517.22 1081.96 1512.64 1086.42 1529.07 1080.17 C 1549.24 1085.17 1548.84 1084.28 1568.62 1084.51 C 1547.28 1096.9 1546.97 1091.48 1525.68 1090.02 C 1504.19 1088.54 1495.52 1091.26 1476.1 1078.14 C 1475.98 1076.57 1460.74 1064.48 1458.83 1063.39 L 1458.85 1058.61 z" fill="rgb(239,235,229)" fill-opacity="0.145098" transform="translate(0,0)"></path>
<path d="M 1549.1 883.574 C 1572.67 864.421 1606.1 845.887 1636.37 840.619 C 1628.8 846.028 1613.55 847.83 1604.38 852.413 C 1594.94 857.127 1581.49 861.64 1573.53 868.736 C 1574.31 870.468 1574.55 869.613 1575.31 869.354 C 1580 867.756 1589.08 864.339 1593.5 863.995 C 1599.1 863.56 1607.83 857.588 1612.34 858.014 C 1614.56 859.639 1603.41 862.687 1603.72 865.801 C 1603.78 866.436 1589.61 874.139 1587.95 874.606 C 1575.18 878.203 1567.96 888.888 1556.52 893.762 L 1556.07 893.962 C 1557.34 892.347 1565.98 880.422 1563.31 878.813 C 1562.32 879.606 1561.47 880.563 1560.81 881.642 C 1556.23 889.068 1553.96 883.228 1549.1 883.574 z" fill="rgb(239,235,229)" fill-opacity="0.0509804" transform="translate(0,0)"></path>
<path d="M 1476.1 1078.14 L 1475.65 1079.86 C 1480.19 1084.79 1500.58 1092.38 1507.24 1094.99 C 1533.65 1105.32 1569.01 1103.16 1594.64 1090.48 C 1591.11 1085.74 1582.96 1078.94 1578.62 1074.3 C 1574.22 1069.61 1570.08 1064.86 1565.55 1060.32 L 1563.71 1061.61 C 1560.57 1069.81 1569.32 1075.22 1568.55 1081.4 C 1561.16 1072.11 1559.91 1075.3 1549.04 1077.47 C 1552.74 1072.32 1557.31 1064.53 1560.77 1058.91 C 1560.61 1057.21 1560.48 1055.76 1560.37 1054.58 L 1561.93 1054.27 C 1573.69 1066.09 1587.03 1078.97 1597.94 1091.36 C 1554.12 1109.23 1523.85 1106.42 1482.06 1085.95 C 1469.77 1080.35 1459.06 1078.3 1458.83 1063.39 C 1460.74 1064.48 1475.98 1076.57 1476.1 1078.14 z" fill="rgb(239,235,229)" fill-opacity="0.0117647" transform="translate(0,0)"></path>
<path d="M 1468.29 1000.92 C 1470.17 1010.06 1471.05 1005.33 1473.6 1012.92 C 1475.39 1018.25 1472.03 1023.7 1474.33 1027.72 C 1477.76 1033.7 1483.62 1041.39 1483.38 1049.11 C 1483.2 1054.68 1485.19 1055.69 1485.13 1060.22 C 1485.17 1060.07 1478.6 1060.12 1479.14 1055.48 C 1479.7 1050.66 1478.56 1045.6 1477.34 1041.04 C 1478.12 1040.44 1477.52 1040.6 1478.76 1040.53 C 1478.23 1037.01 1469.68 1041.22 1470.37 1032.32 C 1470.88 1025.82 1468.88 1026.86 1465.74 1023.7 C 1465.1 1023.08 1465.71 1023.14 1464.7 1022.57 C 1464.68 1022.59 1462.48 1032.61 1463.83 1033.11 C 1463.99 1033.17 1464.19 1033.58 1464.52 1033.47 C 1464.77 1033.41 1465.01 1033.35 1465.26 1033.28 C 1465.44 1033.31 1465.61 1033.34 1465.79 1033.37 C 1467.06 1034.94 1465.86 1037.7 1466.81 1039.05 C 1468.3 1039.68 1465.27 1041.45 1465.51 1042.42 C 1465.96 1044.19 1466.93 1045.78 1467.32 1047.57 C 1467.2 1051.58 1465.46 1054.3 1467.51 1058.45 C 1467.76 1059.36 1468.01 1060.26 1468.25 1061.16 L 1467.18 1061.26 C 1463.67 1061.62 1461.87 1061.32 1460.38 1057.82 C 1459.98 1057.81 1459.24 1058.35 1458.85 1058.61 C 1460.19 1035.68 1462.03 1023.12 1468.29 1000.92 z" fill="rgb(239,235,229)" fill-opacity="0.25098" transform="translate(0,0)"></path>
<path d="M 1549.1 883.574 C 1553.96 883.228 1556.23 889.068 1560.81 881.642 C 1561.47 880.563 1562.32 879.606 1563.31 878.813 C 1565.98 880.422 1557.34 892.347 1556.07 893.962 C 1542.13 898.499 1536.3 917.495 1521.23 921.402 L 1521.05 921.269 C 1521.18 920.305 1544.01 898.019 1543.94 896.746 C 1543.47 896.593 1541.84 896.7 1541.68 896.789 C 1540.79 897.304 1538.88 895.643 1538.39 895.929 C 1535.59 897.573 1533.89 900.745 1530.97 902.453 C 1529.61 903.249 1522.64 910.024 1522.23 911.183 C 1519.93 917.594 1514.43 919.614 1510.4 924.724 C 1508.04 927.625 1508.56 929.028 1504.68 929.736 C 1517.25 914.254 1531.48 897.646 1547.11 885.179 L 1549.1 883.574 z" fill="rgb(239,235,229)" fill-opacity="0.14902" transform="translate(0,0)"></path>
<path d="M 1474.7 983.284 C 1488.37 985.721 1480.89 998.778 1470.43 994.844 C 1471.5 991.237 1472.76 987.813 1473.84 984.205 L 1474.7 983.284 z" fill="rgb(239,235,229)" fill-opacity="0.4" transform="translate(0,0)"></path>
<path d="M 238.591 698.131 C 246.269 710.115 251.367 720.233 260.192 732.059 C 297.276 781.757 340.75 797.365 399.413 809.122 C 418.719 812.991 444.993 820.552 463.245 827.842 C 515.191 848.589 577.54 908.023 598.389 960.43 C 597.25 969.602 592.58 1030.87 591.089 1033.14 C 572.456 961.412 538.047 898.82 471.339 863.256 C 383.908 816.643 311.162 845.1 242.585 754.282 C 224.769 829.322 286.254 895.621 355.812 912.216 C 366.298 914.718 377.415 916.39 388.083 918.05 C 344.645 931.178 303.185 921.999 260.797 911.757 C 266.868 923.907 272.24 934.35 280.994 944.956 C 317.806 989.554 375.124 999.463 429.855 994.612 C 406.772 1011.81 370.478 1021.21 342.306 1025.59 C 371.371 1050.1 403.892 1064.47 442.512 1061.13 C 457.237 1059.86 474.891 1054.79 489.396 1050.91 C 477.351 1065.71 462.888 1077.75 452.228 1090.98 C 505.154 1115.68 545.283 1100.85 592.077 1072.19 C 592.382 1082.07 592.422 1097.14 593.319 1106.64 C 574.708 1115.32 566.566 1121.37 545.458 1127.21 C 500.242 1139.71 449.856 1129.04 409.707 1106.12 C 414.16 1100.8 418.012 1096.11 422.93 1091.21 C 413.146 1089.81 403.321 1088.46 393.752 1086.06 C 355.551 1076.5 316.043 1043.63 289.956 1014.01 C 296.267 1012.62 305.821 1009.38 312.237 1007.43 C 262.058 980.298 228.656 931.083 219.537 874.875 C 228.521 876.575 238.03 877.993 247.087 879.49 C 201.543 816.838 196.985 763.424 238.591 698.131 z" fill="rgb(143,89,55)" transform="translate(0,0)"></path>
<path d="M 1463.23 936.503 C 1493.29 895.921 1520.21 863.997 1565.33 838.584 C 1609.79 813.548 1654.95 810.599 1702.39 796.022 C 1751.46 780.948 1787.21 742.347 1811.41 698.011 C 1825.7 719.602 1838.11 749.408 1839.51 775.404 C 1841.35 809.312 1825.23 854.496 1802.39 879.438 C 1811.09 878.295 1822.14 876.233 1830.45 875.467 C 1817.82 935.262 1791.04 978 1736.66 1006.88 C 1744.08 1009.29 1751.52 1011.61 1758.99 1013.84 C 1745.96 1032.61 1707.77 1063.27 1687.05 1074.06 C 1673.61 1081.05 1659.21 1086 1644.31 1088.75 C 1638.24 1089.83 1632.07 1090.5 1625.94 1091.16 C 1629.88 1096.01 1635.12 1102.87 1639.21 1107.34 C 1595.92 1130.1 1549.58 1140.51 1501.03 1126.9 C 1496.31 1125.58 1484 1120.68 1479.94 1118.05 C 1480.3 1107.8 1481.37 1096.32 1482.06 1085.95 C 1523.85 1106.42 1554.12 1109.23 1597.94 1091.36 C 1587.03 1078.97 1573.69 1066.09 1561.93 1054.27 C 1560.52 1052.45 1560.42 1052.4 1559.52 1050.31 L 1560.37 1047.89 C 1567.32 1045.87 1573.79 1054.01 1579.84 1055.92 C 1587.94 1058.1 1596.21 1059.6 1604.56 1060.44 C 1645.14 1064.29 1674.91 1051.73 1705.6 1026.18 C 1674.6 1019.68 1655.93 1015.05 1627.41 1000.34 C 1624.45 998.632 1622.22 997.898 1620.99 994.832 L 1622 993.15 C 1630.39 990.354 1638.19 995.834 1644.99 995.857 C 1680.55 995.976 1720.57 988.367 1747.92 964.581 C 1763.76 953.53 1781.25 929.188 1789.07 911.646 C 1767.62 917.508 1749.29 921.575 1727.03 923.395 C 1705 925.048 1676.04 923.287 1654.78 916.988 C 1664.08 916.564 1672.37 916.085 1681.58 914.529 C 1725.34 907.205 1764.28 882.489 1789.54 846.005 C 1810.55 815.807 1813.6 790.798 1807.49 755.914 C 1772.86 798.784 1733.73 818.756 1680.38 830.471 C 1668.54 833.072 1646.93 836.404 1636.37 840.619 C 1606.1 845.887 1572.67 864.421 1549.1 883.574 L 1547.11 885.179 C 1531.48 897.646 1517.25 914.254 1504.68 929.736 C 1493.6 941.262 1480.91 968.046 1474.7 983.284 L 1473.84 984.205 C 1468.76 972.284 1469.8 950.151 1463.33 937.966 L 1463.23 936.503 z" fill="rgb(143,89,55)" transform="translate(0,0)"></path>
<path d="M 1450.11 1103.07 C 1453.82 1104.75 1472.31 1114.2 1475.28 1116.29 C 1472.6 1330.43 1343.59 1590.24 1121.31 1653.24 C 1107.6 1657.13 1089.31 1660.93 1075.08 1661.08 C 1065.09 1659.52 1049.9 1661.87 1035.02 1660.84 C 1016.95 1659.6 975.027 1657.56 958.122 1649.15 C 953.99 1647.09 956.01 1635.07 956.738 1630.08 C 962.867 1628.8 974.954 1632.3 981.519 1632.8 C 1000.23 1634.21 1036.69 1638.65 1053.3 1631.75 C 1065.55 1628.69 1081.66 1627.96 1095.27 1624.13 C 1148.76 1609.09 1196.8 1583.92 1238.94 1547.92 C 1374.65 1431.97 1435.52 1277.25 1450.11 1103.07 z" fill="rgb(238,152,27)" transform="translate(0,0)"></path>
<path d="M 1357.29 697.199 C 1401.51 735.117 1434.24 823.809 1450.13 878.576 C 1455.89 898.438 1458.56 916.963 1463.23 936.503 L 1463.33 937.966 C 1461.13 942.066 1448.64 967.181 1446.97 968.617 L 1446.21 968.241 C 1443.81 942.157 1438.1 914.605 1432.44 889.114 C 1419.21 829.506 1397.37 770.763 1367.75 717.378 C 1364.35 711.257 1359.6 703.558 1357.29 697.199 z" fill="rgb(238,152,27)" transform="translate(0,0)"></path>
<path d="M 788.466 1540.05 L 789.187 1540.53 C 801.758 1549.13 814.526 1561.23 827.347 1569.82 C 874.078 1601.12 928.476 1625.16 984.7 1631.48 C 1007.89 1634.09 1030.24 1633.16 1053.3 1631.75 C 1036.69 1638.65 1000.23 1634.21 981.519 1632.8 C 974.954 1632.3 962.867 1628.8 956.738 1630.08 C 956.01 1635.07 953.99 1647.09 958.122 1649.15 C 975.027 1657.56 1016.95 1659.6 1035.02 1660.84 C 1049.9 1661.87 1065.09 1659.52 1075.08 1661.08 C 1055.27 1665.64 1014.98 1661.22 993.622 1659.06 C 926.945 1652.31 818.967 1602.12 788.466 1540.05 z" fill="rgb(247,95,9)" transform="translate(0,0)"></path>
<path d="M 1463.33 937.966 C 1469.8 950.151 1468.76 972.284 1473.84 984.205 C 1472.76 987.813 1471.5 991.237 1470.43 994.844 C 1469.7 996.802 1468.82 998.927 1468.29 1000.92 C 1462.03 1023.12 1460.19 1035.68 1458.85 1058.61 L 1458.83 1063.39 C 1459.06 1078.3 1469.77 1080.35 1482.06 1085.95 C 1481.37 1096.32 1480.3 1107.8 1479.94 1118.05 L 1475.28 1116.29 C 1472.31 1114.2 1453.82 1104.75 1450.11 1103.07 C 1451.01 1070.72 1455.29 998.24 1446.21 968.241 L 1446.97 968.617 C 1448.64 967.181 1461.13 942.066 1463.33 937.966 z" fill="rgb(130,71,28)" transform="translate(0,0)"></path>
<path d="M 872.857 1553.3 C 825.703 1531.1 767.027 1468.29 737.888 1425.96 C 641.253 1285.59 610.621 1103.28 640.306 936.805 C 664.771 801.459 729.288 655.034 844.995 574.011 C 900.045 535.463 979.196 510.76 1021.78 577.165 C 1047.65 611.44 1051.98 668.039 1035.32 707.453 C 1003.01 783.859 956.042 848.342 1013.87 928.588 C 1025.58 944.83 1043.82 958.304 1063.79 942.382 C 1086.21 924.521 1066.97 898.509 1061.37 878.621 C 1044.68 805.225 1109.64 749.689 1111.77 676.657 C 1113.54 615.804 1094.39 588.983 1057.07 546.742 C 1102.62 526.279 1170.93 556.272 1207.73 583.344 C 1280.12 636.6 1330.06 716.239 1364.49 797.996 C 1430.46 958.131 1429.84 1149.99 1364.23 1310.35 C 1293.17 1484.02 1114.97 1658.75 913.507 1573.95 C 900.564 1568.5 884.246 1561.25 872.857 1553.3 z M 1352.15 1042.07 C 1331.75 976.849 1271.26 932.511 1202.92 932.708 C 1134.58 932.904 1074.33 977.589 1054.32 1042.93 C 1034.3 1108.27 1059.17 1179.03 1115.68 1217.47 C 1172.18 1255.92 1247.13 1253.07 1300.56 1210.46 C 1350.85 1170.36 1371.34 1103.47 1352.15 1042.07 z M 863.488 1243.95 C 949.225 1235.89 1012.18 1159.83 1004.07 1074.09 C 995.96 988.359 919.866 925.445 834.137 933.595 C 748.467 941.74 685.607 1017.77 693.709 1103.44 C 701.811 1189.12 777.811 1252.01 863.488 1243.95 z" fill="rgb(179,127,101)" transform="translate(0,0)"></path>
<path d="M 1300.56 1210.46 C 1247.13 1253.07 1172.18 1255.92 1115.68 1217.47 C 1059.17 1179.03 1034.3 1108.27 1054.32 1042.93 C 1074.33 977.589 1134.58 932.904 1202.92 932.708 C 1271.26 932.511 1331.75 976.849 1352.15 1042.07 C 1371.34 1103.47 1350.85 1170.36 1300.56 1210.46 z M 1212.9 1199.04 C 1209.23 1196.58 1199.27 1191.43 1203.1 1201.1 C 1206.76 1200.43 1209.3 1200.02 1212.9 1199.04 z M 1308.51 1114.96 L 1307.41 1120 C 1309.37 1124.85 1309.11 1136.93 1312.66 1126.08 C 1311.04 1117.93 1310.83 1120.4 1313.41 1112.63 C 1313.91 1108.16 1317.6 1097.56 1305.84 1105.45 C 1303.84 1106.79 1307.46 1112.95 1308.51 1114.96 z" fill="rgb(83,44,17)" transform="translate(0,0)"></path>
<path d="M 1203.33 1205.15 C 1192.82 1205.32 1182.34 1204.06 1172.17 1201.4 C 1109.69 1185.19 1075.37 1118.8 1091.94 1057.41 C 1099.7 1027.93 1118.87 1002.76 1145.23 987.44 C 1171.68 972.399 1204.68 967.626 1234.07 976.095 C 1264.5 984.57 1290.15 1005.13 1305.04 1033 C 1321.79 1064.06 1322.32 1093.08 1312.66 1126.08 C 1311.04 1117.93 1310.83 1120.4 1313.41 1112.63 C 1313.91 1108.16 1317.6 1097.56 1305.84 1105.45 C 1303.84 1106.79 1307.46 1112.95 1308.51 1114.96 L 1307.41 1120 C 1300.24 1101.37 1289.56 1087.29 1270.89 1078.93 C 1254.3 1071.61 1235.47 1071.28 1218.64 1078.02 C 1202.88 1084.32 1190.12 1097.28 1183.49 1112.84 C 1176.82 1128.91 1176.84 1146.99 1183.56 1163.04 C 1190.22 1179.16 1201.3 1188.91 1216.1 1197.42 C 1221 1198.95 1225.69 1200.62 1230.76 1202.14 C 1219.28 1204.19 1215.4 1205.05 1203.33 1205.15 z M 1212.9 1199.04 C 1209.23 1196.58 1199.27 1191.43 1203.1 1201.1 C 1206.76 1200.43 1209.3 1200.02 1212.9 1199.04 z" fill="rgb(239,235,229)" transform="translate(0,0)"></path>
<path d="M 1203.1 1201.1 C 1199.27 1191.43 1209.23 1196.58 1212.9 1199.04 C 1209.3 1200.02 1206.76 1200.43 1203.1 1201.1 z" fill="rgb(239,235,229)" fill-opacity="0.611765" transform="translate(0,0)"></path>
<path d="M 1216.1 1197.42 C 1221 1198.95 1225.69 1200.62 1230.76 1202.14 C 1219.28 1204.19 1215.4 1205.05 1203.33 1205.15 C 1203.6 1203.39 1203.4 1202.98 1203.1 1201.1 C 1206.76 1200.43 1209.3 1200.02 1212.9 1199.04 C 1214.75 1198.39 1214.69 1198.54 1216.1 1197.42 z" fill="rgb(239,235,229)" transform="translate(0,0)"></path>
<path d="M 1308.51 1114.96 C 1307.46 1112.95 1303.84 1106.79 1305.84 1105.45 C 1317.6 1097.56 1313.91 1108.16 1313.41 1112.63 C 1311.14 1114.5 1311.25 1114.65 1308.51 1114.96 z" fill="rgb(239,235,229)" fill-opacity="0.462745" transform="translate(0,0)"></path>
<path d="M 1308.51 1114.96 C 1311.25 1114.65 1311.14 1114.5 1313.41 1112.63 C 1310.83 1120.4 1311.04 1117.93 1312.66 1126.08 C 1309.11 1136.93 1309.37 1124.85 1307.41 1120 L 1308.51 1114.96 z" fill="rgb(239,235,229)" fill-opacity="0.666667" transform="translate(0,0)"></path>
<path d="M 1364.49 797.996 C 1430.46 958.131 1429.84 1149.99 1364.23 1310.35 C 1293.17 1484.02 1114.97 1658.75 913.507 1573.95 C 900.564 1568.5 884.246 1561.25 872.857 1553.3 C 878.291 1552.92 887.991 1553.48 893.509 1553.99 C 1015.69 1565.29 1122.84 1494.61 1196.38 1402.7 C 1210.49 1385.06 1224.03 1364.97 1237.24 1345.41 C 1211.24 1330.93 1201.65 1298.27 1215.69 1272.02 C 1229.74 1245.78 1262.23 1235.64 1288.71 1249.24 C 1291.1 1239.73 1300.22 1219.27 1300.56 1210.46 C 1350.85 1170.36 1371.34 1103.47 1352.15 1042.07 L 1352.86 1041.97 C 1354.23 1039.74 1355.98 1029.66 1356.5 1026.57 C 1369.22 951.704 1366.23 873.44 1364.49 797.996 z" fill="rgb(143,89,55)" transform="translate(0,0)"></path>
<path d="M 1237.24 1345.41 C 1211.24 1330.93 1201.65 1298.27 1215.69 1272.02 C 1229.74 1245.78 1262.23 1235.64 1288.71 1249.24 C 1306.24 1258.24 1317.55 1276 1318.3 1295.7 C 1319.04 1315.39 1309.11 1333.95 1292.31 1344.26 C 1275.51 1354.56 1254.46 1355.01 1237.24 1345.41 z" fill="rgb(224,185,159)" transform="translate(0,0)"></path>
<path d="M 834.137 933.595 C 919.866 925.445 995.96 988.359 1004.07 1074.09 C 1012.18 1159.83 949.225 1235.89 863.488 1243.95 C 777.811 1252.01 701.811 1189.12 693.709 1103.44 C 685.607 1017.77 748.467 941.74 834.137 933.595 z M 865.776 1199.5 C 865.702 1194.33 860.993 1194.54 855.986 1193.42 L 856.172 1194.96 C 856.694 1201.89 859.57 1200.24 865.776 1199.5 z M 955.586 1105.89 C 961.78 1106.04 960.526 1098.33 958.261 1094.7 C 957.025 1092.71 951.879 1092.45 952.622 1094.62 C 954.087 1098.9 954.97 1099.27 954.715 1104.16 C 955.038 1104.97 955.081 1105 955.586 1105.89 z" fill="rgb(83,44,17)" transform="translate(0,0)"></path>
<path d="M 881.663 1201.12 C 853.579 1209.2 820.819 1206.33 795.099 1192.2 C 767.3 1177.1 746.671 1151.54 737.784 1121.18 C 729.028 1090.86 732.724 1058.3 748.054 1030.72 C 762.504 1004.88 788.877 984.04 817.41 976.079 C 847.505 967.922 879.607 972.064 906.645 987.593 C 933.336 1002.99 952.785 1028.39 960.681 1058.17 C 965.969 1076.89 966.31 1096.66 961.671 1115.55 L 955.586 1105.89 C 961.78 1106.04 960.526 1098.33 958.261 1094.7 C 957.025 1092.71 951.879 1092.45 952.622 1094.62 C 954.087 1098.9 954.97 1099.27 954.715 1104.16 C 942.967 1087.71 930.506 1077.08 909.89 1073.7 C 892.239 1070.88 874.19 1075.23 859.77 1085.8 C 845.789 1096.05 836.458 1111.44 833.831 1128.58 C 828.681 1163.38 848.825 1191.04 881.663 1201.12 z M 865.776 1199.5 C 865.702 1194.33 860.993 1194.54 855.986 1193.42 L 856.172 1194.96 C 856.694 1201.89 859.57 1200.24 865.776 1199.5 z" fill="rgb(239,235,229)" transform="translate(0,0)"></path>
<path d="M 855.986 1193.42 C 860.993 1194.54 865.702 1194.33 865.776 1199.5 C 859.57 1200.24 856.694 1201.89 856.172 1194.96 L 855.986 1193.42 z" fill="rgb(239,235,229)" fill-opacity="0.592157" transform="translate(0,0)"></path>
<path d="M 954.715 1104.16 C 954.97 1099.27 954.087 1098.9 952.622 1094.62 C 951.879 1092.45 957.025 1092.71 958.261 1094.7 C 960.526 1098.33 961.78 1106.04 955.586 1105.89 C 955.081 1105 955.038 1104.97 954.715 1104.16 z" fill="rgb(239,235,229)" fill-opacity="0.831373" transform="translate(0,0)"></path>
<path d="M 906.349 563.105 C 912.986 562.461 917.519 562.145 923.936 564.428 C 932.906 567.586 940.119 574.395 943.787 583.169 C 951.389 601.099 944.341 618.333 927.527 628.016 C 848.412 673.574 791.371 746.704 764.791 833.918 C 759.251 852.096 757.105 869.958 750.318 887.463 C 747.37 895.066 738.07 898.947 731.079 901.507 C 707.226 904.284 686.385 890.931 690.352 865.05 C 707.189 755.198 771.839 652.447 863.247 589.266 C 876.596 580.039 891.113 568.695 906.349 563.105 z" fill="rgb(224,185,159)" transform="translate(0,0)"></path>
<path d="M 776.791 1242.99 C 806.831 1241.07 832.721 1263.91 834.574 1293.95 C 836.427 1324 813.54 1349.84 783.492 1351.63 C 753.53 1353.42 727.778 1330.61 725.93 1300.65 C 724.082 1270.7 746.837 1244.9 776.791 1242.99 z" fill="rgb(224,185,159)" transform="translate(0,0)"></path>
<path d="M 1072.3 1262.97 C 1084.03 1263.58 1089.34 1271.34 1087.4 1282.63 C 1081.57 1316.39 1048.71 1339.21 1014.95 1332.51 C 995.562 1328.67 983.645 1318.35 972.709 1302.65 C 968.012 1293.74 960.015 1272.38 973.82 1266.85 C 988.943 1260.79 992.291 1280.73 997.766 1290.59 C 1009.93 1312.51 1044.83 1312.03 1056.35 1289.86 C 1062.28 1278.46 1058.55 1269.35 1071.19 1263.47 L 1072.3 1262.97 z" fill="rgb(83,44,17)" transform="translate(0,0)"></path>
<path d="M 992.509 303.441 C 1053.81 301.385 1221.26 305.064 1266.39 345.578 C 1272.13 350.735 1276.42 357.303 1276.74 365.2 C 1277.06 373.17 1273.79 380.915 1268.43 386.717 C 1236.06 421.751 1105.66 429.98 1058.25 431.644 C 991.077 434.314 846.517 430.849 786.947 390.229 C 780.914 385.512 773.714 376.914 773.476 368.966 C 772.792 346.167 802.983 332.814 820.932 327.218 C 876.128 310.008 935.068 305.446 992.509 303.441 z M 811.194 367.015 C 840.495 403.408 1003.76 405.991 1049.25 404.921 C 1095.89 403.005 1191.99 398.808 1236.2 370.819 C 1236.99 370.314 1238.09 367.78 1237.62 366.937 C 1237.54 364.394 1233.42 360.511 1231.22 359.545 C 1173.34 334.182 1064.18 329.207 1004.25 330.455 C 959.578 331.887 843.833 336.79 811.194 367.015 z" fill="rgb(238,152,27)" fill-opacity="0.976471" transform="translate(0,0)"></path>
<path d="M 1004.25 330.455 C 1064.18 329.207 1173.34 334.182 1231.22 359.545 C 1233.42 360.511 1237.54 364.394 1237.62 366.937 C 1238.09 367.78 1236.99 370.314 1236.2 370.819 C 1191.99 398.808 1095.89 403.005 1049.25 404.921 C 1003.76 405.991 840.495 403.408 811.194 367.015 C 843.833 336.79 959.578 331.887 1004.25 330.455 z" fill="url(#Gradient1)" transform="translate(0,0)"></path>
<metadata><recraft-signature>{"signed_by": "recraft", "signature_b64": "/rG8Dr+iwe/co9YjIBC4cOKeV7n3mAKv0NCbuV6J80RVnBZIImQ5ZDne5DrYcbVPjLfQ02r+W/A5549z0W4PBQ==", "signing_algo": "Ed25519", "generation_timestamp": 1782215315, "identifier": "6fc861ce-cae1-4ad4-9c8d-da7a7ebb86dc"}</recraft-signature></metadata></svg>