<svg xmlns="http://www.w3.org/2000/svg" height="1024" preserveAspectRatio="none" style="display: block;" version="1.1" viewBox="0 0 2048 2048" width="1024">
<path d="M 1019.51 585.312 C 1030.53 480.095 1067.02 363.539 1151.92 294.447 C 1196.91 257.686 1254.82 240.627 1312.56 247.13 C 1448.59 261.43 1522.35 404.287 1548.44 523.582 C 1552.94 544.188 1554.32 564.954 1557.18 585.715 C 1572.72 585.585 1586.93 585.267 1602.4 587.084 C 1638.68 591.346 1677.68 611.257 1703.62 636.863 C 1726.1 658.64 1742.16 686.192 1750.01 716.494 C 1754.42 733.295 1756.18 755.09 1757.98 772.695 C 1760.21 794.975 1762.59 817.241 1765.11 839.491 C 1776.13 931.893 1786.32 1024.39 1795.67 1116.98 L 1815.13 1291.73 C 1818.19 1319.18 1824.27 1362.93 1824.21 1388.91 C 1824.16 1441.71 1802.96 1492.29 1765.36 1529.35 C 1738.79 1555.21 1705.56 1573.18 1669.37 1581.26 C 1642.49 1587.42 1614.37 1586.47 1586.94 1586.35 L 1515.74 1586.09 C 1437.08 1586.15 1357.05 1587 1278.47 1586.14 L 1271.58 1586.04 C 1270.24 1586.12 1266.87 1585.93 1266.26 1586.93 C 1233.84 1639.7 1183.07 1680.2 1119.47 1686.96 C 1086.99 1690.4 1044.68 1688.57 1009.67 1688.63 C 933.231 1688.96 856.795 1688.9 780.36 1688.46 L 527.268 1688.87 L 449.984 1689.02 C 435.826 1689.04 415.615 1689.57 401.902 1688.18 C 350.595 1682.58 303.552 1657.01 270.95 1617 C 241.124 1580.7 225.281 1534.91 226.287 1487.94 C 226.927 1462.83 231.489 1433.77 234.119 1408.5 L 249.482 1271.01 C 249.884 1267.41 250.143 1264.18 250.688 1260.57 C 258.691 1177.27 270.438 1091.77 279.047 1008.23 L 289.917 901.541 C 292.415 877.237 294.046 849.038 300.677 825.882 C 308.529 798.459 326.063 769.26 345.939 748.786 C 372.172 721.763 409.927 701.964 447.226 696.189 C 463.223 693.713 478.621 693.665 494.716 693.371 C 507.475 545.645 580.195 363.491 753.811 357.267 C 869.393 353.123 950.643 443.541 987.519 544.271 C 992.445 557.726 998.831 571.993 1001.86 586.066 C 1007.53 585.85 1013.9 585.731 1019.51 585.312 z M 1439.25 584.665 L 1445.5 583.782 L 1446.09 582.62 C 1445.63 556.936 1424.88 490.316 1413.6 467.19 C 1391.36 423.112 1351.13 369.755 1297.99 364.468 C 1190.27 353.75 1137.29 498.912 1125.84 584.714 C 1149.71 585.919 1178.05 585.273 1202.23 585.331 L 1360.85 584.978 C 1386.55 584.858 1413.67 584.072 1439.25 584.665 z M 915.044 693.428 C 916.567 688.138 912.402 669.637 911.251 663.2 C 897.946 582.342 827.442 442.623 726.209 481.398 C 648.961 510.986 611.9 618.264 601.086 692.985 C 673.293 693.381 745.502 693.387 817.709 693.002 C 846.817 692.982 887.036 691.384 915.044 693.428 z" fill="rgb(253,165,2)" transform="translate(0,0)"></path>
<path d="M 1019.51 585.312 C 1030.53 480.095 1067.02 363.539 1151.92 294.447 C 1196.91 257.686 1254.82 240.627 1312.56 247.13 C 1448.59 261.43 1522.35 404.287 1548.44 523.582 C 1552.94 544.188 1554.32 564.954 1557.18 585.715 C 1572.72 585.585 1586.93 585.267 1602.4 587.084 C 1638.68 591.346 1677.68 611.257 1703.62 636.863 C 1726.1 658.64 1742.16 686.192 1750.01 716.494 C 1754.42 733.295 1756.18 755.09 1757.98 772.695 C 1760.21 794.975 1762.59 817.241 1765.11 839.491 C 1776.13 931.893 1786.32 1024.39 1795.67 1116.98 L 1815.13 1291.73 C 1818.19 1319.18 1824.27 1362.93 1824.21 1388.91 C 1824.16 1441.71 1802.96 1492.29 1765.36 1529.35 C 1738.79 1555.21 1705.56 1573.18 1669.37 1581.26 C 1642.49 1587.42 1614.37 1586.47 1586.94 1586.35 L 1515.74 1586.09 C 1437.08 1586.15 1357.05 1587 1278.47 1586.14 L 1271.58 1586.04 C 1269.8 1584.75 1268.55 1583.4 1269.42 1581.03 C 1280.09 1552.28 1289.47 1523.62 1288.02 1492.51 C 1285.88 1446.46 1279.01 1400.67 1273.46 1354.94 C 1269 1317.86 1265.51 1280.64 1261.33 1243.51 C 1260.72 1223.87 1257.4 1199.76 1255.14 1179.92 L 1243.23 1076.07 L 1225.9 921.343 C 1216.94 843.006 1215.16 780.929 1145.61 728.71 C 1122.05 713.851 1117.78 709.982 1091.1 700.848 C 1063.06 693.61 1047.59 692.73 1019.4 693.024 C 1018.24 660.052 1009.25 618.327 1001.86 586.066 C 1007.53 585.85 1013.9 585.731 1019.51 585.312 z M 1439.25 584.665 L 1445.5 583.782 L 1446.09 582.62 C 1445.63 556.936 1424.88 490.316 1413.6 467.19 C 1391.36 423.112 1351.13 369.755 1297.99 364.468 C 1190.27 353.75 1137.29 498.912 1125.84 584.714 C 1149.71 585.919 1178.05 585.273 1202.23 585.331 L 1360.85 584.978 C 1386.55 584.858 1413.67 584.072 1439.25 584.665 z" fill="rgb(198,145,70)" transform="translate(0,0)"></path>
<path d="M 1091.1 700.848 C 1092.49 675.506 1105.77 656.178 1134.88 659.413 C 1154.1 661.549 1169.75 685.098 1164.71 703.454 C 1161.83 715.744 1155.55 721.993 1145.61 728.71 C 1122.05 713.851 1117.78 709.982 1091.1 700.848 z" fill="rgb(247,217,163)" transform="translate(0,0)"></path>
<path d="M 1239.07 660.267 C 1259.52 659.337 1284.42 659.959 1305.15 659.96 L 1416.89 659.803 L 1496.4 659.798 C 1513.73 659.836 1535.18 659.351 1552.05 661.732 C 1571.57 664.484 1590.33 671.153 1607.2 681.338 C 1644.28 703.94 1671.08 736.926 1681.25 779.53 C 1686.01 799.48 1687.85 826.972 1690.27 847.942 C 1695.29 889.996 1699.98 932.087 1704.35 974.214 L 1716.19 1074.71 C 1719.67 1106.12 1732.64 1147.44 1691.55 1157 C 1644.03 1158.97 1648 1112.1 1644.12 1077.69 L 1635 999.782 C 1632 972.575 1629.5 942.817 1622.62 916.496 C 1611.33 871.63 1587.25 831.011 1553.3 799.586 C 1465.52 716.776 1376.48 731.094 1267.26 731.105 C 1254.81 730.647 1235.56 733.263 1224.87 725.936 C 1196.75 706.652 1204.23 665.59 1239.07 660.267 z" fill="rgb(247,217,163)" transform="translate(0,0)"></path>
<path d="M 1080.77 589.95 C 1092.16 502.872 1121.91 410.454 1192.72 352.97 C 1263.27 295.711 1366.45 318.273 1417.01 390.108 C 1461.9 452.096 1480.14 512.654 1491.4 587.291 C 1477.45 587.265 1457.58 588.181 1444.48 585.344 C 1442.77 584.975 1440.97 584.773 1439.25 584.665 L 1445.5 583.782 L 1446.09 582.62 C 1445.63 556.936 1424.88 490.316 1413.6 467.19 C 1391.36 423.112 1351.13 369.755 1297.99 364.468 C 1190.27 353.75 1137.29 498.912 1125.84 584.714 L 1124.33 589.652 C 1117.23 591.522 1089.35 590.179 1080.77 589.95 z" fill="rgb(206,127,12)" transform="translate(0,0)"></path>
<path d="M 1261.33 1243.51 C 1265.51 1280.64 1269 1317.86 1273.46 1354.94 C 1279.01 1400.67 1285.88 1446.46 1288.02 1492.51 C 1289.47 1523.62 1280.09 1552.28 1269.42 1581.03 C 1268.55 1583.4 1269.8 1584.75 1271.58 1586.04 C 1270.24 1586.12 1266.87 1585.93 1266.26 1586.93 C 1233.84 1639.7 1183.07 1680.2 1119.47 1686.96 C 1086.99 1690.4 1044.68 1688.57 1009.67 1688.63 C 933.231 1688.96 856.795 1688.9 780.36 1688.46 L 527.268 1688.87 L 449.984 1689.02 C 435.826 1689.04 415.615 1689.57 401.902 1688.18 C 350.595 1682.58 303.552 1657.01 270.95 1617 C 241.124 1580.7 225.281 1534.91 226.287 1487.94 C 226.927 1462.83 231.489 1433.77 234.119 1408.5 L 249.482 1271.01 L 249.9 1272.09 C 250.096 1272.64 252.44 1275.44 253.325 1277.37 C 255.017 1366.19 290.873 1450.93 353.44 1513.99 C 392.624 1553.39 441.734 1581.46 495.571 1595.23 C 542.589 1607.38 572.939 1605.72 620.526 1605.68 L 699.38 1605.86 L 937.228 1606.19 C 1024.74 1606.25 1104.21 1573.77 1165.13 1511.28 C 1241.02 1433.45 1261.91 1348.42 1261.33 1243.51 z" fill="rgb(206,127,12)" transform="translate(0,0)"></path>
<path d="M 249.482 1271.01 C 249.884 1267.41 250.143 1264.18 250.688 1260.57 C 254.357 1268.49 253.679 1267.76 253.325 1277.37 C 252.44 1275.44 250.096 1272.64 249.9 1272.09 L 249.482 1271.01 z" fill="rgb(198,145,70)" transform="translate(0,0)"></path>
<path d="M 844.959 770.513 C 855.919 770.33 867.013 769.947 877.967 770.011 C 898.026 770.128 919.864 766.364 933.027 785.349 C 938.402 793.186 940.42 802.847 938.632 812.18 C 935.357 829.225 921.343 841.069 903.962 841.222 C 884.074 841.398 864.192 841.213 844.3 841.123 L 729.835 840.983 C 674.713 841.055 631.082 838.147 578.067 859.29 C 494.054 892.796 434.163 964.403 415.017 1052.87 C 409.642 1077.7 409.41 1104.33 404.858 1129.46 L 404.614 1130.75 C 403.013 1136.9 401.064 1141.46 396.761 1146.31 C 391.041 1152.88 382.918 1156.88 374.221 1157.39 C 365.643 1157.79 357.261 1154.74 350.949 1148.92 C 343.363 1141.95 338.978 1130.45 339.733 1120.52 C 341.448 1097.94 344.562 1073.69 347.002 1051.2 C 350.347 1020.04 353.909 988.896 357.688 957.78 C 364.035 901.456 363.871 864.365 406.828 820.652 C 429.657 797.479 458.729 781.442 490.507 774.492 C 512.364 769.618 534.784 770.626 557.115 770.649 L 617.704 770.675 C 693.456 771.003 769.208 770.949 844.959 770.513 z" fill="rgb(247,217,163)" transform="translate(0,0)"></path>
<path d="M 1027.3 775.313 C 1028.71 775.23 1030.12 775.184 1031.52 775.174 C 1062.34 775.045 1091.82 791.043 1113.32 812.49 C 1143.39 842.484 1144.57 878.872 1149.7 918.817 L 1163.89 1037.89 L 1178.47 1163.76 C 1180.19 1178.84 1185.09 1213.42 1184.79 1226.9 C 1184.67 1236.53 1180.55 1245.68 1173.42 1252.15 C 1164.05 1260.77 1155.4 1261.39 1143.74 1260.89 C 1123.42 1255.59 1116.21 1243.32 1114.3 1223.33 C 1113.04 1210.13 1111.81 1196.52 1110.16 1183.37 C 1104.53 1138.49 1099.27 1093.57 1094.39 1048.61 C 1092.49 1031.5 1090.4 1014.12 1088.84 997.038 C 1084.64 950.969 1064.95 904.509 1028.45 874.861 C 1009.09 859.138 987.424 854.732 983.469 825.973 C 981.768 814.445 984.882 802.725 992.082 793.563 C 1001.39 781.712 1012.99 777.228 1027.3 775.313 z" fill="rgb(247,217,163)" transform="translate(0,0)"></path>
<path d="M 556.814 700.986 C 565.33 615.919 596.156 525.513 663.45 468.577 C 734.14 408.768 824.464 425.414 881.208 495.474 C 929.043 554.534 949.713 620.325 960.165 695.019 C 950.985 695.115 921.928 696.306 915.044 693.428 C 916.567 688.138 912.402 669.637 911.251 663.2 C 897.946 582.342 827.442 442.623 726.209 481.398 C 648.961 510.986 611.9 618.264 601.086 692.985 C 600.636 696.837 601.17 697.983 599.179 700.631 C 591.217 701.775 566.352 701.018 556.814 700.986 z" fill="rgb(206,127,12)" transform="translate(0,0)"></path>
<path d="M 356.918 1187.97 C 376.899 1186.89 394.017 1202.11 395.271 1222.09 C 396.524 1242.06 381.444 1259.3 361.484 1260.73 C 341.28 1262.17 323.774 1246.87 322.505 1226.65 C 321.237 1206.44 336.692 1189.06 356.918 1187.97 z" fill="rgb(247,217,163)" transform="translate(0,0)"></path>
<metadata><recraft-signature>{"signed_by": "recraft", "signature_b64": "Z/7dYg03o4VBVCBy+UpdRl3pxMB3G6Qnq5O2sOm5W6MZJuasybc4mJXFIUv8M3omw3NQI52FjUsyiSofAbksDg==", "signing_algo": "Ed25519", "generation_timestamp": 1781914882, "identifier": "31ae7075-448a-4869-bd5e-c0e5d13fe8e6"}</recraft-signature></metadata></svg>