<svg xmlns="http://www.w3.org/2000/svg" height="1024" preserveAspectRatio="none" style="display: block;" version="1.1" viewBox="0 0 2048 2048" width="1024">
<defs>
	<linearGradient gradientUnits="userSpaceOnUse" id="Gradient1" x1="1198.23" x2="1174.22" y1="1463.29" y2="1078">
		<stop class="stop0" offset="0" stop-color="rgb(157,98,14)" stop-opacity="1"></stop>
		<stop class="stop1" offset="1" stop-color="rgb(197,130,18)" stop-opacity="1"></stop>
	</linearGradient>
	<linearGradient gradientUnits="userSpaceOnUse" id="Gradient2" x1="540.953" x2="544.644" y1="1462.34" y2="1081.29">
		<stop class="stop0" offset="0" stop-color="rgb(158,98,15)" stop-opacity="1"></stop>
		<stop class="stop1" offset="1" stop-color="rgb(195,130,18)" stop-opacity="1"></stop>
	</linearGradient>
	<linearGradient gradientUnits="userSpaceOnUse" id="Gradient3" x1="1431.11" x2="1574.63" y1="1447.35" y2="1079.13">
		<stop class="stop0" offset="0" stop-color="rgb(157,97,15)" stop-opacity="1"></stop>
		<stop class="stop1" offset="1" stop-color="rgb(198,133,19)" stop-opacity="1"></stop>
	</linearGradient>
</defs>
<path d="M 288.261 757.235 C 291.696 747.014 297.078 738.082 305.864 731.506 C 341.88 704.548 379.293 679.386 415.678 652.949 L 739.947 421.783 C 798.803 379.207 857.929 337.004 917.321 295.179 C 929.845 286.411 942.318 277.57 954.739 268.656 C 965.212 261.087 976.685 252.067 987.966 246.364 C 1007.21 236.639 1034.06 235.845 1054.16 243.608 C 1071.54 250.321 1091.78 266.883 1107.4 278.027 L 1163.28 317.811 L 1392.15 480.95 C 1466.17 532.991 1539.89 585.447 1613.33 638.315 C 1656.36 668.751 1699.89 698.488 1742 730.193 C 1752.48 738.084 1758.73 747.159 1761.91 759.905 C 1765.39 788.757 1751.56 808.844 1721.52 811.867 C 1709.61 813.067 1696.85 811.402 1685.2 812.5 C 1685.17 835.981 1684.81 860.343 1685.51 883.749 C 1685.49 904.352 1687.14 925.923 1671.05 941.585 C 1656.36 955.882 1641.08 956.874 1622.04 958.443 C 1635.58 968.616 1642.36 975.041 1644.11 992.925 C 1643.75 1007.32 1641.23 1020.52 1630.35 1031.13 C 1612.02 1048.99 1588.1 1043.05 1565.11 1044.62 C 1540.94 1040.2 1477.17 1042.71 1451.81 1044.58 L 1449.81 1044.72 C 1421.07 1044.16 1389.67 1048.71 1375.26 1016.94 C 1371.3 1008.22 1371.18 1002.06 1371.17 992.872 C 1373.03 973.94 1378.92 968.525 1393.14 957.415 C 1362.69 956.045 1326.41 956.797 1295.58 957.096 C 1308.3 965.392 1317.23 974.614 1320.49 990.14 C 1321.31 1027.55 1300.75 1044.86 1264.84 1043.92 C 1257.34 1043.72 1246.48 1043.77 1238.99 1044.21 C 1228.92 1041.96 1143.12 1042.14 1132.17 1044.07 C 1089.62 1044.98 1052.53 1047.97 1050.46 992.867 C 1051.82 975.657 1058.29 967.701 1071.65 957.893 C 1044 955.87 1004.52 956.909 976.005 957.12 C 988.518 965.037 997.785 977.279 999.441 992.277 C 1000.22 1047.77 959.384 1044.13 918.883 1044.14 C 906.979 1041.54 823.63 1041.77 811.283 1044.08 C 770.892 1044.24 730.296 1047.63 728.733 992.683 C 730.608 975.961 735.717 967.12 749.892 958.15 C 740.91 956.395 723.885 956.803 714.055 956.799 C 694.328 956.793 674.601 956.896 654.875 957.109 C 668.525 966.356 675.101 972.791 678.489 989.907 C 678.621 990.582 678.745 991.258 678.859 991.936 C 679.322 1006.24 676.735 1018.37 666.459 1029.29 C 648.494 1048.38 622.102 1041.95 597.696 1044.07 C 586.434 1041.42 500.986 1041.34 490.145 1044.4 L 488.777 1044.47 C 447.281 1046.26 407.467 1045.54 405.707 992.194 C 408.307 975.816 413.902 967.057 428.067 958.092 C 426.837 958.117 425.606 958.123 424.376 958.111 C 406.418 958.038 392.921 955.34 379.679 941.627 C 363.148 924.508 364.611 905.597 364.742 884.003 L 364.702 812.825 C 339.171 810.432 313.413 819.743 295.639 794.64 C 286.229 781.35 286.194 772.436 288.261 757.235 z" fill="rgb(249,172,28)" transform="translate(0,0)"></path>
<path d="M 364.702 812.825 L 763.119 812.028 L 1307.2 811.934 L 1568.53 812.268 C 1604.62 812.281 1649.76 813.793 1685.2 812.5 C 1685.17 835.981 1684.81 860.343 1685.51 883.749 C 1685.49 904.352 1687.14 925.923 1671.05 941.585 C 1656.36 955.882 1641.08 956.874 1622.04 958.443 C 1635.58 968.616 1642.36 975.041 1644.11 992.925 C 1643.75 1007.32 1641.23 1020.52 1630.35 1031.13 C 1612.02 1048.99 1588.1 1043.05 1565.11 1044.62 C 1540.94 1040.2 1477.17 1042.71 1451.81 1044.58 L 1449.81 1044.72 C 1421.07 1044.16 1389.67 1048.71 1375.26 1016.94 C 1371.3 1008.22 1371.18 1002.06 1371.17 992.872 C 1373.03 973.94 1378.92 968.525 1393.14 957.415 C 1362.69 956.045 1326.41 956.797 1295.58 957.096 C 1308.3 965.392 1317.23 974.614 1320.49 990.14 C 1321.31 1027.55 1300.75 1044.86 1264.84 1043.92 C 1257.34 1043.72 1246.48 1043.77 1238.99 1044.21 C 1228.92 1041.96 1143.12 1042.14 1132.17 1044.07 C 1089.62 1044.98 1052.53 1047.97 1050.46 992.867 C 1051.82 975.657 1058.29 967.701 1071.65 957.893 C 1044 955.87 1004.52 956.909 976.005 957.12 C 988.518 965.037 997.785 977.279 999.441 992.277 C 1000.22 1047.77 959.384 1044.13 918.883 1044.14 C 906.979 1041.54 823.63 1041.77 811.283 1044.08 C 770.892 1044.24 730.296 1047.63 728.733 992.683 C 730.608 975.961 735.717 967.12 749.892 958.15 C 740.91 956.395 723.885 956.803 714.055 956.799 C 694.328 956.793 674.601 956.896 654.875 957.109 C 668.525 966.356 675.101 972.791 678.489 989.907 C 678.621 990.582 678.745 991.258 678.859 991.936 C 679.322 1006.24 676.735 1018.37 666.459 1029.29 C 648.494 1048.38 622.102 1041.95 597.696 1044.07 C 586.434 1041.42 500.986 1041.34 490.145 1044.4 L 488.777 1044.47 C 447.281 1046.26 407.467 1045.54 405.707 992.194 C 408.307 975.816 413.902 967.057 428.067 958.092 C 426.837 958.117 425.606 958.123 424.376 958.111 C 406.418 958.038 392.921 955.34 379.679 941.627 C 363.148 924.508 364.611 905.597 364.742 884.003 L 364.702 812.825 z" fill="rgb(223,142,20)" transform="translate(0,0)"></path>
<path d="M 364.702 812.825 L 763.119 812.028 L 1307.2 811.934 L 1568.53 812.268 C 1604.62 812.281 1649.76 813.793 1685.2 812.5 C 1685.17 835.981 1684.81 860.343 1685.51 883.749 C 1659.83 882.702 1632.34 882.999 1606.53 883.05 C 1597.54 899.526 1587.93 896.729 1570.97 896.929 C 1554.68 897.121 1538.31 896.97 1522.01 896.977 L 1371.9 897.014 L 632.138 897.043 C 613.543 897.045 458.321 899.326 451.502 894.297 C 448.097 891.787 445.328 887.25 443.753 883.401 C 436.847 882.483 372.275 883.031 364.742 884.003 L 364.702 812.825 z" fill="rgb(249,172,28)" transform="translate(0,0)"></path>
<path d="M 456.589 858.582 C 479.934 857.61 506.926 858.265 530.498 858.303 L 657.553 858.355 L 1052.58 858.324 L 1379.29 858.544 L 1517.04 858.265 C 1540.64 858.269 1564.24 858.164 1587.83 858.522 C 1602.38 858.743 1607.72 869.734 1606.53 883.05 C 1597.54 899.526 1587.93 896.729 1570.97 896.929 C 1554.68 897.121 1538.31 896.97 1522.01 896.977 L 1371.9 897.014 L 632.138 897.043 C 613.543 897.045 458.321 899.326 451.502 894.297 C 448.097 891.787 445.328 887.25 443.753 883.401 C 443.92 870.645 444.764 865.23 456.589 858.582 z" fill="rgb(254,208,85)" transform="translate(0,0)"></path>
<path d="M 1393.14 957.415 C 1396.03 957.463 1395.08 957.248 1397.44 956.947 C 1407.99 955.602 1419.69 955.951 1430.31 955.918 L 1492.26 955.836 L 1571.95 955.76 C 1584.1 955.747 1610.8 953.987 1621.16 958.627 L 1622.04 958.443 C 1635.58 968.616 1642.36 975.041 1644.11 992.925 C 1643.75 1007.32 1641.23 1020.52 1630.35 1031.13 C 1612.02 1048.99 1588.1 1043.05 1565.11 1044.62 C 1540.94 1040.2 1477.17 1042.71 1451.81 1044.58 L 1449.81 1044.72 C 1421.07 1044.16 1389.67 1048.71 1375.26 1016.94 C 1371.3 1008.22 1371.18 1002.06 1371.17 992.872 C 1373.03 973.94 1378.92 968.525 1393.14 957.415 z" fill="rgb(194,124,17)" transform="translate(0,0)"></path>
<path d="M 1393.14 957.415 C 1396.03 957.463 1395.08 957.248 1397.44 956.947 C 1407.99 955.602 1419.69 955.951 1430.31 955.918 L 1492.26 955.836 L 1571.95 955.76 C 1584.1 955.747 1610.8 953.987 1621.16 958.627 L 1622.04 958.443 C 1635.58 968.616 1642.36 975.041 1644.11 992.925 L 1459.66 992.907 C 1431.56 992.888 1399.02 992.079 1371.17 992.872 C 1373.03 973.94 1378.92 968.525 1393.14 957.415 z" fill="rgb(149,90,14)" transform="translate(0,0)"></path>
<path d="M 428.067 958.092 C 439.411 954.748 523.716 955.937 540.657 955.93 L 609.574 955.933 C 623.576 955.942 641.286 955.455 654.875 957.109 C 668.525 966.356 675.101 972.791 678.489 989.907 C 678.621 990.582 678.745 991.258 678.859 991.936 C 679.322 1006.24 676.735 1018.37 666.459 1029.29 C 648.494 1048.38 622.102 1041.95 597.696 1044.07 C 586.434 1041.42 500.986 1041.34 490.145 1044.4 L 488.777 1044.47 C 447.281 1046.26 407.467 1045.54 405.707 992.194 C 408.307 975.816 413.902 967.057 428.067 958.092 z" fill="rgb(194,124,17)" transform="translate(0,0)"></path>
<path d="M 428.067 958.092 C 439.411 954.748 523.716 955.937 540.657 955.93 L 609.574 955.933 C 623.576 955.942 641.286 955.455 654.875 957.109 C 668.525 966.356 675.101 972.791 678.489 989.907 C 678.621 990.582 678.745 991.258 678.859 991.936 C 673.658 993.046 653.106 992.794 646.557 992.813 L 575.692 992.778 L 469.259 992.911 C 450.093 992.941 424.318 993.664 405.707 992.194 C 408.307 975.816 413.902 967.057 428.067 958.092 z" fill="rgb(149,90,14)" transform="translate(0,0)"></path>
<path d="M 749.892 958.15 C 754.151 957.18 759.11 956.379 763.468 956.332 C 806.379 955.866 851.024 955.867 893.762 955.896 C 908.911 955.906 965.946 954.757 976.005 957.12 C 988.518 965.037 997.785 977.279 999.441 992.277 C 1000.22 1047.77 959.384 1044.13 918.883 1044.14 C 906.979 1041.54 823.63 1041.77 811.283 1044.08 C 770.892 1044.24 730.296 1047.63 728.733 992.683 C 730.608 975.961 735.717 967.12 749.892 958.15 z" fill="rgb(194,124,17)" transform="translate(0,0)"></path>
<path d="M 749.892 958.15 C 754.151 957.18 759.11 956.379 763.468 956.332 C 806.379 955.866 851.024 955.867 893.762 955.896 C 908.911 955.906 965.946 954.757 976.005 957.12 C 988.518 965.037 997.785 977.279 999.441 992.277 C 993.223 993.249 975.287 992.867 968.479 992.844 L 912.819 992.643 L 728.733 992.683 C 730.608 975.961 735.717 967.12 749.892 958.15 z" fill="rgb(149,90,14)" transform="translate(0,0)"></path>
<path d="M 1071.65 957.893 C 1083.88 955.179 1106.6 956.031 1120.17 956.015 L 1194.09 955.961 L 1256.14 955.96 C 1267.37 955.964 1284.86 955.465 1295.58 957.096 C 1308.3 965.392 1317.23 974.614 1320.49 990.14 C 1321.31 1027.55 1300.75 1044.86 1264.84 1043.92 C 1257.34 1043.72 1246.48 1043.77 1238.99 1044.21 C 1228.92 1041.96 1143.12 1042.14 1132.17 1044.07 C 1089.62 1044.98 1052.53 1047.97 1050.46 992.867 C 1051.82 975.657 1058.29 967.701 1071.65 957.893 z" fill="rgb(194,124,17)" transform="translate(0,0)"></path>
<path d="M 1071.65 957.893 C 1083.88 955.179 1106.6 956.031 1120.17 956.015 L 1194.09 955.961 L 1256.14 955.96 C 1267.37 955.964 1284.86 955.465 1295.58 957.096 C 1308.3 965.392 1317.23 974.614 1320.49 990.14 C 1314.22 994.478 1286.51 992.896 1277.55 992.891 L 1207.01 992.842 L 1104.36 992.805 C 1087.37 992.821 1067.14 993.38 1050.46 992.867 C 1051.82 975.657 1058.29 967.701 1071.65 957.893 z" fill="rgb(149,90,14)" transform="translate(0,0)"></path>
<path d="M 288.261 757.235 C 290.057 759.39 290.784 759.543 294.624 759.587 C 314.094 759.808 333.981 759.662 353.426 759.686 L 477.777 759.876 L 875.888 759.824 L 1449.5 759.82 L 1659.08 760.041 C 1692.26 760.036 1729.08 760.772 1761.91 759.905 C 1765.39 788.757 1751.56 808.844 1721.52 811.867 C 1709.61 813.067 1696.85 811.402 1685.2 812.5 C 1649.76 813.793 1604.62 812.281 1568.53 812.268 L 1307.2 811.934 L 763.119 812.028 L 364.702 812.825 C 339.171 810.432 313.413 819.743 295.639 794.64 C 286.229 781.35 286.194 772.436 288.261 757.235 z" fill="rgb(194,124,17)" transform="translate(0,0)"></path>
<path d="M 492.945 707.914 L 825.815 470.421 L 939.609 388.583 C 959.25 374.432 978.656 359.714 998.861 346.371 C 1003.33 343.418 1011.09 340.463 1016.37 339.588 C 1025.75 338.031 1037.18 339.919 1045.65 344.267 C 1064.8 356.131 1083.28 370.325 1101.57 383.446 L 1208.65 460.328 L 1555.93 707.855 C 1524.96 707.916 1493.99 707.708 1463.02 707.23 L 886.391 707.973 L 679.945 707.996 C 648.524 707.997 607.109 709.244 576.671 707.89 L 492.945 707.914 z" fill="rgb(223,142,20)" transform="translate(0,0)"></path>
<path d="M 492.945 707.914 L 825.815 470.421 L 939.609 388.583 C 959.25 374.432 978.656 359.714 998.861 346.371 C 1003.33 343.418 1011.09 340.463 1016.37 339.588 C 1025.75 338.031 1037.18 339.919 1045.65 344.267 C 1064.8 356.131 1083.28 370.325 1101.57 383.446 L 1208.65 460.328 L 1555.93 707.855 C 1524.96 707.916 1493.99 707.708 1463.02 707.23 C 1425.91 678.644 1387.25 651.672 1349.26 624.249 L 1191.88 509.973 L 1104.18 445.77 C 1087.16 433.291 1071.15 420.719 1052.93 409.985 C 1016.98 388.806 988.288 415.857 960.437 436.079 L 900.981 479.28 L 669.672 646.909 C 643.07 665.852 617.242 686.001 590.31 704.502 C 585.583 707.75 582.237 707.352 576.671 707.89 L 492.945 707.914 z" fill="rgb(194,124,17)" transform="translate(0,0)"></path>
<path d="M 1016 463.191 C 1018.27 463.036 1020 462.969 1022.29 463.029 C 1031.42 463.184 1040.38 465.555 1048.4 469.938 C 1060.6 476.616 1076.58 488.143 1088.38 496.288 L 1155.15 542.621 C 1189.49 565.803 1223.63 589.29 1257.55 613.079 C 1269.55 621.401 1285.39 630.629 1295.9 640.757 C 1297.95 642.734 1299 649.411 1298.22 652.437 C 1296.45 659.338 1292.53 662.276 1286.87 665.799 C 1259.57 667.443 1223.24 666.751 1195.52 666.81 L 1038.25 666.961 L 861.819 666.862 C 847.723 666.848 767.125 667.967 760.506 664.662 C 756.403 662.599 753.372 658.885 752.172 654.451 C 749.271 644.129 755.36 637.553 763.244 631.985 C 774.904 623.749 786.808 615.854 798.609 607.821 L 881.046 551.688 L 958.006 498.238 C 973.223 487.703 999.261 467.233 1016 463.191 z" fill="rgb(249,172,28)" transform="translate(0,0)"></path>
<path d="M 1452.46 1456.92 C 1477.12 1469.44 1502.85 1463.51 1529.64 1464.67 C 1543.56 1465.27 1552.06 1463.43 1564.24 1456.57 L 1564.85 1456.66 L 1566.28 1456.89 C 1583.47 1459.58 1601.2 1455.4 1617.45 1462.81 C 1638.04 1472.19 1645.08 1488.61 1645.03 1510.08 C 1645.1 1522.23 1644.99 1534.86 1645.28 1546.97 C 1679.17 1547.41 1716.16 1540.81 1740.73 1566.3 C 1768.02 1594.61 1758.58 1631.41 1760.23 1667.47 C 1758.84 1699.38 1730.35 1727.75 1698.39 1728.77 C 1669.25 1729.71 1639.7 1729.27 1610.52 1729.26 L 1452.84 1729.23 L 953.773 1729.22 L 552.872 1729.21 L 417.626 1729.21 C 395.028 1729.2 369.987 1730.31 347.713 1728.73 C 316.671 1726.52 290.214 1697.17 288.658 1666.84 C 289.789 1630.53 281.902 1594.7 307.968 1567.72 C 334.817 1539.93 368.886 1547.88 405.123 1546.89 C 405.315 1535.58 404.418 1509.39 405.875 1499.81 C 406.645 1490.32 411.681 1479.69 418.149 1472.71 C 435.442 1454.04 464.67 1457.64 488.804 1456.9 C 507.076 1466.42 519.535 1465.34 539.607 1465.12 C 554.769 1464.95 570.113 1466.2 584.911 1463.14 C 589.155 1462.26 594.821 1458.16 598.721 1456.66 L 600.097 1456.84 C 624.759 1460 648.657 1452.12 668.205 1475.73 C 675.831 1484.93 678.06 1495.63 678.451 1507.29 C 679.155 1519.77 678.765 1534.07 678.982 1546.81 C 692.982 1546.92 715.764 1547.74 729.059 1546.86 C 729.358 1532.4 728.493 1512.52 729.848 1498.61 C 729.982 1489.96 736.265 1477.83 742.549 1471.87 C 759.38 1455.92 779.21 1457.32 800.317 1457.76 C 803.234 1458.39 808.717 1457.91 811.949 1457.79 C 828.929 1466.99 844.208 1465.02 862.81 1464.98 C 876.624 1464.96 891.287 1465.44 904.929 1463.55 C 907.719 1463.17 916.234 1458.03 919.937 1456.71 C 944.789 1457.82 970.919 1454.36 988.562 1474.48 C 995.049 1481.96 998.844 1491.41 999.343 1501.3 C 1000.63 1509.62 1000.05 1537.25 1000.06 1546.97 C 1013.06 1547.08 1037.49 1547.93 1050.03 1546.82 L 1049.78 1509.95 C 1050.59 1458.66 1088.26 1456.76 1127.67 1458.05 C 1138.94 1458.78 1134.16 1459.92 1143.77 1462.35 C 1163.72 1467.4 1190.08 1464.54 1210.55 1464.9 C 1220.65 1465.07 1232.2 1460.61 1240.07 1456.83 C 1280.03 1459.06 1319.37 1454.33 1320.4 1509.94 C 1320.47 1522.01 1320.28 1535 1321.06 1546.97 C 1332.8 1547.14 1360.15 1548.14 1371.19 1546.81 C 1371.87 1535.51 1371.61 1520.9 1371.68 1509.35 C 1371.23 1455.94 1413.45 1457.57 1452.46 1456.92 z" fill="rgb(237,212,170)" transform="translate(0,0)"></path>
<path d="M 288.658 1666.84 L 1294.7 1666.72 C 1415.78 1666.17 1536.86 1666.28 1657.94 1667.04 C 1689.64 1667.51 1729.58 1665.87 1760.23 1667.47 C 1758.84 1699.38 1730.35 1727.75 1698.39 1728.77 C 1669.25 1729.71 1639.7 1729.27 1610.52 1729.26 L 1452.84 1729.23 L 953.773 1729.22 L 552.872 1729.21 L 417.626 1729.21 C 395.028 1729.2 369.987 1730.31 347.713 1728.73 C 316.671 1726.52 290.214 1697.17 288.658 1666.84 z" fill="rgb(221,179,120)" transform="translate(0,0)"></path>
<path d="M 488.804 1456.9 C 507.076 1466.42 519.535 1465.34 539.607 1465.12 C 554.769 1464.95 570.113 1466.2 584.911 1463.14 C 589.155 1462.26 594.821 1458.16 598.721 1456.66 L 600.097 1456.84 C 624.759 1460 648.657 1452.12 668.205 1475.73 C 675.831 1484.93 678.06 1495.63 678.451 1507.29 C 679.155 1519.77 678.765 1534.07 678.982 1546.81 L 405.123 1546.89 C 405.315 1535.58 404.418 1509.39 405.875 1499.81 C 406.645 1490.32 411.681 1479.69 418.149 1472.71 C 435.442 1454.04 464.67 1457.64 488.804 1456.9 z" fill="rgb(194,124,17)" transform="translate(0,0)"></path>
<path d="M 405.875 1499.81 C 406.009 1502.5 405.724 1508.2 407.184 1509.61 C 430.31 1510.22 454.981 1509.69 478.254 1509.73 L 604.682 1509.9 C 627.298 1509.81 655.6 1508.57 677.533 1509.42 L 678.451 1507.29 C 679.155 1519.77 678.765 1534.07 678.982 1546.81 L 405.123 1546.89 C 405.315 1535.58 404.418 1509.39 405.875 1499.81 z" fill="rgb(149,90,14)" transform="translate(0,0)"></path>
<path d="M 811.949 1457.79 C 828.929 1466.99 844.208 1465.02 862.81 1464.98 C 876.624 1464.96 891.287 1465.44 904.929 1463.55 C 907.719 1463.17 916.234 1458.03 919.937 1456.71 C 944.789 1457.82 970.919 1454.36 988.562 1474.48 C 995.049 1481.96 998.844 1491.41 999.343 1501.3 C 1000.63 1509.62 1000.05 1537.25 1000.06 1546.97 C 989.508 1546.59 978.081 1546.65 967.479 1546.77 C 888.173 1547.67 808.308 1545.35 729.059 1546.86 C 729.358 1532.4 728.493 1512.52 729.848 1498.61 C 729.982 1489.96 736.265 1477.83 742.549 1471.87 C 759.38 1455.92 779.21 1457.32 800.317 1457.76 C 803.234 1458.39 808.717 1457.91 811.949 1457.79 z" fill="rgb(194,124,17)" transform="translate(0,0)"></path>
<path d="M 729.059 1546.86 C 729.358 1532.4 728.493 1512.52 729.848 1498.61 C 730.005 1502.09 730.103 1505.81 730.421 1509.25 C 790.103 1509.89 849.789 1510.15 909.475 1510.03 C 933.11 1510.02 977.01 1511.24 998.503 1509.38 C 999.295 1505.84 999.266 1504.82 999.343 1501.3 C 1000.63 1509.62 1000.05 1537.25 1000.06 1546.97 C 989.508 1546.59 978.081 1546.65 967.479 1546.77 C 888.173 1547.67 808.308 1545.35 729.059 1546.86 z" fill="rgb(149,90,14)" transform="translate(0,0)"></path>
<path d="M 1452.46 1456.92 C 1477.12 1469.44 1502.85 1463.51 1529.64 1464.67 C 1543.56 1465.27 1552.06 1463.43 1564.24 1456.57 L 1564.85 1456.66 L 1566.28 1456.89 C 1583.47 1459.58 1601.2 1455.4 1617.45 1462.81 C 1638.04 1472.19 1645.08 1488.61 1645.03 1510.08 C 1637.99 1508.79 1614.41 1509.18 1606.4 1509.27 C 1584.54 1509.58 1562.68 1509.77 1540.83 1509.84 L 1428.84 1509.23 C 1410.83 1509.13 1389.5 1508.52 1371.68 1509.35 C 1371.23 1455.94 1413.45 1457.57 1452.46 1456.92 z" fill="rgb(194,124,17)" transform="translate(0,0)"></path>
<path d="M 1240.07 1456.83 C 1280.03 1459.06 1319.37 1454.33 1320.4 1509.94 C 1266.96 1509.23 1212.45 1509.95 1158.91 1509.85 C 1124.88 1509.78 1083.34 1508.54 1049.78 1509.95 C 1050.59 1458.66 1088.26 1456.76 1127.67 1458.05 C 1138.94 1458.78 1134.16 1459.92 1143.77 1462.35 C 1163.72 1467.4 1190.08 1464.54 1210.55 1464.9 C 1220.65 1465.07 1232.2 1460.61 1240.07 1456.83 z" fill="rgb(194,124,17)" transform="translate(0,0)"></path>
<path d="M 1371.68 1509.35 C 1389.5 1508.52 1410.83 1509.13 1428.84 1509.23 L 1540.83 1509.84 C 1562.68 1509.77 1584.54 1509.58 1606.4 1509.27 C 1614.41 1509.18 1637.99 1508.79 1645.03 1510.08 C 1645.1 1522.23 1644.99 1534.86 1645.28 1546.97 C 1616.15 1546.18 1583.25 1546.93 1553.81 1546.92 L 1371.19 1546.81 C 1371.87 1535.51 1371.61 1520.9 1371.68 1509.35 z" fill="rgb(149,90,14)" transform="translate(0,0)"></path>
<path d="M 1049.78 1509.95 C 1083.34 1508.54 1124.88 1509.78 1158.91 1509.85 C 1212.45 1509.95 1266.96 1509.23 1320.4 1509.94 C 1320.47 1522.01 1320.28 1535 1321.06 1546.97 C 1291.28 1545.43 1252.22 1546.69 1221.41 1546.75 L 1050.03 1546.82 L 1049.78 1509.95 z" fill="rgb(149,90,14)" transform="translate(0,0)"></path>
<path d="M 1449.81 1044.72 L 1451.81 1044.58 C 1477.17 1042.71 1540.94 1040.2 1565.11 1044.62 L 1565 1046.1 C 1576.82 1056.56 1583.77 1062.34 1584.68 1079.68 C 1584.81 1082.64 1584.84 1085.6 1584.76 1088.57 C 1585 1172.92 1585.54 1258.69 1584.66 1342.98 C 1584.49 1359.83 1584.45 1376.68 1584.56 1393.52 C 1584.59 1424.2 1587.1 1433.01 1564.85 1456.66 L 1564.24 1456.57 C 1552.06 1463.43 1543.56 1465.27 1529.64 1464.67 C 1502.85 1463.51 1477.12 1469.44 1452.46 1456.92 C 1427.01 1435.62 1429.64 1420.33 1429.78 1390.24 C 1429.92 1375.15 1429.87 1360.06 1429.62 1344.97 C 1429.11 1256.99 1429.14 1169 1429.71 1081.02 C 1431.91 1062.83 1436.51 1056.59 1449.94 1045.83 L 1449.81 1044.72 z" fill="url(#Gradient3)" transform="translate(0,0)"></path>
<path d="M 1449.81 1044.72 L 1451.81 1044.58 C 1477.17 1042.71 1540.94 1040.2 1565.11 1044.62 L 1565 1046.1 C 1576.82 1056.56 1583.77 1062.34 1584.68 1079.68 C 1584.81 1082.64 1584.84 1085.6 1584.76 1088.57 L 1583.38 1081.64 C 1581.74 1080.56 1444.58 1081.07 1429.71 1081.02 C 1431.91 1062.83 1436.51 1056.59 1449.94 1045.83 L 1449.81 1044.72 z" fill="rgb(149,90,14)" transform="translate(0,0)"></path>
<path d="M 1503.6 1117.23 C 1512.08 1117.58 1526.39 1122.55 1527.04 1132.53 C 1529.07 1163.59 1528.2 1195.54 1528.26 1226.75 L 1528.46 1309.59 C 1528.55 1325.57 1528.91 1341.52 1528.5 1357.5 C 1528.17 1370.42 1521.45 1376.17 1509.73 1379.88 C 1500.39 1380.35 1485.55 1374.62 1485.03 1364.14 C 1483.43 1332.29 1484.43 1299.74 1484.54 1267.76 L 1484.57 1184.03 C 1484.56 1168.86 1484.38 1153.68 1484.8 1138.51 C 1485.14 1126.28 1492.59 1120.47 1503.6 1117.23 z" fill="rgb(249,172,28)" transform="translate(0,0)"></path>
<path d="M 811.283 1044.08 C 823.63 1041.77 906.979 1041.54 918.883 1044.14 C 932.629 1053.48 939.719 1063.37 941.639 1080.19 C 941.152 1161.67 941.269 1243.15 941.99 1324.63 L 942.101 1381.37 C 942.242 1409.61 946.414 1437.86 919.937 1456.71 C 916.234 1458.03 907.719 1463.17 904.929 1463.55 C 891.287 1465.44 876.624 1464.96 862.81 1464.98 C 844.208 1465.02 828.929 1466.99 811.949 1457.79 C 808.717 1457.91 803.234 1458.39 800.317 1457.76 C 801.158 1457.57 808.366 1457.16 809.647 1457.07 C 807.913 1455.39 806.193 1453.68 804.488 1451.96 C 798.983 1446.4 790.692 1435.77 789.817 1428.41 C 786.161 1397.66 787.879 1355.69 787.982 1324.64 L 787.754 1080.61 C 789.61 1063.21 796.184 1053.16 811.283 1044.08 z" fill="rgb(194,124,17)" transform="translate(0,0)"></path>
<path d="M 941.99 1324.63 L 942.101 1381.37 C 942.242 1409.61 946.414 1437.86 919.937 1456.71 C 916.234 1458.03 907.719 1463.17 904.929 1463.55 C 891.287 1465.44 876.624 1464.96 862.81 1464.98 C 844.208 1465.02 828.929 1466.99 811.949 1457.79 C 808.717 1457.91 803.234 1458.39 800.317 1457.76 C 801.158 1457.57 808.366 1457.16 809.647 1457.07 C 807.913 1455.39 806.193 1453.68 804.488 1451.96 C 798.983 1446.4 790.692 1435.77 789.817 1428.41 C 786.161 1397.66 787.879 1355.69 787.982 1324.64 C 790.221 1327.78 794.04 1338.47 795.265 1342.58 C 807.926 1385.09 848.971 1426.81 895.094 1398.56 C 922.106 1382.02 928.916 1352.52 940.975 1325.69 C 941.314 1325.33 941.652 1324.98 941.99 1324.63 z" fill="rgb(149,90,14)" transform="translate(0,0)"></path>
<path d="M 811.283 1044.08 C 823.63 1041.77 906.979 1041.54 918.883 1044.14 C 932.629 1053.48 939.719 1063.37 941.639 1080.19 C 934.438 1081.37 894.796 1081.16 885.611 1080.98 C 854.028 1080.37 818.978 1082.05 787.754 1080.61 C 789.61 1063.21 796.184 1053.16 811.283 1044.08 z" fill="rgb(149,90,14)" transform="translate(0,0)"></path>
<path d="M 861.724 1117.28 C 881.112 1118.63 885.099 1127.15 885.255 1144.89 C 885.897 1214.83 885.323 1284.81 885.667 1354.75 C 885.734 1368.48 880.995 1375.45 867.562 1380.04 C 859.036 1380.1 843.488 1375.47 842.826 1365.32 C 840.773 1333.86 841.727 1301.36 841.79 1269.72 L 841.953 1187.84 C 841.964 1172.03 841.888 1156.27 842.247 1140.46 C 842.561 1126.64 848.227 1120.38 861.724 1117.28 z" fill="rgb(249,172,28)" transform="translate(0,0)"></path>
<path d="M 490.145 1044.4 C 500.986 1041.34 586.434 1041.42 597.696 1044.07 C 610.815 1054.08 619.579 1063.21 620.299 1080.78 C 620.361 1167.26 621.178 1255 620.261 1341.38 C 620.14 1358.43 620.142 1375.48 620.268 1392.53 C 620.337 1420.94 622.369 1436.28 598.721 1456.66 C 594.821 1458.16 589.155 1462.26 584.911 1463.14 C 570.113 1466.2 554.769 1464.95 539.607 1465.12 C 519.535 1465.34 507.076 1466.42 488.804 1456.9 C 487.178 1455.47 485.594 1453.99 484.052 1452.47 C 462.32 1431.14 466.536 1410.23 466.492 1382.13 C 466.436 1356.18 466.595 1330.23 466.968 1304.29 L 466.895 1081.13 C 468.358 1064.28 475.386 1052.96 490.145 1044.4 z" fill="url(#Gradient2)" transform="translate(0,0)"></path>
<path d="M 490.145 1044.4 C 500.986 1041.34 586.434 1041.42 597.696 1044.07 C 610.815 1054.08 619.579 1063.21 620.299 1080.78 C 571.721 1082.4 516.006 1081.13 466.895 1081.13 C 468.358 1064.28 475.386 1052.96 490.145 1044.4 z" fill="rgb(149,90,14)" transform="translate(0,0)"></path>
<path d="M 538.462 1117.16 C 540.981 1117.17 543.544 1117.28 546.019 1117.79 C 552.374 1119.12 558.642 1123.39 561.765 1129.14 C 564.354 1133.91 564.183 1141.67 564.419 1147.05 C 565.497 1171.59 566.322 1358.26 564.026 1364.45 C 560.998 1372.61 555.624 1375.94 547.991 1379.4 C 543.396 1380.19 539.168 1380.39 534.689 1378.74 C 528.981 1376.65 524.464 1372.18 522.31 1366.49 C 518.871 1357.48 521.93 1165.88 521.386 1139.71 C 521.332 1137.12 521.826 1131.41 523.212 1128.86 C 526.898 1122.09 531.46 1119.4 538.462 1117.16 z" fill="rgb(249,172,28)" transform="translate(0,0)"></path>
<path d="M 1132.17 1044.07 C 1143.12 1042.14 1228.92 1041.96 1238.99 1044.21 C 1253.3 1052.15 1259.65 1065.35 1262.37 1080.83 C 1261.91 1156.53 1261.84 1232.23 1262.15 1307.93 L 1262.24 1371.58 C 1262.53 1401.99 1268.27 1429.76 1244.65 1452.67 C 1243.17 1454.11 1241.65 1455.5 1240.07 1456.83 C 1232.2 1460.61 1220.65 1465.07 1210.55 1464.9 C 1190.08 1464.54 1163.72 1467.4 1143.77 1462.35 C 1134.16 1459.92 1138.94 1458.78 1127.67 1458.05 L 1130.21 1456.9 C 1129.77 1453.66 1124.33 1450.15 1121.86 1447.61 C 1104.89 1430.14 1108.1 1404.77 1108.26 1382.15 L 1108.63 1317.23 L 1108.5 1080.88 C 1110.55 1064.18 1117.74 1052.82 1132.17 1044.07 z" fill="url(#Gradient1)" transform="translate(0,0)"></path>
<path d="M 1132.17 1044.07 C 1143.12 1042.14 1228.92 1041.96 1238.99 1044.21 C 1253.3 1052.15 1259.65 1065.35 1262.37 1080.83 C 1249.13 1081.91 1229.18 1081.03 1215.22 1081.16 C 1179.77 1081.48 1143.94 1080.35 1108.5 1080.88 C 1110.55 1064.18 1117.74 1052.82 1132.17 1044.07 z" fill="rgb(149,90,14)" transform="translate(0,0)"></path>
<path d="M 1182.8 1117.26 C 1200.27 1118.63 1206.25 1127.14 1206.35 1144.14 C 1206.78 1214.91 1207.15 1285.72 1206.94 1356.48 C 1206.9 1370.1 1201.08 1376.3 1188.52 1380.35 C 1177.39 1380.37 1164.82 1376.17 1164.02 1362.98 C 1161.85 1327.25 1163.62 1290.98 1163.58 1255.14 C 1163.55 1217.06 1163.08 1178.97 1163.31 1140.9 C 1163.5 1126.81 1169.18 1120.43 1182.8 1117.26 z" fill="rgb(249,172,28)" transform="translate(0,0)"></path>
<metadata><recraft-signature>{"signed_by": "recraft", "signature_b64": "u+r2tfIBrrGStcjmzq6IsqvCqA1xKrhI2nlql00ngaSGTHX+ZIZqDKFuvYZdy2AMczCY5lgiLQ3QtHYq4xeAAQ==", "signing_algo": "Ed25519", "generation_timestamp": 1781914899, "identifier": "b40c8e6b-66e1-49e9-be3b-7f7dc5dafa42"}</recraft-signature></metadata></svg>