<svg xmlns="http://www.w3.org/2000/svg" height="1024" preserveAspectRatio="none" style="display: block;" version="1.1" viewBox="0 0 2048 2048" width="1024">
<path d="M 1039.36 698.87 C 1080.3 640.617 1152.24 577.31 1216.35 546.04 C 1262.63 523.466 1315.55 506.969 1367.22 507.397 C 1376.15 507.47 1389.57 506.831 1397.73 509.619 C 1411.76 511.853 1427.18 514.066 1440.89 517.323 C 1458.8 522.66 1473.35 527.135 1490.61 534.43 C 1589.58 579.704 1650.27 660.774 1687.79 761.989 C 1793.08 1046.02 1651.48 1408.15 1365.59 1522.33 C 1328.65 1537.08 1260.72 1546.09 1219.96 1536.51 C 1205.03 1534.87 1186.18 1532.25 1172.15 1527.01 C 1169.81 1526.14 1165.34 1523.04 1162.35 1521.5 C 1160.07 1520.53 1159.9 1520.54 1157.44 1520.13 C 1152.02 1521.96 1136.64 1516.04 1131.03 1513.94 C 1098.66 1502.62 1064.36 1480.4 1038.72 1457.92 L 1029.4 1447.23 C 1029.51 1441.72 1030.2 1440.78 1025.79 1437.35 C 996.826 1468.91 959.105 1500.16 917.798 1513.88 C 908.196 1517.2 897.231 1521.28 887.566 1524.03 L 886.494 1524.26 C 879.933 1525.74 874.207 1528 867.69 1529.8 C 854.703 1533.4 843.145 1535.2 829.797 1536.5 C 780.156 1543.95 735.36 1540.69 687.791 1523.62 C 550.226 1474.26 445.535 1356.77 384.229 1227.1 C 317.561 1086.1 308.204 908.482 360.418 761.479 C 396.796 659.06 459.822 580.097 558.973 533.212 C 569.953 527.495 593.489 520.722 606.223 516.755 C 612.327 514.229 638.535 510.571 646.309 509.506 C 657.673 506.884 671.852 507.501 683.631 507.754 C 749.29 509.16 812.147 532.04 867.41 566.655 C 917.789 598.14 962.279 638.184 998.875 684.983 C 1001.94 688.959 1023.01 718.332 1025.46 718.601 C 1028.76 712.136 1034.82 704.789 1039.36 698.87 z M 1121.2 754.656 C 1118.15 750.641 1116.22 751.392 1112.21 751.569 C 1111.62 758.203 1117.4 756.329 1121.2 754.656 z" fill="rgb(179,104,35)" transform="translate(0,0)"></path>
<path d="M 1039.36 698.87 C 1080.3 640.617 1152.24 577.31 1216.35 546.04 C 1262.63 523.466 1315.55 506.969 1367.22 507.397 C 1376.15 507.47 1389.57 506.831 1397.73 509.619 C 1411.76 511.853 1427.18 514.066 1440.89 517.323 C 1458.8 522.66 1473.35 527.135 1490.61 534.43 C 1589.58 579.704 1650.27 660.774 1687.79 761.989 C 1793.08 1046.02 1651.48 1408.15 1365.59 1522.33 C 1328.65 1537.08 1260.72 1546.09 1219.96 1536.51 C 1205.03 1534.87 1186.18 1532.25 1172.15 1527.01 C 1169.81 1526.14 1165.34 1523.04 1162.35 1521.5 C 1160.07 1520.53 1159.9 1520.54 1157.44 1520.13 C 1152.02 1521.96 1136.64 1516.04 1131.03 1513.94 C 1098.66 1502.62 1064.36 1480.4 1038.72 1457.92 L 1029.4 1447.23 C 1029.51 1441.72 1030.2 1440.78 1025.79 1437.35 C 1027.03 1434.95 1034.8 1425.28 1036.82 1422.56 C 1045.03 1411.44 1054.03 1400.37 1061.41 1388.66 C 1093.84 1337.54 1117.75 1281.49 1132.2 1222.7 C 1134.89 1211.9 1139.11 1194.59 1140.31 1183.74 C 1142.75 1179.72 1145.24 1146.72 1145.73 1139.35 C 1153.04 1030.69 1137.5 936.699 1089.28 839.568 C 1076.75 814.489 1063.75 789.648 1050.28 765.059 C 1046.23 757.757 1025.12 722.387 1025.46 718.601 C 1028.76 712.136 1034.82 704.789 1039.36 698.87 z M 1121.2 754.656 C 1118.15 750.641 1116.22 751.392 1112.21 751.569 C 1111.62 758.203 1117.4 756.329 1121.2 754.656 z" fill="rgb(179,104,35)" transform="translate(0,0)"></path>
<path d="M 1039.36 698.87 C 1080.3 640.617 1152.24 577.31 1216.35 546.04 C 1262.63 523.466 1315.55 506.969 1367.22 507.397 C 1376.15 507.47 1389.57 506.831 1397.73 509.619 C 1411.76 511.853 1427.18 514.066 1440.89 517.323 C 1458.8 522.66 1473.35 527.135 1490.61 534.43 C 1494.01 539.381 1497.82 545.211 1501.43 549.898 C 1506.98 560.741 1514.19 574.534 1518.33 585.809 C 1545.79 660.518 1546.74 737.997 1522.4 813.456 C 1497.97 889.232 1461.37 930.83 1410.85 988.741 C 1387.43 1015.72 1363.77 1042.5 1339.89 1069.08 C 1309.18 1103.15 1274.99 1139.79 1249.67 1178.06 C 1204.07 1246.99 1159.97 1351.44 1170.67 1435.67 C 1177.23 1474.57 1190.59 1509.02 1219.96 1536.51 C 1205.03 1534.87 1186.18 1532.25 1172.15 1527.01 C 1169.81 1526.14 1165.34 1523.04 1162.35 1521.5 C 1160.07 1520.53 1159.9 1520.54 1157.44 1520.13 C 1152.02 1521.96 1136.64 1516.04 1131.03 1513.94 C 1098.66 1502.62 1064.36 1480.4 1038.72 1457.92 L 1029.4 1447.23 C 1029.51 1441.72 1030.2 1440.78 1025.79 1437.35 C 1027.03 1434.95 1034.8 1425.28 1036.82 1422.56 C 1045.03 1411.44 1054.03 1400.37 1061.41 1388.66 C 1093.84 1337.54 1117.75 1281.49 1132.2 1222.7 C 1134.89 1211.9 1139.11 1194.59 1140.31 1183.74 C 1142.75 1179.72 1145.24 1146.72 1145.73 1139.35 C 1153.04 1030.69 1137.5 936.699 1089.28 839.568 C 1076.75 814.489 1063.75 789.648 1050.28 765.059 C 1046.23 757.757 1025.12 722.387 1025.46 718.601 C 1028.76 712.136 1034.82 704.789 1039.36 698.87 z M 1121.2 754.656 C 1118.15 750.641 1116.22 751.392 1112.21 751.569 C 1111.62 758.203 1117.4 756.329 1121.2 754.656 z" fill="rgb(179,104,35)" transform="translate(0,0)"></path>
<path d="M 1397.73 509.619 C 1411.76 511.853 1427.18 514.066 1440.89 517.323 C 1458.8 522.66 1473.35 527.135 1490.61 534.43 C 1494.01 539.381 1497.82 545.211 1501.43 549.898 C 1506.98 560.741 1514.19 574.534 1518.33 585.809 C 1545.79 660.518 1546.74 737.997 1522.4 813.456 C 1497.97 889.232 1461.37 930.83 1410.85 988.741 C 1387.43 1015.72 1363.77 1042.5 1339.89 1069.08 C 1309.18 1103.15 1274.99 1139.79 1249.67 1178.06 C 1204.07 1246.99 1159.97 1351.44 1170.67 1435.67 C 1177.23 1474.57 1190.59 1509.02 1219.96 1536.51 C 1205.03 1534.87 1186.18 1532.25 1172.15 1527.01 C 1169.81 1526.14 1165.34 1523.04 1162.35 1521.5 C 1160.07 1520.53 1159.9 1520.54 1157.44 1520.13 C 1152.02 1521.96 1136.64 1516.04 1131.03 1513.94 C 1098.66 1502.62 1064.36 1480.4 1038.72 1457.92 L 1029.4 1447.23 C 1029.51 1441.72 1030.2 1440.78 1025.79 1437.35 C 1027.03 1434.95 1034.8 1425.28 1036.82 1422.56 C 1045.03 1411.44 1054.03 1400.37 1061.41 1388.66 C 1093.84 1337.54 1117.75 1281.49 1132.2 1222.7 C 1134.89 1211.9 1139.11 1194.59 1140.31 1183.74 C 1142.75 1179.72 1145.24 1146.72 1145.73 1139.35 C 1153.04 1030.69 1137.5 936.699 1089.28 839.568 C 1076.75 814.489 1063.75 789.648 1050.28 765.059 C 1046.23 757.757 1025.12 722.387 1025.46 718.601 C 1028.76 712.136 1034.82 704.789 1039.36 698.87 C 1068.02 731.592 1086.45 765.373 1104.73 804.567 C 1113.46 823.283 1124.93 841.252 1132.53 860.595 C 1167.38 949.734 1182.89 1042.57 1171.58 1137.92 L 1174.56 1139.79 C 1185.01 1122.63 1211.91 1091.23 1225.67 1074.64 C 1259.43 1034.73 1293.45 995.041 1327.74 955.585 C 1340.24 941.215 1353.62 927.337 1365.75 912.786 C 1415.35 853.273 1443.35 792.895 1449.91 714.955 C 1455.72 645.84 1443.12 564.151 1397.73 509.619 z" fill="rgb(247,217,174)" transform="translate(0,0)"></path>
<path d="M 1440.89 517.323 C 1458.8 522.66 1473.35 527.135 1490.61 534.43 C 1494.01 539.381 1497.82 545.211 1501.43 549.898 C 1506.98 560.741 1514.19 574.534 1518.33 585.809 C 1545.79 660.518 1546.74 737.997 1522.4 813.456 C 1497.97 889.232 1461.37 930.83 1410.85 988.741 C 1387.43 1015.72 1363.77 1042.5 1339.89 1069.08 C 1309.18 1103.15 1274.99 1139.79 1249.67 1178.06 C 1204.07 1246.99 1159.97 1351.44 1170.67 1435.67 C 1177.23 1474.57 1190.59 1509.02 1219.96 1536.51 C 1205.03 1534.87 1186.18 1532.25 1172.15 1527.01 C 1169.81 1526.14 1165.34 1523.04 1162.35 1521.5 C 1163.29 1521 1162.78 1521.38 1163.63 1520.06 C 1160.75 1515.28 1153.97 1507.95 1149.84 1501.92 C 1121.21 1460.19 1119.74 1414.77 1125.71 1365.75 C 1130.43 1329.74 1139.64 1294.47 1153.14 1260.76 C 1190.91 1164.62 1238.12 1113.54 1305.1 1038.83 C 1329.7 1011.56 1353.78 983.82 1377.33 955.636 C 1428.8 894.535 1465.21 849.849 1481.73 768.801 C 1499.06 683.775 1488.86 590.777 1440.89 517.323 z" fill="rgb(236,162,75)" transform="translate(0,0)"></path>
<path d="M 1080.14 1406.39 C 1085.52 1407.31 1087.32 1408.44 1092.13 1409.71 C 1098.06 1450.65 1106.75 1479.87 1131.03 1513.94 C 1098.66 1502.62 1064.36 1480.4 1038.72 1457.92 C 1051.92 1445.09 1069.92 1421.6 1080.14 1406.39 z" fill="rgb(125,58,4)" transform="translate(0,0)"></path>
<path d="M 1090.66 1391.97 C 1091.12 1397.44 1091.83 1404.44 1092.13 1409.71 C 1087.32 1408.44 1085.52 1407.31 1080.14 1406.39 C 1083.49 1401.47 1087 1396.67 1090.66 1391.97 z" fill="rgb(191,116,53)" transform="translate(0,0)"></path>
<path d="M 1171.58 1137.92 L 1174.56 1139.79 C 1171.14 1146.69 1170.77 1144 1171.58 1137.92 z" fill="rgb(191,116,53)" transform="translate(0,0)"></path>
<path d="M 1346.33 567.311 C 1369.31 565.406 1398.43 571.949 1391.92 602.929 C 1387.47 624.104 1345.86 624.998 1327.67 628.533 C 1290.77 635.704 1259.53 646.229 1226.09 664.095 C 1213.83 671.156 1194.94 682.797 1189.61 661.704 C 1186.91 650.985 1202.94 639.152 1210.36 632.785 C 1246.35 601.903 1299.13 575.088 1346.33 567.311 z" fill="rgb(247,217,174)" transform="translate(0,0)"></path>
<path d="M 1153.2 685.086 C 1166.68 684.095 1176.96 686.851 1175.18 704.011 C 1174.14 714.085 1159.49 724.619 1152.55 732.154 C 1144.99 740.355 1135.83 750.903 1127.02 757.831 C 1107.02 765.245 1103.4 741.974 1110.37 728.623 C 1119.32 711.47 1134.68 692.22 1153.2 685.086 z M 1121.2 754.656 C 1118.15 750.641 1116.22 751.392 1112.21 751.569 C 1111.62 758.203 1117.4 756.329 1121.2 754.656 z" fill="rgb(247,217,174)" transform="translate(0,0)"></path>
<path d="M 1112.21 751.569 C 1116.22 751.392 1118.15 750.641 1121.2 754.656 C 1117.4 756.329 1111.62 758.203 1112.21 751.569 z" fill="rgb(247,217,174)" fill-opacity="0.882353" transform="translate(0,0)"></path>
<path d="M 1490.61 534.43 C 1589.58 579.704 1650.27 660.774 1687.79 761.989 C 1793.08 1046.02 1651.48 1408.15 1365.59 1522.33 C 1328.65 1537.08 1260.72 1546.09 1219.96 1536.51 C 1190.59 1509.02 1177.23 1474.57 1170.67 1435.67 C 1205.09 1436.48 1231.94 1434.52 1265.78 1425.41 C 1385.33 1393.23 1486.3 1282.6 1545.66 1178.2 C 1619.83 1047.76 1649.32 883.174 1607.58 737.386 C 1591.09 679.778 1565.65 623.613 1527.73 576.863 C 1521.26 568.881 1510.25 554.783 1501.43 549.898 C 1497.82 545.211 1494.01 539.381 1490.61 534.43 z" fill="rgb(125,58,4)" transform="translate(0,0)"></path>
<path d="M 829.797 1536.5 C 780.156 1543.95 735.36 1540.69 687.791 1523.62 C 550.226 1474.26 445.535 1356.77 384.229 1227.1 C 317.561 1086.1 308.204 908.482 360.418 761.479 C 396.796 659.06 459.822 580.097 558.973 533.212 C 554.841 539.244 551.323 544.389 546.736 550.069 C 535.902 574.89 526.663 594.854 519.414 621.595 C 500.648 690.828 507.185 769.175 533.225 835.652 C 547.025 870.727 566.112 903.483 589.822 932.784 C 600.064 945.482 611.564 957.194 621.707 969.621 C 646.711 1000.26 671.945 1029.71 698.509 1059.04 C 724.291 1087.51 751.71 1115.55 775.305 1146.07 C 815.899 1198.57 849.22 1262.52 866.346 1326.77 C 874.446 1357.15 881.137 1406.02 876.114 1436.39 C 870.022 1474.29 857.339 1507.13 829.131 1534.34 L 828.752 1535.9 L 829.797 1536.5 z" fill="rgb(179,104,35)" transform="translate(0,0)"></path>
<path d="M 829.797 1536.5 C 780.156 1543.95 735.36 1540.69 687.791 1523.62 C 550.226 1474.26 445.535 1356.77 384.229 1227.1 C 317.561 1086.1 308.204 908.482 360.418 761.479 C 396.796 659.06 459.822 580.097 558.973 533.212 C 554.841 539.244 551.323 544.389 546.736 550.069 C 537.798 555.518 526.269 570.288 519.653 578.777 C 379.875 758.128 397.605 1012.19 513.831 1198.68 C 576.64 1299.46 669.06 1396.25 787.974 1427.39 C 818.066 1435.11 845.435 1435.97 876.114 1436.39 C 870.022 1474.29 857.339 1507.13 829.131 1534.34 L 828.752 1535.9 L 829.797 1536.5 z" fill="rgb(125,58,4)" transform="translate(0,0)"></path>
<path d="M 646.309 509.506 L 647.805 510.654 C 646.421 513.531 646.137 513.028 644.545 515.076 C 605.665 565.096 594.386 642.446 597.023 703.46 C 600.388 769.245 622.672 832.661 661.198 886.091 C 679.912 911.539 701.551 934.217 722.355 957.946 C 752.898 992.981 783.238 1028.19 813.372 1063.58 C 907.853 1174.49 963.757 1261.44 954.373 1412.12 C 950.802 1439.01 943.499 1465.3 931.727 1489.89 C 927.476 1498.77 921.857 1506.07 917.798 1513.88 C 908.196 1517.2 897.231 1521.28 887.566 1524.03 L 886.494 1524.26 C 879.933 1525.74 874.207 1528 867.69 1529.8 C 854.703 1533.4 843.145 1535.2 829.797 1536.5 L 828.752 1535.9 L 829.131 1534.34 C 857.339 1507.13 870.022 1474.29 876.114 1436.39 C 881.137 1406.02 874.446 1357.15 866.346 1326.77 C 849.22 1262.52 815.899 1198.57 775.305 1146.07 C 751.71 1115.55 724.291 1087.51 698.509 1059.04 C 671.945 1029.71 646.711 1000.26 621.707 969.621 C 611.564 957.194 600.064 945.482 589.822 932.784 C 566.112 903.483 547.025 870.727 533.225 835.652 C 507.185 769.175 500.648 690.828 519.414 621.595 C 526.663 594.854 535.902 574.89 546.736 550.069 C 551.323 544.389 554.841 539.244 558.973 533.212 C 569.953 527.495 593.489 520.722 606.223 516.755 C 612.327 514.229 638.535 510.571 646.309 509.506 z" fill="rgb(236,162,75)" transform="translate(0,0)"></path>
<path d="M 646.309 509.506 L 647.805 510.654 C 646.421 513.531 646.137 513.028 644.545 515.076 C 605.665 565.096 594.386 642.446 597.023 703.46 C 600.388 769.245 622.672 832.661 661.198 886.091 C 679.912 911.539 701.551 934.217 722.355 957.946 C 752.898 992.981 783.238 1028.19 813.372 1063.58 C 907.853 1174.49 963.757 1261.44 954.373 1412.12 C 950.802 1439.01 943.499 1465.3 931.727 1489.89 C 927.476 1498.77 921.857 1506.07 917.798 1513.88 C 908.196 1517.2 897.231 1521.28 887.566 1524.03 C 884.776 1522.54 885.231 1523.45 884.047 1521.32 C 885.396 1517.79 897.074 1503.57 901.397 1496.08 C 926.689 1453.73 926.89 1405.17 920.448 1358.05 C 902.269 1225.07 821.834 1120.22 731.638 1026.12 C 712.435 1006.09 694.563 982.005 675.8 961.3 C 631.578 912.499 591.029 859.945 573.735 795.173 C 546.948 697.277 556.5 605.09 606.223 516.755 C 612.327 514.229 638.535 510.571 646.309 509.506 z" fill="rgb(247,217,174)" transform="translate(0,0)"></path>
<path d="M 1109.13 1252.66 C 1112.48 1267.24 1109.09 1262.54 1106.42 1275.67 C 1105.49 1282.73 1105.24 1290.8 1103.72 1297.64 C 1100.13 1313.67 1092.19 1321.25 1081.08 1332.19 C 1077.84 1335.38 1072.31 1352.16 1069.36 1356.7 C 1065.68 1361.54 1067.97 1368.29 1065.79 1372.81 C 1058.04 1388.9 1045.29 1401.88 1036.26 1417.22 C 1033.51 1421.89 1029.42 1423.07 1027.04 1429.26 L 1027.96 1430.57 C 1032.46 1426.42 1036.35 1419.96 1040.36 1414.8 C 1080.46 1363.08 1107.51 1302.81 1125.98 1240.32 C 1129.5 1228.4 1136.93 1190.84 1140.31 1183.74 C 1139.11 1194.59 1134.89 1211.9 1132.2 1222.7 C 1117.75 1281.49 1093.84 1337.54 1061.41 1388.66 C 1054.03 1400.37 1045.03 1411.44 1036.82 1422.56 C 1034.8 1425.28 1027.03 1434.95 1025.79 1437.35 C 996.826 1468.91 959.105 1500.16 917.798 1513.88 C 921.857 1506.07 927.476 1498.77 931.727 1489.89 C 943.499 1465.3 950.802 1439.01 954.373 1412.12 C 1038.32 1368.48 1094.15 1288.2 1131.43 1203.56 C 1132.79 1209.33 1113.19 1245.17 1109.13 1252.66 z" fill="rgb(125,58,4)" transform="translate(0,0)"></path>
<path d="M 680.084 571.279 C 687.514 570.944 695.951 571.477 703.369 572.46 C 798.227 585.036 883.199 658.941 940.07 732.052 C 949.342 745.645 968.224 766.079 965.984 783.335 C 964.488 794.854 952.195 796.78 942.629 794.834 C 932.986 788.534 916.053 762.205 905.368 750.014 C 884.18 725.884 859.933 704.622 833.242 686.767 C 802.853 666.723 769.878 650.908 735.223 639.76 C 713.328 632.849 691.033 630.629 670.844 619.224 C 643.448 603.746 650.155 576.631 680.084 571.279 z" fill="rgb(247,217,174)" transform="translate(0,0)"></path>
<path d="M 983 820.114 C 1003.11 818.766 1012 831.771 1017.79 849.528 C 1022.69 864.551 1023.86 874.187 1010.3 883.794 C 990.173 888.026 986.146 869.753 978.477 855.172 C 971.046 841.042 969.234 830.694 983 820.114 z" fill="rgb(247,217,174)" transform="translate(0,0)"></path>
<metadata><recraft-signature>{"signed_by": "recraft", "signature_b64": "7VHZF8FxKqg88hAtn8LpXSF68+laBGBW2ILoeDmsGJwsXvcCl8qZEIR4rMfDeIaHz76Jfq9AFyASj6z2raagCg==", "signing_algo": "Ed25519", "generation_timestamp": 1781914840, "identifier": "e3fad410-1d99-4bec-b773-d74958dc59f8"}</recraft-signature></metadata></svg>