<svg xmlns="http://www.w3.org/2000/svg" height="1024" preserveAspectRatio="none" style="display: block;" version="1.1" viewBox="0 0 2048 2048" width="1024">
<defs>
	<linearGradient gradientUnits="userSpaceOnUse" id="Gradient1" x1="568.887" x2="629.328" y1="458.966" y2="527.688">
		<stop class="stop0" offset="0" stop-color="rgb(252,248,235)" stop-opacity="0.960784"></stop>
		<stop class="stop1" offset="1" stop-color="rgb(251,248,232)" stop-opacity="1"></stop>
	</linearGradient>
	<linearGradient gradientUnits="userSpaceOnUse" id="Gradient2" x1="508.926" x2="624.617" y1="1156.9" y2="1113.67">
		<stop class="stop0" offset="0" stop-color="rgb(250,247,235)" stop-opacity="0.27451"></stop>
		<stop class="stop1" offset="1" stop-color="rgb(251,253,242)" stop-opacity="0.74902"></stop>
	</linearGradient>
</defs>
<path d="M 639.927 268.5 L 1189.3 268.528 L 1370.75 268.557 C 1418.99 268.588 1474.07 263.194 1518.54 282.441 C 1542.95 293.235 1564.38 309.781 1580.99 330.663 C 1592.99 345.839 1614.21 387.747 1624.03 406.337 C 1644.03 443.37 1663.79 480.526 1683.33 517.802 L 1727.71 601.352 C 1760.94 663.726 1762.98 663.725 1762.84 734.521 L 1762.6 808.797 L 1762.39 872.876 C 1762.35 885.643 1762.67 901.466 1761.42 913.963 C 1760.5 924.236 1757.89 934.288 1753.71 943.717 C 1741.82 970.467 1722.04 986.612 1695.24 996.899 C 1696.16 1042.22 1695.44 1091.04 1695.44 1136.56 L 1695.66 1341.9 L 1695.4 1452.8 C 1695.31 1494.24 1697.23 1537.79 1687.26 1578.12 C 1663.95 1672.37 1588.8 1749.6 1495.87 1777.05 C 1469.95 1784.71 1447.32 1786.96 1420.44 1787.73 L 895.793 1787.94 L 715.428 1787.81 C 681.788 1787.79 644.469 1789.07 611.075 1786.99 C 495.118 1779.05 391.027 1688 365.027 1575.17 C 354.229 1528.32 357.42 1477.02 357.605 1429.23 L 357.859 1271.14 L 357.409 1085.06 C 357.387 1059.06 356.114 1022.15 357.571 997.313 C 307.396 976.107 289.307 944.17 289.207 890.619 L 289.119 758.323 C 289.096 733.692 287.716 693.153 292.162 670.376 C 296.211 649.632 319.419 609.038 330.219 588.591 C 348.533 553.564 367.169 518.708 386.127 484.026 L 435.336 392.598 C 449.611 366.024 460.948 338.6 482.694 316.993 C 509.574 290.46 544.631 273.79 582.176 269.686 C 598.871 267.939 622.556 268.507 639.927 268.5 z M 589.038 1254.65 C 589.808 1250.35 589.509 1234.91 589.487 1229.8 L 589.362 1182.86 C 589.413 1126.55 590.307 1065.17 589.186 1009.11 C 589.061 1002.74 591.2 998.938 584.282 998.979 C 579.923 998.758 576.003 998.71 571.637 998.672 C 562.644 999.19 528.868 999.144 519.921 998.417 C 515.173 999.317 515.572 999.196 515.704 1003.99 C 515.731 1005.09 515.738 1006.2 515.724 1007.3 C 515.783 1014.73 515.536 1022.06 515.912 1029.45 C 514.767 1044.84 515.431 1071.67 515.536 1087.71 C 515.662 1107.08 514.842 1133.33 516.053 1152.1 L 515.396 1398.99 L 515.138 1468.3 C 515.083 1487.14 514.187 1511.08 517.896 1529.07 C 522.738 1552.6 534.4 1574.18 551.428 1591.12 C 578.054 1617.87 610.756 1628.91 648.015 1628.81 C 654.772 1628.77 661.527 1628.61 668.278 1628.33 C 669.446 1627.93 669.705 1627.61 670.758 1626.9 L 670.776 1624.7 C 667.208 1619.94 649.941 1614.97 644.011 1610.55 C 603.903 1580.68 588.982 1539.65 590.145 1490.93 C 590.693 1467.99 590.041 1443.54 590.035 1420.58 C 590.162 1365.27 589.829 1309.95 589.038 1254.65 z M 668.344 432.044 C 669.313 430.319 670.394 428.715 671.425 427.017 C 668.584 426.987 665.743 427.014 662.903 427.098 C 651.183 426.932 637.575 426.796 625.925 427.159 C 615.315 426.901 599.486 426.988 591.537 435.174 C 583.491 443.459 532.969 534.987 526.326 549.651 C 524.761 551.57 523.468 554.406 522.122 556.664 C 523.21 557.057 524.297 557.451 525.385 557.844 C 533.946 560.219 585.938 559.094 597.593 558.988 C 607.295 543.129 614.549 527.463 623.575 511.728 C 638.864 485.077 653.609 458.993 668.344 432.044 z M 519.842 841.051 C 519.908 808.167 517.184 762.629 527.397 731.102 C 528.521 727.632 529.007 730.184 528.814 724.931 C 528.707 724.059 528.601 723.187 528.494 722.316 C 531.947 725.048 535.411 719.804 522.267 716.076 C 516.723 716.054 509.576 715.741 504.249 716.165 C 496.949 716.134 449.89 715.337 446.577 717.203 L 446.205 722.035 L 447.227 723.177 C 449.402 721.761 450.166 721.305 452.065 719.572 C 450.611 722.17 448.808 725.621 447.139 727.962 C 445.762 763.628 446.902 805.019 447.072 840.969 L 519.842 841.051 z" fill="rgb(192,124,1)" transform="translate(0,0)"></path>
<path d="M 1466.15 997.924 C 1489.77 997.872 1513.39 997.945 1537.01 998.144 L 1536.87 1371.57 L 1536.88 1463.16 C 1536.92 1482.19 1537.88 1509.94 1534.68 1527.58 C 1530.53 1550.41 1515.36 1576.57 1499.1 1592.58 C 1471.18 1620.07 1434.78 1630.86 1396.27 1629.11 C 1389.6 1628.81 1378.92 1629.46 1372.57 1628.09 C 1352.47 1629.27 1328.7 1628.75 1308.3 1628.76 L 1203.85 1628.77 L 890.011 1628.89 L 734.566 1628.79 C 723.803 1628.81 675.757 1629.73 668.278 1628.33 C 669.446 1627.93 669.705 1627.61 670.758 1626.9 L 670.776 1624.7 C 667.208 1619.94 649.941 1614.97 644.011 1610.55 C 603.903 1580.68 588.982 1539.65 590.145 1490.93 C 590.693 1467.99 590.041 1443.54 590.035 1420.58 C 590.162 1365.27 589.829 1309.95 589.038 1254.65 C 589.808 1250.35 589.509 1234.91 589.487 1229.8 L 589.362 1182.86 C 589.413 1126.55 590.307 1065.17 589.186 1009.11 C 589.061 1002.74 591.2 998.938 584.282 998.979 C 579.923 998.758 576.003 998.71 571.637 998.672 C 602.188 997.377 635.48 998.057 666.33 998.116 L 820.178 998.869 L 820.094 1012.48 C 820.049 1049.13 825.695 1074.96 852.122 1101.84 C 891.809 1142.2 945.585 1134.86 996.958 1134.88 L 1107.33 1134.92 C 1160.73 1134.66 1203.55 1114.75 1224.71 1062.49 C 1233.36 1041.12 1232.08 1020.98 1231.95 998.362 L 1466.15 997.924 z" fill="rgb(235,214,163)" transform="translate(0,0)"></path>
<path d="M 1466.15 997.924 C 1489.77 997.872 1513.39 997.945 1537.01 998.144 L 1536.87 1371.57 L 1536.88 1463.16 C 1536.92 1482.19 1537.88 1509.94 1534.68 1527.58 C 1530.53 1550.41 1515.36 1576.57 1499.1 1592.58 C 1471.18 1620.07 1434.78 1630.86 1396.27 1629.11 C 1389.6 1628.81 1378.92 1629.46 1372.57 1628.09 C 1396.74 1619.91 1410.1 1614.16 1428.79 1595.4 C 1446.62 1577.44 1458.73 1554.61 1463.59 1529.78 C 1467.09 1511.2 1466.08 1480.82 1466.08 1460.72 L 1466.04 1363.15 L 1466.15 997.924 z" fill="rgb(236,175,64)" transform="translate(0,0)"></path>
<path d="M 1525.03 716.704 C 1533.34 715.402 1598.65 714.528 1603.9 716.933 C 1604.97 725.667 1604.66 736.575 1604.61 745.582 C 1604.45 777.445 1605.31 809.637 1604.4 841.468 C 1581.3 841.647 1558.2 841.569 1535.1 841.235 C 1503.98 839.828 1463.31 840.997 1431.6 840.991 L 1231.56 840.969 C 1230.77 800.655 1231.64 757.958 1231.97 717.461 C 1300.96 715.255 1373.57 718.297 1442.71 716.998 C 1468.47 716.514 1499.91 718.29 1525.03 716.704 z" fill="rgb(235,214,163)" transform="translate(0,0)"></path>
<path d="M 1525.03 716.704 C 1533.34 715.402 1598.65 714.528 1603.9 716.933 C 1604.97 725.667 1604.66 736.575 1604.61 745.582 C 1604.45 777.445 1605.31 809.637 1604.4 841.468 C 1581.3 841.647 1558.2 841.569 1535.1 841.235 L 1535.14 785.117 C 1535.13 759.114 1536.71 740.624 1525.03 716.704 z" fill="rgb(236,175,64)" transform="translate(0,0)"></path>
<path d="M 522.267 716.076 L 819.971 717.019 L 820.013 840.976 L 519.842 841.051 C 519.908 808.167 517.184 762.629 527.397 731.102 C 528.521 727.632 529.007 730.184 528.814 724.931 C 528.707 724.059 528.601 723.187 528.494 722.316 C 531.947 725.048 535.411 719.804 522.267 716.076 z" fill="rgb(235,214,163)" transform="translate(0,0)"></path>
<path d="M 1231.84 427.364 C 1280.65 425.97 1334.59 427.03 1383.78 427.019 C 1468.92 426.835 1452.96 423.464 1493.74 498.139 C 1504.94 518.978 1516.5 539.624 1528.4 560.07 L 1440.84 560.089 C 1426.03 560.128 1405.82 560.79 1391.62 559.818 L 1231.45 559.973 C 1231.09 515.77 1231.22 471.564 1231.84 427.364 z" fill="rgb(235,214,163)" transform="translate(0,0)"></path>
<path d="M 1383.78 427.019 C 1468.92 426.835 1452.96 423.464 1493.74 498.139 C 1504.94 518.978 1516.5 539.624 1528.4 560.07 L 1440.84 560.089 C 1426.03 560.128 1405.82 560.79 1391.62 559.818 C 1404.55 558.413 1440.82 559.297 1455.61 559.404 C 1444.68 542.871 1432.94 519.806 1423.32 501.901 C 1410.23 477.55 1395.82 451.737 1383.78 427.019 z" fill="rgb(236,175,64)" transform="translate(0,0)"></path>
<path d="M 516.053 1152.1 C 518.213 1139.11 517.565 1121.77 517.541 1108.34 L 517.567 1043.57 C 517.946 1050.05 517.018 1075.46 518.126 1078.59 C 518.332 1078.03 522.852 1047.93 522.847 1046.98 C 522.782 1047.43 523.271 1038.23 525.288 1041.84 C 526.437 1043.89 524.267 1050.96 526.408 1053.65 C 524.944 1060.21 525.327 1089.21 525.426 1097.84 C 525.877 1137.09 523.768 1176.08 528.625 1215.07 C 530.045 1226.47 530.291 1238.21 532.937 1249.55 L 533.005 1222.4 C 538.353 1234.18 548.889 1260.08 556.991 1268.19 C 561.642 1266.44 574.171 1260.83 578.022 1260.73 C 582.128 1262.77 582.897 1263.61 586.465 1266.64 C 587.874 1262 588.291 1259.47 589.038 1254.65 C 589.829 1309.95 590.162 1365.27 590.035 1420.58 C 590.041 1443.54 590.693 1467.99 590.145 1490.93 C 588.982 1539.65 603.903 1580.68 644.011 1610.55 C 649.941 1614.97 667.208 1619.94 670.776 1624.7 L 670.758 1626.9 C 669.705 1627.61 669.446 1627.93 668.278 1628.33 C 661.527 1628.61 654.772 1628.77 648.015 1628.81 C 610.756 1628.91 578.054 1617.87 551.428 1591.12 C 534.4 1574.18 522.738 1552.6 517.896 1529.07 C 514.187 1511.08 515.083 1487.14 515.138 1468.3 L 515.396 1398.99 L 516.053 1152.1 z" fill="rgb(253,250,241)" fill-opacity="0.0235294" transform="translate(0,0)"></path>
<path d="M 671.425 427.017 L 820.029 427.208 L 820.068 560.108 C 794.008 560.065 526.366 561.273 521.352 559.244 C 521.563 557.085 521.145 557.88 522.122 556.664 C 523.21 557.057 524.297 557.451 525.385 557.844 C 533.946 560.219 585.938 559.094 597.593 558.988 C 607.295 543.129 614.549 527.463 623.575 511.728 C 638.864 485.077 653.609 458.993 668.344 432.044 C 669.313 430.319 670.394 428.715 671.425 427.017 z" fill="rgb(235,214,163)" transform="translate(0,0)"></path>
<path d="M 979.156 716.96 L 1073.05 717.154 L 1073.24 975.915 C 1067.68 976.695 1048.48 976.247 1041.68 976.221 L 979.195 976.041 C 977.943 890.584 979.046 802.592 979.156 716.96 z" fill="rgb(235,214,163)" transform="translate(0,0)"></path>
<path d="M 589.186 1009.11 C 590.307 1065.17 589.413 1126.55 589.362 1182.86 L 589.487 1229.8 C 589.509 1234.91 589.808 1250.35 589.038 1254.65 C 588.291 1259.47 587.874 1262 586.465 1266.64 C 582.897 1263.61 582.128 1262.77 578.022 1260.73 C 574.171 1260.83 561.642 1266.44 556.991 1268.19 C 548.889 1260.08 538.353 1234.18 533.005 1222.4 L 532.937 1249.55 C 530.291 1238.21 530.045 1226.47 528.625 1215.07 C 523.768 1176.08 525.877 1137.09 525.426 1097.84 C 525.327 1089.21 524.944 1060.21 526.408 1053.65 C 526.902 1058.68 529.579 1092.69 530.504 1094.44 C 530.565 1094.45 530.626 1094.45 530.687 1094.45 C 530.627 1094.2 530.567 1093.95 530.506 1093.7 C 532.418 1090.76 529.936 1077.32 530.375 1073.15 C 531.546 1061.99 525.396 1050.66 528.204 1040.34 C 529.296 1036.33 534.436 1029.51 532.892 1026.16 L 532.383 1024.98 C 530.87 1022.41 531.241 1021.96 532.02 1018.7 C 533.684 1011.73 530.143 1009.98 540.618 1012.25 C 542.345 1012.43 544.045 1013.64 545.65 1012.59 C 554.106 1007.07 559.678 1012.99 567.988 1012.36 C 569.069 1012.28 571.481 1011.88 572.547 1012.8 C 575.027 1014.95 576.956 1012.8 579.341 1013.68 C 580.3 1014.06 579.936 1017.07 581.161 1017.48 C 581.645 1017.32 581.807 1011.88 589.186 1009.11 z" fill="url(#Gradient2)" transform="translate(0,0)"></path>
<path d="M 982.743 427.479 C 1012.82 427.287 1042.9 427.304 1072.97 427.532 L 1073.18 519.581 C 1073.19 526.146 1073.59 555.128 1072.55 559.373 L 1070.25 559.904 L 979.396 559.974 C 979.233 545.5 978.225 431.351 979.99 427.915 L 982.743 427.479 z" fill="rgb(235,214,163)" transform="translate(0,0)"></path>
<path d="M 526.326 549.651 C 532.969 534.987 583.491 443.459 591.537 435.174 C 599.486 426.988 615.315 426.901 625.925 427.159 C 631.508 427.974 651.636 429.231 654.909 431.277 C 652.348 431.715 636.177 431.644 636.687 431.323 L 636.635 431.474 C 639.073 434.873 651.249 432.424 653.404 434.137 C 653.605 435.612 651.715 436.486 651.773 437.981 C 652.104 438.5 659.598 442.741 659.835 442.532 C 665.104 437.872 660.087 435.716 668.344 432.044 C 653.609 458.993 638.864 485.077 623.575 511.728 C 614.549 527.463 607.295 543.129 597.593 558.988 C 585.938 559.094 533.946 560.219 525.385 557.844 C 527.96 557.26 536.199 557.018 536.227 554.973 C 536.413 541.347 528.654 548.845 526.326 549.651 z" fill="url(#Gradient1)" transform="translate(0,0)"></path>
<path d="M 447.139 727.962 C 448.808 725.621 450.611 722.17 452.065 719.572 C 450.166 721.305 449.402 721.761 447.227 723.177 L 446.205 722.035 L 446.577 717.203 C 449.89 715.337 496.949 716.134 504.249 716.165 C 496.85 718.299 491.918 717.307 486.423 718.476 C 487.51 720.685 513.595 716.946 517.152 719.29 C 516.433 718.817 519.721 724.458 519.629 724.077 C 519.068 725.845 514.528 724.435 514.219 727.573 C 513.238 726.066 523.433 732.538 524.305 730.438 C 524.592 729.745 528.157 725.768 528.814 724.931 C 529.007 730.184 528.521 727.632 527.397 731.102 C 517.184 762.629 519.908 808.167 519.842 841.051 L 447.072 840.969 C 446.902 805.019 445.762 763.628 447.139 727.962 z M 453.722 834.959 C 454.046 834.344 454.245 834.158 454.157 833.841 C 453.739 833.994 453.32 834.148 452.902 834.301 C 452.438 834.776 451.974 835.25 451.511 835.725 C 452.248 835.47 452.985 835.214 453.722 834.959 z" fill="rgb(253,250,241)" fill-opacity="0.956863" transform="translate(0,0)"></path>
<path d="M 452.902 834.301 C 453.32 834.148 453.739 833.994 454.157 833.841 C 454.245 834.158 454.046 834.344 453.722 834.959 C 452.985 835.214 452.248 835.47 451.511 835.725 C 451.974 835.25 452.438 834.776 452.902 834.301 z" fill="rgb(253,250,241)" fill-opacity="0.721569" transform="translate(0,0)"></path>
<path d="M 584.282 998.979 C 591.2 998.938 589.061 1002.74 589.186 1009.11 C 581.807 1011.88 581.645 1017.32 581.161 1017.48 C 579.936 1017.07 580.3 1014.06 579.341 1013.68 C 576.956 1012.8 575.027 1014.95 572.547 1012.8 C 571.481 1011.88 569.069 1012.28 567.988 1012.36 C 559.678 1012.99 554.106 1007.07 545.65 1012.59 C 544.045 1013.64 542.345 1012.43 540.618 1012.25 C 530.143 1009.98 533.684 1011.73 532.02 1018.7 C 531.241 1021.96 530.87 1022.41 532.383 1024.98 C 522.778 1036.21 528.132 1032.66 526.508 1038.76 C 522.78 1038.72 523.531 1039.2 523.163 1035.25 C 523.894 1033.62 525.135 1030.34 522.48 1028.94 C 518.447 1026.82 522.196 1011.01 518.514 1010.6 C 517.794 1016.64 517.623 1023.28 515.912 1029.45 C 515.536 1022.06 515.783 1014.73 515.724 1007.3 C 520.122 1008.17 520.244 1008.24 524.333 1010.18 C 528.766 1011.58 528.508 998.579 535.998 1002.35 C 541.799 1005.28 546.141 1004.48 552.5 1004.07 C 557.652 1003.73 562.443 1004.59 567.492 1002.99 C 574.274 999.993 581.201 1007.92 584.282 998.979 z" fill="rgb(253,250,241)" fill-opacity="0.376471" transform="translate(0,0)"></path>
<path d="M 515.912 1029.45 C 517.623 1023.28 517.794 1016.64 518.514 1010.6 C 522.196 1011.01 518.447 1026.82 522.48 1028.94 C 525.135 1030.34 523.894 1033.62 523.163 1035.25 C 517.858 1033.31 522.271 1044.83 522.847 1046.98 C 522.852 1047.93 518.332 1078.03 518.126 1078.59 C 517.018 1075.46 517.946 1050.05 517.567 1043.57 L 517.541 1108.34 C 517.565 1121.77 518.213 1139.11 516.053 1152.1 C 514.842 1133.33 515.662 1107.08 515.536 1087.71 C 515.431 1071.67 514.767 1044.84 515.912 1029.45 z" fill="rgb(253,250,241)" fill-opacity="0.447059" transform="translate(0,0)"></path>
<path d="M 571.637 998.672 C 576.003 998.71 579.923 998.758 584.282 998.979 C 581.201 1007.92 574.274 999.993 567.492 1002.99 C 562.443 1004.59 557.652 1003.73 552.5 1004.07 C 546.141 1004.48 541.799 1005.28 535.998 1002.35 C 528.508 998.579 528.766 1011.58 524.333 1010.18 C 523.052 1004.43 522.512 1003.72 519.921 998.417 C 528.868 999.144 562.644 999.19 571.637 998.672 z" fill="rgb(253,248,243)" fill-opacity="0.239216" transform="translate(0,0)"></path>
<path d="M 504.249 716.165 C 509.576 715.741 516.723 716.054 522.267 716.076 C 535.411 719.804 531.947 725.048 528.494 722.316 C 528.601 723.187 528.707 724.059 528.814 724.931 C 528.157 725.768 524.592 729.745 524.305 730.438 C 523.433 732.538 513.238 726.066 514.219 727.573 C 514.528 724.435 519.068 725.845 519.629 724.077 C 519.721 724.458 516.433 718.817 517.152 719.29 C 513.595 716.946 487.51 720.685 486.423 718.476 C 491.918 717.307 496.85 718.299 504.249 716.165 z" fill="rgb(253,250,241)" fill-opacity="0.686275" transform="translate(0,0)"></path>
<path d="M 532.383 1024.98 L 532.892 1026.16 C 534.436 1029.51 529.296 1036.33 528.204 1040.34 C 525.396 1050.66 531.546 1061.99 530.375 1073.15 C 529.936 1077.32 532.418 1090.76 530.506 1093.7 C 530.567 1093.95 530.627 1094.2 530.687 1094.45 C 530.626 1094.45 530.565 1094.45 530.504 1094.44 C 529.579 1092.69 526.902 1058.68 526.408 1053.65 C 524.267 1050.96 526.437 1043.89 525.288 1041.84 C 523.271 1038.23 522.782 1047.43 522.847 1046.98 C 522.271 1044.83 517.858 1033.31 523.163 1035.25 C 523.531 1039.2 522.78 1038.72 526.508 1038.76 C 528.132 1032.66 522.778 1036.21 532.383 1024.98 z" fill="rgb(253,250,241)" fill-opacity="0.490196" transform="translate(0,0)"></path>
<path d="M 662.903 427.098 C 665.743 427.014 668.584 426.987 671.425 427.017 C 670.394 428.715 669.313 430.319 668.344 432.044 C 660.087 435.716 665.104 437.872 659.835 442.532 C 659.598 442.741 652.104 438.5 651.773 437.981 C 651.715 436.486 653.605 435.612 653.404 434.137 C 651.249 432.424 639.073 434.873 636.635 431.474 L 636.687 431.323 C 636.177 431.644 652.348 431.715 654.909 431.277 C 656 433.145 656.313 435.813 656.437 436.009 C 660.624 442.696 664.377 430.288 662.903 427.098 z" fill="rgb(253,250,241)" fill-opacity="0.866667" transform="translate(0,0)"></path>
<path d="M 625.925 427.159 C 637.575 426.796 651.183 426.932 662.903 427.098 C 664.377 430.288 660.624 442.696 656.437 436.009 C 656.313 435.813 656 433.145 654.909 431.277 C 651.636 429.231 631.508 427.974 625.925 427.159 z" fill="rgb(253,250,241)" fill-opacity="0.811765" transform="translate(0,0)"></path>
<path d="M 526.326 549.651 C 528.654 548.845 536.413 541.347 536.227 554.973 C 536.199 557.018 527.96 557.26 525.385 557.844 C 524.297 557.451 523.21 557.057 522.122 556.664 C 523.468 554.406 524.761 551.57 526.326 549.651 z" fill="rgb(253,250,241)" fill-opacity="0.486275" transform="translate(0,0)"></path>
<path d="M 515.724 1007.3 C 515.738 1006.2 515.731 1005.09 515.704 1003.99 C 515.572 999.196 515.173 999.317 519.921 998.417 C 522.512 1003.72 523.052 1004.43 524.333 1010.18 C 520.244 1008.24 520.122 1008.17 515.724 1007.3 z" fill="rgb(253,250,241)" fill-opacity="0.266667" transform="translate(0,0)"></path>
<metadata><recraft-signature>{"signed_by": "recraft", "signature_b64": "Vko3IoNNIYZcMgSOkSC/n8ySCnOEUwUIrTkXI1H+dNI32z9NjDYtoDzjn3aeTqrREMvPlG1sFwYEUM60RkIwDg==", "signing_algo": "Ed25519", "generation_timestamp": 1781914879, "identifier": "b6176ccc-4804-4876-99cf-429c05e432f0"}</recraft-signature></metadata></svg>