<svg xmlns="http://www.w3.org/2000/svg" height="1024" preserveAspectRatio="none" style="display: block;" version="1.1" viewBox="0 0 2048 2048" width="1024">
<path d="M 1025.3 190.418 C 1031.57 189.474 1073.21 199.906 1080.47 202.691 C 1086.8 205.077 1092.77 208.333 1098.21 212.367 C 1124.34 231.84 1125.05 255.093 1125.4 284.641 L 1126.01 329.667 C 1169.37 340.45 1171.29 372.173 1170.8 408.96 C 1170.52 429.913 1170.2 454.019 1171.09 474.829 C 1188.11 475.178 1204.28 482.374 1215.94 494.791 C 1222.05 501.185 1229.4 512.883 1231.24 521.411 C 1238.41 520.699 1255.49 516.182 1263.29 514.612 C 1293.4 508.558 1325.09 499.219 1355.27 494.362 C 1382.25 497.715 1430.54 518.293 1457.99 527.393 C 1491.31 538.438 1487.19 587.419 1487.17 613.534 L 1487.16 701.716 C 1487.19 714.627 1486.66 733.871 1487.64 746.357 C 1514 746.702 1534.75 742.334 1554.86 762.694 C 1562.68 770.553 1567.96 780.581 1570.01 791.477 C 1571.89 801.391 1571.28 814.472 1571.25 824.708 C 1571.09 877.5 1571.3 930.288 1571.37 983.08 C 1571.37 987.19 1571.36 993.344 1570.58 997.304 L 1571.45 997.576 C 1581.74 1000.7 1597.48 1003.89 1608.29 1006.38 L 1672.89 1021.32 C 1704.59 1028.68 1736.56 1032.9 1752.59 1064.89 C 1757.57 1074.82 1760.5 1083.52 1760.74 1094.84 C 1761.44 1118.06 1761.03 1141.7 1760.99 1164.94 L 1760.98 1292.03 L 1761 1526.05 L 1761.01 1583.95 C 1761.05 1600.25 1762.4 1630.96 1757.9 1645.54 C 1752.48 1663.47 1740.03 1678.44 1723.4 1687.04 C 1716.78 1690.42 1709.62 1692.62 1702.25 1693.54 C 1692.32 1694.71 1677.07 1694.41 1666.74 1694.46 L 1612.59 1694.65 L 1547.85 1694.7 C 1539.63 1694.66 1524.73 1694.98 1516.94 1694.29 C 1480.83 1694.4 1436.58 1695.66 1401.06 1694.11 C 1380.56 1695.56 1352.74 1695.06 1331.76 1694.97 C 1310.73 1694.88 1285.72 1695.63 1265 1694.83 C 1261.26 1694.93 1258 1694.92 1254.26 1694.85 C 1164.06 1691.65 1071.18 1695.61 980.748 1694.71 L 898.518 1694.64 L 707.98 1694.98 L 701.809 1695.02 C 665.167 1693.92 628.481 1695.22 592.341 1694.14 C 576.933 1695.21 545.715 1694.27 529.206 1694.33 L 401.244 1694.78 C 370.029 1694.79 343.652 1697.14 320.081 1673.2 C 310.186 1663.22 303.447 1650.56 300.708 1636.78 C 298.254 1623.85 299.554 1570.54 299.573 1553.49 L 299.354 1384.25 L 299.116 1234.17 C 299.12 1217.08 297.966 1174.36 299.87 1158.96 C 301.047 1149.37 304.378 1140.17 309.614 1132.06 C 328.121 1103.14 353.684 1100.35 384.39 1094.14 C 401.271 1090.81 418.122 1087.33 434.941 1083.7 C 435.532 1058.58 434.521 1029.28 434.392 1003.66 L 434.042 834.23 C 434.119 805.122 433.016 770.988 435.962 742.133 C 437.023 731.741 443.306 719.855 450.368 712.151 C 471.139 689.492 486.837 691.671 513.953 690.164 C 514.85 679.533 514.217 662.867 514.127 651.703 L 513.853 588.925 C 513.782 559.43 511.512 530.582 539.888 511.789 C 554.74 501.953 579.382 499.326 596.92 494.978 C 610.563 491.597 638.135 482.311 651.412 484.936 L 652.378 485.297 C 675.348 493.635 731.796 503.294 749.339 513.959 C 758.597 519.648 765.967 527.947 770.523 537.812 C 773.024 543.202 774.68 548.945 775.431 554.839 C 776.687 564.227 776.226 581.207 776.239 591.207 L 776.278 652.544 C 776.282 663.74 775.891 679.227 776.748 690.157 C 791.319 690.91 811.606 690.519 825.043 695.194 C 826.106 656.683 824.181 615.545 825 576.846 C 825.299 562.735 823.634 537.772 825.952 524.861 C 827.654 515.855 831.346 507.343 836.76 499.947 C 850.512 481.048 866.672 476.993 888.378 473.552 C 890.834 443.269 883.081 381.444 895.701 357.285 C 903.778 341.822 917.402 333.566 933.504 328.605 C 934.117 296.831 926.634 253.56 945.174 227.653 C 963.952 201.414 995.652 195.782 1025.3 190.418 z M 748.922 966.261 C 746.556 963.447 743.553 964.03 739.915 963.868 C 740.848 968.53 744.728 966.976 748.922 966.261 z" fill="rgb(233,188,104)" transform="translate(0,0)"></path>
<path d="M 513.953 690.164 C 514.85 679.533 514.217 662.867 514.127 651.703 L 513.853 588.925 C 513.782 559.43 511.512 530.582 539.888 511.789 C 554.74 501.953 579.382 499.326 596.92 494.978 C 610.563 491.597 638.135 482.311 651.412 484.936 L 652.378 485.297 C 675.348 493.635 731.796 503.294 749.339 513.959 C 758.597 519.648 765.967 527.947 770.523 537.812 C 773.024 543.202 774.68 548.945 775.431 554.839 C 776.687 564.227 776.226 581.207 776.239 591.207 L 776.278 652.544 C 776.282 663.74 775.891 679.227 776.748 690.157 C 791.319 690.91 811.606 690.519 825.043 695.194 C 854.901 713.316 861.325 732.408 861.028 766.66 C 860.873 784.531 861.087 803.317 861.098 821.242 L 861.152 985.503 C 864.817 986.042 868.709 986.525 872.302 987.345 C 898.484 994.057 925.894 998.098 941.695 1022.91 C 956.849 1046.7 953.019 1072.45 952.988 1099.74 L 952.701 1194.09 L 952.709 1359.07 C 952.786 1387.81 953.399 1418.52 952.92 1447.1 C 972.651 1445.14 995.922 1436.11 1015.67 1441.16 C 1030.52 1454.48 1027.08 1476.21 1026.62 1494.64 C 1025.01 1508.05 1025.88 1525.88 1025.92 1539.6 L 1026.19 1619.66 C 1026.3 1656.87 1031.08 1693.73 980.748 1694.71 L 898.518 1694.64 L 707.98 1694.98 L 701.809 1695.02 C 665.167 1693.92 628.481 1695.22 592.341 1694.14 C 576.933 1695.21 545.715 1694.27 529.206 1694.33 L 401.244 1694.78 C 370.029 1694.79 343.652 1697.14 320.081 1673.2 C 310.186 1663.22 303.447 1650.56 300.708 1636.78 C 298.254 1623.85 299.554 1570.54 299.573 1553.49 L 299.354 1384.25 L 299.116 1234.17 C 299.12 1217.08 297.966 1174.36 299.87 1158.96 C 301.047 1149.37 304.378 1140.17 309.614 1132.06 C 328.121 1103.14 353.684 1100.35 384.39 1094.14 C 401.271 1090.81 418.122 1087.33 434.941 1083.7 C 435.532 1058.58 434.521 1029.28 434.392 1003.66 L 434.042 834.23 C 434.119 805.122 433.016 770.988 435.962 742.133 C 437.023 731.741 443.306 719.855 450.368 712.151 C 471.139 689.492 486.837 691.671 513.953 690.164 z M 748.922 966.261 C 746.556 963.447 743.553 964.03 739.915 963.868 C 740.848 968.53 744.728 966.976 748.922 966.261 z" fill="rgb(196,143,11)" transform="translate(0,0)"></path>
<path d="M 739.915 963.868 C 743.553 964.03 746.556 963.447 748.922 966.261 C 744.728 966.976 740.848 968.53 739.915 963.868 z" fill="rgb(248,226,184)" fill-opacity="0.682353" transform="translate(0,0)"></path>
<path d="M 434.941 1083.7 C 457.751 1079.51 487.901 1071.53 509.494 1068.68 C 516.791 1071.45 536.029 1079.12 543.002 1080.45 L 542.861 1478.94 C 542.455 1512.86 542.393 1546.79 542.675 1580.71 C 542.774 1611.92 537.857 1648.58 559.883 1673.03 C 570.106 1684.37 581.345 1686.45 592.341 1694.14 C 576.933 1695.21 545.715 1694.27 529.206 1694.33 L 401.244 1694.78 C 370.029 1694.79 343.652 1697.14 320.081 1673.2 C 310.186 1663.22 303.447 1650.56 300.708 1636.78 C 298.254 1623.85 299.554 1570.54 299.573 1553.49 L 299.354 1384.25 L 299.116 1234.17 C 299.12 1217.08 297.966 1174.36 299.87 1158.96 C 301.047 1149.37 304.378 1140.17 309.614 1132.06 C 328.121 1103.14 353.684 1100.35 384.39 1094.14 C 401.271 1090.81 418.122 1087.33 434.941 1083.7 z" fill="rgb(196,143,11)" transform="translate(0,0)"></path>
<path d="M 434.941 1083.7 C 457.751 1079.51 487.901 1071.53 509.494 1068.68 C 495.231 1174.08 443.781 1294.75 370.174 1372.5 C 356.244 1386.95 341.406 1400.49 325.752 1413.05 C 318.171 1419.19 307.377 1426.93 300.529 1433.3 C 300.359 1426.34 301.051 1387.05 299.354 1384.25 L 299.116 1234.17 C 299.12 1217.08 297.966 1174.36 299.87 1158.96 C 301.047 1149.37 304.378 1140.17 309.614 1132.06 C 328.121 1103.14 353.684 1100.35 384.39 1094.14 C 401.271 1090.81 418.122 1087.33 434.941 1083.7 z" fill="rgb(221,164,43)" transform="translate(0,0)"></path>
<path d="M 513.953 690.164 C 514.85 679.533 514.217 662.867 514.127 651.703 L 513.853 588.925 C 513.782 559.43 511.512 530.582 539.888 511.789 C 554.74 501.953 579.382 499.326 596.92 494.978 C 610.563 491.597 638.135 482.311 651.412 484.936 C 650.704 511.756 651.504 540.811 651.568 567.884 L 651.258 710.263 C 651.141 737.571 651.408 765.679 649.979 792.897 C 651.804 804.46 651.193 833.048 651.176 845.929 L 650.882 944.593 C 650.863 950.916 650.268 976.113 651.791 980.713 C 636.594 983.422 620.164 986.081 605.266 989.741 C 598.548 990.819 592.745 991.832 586.191 993.584 C 554.297 1002.11 534.214 1031.09 537.828 1064.06 C 538.275 1068.14 539.504 1068.91 542.765 1071.15 C 543.771 1074.17 543.226 1077.21 543.002 1080.45 C 536.029 1079.12 516.791 1071.45 509.494 1068.68 C 487.901 1071.53 457.751 1079.51 434.941 1083.7 C 435.532 1058.58 434.521 1029.28 434.392 1003.66 L 434.042 834.23 C 434.119 805.122 433.016 770.988 435.962 742.133 C 437.023 731.741 443.306 719.855 450.368 712.151 C 471.139 689.492 486.837 691.671 513.953 690.164 z" fill="rgb(233,188,104)" transform="translate(0,0)"></path>
<path d="M 605.266 989.741 C 607.384 978.626 616.473 949.076 619.787 937.263 C 626.38 913.755 630.432 892.665 635.13 869.97 C 637.603 858.022 646.461 799.876 649.979 792.897 C 651.804 804.46 651.193 833.048 651.176 845.929 L 650.882 944.593 C 650.863 950.916 650.268 976.113 651.791 980.713 C 636.594 983.422 620.164 986.081 605.266 989.741 z" fill="rgb(221,164,43)" transform="translate(0,0)"></path>
<path d="M 739.915 963.868 C 744.48 962.759 748.247 961.842 752.914 961.07 L 753.145 1073.41 C 753.18 1092.45 753.857 1117.05 752.898 1135.8 C 746.703 1165.41 737.28 1194.94 727.134 1223.43 C 688.173 1332.8 635.379 1408.66 542.861 1478.94 L 543.002 1080.45 C 543.226 1077.21 543.771 1074.17 542.765 1071.15 C 539.504 1068.91 538.275 1068.14 537.828 1064.06 C 534.214 1031.09 554.297 1002.11 586.191 993.584 C 592.745 991.832 598.548 990.819 605.266 989.741 C 620.164 986.081 636.594 983.422 651.791 980.713 C 672.474 976.344 720.487 965.57 739.915 963.868 C 740.848 968.53 744.728 966.976 748.922 966.261 C 746.556 963.447 743.553 964.03 739.915 963.868 z" fill="rgb(248,226,184)" transform="translate(0,0)"></path>
<path d="M 752.898 1135.8 C 755.538 1251.26 754.18 1370.93 753.989 1486.54 L 753.9 1584.75 C 753.896 1598.55 754.614 1626.88 752.687 1639.11 C 750.438 1652.61 744.204 1665.14 734.785 1675.07 C 727.344 1682.8 721.339 1685.79 712.068 1690.7 C 709.68 1692.58 709.656 1692.49 707.98 1694.98 L 701.809 1695.02 C 665.167 1693.92 628.481 1695.22 592.341 1694.14 C 581.345 1686.45 570.106 1684.37 559.883 1673.03 C 537.857 1648.58 542.774 1611.92 542.675 1580.71 C 542.393 1546.79 542.455 1512.86 542.861 1478.94 C 635.379 1408.66 688.173 1332.8 727.134 1223.43 C 737.28 1194.94 746.703 1165.41 752.898 1135.8 z" fill="rgb(233,188,104)" transform="translate(0,0)"></path>
<path d="M 701.809 1695.02 C 707.358 1692.14 706.426 1692.65 712.068 1690.7 C 709.68 1692.58 709.656 1692.49 707.98 1694.98 L 701.809 1695.02 z" fill="rgb(221,164,43)" transform="translate(0,0)"></path>
<path d="M 952.92 1447.1 C 972.651 1445.14 995.922 1436.11 1015.67 1441.16 C 1030.52 1454.48 1027.08 1476.21 1026.62 1494.64 C 1025.01 1508.05 1025.88 1525.88 1025.92 1539.6 L 1026.19 1619.66 C 1026.3 1656.87 1031.08 1693.73 980.748 1694.71 L 898.518 1694.64 C 884.203 1692.82 866.18 1695.08 850.982 1693.71 C 850.041 1691.51 846.528 1691.41 844.187 1690.72 C 843.082 1690.26 841.991 1689.76 840.916 1689.23 C 825.995 1681.81 821.273 1670.56 816.231 1655.95 C 813.475 1625.48 815.143 1593.71 815.165 1563.09 C 815.179 1544.04 813.305 1523.08 816.062 1504.3 C 817.192 1496.61 819.737 1489.74 824.198 1483.34 C 828.795 1476.74 835.137 1470.9 842.487 1467.52 C 859.661 1459.64 929.825 1451.06 952.92 1447.1 z" fill="rgb(248,226,184)" transform="translate(0,0)"></path>
<path d="M 816.231 1655.95 C 890.762 1645.18 965.657 1602.74 1006.47 1538.27 C 1011.63 1530.12 1024.34 1496.82 1026.62 1494.64 C 1025.01 1508.05 1025.88 1525.88 1025.92 1539.6 L 1026.19 1619.66 C 1026.3 1656.87 1031.08 1693.73 980.748 1694.71 L 898.518 1694.64 C 884.203 1692.82 866.18 1695.08 850.982 1693.71 C 850.041 1691.51 846.528 1691.41 844.187 1690.72 C 843.082 1690.26 841.991 1689.76 840.916 1689.23 C 825.995 1681.81 821.273 1670.56 816.231 1655.95 z" fill="rgb(233,188,104)" transform="translate(0,0)"></path>
<path d="M 844.187 1690.72 C 846.528 1691.41 850.041 1691.51 850.982 1693.71 C 846.572 1694 847.488 1693.28 844.187 1690.72 z" fill="rgb(221,164,43)" transform="translate(0,0)"></path>
<path d="M 1025.3 190.418 C 1031.57 189.474 1073.21 199.906 1080.47 202.691 C 1086.8 205.077 1092.77 208.333 1098.21 212.367 C 1124.34 231.84 1125.05 255.093 1125.4 284.641 L 1126.01 329.667 C 1169.37 340.45 1171.29 372.173 1170.8 408.96 C 1170.52 429.913 1170.2 454.019 1171.09 474.829 C 1188.11 475.178 1204.28 482.374 1215.94 494.791 C 1222.05 501.185 1229.4 512.883 1231.24 521.411 C 1194.98 544.489 1199.86 566.176 1199.34 605.1 C 1199.24 612.989 1199.35 621.117 1199.36 629.015 L 1199.61 745.261 C 1183.99 745.115 1169.05 744.428 1154.55 751.413 C 1133.05 761.771 1119.16 780.457 1117.87 804.489 C 1115.97 815.741 1116.9 860.119 1116.94 873.383 L 1117.17 1012.15 L 1117.34 1328.29 C 1117.54 1369.11 1116.64 1413.92 1117.89 1454.47 C 1087.48 1449.96 1057.02 1445.87 1026.5 1442.2 C 1021.89 1441.26 1020.4 1441.2 1015.67 1441.16 C 995.922 1436.11 972.651 1445.14 952.92 1447.1 C 953.399 1418.52 952.786 1387.81 952.709 1359.07 L 952.701 1194.09 L 952.988 1099.74 C 953.019 1072.45 956.849 1046.7 941.695 1022.91 C 925.894 998.098 898.484 994.057 872.302 987.345 C 868.709 986.525 864.817 986.042 861.152 985.503 L 861.098 821.242 C 861.087 803.317 860.873 784.531 861.028 766.66 C 861.325 732.408 854.901 713.316 825.043 695.194 C 826.106 656.683 824.181 615.545 825 576.846 C 825.299 562.735 823.634 537.772 825.952 524.861 C 827.654 515.855 831.346 507.343 836.76 499.947 C 850.512 481.048 866.672 476.993 888.378 473.552 C 890.834 443.269 883.081 381.444 895.701 357.285 C 903.778 341.822 917.402 333.566 933.504 328.605 C 934.117 296.831 926.634 253.56 945.174 227.653 C 963.952 201.414 995.652 195.782 1025.3 190.418 z" fill="rgb(196,143,11)" transform="translate(0,0)"></path>
<path d="M 933.504 328.605 C 934.117 296.831 926.634 253.56 945.174 227.653 C 963.952 201.414 995.652 195.782 1025.3 190.418 C 1026.4 195.021 1025.99 214.115 1026 219.693 L 1026.1 281.976 L 1026.21 440.703 C 1026.19 467.634 1026.72 498.062 1025.88 524.839 C 1007.47 666.032 985.33 802.327 911.334 926.289 C 901.242 943.194 884.937 972.519 872.302 987.345 C 868.709 986.525 864.817 986.042 861.152 985.503 L 861.098 821.242 C 861.087 803.317 860.873 784.531 861.028 766.66 C 861.325 732.408 854.901 713.316 825.043 695.194 C 826.106 656.683 824.181 615.545 825 576.846 C 825.299 562.735 823.634 537.772 825.952 524.861 C 827.654 515.855 831.346 507.343 836.76 499.947 C 850.512 481.048 866.672 476.993 888.378 473.552 C 890.834 443.269 883.081 381.444 895.701 357.285 C 903.778 341.822 917.402 333.566 933.504 328.605 z" fill="rgb(233,188,104)" transform="translate(0,0)"></path>
<path d="M 1025.88 524.839 C 1026.23 570.254 1026.29 615.671 1026.06 661.088 C 1027.09 808.85 1027.36 956.616 1026.89 1104.38 L 1026.86 1325.62 C 1026.84 1362.91 1027.81 1405.41 1026.5 1442.2 C 1021.89 1441.26 1020.4 1441.2 1015.67 1441.16 C 995.922 1436.11 972.651 1445.14 952.92 1447.1 C 953.399 1418.52 952.786 1387.81 952.709 1359.07 L 952.701 1194.09 L 952.988 1099.74 C 953.019 1072.45 956.849 1046.7 941.695 1022.91 C 925.894 998.098 898.484 994.057 872.302 987.345 C 884.937 972.519 901.242 943.194 911.334 926.289 C 985.33 802.327 1007.47 666.032 1025.88 524.839 z" fill="rgb(221,164,43)" transform="translate(0,0)"></path>
<path d="M 1570.58 997.304 L 1571.45 997.576 C 1581.74 1000.7 1597.48 1003.89 1608.29 1006.38 L 1672.89 1021.32 C 1704.59 1028.68 1736.56 1032.9 1752.59 1064.89 C 1757.57 1074.82 1760.5 1083.52 1760.74 1094.84 C 1761.44 1118.06 1761.03 1141.7 1760.99 1164.94 L 1760.98 1292.03 L 1761 1526.05 L 1761.01 1583.95 C 1761.05 1600.25 1762.4 1630.96 1757.9 1645.54 C 1752.48 1663.47 1740.03 1678.44 1723.4 1687.04 C 1716.78 1690.42 1709.62 1692.62 1702.25 1693.54 C 1692.32 1694.71 1677.07 1694.41 1666.74 1694.46 L 1612.59 1694.65 L 1547.85 1694.7 C 1539.63 1694.66 1524.73 1694.98 1516.94 1694.29 C 1480.83 1694.4 1436.58 1695.66 1401.06 1694.11 C 1399.71 1693.23 1400.26 1693.5 1398.78 1692.88 C 1369.03 1680.45 1352.48 1662.78 1351.83 1629.39 L 1352.2 1616.19 C 1360.33 1608.77 1371.98 1600.85 1381.05 1594.14 C 1393.27 1585.19 1405.06 1575.66 1416.38 1565.6 C 1488.57 1501.3 1541.4 1418.14 1568.95 1325.47 C 1570.56 1301.16 1569.57 1264.15 1569.56 1238.7 L 1569.25 1076.13 C 1569.22 1065.1 1568.08 1003.21 1570.58 997.304 z" fill="rgb(91,53,8)" transform="translate(0,0)"></path>
<path d="M 1352.2 1616.19 C 1360.33 1608.77 1371.98 1600.85 1381.05 1594.14 C 1393.27 1585.19 1405.06 1575.66 1416.38 1565.6 C 1488.57 1501.3 1541.4 1418.14 1568.95 1325.47 C 1570.55 1337.75 1570.09 1362.91 1570.25 1376.32 C 1570.66 1411.37 1570.83 1446.43 1570.78 1481.48 L 1570.5 1583.06 C 1570.24 1611.48 1573.93 1647.43 1555.64 1670.8 C 1546.71 1682.2 1531.87 1693.9 1516.94 1694.29 C 1480.83 1694.4 1436.58 1695.66 1401.06 1694.11 C 1399.71 1693.23 1400.26 1693.5 1398.78 1692.88 C 1369.03 1680.45 1352.48 1662.78 1351.83 1629.39 L 1352.2 1616.19 z" fill="rgb(146,100,3)" transform="translate(0,0)"></path>
<path d="M 1231.24 521.411 C 1238.41 520.699 1255.49 516.182 1263.29 514.612 C 1293.4 508.558 1325.09 499.219 1355.27 494.362 C 1355.48 558.463 1356.62 629.315 1353.88 692.869 C 1349.67 716.385 1348.1 736.498 1345.14 760.007 C 1341 790.468 1336.5 820.88 1331.64 851.235 C 1306.2 1004.75 1245.25 1160.71 1142.41 1278.89 C 1134.66 1287.8 1124.91 1297.65 1118 1306.94 C 1117.63 1259.44 1117.62 1211.94 1117.99 1164.45 L 1118.05 944.709 L 1117.91 850.643 C 1117.9 837.611 1118.62 817.03 1117.87 804.489 C 1119.16 780.457 1133.05 761.771 1154.55 751.413 C 1169.05 744.428 1183.99 745.115 1199.61 745.261 L 1199.36 629.015 C 1199.35 621.117 1199.24 612.989 1199.34 605.1 C 1199.86 566.176 1194.98 544.489 1231.24 521.411 z" fill="rgb(248,226,184)" transform="translate(0,0)"></path>
<path d="M 1355.87 1072.32 C 1365.02 1059.64 1368.34 1047.87 1385.41 1038.36 C 1390.73 1035.44 1404.57 1029.44 1410.01 1028.78 C 1436.95 1025.5 1553.22 992.85 1570.58 997.304 C 1568.08 1003.21 1569.22 1065.1 1569.25 1076.13 L 1569.56 1238.7 C 1569.57 1264.15 1570.56 1301.16 1568.95 1325.47 C 1541.4 1418.14 1488.57 1501.3 1416.38 1565.6 C 1405.06 1575.66 1393.27 1585.19 1381.05 1594.14 C 1371.98 1600.85 1360.33 1608.77 1352.2 1616.19 L 1351.83 1629.39 C 1349.91 1612.62 1351.26 1566.72 1351.2 1547.4 L 1351.05 1369.04 L 1351.03 1185.58 L 1350.95 1126.57 C 1350.93 1103.96 1349.87 1094.39 1355.87 1072.32 z" fill="rgb(196,143,11)" transform="translate(0,0)"></path>
<path d="M 1355.27 494.362 C 1382.25 497.715 1430.54 518.293 1457.99 527.393 C 1491.31 538.438 1487.19 587.419 1487.17 613.534 L 1487.16 701.716 C 1487.19 714.627 1486.66 733.871 1487.64 746.357 C 1514 746.702 1534.75 742.334 1554.86 762.694 C 1562.68 770.553 1567.96 780.581 1570.01 791.477 C 1571.89 801.391 1571.28 814.472 1571.25 824.708 C 1571.09 877.5 1571.3 930.288 1571.37 983.08 C 1571.37 987.19 1571.36 993.344 1570.58 997.304 C 1553.22 992.85 1436.95 1025.5 1410.01 1028.78 C 1404.57 1029.44 1390.73 1035.44 1385.41 1038.36 C 1368.34 1047.87 1365.02 1059.64 1355.87 1072.32 C 1354.65 1034.58 1355.69 995.154 1355.92 957.212 L 1355.93 804.771 C 1355.86 771.886 1356.83 725.102 1353.88 692.869 C 1356.62 629.315 1355.48 558.463 1355.27 494.362 z" fill="rgb(221,164,43)" transform="translate(0,0)"></path>
<path d="M 1015.67 1441.16 C 1020.4 1441.2 1021.89 1441.26 1026.5 1442.2 C 1057.02 1445.87 1087.48 1449.96 1117.89 1454.47 C 1129.53 1456.23 1141.19 1457.94 1152.85 1459.58 C 1183.04 1463.69 1213.49 1465.49 1220.69 1504.19 C 1223.16 1517.43 1222.02 1533.68 1222 1547.34 L 1221.86 1618.62 C 1221.75 1647.73 1220.33 1677.28 1252.8 1691.22 L 1254.26 1694.85 C 1164.06 1691.65 1071.18 1695.61 980.748 1694.71 C 1031.08 1693.73 1026.3 1656.87 1026.19 1619.66 L 1025.92 1539.6 C 1025.88 1525.88 1025.01 1508.05 1026.62 1494.64 C 1027.08 1476.21 1030.52 1454.48 1015.67 1441.16 z" fill="rgb(91,53,8)" transform="translate(0,0)"></path>
<path d="M 1252.8 1691.22 C 1256.64 1692.21 1261.57 1693.06 1265 1694.83 C 1261.26 1694.93 1258 1694.92 1254.26 1694.85 L 1252.8 1691.22 z" fill="rgb(116,70,15)" transform="translate(0,0)"></path>
<metadata><recraft-signature>{"signed_by": "recraft", "signature_b64": "JgiMwO3+MEmzcWHUKLJJQGpkQqRV2JSpHtbn5uSBZ1RDfZyMoYdoHgNw8E7UKTXr0c+CaQ1Zq2TG79w+JNu+Bg==", "signing_algo": "Ed25519", "generation_timestamp": 1781914956, "identifier": "fc04ed51-7a24-4add-b534-3792295a3458"}</recraft-signature></metadata></svg>