<svg xmlns="http://www.w3.org/2000/svg" height="1024" preserveAspectRatio="none" style="display: block;" version="1.1" viewBox="0 0 2048 2048" width="1024">
<path d="M 775.964 1517.02 C 760.993 1511.7 744.357 1504.03 730.423 1496.51 C 578.981 1416.22 465.811 1278.85 415.989 1114.84 C 353.563 904.795 409.697 678.202 557.861 518.094 C 635.902 433.763 732.81 370.089 843.358 337.661 C 1005.93 289.865 1180.82 308.514 1329.65 389.517 C 1345.56 398.22 1398.66 426.958 1403.42 444.971 C 1405.76 453.831 1401.8 461.343 1397.46 468.695 C 1403.49 476.296 1420.82 492.827 1429.37 498.211 C 1459.02 469.941 1472.81 506.127 1494.9 524.553 C 1504.66 532.694 1501.01 549.643 1491.68 558.14 C 1497.22 566.08 1505.67 576.16 1512.45 583.204 C 1514.65 581.724 1516.88 580.192 1519.28 579.047 C 1524.91 576.353 1530.87 575.889 1536.72 578.133 C 1556.46 585.708 1595.13 664.525 1604.84 686.373 C 1673.25 836.709 1678.33 1008.24 1618.94 1162.36 C 1557 1320.61 1434.81 1447.84 1279.18 1516.11 C 1284.99 1551.68 1302.73 1596.28 1339.66 1613.31 C 1347.05 1615.84 1355.6 1616.67 1362.94 1619.01 C 1391.76 1628.2 1416.13 1656.05 1420.34 1686.48 C 1423.64 1708.93 1417.59 1731.76 1403.6 1749.64 C 1378.13 1782.77 1350.14 1783.52 1312.04 1783.71 L 1259.21 1783.92 L 1058.24 1783.12 L 822.239 1783.86 L 750.715 1784.01 C 735.945 1784.03 721.081 1784.29 706.341 1783.19 C 667.312 1780.29 634.376 1747.48 629.907 1708.68 C 627.598 1686.73 633.885 1664.74 647.448 1647.33 C 666.512 1623.3 688.412 1616.42 717.587 1613.19 C 751.148 1588.8 769.294 1557.51 775.964 1517.02 z M 779.151 1613.04 C 792.315 1614.39 810.063 1614.06 823.646 1614.09 C 840.855 1586.81 842.379 1575.09 852.617 1547.13 L 853.306 1545.29 C 844.499 1543.55 830.735 1537.88 821.435 1535.06 L 820.289 1538.57 C 808.783 1573.65 803.491 1585.63 779.151 1613.04 z" fill="rgb(204,133,36)" transform="translate(0,0)"></path>
<path d="M 775.964 1517.02 C 760.993 1511.7 744.357 1504.03 730.423 1496.51 C 578.981 1416.22 465.811 1278.85 415.989 1114.84 C 353.563 904.795 409.697 678.202 557.861 518.094 C 635.902 433.763 732.81 370.089 843.358 337.661 C 1005.93 289.865 1180.82 308.514 1329.65 389.517 C 1345.56 398.22 1398.66 426.958 1403.42 444.971 C 1405.76 453.831 1401.8 461.343 1397.46 468.695 C 1392.17 472.086 1382.56 477.702 1376.05 473.977 C 1359.89 464.736 1345.39 453.1 1329.46 443.089 C 1235.82 384.213 1122.93 354.626 1012.5 357.541 C 1005.62 357.736 977.931 358.305 972.206 359.611 L 973.52 360.058 C 973.926 360.209 974.333 360.36 974.74 360.511 C 968.336 361.889 963.492 362.98 956.695 363.437 C 938.123 366.117 912.768 373.5 894.813 378.955 C 769.82 417.629 660.091 494.503 581.053 598.771 C 564.425 621.053 543.295 653.185 531.34 678.328 C 481.312 783.548 454.899 921.43 471.977 1036.71 C 488.978 1153.97 540.882 1263.39 620.933 1350.74 C 632.262 1363.3 675.409 1408.14 689.403 1414.35 C 689.731 1415.38 690.083 1416.58 690.45 1417.57 C 691.866 1419.4 693.821 1420.27 695.753 1421.52 C 698.493 1423.78 704.337 1427.46 707.469 1429.49 C 835.927 1512.62 992.696 1546.15 1143.01 1513.45 C 1300.82 1478.93 1438.27 1382.74 1524.76 1246.3 C 1627.75 1087.16 1643.44 886.779 1566.48 713.543 C 1557.62 693.387 1547.82 673.661 1537.1 654.431 C 1531.28 643.993 1523.17 632.909 1516.67 622.699 C 1508.1 609.233 1500.85 599.23 1511.73 584.188 L 1512.45 583.204 C 1514.65 581.724 1516.88 580.192 1519.28 579.047 C 1524.91 576.353 1530.87 575.889 1536.72 578.133 C 1556.46 585.708 1595.13 664.525 1604.84 686.373 C 1673.25 836.709 1678.33 1008.24 1618.94 1162.36 C 1557 1320.61 1434.81 1447.84 1279.18 1516.11 C 1284.99 1551.68 1302.73 1596.28 1339.66 1613.31 C 1347.05 1615.84 1355.6 1616.67 1362.94 1619.01 C 1391.76 1628.2 1416.13 1656.05 1420.34 1686.48 C 1423.64 1708.93 1417.59 1731.76 1403.6 1749.64 C 1378.13 1782.77 1350.14 1783.52 1312.04 1783.71 L 1259.21 1783.92 L 1058.24 1783.12 L 822.239 1783.86 L 750.715 1784.01 C 735.945 1784.03 721.081 1784.29 706.341 1783.19 C 667.312 1780.29 634.376 1747.48 629.907 1708.68 C 627.598 1686.73 633.885 1664.74 647.448 1647.33 C 666.512 1623.3 688.412 1616.42 717.587 1613.19 C 751.148 1588.8 769.294 1557.51 775.964 1517.02 z M 779.151 1613.04 C 792.315 1614.39 810.063 1614.06 823.646 1614.09 C 840.855 1586.81 842.379 1575.09 852.617 1547.13 L 853.306 1545.29 C 844.499 1543.55 830.735 1537.88 821.435 1535.06 L 820.289 1538.57 C 808.783 1573.65 803.491 1585.63 779.151 1613.04 z" fill="rgb(121,72,10)" transform="translate(0,0)"></path>
<path d="M 690.45 1417.57 C 683.987 1413.52 675.976 1407.46 669.751 1402.86 C 547.999 1311.46 466.611 1176.25 442.826 1025.88 C 420.816 875.48 458.875 722.464 548.777 599.904 C 618.289 506.296 723.553 426.604 833.931 388.454 C 872.206 375.224 910.704 367.469 950.645 361.592 C 953.333 362.199 954.18 362.342 956.695 363.437 C 938.123 366.117 912.768 373.5 894.813 378.955 C 769.82 417.629 660.091 494.503 581.053 598.771 C 564.425 621.053 543.295 653.185 531.34 678.328 C 481.312 783.548 454.899 921.43 471.977 1036.71 C 488.978 1153.97 540.882 1263.39 620.933 1350.74 C 632.262 1363.3 675.409 1408.14 689.403 1414.35 C 689.731 1415.38 690.083 1416.58 690.45 1417.57 z" fill="rgb(252,198,98)" transform="translate(0,0)"></path>
<path d="M 950.645 361.592 C 956.32 360.619 966.396 360.06 972.206 359.611 L 973.52 360.058 C 973.926 360.209 974.333 360.36 974.74 360.511 C 968.336 361.889 963.492 362.98 956.695 363.437 C 954.18 362.342 953.333 362.199 950.645 361.592 z" fill="rgb(224,171,89)" transform="translate(0,0)"></path>
<path d="M 732.977 1659.18 C 773.867 1657.28 828.193 1659.13 869.999 1659.32 L 1076.2 1659.09 L 1248.65 1659.01 C 1268.69 1659.03 1288.73 1659.21 1308.77 1659.56 C 1327.5 1659.86 1348.39 1656.7 1363.03 1670.03 C 1370.56 1676.75 1375.08 1686.21 1375.58 1696.29 C 1375.99 1706.46 1372 1718.2 1364.87 1725.53 C 1352.62 1738.13 1338.57 1737.96 1322.52 1737.99 C 1193.06 1736.93 1063.6 1736.8 934.134 1737.62 L 782.449 1738.54 C 768.691 1738.62 722.057 1739.94 710.788 1738.27 C 689.979 1734.86 674.319 1719.73 674.544 1697.82 C 674.704 1687.61 679.089 1677.93 686.653 1671.08 C 700.574 1658.23 715.88 1658.85 732.977 1659.18 z" fill="rgb(204,133,36)" transform="translate(0,0)"></path>
<path d="M 710.788 1738.27 C 689.979 1734.86 674.319 1719.73 674.544 1697.82 C 674.704 1687.61 679.089 1677.93 686.653 1671.08 C 700.574 1658.23 715.88 1658.85 732.977 1659.18 C 759.971 1661.31 789.663 1658.49 817.251 1660.11 C 819.458 1661.76 828.881 1661.53 832.272 1661.93 C 803.443 1663.8 765.936 1664.1 738.41 1670.52 C 707.498 1677.74 700.625 1715.86 726.548 1737.1 L 727.72 1738.05 L 710.788 1738.27 z" fill="rgb(252,198,98)" transform="translate(0,0)"></path>
<path d="M 817.251 1660.11 C 827.008 1659.25 844.823 1660.18 855.164 1660.11 C 850.835 1661.02 848.355 1661.35 843.978 1661.95 C 840.103 1661.98 836.114 1662.19 832.272 1661.93 C 828.881 1661.53 819.458 1661.76 817.251 1660.11 z" fill="rgb(253,232,171)" transform="translate(0,0)"></path>
<path d="M 855.164 1660.11 C 858.663 1659.73 870.147 1659.99 873.774 1660.44 C 867.021 1662.41 851.02 1662.36 843.978 1661.95 C 848.355 1661.35 850.835 1661.02 855.164 1660.11 z" fill="rgb(224,171,89)" transform="translate(0,0)"></path>
<path d="M 853.306 1545.29 C 874.776 1550.83 895.41 1556.26 917.31 1560.43 C 975.587 1571.52 1031.43 1570.93 1090.13 1566.21 C 1144.64 1561.82 1183.61 1551.28 1235.29 1534.08 C 1240.13 1562.3 1254.65 1592.14 1272.06 1614.74 L 975.612 1614.59 C 925.249 1614.49 873.939 1614.88 823.646 1614.09 C 840.855 1586.81 842.379 1575.09 852.617 1547.13 L 853.306 1545.29 z" fill="rgb(252,198,98)" transform="translate(0,0)"></path>
<path d="M 1429.37 498.211 C 1459.02 469.941 1472.81 506.127 1494.9 524.553 C 1504.66 532.694 1501.01 549.643 1491.68 558.14 C 1462.41 566.008 1470.45 560.528 1446.26 538.731 C 1428.51 522.731 1424.22 520.277 1429.37 498.211 z" fill="rgb(121,72,10)" transform="translate(0,0)"></path>
<path d="M 689.403 1414.35 C 692.406 1416.39 694.977 1417.89 695.753 1421.52 C 693.821 1420.27 691.866 1419.4 690.45 1417.57 C 690.083 1416.58 689.731 1415.38 689.403 1414.35 z" fill="rgb(224,171,89)" transform="translate(0,0)"></path>
<path d="M 1002.23 411.496 C 1294.41 397.512 1542.64 622.939 1556.79 915.105 C 1570.94 1207.27 1345.65 1455.63 1053.5 1469.95 C 761.104 1484.28 512.5 1258.77 498.339 966.368 C 484.177 673.967 709.825 425.491 1002.23 411.496 z" fill="rgb(121,72,10)" transform="translate(0,0)"></path>
<path d="M 994.992 456.852 C 1262.39 438.574 1493.94 640.639 1512.01 908.055 C 1530.09 1175.47 1327.86 1406.86 1060.43 1424.74 C 793.279 1442.6 562.184 1240.63 544.124 973.49 C 526.064 706.355 727.87 475.111 994.992 456.852 z" fill="rgb(252,198,98)" transform="translate(0,0)"></path>
<path d="M 999.937 488.988 C 1249.02 473.346 1463.62 662.59 1479.25 911.672 C 1494.88 1160.75 1305.63 1375.35 1056.55 1390.97 C 807.479 1406.59 592.901 1217.35 577.269 968.284 C 561.636 719.215 750.869 504.63 999.937 488.988 z" fill="rgb(121,72,10)" transform="translate(0,0)"></path>
<path d="M 1018.25 533.66 C 1242.65 528.445 1428.81 706.073 1434.11 930.463 C 1439.42 1154.85 1261.88 1341.09 1037.49 1346.49 C 812.965 1351.9 626.594 1174.22 621.281 949.698 C 615.968 725.172 793.726 538.877 1018.25 533.66 z" fill="rgb(252,198,98)" transform="translate(0,0)"></path>
<path d="M 1019.45 565.185 C 1049.45 563.596 1059.33 578.661 1070.69 603.894 C 1107.73 684.537 1110.85 776.678 1079.33 859.638 C 1095.28 872.343 1100.2 876.38 1111.02 893.336 C 1188.45 853.939 1294.68 857.392 1370.69 898.887 C 1381.15 905.161 1389.37 913.449 1391.82 925.75 C 1398.47 959.229 1378.26 974.958 1350.77 986.069 C 1328.96 994.886 1311.32 1000.56 1287.98 1004.73 C 1247.95 1012.17 1196.11 1009.79 1156.6 1000.8 C 1141.6 997.389 1124.07 990.776 1109.48 985.496 C 1088.31 1013.99 1056.85 1033.95 1020.25 1030.68 C 994.838 1028.64 971.313 1016.47 954.953 996.918 C 939.289 977.562 931.89 952.809 934.364 928.032 C 937.681 896.63 952.185 878.193 975.75 859.194 C 973.899 854.952 972.211 850.641 970.691 846.27 C 943.264 765.015 951.144 671.949 988.754 594.962 C 995.923 580.285 1003.46 570.462 1019.45 565.185 z" fill="rgb(121,72,10)" transform="translate(0,0)"></path>
<path d="M 1026.46 623.767 C 1027.27 624.575 1027.79 625.011 1028.37 626.17 C 1054.62 677.966 1062.67 741.426 1050.23 798.076 C 1048.37 806.554 1039.04 843.186 1032.88 847.132 L 1021.24 845.763 C 992.702 769.844 993.774 698.38 1026.46 623.767 z" fill="rgb(204,133,36)" transform="translate(0,0)"></path>
<path d="M 1213.61 911.404 C 1216.97 910.759 1230.96 910.521 1234.41 910.492 C 1272.68 910.175 1313.09 918.431 1346.7 937.29 C 1314.21 953.697 1289.82 959.953 1254.24 963.738 C 1210.19 966.72 1160.74 961.066 1122.12 938.575 C 1153.8 921.361 1178.06 915.237 1213.61 911.404 z" fill="rgb(204,133,36)" transform="translate(0,0)"></path>
<path d="M 1017.05 891.575 C 1033.6 887.878 1050.85 893.364 1062.22 905.938 C 1073.59 918.513 1077.32 936.231 1071.98 952.321 C 1066.65 968.412 1053.07 980.388 1036.43 983.672 C 1011.16 988.664 986.57 972.406 981.264 947.195 C 975.959 921.985 991.91 897.195 1017.05 891.575 z" fill="rgb(204,133,36)" transform="translate(0,0)"></path>
<path d="M 890.565 583.035 C 901.039 582.58 913.317 586.366 916.952 596.021 C 926.559 621.534 897.806 630.222 880.448 637.764 C 872.42 641.253 866.701 644.212 860.463 647.73 C 833.004 662.972 807.961 682.207 786.153 704.806 C 774.024 717.237 762.697 730.737 752.473 744.773 C 742.887 757.933 741.766 769.512 725.899 776.937 C 704.459 778.612 691.56 765.952 698.754 745.335 C 702.746 733.893 717.882 715.159 725.419 705.284 C 770.898 645.691 823.175 612.514 890.565 583.035 z" fill="rgb(121,72,10)" transform="translate(0,0)"></path>
<path d="M 687.408 797.203 C 696.728 797.29 704.103 799.021 709.415 807.374 C 717.185 819.591 711.596 830.285 707.445 842.37 C 704.745 850.229 702.068 859.41 700.236 867.521 L 699.299 871.551 C 696.119 884.892 692.247 888.334 679.871 892.564 C 635.381 892.07 660.848 842.13 667.653 818.401 C 671.102 806.375 674.929 800.394 687.408 797.203 z" fill="rgb(121,72,10)" transform="translate(0,0)"></path>
<metadata><recraft-signature>{"signed_by": "recraft", "signature_b64": "ptA/gc+e0GyAm5r2/McNt26kQ7owMruK+gmH9q1ajHlvqQeMvf7yAr7/VmCsJojMPqafF/Roj+cBj6K/Vd3SDA==", "signing_algo": "Ed25519", "generation_timestamp": 1781914965, "identifier": "2c160a97-c9a3-4b0a-996d-63734ee43c93"}</recraft-signature></metadata></svg>