<svg xmlns="http://www.w3.org/2000/svg" height="1024" preserveAspectRatio="none" style="display: block;" version="1.1" viewBox="0 0 2048 2048" width="1024">
<path d="M 828.511 450.911 C 858.798 389.794 899.459 343.026 966.145 320.723 C 1012.93 305.568 1063.79 309.375 1107.8 331.324 C 1152.37 353.973 1186 393.551 1201.15 441.196 C 1232.8 539.417 1192.89 641.207 1155.09 730.762 C 1135 778.358 1115.9 825.072 1092.09 871.031 C 1080.64 893.003 1069.36 915.062 1058.24 937.204 C 1053.89 945.9 1046.58 962.241 1042.1 969.907 C 1054.66 968.691 1081.35 955.344 1091.59 947.945 C 1209.97 862.475 1188.24 701.482 1257.51 585.806 C 1315.7 488.639 1408.36 453.958 1508.41 515.683 C 1552.07 542.622 1582.27 578.654 1594.63 628.985 C 1611.87 698.558 1584.18 753.594 1548.83 811.22 C 1559.09 813.847 1569.65 816.206 1579.26 820.626 C 1635.06 839.386 1687.84 885.335 1714.11 938.217 C 1736.82 983.345 1740.43 1035.71 1724.14 1083.53 C 1708.49 1129.91 1674.7 1167.96 1630.5 1188.99 C 1565.67 1220.56 1484.43 1216.3 1417.26 1193.32 C 1383.26 1181.69 1348.51 1167.04 1314.9 1154.17 C 1273.45 1138.3 1230.39 1121.18 1190.28 1102.13 C 1166.07 1090.55 1142.12 1078.43 1118.44 1065.79 C 1106.08 1059.23 1085.91 1047.75 1073.51 1042.48 C 1079.02 1055.03 1084.75 1068.1 1091.22 1080.05 C 1137.04 1164.6 1233.01 1187.68 1319.44 1207.3 C 1337.77 1211.61 1356.88 1214.21 1374.96 1219.45 C 1447.17 1240.34 1519.89 1279.18 1552.38 1350.73 C 1591.87 1437.71 1532.17 1550.01 1448.42 1585.51 C 1399.65 1606.19 1340.17 1601.65 1292.35 1580.72 C 1270.76 1571.45 1257.18 1563.43 1236.77 1552.43 C 1234.55 1561.1 1230.62 1576.8 1226.68 1584.35 C 1225.74 1587.49 1224.37 1591.11 1223.01 1594.09 C 1196.43 1652.01 1155.03 1700.53 1094.33 1724.24 C 996.984 1762.26 888.954 1715.61 851.838 1617.39 C 809.469 1505.26 860.288 1400.19 903.445 1298.04 C 918.266 1262.96 932.611 1227.42 949.181 1193.01 C 967.448 1154.71 985.504 1116.64 1002.45 1077.96 C 971.41 1082.73 930.578 1117.74 912.295 1142.47 C 825.843 1259.22 856.103 1423.49 741.031 1523.09 C 674.097 1581.03 595.924 1573.31 526.775 1524.77 C 445.602 1467.79 425.945 1361.46 472.996 1276.38 C 481.096 1261.73 489.98 1246.93 497.669 1232.24 C 490.71 1230.44 481.235 1228.28 474.818 1225.64 C 455.202 1220.79 422.316 1202.16 405.719 1189.49 C 360.574 1155 324.574 1107.39 316.609 1050.03 C 309.392 1001.37 322.12 951.846 351.911 912.691 C 376.009 881.334 408.606 859.797 446.108 847.868 C 550.848 814.551 639.547 855.345 735.024 894.436 C 761.713 905.364 788.862 914.668 815.267 926.371 C 849.905 941.723 883.416 959.893 917.111 977.196 C 925.28 981.391 968.435 1006.78 974.783 1005.93 C 968.906 979.379 942.007 941.69 922.246 923.741 C 857.826 865.23 765.791 849.873 684.447 830.749 C 549.289 798.975 424.641 688.217 513.476 543.251 C 562.9 462.599 652.173 428.669 741.34 463.095 C 766.642 472.751 787.813 483.93 812.249 495.365 C 816.476 481.252 818.86 472.835 824.619 459.201 C 825.908 455.951 826.895 453.99 828.511 450.911 z M 916.86 1413.58 L 916.129 1416.75 C 915.609 1418.68 915.074 1420.6 914.523 1422.52 C 914.076 1425.28 911.625 1436.18 912.637 1437.59 C 913.217 1437.87 916.737 1435.97 920.062 1437.18 C 920.159 1432.47 920.611 1430.38 921.322 1425.68 L 921.65 1423.85 C 922.272 1420.19 922.429 1418.68 924.847 1415.8 L 925.869 1414.53 C 926.853 1408.48 927.641 1401.01 928.731 1395.34 C 926.959 1393.08 925.76 1392.14 924.897 1389.42 C 921.127 1398.28 919.878 1406.52 916.86 1413.58 z M 1006.98 1073.12 C 1015.06 1069.27 1017.24 1068.1 1004.99 1064.57 C 994.019 1071.35 1000.07 1068.87 1006.98 1073.12 z" fill="rgb(175,98,21)" transform="translate(0,0)"></path>
<path d="M 924.897 1389.42 C 925.76 1392.14 926.959 1393.08 928.731 1395.34 C 927.641 1401.01 926.853 1408.48 925.869 1414.53 L 924.847 1415.8 C 922.429 1418.68 922.272 1420.19 921.65 1423.85 L 921.322 1425.68 C 919.716 1419.11 920.066 1419.2 916.86 1413.58 C 919.878 1406.52 921.127 1398.28 924.897 1389.42 z" fill="rgb(218,164,87)" fill-opacity="0.603922" transform="translate(0,0)"></path>
<path d="M 916.86 1413.58 C 920.066 1419.2 919.716 1419.11 921.322 1425.68 C 920.611 1430.38 920.159 1432.47 920.062 1437.18 C 916.737 1435.97 913.217 1437.87 912.637 1437.59 C 911.625 1436.18 914.076 1425.28 914.523 1422.52 C 914.699 1423.68 915.48 1432.75 918.318 1427.56 C 920.344 1423.86 917.54 1420.14 916.129 1416.75 L 916.86 1413.58 z" fill="rgb(218,164,87)" fill-opacity="0.486275" transform="translate(0,0)"></path>
<path d="M 1004.99 1064.57 C 1017.24 1068.1 1015.06 1069.27 1006.98 1073.12 C 1000.07 1068.87 994.019 1071.35 1004.99 1064.57 z" fill="rgb(221,176,106)" fill-opacity="0.964706" transform="translate(0,0)"></path>
<path d="M 916.129 1416.75 C 917.54 1420.14 920.344 1423.86 918.318 1427.56 C 915.48 1432.75 914.699 1423.68 914.523 1422.52 C 915.074 1420.6 915.609 1418.68 916.129 1416.75 z" fill="rgb(218,164,87)" fill-opacity="0.427451" transform="translate(0,0)"></path>
<path d="M 474.818 1225.64 C 470.022 1220.03 451.422 1206.66 444.321 1201 C 380.414 1150.01 344.451 1044.98 394.133 973.118 C 449.969 892.358 581.169 890.923 665.096 921.99 C 676.841 926.373 689.511 931.213 700.091 938.276 C 683.943 934.19 668.819 930.557 652.454 927.457 C 563.083 910.524 435.696 938.182 419.566 1043.99 C 414.227 1079.02 420.541 1112.66 441.943 1141.52 C 473.11 1183.55 518.23 1198.36 568.157 1205.62 C 527.244 1269.29 500.638 1337.34 535.422 1411 C 550.699 1444.12 578.74 1469.64 613.149 1481.74 C 645.149 1492.84 678.415 1489.02 708.746 1474.18 C 792.253 1433.33 801.284 1311.18 830.341 1232.14 C 855.263 1164.35 892.496 1100.2 960.663 1068.6 C 976.56 1061.23 988.18 1058.64 1004.99 1064.57 C 994.019 1071.35 1000.07 1068.87 1006.98 1073.12 C 1006.26 1073.91 1003.06 1077.56 1002.45 1077.96 C 971.41 1082.73 930.578 1117.74 912.295 1142.47 C 825.843 1259.22 856.103 1423.49 741.031 1523.09 C 674.097 1581.03 595.924 1573.31 526.775 1524.77 C 445.602 1467.79 425.945 1361.46 472.996 1276.38 C 481.096 1261.73 489.98 1246.93 497.669 1232.24 C 490.71 1230.44 481.235 1228.28 474.818 1225.64 z" fill="rgb(221,176,106)" transform="translate(0,0)"></path>
<path d="M 1042.1 969.907 C 1054.66 968.691 1081.35 955.344 1091.59 947.945 C 1209.97 862.475 1188.24 701.482 1257.51 585.806 C 1315.7 488.639 1408.36 453.958 1508.41 515.683 C 1552.07 542.622 1582.27 578.654 1594.63 628.985 C 1611.87 698.558 1584.18 753.594 1548.83 811.22 C 1559.09 813.847 1569.65 816.206 1579.26 820.626 C 1580.4 823.663 1612.91 850.233 1617.56 855.107 C 1698.47 939.993 1712.27 1083.74 1583.69 1129.92 C 1509.92 1156.41 1431.05 1147.56 1361.09 1114.89 C 1359.72 1114.24 1358.35 1113.59 1356.99 1112.92 L 1360.51 1111.64 C 1366.78 1114 1385.76 1117.83 1393.21 1119.19 C 1452.86 1129.62 1522.6 1124.29 1573.62 1089 C 1635.04 1046.51 1649.05 962.309 1606.38 901.401 C 1576.04 858.102 1527.51 845.998 1478.19 837.488 C 1500.75 807.046 1518.09 772.999 1525.58 735.884 C 1541.34 657.724 1495.02 575.262 1413.96 560.902 C 1391.24 556.877 1368.04 559.934 1346.83 569.419 C 1263.95 606.469 1251 708.93 1227.49 786.031 C 1207.16 850.199 1177.62 917.784 1120.82 957.765 C 1107.14 967.402 1076.77 984.575 1059.35 982.004 C 1053.92 981.204 1037.74 977.171 1034.78 972.784 C 1037.19 970.269 1037.95 970.856 1042.1 969.907 z" fill="rgb(221,176,106)" transform="translate(0,0)"></path>
<path d="M 832.764 450.18 C 943.164 320.73 1132.73 338.278 1144.62 527.926 C 1148.09 583.178 1137.04 634.963 1112.98 684.763 L 1111.47 682.482 C 1115.43 671.558 1118.07 655.956 1120.11 644.386 C 1129.02 593.827 1125.92 544.503 1104.01 497.495 C 1088.59 463.764 1059.46 433.613 1024.14 420.863 C 991.124 408.946 951.795 411.609 920.271 427.022 C 865.023 454.034 845.087 501.692 832.752 558.387 C 794.609 534.857 749.356 516.69 703.949 518.121 C 653.573 519.708 605.856 543.214 578.987 586.774 C 561.118 615.233 555.679 649.767 563.936 682.341 C 581.914 756.317 652.698 784.288 719.571 801.747 C 823.386 828.851 950.747 857.179 986.38 974.969 C 991.03 990.339 988.268 1003.34 979.05 1016.29 L 974.783 1005.93 C 968.906 979.379 942.007 941.69 922.246 923.741 C 857.826 865.23 765.791 849.873 684.447 830.749 C 549.289 798.975 424.641 688.217 513.476 543.251 C 562.9 462.599 652.173 428.669 741.34 463.095 C 766.642 472.751 787.813 483.93 812.249 495.365 C 816.476 481.252 818.86 472.835 824.619 459.201 C 825.908 455.951 826.895 453.99 828.511 450.911 C 829.931 450.683 831.349 450.439 832.764 450.18 z" fill="rgb(221,176,106)" transform="translate(0,0)"></path>
<path d="M 828.511 450.911 C 829.931 450.683 831.349 450.439 832.764 450.18 C 829.835 454.554 828.616 455.87 824.619 459.201 C 825.908 455.951 826.895 453.99 828.511 450.911 z" fill="rgb(218,164,87)" transform="translate(0,0)"></path>
<path d="M 1071.31 1029.53 C 1072.17 1033.63 1072.82 1038.3 1073.51 1042.48 C 1079.02 1055.03 1084.75 1068.1 1091.22 1080.05 C 1137.04 1164.6 1233.01 1187.68 1319.44 1207.3 C 1337.77 1211.61 1356.88 1214.21 1374.96 1219.45 C 1447.17 1240.34 1519.89 1279.18 1552.38 1350.73 C 1591.87 1437.71 1532.17 1550.01 1448.42 1585.51 C 1399.65 1606.19 1340.17 1601.65 1292.35 1580.72 C 1270.76 1571.45 1257.18 1563.43 1236.77 1552.43 C 1234.55 1561.1 1230.62 1576.8 1226.68 1584.35 C 1224.55 1586.01 1213.32 1599.85 1210.4 1603.14 C 1202.69 1611.66 1194.46 1619.69 1185.73 1627.16 C 1117.82 1685.72 1012.15 1707.35 947.914 1631.57 C 910.979 1588 902.202 1527.66 906.694 1472.33 L 907.474 1479.54 L 908.255 1478.46 C 908.438 1470.75 909.699 1447.85 912.692 1441.65 L 914.402 1441.47 C 917.139 1443.86 920.957 1446.29 916.726 1450.76 C 913.122 1450.15 914.853 1448.54 913.753 1453.4 C 909.027 1456.35 913.063 1459.21 911.422 1463.26 C 911.163 1463.89 911.226 1477.44 911.429 1477.78 C 912.627 1478.48 913.645 1477.04 914.673 1476.62 L 914.822 1476.7 C 914.823 1479.78 913.715 1487.91 916.195 1489.86 C 924.649 1496.53 921.638 1486.22 923.39 1483.65 L 923.485 1483.63 C 924.061 1484.38 923.882 1497.9 926.726 1498.84 C 932.282 1525.34 939.885 1545.84 954.276 1568.97 C 1007.91 1655.19 1134.95 1652.52 1187.13 1566.03 C 1203.84 1538.34 1208.16 1521.2 1214.54 1489.89 C 1226.9 1496.2 1239.87 1503.63 1252.44 1509.26 C 1289.41 1525.84 1331.31 1534.31 1371.62 1527.47 C 1409.61 1521.07 1443.46 1499.74 1465.64 1468.23 C 1483.9 1442.05 1494.4 1405.57 1487.68 1374.01 C 1465.9 1268.86 1352.34 1254.13 1265.09 1230.17 C 1179.21 1206.59 1085.75 1164.77 1061.75 1068.96 C 1058.3 1055.18 1063.4 1040.87 1071.31 1029.53 z" fill="rgb(221,176,106)" transform="translate(0,0)"></path>
<path d="M 921.322 1425.68 L 921.65 1423.85 C 922.272 1420.19 922.429 1418.68 924.847 1415.8 L 925.869 1414.53 C 925.796 1418.13 925.504 1420.97 925.168 1424.5 C 923.019 1447.14 923.212 1469.93 926.074 1492.5 C 926.358 1494.74 926.725 1496.57 926.726 1498.84 C 923.882 1497.9 924.061 1484.38 923.485 1483.63 L 923.39 1483.65 C 921.638 1486.22 924.649 1496.53 916.195 1489.86 C 913.715 1487.91 914.823 1479.78 914.822 1476.7 L 914.673 1476.62 C 913.645 1477.04 912.627 1478.48 911.429 1477.78 C 911.226 1477.44 911.163 1463.89 911.422 1463.26 C 913.063 1459.21 909.027 1456.35 913.753 1453.4 C 914.853 1448.54 913.122 1450.15 916.726 1450.76 C 920.957 1446.29 917.139 1443.86 914.402 1441.47 C 916.345 1440.62 918.221 1440.01 919.394 1438.15 L 920.062 1437.18 C 920.159 1432.47 920.611 1430.38 921.322 1425.68 z" fill="rgb(218,164,87)" transform="translate(0,0)"></path>
<path d="M 924.897 1389.42 C 925.305 1385.15 934.819 1362.76 937.176 1357.15 C 935.016 1369.91 932.359 1382.91 928.731 1395.34 C 926.959 1393.08 925.76 1392.14 924.897 1389.42 z" fill="rgb(218,164,87)" transform="translate(0,0)"></path>
<path d="M 1112.98 684.763 C 1110.93 691.116 1110.17 687.396 1111.47 682.482 L 1112.98 684.763 z" fill="rgb(218,164,87)" transform="translate(0,0)"></path>
<path d="M 1356.99 1112.92 C 1355.81 1112.58 1355.1 1112.53 1354.53 1111.37 C 1355.69 1109.84 1359.12 1111.28 1360.51 1111.64 L 1356.99 1112.92 z" fill="rgb(218,164,87)" transform="translate(0,0)"></path>
<metadata><recraft-signature>{"signed_by": "recraft", "signature_b64": "HPVyHuFvqBwxjY8oeyDzCYOv0UYo1NCunq/tmXwc4nlbhuQjXg9mbZM/ckqmZH2N2wsdYD3q5rGFsDGiJFzlDw==", "signing_algo": "Ed25519", "generation_timestamp": 1781914943, "identifier": "30d787a2-89dd-4273-8a63-cf3cebc94630"}</recraft-signature></metadata></svg>