<svg xmlns="http://www.w3.org/2000/svg" height="1024" preserveAspectRatio="none" style="display: block;" version="1.1" viewBox="0 0 2048 2048" width="1024">
<defs>
	<linearGradient gradientUnits="userSpaceOnUse" id="Gradient1" x1="625.646" x2="627.28" y1="1558.3" y2="1570.16">
		<stop class="stop0" offset="0" stop-color="rgb(233,220,192)" stop-opacity="0.537255"></stop>
		<stop class="stop1" offset="1" stop-color="rgb(230,220,192)" stop-opacity="0.584314"></stop>
	</linearGradient>
	<linearGradient gradientUnits="userSpaceOnUse" id="Gradient2" x1="751.873" x2="753.316" y1="1585.57" y2="1570.45">
		<stop class="stop0" offset="0" stop-color="rgb(229,218,190)" stop-opacity="0.752941"></stop>
		<stop class="stop1" offset="1" stop-color="rgb(230,220,192)" stop-opacity="0.784314"></stop>
	</linearGradient>
</defs>
<path d="M 960.736 658.465 C 1085.51 654.282 1365.7 665.839 1459.47 750.705 C 1488.98 777.419 1493.17 795.415 1492.8 833.609 C 1492.62 852.793 1492.18 872.023 1493.22 891.189 C 1514.06 884.185 1531.82 878.406 1554 875.916 C 1628.6 867.541 1694.58 888.799 1735.71 953.846 C 1760.6 993.282 1768.51 1041.09 1757.66 1086.44 C 1738.59 1169.75 1658.41 1253.63 1586.13 1296.19 C 1573.2 1303.79 1559.87 1310.68 1546.2 1316.85 C 1536.34 1321.28 1522.65 1326.27 1513.87 1332.05 C 1576.4 1343.05 1642.71 1360.36 1696.55 1395.42 C 1727.67 1415.69 1750.38 1450.85 1722.64 1485.35 C 1690.64 1525.15 1635.83 1544.68 1588.31 1559.31 C 1575.58 1563.22 1561.84 1564.38 1549.69 1569.76 C 1544.61 1572.33 1528.11 1587.49 1522.21 1592.3 C 1510.29 1602 1497.74 1610.89 1484.63 1618.9 C 1406.71 1665.85 1291.82 1703.62 1201.92 1716.78 C 1165.26 1723.65 1121.55 1727.4 1084.08 1729.66 C 912.474 1740.04 726.155 1720.22 569.9 1644.8 C 542.326 1631.27 516.161 1615.04 491.789 1596.35 C 482.495 1589.1 474.544 1576.42 464.034 1571.36 C 453.368 1566.23 440.325 1565.25 428.95 1561.93 C 391.643 1551.03 352.936 1537.76 320.497 1515.99 C 302.189 1503.7 281.191 1485.38 277.102 1462.52 C 274.419 1447.53 279.504 1432.85 288.362 1420.85 C 333.701 1359.41 482.499 1333.97 553.949 1323.42 C 571.722 1320.8 589.651 1319.5 607.415 1316.8 C 558.188 1246.74 524.804 1176.12 511.17 1090.84 C 501.849 1032.54 505.043 973.496 505.013 914.616 L 504.985 847.265 C 504.978 830.969 503.33 812.693 507.209 796.806 C 510.268 784.276 518.655 772.933 527.356 763.665 C 611.686 673.845 844.025 661.694 960.736 658.465 z M 1502.37 1229.97 C 1557.05 1202.35 1604.62 1164.76 1625.96 1105.27 C 1647.43 1045.41 1601.84 986.927 1539.15 990.38 C 1520.84 992.374 1501.91 999.677 1490.1 1014.52 C 1489.12 1080.28 1476.16 1145.32 1451.87 1206.45 C 1445.42 1222.85 1436.06 1239.01 1430.47 1253.59 C 1458.74 1246.75 1475.47 1242.54 1502.37 1229.97 z M 1597 939.442 C 1622.79 949.296 1633.46 955.084 1655.28 973.373 C 1665.03 984.98 1669.33 989.624 1677.46 1003.14 C 1683.88 1017.74 1686.16 1023.89 1689.73 1039.35 C 1689.98 1041.12 1689.93 1041.22 1690.48 1042.81 C 1691.27 1049.76 1691.31 1058.92 1692.17 1065.02 C 1691.91 1073.65 1691.03 1085.59 1688.72 1093.97 C 1687.52 1097.71 1686.33 1100.31 1686.41 1104.23 C 1685.36 1106.86 1684.38 1109.48 1683.32 1112.11 L 1684.75 1114.28 C 1685.83 1112.17 1686.84 1110.38 1688.06 1108.35 C 1690.2 1105.72 1692.76 1099.93 1693.21 1096.51 C 1694.04 1094.09 1695.47 1091.15 1696.64 1088.87 C 1701.75 1079.13 1707.38 1051.48 1706.96 1040.45 C 1707.21 1035.07 1707.01 1029.69 1706.38 1024.35 C 1702.27 991.445 1687.09 965.171 1660.91 945.054 C 1633.19 923.892 1598.29 914.436 1563.69 918.714 C 1560.79 919.13 1559.7 919.33 1556.91 920.106 C 1556.3 920.242 1555.92 920.495 1555.34 920.794 C 1548.44 921.205 1539.31 922.773 1533.74 927.168 C 1531.14 924.897 1521.71 928.739 1519.97 930.349 C 1515.14 931.916 1511.72 932.94 1507.16 935.081 C 1509.33 935.803 1511.5 936.508 1513.68 937.194 C 1516.74 936.279 1517.82 936.164 1521 935.749 C 1526.06 935.707 1541.57 933.445 1547.82 932.89 C 1550.14 931.228 1550.44 931.18 1553.28 930.51 L 1553.32 930.427 C 1552.77 929.865 1550.25 929.929 1549.23 929.647 L 1547.53 929.164 L 1549.68 928.937 C 1554.97 928.839 1558.14 928.414 1563.38 927.925 C 1566.46 928.381 1568.3 928.165 1571.41 928.182 C 1581.28 930.839 1593.13 929.673 1597 939.442 z M 664.797 1581.5 C 696.186 1579.99 751.486 1579.86 781.424 1589.03 L 783.719 1589.34 C 795.147 1588.11 815.097 1588.59 827.127 1588.61 C 848.528 1588.69 869.929 1588.45 891.322 1587.88 C 902.653 1588.07 909.138 1588.91 920.28 1590.31 C 963.3 1591.8 1006.03 1588.69 1048.11 1590 C 1055.56 1590.22 1062.61 1589.74 1069.81 1589.88 L 1069.9 1588.04 C 1064.14 1587.79 1059.71 1586.97 1053.82 1587.01 C 1041.83 1586.93 1030.11 1585.82 1018.12 1585.85 C 1013.27 1584.63 992.311 1584.16 986.181 1583.74 C 957.256 1581.74 928.239 1579.99 899.266 1578.9 C 891.589 1577.63 884.572 1578.01 877.112 1576.99 C 871.73 1575.62 837.236 1573.72 829.685 1573.22 C 806.376 1571.46 778.824 1569.12 755.674 1567.95 C 721.01 1565.17 686.39 1561.86 651.829 1558 C 648.305 1557.84 644.837 1557.22 641.336 1556.8 C 637.748 1556.15 628.927 1555.09 625.341 1554.92 C 620.066 1554 611.812 1553.14 606.447 1552.9 L 605.492 1552.9 C 601.26 1552.49 596.891 1551.52 592.95 1551.23 C 590.324 1550.86 587.725 1550.29 585.073 1550.19 C 581.175 1549.16 578.849 1548.87 574.859 1548.25 C 574.38 1548.17 573.902 1548.09 573.423 1548.01 L 561.836 1546.39 C 556.363 1544.69 548.912 1545.32 544.422 1543.02 C 542.164 1542.21 539.846 1541.59 537.49 1541.15 C 533.722 1540.47 529.199 1539.12 525.506 1539.02 C 523.312 1538.4 520.678 1537.62 518.483 1537.14 L 513.985 1536.16 L 504.982 1534.16 L 500.983 1533.25 L 496.984 1532.31 C 485.681 1529.68 475.089 1526.46 463.94 1523.46 C 453.533 1519.65 442.682 1516.21 431.978 1512.27 C 431.316 1511.92 430.653 1511.58 429.99 1511.24 C 424.32 1508.82 418.614 1506.49 412.876 1504.24 L 413.139 1506.06 C 414.205 1514.25 421.015 1509.7 425.639 1515.61 C 426.662 1516.92 429.772 1518.24 431.234 1518.93 C 440.825 1521.07 444.182 1525.19 453.75 1528.69 C 461.525 1531.01 465.676 1531.39 473.51 1535.95 C 475.225 1536.95 484.559 1536.93 486.993 1538.35 C 494.804 1544.65 490.183 1543.86 501.27 1546.88 L 503.949 1546.96 C 508.701 1548.13 525.611 1552.73 529.157 1552.83 C 535.822 1554.32 543.419 1556.81 548.436 1561.61 L 549.209 1562.33 C 552.269 1563.09 555.751 1564 558.84 1564.46 C 563.638 1565.11 568.109 1566.43 572.732 1567.07 C 575.127 1567.45 577.509 1567.9 579.875 1568.43 C 583.109 1569.11 586.165 1569.47 589.427 1569.99 C 595.513 1571.51 606.277 1573.47 612.604 1573.92 C 629.118 1577.76 647.936 1579.28 664.797 1581.5 z M 1076.19 1513.84 C 1081.51 1515.87 1093.32 1514.89 1099.74 1515.19 C 1105.7 1514.84 1114.04 1514.01 1119.8 1514.09 C 1122.12 1513.72 1123.3 1513.52 1125.68 1513.43 C 1132.29 1510.58 1132.9 1509.63 1138.38 1504.55 C 1134.89 1503 1131.15 1501.23 1127.67 1499.77 L 1112.02 1503.26 C 1102.53 1505.29 1093 1507.1 1083.49 1509.04 C 1079.23 1509.92 1077.06 1509.78 1076.19 1513.84 z M 1358.62 1356.01 C 1367.82 1363.12 1375.02 1350.48 1362.06 1354.17 L 1360.23 1354.57 C 1359.69 1355.05 1359.15 1355.53 1358.62 1356.01 z M 1414.57 816.916 C 1417.76 817.049 1419.58 815.676 1422.37 814.043 C 1421.56 802.372 1418.13 797.82 1409.46 790.112 C 1402.43 790.888 1405.47 794.285 1400.49 799.727 L 1401.23 803.748 C 1403.51 805.242 1405.09 806.852 1407.21 808.279 C 1409.82 811.181 1412.16 813.832 1414.57 816.916 z M 881.821 1510.66 C 885.521 1511.1 889.118 1511.76 892.843 1512.23 C 900.415 1512.44 907.649 1513.16 914.932 1510.81 L 916.716 1510.27 C 915.564 1509.85 914.702 1509.52 913.506 1509.23 L 909.458 1508.26 C 902.727 1506.6 894.385 1504.29 887.518 1504.44 C 887.132 1504.45 883.553 1509.37 881.821 1510.66 z" fill="rgb(214,150,50)" transform="translate(0,0)"></path>
<path d="M 1414.72 888.768 C 1415.5 893.6 1413.14 934.91 1412.97 943.076 C 1412.06 985.047 1413.82 1022.54 1409.41 1064.55 C 1397.53 1177.78 1344.98 1276.01 1255.3 1347.04 C 1170.69 1414.48 1062.54 1445.11 955.128 1432.05 C 837.896 1418.25 733.865 1353.25 661.364 1261.41 C 619.814 1208.4 590.008 1137.37 579.472 1070.83 C 570.545 1014.45 573.219 947.15 576.998 890.417 C 581.949 897.137 587.125 902.535 593.739 907.65 C 611.478 921.368 633.147 929.898 654.069 937.529 C 798.384 990.167 1047.32 987.541 1200.18 967.868 C 1256.63 960.603 1350.57 943.243 1396.58 907.829 C 1403.83 902.25 1409.15 895.996 1414.72 888.768 z" fill="rgb(32,24,15)" transform="translate(0,0)"></path>
<path d="M 618.639 961.138 C 623.516 962.57 628.809 964.758 633.645 966.542 C 655.665 974.666 678.159 980.177 701.251 984.458 C 700.574 1004.15 699.323 1023.59 699.115 1043.14 C 697.638 1181.83 775.343 1325.49 911.942 1371.17 C 926.977 1376.2 941.076 1379.8 956.781 1383.3 C 959.782 1383.44 962.61 1383.97 965.636 1384.3 C 965.384 1386.88 960.213 1386.14 957.735 1386.38 C 953.111 1385.7 949.915 1386 944.779 1385.08 C 944.005 1385.07 943.231 1385.06 942.457 1385.05 C 852.676 1377.98 766.084 1329.97 708.55 1261.94 C 635.927 1176.07 609.884 1071.05 618.639 961.138 z" fill="rgb(231,223,200)" transform="translate(0,0)"></path>
<path d="M 956.781 1383.3 C 959.782 1383.44 962.61 1383.97 965.636 1384.3 C 965.384 1386.88 960.213 1386.14 957.735 1386.38 C 953.111 1385.7 949.915 1386 944.779 1385.08 C 949.516 1384.56 953.232 1385.22 956.781 1383.3 z" fill="rgb(233,208,166)" transform="translate(0,0)"></path>
<path d="M 965.636 1384.3 C 967.599 1384.4 973.97 1384.68 975.154 1385.73 L 975.453 1385.42 L 975.877 1385.72 C 975.797 1387.85 960.573 1386.7 958.983 1386.52 L 957.735 1386.38 C 960.213 1386.14 965.384 1386.88 965.636 1384.3 z" fill="rgb(107,97,79)" transform="translate(0,0)"></path>
<path d="M 600.804 841.562 C 597.809 839.886 596.338 838.742 593.618 836.771 C 586.117 831.334 579.822 824.729 578.504 815.253 C 577.721 809.623 580.566 801.525 584.306 797.679 C 627.696 753.066 739.435 734.926 795.817 728.512 C 914.597 715.348 1034.38 713.81 1153.46 723.92 C 1222.01 729.964 1353.98 746.017 1409.46 790.112 C 1402.43 790.888 1405.47 794.285 1400.49 799.727 L 1401.23 803.748 C 1403.51 805.242 1405.09 806.852 1407.21 808.279 C 1409.82 811.181 1412.16 813.832 1414.57 816.916 C 1417.76 817.049 1419.58 815.676 1422.37 814.043 C 1418.92 824.212 1403.14 840.566 1392.6 843.086 C 1378.22 854.395 1329.86 870.054 1310.54 875.041 C 1192.74 904.797 1064.14 907.003 943 905.684 C 836.903 904.528 694.136 895.996 600.804 841.562 z" fill="rgb(32,24,15)" transform="translate(0,0)"></path>
<path d="M 600.804 841.562 C 597.809 839.886 596.338 838.742 593.618 836.771 C 586.117 831.334 579.822 824.729 578.504 815.253 C 577.721 809.623 580.566 801.525 584.306 797.679 C 627.696 753.066 739.435 734.926 795.817 728.512 C 914.597 715.348 1034.38 713.81 1153.46 723.92 C 1222.01 729.964 1353.98 746.017 1409.46 790.112 C 1402.43 790.888 1405.47 794.285 1400.49 799.727 L 1401.23 803.748 C 1403.51 805.242 1405.09 806.852 1407.21 808.279 C 1409.82 811.181 1412.16 813.832 1414.57 816.916 C 1417.76 817.049 1419.58 815.676 1422.37 814.043 C 1418.92 824.212 1403.14 840.566 1392.6 843.086 C 1358.24 815.569 1332.26 805.816 1288.82 796.505 C 1214.99 779.586 1133.05 774.459 1057.61 772.101 C 941.451 768.47 822.096 770.947 708.033 794.73 C 669.739 802.715 628.705 812.672 600.804 841.562 z" fill="rgb(231,223,200)" transform="translate(0,0)"></path>
<path d="M 1288.82 796.505 C 1313.35 783.818 1338.88 784.667 1365.28 788.393 C 1366.92 789.225 1376.82 792.071 1379.98 793.178 C 1388.82 796.27 1393.46 799.865 1401.23 803.748 C 1403.51 805.242 1405.09 806.852 1407.21 808.279 C 1409.82 811.181 1412.16 813.832 1414.57 816.916 C 1417.76 817.049 1419.58 815.676 1422.37 814.043 C 1418.92 824.212 1403.14 840.566 1392.6 843.086 C 1358.24 815.569 1332.26 805.816 1288.82 796.505 z" fill="rgb(234,174,78)" transform="translate(0,0)"></path>
<path d="M 1365.28 788.393 C 1368.8 783.893 1374.66 793.833 1372.4 785.64 L 1372.76 785.201 C 1379.32 784.695 1384.99 789.318 1389.75 793.237 C 1393.52 796.341 1395.08 794.814 1400.49 799.727 L 1401.23 803.748 C 1393.46 799.865 1388.82 796.27 1379.98 793.178 C 1376.82 792.071 1366.92 789.225 1365.28 788.393 z" fill="rgb(231,219,191)" transform="translate(0,0)"></path>
<path d="M 662.934 843.648 C 709.093 809.72 827.184 799.541 883.957 797.406 C 932.911 795.565 990.37 797.566 1039.87 798.061 L 1039.09 800.06 C 961.106 798.415 791.881 814.802 729.75 862.647 C 707.488 858.1 684.434 850.824 662.934 843.648 z" fill="rgb(231,223,200)" transform="translate(0,0)"></path>
<path d="M 1039.87 798.061 C 1041.84 797.883 1056.14 797.936 1057.01 798.745 C 1056.1 800.046 1041.34 800.118 1039.09 800.06 L 1039.87 798.061 z" fill="rgb(107,97,79)" transform="translate(0,0)"></path>
<path d="M 1360.23 1354.57 C 1363.39 1351.17 1364.33 1349.74 1369.16 1349.45 C 1383.36 1348.6 1397.84 1351.69 1412.17 1351.33 C 1429.52 1350.89 1447.56 1346.19 1464.68 1347.49 C 1503.77 1350.46 1602.9 1373.34 1630.15 1399.52 C 1635.08 1404.26 1639.4 1410.51 1639.29 1417.62 C 1639.18 1424.76 1634.63 1430.6 1629.52 1435.14 C 1565.11 1492.27 1297.99 1508.76 1207.26 1512.58 C 1182.2 1513.63 1146.12 1517.03 1121.91 1514.46 C 1120.89 1514.35 1120.68 1514.29 1119.8 1514.09 C 1122.12 1513.72 1123.3 1513.52 1125.68 1513.43 C 1131.85 1513.72 1141.95 1511.66 1143.89 1504.97 C 1142.39 1501.95 1141.93 1501.96 1139.2 1500.05 C 1135.31 1499.8 1133.31 1499.44 1129.46 1498.7 C 1150.74 1491.23 1174.24 1483.61 1194.68 1474.22 C 1256.91 1445.64 1311.61 1405.63 1358.62 1356.01 C 1367.82 1363.12 1375.02 1350.48 1362.06 1354.17 L 1360.23 1354.57 z" fill="rgb(231,223,200)" transform="translate(0,0)"></path>
<path d="M 892.025 1514.18 C 883.806 1514.72 869.922 1514.1 861.398 1513.91 C 838.99 1513.37 816.592 1512.45 794.215 1511.15 C 683.596 1505.22 550.461 1496.47 445.357 1463.57 C 427.924 1458.11 408.551 1451.82 393.286 1441.73 C 385.713 1436.73 377.29 1429.63 375.643 1420.23 C 374.593 1414.24 376.823 1408.69 380.503 1404.04 C 412.045 1364.19 571.842 1343.3 624.175 1337.25 C 678.723 1399.82 746.883 1449.07 823.422 1481.21 C 831.979 1484.82 882.065 1501.66 883.879 1503.24 L 883.119 1505.78 C 881.64 1506.65 880.939 1507.2 879.559 1508.22 L 879.686 1510.15 L 878.689 1509.31 C 880.508 1510.44 879.844 1510.31 881.821 1510.66 C 885.521 1511.1 889.118 1511.76 892.843 1512.23 L 892.025 1514.18 z" fill="rgb(231,223,200)" transform="translate(0,0)"></path>
<path d="M 1563.69 918.714 C 1598.29 914.436 1633.19 923.892 1660.91 945.054 C 1687.09 965.171 1702.27 991.445 1706.38 1024.35 C 1707.01 1029.69 1707.21 1035.07 1706.96 1040.45 C 1705.89 1038.86 1699.02 1029.4 1697.07 1030.72 C 1697.07 1030.69 1696.97 1032.06 1697 1032.03 C 1694.08 1034.9 1694.74 1028.86 1692.94 1030.56 C 1691 1032.41 1690.33 1036.87 1689.73 1039.35 C 1686.16 1023.89 1683.88 1017.74 1677.46 1003.14 C 1680.3 999.871 1681.3 998.086 1680.88 993.4 C 1680.68 991.107 1679.53 989.001 1677.72 987.586 C 1673.24 984.114 1668.47 972.6 1663.51 973.793 L 1663.48 973.973 C 1664.07 975.635 1672.66 981.609 1669.29 985.052 C 1669.08 985.262 1668.78 985.345 1668.49 985.271 C 1666.13 984.639 1659.86 970.977 1655.28 973.373 C 1633.46 955.084 1622.79 949.296 1597 939.442 C 1593.13 929.673 1581.28 930.839 1571.41 928.182 C 1578.71 928.068 1583.43 929.43 1589.89 927.533 C 1593.13 925.646 1591.23 922.657 1589.35 919.598 C 1587.54 918.642 1567.33 918.815 1563.69 918.714 z" fill="rgb(231,219,191)" fill-opacity="0.905882" transform="translate(0,0)"></path>
<path d="M 651.829 1558 C 686.39 1561.86 721.01 1565.17 755.674 1567.95 C 757.253 1573 766.34 1577.87 770.037 1577.24 C 779.94 1575.55 783.721 1575.94 793.48 1576.39 C 793.503 1576.66 793.526 1576.92 793.55 1577.19 C 794.1 1577.52 807.969 1578.69 808.998 1578.61 C 811.696 1578.41 816.297 1581.41 815.933 1577.42 C 818.328 1577.49 834.509 1578.2 835.239 1576.62 C 832.418 1575.56 833.243 1576.09 830.369 1573.78 L 829.685 1573.22 C 837.236 1573.72 871.73 1575.62 877.112 1576.99 C 872.084 1577.09 867.147 1577.06 862.097 1577.18 C 860.728 1579.35 856.38 1583.91 859.961 1585.23 C 865.443 1587.24 872.058 1587.31 877.851 1586.95 C 881.79 1587.12 887.604 1587.19 891.322 1587.88 C 869.929 1588.45 848.528 1588.69 827.127 1588.61 C 815.097 1588.59 795.147 1588.11 783.719 1589.34 L 781.424 1589.03 C 751.486 1579.86 696.186 1579.99 664.797 1581.5 C 647.936 1579.28 629.118 1577.76 612.604 1573.92 C 613.506 1573.85 615.939 1573.59 616.799 1573.65 C 619.77 1574.04 622.536 1573.08 625.5 1573.05 C 629.639 1573.01 633.872 1571.99 638.002 1572.82 C 640.619 1573.35 643.354 1573.67 645.982 1573.09 C 647.126 1572.84 648.319 1572.47 649.483 1572.27 C 651.062 1571.7 652.898 1571.58 654.42 1571.17 C 656.143 1570.76 656.314 1567.93 656.897 1567.1 C 658.921 1564.22 657.003 1564.81 655.748 1562.57 C 655.218 1561.62 657.616 1559.7 654.687 1559.03 C 653.726 1558.81 652.857 1558.37 651.829 1558 z" fill="url(#Gradient2)" transform="translate(0,0)"></path>
<path d="M 899.266 1578.9 C 928.239 1579.99 957.256 1581.74 986.181 1583.74 C 992.311 1584.16 1013.27 1584.63 1018.12 1585.85 C 1016.04 1586.03 1010.24 1585.68 1009.08 1586.23 C 1009.24 1586.82 1009.81 1587.04 1010.42 1587.49 C 1009.35 1587.89 1004.82 1586.77 1003.16 1588.22 C 1003.11 1588.98 1003.66 1589.07 1004.43 1589.09 C 1018.93 1589.47 1033.94 1588.23 1048.39 1589.14 L 1048.11 1590 C 1006.03 1588.69 963.3 1591.8 920.28 1590.31 C 909.138 1588.91 902.653 1588.07 891.322 1587.88 C 887.604 1587.19 881.79 1587.12 877.851 1586.95 C 877.223 1586.46 876.252 1585.97 875.972 1585.38 C 877.346 1583.71 881.347 1583.33 882.69 1581.87 C 886.249 1578.01 894.393 1579.2 899.266 1578.9 z M 971.507 1584.49 C 969.914 1583.94 970.053 1583.95 968.45 1584.52 C 970.084 1584.75 969.924 1584.76 971.507 1584.49 z" fill="rgb(231,219,191)" fill-opacity="0.313725" transform="translate(0,0)"></path>
<path d="M 410.588 1502.94 L 412.876 1504.24 L 413.139 1506.06 C 414.205 1514.25 421.015 1509.7 425.639 1515.61 C 426.662 1516.92 429.772 1518.24 431.234 1518.93 C 440.825 1521.07 444.182 1525.19 453.75 1528.69 C 461.525 1531.01 465.676 1531.39 473.51 1535.95 C 475.225 1536.95 484.559 1536.93 486.993 1538.35 C 494.804 1544.65 490.183 1543.86 501.27 1546.88 L 503.949 1546.96 C 508.701 1548.13 525.611 1552.73 529.157 1552.83 C 535.822 1554.32 543.419 1556.81 548.436 1561.61 L 549.209 1562.33 C 535.278 1560.52 507.51 1552.1 493.955 1547.56 C 473.809 1542.69 418.855 1519.9 402.855 1507.57 C 411.308 1509.39 410.407 1512.22 410.588 1502.94 z" fill="rgb(231,219,191)" transform="translate(0,0)"></path>
<path d="M 605.492 1552.9 L 606.447 1552.9 C 609.415 1561.21 615.977 1559.65 623.997 1562.72 C 626.579 1563.85 640.01 1563.79 641.502 1563.17 C 645.585 1560.89 657.538 1566.37 649.023 1569.31 C 641.207 1572.01 618.927 1570.83 610.497 1569.26 C 597.708 1566.88 599.627 1570.94 589.427 1569.99 C 586.165 1569.47 583.109 1569.11 579.875 1568.43 C 587.851 1566.58 589.708 1565.6 598.645 1564.51 C 608.898 1563.25 598.839 1559.77 605.492 1552.9 z" fill="url(#Gradient1)" transform="translate(0,0)"></path>
<path d="M 606.447 1552.9 C 611.812 1553.14 620.066 1554 625.341 1554.92 C 624.575 1557.13 624.209 1556.76 623.516 1558.45 C 627.687 1560.57 629.5 1561.35 632.701 1557.51 C 633.076 1557.06 640.121 1556.88 641.336 1556.8 C 644.837 1557.22 648.305 1557.84 651.829 1558 C 652.857 1558.37 653.726 1558.81 654.687 1559.03 C 657.616 1559.7 655.218 1561.62 655.748 1562.57 C 657.003 1564.81 658.921 1564.22 656.897 1567.1 C 656.314 1567.93 656.143 1570.76 654.42 1571.17 C 652.898 1571.58 651.062 1571.7 649.483 1572.27 C 648.319 1572.47 647.126 1572.84 645.982 1573.09 C 643.354 1573.67 640.619 1573.35 638.002 1572.82 C 633.872 1571.99 629.639 1573.01 625.5 1573.05 C 622.536 1573.08 619.77 1574.04 616.799 1573.65 C 615.939 1573.59 613.506 1573.85 612.604 1573.92 C 606.277 1573.47 595.513 1571.51 589.427 1569.99 C 599.627 1570.94 597.708 1566.88 610.497 1569.26 C 618.927 1570.83 641.207 1572.01 649.023 1569.31 C 657.538 1566.37 645.585 1560.89 641.502 1563.17 C 640.01 1563.79 626.579 1563.85 623.997 1562.72 C 615.977 1559.65 609.415 1561.21 606.447 1552.9 z" fill="rgb(231,219,191)" fill-opacity="0.662745" transform="translate(0,0)"></path>
<path d="M 463.94 1523.46 C 475.089 1526.46 485.681 1529.68 496.984 1532.31 L 500.983 1533.25 L 504.982 1534.16 L 513.985 1536.16 L 518.483 1537.14 C 520.678 1537.62 523.312 1538.4 525.506 1539.02 C 511.509 1540.34 514.739 1536.66 503.497 1536.42 C 491.822 1536.18 496.08 1542.38 503.949 1546.96 L 501.27 1546.88 C 490.183 1543.86 494.804 1544.65 486.993 1538.35 C 484.559 1536.93 475.225 1536.95 473.51 1535.95 C 465.676 1531.39 461.525 1531.01 453.75 1528.69 C 456.987 1528.09 462.941 1527.35 463.94 1523.46 z" fill="rgb(231,219,191)" fill-opacity="0.866667" transform="translate(0,0)"></path>
<path d="M 544.422 1543.02 C 548.912 1545.32 556.363 1544.69 561.836 1546.39 C 559.857 1547.21 555.054 1553.37 555.612 1554.47 C 558.219 1559.6 557.953 1559.29 558.84 1564.46 C 555.751 1564 552.269 1563.09 549.209 1562.33 L 548.436 1561.61 C 543.419 1556.81 535.822 1554.32 529.157 1552.83 C 525.517 1541.65 536.582 1543.14 544.422 1543.02 z" fill="rgb(231,219,191)" fill-opacity="0.427451" transform="translate(0,0)"></path>
<path d="M 755.674 1567.95 C 778.824 1569.12 806.376 1571.46 829.685 1573.22 L 830.369 1573.78 C 833.243 1576.09 832.418 1575.56 835.239 1576.62 C 834.509 1578.2 818.328 1577.49 815.933 1577.42 C 807.497 1575.11 801.999 1576.03 793.48 1576.39 C 783.721 1575.94 779.94 1575.55 770.037 1577.24 C 766.34 1577.87 757.253 1573 755.674 1567.95 z" fill="rgb(231,219,191)" fill-opacity="0.792157" transform="translate(0,0)"></path>
<path d="M 561.836 1546.39 L 573.423 1548.01 C 573.902 1548.09 574.38 1548.17 574.859 1548.25 L 573.488 1548.45 C 572.032 1548.65 570.722 1548.61 570.799 1550.51 C 570.942 1554.02 563.847 1553.82 568.263 1558.77 C 570.274 1561.02 573.248 1561.86 575.909 1560.29 C 583.542 1555.8 578.587 1556.21 577.173 1552.63 C 577.458 1550.72 582.759 1550.76 585.073 1550.19 C 587.725 1550.29 590.324 1550.86 592.95 1551.23 C 592.025 1554.62 588.788 1552.55 591.096 1557.47 C 592.738 1560.97 575.248 1566.35 572.732 1567.07 C 568.109 1566.43 563.638 1565.11 558.84 1564.46 C 557.953 1559.29 558.219 1559.6 555.612 1554.47 C 555.054 1553.37 559.857 1547.21 561.836 1546.39 z" fill="rgb(231,219,191)" fill-opacity="0.160784" transform="translate(0,0)"></path>
<path d="M 503.949 1546.96 C 496.08 1542.38 491.822 1536.18 503.497 1536.42 C 514.739 1536.66 511.509 1540.34 525.506 1539.02 C 529.199 1539.12 533.722 1540.47 537.49 1541.15 C 539.846 1541.59 542.164 1542.21 544.422 1543.02 C 536.582 1543.14 525.517 1541.65 529.157 1552.83 C 525.611 1552.73 508.701 1548.13 503.949 1546.96 z" fill="rgb(231,219,191)" fill-opacity="0.827451" transform="translate(0,0)"></path>
<path d="M 664.797 1581.5 C 696.186 1579.99 751.486 1579.86 781.424 1589.03 C 747.756 1589.15 698.484 1584.67 664.797 1581.5 z" fill="rgb(231,219,191)" transform="translate(0,0)"></path>
<path d="M 1689.73 1039.35 C 1690.33 1036.87 1691 1032.41 1692.94 1030.56 C 1694.74 1028.86 1694.08 1034.9 1697 1032.03 C 1696.97 1032.06 1697.07 1030.69 1697.07 1030.72 C 1699.02 1029.4 1705.89 1038.86 1706.96 1040.45 C 1707.38 1051.48 1701.75 1079.13 1696.64 1088.87 C 1695.57 1081.69 1695.55 1082.35 1697.23 1074.93 C 1697.9 1071.52 1698.63 1050.71 1698.71 1050.5 C 1703.98 1037.17 1692.52 1035.64 1690.48 1042.81 C 1689.93 1041.22 1689.98 1041.12 1689.73 1039.35 z" fill="rgb(231,219,191)" fill-opacity="0.835294" transform="translate(0,0)"></path>
<path d="M 891.322 1587.88 C 902.653 1588.07 909.138 1588.91 920.28 1590.31 C 907.984 1593.81 801.297 1590.43 783.719 1589.34 C 795.147 1588.11 815.097 1588.59 827.127 1588.61 C 848.528 1588.69 869.929 1588.45 891.322 1587.88 z" fill="rgb(231,219,191)" transform="translate(0,0)"></path>
<path d="M 402.855 1507.57 C 391.503 1503.85 356.605 1474.7 349.454 1464.35 C 354.84 1468.56 360.457 1473.01 365.907 1477.11 C 379.753 1487.42 394.746 1496.09 410.588 1502.94 C 410.407 1512.22 411.308 1509.39 402.855 1507.57 z" fill="rgb(238,222,189)" transform="translate(0,0)"></path>
<path d="M 1400.49 799.727 C 1405.47 794.285 1402.43 790.888 1409.46 790.112 C 1418.13 797.82 1421.56 802.372 1422.37 814.043 C 1419.58 815.676 1417.76 817.049 1414.57 816.916 L 1414.81 816.571 C 1422.19 805.965 1415.75 808.894 1409.06 808.418 L 1407.21 808.279 C 1405.09 806.852 1403.51 805.242 1401.23 803.748 L 1400.49 799.727 z" fill="rgb(238,222,189)" fill-opacity="0.615686" transform="translate(0,0)"></path>
<path d="M 877.112 1576.99 C 884.572 1578.01 891.589 1577.63 899.266 1578.9 C 894.393 1579.2 886.249 1578.01 882.69 1581.87 C 881.347 1583.33 877.346 1583.71 875.972 1585.38 C 876.252 1585.97 877.223 1586.46 877.851 1586.95 C 872.058 1587.31 865.443 1587.24 859.961 1585.23 C 856.38 1583.91 860.728 1579.35 862.097 1577.18 C 867.147 1577.06 872.084 1577.09 877.112 1576.99 z" fill="rgb(231,219,191)" fill-opacity="0.533333" transform="translate(0,0)"></path>
<path d="M 1563.38 927.925 C 1566.46 928.381 1568.3 928.165 1571.41 928.182 C 1581.28 930.839 1593.13 929.673 1597 939.442 C 1578.42 933.85 1566.95 933.007 1547.82 932.89 C 1550.14 931.228 1550.44 931.18 1553.28 930.51 L 1553.32 930.427 C 1552.77 929.865 1550.25 929.929 1549.23 929.647 L 1547.53 929.164 L 1549.68 928.937 C 1554.97 928.839 1558.14 928.414 1563.38 927.925 z" fill="rgb(231,223,200)" transform="translate(0,0)"></path>
<path d="M 431.978 1512.27 C 442.682 1516.21 453.533 1519.65 463.94 1523.46 C 462.941 1527.35 456.987 1528.09 453.75 1528.69 C 444.182 1525.19 440.825 1521.07 431.234 1518.93 C 431.433 1516.27 431.4 1514.88 431.978 1512.27 z" fill="rgb(238,222,189)" fill-opacity="0.709804" transform="translate(0,0)"></path>
<path d="M 592.95 1551.23 C 596.891 1551.52 601.26 1552.49 605.492 1552.9 C 598.839 1559.77 608.898 1563.25 598.645 1564.51 C 589.708 1565.6 587.851 1566.58 579.875 1568.43 C 577.509 1567.9 575.127 1567.45 572.732 1567.07 C 575.248 1566.35 592.738 1560.97 591.096 1557.47 C 588.788 1552.55 592.025 1554.62 592.95 1551.23 z" fill="rgb(231,219,191)" fill-opacity="0.392157" transform="translate(0,0)"></path>
<path d="M 1690.48 1042.81 C 1692.52 1035.64 1703.98 1037.17 1698.71 1050.5 C 1698.63 1050.71 1697.9 1071.52 1697.23 1074.93 L 1696.92 1073.84 C 1696.04 1070.67 1695.48 1066.19 1692.17 1065.02 C 1691.31 1058.92 1691.27 1049.76 1690.48 1042.81 z" fill="rgb(231,219,191)" fill-opacity="0.717647" transform="translate(0,0)"></path>
<path d="M 1655.28 973.373 C 1659.86 970.977 1666.13 984.639 1668.49 985.271 C 1668.78 985.345 1669.08 985.262 1669.29 985.052 C 1672.66 981.609 1664.07 975.635 1663.48 973.973 L 1663.51 973.793 C 1668.47 972.6 1673.24 984.114 1677.72 987.586 C 1679.53 989.001 1680.68 991.107 1680.88 993.4 C 1681.3 998.086 1680.3 999.871 1677.46 1003.14 C 1669.33 989.624 1665.03 984.98 1655.28 973.373 z" fill="rgb(231,219,191)" fill-opacity="0.807843" transform="translate(0,0)"></path>
<path d="M 881.821 1510.66 C 883.553 1509.37 887.132 1504.45 887.518 1504.44 C 894.385 1504.29 902.727 1506.6 909.458 1508.26 L 913.506 1509.23 C 914.702 1509.52 915.564 1509.85 916.716 1510.27 L 914.932 1510.81 C 907.649 1513.16 900.415 1512.44 892.843 1512.23 C 889.118 1511.76 885.521 1511.1 881.821 1510.66 z" fill="rgb(231,223,200)" fill-opacity="0.00784314" transform="translate(0,0)"></path>
<path d="M 1519.97 930.349 C 1521.71 928.739 1531.14 924.897 1533.74 927.168 C 1538.71 930.038 1541.23 928.81 1547.53 929.164 L 1549.23 929.647 C 1550.25 929.929 1552.77 929.865 1553.32 930.427 L 1553.28 930.51 C 1550.44 931.18 1550.14 931.228 1547.82 932.89 C 1541.57 933.445 1526.06 935.707 1521 935.749 C 1524.55 933.245 1523.42 932.165 1519.97 930.349 z" fill="rgb(231,223,200)" fill-opacity="0.956863" transform="translate(0,0)"></path>
<path d="M 1099.74 1515.19 C 1095.74 1516.23 1025.26 1516.17 1023.79 1515.17 C 1023.83 1515.05 1023.86 1514.94 1023.89 1514.82 C 1028.07 1513.2 1066.32 1512.77 1074.45 1510.68 C 1075.22 1510.48 1076.12 1513.63 1076.19 1513.84 C 1081.51 1515.87 1093.32 1514.89 1099.74 1515.19 z" fill="rgb(234,174,78)" transform="translate(0,0)"></path>
<path d="M 1560.6 919.541 C 1565.91 920.266 1572.01 923.002 1578.02 923.21 C 1582.62 923.368 1586.97 923.182 1589.89 927.533 C 1583.43 929.43 1578.71 928.068 1571.41 928.182 C 1568.3 928.165 1566.46 928.381 1563.38 927.925 C 1561.95 923.978 1561.56 923.9 1560.6 919.541 z" fill="rgb(231,223,200)" fill-opacity="0.596078" transform="translate(0,0)"></path>
<path d="M 1692.17 1065.02 C 1695.48 1066.19 1696.04 1070.67 1696.92 1073.84 L 1697.23 1074.93 C 1695.55 1082.35 1695.57 1081.69 1696.64 1088.87 C 1695.47 1091.15 1694.04 1094.09 1693.21 1096.51 L 1688.72 1093.97 C 1691.03 1085.59 1691.91 1073.65 1692.17 1065.02 z" fill="rgb(238,222,189)" fill-opacity="0.25098" transform="translate(0,0)"></path>
<path d="M 916.716 1510.27 C 923.149 1509.78 935.528 1512.79 942.854 1513.36 C 940.198 1514.99 939.548 1514.86 936.344 1515.4 C 922.896 1514.04 906.308 1515.23 892.025 1514.18 L 892.843 1512.23 C 900.415 1512.44 907.649 1513.16 914.932 1510.81 L 916.716 1510.27 z" fill="rgb(238,222,189)" transform="translate(0,0)"></path>
<path d="M 1048.39 1589.14 C 1033.94 1588.23 1018.93 1589.47 1004.43 1589.09 C 1003.66 1589.07 1003.11 1588.98 1003.16 1588.22 C 1004.82 1586.77 1009.35 1587.89 1010.42 1587.49 C 1009.81 1587.04 1009.24 1586.82 1009.08 1586.23 C 1010.24 1585.68 1016.04 1586.03 1018.12 1585.85 C 1030.11 1585.82 1041.83 1586.93 1053.82 1587.01 C 1054.8 1587.27 1060.03 1588.24 1060.42 1588.63 L 1060.06 1588.47 L 1060.23 1588.78 C 1057.79 1589.27 1051.08 1589.15 1048.39 1589.14 z" fill="rgb(238,222,189)" fill-opacity="0.0156863" transform="translate(0,0)"></path>
<path d="M 585.073 1550.19 C 582.759 1550.76 577.458 1550.72 577.173 1552.63 C 578.587 1556.21 583.542 1555.8 575.909 1560.29 C 573.248 1561.86 570.274 1561.02 568.263 1558.77 C 563.847 1553.82 570.942 1554.02 570.799 1550.51 C 570.722 1548.61 572.032 1548.65 573.488 1548.45 L 574.859 1548.25 C 578.849 1548.87 581.175 1549.16 585.073 1550.19 z" fill="rgb(231,219,191)" fill-opacity="0.0588235" transform="translate(0,0)"></path>
<path d="M 1563.69 918.714 C 1567.33 918.815 1587.54 918.642 1589.35 919.598 C 1591.23 922.657 1593.13 925.646 1589.89 927.533 C 1586.97 923.182 1582.62 923.368 1578.02 923.21 C 1572.01 923.002 1565.91 920.266 1560.6 919.541 L 1556.91 920.106 C 1559.7 919.33 1560.79 919.13 1563.69 918.714 z" fill="rgb(231,223,200)" fill-opacity="0.643137" transform="translate(0,0)"></path>
<path d="M 412.876 1504.24 C 418.614 1506.49 424.32 1508.82 429.99 1511.24 C 430.653 1511.58 431.316 1511.92 431.978 1512.27 C 431.4 1514.88 431.433 1516.27 431.234 1518.93 C 429.772 1518.24 426.662 1516.92 425.639 1515.61 C 421.015 1509.7 414.205 1514.25 413.139 1506.06 L 412.876 1504.24 z" fill="rgb(238,222,189)" fill-opacity="0.854902" transform="translate(0,0)"></path>
<path d="M 1533.74 927.168 C 1539.31 922.773 1548.44 921.205 1555.34 920.794 C 1553.06 923.466 1545.8 923.967 1554.37 927.218 L 1554.25 927.535 L 1554.29 927.513 L 1554.17 927.083 L 1553.53 927.839 C 1552.11 928.23 1551.15 928.433 1549.68 928.937 L 1547.53 929.164 C 1541.23 928.81 1538.71 930.038 1533.74 927.168 z" fill="rgb(231,223,200)" fill-opacity="0.0509804" transform="translate(0,0)"></path>
<path d="M 1481.51 950.063 C 1486.83 945.422 1500.68 936.726 1507.16 935.081 C 1509.33 935.803 1511.5 936.508 1513.68 937.194 C 1513.09 937.436 1510.15 938.667 1509.48 938.822 C 1499.26 941.146 1490.96 946.038 1481.51 950.063 z" fill="rgb(233,208,166)" transform="translate(0,0)"></path>
<path d="M 1556.91 920.106 L 1560.6 919.541 C 1561.56 923.9 1561.95 923.978 1563.38 927.925 C 1558.14 928.414 1554.97 928.839 1549.68 928.937 C 1551.15 928.433 1552.11 928.23 1553.53 927.839 L 1554.17 927.083 L 1554.29 927.513 L 1554.25 927.535 L 1554.37 927.218 C 1545.8 923.967 1553.06 923.466 1555.34 920.794 C 1555.92 920.495 1556.3 920.242 1556.91 920.106 z" fill="rgb(231,223,200)" fill-opacity="0.227451" transform="translate(0,0)"></path>
<path d="M 942.854 1513.36 C 945.398 1513.28 968.017 1514.36 969.424 1514.89 L 969.59 1515.14 C 967.978 1516.46 940.201 1516.22 936.344 1515.4 C 939.548 1514.86 940.198 1514.99 942.854 1513.36 z" fill="rgb(234,174,78)" transform="translate(0,0)"></path>
<path d="M 1519.97 930.349 C 1523.42 932.165 1524.55 933.245 1521 935.749 C 1517.82 936.164 1516.74 936.279 1513.68 937.194 C 1511.5 936.508 1509.33 935.803 1507.16 935.081 C 1511.72 932.94 1515.14 931.916 1519.97 930.349 z" fill="rgb(231,219,191)" fill-opacity="0.313725" transform="translate(0,0)"></path>
<path d="M 1686.41 1104.23 C 1686.33 1100.31 1687.52 1097.71 1688.72 1093.97 L 1693.21 1096.51 C 1692.76 1099.93 1690.2 1105.72 1688.06 1108.35 C 1687.49 1106.34 1687.38 1106.21 1686.41 1104.23 z" fill="rgb(231,219,191)" fill-opacity="0.913725" transform="translate(0,0)"></path>
<path d="M 1069.9 1588.04 C 1075.06 1587.53 1090.52 1587.49 1095.12 1588.79 L 1095.4 1589.08 C 1094.56 1590.22 1072.49 1590.12 1069.81 1589.88 L 1069.9 1588.04 z" fill="rgb(234,174,78)" transform="translate(0,0)"></path>
<path d="M 1407.21 808.279 L 1409.06 808.418 C 1415.75 808.894 1422.19 805.965 1414.81 816.571 L 1414.57 816.916 C 1412.16 813.832 1409.82 811.181 1407.21 808.279 z" fill="rgb(238,222,189)" fill-opacity="0.34902" transform="translate(0,0)"></path>
<path d="M 793.48 1576.39 C 801.999 1576.03 807.497 1575.11 815.933 1577.42 C 816.297 1581.41 811.696 1578.41 808.998 1578.61 C 807.969 1578.69 794.1 1577.52 793.55 1577.19 C 793.526 1576.92 793.503 1576.66 793.48 1576.39 z" fill="rgb(231,219,191)" fill-opacity="0.780392" transform="translate(0,0)"></path>
<path d="M 625.341 1554.92 C 628.927 1555.09 637.748 1556.15 641.336 1556.8 C 640.121 1556.88 633.076 1557.06 632.701 1557.51 C 629.5 1561.35 627.687 1560.57 623.516 1558.45 C 624.209 1556.76 624.575 1557.13 625.341 1554.92 z" fill="rgb(231,219,191)" fill-opacity="0.701961" transform="translate(0,0)"></path>
<path d="M 1360.23 1354.57 L 1362.06 1354.17 C 1375.02 1350.48 1367.82 1363.12 1358.62 1356.01 C 1359.15 1355.53 1359.69 1355.05 1360.23 1354.57 z" fill="rgb(231,223,200)" fill-opacity="0.886275" transform="translate(0,0)"></path>
<path d="M 1053.82 1587.01 C 1059.71 1586.97 1064.14 1587.79 1069.9 1588.04 L 1069.81 1589.88 C 1062.61 1589.74 1055.56 1590.22 1048.11 1590 L 1048.39 1589.14 C 1051.08 1589.15 1057.79 1589.27 1060.23 1588.78 L 1060.06 1588.47 L 1060.42 1588.63 C 1060.03 1588.24 1054.8 1587.27 1053.82 1587.01 z" fill="rgb(233,208,166)" fill-opacity="0.568627" transform="translate(0,0)"></path>
<path d="M 1675.51 1128.2 C 1676.9 1125.1 1681.5 1114.53 1683.32 1112.11 L 1684.75 1114.28 C 1682.76 1120 1679.26 1123.78 1675.51 1128.2 z" fill="rgb(234,174,78)" transform="translate(0,0)"></path>
<path d="M 1686.41 1104.23 C 1687.38 1106.21 1687.49 1106.34 1688.06 1108.35 C 1686.84 1110.38 1685.83 1112.17 1684.75 1114.28 L 1683.32 1112.11 C 1684.38 1109.48 1685.36 1106.86 1686.41 1104.23 z" fill="rgb(238,222,189)" fill-opacity="0.45098" transform="translate(0,0)"></path>
<path d="M 807.007 240.574 C 818.167 243.954 843.317 274.094 850.726 283.089 C 883.426 324.112 884.144 381.765 853.362 424.043 C 842.294 438.799 828.176 450.77 815.676 464.323 C 768.636 515.327 778.537 583.849 818.227 636.71 C 819.513 638.619 819.193 637.9 819.633 640.314 C 812.588 638.389 789.983 611.488 785.331 605.209 C 751.925 560.111 749.074 497.71 783.544 452.495 C 808.649 419.565 836.639 401.703 843.062 355.212 C 849.464 308.874 833.426 276.444 807.007 240.574 z" fill="rgb(214,150,50)" transform="translate(0,0)"></path>
<path d="M 1182.59 249.192 C 1241.66 293.016 1268.5 369.578 1220.71 433.061 C 1211.68 445.053 1200.93 454.476 1190.84 465.444 C 1145.14 517.119 1148.96 583.585 1188.46 637.098 L 1185.75 638.283 C 1133.46 590.969 1107.57 524.355 1152.88 460.757 C 1177.62 426.022 1209.12 410.145 1215.21 362.93 C 1221.05 317.669 1208.8 289.784 1183.46 254.091 C 1183.2 252.453 1182.91 250.82 1182.59 249.192 z" fill="rgb(214,150,50)" transform="translate(0,0)"></path>
<path d="M 1001.63 171.448 C 1034.42 198.94 1059.04 227.347 1062.88 271.375 C 1065.54 301.901 1053.96 339.408 1032.64 360.788 C 995.883 397.661 973.163 421.61 976.62 477.372 C 979.082 517.075 994.186 530.36 1011.27 562.65 C 987.854 543.432 965.875 519.501 956.03 490.314 C 943.018 451.744 949.788 406.786 975.857 375.128 C 985.114 363.886 996.431 353.935 1006.06 342.94 C 1027.71 318.043 1038.17 285.34 1034.99 252.502 C 1032.5 224.86 1018.87 193.867 1000.4 173.538 L 1001.63 171.448 z" fill="rgb(214,150,50)" transform="translate(0,0)"></path>
<path d="M 1183.46 254.091 C 1182.82 253.368 1176.98 247.609 1179.06 247.013 C 1180.39 247.319 1181.57 248.33 1182.59 249.192 C 1182.91 250.82 1183.2 252.453 1183.46 254.091 z" fill="rgb(234,174,78)" fill-opacity="0.909804" transform="translate(0,0)"></path>
<path d="M 1188.46 637.098 C 1192.41 643.252 1190.54 642.22 1185.75 638.283 L 1188.46 637.098 z" fill="rgb(234,174,78)" fill-opacity="0.92549" transform="translate(0,0)"></path>
<path d="M 1000.4 173.538 C 1000.23 173.293 997.514 170.098 998.517 169.434 C 998.923 169.165 1000.1 170.19 1000.41 170.46 L 1001.63 171.448 L 1000.4 173.538 z" fill="rgb(234,174,78)" fill-opacity="0.780392" transform="translate(0,0)"></path>
<metadata><recraft-signature>{"signed_by": "recraft", "signature_b64": "1BhXMSiSL8PYfJLcah67p7oW+x/Aoql425+bx7wzM/dnI6wYrorVjfLDQ9ZsOuMKuU26bXdl30dhYbXBS2ZbDA==", "signing_algo": "Ed25519", "generation_timestamp": 1781914840, "identifier": "85615d38-11db-4319-b96b-9ec8fa1040a4"}</recraft-signature></metadata></svg>