<svg xmlns="http://www.w3.org/2000/svg" height="1024" preserveAspectRatio="none" style="display: block;" version="1.1" viewBox="0 0 2048 2048" width="1024">
<defs>
	<linearGradient gradientUnits="userSpaceOnUse" id="Gradient1" x1="1161.81" x2="1191.44" y1="1387.93" y2="1426.1">
		<stop class="stop0" offset="0" stop-color="rgb(255,255,255)" stop-opacity="0"></stop>
		<stop class="stop1" offset="1" stop-color="rgb(255,255,255)" stop-opacity="0.0352941"></stop>
	</linearGradient>
</defs>
<path d="M 501.299 1218.44 C 494.497 1213.85 464.258 1202.94 452.938 1197.12 C 400.46 1169.96 357.19 1127.88 328.576 1076.18 C 292.577 1010.76 286.455 931.509 309.792 860.39 C 318.519 833.796 333.255 809.909 341.121 782.741 C 352.337 744.009 356.261 704.25 348.717 664.324 C 345.602 647.13 341.081 629.883 338.371 612.695 C 332.769 577.052 335.232 540.606 345.581 506.041 C 365.024 439.33 416.672 375.528 477.595 342.591 C 532.053 313.15 601.711 300.656 662.211 315.03 C 675.341 318.149 688.037 322.222 701.068 325.579 C 726.532 332.277 752.92 334.766 779.188 332.947 C 819.638 330.194 842.76 319.947 879.632 306.525 C 939.096 284.88 998.712 284.323 1059.22 302.291 C 1130.27 322.996 1190.46 370.578 1227 434.935 C 1237.39 453.462 1242.88 473.679 1252.64 490.884 C 1270.3 508.088 1288.89 524.716 1306.4 542.1 C 1309.92 545.589 1324.08 559.008 1326.2 562.119 C 1382.13 613.111 1435.95 666.258 1491.83 717.295 C 1496.95 721.978 1502.03 726.626 1506.91 731.573 C 1519.46 744.497 1532.5 755.832 1545.66 768.055 L 1595.71 815.281 C 1612.17 830.689 1634.38 848.854 1645.85 867.964 C 1664.09 898.355 1659.58 940.734 1633.71 965.716 C 1617.4 981.255 1595.54 989.611 1573.02 988.917 C 1567.82 988.794 1561.79 988.25 1556.63 987.644 C 1583.48 1014.48 1610.36 1039.33 1637.92 1065.19 C 1653.19 1079.51 1681.95 1105.19 1692.15 1121.27 C 1700.65 1134.57 1705.16 1150.02 1705.15 1165.8 C 1705.05 1188.63 1695.55 1208.41 1679.21 1224.04 C 1653 1249.11 1621.13 1250.7 1587.79 1241.92 L 1588.62 1242.84 C 1604.31 1259.98 1632.89 1285.99 1650.05 1302.06 L 1723.77 1372.28 C 1739 1386.67 1754.49 1400.65 1768.93 1415.87 C 1797.7 1446.21 1796.57 1499.1 1765.17 1527.29 C 1738.2 1551.49 1707.21 1549.26 1676.17 1534.53 C 1677.18 1540.69 1707.1 1581.8 1712.56 1589.58 C 1752.34 1645.7 1790.31 1703.08 1826.41 1761.63 C 1833.85 1773.62 1840.58 1785.21 1847.73 1797.54 C 1854.91 1809.93 1866.83 1822.71 1857.87 1838.41 C 1848.68 1854.52 1830.52 1851.25 1817.63 1841.99 C 1772.84 1810.63 1726.5 1779.19 1683.05 1746.06 L 1592.86 1677.06 C 1584.4 1670.5 1547.49 1640.01 1541.64 1637.79 C 1550.76 1654.04 1558.58 1666.5 1559.65 1685.45 C 1561.4 1727.87 1529.15 1766.21 1485.97 1768.13 C 1449.43 1769.75 1433.05 1754.82 1408.64 1730.07 C 1398.79 1720.09 1387.61 1709.63 1377.37 1699.81 L 1281.95 1608.49 C 1263.36 1590.61 1243.61 1570.58 1224.62 1553.47 C 1236.51 1574.67 1244.8 1590.32 1242.06 1615.39 C 1239.73 1636.54 1229.14 1655.9 1212.58 1669.27 C 1195.57 1682.67 1173.92 1688.76 1152.41 1686.19 C 1134.87 1684.21 1119.1 1676.91 1106.16 1664.89 C 1080.79 1641.32 1056.75 1616.14 1032.86 1591.08 C 1026.86 1584.78 1020.32 1578.33 1014.92 1571.54 C 999.979 1607.22 972.829 1628.11 933.027 1627.56 C 896.918 1627.06 876.171 1603.38 853.057 1579.01 L 817.29 1541.16 C 759.567 1483.04 703.058 1423.29 645.944 1364.53 C 622.676 1340.6 598.947 1316.47 577.281 1291.1 C 574.164 1287.87 570.376 1284.43 567 1281.41 C 544.376 1261.12 523.114 1239.57 501.299 1218.44 z M 501.299 1218.44 C 523.114 1239.57 544.376 1261.12 567 1281.41 C 570.376 1284.43 574.164 1287.87 577.281 1291.1 C 598.947 1316.47 622.676 1340.6 645.944 1364.53 C 703.058 1423.29 759.567 1483.04 817.29 1541.16 L 853.057 1579.01 C 876.171 1603.38 896.918 1627.06 933.027 1627.56 C 972.829 1628.11 999.979 1607.22 1014.92 1571.54 C 1020.32 1578.33 1026.86 1584.78 1032.86 1591.08 C 1056.75 1616.14 1080.79 1641.32 1106.16 1664.89 C 1119.1 1676.91 1134.87 1684.21 1152.41 1686.19 C 1173.92 1688.76 1195.57 1682.67 1212.58 1669.27 C 1229.14 1655.9 1239.73 1636.54 1242.06 1615.39 C 1244.8 1590.32 1236.51 1574.67 1224.62 1553.47 C 1243.61 1570.58 1263.36 1590.61 1281.95 1608.49 L 1377.37 1699.81 C 1387.61 1709.63 1398.79 1720.09 1408.64 1730.07 C 1433.05 1754.82 1449.43 1769.75 1485.97 1768.13 C 1529.15 1766.21 1561.4 1727.87 1559.65 1685.45 C 1558.58 1666.5 1550.76 1654.04 1541.64 1637.79 C 1547.49 1640.01 1584.4 1670.5 1592.86 1677.06 L 1683.05 1746.06 C 1726.5 1779.19 1772.84 1810.63 1817.63 1841.99 C 1830.52 1851.25 1848.68 1854.52 1857.87 1838.41 C 1866.83 1822.71 1854.91 1809.93 1847.73 1797.54 C 1840.58 1785.21 1833.85 1773.62 1826.41 1761.63 C 1790.31 1703.08 1752.34 1645.7 1712.56 1589.58 C 1707.1 1581.8 1677.18 1540.69 1676.17 1534.53 C 1707.21 1549.26 1738.2 1551.49 1765.17 1527.29 C 1796.57 1499.1 1797.7 1446.21 1768.93 1415.87 C 1754.49 1400.65 1739 1386.67 1723.77 1372.28 L 1650.05 1302.06 C 1632.89 1285.99 1604.31 1259.98 1588.62 1242.84 L 1587.79 1241.92 C 1621.13 1250.7 1653 1249.11 1679.21 1224.04 C 1695.55 1208.41 1705.05 1188.63 1705.15 1165.8 C 1705.16 1150.02 1700.65 1134.57 1692.15 1121.27 C 1681.95 1105.19 1653.19 1079.51 1637.92 1065.19 C 1610.36 1039.33 1583.48 1014.48 1556.63 987.644 C 1561.79 988.25 1567.82 988.794 1573.02 988.917 C 1595.54 989.611 1617.4 981.255 1633.71 965.716 C 1659.58 940.734 1664.09 898.355 1645.85 867.964 C 1634.38 848.854 1612.17 830.689 1595.71 815.281 L 1545.66 768.055 C 1532.5 755.832 1519.46 744.497 1506.91 731.573 C 1502.03 726.626 1496.95 721.978 1491.83 717.295 C 1435.95 666.258 1382.13 613.111 1326.2 562.119 C 1324.08 559.008 1309.92 545.589 1306.4 542.1 C 1288.89 524.716 1270.3 508.088 1252.64 490.884 C 1253.62 501.89 1260.58 517.63 1263.43 528.762 C 1269.59 550.043 1271.89 570.957 1273.32 593.011 C 1278.19 668.219 1244.24 735.808 1240.29 810.389 C 1238.14 851.073 1245.74 877.904 1249.92 916.226 C 1257.66 987.191 1230.31 1070.12 1186.16 1125.1 C 1146.95 1174.82 1089.22 1214.73 1025.59 1223.66 C 986.661 1229.05 966.177 1216.72 930.743 1207.33 C 911.596 1202.26 878.934 1199.61 858.851 1199.44 C 828.071 1199.45 797.401 1203.12 767.487 1210.37 C 723.572 1220.88 699.623 1231.51 651.723 1235.29 C 615.32 1238.52 578.641 1236.44 542.834 1229.13 C 531.866 1226.78 509.83 1218.96 501.299 1218.44 z M 922.121 524.877 C 920.884 522.979 920.571 522.171 918.311 521.639 C 898.307 518.028 909.961 527.705 922.121 524.877 z" fill="rgb(214,177,83)" transform="translate(0,0)"></path>
<path d="M 1252.64 490.884 C 1270.3 508.088 1288.89 524.716 1306.4 542.1 C 1309.92 545.589 1324.08 559.008 1326.2 562.119 C 1382.13 613.111 1435.95 666.258 1491.83 717.295 C 1496.95 721.978 1502.03 726.626 1506.91 731.573 C 1519.46 744.497 1532.5 755.832 1545.66 768.055 L 1595.71 815.281 C 1612.17 830.689 1634.38 848.854 1645.85 867.964 C 1664.09 898.355 1659.58 940.734 1633.71 965.716 C 1617.4 981.255 1595.54 989.611 1573.02 988.917 C 1567.82 988.794 1561.79 988.25 1556.63 987.644 C 1583.48 1014.48 1610.36 1039.33 1637.92 1065.19 C 1653.19 1079.51 1681.95 1105.19 1692.15 1121.27 C 1700.65 1134.57 1705.16 1150.02 1705.15 1165.8 C 1705.05 1188.63 1695.55 1208.41 1679.21 1224.04 C 1653 1249.11 1621.13 1250.7 1587.79 1241.92 L 1588.62 1242.84 C 1604.31 1259.98 1632.89 1285.99 1650.05 1302.06 L 1723.77 1372.28 C 1739 1386.67 1754.49 1400.65 1768.93 1415.87 C 1797.7 1446.21 1796.57 1499.1 1765.17 1527.29 C 1738.2 1551.49 1707.21 1549.26 1676.17 1534.53 C 1677.18 1540.69 1707.1 1581.8 1712.56 1589.58 C 1752.34 1645.7 1790.31 1703.08 1826.41 1761.63 C 1833.85 1773.62 1840.58 1785.21 1847.73 1797.54 C 1854.91 1809.93 1866.83 1822.71 1857.87 1838.41 C 1848.68 1854.52 1830.52 1851.25 1817.63 1841.99 C 1772.84 1810.63 1726.5 1779.19 1683.05 1746.06 L 1592.86 1677.06 C 1584.4 1670.5 1547.49 1640.01 1541.64 1637.79 C 1550.76 1654.04 1558.58 1666.5 1559.65 1685.45 C 1561.4 1727.87 1529.15 1766.21 1485.97 1768.13 C 1449.43 1769.75 1433.05 1754.82 1408.64 1730.07 C 1398.79 1720.09 1387.61 1709.63 1377.37 1699.81 L 1281.95 1608.49 C 1263.36 1590.61 1243.61 1570.58 1224.62 1553.47 C 1236.51 1574.67 1244.8 1590.32 1242.06 1615.39 C 1239.73 1636.54 1229.14 1655.9 1212.58 1669.27 C 1195.57 1682.67 1173.92 1688.76 1152.41 1686.19 C 1134.87 1684.21 1119.1 1676.91 1106.16 1664.89 C 1080.79 1641.32 1056.75 1616.14 1032.86 1591.08 C 1026.86 1584.78 1020.32 1578.33 1014.92 1571.54 C 999.979 1607.22 972.829 1628.11 933.027 1627.56 C 896.918 1627.06 876.171 1603.38 853.057 1579.01 L 817.29 1541.16 C 759.567 1483.04 703.058 1423.29 645.944 1364.53 C 622.676 1340.6 598.947 1316.47 577.281 1291.1 C 574.164 1287.87 570.376 1284.43 567 1281.41 C 544.376 1261.12 523.114 1239.57 501.299 1218.44 C 509.83 1218.96 531.866 1226.78 542.834 1229.13 C 578.641 1236.44 615.32 1238.52 651.723 1235.29 C 699.623 1231.51 723.572 1220.88 767.487 1210.37 C 797.401 1203.12 828.071 1199.45 858.851 1199.44 C 878.934 1199.61 911.596 1202.26 930.743 1207.33 C 966.177 1216.72 986.661 1229.05 1025.59 1223.66 C 1089.22 1214.73 1146.95 1174.82 1186.16 1125.1 C 1230.31 1070.12 1257.66 987.191 1249.92 916.226 C 1245.74 877.904 1238.14 851.073 1240.29 810.389 C 1244.24 735.808 1278.19 668.219 1273.32 593.011 C 1271.89 570.957 1269.59 550.043 1263.43 528.762 C 1260.58 517.63 1253.62 501.89 1252.64 490.884 z M 1536.44 970.887 C 1541.09 974.046 1551.83 983.415 1556.09 987.587 L 1556.63 987.644 C 1561.79 988.25 1567.82 988.794 1573.02 988.917 C 1595.54 989.611 1617.4 981.255 1633.71 965.716 C 1659.58 940.734 1664.09 898.355 1645.85 867.964 C 1634.38 848.854 1612.17 830.689 1595.71 815.281 L 1545.66 768.055 C 1532.5 755.832 1519.46 744.497 1506.91 731.573 C 1507.37 749.19 1507.14 760.658 1499.47 776.887 C 1484.07 809.485 1454.26 826.593 1418.75 827.24 C 1413.5 827.314 1408.26 827.206 1403.03 826.915 L 1474.11 894.548 C 1501.92 920.81 1521.79 934.707 1536.44 970.887 z M 1233.69 1434.43 C 1219.78 1436.92 1210.5 1450.18 1212.92 1464.1 C 1215.34 1478.01 1228.54 1487.37 1242.48 1485.02 C 1256.51 1482.66 1265.95 1469.33 1263.52 1455.31 C 1261.08 1441.28 1247.7 1431.92 1233.69 1434.43 z M 1428.48 762.601 C 1440.92 759.083 1448.15 746.137 1444.62 733.697 C 1441.09 721.257 1428.14 714.04 1415.7 717.583 C 1403.28 721.121 1396.08 734.051 1399.6 746.474 C 1403.13 758.897 1416.05 766.114 1428.48 762.601 z M 827.585 1436.53 C 818.73 1444.49 816.089 1450.96 818.814 1462.69 L 820.219 1464.6 L 821.138 1466.35 C 827.938 1477.29 837.646 1480.11 849.457 1476.09 C 854.681 1472.36 856.537 1470.75 859.753 1465.24 C 864.388 1458.97 862.734 1447.73 858.363 1441.62 L 857.495 1439.96 C 856.786 1439.22 856.467 1439.04 856.024 1438.14 C 853.881 1436.61 851.743 1435.25 849.376 1434.1 C 840.379 1431.53 835.215 1431.41 827.585 1436.53 z M 779.65 1421.23 C 788.117 1420.12 795.332 1414.54 798.541 1406.62 C 801.75 1398.71 800.458 1389.68 795.157 1382.98 C 789.856 1376.29 781.365 1372.96 772.926 1374.27 C 760.083 1376.25 751.232 1388.21 753.074 1401.07 C 754.915 1413.94 766.765 1422.92 779.65 1421.23 z M 1376.4 1383.93 C 1373.48 1394.72 1378.85 1406.04 1389.06 1410.59 C 1399.27 1415.14 1411.28 1411.56 1417.34 1402.17 C 1423.41 1392.78 1421.72 1380.37 1413.37 1372.93 C 1407.51 1367.71 1399.35 1365.89 1391.82 1368.13 C 1384.29 1370.37 1378.46 1376.35 1376.4 1383.93 z M 1171.94 1381.91 C 1157.83 1384.82 1148.75 1398.6 1151.64 1412.71 C 1154.53 1426.82 1168.3 1435.92 1182.42 1433.06 C 1196.56 1430.18 1205.69 1416.37 1202.79 1402.23 C 1199.9 1388.09 1186.07 1378.99 1171.94 1381.91 z M 1445.6 1426.21 C 1436.47 1428.19 1429.12 1434.94 1426.38 1443.87 C 1423.64 1452.8 1425.93 1462.51 1432.38 1469.27 C 1438.82 1476.03 1448.42 1478.78 1457.47 1476.46 C 1471.1 1472.98 1479.43 1459.21 1476.2 1445.52 C 1472.96 1431.82 1459.35 1423.23 1445.6 1426.21 z" fill="rgb(214,177,83)" transform="translate(0,0)"></path>
<path d="M 1252.64 490.884 C 1270.3 508.088 1288.89 524.716 1306.4 542.1 C 1309.92 545.589 1324.08 559.008 1326.2 562.119 C 1324.89 568.135 1337.11 584.2 1340.2 590.842 C 1351.83 616.142 1359.87 642.946 1364.07 670.473 C 1368.18 699.134 1367.34 732.35 1361.55 760.823 C 1355.09 792.626 1350.14 811.927 1348.9 845.024 C 1347.22 889.755 1360.33 925.125 1362.26 969.181 C 1365.68 1046.92 1343.42 1139.12 1298.76 1203.01 C 1275.36 1236.14 1245.72 1264.37 1211.49 1286.13 C 1146.03 1328.1 1053.65 1345.74 977.8 1328.97 C 941.572 1320.96 930.911 1312.69 889.503 1311.06 C 839.66 1309.09 824.231 1319.07 780.29 1327.89 C 754.966 1333.09 729.043 1334.73 703.265 1332.79 C 672.495 1330.35 645.63 1323.28 616.881 1312.19 C 608.783 1309.07 581.665 1291.11 577.281 1291.1 C 574.164 1287.87 570.376 1284.43 567 1281.41 C 544.376 1261.12 523.114 1239.57 501.299 1218.44 C 509.83 1218.96 531.866 1226.78 542.834 1229.13 C 578.641 1236.44 615.32 1238.52 651.723 1235.29 C 699.623 1231.51 723.572 1220.88 767.487 1210.37 C 797.401 1203.12 828.071 1199.45 858.851 1199.44 C 878.934 1199.61 911.596 1202.26 930.743 1207.33 C 966.177 1216.72 986.661 1229.05 1025.59 1223.66 C 1089.22 1214.73 1146.95 1174.82 1186.16 1125.1 C 1230.31 1070.12 1257.66 987.191 1249.92 916.226 C 1245.74 877.904 1238.14 851.073 1240.29 810.389 C 1244.24 735.808 1278.19 668.219 1273.32 593.011 C 1271.89 570.957 1269.59 550.043 1263.43 528.762 C 1260.58 517.63 1253.62 501.89 1252.64 490.884 z" fill="rgb(183,126,7)" transform="translate(0,0)"></path>
<path d="M 1563.56 1222.81 C 1572.73 1226.31 1580.71 1238.03 1587.14 1242.26 L 1587.79 1241.92 L 1588.62 1242.84 C 1604.31 1259.98 1632.89 1285.99 1650.05 1302.06 L 1723.77 1372.28 C 1739 1386.67 1754.49 1400.65 1768.93 1415.87 C 1797.7 1446.21 1796.57 1499.1 1765.17 1527.29 C 1738.2 1551.49 1707.21 1549.26 1676.17 1534.53 C 1677.18 1540.69 1707.1 1581.8 1712.56 1589.58 C 1752.34 1645.7 1790.31 1703.08 1826.41 1761.63 C 1833.85 1773.62 1840.58 1785.21 1847.73 1797.54 C 1854.91 1809.93 1866.83 1822.71 1857.87 1838.41 C 1848.68 1854.52 1830.52 1851.25 1817.63 1841.99 C 1772.84 1810.63 1726.5 1779.19 1683.05 1746.06 L 1592.86 1677.06 C 1584.4 1670.5 1547.49 1640.01 1541.64 1637.79 C 1537.98 1635.58 1447.67 1546.63 1444.71 1542.84 C 1447.68 1543.53 1450.69 1544.06 1453.72 1544.41 C 1476.01 1547.13 1500.11 1539.4 1517.51 1525.36 C 1534.74 1511.55 1545.75 1491.44 1548.12 1469.49 C 1555.08 1402.09 1489.81 1377.38 1454.93 1330.95 C 1452.43 1327.62 1449.74 1322.19 1453.99 1319.17 L 1456.01 1319.88 C 1521.87 1330.31 1569.76 1290.65 1563.56 1222.81 z" fill="rgb(183,126,7)" transform="translate(0,0)"></path>
<path d="M 1563.56 1222.81 C 1572.73 1226.31 1580.71 1238.03 1587.14 1242.26 L 1587.79 1241.92 L 1588.62 1242.84 C 1604.31 1259.98 1632.89 1285.99 1650.05 1302.06 L 1723.77 1372.28 C 1739 1386.67 1754.49 1400.65 1768.93 1415.87 C 1797.7 1446.21 1796.57 1499.1 1765.17 1527.29 C 1738.2 1551.49 1707.21 1549.26 1676.17 1534.53 C 1675.85 1533.67 1659.29 1518.75 1656.85 1516.34 C 1608.15 1468.4 1559.07 1420.85 1509.62 1373.68 C 1501.93 1366.2 1458.26 1326.16 1456.01 1319.88 C 1521.87 1330.31 1569.76 1290.65 1563.56 1222.81 z" fill="rgb(163,109,5)" transform="translate(0,0)"></path>
<path d="M 1626.2 1365.59 C 1638.95 1361.96 1652.21 1369.41 1655.74 1382.19 C 1659.27 1394.96 1651.71 1408.17 1638.91 1411.6 C 1626.25 1414.99 1613.22 1407.53 1609.73 1394.9 C 1606.24 1382.26 1613.59 1369.18 1626.2 1365.59 z" fill="rgb(214,177,83)" transform="translate(0,0)"></path>
<path d="M 1688.73 1429.8 C 1696.82 1428.27 1705.11 1431.22 1710.41 1437.52 C 1715.72 1443.82 1717.21 1452.49 1714.32 1460.2 C 1711.43 1467.91 1704.6 1473.46 1696.46 1474.72 C 1684.17 1476.62 1672.62 1468.32 1670.51 1456.06 C 1668.4 1443.8 1676.51 1432.12 1688.73 1429.8 z" fill="rgb(214,177,83)" transform="translate(0,0)"></path>
<path d="M 1654.1 1620.57 C 1666.84 1616.79 1680.23 1624.08 1683.99 1636.83 C 1687.75 1649.58 1680.44 1662.96 1667.69 1666.7 C 1662.76 1668.15 1657.5 1667.98 1652.68 1666.22 C 1642.93 1662.66 1636.56 1653.25 1636.88 1642.88 C 1637.21 1632.51 1644.15 1623.51 1654.1 1620.57 z" fill="rgb(214,177,83)" transform="translate(0,0)"></path>
<path d="M 1710.44 1678.36 C 1721.99 1675.36 1733.79 1682.25 1736.85 1693.78 C 1739.92 1705.31 1733.1 1717.15 1721.59 1720.29 C 1709.98 1723.45 1698.01 1716.56 1694.92 1704.93 C 1691.83 1693.3 1698.79 1681.38 1710.44 1678.36 z" fill="rgb(214,177,83)" transform="translate(0,0)"></path>
<path d="M 1327.07 1431.48 L 1403.64 1504.79 C 1413.6 1514.36 1434.48 1535.6 1444.71 1542.84 C 1447.67 1546.63 1537.98 1635.58 1541.64 1637.79 C 1550.76 1654.04 1558.58 1666.5 1559.65 1685.45 C 1561.4 1727.87 1529.15 1766.21 1485.97 1768.13 C 1449.43 1769.75 1433.05 1754.82 1408.64 1730.07 C 1398.79 1720.09 1387.61 1709.63 1377.37 1699.81 L 1281.95 1608.49 C 1263.36 1590.61 1243.61 1570.58 1224.62 1553.47 C 1236.51 1574.67 1244.8 1590.32 1242.06 1615.39 C 1239.73 1636.54 1229.14 1655.9 1212.58 1669.27 C 1195.57 1682.67 1173.92 1688.76 1152.41 1686.19 C 1134.87 1684.21 1119.1 1676.91 1106.16 1664.89 C 1080.79 1641.32 1056.75 1616.14 1032.86 1591.08 C 1026.86 1584.78 1020.32 1578.33 1014.92 1571.54 C 999.979 1607.22 972.829 1628.11 933.027 1627.56 C 896.918 1627.06 876.171 1603.38 853.057 1579.01 L 817.29 1541.16 C 825.279 1541.93 833.567 1546.86 841.516 1548.13 C 863.87 1551.69 887.549 1547.34 905.646 1533.21 C 926.729 1516.91 935.308 1500.64 940.021 1475.47 C 950.931 1486.78 961.994 1497.94 973.205 1508.96 C 995.326 1530.88 1010.7 1548.38 1043.8 1548.99 C 1065.57 1549.46 1086.63 1541.22 1102.31 1526.11 C 1119.8 1509.2 1126.74 1486 1127.31 1462.23 C 1134.74 1467.03 1142.36 1474.91 1148.8 1481.14 L 1181.29 1512.67 C 1196.19 1527.07 1210.91 1541.59 1232.18 1545.08 C 1265.06 1550.49 1298.61 1538.76 1317.89 1511.02 C 1330.73 1492.48 1335.52 1469.53 1331.18 1447.4 C 1330.09 1441.74 1328.77 1436.97 1327.07 1431.48 z" fill="rgb(163,109,5)" transform="translate(0,0)"></path>
<path d="M 1463.63 1660.4 C 1476.09 1659.26 1487.1 1668.47 1488.18 1680.93 C 1489.25 1693.39 1479.98 1704.35 1467.52 1705.36 C 1455.14 1706.37 1444.28 1697.18 1443.21 1684.81 C 1442.14 1672.44 1451.27 1661.54 1463.63 1660.4 z" fill="rgb(214,177,83)" transform="translate(0,0)"></path>
<path d="M 1145.78 1587.72 C 1157.51 1583.67 1170.29 1589.93 1174.27 1601.68 C 1178.26 1613.43 1171.92 1626.17 1160.15 1630.09 C 1148.47 1633.97 1135.85 1627.69 1131.9 1616.04 C 1127.95 1604.39 1134.15 1591.74 1145.78 1587.72 z" fill="rgb(214,177,83)" transform="translate(0,0)"></path>
<path d="M 1356.92 1560.62 C 1368.87 1557.23 1381.29 1564.24 1384.57 1576.21 C 1387.84 1588.19 1380.72 1600.54 1368.72 1603.71 C 1356.86 1606.84 1344.7 1599.84 1341.46 1588.01 C 1338.23 1576.18 1345.13 1563.96 1356.92 1560.62 z" fill="rgb(214,177,83)" transform="translate(0,0)"></path>
<path d="M 1412.96 1605.72 C 1424.95 1603.2 1436.73 1610.82 1439.34 1622.79 C 1441.96 1634.76 1434.44 1646.6 1422.5 1649.31 C 1410.41 1652.06 1398.4 1644.43 1395.75 1632.33 C 1393.1 1620.22 1400.83 1608.27 1412.96 1605.72 z" fill="rgb(214,177,83)" transform="translate(0,0)"></path>
<path d="M 1536.44 970.887 C 1541.09 974.046 1551.83 983.415 1556.09 987.587 L 1556.63 987.644 C 1583.48 1014.48 1610.36 1039.33 1637.92 1065.19 C 1653.19 1079.51 1681.95 1105.19 1692.15 1121.27 C 1700.65 1134.57 1705.16 1150.02 1705.15 1165.8 C 1705.05 1188.63 1695.55 1208.41 1679.21 1224.04 C 1653 1249.11 1621.13 1250.7 1587.79 1241.92 L 1587.14 1242.26 C 1580.71 1238.03 1572.73 1226.31 1563.56 1222.81 C 1561.61 1215.61 1556.71 1199.47 1552.68 1193.74 C 1540.32 1176.19 1520.01 1159.3 1504.21 1144.39 L 1435.62 1079.33 C 1447.04 1080.54 1459.8 1080.58 1471.07 1078.25 C 1493.72 1073.39 1513.49 1059.67 1525.98 1040.15 C 1540.74 1017.03 1542.19 996.911 1536.44 970.887 z" fill="rgb(163,109,5)" transform="translate(0,0)"></path>
<path d="M 1604.14 1126.78 C 1616.38 1125.14 1627.7 1133.53 1629.69 1145.72 C 1631.67 1157.91 1623.6 1169.47 1611.47 1171.8 C 1603.32 1173.36 1594.95 1170.38 1589.64 1163.99 C 1584.32 1157.61 1582.89 1148.85 1585.91 1141.11 C 1588.92 1133.37 1595.91 1127.88 1604.14 1126.78 z" fill="rgb(214,177,83)" transform="translate(0,0)"></path>
<path d="M 1506.91 731.573 C 1519.46 744.497 1532.5 755.832 1545.66 768.055 L 1595.71 815.281 C 1612.17 830.689 1634.38 848.854 1645.85 867.964 C 1664.09 898.355 1659.58 940.734 1633.71 965.716 C 1617.4 981.255 1595.54 989.611 1573.02 988.917 C 1567.82 988.794 1561.79 988.25 1556.63 987.644 L 1556.09 987.587 C 1551.83 983.415 1541.09 974.046 1536.44 970.887 C 1521.79 934.707 1501.92 920.81 1474.11 894.548 L 1403.03 826.915 C 1408.26 827.206 1413.5 827.314 1418.75 827.24 C 1454.26 826.593 1484.07 809.485 1499.47 776.887 C 1507.14 760.658 1507.37 749.19 1506.91 731.573 z M 1533.51 872.127 C 1541.79 870.102 1548.34 863.774 1550.65 855.567 C 1552.96 847.361 1550.67 838.546 1544.66 832.499 C 1538.65 826.451 1529.85 824.108 1521.63 826.365 C 1509.16 829.788 1501.76 842.589 1505.01 855.102 C 1508.25 867.615 1520.95 875.199 1533.51 872.127 z M 1579.49 923.162 C 1590.42 920.364 1597.02 909.237 1594.23 898.303 C 1591.44 887.369 1580.32 880.763 1569.38 883.544 C 1558.43 886.327 1551.82 897.464 1554.61 908.41 C 1557.4 919.357 1568.55 925.963 1579.49 923.162 z" fill="rgb(183,126,7)" transform="translate(0,0)"></path>
<path d="M 1457.76 976.47 C 1467.51 974.333 1477.64 977.606 1484.3 985.037 C 1490.95 992.467 1493.09 1002.9 1489.89 1012.35 C 1486.69 1021.8 1478.66 1028.79 1468.86 1030.66 C 1454 1033.49 1439.63 1023.86 1436.59 1009.04 C 1433.56 994.218 1442.99 979.71 1457.76 976.47 z" fill="rgb(183,126,7)" transform="translate(0,0)"></path>
<path d="M 1419.37 1143.07 C 1433.88 1139.91 1448.19 1149.14 1451.31 1163.66 C 1454.42 1178.18 1445.15 1192.47 1430.62 1195.54 C 1416.15 1198.59 1401.94 1189.37 1398.84 1174.91 C 1395.74 1160.46 1404.92 1146.22 1419.37 1143.07 z" fill="rgb(248,222,119)" transform="translate(0,0)"></path>
<path d="M 1403.57 897.21 C 1418.2 895.255 1431.63 905.544 1433.55 920.173 C 1435.48 934.803 1425.16 948.216 1410.53 950.111 C 1395.94 952.001 1382.57 941.721 1380.65 927.133 C 1378.73 912.546 1388.99 899.158 1403.57 897.21 z" fill="rgb(248,222,119)" transform="translate(0,0)"></path>
<path d="M 975.264 1387.29 C 989.481 1384.92 1002.96 1394.42 1005.5 1408.61 C 1008.04 1422.8 998.703 1436.39 984.547 1439.1 C 975.238 1440.88 965.69 1437.52 959.548 1430.3 C 953.407 1423.08 951.622 1413.12 954.874 1404.22 C 958.127 1395.31 965.915 1388.85 975.264 1387.29 z" fill="rgb(248,222,119)" transform="translate(0,0)"></path>
<path d="M 1468.27 1206.25 C 1482.09 1202.05 1496.69 1209.85 1500.88 1223.66 C 1505.08 1237.48 1497.28 1252.08 1483.47 1256.27 C 1469.65 1260.47 1455.05 1252.67 1450.86 1238.86 C 1446.66 1225.04 1454.46 1210.44 1468.27 1206.25 z" fill="rgb(248,222,119)" transform="translate(0,0)"></path>
<path d="M 1171.94 1381.91 C 1186.07 1378.99 1199.9 1388.09 1202.79 1402.23 C 1205.69 1416.37 1196.56 1430.18 1182.42 1433.06 C 1168.3 1435.92 1154.53 1426.82 1151.64 1412.71 C 1148.75 1398.6 1157.83 1384.82 1171.94 1381.91 z" fill="url(#Gradient1)" transform="translate(0,0)"></path>
<path d="M 1030.13 1439.98 C 1042.67 1437.65 1054.76 1445.8 1057.3 1458.29 C 1059.85 1470.79 1051.9 1483.02 1039.44 1485.77 C 1031.2 1487.58 1022.62 1484.82 1017 1478.53 C 1011.37 1472.24 1009.57 1463.4 1012.29 1455.42 C 1015.02 1447.43 1021.83 1441.53 1030.13 1439.98 z" fill="rgb(248,222,119)" transform="translate(0,0)"></path>
<path d="M 1413.37 1372.93 C 1421.72 1380.37 1423.41 1392.78 1417.34 1402.17 C 1411.28 1411.56 1399.27 1415.14 1389.06 1410.59 C 1378.85 1406.04 1373.48 1394.72 1376.4 1383.93 C 1377.01 1384.49 1378.35 1386.15 1379.33 1386.1 C 1379.51 1386.09 1379.67 1386 1379.78 1385.86 C 1379.7 1385.97 1379.07 1375.47 1385.56 1375.36 C 1387.7 1375.32 1385.98 1379.45 1386.46 1380.22 C 1387.76 1380.11 1390.43 1377.81 1391.91 1377.27 C 1401.15 1373.87 1405.63 1378.8 1413.37 1372.93 z" fill="rgb(243,232,208)" fill-opacity="0.960784" transform="translate(0,0)"></path>
<path d="M 856.024 1438.14 C 856.467 1439.04 856.786 1439.22 857.495 1439.96 C 852.404 1443.18 851.678 1442.34 848.604 1446.5 C 843.328 1453.65 849.034 1453.93 845.694 1461.96 C 836.89 1468.44 836.254 1450.96 830.477 1450.13 C 829.266 1449.95 828.033 1450.26 827.053 1451 C 824.872 1452.63 820.942 1461.53 820.219 1464.6 L 818.814 1462.69 C 826.209 1440.52 819.876 1453.29 836.701 1443.51 C 846.914 1437.57 847.407 1441.65 856.024 1438.14 z" fill="rgb(243,232,208)" fill-opacity="0.254902" transform="translate(0,0)"></path>
<path d="M 821.138 1466.35 L 822.965 1463.32 C 824.62 1460.61 826.253 1453.16 828.353 1453.12 C 835.769 1453 830.178 1467.26 841.493 1467.74 C 846.74 1467.96 847.72 1472.22 849.457 1476.09 C 837.646 1480.11 827.938 1477.29 821.138 1466.35 z" fill="rgb(243,232,208)" fill-opacity="0.372549" transform="translate(0,0)"></path>
<path d="M 820.219 1464.6 C 820.942 1461.53 824.872 1452.63 827.053 1451 C 828.033 1450.26 829.266 1449.95 830.477 1450.13 C 836.254 1450.96 836.89 1468.44 845.694 1461.96 C 849.034 1453.93 843.328 1453.65 848.604 1446.5 C 851.678 1442.34 852.404 1443.18 857.495 1439.96 L 858.363 1441.62 C 855.554 1446.68 844.308 1453.8 849.041 1461.9 C 850.885 1465.05 856.576 1464.16 859.753 1465.24 C 856.537 1470.75 854.681 1472.36 849.457 1476.09 C 847.72 1472.22 846.74 1467.96 841.493 1467.74 C 830.178 1467.26 835.769 1453 828.353 1453.12 C 826.253 1453.16 824.62 1460.61 822.965 1463.32 L 821.138 1466.35 L 820.219 1464.6 z" fill="rgb(243,232,208)" fill-opacity="0.298039" transform="translate(0,0)"></path>
<path d="M 1376.4 1383.93 C 1378.46 1376.35 1384.29 1370.37 1391.82 1368.13 C 1399.35 1365.89 1407.51 1367.71 1413.37 1372.93 C 1405.63 1378.8 1401.15 1373.87 1391.91 1377.27 C 1390.43 1377.81 1387.76 1380.11 1386.46 1380.22 C 1385.98 1379.45 1387.7 1375.32 1385.56 1375.36 C 1379.07 1375.47 1379.7 1385.97 1379.78 1385.86 C 1379.67 1386 1379.51 1386.09 1379.33 1386.1 C 1378.35 1386.15 1377.01 1384.49 1376.4 1383.93 z" fill="rgb(243,232,208)" fill-opacity="0.878431" transform="translate(0,0)"></path>
<path d="M 849.376 1434.1 C 851.743 1435.25 853.881 1436.61 856.024 1438.14 C 847.407 1441.65 846.914 1437.57 836.701 1443.51 C 819.876 1453.29 826.209 1440.52 818.814 1462.69 C 816.089 1450.96 818.73 1444.49 827.585 1436.53 C 837.976 1439.21 839.496 1437.41 849.376 1434.1 z" fill="rgb(243,232,208)" fill-opacity="0.137255" transform="translate(0,0)"></path>
<path d="M 858.363 1441.62 C 862.734 1447.73 864.388 1458.97 859.753 1465.24 C 856.576 1464.16 850.885 1465.05 849.041 1461.9 C 844.308 1453.8 855.554 1446.68 858.363 1441.62 z M 855.526 1461.65 C 857.065 1456.87 858.012 1453.63 852.462 1452.09 C 849.563 1458.55 847.758 1460.68 855.526 1461.65 z" fill="rgb(243,232,208)" fill-opacity="0.407843" transform="translate(0,0)"></path>
<path d="M 852.462 1452.09 C 858.012 1453.63 857.065 1456.87 855.526 1461.65 C 847.758 1460.68 849.563 1458.55 852.462 1452.09 z" fill="rgb(243,232,208)" fill-opacity="0.470588" transform="translate(0,0)"></path>
<path d="M 827.585 1436.53 C 835.215 1431.41 840.379 1431.53 849.376 1434.1 C 839.496 1437.41 837.976 1439.21 827.585 1436.53 z" fill="rgb(243,232,208)" fill-opacity="0.0156863" transform="translate(0,0)"></path>
<path d="M 527.489 876.039 C 508.075 841.246 496.387 802.679 493.218 762.963 C 488.34 692.097 511.948 622.216 558.803 568.827 C 643.468 471.136 780.087 446.735 894.239 505.894 C 900.978 509.386 914.015 515.607 919.354 520.28 L 918.311 521.639 C 898.307 518.028 909.961 527.705 922.121 524.877 L 922.594 523.893 L 924.15 523.686 C 928.736 526.203 930.184 527.596 934.161 531.083 C 906.347 529.687 875.784 529.332 848.414 533.872 C 700.676 558.38 575.575 669.77 537.955 815.347 C 532.496 836.473 528.771 854.15 527.489 876.039 z" fill="rgb(243,232,208)" transform="translate(0,0)"></path>
<path d="M 1174.52 652.532 C 1177.34 655.262 1192.42 685.39 1195.82 691.879 C 1171.84 739.603 1155.82 786.891 1162.38 841.523 C 1163.81 853.498 1167.16 867.142 1169.04 879.335 C 1173.05 905.897 1173.13 932.904 1169.28 959.489 C 1157.58 1036.79 1110.42 1097.03 1037.53 1125.55 C 988.184 1144.85 939.115 1142.5 887.973 1134.75 C 877.995 1133.34 857.832 1130.83 848.947 1127.94 C 971.313 1116.73 1090.19 1009.77 1113.76 890.578 C 1120.05 858.763 1120.3 834.993 1121.7 803.134 C 1124.12 747.999 1146.07 698.901 1174.52 652.532 z" fill="rgb(183,126,7)" transform="translate(0,0)"></path>
<path d="M 922.121 524.877 C 909.961 527.705 898.307 518.028 918.311 521.639 C 920.571 522.171 920.884 522.979 922.121 524.877 z" fill="rgb(243,232,208)" fill-opacity="0.427451" transform="translate(0,0)"></path>
<metadata><recraft-signature>{"signed_by": "recraft", "signature_b64": "rED6BK0uv10B0u1Z+JzH/iPaq3wlbBDJJwgGsvdjgMa3QybUHRJcrSW+i+G/2lCVD6695F0UccK/NBRrh1BZDw==", "signing_algo": "Ed25519", "generation_timestamp": 1781915277, "identifier": "7f6bde48-06ab-4e10-a3f5-0a7939bbc3ba"}</recraft-signature></metadata></svg>