<svg xmlns="http://www.w3.org/2000/svg" height="1024" preserveAspectRatio="none" style="display: block;" version="1.1" viewBox="0 0 2048 2048" width="1024">
<defs>
	<linearGradient gradientUnits="userSpaceOnUse" id="Gradient1" x1="1098.89" x2="1057.89" y1="1666.76" y2="1455.6">
		<stop class="stop0" offset="0" stop-color="rgb(241,234,218)" stop-opacity="0"></stop>
		<stop class="stop1" offset="1" stop-color="rgb(239,230,212)" stop-opacity="0.172549"></stop>
	</linearGradient>
	<linearGradient gradientUnits="userSpaceOnUse" id="Gradient2" x1="988.868" x2="1070.65" y1="1533.7" y2="382.33">
		<stop class="stop0" offset="0" stop-color="rgb(240,233,219)" stop-opacity="0.929412"></stop>
		<stop class="stop1" offset="1" stop-color="rgb(241,234,218)" stop-opacity="1"></stop>
	</linearGradient>
	<linearGradient gradientUnits="userSpaceOnUse" id="Gradient3" x1="739.153" x2="779.405" y1="1161.57" y2="1179.99">
		<stop class="stop0" offset="0" stop-color="rgb(240,233,217)" stop-opacity="0.839216"></stop>
		<stop class="stop1" offset="1" stop-color="rgb(241,234,219)" stop-opacity="1"></stop>
	</linearGradient>
	<linearGradient gradientUnits="userSpaceOnUse" id="Gradient4" x1="1745.97" x2="565.181" y1="1175.32" y2="929.572">
		<stop class="stop0" offset="0" stop-color="rgb(229,145,38)" stop-opacity="1"></stop>
		<stop class="stop1" offset="1" stop-color="rgb(243,189,104)" stop-opacity="1"></stop>
	</linearGradient>
</defs>
<path d="M 994.996 253.358 C 1421.37 236.433 1780.67 568.475 1797.37 994.854 C 1814.07 1421.23 1481.83 1780.36 1055.45 1796.83 C 629.379 1813.29 270.581 1481.36 253.895 1055.3 C 237.208 629.246 568.947 270.271 994.996 253.358 z M 426.705 1456.09 C 654.555 1772.65 1089.41 1857.22 1419.29 1649.13 C 1749.17 1441.04 1860.14 1012.16 1672.59 670.188 C 1485.04 328.213 1063.74 191.253 710.949 357.567 C 512.624 451.061 366.149 627.909 311.225 840.175 C 256.301 1052.44 298.618 1278.14 426.705 1456.09 z" fill="rgb(215,125,24)" transform="translate(0,0)"></path>
<path d="M 710.949 357.567 C 1063.74 191.253 1485.04 328.213 1672.59 670.188 C 1860.14 1012.16 1749.17 1441.04 1419.29 1649.13 C 1089.41 1857.22 654.555 1772.65 426.705 1456.09 C 298.618 1278.14 256.301 1052.44 311.225 840.175 C 366.149 627.909 512.624 451.061 710.949 357.567 z M 1048.49 1573.37 C 1351.95 1560.86 1587.83 1304.74 1575.37 1001.28 C 1562.91 697.814 1306.82 461.896 1003.36 474.31 C 699.824 486.727 463.841 742.88 476.306 1046.41 C 488.77 1349.94 744.961 1585.89 1048.49 1573.37 z M 1506.37 1354.52 C 1496.68 1368.62 1486.37 1382.28 1475.47 1395.47 C 1474.71 1396.4 1473.95 1397.32 1473.18 1398.23 C 1468.92 1403.33 1464.57 1408.35 1460.13 1413.3 C 1434.1 1442.35 1405.21 1468.72 1373.9 1492 C 1194.75 1625.24 955.224 1644.43 757.138 1541.42 C 752.145 1538.82 747.19 1536.15 742.274 1533.41 C 736.543 1530.22 730.866 1526.93 725.246 1523.54 C 721.915 1521.54 718.604 1519.49 715.314 1517.42 C 708.453 1513.1 701.683 1508.63 695.009 1504.03 C 678.633 1492.73 662.846 1480.59 647.711 1467.68 C 408.822 1263.83 374.378 907.365 569.816 661.548 C 765.255 415.73 1120.31 368.938 1372.76 555.73 C 1625.21 742.522 1684.29 1095.74 1506.37 1354.52 z M 1476.24 1481.99 C 1481.65 1477.43 1488.99 1469.61 1493.7 1464.25 C 1496.11 1462.66 1501.06 1456.65 1503.05 1454.29 C 1506.09 1451.93 1516.89 1438.82 1519.94 1435.26 C 1526.77 1429.02 1548.27 1399.03 1553.93 1390.82 C 1614.09 1304.15 1651.99 1204 1664.28 1099.21 C 1684.42 928.048 1635.32 755.933 1527.91 621.156 C 1343.94 390.979 1018.9 312.607 752.631 441.442 C 706.99 463.526 667.492 487.513 627.767 519.301 C 493.598 625.788 406.922 780.962 386.606 951.045 C 370.925 1082.56 396.954 1215.68 461.015 1331.61 C 469.168 1346.27 485.875 1375.91 496.351 1388.99 C 514.812 1417.36 568.948 1481.09 595.926 1501.75 C 604.778 1508.83 632.761 1534.81 641.588 1539.44 C 685.698 1573.82 736.585 1602.7 788.489 1623.2 C 796.936 1626.53 814.56 1634.16 823.031 1635.98 C 830.866 1639.55 849.23 1644.67 857.882 1647.04 C 918.073 1663.44 980.336 1670.95 1042.7 1669.35 C 1167.35 1665.74 1279.14 1629.65 1382.31 1559.72 C 1415.87 1536.97 1448.39 1511.56 1476.24 1481.99 z" fill="rgb(215,125,24)" transform="translate(0,0)"></path>
<path d="M 710.949 357.567 C 1063.74 191.253 1485.04 328.213 1672.59 670.188 C 1860.14 1012.16 1749.17 1441.04 1419.29 1649.13 C 1089.41 1857.22 654.555 1772.65 426.705 1456.09 C 431.293 1457.23 445.682 1477.52 449.816 1482.85 C 464.683 1476.77 457.061 1477.15 463.063 1466.7 C 467.937 1458.22 476.779 1449.52 477.15 1438.31 C 477.214 1436.38 477.621 1436.51 478.753 1435.04 L 482.177 1435.63 C 482.764 1424.57 441.059 1380.77 437.194 1363 C 437.059 1362.37 436.963 1361.75 436.848 1361.12 C 621.316 1683.67 1031.14 1797.48 1355.52 1616.24 C 1679.89 1435 1797.79 1026.33 1619.79 700.164 C 1441.8 373.997 1034.33 252.027 706.402 426.756 C 709.381 421.545 720.226 419.227 726.6 414.414 L 726.72 412.934 C 724.473 411.902 723.53 411.482 721.464 410.153 C 724.336 406.62 725.726 405.62 723.791 401.256 C 719.227 397.643 714.361 397.419 708.709 397.022 L 707.259 396.93 C 704.533 395.016 705.314 396.263 704.62 393.213 C 707.553 391.519 710.466 389.79 713.358 388.026 C 724.808 381.019 729.454 368.409 732.55 355.725 C 731.363 354.251 730.384 352.82 729.295 351.28 C 724.022 353.748 716.659 357.546 710.949 357.567 z" fill="url(#Gradient4)" transform="translate(0,0)"></path>
<path d="M 729.295 351.28 C 730.384 352.82 731.363 354.251 732.55 355.725 C 729.454 368.409 724.808 381.019 713.358 388.026 C 710.466 389.79 707.553 391.519 704.62 393.213 C 705.314 396.263 704.533 395.016 707.259 396.93 L 708.709 397.022 C 714.361 397.419 719.227 397.643 723.791 401.256 C 725.726 405.62 724.336 406.62 721.464 410.153 C 723.53 411.482 724.473 411.902 726.72 412.934 L 726.6 414.414 C 720.226 419.227 709.381 421.545 706.402 426.756 C 544.702 512.913 424.787 660.884 374.001 836.925 C 323.215 1012.97 345.887 1202.07 436.848 1361.12 C 436.963 1361.75 437.059 1362.37 437.194 1363 C 441.059 1380.77 482.764 1424.57 482.177 1435.63 L 478.753 1435.04 C 477.621 1436.51 477.214 1436.38 477.15 1438.31 C 476.779 1449.52 467.937 1458.22 463.063 1466.7 C 457.061 1477.15 464.683 1476.77 449.816 1482.85 C 445.682 1477.52 431.293 1457.23 426.705 1456.09 C 298.618 1278.14 256.301 1052.44 311.225 840.175 C 366.149 627.909 512.624 451.061 710.949 357.567 C 716.659 357.546 724.022 353.748 729.295 351.28 z" fill="rgb(238,176,87)" transform="translate(0,0)"></path>
<path d="M 647.711 1467.68 C 408.822 1263.83 374.378 907.365 569.816 661.548 C 765.255 415.73 1120.31 368.938 1372.76 555.73 C 1625.21 742.522 1684.29 1095.74 1506.37 1354.52 C 1496.68 1368.62 1486.37 1382.28 1475.47 1395.47 C 1474.71 1396.4 1473.95 1397.32 1473.18 1398.23 C 1468.92 1403.33 1464.57 1408.35 1460.13 1413.3 C 1434.1 1442.35 1405.21 1468.72 1373.9 1492 C 1194.75 1625.24 955.224 1644.43 757.138 1541.42 C 752.145 1538.82 747.19 1536.15 742.274 1533.41 C 736.543 1530.22 730.866 1526.93 725.246 1523.54 C 721.915 1521.54 718.604 1519.49 715.314 1517.42 C 708.453 1513.1 701.683 1508.63 695.009 1504.03 C 678.633 1492.73 662.846 1480.59 647.711 1467.68 z M 1048.49 1573.37 C 1351.95 1560.86 1587.83 1304.74 1575.37 1001.28 C 1562.91 697.814 1306.82 461.896 1003.36 474.31 C 699.824 486.727 463.841 742.88 476.306 1046.41 C 488.77 1349.94 744.961 1585.89 1048.49 1573.37 z" fill="rgb(215,125,24)" transform="translate(0,0)"></path>
<path d="M 1003.36 474.31 C 1306.82 461.896 1562.91 697.814 1575.37 1001.28 C 1587.83 1304.74 1351.95 1560.86 1048.49 1573.37 C 744.961 1585.89 488.77 1349.94 476.306 1046.41 C 463.841 742.88 699.824 486.727 1003.36 474.31 z M 745.096 1402.65 C 773.563 1399.17 812.367 1375.85 838.935 1362.68 L 973.536 1295.9 L 1065.24 1250.22 C 1089.1 1238.59 1117.78 1225.82 1139.95 1211.9 C 1162.48 1197.74 1182.42 1179.82 1198.89 1158.93 C 1213.68 1140.1 1230.89 1103.33 1242.46 1080.67 L 1303.22 961.878 L 1357.5 856.126 C 1372.55 827.457 1388.81 796.872 1401.4 767.276 C 1417.21 730.09 1402.03 682.243 1369.96 658.581 C 1350.06 643.901 1328.97 639.705 1304.8 642.346 C 1278.42 646.245 1229.85 673.855 1203.42 687.266 C 1166.18 706.136 1128.84 724.784 1091.39 743.209 L 984.372 796.694 C 931.733 822.709 885.464 842.201 850.547 892.664 C 832.68 918.487 819.513 946.613 804.998 974.381 C 780.778 1019.84 756.922 1065.49 733.432 1111.32 L 678.73 1214.99 C 669.644 1232.26 655.065 1258.25 648.585 1275.6 C 642.813 1291.05 641.144 1307.74 643.741 1324.03 C 647.441 1348.59 662.342 1371.77 682.31 1386.35 C 700.443 1399.48 722.862 1405.31 745.096 1402.65 z" fill="rgb(240,233,216)" transform="translate(0,0)"></path>
<path d="M 1304.8 642.346 C 1328.97 639.705 1350.06 643.901 1369.96 658.581 C 1402.03 682.243 1417.21 730.09 1401.4 767.276 C 1388.81 796.872 1372.55 827.457 1357.5 856.126 L 1303.22 961.878 L 1242.46 1080.67 C 1230.89 1103.33 1213.68 1140.1 1198.89 1158.93 C 1182.42 1179.82 1162.48 1197.74 1139.95 1211.9 C 1117.78 1225.82 1089.1 1238.59 1065.24 1250.22 L 973.536 1295.9 L 838.935 1362.68 C 812.367 1375.85 773.563 1399.17 745.096 1402.65 C 722.862 1405.31 700.443 1399.48 682.31 1386.35 C 662.342 1371.77 647.441 1348.59 643.741 1324.03 C 641.144 1307.74 642.813 1291.05 648.585 1275.6 C 655.065 1258.25 669.644 1232.26 678.73 1214.99 L 733.432 1111.32 C 756.922 1065.49 780.778 1019.84 804.998 974.381 C 819.513 946.613 832.68 918.487 850.547 892.664 C 885.464 842.201 931.733 822.709 984.372 796.694 L 1091.39 743.209 C 1128.84 724.784 1166.18 706.136 1203.42 687.266 C 1229.85 673.855 1278.42 646.245 1304.8 642.346 z M 682.127 1283.06 C 681.14 1285.79 680.089 1288.33 679.028 1291.02 L 678.354 1294.15 L 677.985 1296 C 675.885 1305.95 676.616 1315.94 679.338 1325.69 L 679.675 1326.93 C 682.595 1335.95 685.99 1341.96 691.962 1349.34 C 696.349 1353.59 698.52 1356 703.553 1359.69 C 706.734 1362.08 710.131 1363.79 713.706 1365.5 C 714.489 1364.41 714.403 1364.03 713.718 1362.64 C 703.089 1341.14 709.091 1320.34 717.41 1299.5 C 753.485 1231.63 785.829 1161.34 820.528 1092.74 C 827.74 1078.48 836.893 1061.01 842.708 1046.39 C 848.77 1036.35 856.691 1017.24 861.887 1006.23 C 871.877 985.018 882.16 963.942 892.733 943.011 C 894.194 941.128 903.64 925.199 904.78 922.797 C 906.668 919.777 911.079 914.602 913.418 911.388 C 914.863 909.312 916.472 907.386 917.836 905.252 L 918.572 904.231 C 923.514 899.435 938.17 883.491 942.376 878.626 C 948.859 871.128 982.567 843.032 983.524 838.143 L 983.918 836.363 C 979.158 836.448 974.845 839.063 970.404 841.013 C 940.524 854.131 913.648 869.835 892.123 894.805 C 886.984 898.543 873.588 918.105 870.291 924.062 C 868.093 926.53 864.718 933.214 863.106 936.381 C 859.088 942.865 854.028 954.424 850.412 959.534 C 849.715 960.941 849.077 962.305 848.414 963.726 L 847.768 964.464 C 845.798 968.148 842.898 973.242 841.254 976.943 L 840.868 977.867 C 838.546 981.421 833.859 990.283 832.103 994.322 L 831.237 995.875 C 826.756 1003.67 821.824 1012.78 817.81 1020.81 C 781.041 1090.36 745.763 1161.13 708.669 1230.56 C 700.392 1246.06 687.636 1266.93 682.127 1283.06 z" fill="rgb(215,125,24)" transform="translate(0,0)"></path>
<path d="M 1024.4 813.758 C 1027.8 811.059 1075.78 788.208 1083.04 784.547 L 1224.9 713.682 L 1269.63 691.323 C 1277.34 687.461 1284.79 683.322 1292.67 680.017 C 1317.12 669.755 1345.37 675.288 1361.81 696.819 C 1379.49 719.975 1376.08 744.398 1364.05 769.029 C 1349.87 798.029 1335.15 826.387 1320.55 855.025 L 1251.94 989.973 L 1209.06 1073.4 C 1191.18 1108.24 1174.17 1146.88 1142.18 1171.08 C 1117.65 1189.63 1088.93 1201.83 1061.8 1216 C 1014.6 1240.15 966.23 1262.55 918.778 1286.19 L 814.642 1338.2 C 787.381 1351.85 744.393 1380.35 713.706 1365.5 C 714.489 1364.41 714.403 1364.03 713.718 1362.64 C 703.089 1341.14 709.091 1320.34 717.41 1299.5 C 753.485 1231.63 785.829 1161.34 820.528 1092.74 C 827.74 1078.48 836.893 1061.01 842.708 1046.39 C 848.77 1036.35 856.691 1017.24 861.887 1006.23 C 871.877 985.018 882.16 963.942 892.733 943.011 C 894.194 941.128 903.64 925.199 904.78 922.797 C 906.668 919.777 911.079 914.602 913.418 911.388 C 914.863 909.312 916.472 907.386 917.836 905.252 L 918.572 904.231 C 923.514 899.435 938.17 883.491 942.376 878.626 C 948.859 871.128 982.567 843.032 983.524 838.143 L 983.918 836.363 L 984.842 835.042 C 988.204 829.853 1017.38 817.021 1024.4 813.758 z" fill="rgb(238,176,87)" transform="translate(0,0)"></path>
<path d="M 1024.4 813.758 C 1022.71 817.548 993.069 833.087 988.098 838.017 C 987.979 838.135 985.35 835.422 984.842 835.042 C 988.204 829.853 1017.38 817.021 1024.4 813.758 z" fill="rgb(240,229,212)" transform="translate(0,0)"></path>
<path d="M 1010.76 903.329 C 1076.85 894.443 1137.6 940.887 1146.35 1006.99 C 1155.11 1073.1 1108.55 1133.76 1042.43 1142.39 C 976.488 1150.99 916.03 1104.58 907.297 1038.66 C 898.564 972.738 944.853 912.191 1010.76 903.329 z" fill="rgb(215,125,24)" transform="translate(0,0)"></path>
<path d="M 1019.9 935.434 C 1068.03 931.896 1109.89 968.071 1113.37 1016.2 C 1116.85 1064.33 1080.63 1106.15 1032.5 1109.57 C 984.447 1112.99 942.711 1076.84 939.236 1028.79 C 935.762 980.746 971.862 938.966 1019.9 935.434 z" fill="rgb(240,233,216)" transform="translate(0,0)"></path>
<path d="M 832.358 1015.86 C 833.009 1016.37 832.746 1016.23 833.174 1016.39 C 834.836 1015.79 835.303 1012.58 835.501 1011.01 C 836.027 1006.84 837.718 1012.81 842.904 1005.96 L 843.766 1005.66 L 843.224 1005.72 C 846.114 1005.27 844.599 1012.05 846.601 1011.55 C 848.367 1009.71 845.418 1005.88 854.831 1001.15 C 852.961 1005.85 850.415 1007.38 849.284 1012.9 C 848.368 1017.37 842.647 1022.86 843.461 1027.97 C 843.616 1029.67 842.369 1036.81 841.693 1038.72 C 840.922 1039.18 840.037 1038.79 839.258 1039.2 C 839.049 1039.86 839.155 1039.89 839.4 1040.61 C 843.488 1041.21 843.645 1037.25 842.708 1046.39 C 836.893 1061.01 827.74 1078.48 820.528 1092.74 C 785.829 1161.34 753.485 1231.63 717.41 1299.5 C 712.415 1299.47 711.26 1306.24 709.411 1309.97 L 708.922 1310.97 L 708.412 1311.97 C 706.701 1315.38 704.205 1321.09 704.431 1324.99 C 704.754 1330.56 704.664 1337.04 700.254 1341.13 C 699.677 1340.75 699.099 1340.37 698.522 1339.99 C 697.725 1340.39 697.997 1342.27 697.827 1343.34 C 697.445 1343.53 696.986 1343.49 696.564 1343.55 C 695.855 1343.67 695.306 1343.98 694.871 1344.56 C 694.657 1344.85 694.511 1345.2 694.36 1345.52 C 692.062 1344.64 692.137 1342.23 691.43 1341.34 L 691.238 1341.31 C 690.382 1342.28 691.741 1348.02 691.962 1349.34 C 685.99 1341.96 682.595 1335.95 679.675 1326.93 C 686.91 1315.47 680.224 1307.11 678.354 1294.15 L 679.028 1291.02 C 686.27 1304.77 692.596 1285.58 682.127 1283.06 C 687.636 1266.93 700.392 1246.06 708.669 1230.56 C 745.763 1161.13 781.041 1090.36 817.81 1020.81 C 817.689 1022.45 816.232 1029.83 817.02 1030.47 C 818.674 1030.25 820.414 1019.6 823.328 1018.33 C 827.366 1016.58 826.169 1007.58 830.465 1008.09 C 831.852 1008.26 832.267 1014.67 832.358 1015.86 z" fill="url(#Gradient3)" transform="translate(0,0)"></path>
<path d="M 900.924 926.272 C 901.618 925.351 902.479 924.669 903.376 923.952 L 904.78 922.797 C 903.64 925.199 894.194 941.128 892.733 943.011 L 891.397 944.074 C 886.942 947.512 883.112 953.386 878.847 957.807 C 878.125 961.717 877.637 965.137 876.819 969.094 C 873.828 970.996 871.182 972.221 868.198 974.207 C 865.26 981.915 860.817 986.48 858.93 993.54 C 858.004 997.008 857.77 998.895 854.831 1001.15 C 845.418 1005.88 848.367 1009.71 846.601 1011.55 C 844.599 1012.05 846.114 1005.27 843.224 1005.72 L 843.766 1005.66 L 842.904 1005.96 C 837.718 1012.81 836.027 1006.84 835.501 1011.01 C 835.303 1012.58 834.836 1015.79 833.174 1016.39 C 832.746 1016.23 833.009 1016.37 832.358 1015.86 C 832.939 1001.74 840.62 1009.48 842.794 996.632 C 842.984 995.511 839.858 992.023 838.824 991.116 C 836.576 992.38 835.313 993.059 832.941 994.067 L 832.103 994.322 C 833.859 990.283 838.546 981.421 840.868 977.867 L 841.293 980.804 C 839.843 988.275 842.036 987.995 848.047 984.728 C 848.701 985.066 849.68 985.793 850.456 985.917 C 852.021 984.663 850.644 982.298 853.255 981.294 C 855.637 980.377 856.774 978.404 858.374 976.537 C 858.639 976.054 858.905 975.571 859.17 975.087 C 859.406 973.27 861.673 970.869 862.203 969.51 C 863.622 965.388 871.04 965.732 870.579 960.552 C 870.203 956.323 873.573 952.083 877.125 950.181 C 879.774 948.763 880.669 947.125 882.207 944.543 C 884.52 940.658 886.191 939.427 890.603 938.708 C 891.921 938.48 893.716 935.148 894.179 933.981 C 895.561 930.505 898.41 929.085 900.924 926.272 z" fill="rgb(240,233,216)" fill-opacity="0.772549" transform="translate(0,0)"></path>
<path d="M 870.291 924.062 C 871.46 923.846 875.944 923.792 875.936 923.799 C 879.669 920.676 886.426 918.954 888.029 914.494 C 893.267 899.918 905.85 891.239 919.299 885.236 C 917.822 891.562 912.32 902.417 917.836 905.252 C 916.472 907.386 914.863 909.312 913.418 911.388 C 905.277 915.915 908.765 911.54 901.012 911.576 C 898.899 911.705 895.653 918.611 894.403 918.684 C 888.719 919.016 880.026 930.205 878.642 930.837 C 869.162 935.169 871.855 949.787 863.106 936.381 C 864.718 933.214 868.093 926.53 870.291 924.062 z" fill="rgb(240,233,216)" fill-opacity="0.266667" transform="translate(0,0)"></path>
<path d="M 878.847 957.807 C 883.112 953.386 886.942 947.512 891.397 944.074 L 892.733 943.011 C 882.16 963.942 871.877 985.018 861.887 1006.23 C 856.691 1017.24 848.77 1036.35 842.708 1046.39 C 843.645 1037.25 843.488 1041.21 839.4 1040.61 C 839.155 1039.89 839.049 1039.86 839.258 1039.2 C 840.037 1038.79 840.922 1039.18 841.693 1038.72 C 842.369 1036.81 843.616 1029.67 843.461 1027.97 C 842.647 1022.86 848.368 1017.37 849.284 1012.9 C 850.415 1007.38 852.961 1005.85 854.831 1001.15 C 857.77 998.895 858.004 997.008 858.93 993.54 C 860.817 986.48 865.26 981.915 868.198 974.207 C 871.182 972.221 873.828 970.996 876.819 969.094 C 877.637 965.137 878.125 961.717 878.847 957.807 z" fill="rgb(240,233,216)" fill-opacity="0.988235" transform="translate(0,0)"></path>
<path d="M 863.106 936.381 C 871.855 949.787 869.162 935.169 878.642 930.837 C 880.026 930.205 888.719 919.016 894.403 918.684 C 895.653 918.611 898.899 911.705 901.012 911.576 C 908.765 911.54 905.277 915.915 913.418 911.388 C 911.079 914.602 906.668 919.777 904.78 922.797 L 903.376 923.952 C 902.479 924.669 901.618 925.351 900.924 926.272 C 891.218 929.697 895.483 933.428 885.498 934.578 C 877.19 935.536 875.459 943.494 867.457 949.263 L 866.664 949.832 C 865.005 955.222 865.228 958.679 860.04 961.25 C 856.289 963.109 856.96 972.246 851.393 971.963 C 849.231 971.854 848.57 966.386 847.768 964.464 L 848.414 963.726 C 851.669 970.779 858.683 963.249 851.749 960.152 L 850.412 959.534 C 854.028 954.424 859.088 942.865 863.106 936.381 z" fill="rgb(240,233,216)" fill-opacity="0.498039" transform="translate(0,0)"></path>
<path d="M 866.664 949.832 L 867.457 949.263 C 875.459 943.494 877.19 935.536 885.498 934.578 C 895.483 933.428 891.218 929.697 900.924 926.272 C 898.41 929.085 895.561 930.505 894.179 933.981 C 893.716 935.148 891.921 938.48 890.603 938.708 C 886.191 939.427 884.52 940.658 882.207 944.543 C 880.669 947.125 879.774 948.763 877.125 950.181 C 873.573 952.083 870.203 956.323 870.579 960.552 C 871.04 965.732 863.622 965.388 862.203 969.51 C 861.673 970.869 859.406 973.27 859.17 975.087 C 858.905 975.571 858.639 976.054 858.374 976.537 L 858.166 974.804 C 858.085 973.858 857.886 973.282 857.716 972.522 C 853.787 979.406 849.634 972.624 848.047 984.728 C 842.036 987.995 839.843 988.275 841.293 980.804 C 841.882 981.651 842.059 982.163 843.031 982.45 C 844.044 982.754 845.141 982.569 845.998 981.949 C 846.795 981.372 847.407 980.511 847.437 979.502 C 847.462 978.666 847.087 977.868 846.428 977.354 C 844.888 976.151 843.053 976.693 841.254 976.943 C 842.898 973.242 845.798 968.148 847.768 964.464 C 848.57 966.386 849.231 971.854 851.393 971.963 C 856.96 972.246 856.289 963.109 860.04 961.25 C 865.228 958.679 865.005 955.222 866.664 949.832 z" fill="rgb(240,233,216)" fill-opacity="0.72549" transform="translate(0,0)"></path>
<path d="M 892.123 894.805 C 892.535 895.348 893.77 897.236 894.438 897.533 C 893.647 897.956 903.51 889.231 903.597 889.108 C 905.164 886.905 914.177 882.686 916.554 882.875 C 935.204 884.355 913.052 895.544 918.572 904.231 L 917.836 905.252 C 912.32 902.417 917.822 891.562 919.299 885.236 C 905.85 891.239 893.267 899.918 888.029 914.494 C 886.426 918.954 879.669 920.676 875.936 923.799 C 875.944 923.792 871.46 923.846 870.291 924.062 C 873.588 918.105 886.984 898.543 892.123 894.805 z" fill="rgb(240,233,216)" fill-opacity="0.0431373" transform="translate(0,0)"></path>
<path d="M 700.254 1341.13 C 704.664 1337.04 704.754 1330.56 704.431 1324.99 C 704.205 1321.09 706.701 1315.38 708.412 1311.97 L 708.922 1310.97 L 709.411 1309.97 C 711.26 1306.24 712.415 1299.47 717.41 1299.5 C 709.091 1320.34 703.089 1341.14 713.718 1362.64 C 714.403 1364.03 714.489 1364.41 713.706 1365.5 C 710.131 1363.79 706.734 1362.08 703.553 1359.69 C 705.259 1351.42 706.295 1349.87 701.223 1342.57 L 700.254 1341.13 z" fill="rgb(240,233,216)" fill-opacity="0.988235" transform="translate(0,0)"></path>
<path d="M 838.824 991.116 C 839.858 992.023 842.984 995.511 842.794 996.632 C 840.62 1009.48 832.939 1001.74 832.358 1015.86 C 832.267 1014.67 831.852 1008.26 830.465 1008.09 C 826.169 1007.58 827.366 1016.58 823.328 1018.33 C 820.414 1019.6 818.674 1030.25 817.02 1030.47 C 816.232 1029.83 817.689 1022.45 817.81 1020.81 C 821.824 1012.78 826.756 1003.67 831.237 995.875 L 832.103 994.322 L 832.941 994.067 C 837.156 1006.67 839.725 998.09 838.824 991.116 z" fill="rgb(240,233,216)" fill-opacity="0.756863" transform="translate(0,0)"></path>
<path d="M 691.962 1349.34 C 691.741 1348.02 690.382 1342.28 691.238 1341.31 L 691.43 1341.34 C 692.137 1342.23 692.062 1344.64 694.36 1345.52 C 694.511 1345.2 694.657 1344.85 694.871 1344.56 C 695.306 1343.98 695.855 1343.67 696.564 1343.55 C 696.986 1343.49 697.445 1343.53 697.827 1343.34 C 697.997 1342.27 697.725 1340.39 698.522 1339.99 C 699.099 1340.37 699.677 1340.75 700.254 1341.13 L 701.223 1342.57 C 706.295 1349.87 705.259 1351.42 703.553 1359.69 C 698.52 1356 696.349 1353.59 691.962 1349.34 z" fill="rgb(240,229,212)" fill-opacity="0.576471" transform="translate(0,0)"></path>
<path d="M 678.354 1294.15 C 680.224 1307.11 686.91 1315.47 679.675 1326.93 L 679.338 1325.69 C 676.616 1315.94 675.885 1305.95 677.985 1296 L 678.354 1294.15 z" fill="rgb(240,233,216)" fill-opacity="0.980392" transform="translate(0,0)"></path>
<path d="M 682.127 1283.06 C 692.596 1285.58 686.27 1304.77 679.028 1291.02 C 680.089 1288.33 681.14 1285.79 682.127 1283.06 z" fill="rgb(240,233,216)" fill-opacity="0.611765" transform="translate(0,0)"></path>
<path d="M 848.047 984.728 C 849.634 972.624 853.787 979.406 857.716 972.522 C 857.886 973.282 858.085 973.858 858.166 974.804 L 858.374 976.537 C 856.774 978.404 855.637 980.377 853.255 981.294 C 850.644 982.298 852.021 984.663 850.456 985.917 C 849.68 985.793 848.701 985.066 848.047 984.728 z" fill="rgb(240,233,216)" fill-opacity="0.741176" transform="translate(0,0)"></path>
<path d="M 838.824 991.116 C 839.725 998.09 837.156 1006.67 832.941 994.067 C 835.313 993.059 836.576 992.38 838.824 991.116 z" fill="rgb(240,233,216)" fill-opacity="0.647059" transform="translate(0,0)"></path>
<path d="M 841.254 976.943 C 843.053 976.693 844.888 976.151 846.428 977.354 C 847.087 977.868 847.462 978.666 847.437 979.502 C 847.407 980.511 846.795 981.372 845.998 981.949 C 845.141 982.569 844.044 982.754 843.031 982.45 C 842.059 982.163 841.882 981.651 841.293 980.804 L 840.868 977.867 L 841.254 976.943 z" fill="rgb(240,233,216)" fill-opacity="0.65098" transform="translate(0,0)"></path>
<path d="M 848.414 963.726 C 849.077 962.305 849.715 960.941 850.412 959.534 L 851.749 960.152 C 858.683 963.249 851.669 970.779 848.414 963.726 z" fill="rgb(240,233,216)" fill-opacity="0.517647" transform="translate(0,0)"></path>
<path d="M 496.351 1388.99 C 485.875 1375.91 469.168 1346.27 461.015 1331.61 C 396.954 1215.68 370.925 1082.56 386.606 951.045 C 406.922 780.962 493.598 625.788 627.767 519.301 C 667.492 487.513 706.99 463.526 752.631 441.442 C 1018.9 312.607 1343.94 390.979 1527.91 621.156 C 1635.32 755.933 1684.42 928.048 1664.28 1099.21 C 1651.99 1204 1614.09 1304.15 1553.93 1390.82 C 1548.27 1399.03 1526.77 1429.02 1519.94 1435.26 C 1519.75 1434.23 1519.74 1432.94 1518.92 1432.18 C 1518.2 1432.04 1515.76 1436.04 1515.23 1437.1 C 1512.69 1442.2 1509.55 1438.35 1501.99 1440.46 C 1497.26 1437.52 1500.93 1434.49 1497.05 1431.01 C 1490.1 1424.79 1473.16 1428.76 1466.9 1435.03 L 1465.7 1436.18 C 1463.93 1436.67 1462.16 1438.66 1461.03 1438.41 C 1455.35 1437.14 1461.25 1435.2 1461.92 1433.93 C 1464.55 1428.96 1470.31 1425.94 1473.2 1421.37 C 1474.88 1418.7 1476.61 1416.75 1478.19 1414.38 L 1480.19 1411.39 C 1481.2 1409.78 1482.5 1408.17 1483.1 1406.3 C 1484.73 1401.24 1491.59 1398.56 1490.94 1392.27 C 1490.65 1389.43 1489.83 1388.13 1488.69 1385.49 C 1488.47 1384.97 1491.57 1379.01 1492.11 1378.1 C 1495.78 1375.38 1497.07 1373.14 1499.62 1369.63 C 1502.34 1365.88 1505.49 1363.25 1507.07 1358.42 C 1507.87 1355.39 1510.72 1355.07 1510.63 1352.93 L 1510.31 1352.76 C 1507.93 1353.89 1509.12 1354.03 1506.37 1354.52 C 1684.29 1095.74 1625.21 742.522 1372.76 555.73 C 1120.31 368.938 765.255 415.73 569.816 661.548 C 374.378 907.365 408.822 1263.83 647.711 1467.68 L 646.926 1468.78 C 646.684 1469.12 646.614 1469.18 646.626 1469.55 C 650.11 1471.66 652.092 1475.03 655.533 1476.92 C 656.415 1477.41 657.41 1478.27 657.83 1479.21 C 658.333 1480.19 659.697 1480.43 660.486 1480.97 C 661.042 1481.34 661.585 1481.49 661.999 1482.02 C 662.379 1482.76 663.301 1481.88 663.71 1482.45 C 664.066 1482.95 664.563 1483.47 665.004 1483.79 C 666.939 1485.22 666.573 1488.12 664.869 1489.59 C 664.609 1490.02 664.349 1490.44 664.089 1490.87 C 664.165 1490.9 664.241 1490.94 664.317 1490.97 C 664.099 1494.84 654.822 1492.57 653.738 1493.49 C 652.985 1493.45 653.183 1493.43 652.443 1492.93 C 652.245 1493.07 645.775 1493.06 645.032 1493.1 C 637.705 1493.5 642.121 1496.48 638.753 1500.49 C 639.121 1500.88 639.63 1501.02 639.888 1501.5 C 639.691 1501.84 639.832 1501.71 639.448 1501.88 C 636.943 1501.46 637.433 1507.25 632.558 1508.35 C 625.016 1510.06 615.364 1496.56 608.781 1491.3 L 608.329 1490.94 C 602.584 1487.12 582.456 1460.07 573.467 1457.06 C 572.037 1456.24 571.438 1452.46 568.972 1451.52 C 568.099 1451.82 568.128 1452.71 567.72 1453.44 C 567.193 1453.64 566.686 1452.82 566.496 1452.43 C 566.618 1451.01 569.495 1451.33 564.426 1447.15 C 564.118 1446.89 563.42 1445.92 563.079 1446.66 C 561.676 1449.71 561.344 1445.28 559.538 1444.8 C 558.385 1445.8 559.591 1447.99 558.301 1449.04 C 558.043 1449.25 558 1450.18 558.158 1450.48 C 559.32 1451.94 561.478 1452.51 562.232 1454.38 C 562.49 1455.02 562.985 1455.51 563.538 1455.84 L 564.044 1455.77 C 564.354 1455.28 564.411 1454.76 564.646 1454.26 C 564.527 1454.21 567.03 1456.96 567.784 1457.54 C 567.931 1458.35 567.602 1458.54 567.223 1459.33 C 567.473 1459.73 570.643 1463.66 571.34 1463.53 L 571.326 1463.36 C 571.732 1463.64 579.229 1472.26 579.208 1472.19 C 578.467 1473 575.054 1469.77 572.889 1469.24 C 571.213 1467.15 568.468 1464.05 566.067 1463.33 C 557.705 1460.84 556.047 1450.75 551.229 1446.11 C 550.223 1445.14 543.713 1447.12 538.693 1441.53 C 537.704 1430.35 524.032 1428.43 527.985 1418.95 C 531.641 1419.77 552.478 1443.68 556.23 1448.19 L 557.427 1448.13 L 557.276 1445.29 C 555.3 1441.52 528.969 1411.58 524.536 1409.87 L 523.93 1410.61 C 525.234 1413.44 525.506 1413.91 526.285 1417.04 C 523.811 1417.94 520.841 1417.55 519.01 1415.62 C 520.078 1413.26 520.531 1412.23 521.28 1409.77 C 519.923 1407.46 519.903 1407.67 517.415 1406.55 C 514.406 1407.32 514.344 1407.64 511.436 1406.84 C 507.891 1403.55 506.91 1396.45 501.224 1390.57 L 497.61 1386.82 L 496.351 1388.99 z" fill="url(#Gradient2)" transform="translate(0,0)"></path>
<path d="M 1373.9 1492 C 1378.49 1494.17 1416.75 1457.84 1422.3 1453.8 C 1426.75 1450.55 1443.96 1431.68 1446.75 1430.52 L 1446.94 1430.6 C 1448.1 1435.6 1440.39 1438.74 1439.26 1440.64 C 1437.21 1444.09 1412.52 1471.05 1412.52 1470.82 C 1413.38 1471.36 1414.62 1470.64 1415.47 1471.2 C 1415.45 1471.78 1402.78 1483.62 1401.36 1488.25 C 1398.35 1498.1 1408.48 1487.5 1410 1486 C 1411.14 1477.76 1430.37 1459.47 1436.77 1453.95 L 1436.67 1455.91 C 1436.47 1460.73 1425.27 1472.17 1421.59 1475.4 C 1415.86 1480.44 1425.21 1481.38 1425.76 1476.43 C 1430.34 1475.93 1431.47 1475.17 1435.49 1474.54 C 1435.25 1474.79 1435.01 1475.04 1434.77 1475.29 L 1434.77 1475.43 C 1435.75 1475.33 1436.63 1474.73 1437.43 1474.83 C 1437.94 1476.32 1434.11 1478.87 1432.79 1480.31 C 1431.92 1481.08 1432 1481.29 1431.46 1482.58 L 1432.61 1482.55 C 1436.18 1482.51 1436.1 1482.67 1439.36 1481.29 L 1439.96 1481.13 C 1449.18 1481.78 1442.34 1480.43 1451.9 1482.91 L 1452.26 1484.63 C 1451.11 1487.64 1446.74 1490.96 1445.35 1493.44 C 1444.08 1495.71 1439.4 1495.79 1440.31 1497.76 C 1442.75 1498.62 1467.42 1483.23 1470.54 1481.57 C 1475.24 1479.08 1483.48 1468.06 1486.05 1469.6 C 1485.88 1470.35 1478.5 1477.12 1476.24 1481.99 C 1448.39 1511.56 1415.87 1536.97 1382.31 1559.72 C 1279.14 1629.65 1167.35 1665.74 1042.7 1669.35 C 980.336 1670.95 918.073 1663.44 857.882 1647.04 C 849.23 1644.67 830.866 1639.55 823.031 1635.98 L 824.827 1635.22 C 821.456 1634.43 807.041 1628.45 802.286 1626.71 C 749.872 1607.51 704.356 1582.27 658.984 1549.97 L 659.017 1548.91 C 666.043 1547.49 696.522 1567.82 704.8 1572.29 C 732.328 1587.16 761.045 1598.9 790.732 1608.7 C 800.202 1611.82 809.177 1616.74 819.874 1618.34 C 816.698 1616.22 790.944 1607.89 785.597 1605.98 C 768.532 1599.88 752.151 1590.95 735.522 1584.71 C 703.069 1572.54 681.376 1548.73 648.329 1539.11 C 647.963 1536.47 647.86 1536.69 649.148 1534.46 C 671.157 1546.12 694.906 1551.54 717.312 1563.42 C 726.937 1568.52 745.468 1568.24 749.302 1554.14 C 750.868 1554.47 752.015 1555.25 753.604 1555.85 C 762.009 1559.03 757.961 1557.78 762.526 1556.28 C 763.361 1557.28 764.139 1557.83 765.384 1558.2 C 762.266 1565.74 773.503 1563.13 777.703 1567.2 C 779.94 1569.37 782.673 1571.07 785.207 1572.92 C 790.162 1573.08 797.18 1571.04 798.611 1577.31 C 799.977 1584.03 809.312 1578.55 813.381 1583.16 C 814.869 1584.84 828.864 1592.44 830.546 1589.45 L 830.493 1589.29 C 829.108 1588.07 821.005 1587.56 818.571 1583.85 C 814.178 1577.16 804.342 1579.7 799.61 1574.71 C 795.818 1570.71 791.388 1571.34 785.908 1570.22 C 784.127 1568.34 779.599 1562.28 777.442 1562.37 C 770.028 1562.68 767.254 1553.48 763.455 1552.97 C 756.426 1552.03 755.402 1548.12 757.138 1541.42 C 955.224 1644.43 1194.75 1625.24 1373.9 1492 z M 832.273 1609.87 C 834.87 1610.03 849.659 1609.92 841.991 1605.37 C 840.211 1605.65 821.654 1606.95 832.273 1609.87 z" fill="url(#Gradient1)" transform="translate(0,0)"></path>
<path d="M 841.991 1605.37 C 849.659 1609.92 834.87 1610.03 832.273 1609.87 C 821.654 1606.95 840.211 1605.65 841.991 1605.37 z" fill="rgb(240,233,216)" fill-opacity="0.0705882" transform="translate(0,0)"></path>
<path d="M 596.255 1499.98 C 596.531 1494.98 595.849 1492.76 600.786 1490.88 C 604.54 1491.67 604.653 1492.04 607.715 1494.21 C 623.544 1509.45 634.088 1520.29 656.233 1526.46 C 657.097 1526.7 656.944 1527.14 657.733 1526.79 L 657.852 1526.51 C 649.466 1516.42 657.386 1522.58 660.732 1514.36 C 662.062 1511.09 660.141 1504.04 664.997 1505.57 C 667.811 1506.98 665.724 1509.99 671.921 1509.42 C 676.959 1508.96 674.959 1511.6 678.319 1504.48 C 679.105 1502.81 683.038 1499.23 685.069 1499.16 C 686.321 1499.38 688.088 1501.69 689.908 1502.84 C 689.453 1504.26 687.143 1507.51 688.334 1508.25 C 692.939 1508.29 692.23 1505.64 695.009 1504.03 C 701.683 1508.63 708.453 1513.1 715.314 1517.42 C 712.148 1523.04 711.782 1530.51 720.191 1527.58 C 724.827 1525.97 722.344 1525.86 725.246 1523.54 C 730.866 1526.93 736.543 1530.22 742.274 1533.41 C 741.641 1534.8 740.175 1543.34 743.036 1544.36 C 750.16 1546.91 747.979 1547.86 749.302 1554.14 C 745.468 1568.24 726.937 1568.52 717.312 1563.42 C 694.906 1551.54 671.157 1546.12 649.148 1534.46 C 645.541 1529.09 624.787 1520.8 621.744 1511.58 C 622.292 1513.24 616.45 1505.24 616.622 1505.46 L 615.625 1504.17 C 609.16 1502.15 603.083 1498.38 596.255 1499.98 z" fill="rgb(240,233,216)" fill-opacity="0.415686" transform="translate(0,0)"></path>
<path d="M 1465.7 1436.18 L 1466.9 1435.03 C 1473.16 1428.76 1490.1 1424.79 1497.05 1431.01 C 1500.93 1434.49 1497.26 1437.52 1501.99 1440.46 C 1501.2 1440.63 1499.82 1440.71 1499.2 1441.33 C 1500 1444.99 1486.01 1453 1486.3 1455.01 C 1487.27 1455.88 1496.86 1453.99 1498.65 1451.23 C 1500.65 1448.13 1502.42 1452.13 1503.05 1454.29 C 1501.06 1456.65 1496.11 1462.66 1493.7 1464.25 C 1488.44 1456.15 1476.82 1472.7 1468.17 1471.52 C 1467.45 1471.42 1458.85 1482.74 1452.26 1484.63 L 1451.9 1482.91 C 1448.85 1477.32 1444.75 1478.05 1439.96 1481.13 L 1439.36 1481.29 C 1436.82 1480.81 1435.33 1480.47 1432.79 1480.31 C 1434.11 1478.87 1437.94 1476.32 1437.43 1474.83 C 1436.63 1474.73 1435.75 1475.33 1434.77 1475.43 L 1434.77 1475.29 C 1435.01 1475.04 1435.25 1474.79 1435.49 1474.54 C 1437.32 1473.04 1438.68 1470.83 1441.15 1470.19 C 1445.15 1469.17 1450.61 1465.91 1453.1 1462.8 L 1452.75 1461.95 C 1451.35 1458.52 1449.62 1462.14 1448.09 1461.3 C 1447.81 1460.37 1448.51 1459.53 1448.5 1458.59 L 1448.39 1458.48 C 1447.01 1458.2 1445.64 1459.22 1444.25 1458.87 L 1444.12 1458.58 C 1446.5 1453.9 1450.56 1454.72 1451.56 1452.42 L 1451.5 1452.39 C 1452.17 1449.41 1453.21 1448.32 1455.62 1446.74 C 1458.18 1446.67 1462.54 1446.31 1464.87 1445.09 C 1466.11 1444.44 1466.43 1442.84 1466.41 1441.54 C 1466.38 1438.93 1471.39 1437.81 1471.41 1435.81 C 1470.6 1434.83 1468.71 1435.62 1467.55 1435.89 L 1465.7 1436.18 z" fill="rgb(240,233,216)" fill-opacity="0.517647" transform="translate(0,0)"></path>
<path d="M 647.711 1467.68 C 662.846 1480.59 678.633 1492.73 695.009 1504.03 C 692.23 1505.64 692.939 1508.29 688.334 1508.25 C 687.143 1507.51 689.453 1504.26 689.908 1502.84 C 688.088 1501.69 686.321 1499.38 685.069 1499.16 C 683.038 1499.23 679.105 1502.81 678.319 1504.48 C 674.959 1511.6 676.959 1508.96 671.921 1509.42 C 665.724 1509.99 667.811 1506.98 664.997 1505.57 C 660.141 1504.04 662.062 1511.09 660.732 1514.36 C 657.386 1522.58 649.466 1516.42 657.852 1526.51 L 657.733 1526.79 C 656.944 1527.14 657.097 1526.7 656.233 1526.46 C 634.088 1520.29 623.544 1509.45 607.715 1494.21 L 608.329 1490.94 L 608.781 1491.3 C 615.364 1496.56 625.016 1510.06 632.558 1508.35 C 637.433 1507.25 636.943 1501.46 639.448 1501.88 C 639.832 1501.71 639.691 1501.84 639.888 1501.5 C 639.63 1501.02 639.121 1500.88 638.753 1500.49 C 642.121 1496.48 637.705 1493.5 645.032 1493.1 C 645.775 1493.06 652.245 1493.07 652.443 1492.93 C 653.183 1493.43 652.985 1493.45 653.738 1493.49 C 654.822 1492.57 664.099 1494.84 664.317 1490.97 C 664.241 1490.94 664.165 1490.9 664.089 1490.87 C 664.349 1490.44 664.609 1490.02 664.869 1489.59 C 666.573 1488.12 666.939 1485.22 665.004 1483.79 C 664.563 1483.47 664.066 1482.95 663.71 1482.45 C 663.301 1481.88 662.379 1482.76 661.999 1482.02 C 661.585 1481.49 661.042 1481.34 660.486 1480.97 C 659.697 1480.43 658.333 1480.19 657.83 1479.21 C 657.41 1478.27 656.415 1477.41 655.533 1476.92 C 652.092 1475.03 650.11 1471.66 646.626 1469.55 C 646.614 1469.18 646.684 1469.12 646.926 1468.78 L 647.711 1467.68 z" fill="rgb(240,233,216)" fill-opacity="0.666667" transform="translate(0,0)"></path>
<path d="M 496.351 1388.99 L 497.61 1386.82 L 501.224 1390.57 C 506.91 1396.45 507.891 1403.55 511.436 1406.84 C 514.344 1407.64 514.406 1407.32 517.415 1406.55 C 519.903 1407.67 519.923 1407.46 521.28 1409.77 C 520.531 1412.23 520.078 1413.26 519.01 1415.62 C 520.841 1417.55 523.811 1417.94 526.285 1417.04 C 525.506 1413.91 525.234 1413.44 523.93 1410.61 L 524.536 1409.87 C 528.969 1411.58 555.3 1441.52 557.276 1445.29 L 557.427 1448.13 L 556.23 1448.19 C 552.478 1443.68 531.641 1419.77 527.985 1418.95 C 524.032 1428.43 537.704 1430.35 538.693 1441.53 C 543.713 1447.12 550.223 1445.14 551.229 1446.11 C 556.047 1450.75 557.705 1460.84 566.067 1463.33 C 568.468 1464.05 571.213 1467.15 572.889 1469.24 C 572.229 1471.37 577.954 1476.91 580.047 1477.43 C 580.931 1477.11 580.597 1476.84 581.452 1476.51 C 582.866 1477.33 593.703 1483.06 593.823 1480.57 C 590.656 1474.42 575.487 1475.3 573.467 1457.06 C 582.456 1460.07 602.584 1487.12 608.329 1490.94 L 607.715 1494.21 C 604.653 1492.04 604.54 1491.67 600.786 1490.88 C 595.849 1492.76 596.531 1494.98 596.255 1499.98 L 595.926 1501.75 C 568.948 1481.09 514.812 1417.36 496.351 1388.99 z" fill="rgb(240,233,216)" fill-opacity="0.6" transform="translate(0,0)"></path>
<path d="M 641.588 1539.44 L 648.329 1539.11 C 681.376 1548.73 703.069 1572.54 735.522 1584.71 C 752.151 1590.95 768.532 1599.88 785.597 1605.98 C 790.944 1607.89 816.698 1616.22 819.874 1618.34 C 809.177 1616.74 800.202 1611.82 790.732 1608.7 C 761.045 1598.9 732.328 1587.16 704.8 1572.29 C 696.522 1567.82 666.043 1547.49 659.017 1548.91 L 658.984 1549.97 C 704.356 1582.27 749.872 1607.51 802.286 1626.71 C 807.041 1628.45 821.456 1634.43 824.827 1635.22 L 823.031 1635.98 C 814.56 1634.16 796.936 1626.53 788.489 1623.2 C 736.585 1602.7 685.698 1573.82 641.588 1539.44 z" fill="rgb(240,229,212)" fill-opacity="0.0823529" transform="translate(0,0)"></path>
<path d="M 1460.13 1413.3 C 1465 1417.08 1466.3 1414.48 1464.49 1420.32 C 1462.29 1427.46 1458.23 1430.01 1453.86 1436 C 1449.66 1440.63 1439.83 1449.51 1436.77 1453.95 C 1430.37 1459.47 1411.14 1477.76 1410 1486 C 1408.48 1487.5 1398.35 1498.1 1401.36 1488.25 C 1402.78 1483.62 1415.45 1471.78 1415.47 1471.2 C 1414.62 1470.64 1413.38 1471.36 1412.52 1470.82 C 1412.52 1471.05 1437.21 1444.09 1439.26 1440.64 C 1440.39 1438.74 1448.1 1435.6 1446.94 1430.6 L 1446.75 1430.52 C 1443.96 1431.68 1426.75 1450.55 1422.3 1453.8 C 1416.75 1457.84 1378.49 1494.17 1373.9 1492 C 1405.21 1468.72 1434.1 1442.35 1460.13 1413.3 z" fill="rgb(240,233,216)" fill-opacity="0.0941176" transform="translate(0,0)"></path>
<path d="M 595.926 1501.75 L 596.255 1499.98 C 603.083 1498.38 609.16 1502.15 615.625 1504.17 L 616.622 1505.46 C 616.45 1505.24 622.292 1513.24 621.744 1511.58 C 624.787 1520.8 645.541 1529.09 649.148 1534.46 C 647.86 1536.69 647.963 1536.47 648.329 1539.11 L 641.588 1539.44 C 632.761 1534.81 604.778 1508.83 595.926 1501.75 z" fill="rgb(240,229,212)" fill-opacity="0.203922" transform="translate(0,0)"></path>
<path d="M 1506.37 1354.52 C 1509.12 1354.03 1507.93 1353.89 1510.31 1352.76 L 1510.63 1352.93 C 1510.72 1355.07 1507.87 1355.39 1507.07 1358.42 C 1505.49 1363.25 1502.34 1365.88 1499.62 1369.63 C 1497.07 1373.14 1495.78 1375.38 1492.11 1378.1 C 1491.57 1379.01 1488.47 1384.97 1488.69 1385.49 C 1489.83 1388.13 1490.65 1389.43 1490.94 1392.27 C 1491.59 1398.56 1484.73 1401.24 1483.1 1406.3 C 1482.5 1408.17 1481.2 1409.78 1480.19 1411.39 L 1478.19 1414.38 C 1476.61 1416.75 1474.88 1418.7 1473.2 1421.37 C 1470.31 1425.94 1464.55 1428.96 1461.92 1433.93 C 1461.25 1435.2 1455.35 1437.14 1461.03 1438.41 C 1462.16 1438.66 1463.93 1436.67 1465.7 1436.18 L 1467.55 1435.89 C 1468.71 1435.62 1470.6 1434.83 1471.41 1435.81 C 1471.39 1437.81 1466.38 1438.93 1466.41 1441.54 C 1466.43 1442.84 1466.11 1444.44 1464.87 1445.09 C 1462.54 1446.31 1458.18 1446.67 1455.62 1446.74 C 1456.43 1446.04 1456.47 1446.21 1456.64 1445.47 L 1456.56 1445.42 C 1456.72 1443.86 1456.74 1442.89 1455.7 1441.58 C 1454.26 1441.68 1451.72 1445.52 1450.36 1444.49 C 1450.63 1443.09 1454.49 1437.87 1455.47 1436.17 C 1464.44 1427.18 1472.99 1417.31 1479.19 1406.18 C 1479.97 1404.97 1490.34 1391.25 1485.65 1389.6 C 1484.99 1389.37 1478.2 1394.33 1475.47 1395.47 C 1486.37 1382.28 1496.68 1368.62 1506.37 1354.52 z" fill="rgb(240,233,216)" fill-opacity="0.682353" transform="translate(0,0)"></path>
<path d="M 742.274 1533.41 C 747.19 1536.15 752.145 1538.82 757.138 1541.42 C 755.402 1548.12 756.426 1552.03 763.455 1552.97 C 767.254 1553.48 770.028 1562.68 777.442 1562.37 C 779.599 1562.28 784.127 1568.34 785.908 1570.22 C 791.388 1571.34 795.818 1570.71 799.61 1574.71 C 804.342 1579.7 814.178 1577.16 818.571 1583.85 C 821.005 1587.56 829.108 1588.07 830.493 1589.29 L 830.546 1589.45 C 828.864 1592.44 814.869 1584.84 813.381 1583.16 C 809.312 1578.55 799.977 1584.03 798.611 1577.31 C 797.18 1571.04 790.162 1573.08 785.207 1572.92 C 782.673 1571.07 779.94 1569.37 777.703 1567.2 C 773.503 1563.13 762.266 1565.74 765.384 1558.2 C 764.139 1557.83 763.361 1557.28 762.526 1556.28 C 757.961 1557.78 762.009 1559.03 753.604 1555.85 C 752.015 1555.25 750.868 1554.47 749.302 1554.14 C 747.979 1547.86 750.16 1546.91 743.036 1544.36 C 740.175 1543.34 741.641 1534.8 742.274 1533.41 z" fill="rgb(240,229,212)" fill-opacity="0.172549" transform="translate(0,0)"></path>
<path d="M 1452.26 1484.63 C 1458.85 1482.74 1467.45 1471.42 1468.17 1471.52 C 1476.82 1472.7 1488.44 1456.15 1493.7 1464.25 C 1488.99 1469.61 1481.65 1477.43 1476.24 1481.99 C 1478.5 1477.12 1485.88 1470.35 1486.05 1469.6 C 1483.48 1468.06 1475.24 1479.08 1470.54 1481.57 C 1467.42 1483.23 1442.75 1498.62 1440.31 1497.76 C 1439.4 1495.79 1444.08 1495.71 1445.35 1493.44 C 1446.74 1490.96 1451.11 1487.64 1452.26 1484.63 z" fill="rgb(240,229,212)" fill-opacity="0.313725" transform="translate(0,0)"></path>
<path d="M 1453.86 1436 L 1455.47 1436.17 C 1454.49 1437.87 1450.63 1443.09 1450.36 1444.49 C 1451.72 1445.52 1454.26 1441.68 1455.7 1441.58 C 1456.74 1442.89 1456.72 1443.86 1456.56 1445.42 L 1456.64 1445.47 C 1456.47 1446.21 1456.43 1446.04 1455.62 1446.74 C 1453.21 1448.32 1452.17 1449.41 1451.5 1452.39 L 1451.56 1452.42 C 1450.56 1454.72 1446.5 1453.9 1444.12 1458.58 L 1444.25 1458.87 C 1445.64 1459.22 1447.01 1458.2 1448.39 1458.48 L 1448.5 1458.59 C 1448.51 1459.53 1447.81 1460.37 1448.09 1461.3 C 1449.62 1462.14 1451.35 1458.52 1452.75 1461.95 L 1453.1 1462.8 C 1442.7 1463.34 1431.45 1467.45 1425.76 1476.43 C 1425.21 1481.38 1415.86 1480.44 1421.59 1475.4 C 1425.27 1472.17 1436.47 1460.73 1436.67 1455.91 L 1436.77 1453.95 C 1439.83 1449.51 1449.66 1440.63 1453.86 1436 z" fill="rgb(240,233,216)" fill-opacity="0.494118" transform="translate(0,0)"></path>
<path d="M 1473.18 1398.23 C 1475.24 1397.9 1480.07 1395.62 1480.32 1395.84 C 1482.82 1398.11 1479.51 1401.4 1479.19 1406.18 C 1472.99 1417.31 1464.44 1427.18 1455.47 1436.17 L 1453.86 1436 C 1458.23 1430.01 1462.29 1427.46 1464.49 1420.32 C 1466.3 1414.48 1465 1417.08 1460.13 1413.3 C 1464.57 1408.35 1468.92 1403.33 1473.18 1398.23 z" fill="rgb(240,233,216)" fill-opacity="0.509804" transform="translate(0,0)"></path>
<path d="M 1501.99 1440.46 C 1509.55 1438.35 1512.69 1442.2 1515.23 1437.1 C 1515.76 1436.04 1518.2 1432.04 1518.92 1432.18 C 1519.74 1432.94 1519.75 1434.23 1519.94 1435.26 C 1516.89 1438.82 1506.09 1451.93 1503.05 1454.29 C 1502.42 1452.13 1500.65 1448.13 1498.65 1451.23 C 1496.86 1453.99 1487.27 1455.88 1486.3 1455.01 C 1486.01 1453 1500 1444.99 1499.2 1441.33 C 1499.82 1440.71 1501.2 1440.63 1501.99 1440.46 z" fill="rgb(240,229,212)" fill-opacity="0.588235" transform="translate(0,0)"></path>
<path d="M 572.889 1469.24 C 575.054 1469.77 578.467 1473 579.208 1472.19 C 579.229 1472.26 571.732 1463.64 571.326 1463.36 L 571.34 1463.53 C 570.643 1463.66 567.473 1459.73 567.223 1459.33 C 567.602 1458.54 567.931 1458.35 567.784 1457.54 C 567.03 1456.96 564.527 1454.21 564.646 1454.26 C 564.411 1454.76 564.354 1455.28 564.044 1455.77 L 563.538 1455.84 C 562.985 1455.51 562.49 1455.02 562.232 1454.38 C 561.478 1452.51 559.32 1451.94 558.158 1450.48 C 558 1450.18 558.043 1449.25 558.301 1449.04 C 559.591 1447.99 558.385 1445.8 559.538 1444.8 C 561.344 1445.28 561.676 1449.71 563.079 1446.66 C 563.42 1445.92 564.118 1446.89 564.426 1447.15 C 569.495 1451.33 566.618 1451.01 566.496 1452.43 C 566.686 1452.82 567.193 1453.64 567.72 1453.44 C 568.128 1452.71 568.099 1451.82 568.972 1451.52 C 571.438 1452.46 572.037 1456.24 573.467 1457.06 C 575.487 1475.3 590.656 1474.42 593.823 1480.57 C 593.703 1483.06 582.866 1477.33 581.452 1476.51 C 580.597 1476.84 580.931 1477.11 580.047 1477.43 C 577.954 1476.91 572.229 1471.37 572.889 1469.24 z" fill="rgb(240,233,216)" fill-opacity="0.705882" transform="translate(0,0)"></path>
<path d="M 1425.76 1476.43 C 1431.45 1467.45 1442.7 1463.34 1453.1 1462.8 C 1450.61 1465.91 1445.15 1469.17 1441.15 1470.19 C 1438.68 1470.83 1437.32 1473.04 1435.49 1474.54 C 1431.47 1475.17 1430.34 1475.93 1425.76 1476.43 z" fill="rgb(240,233,216)" fill-opacity="0.407843" transform="translate(0,0)"></path>
<path d="M 725.246 1523.54 C 722.344 1525.86 724.827 1525.97 720.191 1527.58 C 711.782 1530.51 712.148 1523.04 715.314 1517.42 C 718.604 1519.49 721.915 1521.54 725.246 1523.54 z" fill="rgb(240,229,212)" fill-opacity="0.254902" transform="translate(0,0)"></path>
<path d="M 1475.47 1395.47 C 1478.2 1394.33 1484.99 1389.37 1485.65 1389.6 C 1490.34 1391.25 1479.97 1404.97 1479.19 1406.18 C 1479.51 1401.4 1482.82 1398.11 1480.32 1395.84 C 1480.07 1395.62 1475.24 1397.9 1473.18 1398.23 C 1473.95 1397.32 1474.71 1396.4 1475.47 1395.47 z" fill="rgb(240,233,216)" fill-opacity="0.603922" transform="translate(0,0)"></path>
<path d="M 1439.96 1481.13 C 1444.75 1478.05 1448.85 1477.32 1451.9 1482.91 C 1442.34 1480.43 1449.18 1481.78 1439.96 1481.13 z" fill="rgb(240,233,216)" fill-opacity="0.301961" transform="translate(0,0)"></path>
<path d="M 1432.79 1480.31 C 1435.33 1480.47 1436.82 1480.81 1439.36 1481.29 C 1436.1 1482.67 1436.18 1482.51 1432.61 1482.55 L 1431.46 1482.58 C 1432 1481.29 1431.92 1481.08 1432.79 1480.31 z" fill="rgb(240,233,216)" fill-opacity="0.305882" transform="translate(0,0)"></path>
<metadata><recraft-signature>{"signed_by": "recraft", "signature_b64": "aXiUpEH60miE+ZMu0MOcZklB+sOyledU5X+wbnTgskGmTClXo0nt6xOOqgBf1KP2hGShR2qXtlH157pvFsh6BQ==", "signing_algo": "Ed25519", "generation_timestamp": 1781914878, "identifier": "a496def7-9068-4e64-b669-3d3af543ae65"}</recraft-signature></metadata></svg>