<svg xmlns="http://www.w3.org/2000/svg" height="1024" preserveAspectRatio="none" style="display: block;" version="1.1" viewBox="0 0 2048 2048" width="1024">
<defs>
	<linearGradient gradientUnits="userSpaceOnUse" id="Gradient1" x1="391.268" x2="395.252" y1="1440.21" y2="1446.08">
		<stop class="stop0" offset="0" stop-color="rgb(227,218,194)" stop-opacity="0.454902"></stop>
		<stop class="stop1" offset="1" stop-color="rgb(229,220,196)" stop-opacity="0.490196"></stop>
	</linearGradient>
	<linearGradient gradientUnits="userSpaceOnUse" id="Gradient2" x1="426.033" x2="445.949" y1="1152.66" y2="1151.1">
		<stop class="stop0" offset="0" stop-color="rgb(229,219,198)" stop-opacity="0.4"></stop>
		<stop class="stop1" offset="1" stop-color="rgb(230,220,197)" stop-opacity="0.482353"></stop>
	</linearGradient>
</defs>
<path d="M 1009.25 302.324 C 1075.88 293.124 1193.12 351.332 1203.46 424.433 C 1210.36 473.236 1160.98 519.788 1121.37 539.216 C 1110.52 544.539 1098.4 548.389 1086.79 552.136 C 1087.82 596.609 1091.23 637.094 1095.9 681.432 C 1105.88 776.004 1120.1 871.174 1160.04 958.454 C 1167.5 974.743 1196.89 1025.4 1213.1 1031.18 C 1223.92 1030.08 1238.19 1008.15 1245.19 1000.03 C 1288.42 949.848 1315.91 890.119 1343.23 830.428 C 1348.09 819.815 1351.9 806.742 1355.34 795.327 C 1323.3 776.744 1293.93 749.525 1290.89 710.866 C 1286.18 650.987 1362.59 612.888 1412.99 610.015 C 1459.16 607.384 1489.12 620.718 1523.53 649.01 C 1565.82 683.788 1584.14 735.401 1545.35 780.325 C 1525.14 803.551 1497.25 815.5 1466.07 817.193 C 1454.52 858.774 1445.73 919.788 1444.84 963.286 C 1445.84 989.706 1448.06 1031.02 1467.69 1050.92 C 1485.71 1069.17 1513.06 1055.55 1531.55 1045.21 C 1586.14 1014.67 1624.96 965.693 1666.26 919.957 C 1649.51 899.554 1637.12 881.739 1631.4 855.323 C 1617.48 791.053 1682.92 756.666 1738.8 757.074 C 1775.03 757.59 1809.53 772.665 1834.52 798.902 C 1870.32 835.935 1895.94 899.458 1851.2 940.342 C 1821.93 967.09 1791.5 969.045 1753.88 967.807 C 1739.7 992.92 1723.82 1033.74 1714.19 1060.63 C 1687.97 1133.81 1669.97 1211.97 1681.36 1289.92 C 1684.71 1312.88 1689.61 1331.09 1695.62 1353.54 C 1670.64 1344.45 1648.56 1336.12 1622.76 1328 C 1480.52 1283.2 1330.96 1261.74 1182.5 1251.72 C 1137.61 1248.69 1086.85 1248.46 1041.75 1248 C 810.853 1246.84 570.259 1271.42 352.812 1353.28 C 365.815 1311.83 375.631 1262.3 371.455 1218.62 C 363.602 1136.49 335.189 1037.26 294.687 965.48 C 264.879 970.228 230.595 965.698 205.564 948.027 C 189.377 936.682 178.447 919.289 175.248 899.782 C 164.472 835.429 230.642 766.538 291.874 758.72 C 341.397 752.397 409.579 772.395 418.542 829.266 C 424.07 864.337 402.38 894.273 382.966 920.134 C 421.908 961.207 452.006 1001 498.92 1034.58 C 516.288 1047.01 541.829 1063.04 564.284 1058.79 C 574.125 1056.92 581.982 1051.24 587.483 1042.96 C 615.795 1000.31 595.445 868.058 586.073 818.334 C 581.043 817.729 575.791 817.114 570.805 816.286 C 540.423 811.26 513.344 794.214 495.675 768.993 C 449.616 703.932 523.862 635.318 583.119 616.294 C 636.231 599.242 715.093 621.616 746.601 668.765 C 756.687 683.656 760.302 702.001 756.618 719.605 C 748.681 757.516 723.852 775.921 694.282 795.187 C 698.222 813.405 718.81 863.794 727.662 880.664 C 748.89 921.116 796.884 1006.62 835.17 1031.63 C 861.1 1015.9 889.656 958.021 900.277 929.572 C 943.341 814.217 959.216 675.045 960.044 552.262 C 938.068 545.794 917.392 535.536 898.946 521.953 C 770.063 426.824 897.467 316.679 1009.25 302.324 z M 955.591 1040.18 C 972.214 1018.57 984.102 989.646 993.805 964.337 C 994.055 963.796 994.306 963.255 994.557 962.713 C 995.852 957.055 998.778 949.523 1000.59 943.823 C 1015.32 897.463 1023.06 849.255 1030.05 801.202 C 1031.88 776.932 1035.04 760.717 1033.97 735.687 C 1032.48 730.963 1029.82 707.736 1029.09 701.495 C 1025.99 675.153 1023.62 648.864 1020.26 622.5 C 1020.62 618.029 1020.23 610.59 1020 605.954 L 1017.94 606.194 C 1018.01 613.231 1017.59 619.614 1017.87 626.79 C 1015.94 661.884 1011.39 696.744 1006.91 731.577 C 995.115 823.207 977.508 916.981 935.58 1000.15 C 916.503 1038 886.404 1087.35 839.671 1091.55 C 834.402 1092.02 827.822 1091.89 822.908 1092.71 C 875.413 1116.56 925.664 1082.57 955.591 1040.18 z M 1358.01 699.482 C 1355.55 705.736 1354.97 707.758 1357.41 713.585 C 1359.53 708.583 1360.54 704.499 1358.01 699.482 z M 446.229 1111.03 C 443.001 1105.43 423.277 1068.7 419.961 1066.16 C 419.092 1066.15 419.245 1066.67 418.554 1066.85 C 417.84 1061.93 419.405 1065.15 416.186 1060.67 C 413.548 1056.96 410.904 1052.79 408.367 1048.97 C 406.6 1047.31 398.473 1035.93 396.295 1033.06 C 395.852 1032.82 383.163 1022.45 382.497 1021.76 L 380.703 1022.11 C 383.443 1027.87 387.373 1037.96 389.767 1044.01 L 403.45 1078.89 C 404.092 1083.86 411.082 1101.96 413.066 1108.1 C 413.465 1109.79 413.982 1111.39 413.906 1113.13 C 414.283 1113.9 414.66 1114.67 415.037 1115.44 C 416.165 1119.28 416.945 1122.12 417.786 1126.08 C 418.196 1127.47 418.627 1128.86 419.079 1130.24 C 419.273 1134.92 420.8 1139.44 421.665 1144.02 C 421.938 1145.63 422.199 1146.84 422.566 1148.43 C 423.207 1151.73 423.861 1155.35 424.617 1158.6 C 425.459 1162.9 425.724 1166.01 426.367 1170.27 C 428.581 1195.44 431.04 1231.81 428.119 1257.07 C 427.863 1262.79 427.3 1267.93 426.805 1273.59 C 431.427 1272.49 435.262 1271.42 439.858 1270.1 L 442.059 1269.6 L 452.48 1266.2 C 458.014 1264.39 460.82 1264.04 463.315 1259.16 L 464.021 1259.06 C 464.321 1257.9 464.633 1256.74 464.958 1255.58 C 476.428 1231.23 473.583 1200.58 468.659 1175.01 L 467.73 1171.02 C 466.45 1165.57 464.953 1160.17 463.243 1154.84 C 461.691 1145.95 449.987 1119.67 446.229 1111.03 z M 543.287 1126.28 C 557.832 1135.21 565.449 1143.41 585.138 1145.42 C 586.624 1145.65 588.107 1145.9 589.586 1146.17 C 600.116 1143.93 611.019 1143.72 621.514 1141.16 C 622.347 1141.75 629.092 1138.97 627.098 1137.47 C 623.15 1134.5 604.968 1135.84 600.768 1135.91 C 597.78 1132.2 607.415 1129.73 607.264 1126 C 607.057 1120.89 626.784 1114.87 612.35 1112.47 C 608.512 1113.96 595.427 1120.76 591.511 1122.93 C 580.624 1126.4 565.352 1127.1 554 1126.14 C 550.537 1125.85 546.376 1124.91 543.287 1126.28 z M 662.937 931.615 C 662.789 938.243 662.981 946.58 663.777 953.152 C 663.905 952.245 664.207 948.502 664.538 947.86 C 665.589 951.089 665.989 960.529 668.31 962.696 C 667.643 963.203 671.421 959.099 671.126 959.805 C 670.602 958.849 665.482 954.988 671.854 955.879 C 678.196 959.369 679.248 953.707 681.563 955.68 C 681.633 956.331 681.562 956.646 681.469 957.33 C 682.115 958.119 684.263 957.452 684.712 956.824 C 688.664 951.296 683.559 945.023 683.339 937.733 C 682.701 935.8 681.858 934.169 680.519 932.644 C 678.236 927.307 661.442 883.907 659.661 883.62 C 657.125 885.66 662.641 925.989 662.937 931.615 z M 1698.03 824.395 L 1696.68 825.673 C 1691.91 830.13 1693.17 829.248 1689.89 833.865 C 1689.47 834.863 1689.03 835.857 1688.59 836.849 C 1688.4 835.976 1692.78 867.744 1696.14 852.315 C 1697.3 846.193 1697.19 842.309 1697.34 836.077 C 1699.35 834.091 1706.04 829.065 1704.47 825.238 C 1704.17 824.506 1699.17 824.545 1698.03 824.395 z" fill="rgb(189,113,11)" transform="translate(0,0)"></path>
<path d="M 1033.97 735.687 C 1037.4 741.012 1036.16 745.053 1037.37 748.989 C 1041.18 761.374 1034.59 753.778 1036.09 761.956 C 1039.5 767.679 1048.06 824.129 1050.8 837.482 C 1066.72 915.254 1135.89 1134.77 1248.57 1083.38 C 1289.96 1064.51 1363.28 944.879 1379.49 901.015 C 1377.77 896.49 1385.86 882.595 1388.97 878.109 C 1386.67 883.397 1389.34 884.882 1387.94 893.028 C 1378.36 948.629 1380.71 1002.78 1398.35 1056.59 C 1398.12 1057.06 1397.89 1057.53 1397.66 1058 C 1399.05 1062.2 1404.28 1075.12 1408.01 1077.23 L 1409.5 1078.19 C 1413.03 1080.39 1425.33 1091.85 1425.83 1096.16 C 1427.44 1098.47 1428.88 1099.25 1431.24 1100.81 C 1456.71 1117.61 1486.01 1121.29 1515.56 1115.19 C 1527.43 1112.67 1538.95 1108.72 1549.86 1103.42 C 1563.36 1096.92 1625.81 1057.42 1633.24 1046.03 L 1634.2 1044.52 C 1636.45 1040.84 1665.61 1013.33 1669.05 1012.92 C 1669.14 1013.18 1642.47 1087.97 1642.03 1088.31 C 1641.66 1088.23 1641.28 1088.14 1640.91 1088.06 C 1630.07 1120.99 1622.76 1156.3 1619.61 1190.83 C 1618.86 1199.03 1617.27 1232.89 1619.82 1239.08 C 1620.57 1238.67 1620.28 1238.76 1620.72 1238.68 C 1621.37 1239.42 1622.57 1254.9 1622.89 1257.51 C 1623.29 1260.7 1623.27 1267.71 1624.35 1271.5 C 1626.44 1277.4 1621.2 1277.2 1621.68 1274.98 C 1614.61 1272 1606.77 1269.37 1599.38 1267.23 C 1547.94 1252.3 1496.07 1237.82 1443.63 1227.2 C 1192.96 1174.74 934.698 1169.66 682.163 1212.2 C 614.542 1223.64 546.595 1238.64 480.553 1256.98 C 476.336 1258.15 468.489 1261.64 464.79 1261.22 L 464.021 1259.06 C 464.321 1257.9 464.633 1256.74 464.958 1255.58 C 476.428 1231.23 473.583 1200.58 468.659 1175.01 L 467.73 1171.02 C 466.45 1165.57 464.953 1160.17 463.243 1154.84 C 461.691 1145.95 449.987 1119.67 446.229 1111.03 C 443.001 1105.43 423.277 1068.7 419.961 1066.16 C 419.092 1066.15 419.245 1066.67 418.554 1066.85 C 417.84 1061.93 419.405 1065.15 416.186 1060.67 C 413.548 1056.96 410.904 1052.79 408.367 1048.97 C 409.631 1046.36 409.732 1046.49 412.512 1047.09 C 415.787 1052.24 427.305 1060.71 432.43 1064.8 C 461.54 1088.04 492.276 1109.51 528.04 1121.2 C 530.206 1121.91 542.323 1126.33 543.287 1126.28 C 557.832 1135.21 565.449 1143.41 585.138 1145.42 C 586.624 1145.65 588.107 1145.9 589.586 1146.17 C 600.116 1143.93 611.019 1143.72 621.514 1141.16 C 622.347 1141.75 629.092 1138.97 627.098 1137.47 C 623.15 1134.5 604.968 1135.84 600.768 1135.91 C 597.78 1132.2 607.415 1129.73 607.264 1126 C 607.057 1120.89 626.784 1114.87 612.35 1112.47 C 661.084 1077.18 664.496 1008.66 663.777 953.152 C 663.905 952.245 664.207 948.502 664.538 947.86 C 665.589 951.089 665.989 960.529 668.31 962.696 C 667.643 963.203 671.421 959.099 671.126 959.805 C 670.602 958.849 665.482 954.988 671.854 955.879 C 678.196 959.369 679.248 953.707 681.563 955.68 C 681.633 956.331 681.562 956.646 681.469 957.33 C 682.115 958.119 684.263 957.452 684.712 956.824 C 688.664 951.296 683.559 945.023 683.339 937.733 C 701.765 971.158 708.099 978.133 706.749 1019.1 C 706.558 1024.89 704.259 1040.54 704.359 1044.94 C 712.471 1034.13 705.077 993.421 706.888 980.421 C 709.726 983.538 710.521 984.597 712.459 988.24 C 718.073 998.797 726.509 1009.05 733.654 1018.64 C 751.621 1042.75 790.804 1090.01 822.908 1092.71 C 875.413 1116.56 925.664 1082.57 955.591 1040.18 C 972.214 1018.57 984.102 989.646 993.805 964.337 C 994.055 963.796 994.306 963.255 994.557 962.713 C 995.852 957.055 998.778 949.523 1000.59 943.823 C 1015.32 897.463 1023.06 849.255 1030.05 801.202 C 1031.88 776.932 1035.04 760.717 1033.97 735.687 z" fill="rgb(237,161,26)" transform="translate(0,0)"></path>
<path d="M 671.854 955.879 C 678.196 959.369 679.248 953.707 681.563 955.68 C 681.633 956.331 681.562 956.646 681.469 957.33 C 682.115 958.119 684.263 957.452 684.712 956.824 C 688.664 951.296 683.559 945.023 683.339 937.733 C 701.765 971.158 708.099 978.133 706.749 1019.1 C 706.558 1024.89 704.259 1040.54 704.359 1044.94 C 695.177 1084.08 687.349 1109.62 651.081 1133.39 C 634.99 1143.93 608.547 1150 589.586 1146.17 C 600.116 1143.93 611.019 1143.72 621.514 1141.16 C 622.347 1141.75 629.092 1138.97 627.098 1137.47 C 623.15 1134.5 604.968 1135.84 600.768 1135.91 C 597.78 1132.2 607.415 1129.73 607.264 1126 C 607.057 1120.89 626.784 1114.87 612.35 1112.47 C 661.084 1077.18 664.496 1008.66 663.777 953.152 C 663.905 952.245 664.207 948.502 664.538 947.86 C 665.589 951.089 665.989 960.529 668.31 962.696 C 667.643 963.203 671.421 959.099 671.126 959.805 C 670.602 958.849 665.482 954.988 671.854 955.879 z" fill="rgb(230,220,197)" transform="translate(0,0)"></path>
<path d="M 1379.49 901.015 C 1377.77 896.49 1385.86 882.595 1388.97 878.109 C 1386.67 883.397 1389.34 884.882 1387.94 893.028 C 1378.36 948.629 1380.71 1002.78 1398.35 1056.59 C 1398.12 1057.06 1397.89 1057.53 1397.66 1058 C 1393.93 1050.48 1390.03 1034.05 1388.07 1025.66 C 1376.42 975.903 1380.11 936.555 1386.66 887.195 C 1384.18 891.512 1381.77 896.537 1379.49 901.015 z" fill="rgb(158,93,11)" transform="translate(0,0)"></path>
<path d="M 1633.24 1046.03 L 1634.2 1044.52 C 1636.45 1040.84 1665.61 1013.33 1669.05 1012.92 C 1669.14 1013.18 1642.47 1087.97 1642.03 1088.31 C 1641.66 1088.23 1641.28 1088.14 1640.91 1088.06 C 1642.43 1082.58 1644.28 1077.41 1645.83 1072.02 C 1646.76 1068.88 1647.79 1065.78 1648.93 1062.72 C 1654.61 1047.52 1660.4 1031.74 1666.48 1016.71 C 1658.54 1024.05 1641.52 1041.4 1633.24 1046.03 z" fill="rgb(158,93,11)" transform="translate(0,0)"></path>
<path d="M 1033.97 735.687 C 1037.4 741.012 1036.16 745.053 1037.37 748.989 C 1041.18 761.374 1034.59 753.778 1036.09 761.956 C 1034.16 771.268 1034.15 793.605 1030.05 801.202 C 1031.88 776.932 1035.04 760.717 1033.97 735.687 z" fill="rgb(158,93,11)" transform="translate(0,0)"></path>
<path d="M 1619.82 1239.08 C 1620.57 1238.67 1620.28 1238.76 1620.72 1238.68 C 1621.37 1239.42 1622.57 1254.9 1622.89 1257.51 C 1623.29 1260.7 1623.27 1267.71 1624.35 1271.5 C 1626.44 1277.4 1621.2 1277.2 1621.68 1274.98 C 1622.64 1273.36 1619.99 1243.47 1619.82 1239.08 z" fill="rgb(121,67,11)" transform="translate(0,0)"></path>
<path d="M 1408.01 1077.23 L 1409.5 1078.19 C 1413.03 1080.39 1425.33 1091.85 1425.83 1096.16 C 1420.42 1093.71 1410.86 1082.72 1408.01 1077.23 z" fill="rgb(158,93,11)" transform="translate(0,0)"></path>
<path d="M 1019.7 362.442 C 1051.91 361.021 1084.1 374.911 1109.02 394.672 C 1130.05 411.343 1146.73 440.713 1124.77 464.175 C 1101.94 488.561 1060.59 495.066 1028.75 496.19 C 998.949 497.742 952.838 490.865 930.271 471.709 C 881.789 430.555 948.391 382.012 986.121 369.473 C 999.168 365.136 1006.66 363.301 1019.7 362.442 z" fill="rgb(230,220,197)" transform="translate(0,0)"></path>
<path d="M 995.035 909.552 C 997.802 914.607 997.663 920.19 996.616 925.781 C 993.821 919.831 993.777 915.823 995.035 909.552 z" fill="rgb(230,220,197)" fill-opacity="0.219608" transform="translate(0,0)"></path>
<path d="M 1408.63 669.31 C 1433.03 665.442 1463.71 674.973 1482.85 690.053 C 1498.52 702.397 1515.44 726.998 1499.58 745.627 C 1488.05 759.173 1468.47 761.363 1452.02 762.945 C 1427.14 763.419 1395.82 760.318 1375.4 745.234 C 1323.11 706.604 1365.36 676.458 1408.63 669.31 z M 1357.41 713.585 C 1359.53 708.583 1360.54 704.499 1358.01 699.482 C 1355.55 705.736 1354.97 707.758 1357.41 713.585 z" fill="rgb(230,220,197)" transform="translate(0,0)"></path>
<path d="M 1358.01 699.482 C 1360.54 704.499 1359.53 708.583 1357.41 713.585 C 1354.97 707.758 1355.55 705.736 1358.01 699.482 z" fill="rgb(230,220,197)" fill-opacity="0.639216" transform="translate(0,0)"></path>
<path d="M 616.721 669.279 C 647.355 666.851 688.129 675.868 697.185 709.712 C 689.784 744.95 656.269 757.422 624.246 761.837 C 602.924 763.483 573.442 763.1 555.317 751.426 C 523.595 729.965 551.634 697.21 574.932 683.861 C 589.204 675.683 600.712 672.105 616.721 669.279 z" fill="rgb(230,220,197)" transform="translate(0,0)"></path>
<path d="M 309.156 815.403 C 313.926 814.888 318.257 815.285 322.955 815.742 C 379.755 821.266 364.308 867.77 330.009 891.436 C 315.838 901.213 304.421 905.973 286.881 908.675 C 241.593 915.169 218.56 884.092 249.18 846.224 C 265.313 826.272 284.039 818.152 309.156 815.403 z" fill="rgb(230,220,197)" transform="translate(0,0)"></path>
<path d="M 1698.03 824.395 C 1738.32 803.773 1788.33 820.968 1808.84 861.12 C 1816.97 877.012 1816.56 894.896 1798.61 903.215 C 1761.1 919.753 1710.2 898.39 1691.72 862.813 C 1687.63 854.936 1686.14 845.394 1688.59 836.849 C 1688.4 835.976 1692.78 867.744 1696.14 852.315 C 1697.3 846.193 1697.19 842.309 1697.34 836.077 C 1699.35 834.091 1706.04 829.065 1704.47 825.238 C 1704.17 824.506 1699.17 824.545 1698.03 824.395 z" fill="rgb(230,220,197)" transform="translate(0,0)"></path>
<path d="M 416.505 1112.21 L 417.638 1110.93 C 425.194 1102.24 428.761 1116 438.514 1114.57 C 446.054 1113.46 441.487 1118.04 443.262 1121.63 L 442.955 1120.97 L 443.349 1121.5 C 445.184 1116.81 443.794 1115.8 446.229 1111.03 C 449.987 1119.67 461.691 1145.95 463.243 1154.84 C 457.746 1163.15 462.85 1170.16 464.616 1179.95 C 467.295 1194.81 472.607 1217.55 466.963 1232.01 C 463.398 1237.02 458.123 1228.13 455.527 1243.81 C 454.075 1245.81 440.126 1260.02 457.022 1253.27 C 461.836 1251.35 461.212 1255.21 463.315 1259.16 C 460.82 1264.04 458.014 1264.39 452.48 1266.2 L 442.059 1269.6 C 442.658 1258.88 447.567 1248.06 454.508 1239.85 C 454.49 1238.17 454.613 1235.51 454.522 1234.01 C 454.052 1226.24 459.584 1225.05 459.15 1216.05 C 458.533 1203.27 454.741 1198.46 455.8 1185.05 C 458.633 1171.31 457.97 1176.11 453.525 1164.54 C 456.494 1161.89 456.304 1158.42 458.618 1154.54 C 456.99 1151.96 456.842 1152.05 454.408 1150.11 L 452.845 1150.53 C 451.398 1154.18 451.093 1157.76 446.907 1157.36 C 444.672 1153.29 455.6 1142.07 448.856 1134.29 C 445.253 1132.26 445.367 1132.46 441.118 1132.66 C 440.841 1131.27 439.2 1127.52 439.55 1126.65 C 444.407 1114.59 434.582 1116.64 429.602 1113.7 C 421.45 1108.89 424.085 1107.64 416.505 1112.21 z" fill="rgb(230,220,197)" fill-opacity="0.611765" transform="translate(0,0)"></path>
<path d="M 426.367 1170.27 C 428.835 1159.07 434.261 1174.68 433.717 1153.7 C 434.037 1153.21 433.811 1153.38 434.429 1153.24 C 435.483 1153.82 435.689 1155.08 436.549 1155.83 C 438.867 1155.44 437.945 1153.37 441.033 1153.62 C 429.508 1166.74 431.513 1222.69 431.434 1241.1 L 432.309 1241.64 L 432.686 1241.35 C 435.214 1242.38 442.913 1247.17 444.091 1246.18 C 452.267 1239.28 451.731 1218.15 451.285 1208.37 C 451.006 1202.23 450.112 1200.19 450.925 1193.6 C 451.797 1186.52 454.334 1179.82 452.752 1173.17 L 452.058 1172.73 L 452.174 1172.58 C 451.488 1172.84 451.297 1174.84 451.429 1175.46 C 452.708 1181.41 450.028 1182.31 448.662 1186.59 C 447.096 1193.04 442.619 1191.68 442.093 1197.94 C 441.342 1206.87 441.049 1209.3 435.394 1215.68 L 433.452 1217.85 C 432.987 1205.27 442.615 1193.98 447.275 1182.97 C 448.353 1180.43 448.478 1174.75 448.978 1171.33 C 450.783 1169.11 449.657 1169.76 452.443 1169.28 C 456.392 1173.2 455.669 1179.34 455.8 1185.05 C 454.741 1198.46 458.533 1203.27 459.15 1216.05 C 459.584 1225.05 454.052 1226.24 454.522 1234.01 C 454.613 1235.51 454.49 1238.17 454.508 1239.85 C 447.567 1248.06 442.658 1258.88 442.059 1269.6 L 439.858 1270.1 C 441.9 1257.82 430.491 1254.06 428.119 1257.07 C 431.04 1231.81 428.581 1195.44 426.367 1170.27 z M 437.796 1252.67 C 438.671 1251.04 438.159 1249.02 436.618 1248.01 C 435.077 1247 433.02 1247.34 431.883 1248.79 C 431.057 1249.85 430.895 1251.28 431.465 1252.49 C 432.034 1253.7 433.237 1254.49 434.576 1254.53 C 435.914 1254.56 437.159 1253.84 437.796 1252.67 z" fill="rgb(230,220,197)" fill-opacity="0.462745" transform="translate(0,0)"></path>
<path d="M 431.883 1248.79 C 433.02 1247.34 435.077 1247 436.618 1248.01 C 438.159 1249.02 438.671 1251.04 437.796 1252.67 C 437.159 1253.84 435.914 1254.56 434.576 1254.53 C 433.237 1254.49 432.034 1253.7 431.465 1252.49 C 430.895 1251.28 431.057 1249.85 431.883 1248.79 z" fill="rgb(230,220,197)" fill-opacity="0.662745" transform="translate(0,0)"></path>
<path d="M 985.656 955.58 C 989.151 959.351 988.973 958.081 993.831 956.209 C 993.903 958.947 994.124 960.003 994.557 962.713 C 994.306 963.255 994.055 963.796 993.805 964.337 C 984.102 989.646 972.214 1018.57 955.591 1040.18 C 954.137 1040.27 948.841 1040.81 947.562 1040.31 C 947.059 1040.11 946.604 1039.03 946.586 1038.53 C 946.583 1038.47 946.243 1036.55 946.223 1036.49 C 945.928 1035.72 945.646 1034.86 945.717 1034.01 C 945.751 1033.62 945.773 1033.66 946.016 1033.43 C 947.14 1033.57 949.383 1039.04 950.745 1035.71 C 951.675 1033.43 953.473 1032.06 954.722 1029.78 C 955.654 1028.07 957.244 1026.42 957.756 1024.31 C 958.196 1021.99 959.864 1020.62 961.168 1018.63 C 963.529 1015.03 964.237 1013.41 965.653 1009.53 C 964.118 1009.37 954.34 1010.08 954.195 1007.97 C 954.934 1007.37 956.324 1007.6 956.62 1007.25 C 958.684 1004.73 958.923 999.378 960.813 996.555 C 964.019 991.878 964.053 986.289 966.502 981.543 C 967.907 978.216 974.122 978.357 976.007 981.223 C 978.55 985.091 980.062 981.874 980.959 978.466 C 981.105 977.913 979.283 976.865 978.71 976.38 C 975.07 973.3 977.029 968.695 976.347 964.599 C 975.949 962.174 976.275 957.881 978.576 956.312 C 979.331 955.797 983.452 958.324 983.964 958.863 C 985.295 960.263 983.811 964.18 984.57 965.868 C 988.184 963.743 986.134 958.401 985.656 955.58 z M 975.396 996.832 L 976.091 995.188 C 978.788 989.395 976.802 984.68 970.081 984.357 C 968.335 990.181 967.239 995.59 975.396 996.832 z M 981.848 973.826 C 982.292 968.828 982.903 964.431 978.648 961.272 C 977.715 967.559 977.324 969.091 981.848 973.826 z" fill="rgb(230,220,197)" fill-opacity="0.0470588" transform="translate(0,0)"></path>
<path d="M 970.081 984.357 C 976.802 984.68 978.788 989.395 976.091 995.188 L 975.396 996.832 C 967.239 995.59 968.335 990.181 970.081 984.357 z" fill="rgb(230,220,197)" fill-opacity="0.180392" transform="translate(0,0)"></path>
<path d="M 978.648 961.272 C 982.903 964.431 982.292 968.828 981.848 973.826 C 977.324 969.091 977.715 967.559 978.648 961.272 z" fill="rgb(230,220,197)" fill-opacity="0.298039" transform="translate(0,0)"></path>
<path d="M 441.118 1132.66 C 445.367 1132.46 445.253 1132.26 448.856 1134.29 C 455.6 1142.07 444.672 1153.29 446.907 1157.36 C 451.093 1157.76 451.398 1154.18 452.845 1150.53 L 454.408 1150.11 C 456.842 1152.05 456.99 1151.96 458.618 1154.54 C 456.304 1158.42 456.494 1161.89 453.525 1164.54 C 457.97 1176.11 458.633 1171.31 455.8 1185.05 C 455.669 1179.34 456.392 1173.2 452.443 1169.28 C 449.657 1169.76 450.783 1169.11 448.978 1171.33 C 448.478 1174.75 448.353 1180.43 447.275 1182.97 C 442.615 1193.98 432.987 1205.27 433.452 1217.85 C 434.366 1222.31 436.045 1234.57 433.073 1238.96 C 432.795 1239.37 432.775 1240.44 432.686 1241.35 L 432.309 1241.64 L 431.434 1241.1 C 431.513 1222.69 429.508 1166.74 441.033 1153.62 C 445.218 1151.2 445.233 1151.42 448.422 1147.66 C 452.191 1131.76 445.082 1137.52 441.118 1132.66 z" fill="rgb(230,220,197)" fill-opacity="0.54902" transform="translate(0,0)"></path>
<path d="M 433.452 1217.85 L 435.394 1215.68 C 441.049 1209.3 441.342 1206.87 442.093 1197.94 C 442.619 1191.68 447.096 1193.04 448.662 1186.59 C 450.028 1182.31 452.708 1181.41 451.429 1175.46 C 451.297 1174.84 451.488 1172.84 452.174 1172.58 L 452.058 1172.73 L 452.752 1173.17 C 454.334 1179.82 451.797 1186.52 450.925 1193.6 C 450.112 1200.19 451.006 1202.23 451.285 1208.37 C 451.731 1218.15 452.267 1239.28 444.091 1246.18 C 442.913 1247.17 435.214 1242.38 432.686 1241.35 C 432.775 1240.44 432.795 1239.37 433.073 1238.96 C 436.045 1234.57 434.366 1222.31 433.452 1217.85 z" fill="rgb(230,220,197)" fill-opacity="0.419608" transform="translate(0,0)"></path>
<path d="M 416.186 1060.67 C 419.405 1065.15 417.84 1061.93 418.554 1066.85 C 419.245 1066.67 419.092 1066.15 419.961 1066.16 C 423.277 1068.7 443.001 1105.43 446.229 1111.03 C 443.794 1115.8 445.184 1116.81 443.349 1121.5 L 442.955 1120.97 L 443.262 1121.63 C 441.487 1118.04 446.054 1113.46 438.514 1114.57 C 428.761 1116 425.194 1102.24 417.638 1110.93 L 416.505 1112.21 C 415.355 1112.59 414.827 1112.71 413.906 1113.13 C 413.982 1111.39 413.465 1109.79 413.066 1108.1 C 414.075 1106.3 414.517 1104.11 415.145 1103.03 C 418.492 1097.27 414.111 1091.14 418.956 1085.97 C 420.361 1083.89 422.677 1084.16 424.065 1086.07 C 424.069 1086.08 426.368 1089.84 427.18 1087.97 C 427.634 1086.93 427.712 1085.4 427.363 1084.36 C 427.018 1083.93 426.399 1083.18 426.526 1082.5 C 426.957 1080.15 425.906 1079.48 424.776 1077.75 C 423.55 1075.88 421.973 1075.01 420.377 1073.25 C 416.885 1067.7 416.324 1067.02 416.186 1060.67 z" fill="rgb(230,220,197)" fill-opacity="0.592157" transform="translate(0,0)"></path>
<path d="M 463.243 1154.84 C 464.953 1160.17 466.45 1165.57 467.73 1171.02 L 468.659 1175.01 C 473.583 1200.58 476.428 1231.23 464.958 1255.58 C 460.853 1248.15 459.799 1249.5 455.527 1243.81 C 458.123 1228.13 463.398 1237.02 466.963 1232.01 C 472.607 1217.55 467.295 1194.81 464.616 1179.95 C 462.85 1170.16 457.746 1163.15 463.243 1154.84 z" fill="rgb(230,220,197)" fill-opacity="0.937255" transform="translate(0,0)"></path>
<path d="M 416.505 1112.21 C 424.085 1107.64 421.45 1108.89 429.602 1113.7 C 434.582 1116.64 444.407 1114.59 439.55 1126.65 C 439.2 1127.52 440.841 1131.27 441.118 1132.66 C 445.082 1137.52 452.191 1131.76 448.422 1147.66 C 448.188 1143.72 449.587 1137.31 444.506 1137.03 C 435.94 1136.56 439.027 1149.22 431.391 1151.7 C 430.572 1151.96 428.849 1153.86 428.39 1154.53 C 427.746 1155.49 425.667 1153.86 425.506 1154.4 C 425.122 1155.68 424.936 1157.23 424.617 1158.6 C 423.861 1155.35 423.207 1151.73 422.566 1148.43 L 425.735 1148.14 C 432.069 1151.31 439.42 1135.91 434.023 1130.49 C 431.911 1128.37 431.003 1127.58 427.97 1127.2 C 422.613 1126.52 423.028 1130.5 422.584 1130.85 C 418.657 1127.22 427.307 1124.83 428.398 1122.55 C 432.311 1114.35 420.491 1108.12 415.037 1115.44 C 414.66 1114.67 414.283 1113.9 413.906 1113.13 C 414.827 1112.71 415.355 1112.59 416.505 1112.21 z" fill="rgb(230,220,197)" fill-opacity="0.517647" transform="translate(0,0)"></path>
<path d="M 420.377 1073.25 C 421.973 1075.01 423.55 1075.88 424.776 1077.75 C 425.906 1079.48 426.957 1080.15 426.526 1082.5 C 426.399 1083.18 427.018 1083.93 427.363 1084.36 C 427.712 1085.4 427.634 1086.93 427.18 1087.97 C 426.368 1089.84 424.069 1086.08 424.065 1086.07 C 422.677 1084.16 420.361 1083.89 418.956 1085.97 C 414.111 1091.14 418.492 1097.27 415.145 1103.03 C 414.517 1104.11 414.075 1106.3 413.066 1108.1 C 411.082 1101.96 404.092 1083.86 403.45 1078.89 C 403.897 1078.79 404.7 1078.75 405 1078.25 C 408.036 1073.19 416.204 1074.7 420.377 1073.25 z" fill="rgb(230,220,197)" fill-opacity="0.501961" transform="translate(0,0)"></path>
<path d="M 593.416 1131.54 C 595.165 1135.47 596.467 1135.28 600.768 1135.91 C 604.968 1135.84 623.15 1134.5 627.098 1137.47 C 629.092 1138.97 622.347 1141.75 621.514 1141.16 C 611.019 1143.72 600.116 1143.93 589.586 1146.17 C 588.107 1145.9 586.624 1145.65 585.138 1145.42 C 589.714 1141.43 593.634 1138.26 593.416 1131.54 z" fill="rgb(230,220,197)" fill-opacity="0.231373" transform="translate(0,0)"></path>
<path d="M 424.617 1158.6 C 424.936 1157.23 425.122 1155.68 425.506 1154.4 C 425.667 1153.86 427.746 1155.49 428.39 1154.53 C 428.849 1153.86 430.572 1151.96 431.391 1151.7 C 439.027 1149.22 435.94 1136.56 444.506 1137.03 C 449.587 1137.31 448.188 1143.72 448.422 1147.66 C 445.233 1151.42 445.218 1151.2 441.033 1153.62 C 437.945 1153.37 438.867 1155.44 436.549 1155.83 C 435.689 1155.08 435.483 1153.82 434.429 1153.24 C 433.811 1153.38 434.037 1153.21 433.717 1153.7 C 434.261 1174.68 428.835 1159.07 426.367 1170.27 C 425.724 1166.01 425.459 1162.9 424.617 1158.6 z" fill="url(#Gradient2)" transform="translate(0,0)"></path>
<path d="M 662.937 931.615 C 668.726 936.837 670.948 945.297 679.49 933.754 C 679.54 948.505 679.113 944.92 671.854 955.879 C 665.482 954.988 670.602 958.849 671.126 959.805 C 671.421 959.099 667.643 963.203 668.31 962.696 C 665.989 960.529 665.589 951.089 664.538 947.86 C 664.207 948.502 663.905 952.245 663.777 953.152 C 662.981 946.58 662.789 938.243 662.937 931.615 z" fill="rgb(230,220,197)" fill-opacity="0.776471" transform="translate(0,0)"></path>
<path d="M 612.35 1112.47 C 626.784 1114.87 607.057 1120.89 607.264 1126 C 607.415 1129.73 597.78 1132.2 600.768 1135.91 C 596.467 1135.28 595.165 1135.47 593.416 1131.54 C 592.996 1126.99 592.322 1127 591.511 1122.93 C 595.427 1120.76 608.512 1113.96 612.35 1112.47 z" fill="rgb(230,220,197)" fill-opacity="0.878431" transform="translate(0,0)"></path>
<path d="M 415.037 1115.44 C 420.491 1108.12 432.311 1114.35 428.398 1122.55 C 427.307 1124.83 418.657 1127.22 422.584 1130.85 C 423.028 1130.5 422.613 1126.52 427.97 1127.2 C 431.003 1127.58 431.911 1128.37 434.023 1130.49 C 439.42 1135.91 432.069 1151.31 425.735 1148.14 C 434.553 1146.13 435.431 1129.91 426.04 1131.96 C 423.472 1132.52 422.202 1141.82 421.665 1144.02 C 420.8 1139.44 419.273 1134.92 419.079 1130.24 C 421.757 1122.62 417.951 1125.73 425.336 1120.45 C 427.597 1118.83 419.805 1107.12 417.786 1126.08 C 416.945 1122.12 416.165 1119.28 415.037 1115.44 z" fill="rgb(230,220,197)" fill-opacity="0.498039" transform="translate(0,0)"></path>
<path d="M 680.519 932.644 C 681.858 934.169 682.701 935.8 683.339 937.733 C 683.559 945.023 688.664 951.296 684.712 956.824 C 684.263 957.452 682.115 958.119 681.469 957.33 C 681.562 956.646 681.633 956.331 681.563 955.68 C 679.248 953.707 678.196 959.369 671.854 955.879 C 679.113 944.92 679.54 948.505 679.49 933.754 L 680.519 932.644 z" fill="rgb(230,220,197)" fill-opacity="0.792157" transform="translate(0,0)"></path>
<path d="M 421.665 1144.02 C 422.202 1141.82 423.472 1132.52 426.04 1131.96 C 435.431 1129.91 434.553 1146.13 425.735 1148.14 L 422.566 1148.43 C 422.199 1146.84 421.938 1145.63 421.665 1144.02 z" fill="rgb(230,220,197)" fill-opacity="0.701961" transform="translate(0,0)"></path>
<path d="M 985.656 955.58 L 983.361 952.992 C 983.056 952.713 982.751 952.434 982.446 952.155 C 981.512 952.761 981.223 954.2 980.116 954.58 C 978.629 953.541 981.142 951.84 981.733 950.783 C 983.337 947.913 985.686 939.467 990.51 943.469 C 995.678 947.758 994.492 950.673 993.831 956.209 C 988.973 958.081 989.151 959.351 985.656 955.58 z" fill="rgb(230,220,197)" fill-opacity="0.180392" transform="translate(0,0)"></path>
<path d="M 1689.89 833.865 C 1691.55 834.394 1694.8 834.259 1695.06 834.741 C 1697.13 838.666 1695.94 847.542 1696.14 852.315 C 1692.78 867.744 1688.4 835.976 1688.59 836.849 C 1689.03 835.857 1689.47 834.863 1689.89 833.865 z" fill="rgb(230,220,197)" fill-opacity="0.639216" transform="translate(0,0)"></path>
<path d="M 1689.89 833.865 C 1693.17 829.248 1691.91 830.13 1696.68 825.673 L 1698.03 824.395 C 1699.17 824.545 1704.17 824.506 1704.47 825.238 C 1706.04 829.065 1699.35 834.091 1697.34 836.077 C 1697.19 842.309 1697.3 846.193 1696.14 852.315 C 1695.94 847.542 1697.13 838.666 1695.06 834.741 C 1694.8 834.259 1691.55 834.394 1689.89 833.865 z" fill="rgb(230,220,197)" fill-opacity="0.866667" transform="translate(0,0)"></path>
<path d="M 463.315 1259.16 C 461.212 1255.21 461.836 1251.35 457.022 1253.27 C 440.126 1260.02 454.075 1245.81 455.527 1243.81 C 459.799 1249.5 460.853 1248.15 464.958 1255.58 C 464.633 1256.74 464.321 1257.9 464.021 1259.06 L 463.315 1259.16 z" fill="rgb(230,220,197)" fill-opacity="0.74902" transform="translate(0,0)"></path>
<path d="M 396.295 1033.06 C 399.114 1034.42 412.502 1043.81 412.512 1047.09 C 409.732 1046.49 409.631 1046.36 408.367 1048.97 C 406.6 1047.31 398.473 1035.93 396.295 1033.06 z" fill="rgb(158,93,11)" transform="translate(0,0)"></path>
<path d="M 417.786 1126.08 C 419.805 1107.12 427.597 1118.83 425.336 1120.45 C 417.951 1125.73 421.757 1122.62 419.079 1130.24 C 418.627 1128.86 418.196 1127.47 417.786 1126.08 z" fill="rgb(230,220,197)" fill-opacity="0.407843" transform="translate(0,0)"></path>
<path d="M 1017.94 606.194 L 1020 605.954 C 1020.23 610.59 1020.62 618.029 1020.26 622.5 C 1019.45 623.924 1018.66 625.354 1017.87 626.79 C 1017.59 619.614 1018.01 613.231 1017.94 606.194 z" fill="rgb(152,118,83)" fill-opacity="0.988235" transform="translate(0,0)"></path>
<path d="M 1017.94 606.194 C 1017.78 601.735 1017.86 597.271 1018.2 592.822 C 1018.21 592.625 1018.23 592.428 1018.25 592.231 L 1018.18 592.363 C 1018.96 589.278 1019.37 590.315 1020.09 592.233 L 1020.04 592.276 C 1020.24 596.833 1020.22 601.397 1020 605.954 L 1017.94 606.194 z" fill="rgb(158,93,11)" transform="translate(0,0)"></path>
<path d="M 372.386 1009.79 C 374.725 1012.08 382.526 1018.63 382.497 1021.76 L 380.703 1022.11 C 377.839 1020.1 374.409 1013.11 372.386 1009.79 z" fill="rgb(121,67,11)" transform="translate(0,0)"></path>
<path d="M 654.589 866.575 C 657.74 869.733 657.739 871.784 658.356 876.349 C 654.634 873.436 654.977 871.276 654.589 866.575 z" fill="rgb(121,67,11)" transform="translate(0,0)"></path>
<path d="M 948.407 1289.55 C 962.255 1289.1 976.111 1288.92 989.967 1289.01 C 1189.47 1288.84 1385.52 1304.32 1578.89 1356.78 C 1651.76 1376.55 1742.86 1398.8 1742.37 1493.05 C 1741.91 1524.15 1729.07 1553.79 1706.68 1575.38 C 1681.04 1599.86 1646.59 1612.92 1611.16 1611.59 C 1588.6 1610.63 1551.96 1593.5 1528.74 1585.67 C 1501.44 1576.49 1473.81 1568.3 1445.91 1561.12 C 1338.61 1533.24 1207.75 1518.15 1096.75 1515.97 C 942.905 1510.96 769.582 1520.23 620.107 1556.4 C 590.258 1563.38 560.697 1571.54 531.493 1580.85 C 517.301 1585.51 503.243 1590.38 489.313 1595.71 C 472.304 1602.22 456.114 1610.28 437.697 1611.34 C 404.961 1613.01 371.905 1602.7 347.623 1580.73 C 297.59 1535.46 291.501 1463.53 338.916 1413.95 C 347.426 1405.05 359.951 1394.08 370.987 1388.39 C 419.577 1363.32 474.422 1349.72 527.579 1338.37 C 666.067 1309.27 806.933 1292.92 948.407 1289.55 z M 1273.43 1362.68 L 1271.7 1359.84 C 1261.13 1356.17 1210.49 1352.7 1197.1 1351.64 C 1045.53 1338.41 893.039 1339.94 741.768 1356.2 C 740.329 1356.12 740.332 1356.05 739.023 1356.53 C 734.778 1356.88 733.025 1356.94 728.886 1357.95 C 711.658 1359.05 695.138 1362.65 678.584 1364.28 C 673.427 1364.1 642.289 1369.77 636.065 1371.07 C 632.319 1371.08 624.037 1372.44 620.288 1373.39 L 609.245 1375.33 C 602.816 1376.56 596.071 1377.69 589.713 1379.04 C 586.48 1379.17 582.828 1380.16 579.59 1380.87 C 568.192 1383.06 550.679 1386.08 539.87 1388.97 C 536.262 1389.37 532.737 1390.42 529.231 1391.33 C 526.31 1391.94 523.467 1392.66 520.551 1393.32 L 516.516 1394.25 L 512.013 1395.32 C 509.947 1395.82 507.928 1396.38 505.838 1396.87 C 502.411 1397.62 499.048 1398.65 495.673 1399.6 C 489.233 1401.26 469.501 1406 464.289 1408.49 C 457.997 1409.94 453.982 1411.07 447.955 1413.19 C 445.536 1413.96 440.993 1415.25 438.942 1416.33 C 433.062 1417.95 425.148 1420.42 419.966 1423.57 C 413.946 1425.69 412.39 1426.15 406.778 1429.44 C 404.634 1430.29 404.72 1430.2 402.946 1431.52 C 393.694 1435.93 387.621 1441.8 380.865 1449.17 C 376.336 1454.67 373.412 1459.62 370.378 1466.08 C 368.817 1471.05 367.545 1475.02 366.298 1480.15 C 362.961 1494.82 365.559 1504.84 371.327 1518.07 C 375.114 1525.01 380.509 1533.35 387.223 1537.69 C 387.764 1538 388.305 1538.31 388.846 1538.62 C 397.163 1545.8 411.239 1551.85 422.361 1552.2 C 421.415 1550.4 420.477 1548.6 419.549 1546.8 C 414.714 1539.61 410.398 1529.9 408.195 1521.56 C 408.21 1520.32 408.225 1519.16 408.199 1517.92 C 407.777 1507.3 408.9 1501.82 412.548 1492.08 C 418.317 1481.71 421.766 1480.82 428.213 1472.72 C 430.988 1470.56 434.798 1467.72 437.424 1465.4 C 438.544 1464.94 439.617 1464.49 440.751 1464.06 C 457.603 1452.09 479.746 1444.53 499.584 1438.62 C 501.117 1438.32 501.936 1438.1 503.477 1437.67 L 532.402 1430.03 C 533.712 1429.93 533.799 1429.74 535.194 1429.08 L 535.655 1429.09 C 536.859 1429 537.63 1429.02 538.765 1428.72 L 539.975 1428.37 C 542.321 1427.68 543.681 1427.37 545.972 1426.8 L 549.974 1425.78 C 564.909 1421.94 585.179 1418.57 599.219 1413.89 C 602.655 1413.41 604.236 1412.85 607.512 1411.81 C 610.279 1411.43 614.007 1410.58 616.756 1409.84 C 622.821 1408.62 630.797 1407.62 636.497 1406.17 C 648.268 1403.19 663.82 1402.52 674.886 1399.1 C 687.525 1395.66 727.882 1390.77 741.827 1388.79 C 827.381 1376.37 913.561 1368.74 999.966 1365.93 C 1017.63 1363.55 1042.49 1364.25 1060.73 1364 C 1076.74 1363.78 1095.96 1362.68 1111.66 1363.17 C 1142.14 1360.55 1176.82 1361.18 1207.5 1361.4 C 1227.43 1361.55 1254.13 1364.03 1273.43 1362.68 z" fill="rgb(189,113,11)" transform="translate(0,0)"></path>
<path d="M 1273.43 1362.68 L 1274.83 1362.03 L 1275.14 1360.29 C 1284.75 1358.67 1302.42 1363.58 1313.13 1364.66 C 1416.5 1375.13 1519.58 1394.01 1619.47 1422.65 C 1639.64 1428.43 1655.82 1435.92 1669.28 1452.29 C 1712.35 1502.19 1661.34 1568.26 1602.04 1554.14 C 1585.27 1550.14 1570.05 1543.95 1553.89 1538.71 C 1527.71 1530.26 1501.3 1522.56 1474.69 1515.6 C 1387.31 1492.55 1271.93 1475.62 1181.93 1469.16 C 1177.07 1471.56 1175.09 1471.61 1169.5 1470.16 C 1166.22 1469.31 1154.6 1469.79 1153.12 1468.51 L 1153.16 1468.26 C 1153.91 1467.76 1154.69 1467.79 1155.65 1467.64 C 1154.98 1467.31 1152.98 1467.18 1152.1 1467.07 C 1151.55 1467.25 1150.13 1467.71 1149.74 1467.9 C 1144.06 1470.62 1135.92 1467.46 1129.14 1467.72 C 1127.92 1467.28 1126.74 1467.28 1125.5 1467.29 C 1123.17 1467.32 1107.77 1468.35 1107.59 1466.34 C 1107.96 1465.82 1109.31 1465.72 1109.76 1465.63 C 1107.37 1464.84 1105.99 1465.14 1103.38 1465.18 C 1090.25 1468.07 1074.7 1465.33 1061.01 1465.41 L 997.715 1465.59 C 989.02 1465.57 969.17 1466.07 961.431 1464.12 C 953.616 1463.7 885.767 1465.86 881.333 1467.59 C 882.046 1467.76 883.36 1467.8 883.486 1468.66 C 882.298 1470.11 869.334 1468.91 865.994 1470.88 C 863.605 1472.29 859.431 1469.69 856.446 1468.92 C 825.281 1472.69 793.209 1474.75 761.473 1478.62 C 704.5 1486.04 647.904 1496.11 591.868 1508.79 C 541.093 1520.68 489.423 1539.22 438.763 1552.04 C 436.973 1552.49 438.451 1551.88 436.702 1552.73 C 436.798 1552.99 436.895 1553.24 436.991 1553.49 C 435.914 1555.23 427.786 1555.23 425.994 1555.01 C 424.286 1554.79 423.97 1553.07 422.361 1552.2 C 421.415 1550.4 420.477 1548.6 419.549 1546.8 C 414.714 1539.61 410.398 1529.9 408.195 1521.56 C 408.21 1520.32 408.225 1519.16 408.199 1517.92 C 407.777 1507.3 408.9 1501.82 412.548 1492.08 C 418.317 1481.71 421.766 1480.82 428.213 1472.72 C 430.988 1470.56 434.798 1467.72 437.424 1465.4 C 438.544 1464.94 439.617 1464.49 440.751 1464.06 C 457.603 1452.09 479.746 1444.53 499.584 1438.62 C 501.117 1438.32 501.936 1438.1 503.477 1437.67 L 532.402 1430.03 C 533.712 1429.93 533.799 1429.74 535.194 1429.08 L 535.655 1429.09 C 536.859 1429 537.63 1429.02 538.765 1428.72 L 539.975 1428.37 C 542.321 1427.68 543.681 1427.37 545.972 1426.8 L 549.974 1425.78 C 564.909 1421.94 585.179 1418.57 599.219 1413.89 C 602.655 1413.41 604.236 1412.85 607.512 1411.81 C 610.279 1411.43 614.007 1410.58 616.756 1409.84 C 622.821 1408.62 630.797 1407.62 636.497 1406.17 C 648.268 1403.19 663.82 1402.52 674.886 1399.1 C 687.525 1395.66 727.882 1390.77 741.827 1388.79 C 827.381 1376.37 913.561 1368.74 999.966 1365.93 C 1017.63 1363.55 1042.49 1364.25 1060.73 1364 C 1076.74 1363.78 1095.96 1362.68 1111.66 1363.17 C 1142.14 1360.55 1176.82 1361.18 1207.5 1361.4 C 1227.43 1361.55 1254.13 1364.03 1273.43 1362.68 z" fill="rgb(237,161,26)" transform="translate(0,0)"></path>
<path d="M 961.431 1464.12 C 1008.75 1463.38 1056.07 1463.73 1103.38 1465.18 C 1090.25 1468.07 1074.7 1465.33 1061.01 1465.41 L 997.715 1465.59 C 989.02 1465.57 969.17 1466.07 961.431 1464.12 z" fill="rgb(158,93,11)" transform="translate(0,0)"></path>
<path d="M 999.966 1365.93 C 1017.63 1363.55 1042.49 1364.25 1060.73 1364 C 1076.74 1363.78 1095.96 1362.68 1111.66 1363.17 C 1107.63 1366.02 1011.22 1367.41 999.966 1365.93 z" fill="rgb(189,113,11)" transform="translate(0,0)"></path>
<path d="M 1109.76 1465.63 C 1122.99 1466.31 1138.85 1466.81 1152.1 1467.07 C 1151.55 1467.25 1150.13 1467.71 1149.74 1467.9 C 1144.06 1470.62 1135.92 1467.46 1129.14 1467.72 C 1127.92 1467.28 1126.74 1467.28 1125.5 1467.29 C 1123.17 1467.32 1107.77 1468.35 1107.59 1466.34 C 1107.96 1465.82 1109.31 1465.72 1109.76 1465.63 z" fill="rgb(158,93,11)" transform="translate(0,0)"></path>
<path d="M 856.446 1468.92 C 864.362 1468.83 873.253 1468.06 881.333 1467.59 C 882.046 1467.76 883.36 1467.8 883.486 1468.66 C 882.298 1470.11 869.334 1468.91 865.994 1470.88 C 863.605 1472.29 859.431 1469.69 856.446 1468.92 z" fill="rgb(158,93,11)" transform="translate(0,0)"></path>
<path d="M 1155.65 1467.64 L 1181.93 1469.16 C 1177.07 1471.56 1175.09 1471.61 1169.5 1470.16 C 1166.22 1469.31 1154.6 1469.79 1153.12 1468.51 L 1153.16 1468.26 C 1153.91 1467.76 1154.69 1467.79 1155.65 1467.64 z" fill="rgb(158,93,11)" transform="translate(0,0)"></path>
<path d="M 419.549 1546.8 C 428.617 1553.53 423.469 1553.47 436.702 1552.73 C 436.798 1552.99 436.895 1553.24 436.991 1553.49 C 435.914 1555.23 427.786 1555.23 425.994 1555.01 C 424.286 1554.79 423.97 1553.07 422.361 1552.2 C 421.415 1550.4 420.477 1548.6 419.549 1546.8 z" fill="rgb(158,93,11)" transform="translate(0,0)"></path>
<path d="M 464.289 1408.49 C 469.501 1406 489.233 1401.26 495.673 1399.6 C 500.102 1402.74 525.623 1401.8 526.946 1404.72 C 526.662 1408.17 516.915 1407.62 516.231 1411.92 C 517.249 1412.94 520.354 1411.26 522.065 1410.93 C 508.001 1432.51 512.694 1427.93 532.402 1430.03 L 503.477 1437.67 L 503.418 1436.3 C 503.72 1432.05 501.525 1432.87 501.701 1431.48 C 503.739 1415.44 488.705 1429.9 484.024 1431.69 C 478.517 1433.8 481.792 1438.01 485.542 1438.03 C 491.827 1438.07 493.545 1436.92 499.584 1438.62 C 479.746 1444.53 457.603 1452.09 440.751 1464.06 C 441.241 1461.74 443.403 1457.51 442.39 1455.57 C 440.222 1455.2 434.548 1456.46 434.073 1454.48 C 434.663 1454.11 435.554 1453.95 435.882 1453.57 C 432.55 1452.86 431.999 1453.07 431.769 1455.65 C 431.032 1456.17 428.969 1457.96 427.881 1457.68 C 427.689 1457.64 427.527 1457.51 427.437 1457.33 C 426.373 1455.21 431.342 1451.55 432.576 1450.59 C 437.372 1446.85 440.142 1441.36 447.01 1441.39 C 449.291 1441.56 452.038 1439.39 450.336 1437.83 C 449.055 1436.65 445.805 1436.37 444.536 1437.26 C 439.943 1437.44 438.313 1438.96 434.046 1441.05 C 430.859 1444.54 431.911 1440.3 429.182 1440.34 C 429.419 1440.01 424.563 1451.44 423.366 1453.29 C 418.972 1460.09 412.233 1462.65 412.514 1471.48 C 412.69 1471.52 412.866 1471.56 413.042 1471.61 C 419.529 1466.83 418.361 1471.02 424.212 1464.03 L 423.78 1465.13 C 423.191 1466.67 422.262 1471.09 420.391 1471.11 C 417.012 1471.14 414.574 1474.63 411.53 1474.52 C 409.831 1472.87 411.048 1470.99 410.113 1469.99 C 405.53 1470.21 409.053 1475.93 408.9 1476.02 C 401.445 1480.16 403.551 1488.76 412.548 1492.08 C 408.9 1501.82 407.777 1507.3 408.199 1517.92 C 400.606 1514.52 401.6 1528.46 389.498 1526.8 C 378.023 1525.23 383.448 1532.55 387.223 1537.69 C 380.509 1533.35 375.114 1525.01 371.327 1518.07 C 376.456 1516.9 377.011 1503.41 385.034 1500.52 C 385.315 1500.41 389.01 1491.14 388.331 1489.57 C 387.655 1488 385.126 1487.41 383.621 1486.85 C 383.028 1487.62 382.088 1491.39 381.31 1492.66 C 381.06 1493.64 380.233 1496.54 378.621 1495.91 C 377.434 1495.45 375.128 1485.57 375.123 1485.58 C 376.871 1483.38 378 1484.67 380.309 1482.05 C 383.576 1478.33 378.896 1469.11 379.664 1467.55 C 382.896 1461.02 385.617 1462.52 389.805 1454.09 L 390.837 1454.16 C 393.18 1452.78 395.959 1449.64 397.511 1449.42 C 401.09 1448.92 399.882 1448.89 402.188 1445.58 C 404.307 1441.73 415.132 1432.77 419.495 1432.87 C 426.92 1433.04 428.167 1423.95 433.496 1424.47 C 439.095 1425.02 440.077 1420.56 438.942 1416.33 C 440.993 1415.25 445.536 1413.96 447.955 1413.19 C 452.121 1415.22 455.2 1415.79 460.019 1415.19 C 462.809 1414.49 462.893 1413.88 462.64 1411.4 C 462.534 1410.36 465.534 1410.27 465.996 1409.51 C 465.427 1409.17 464.858 1408.83 464.289 1408.49 z M 475.555 1443.95 C 472.491 1438.89 472.471 1439.67 466.855 1439.89 L 467.336 1440.79 C 469.838 1446.21 469.143 1444.85 475.555 1443.95 z" fill="rgb(230,220,197)" fill-opacity="0.643137" transform="translate(0,0)"></path>
<path d="M 466.855 1439.89 C 472.471 1439.67 472.491 1438.89 475.555 1443.95 C 469.143 1444.85 469.838 1446.21 467.336 1440.79 L 466.855 1439.89 z" fill="rgb(230,220,197)" fill-opacity="0.603922" transform="translate(0,0)"></path>
<path d="M 636.065 1371.07 C 642.289 1369.77 673.427 1364.1 678.584 1364.28 C 677.8 1365.39 677.395 1365.37 678.983 1366.16 C 681.23 1367.26 680.303 1370.05 679.244 1371.68 C 678.674 1372.55 676.795 1373.15 676.053 1373.59 C 674.311 1374.64 672.879 1376.11 671.081 1377.06 C 669.76 1377.75 669.51 1379.42 668.822 1380.56 C 667.526 1383.3 664.757 1384.61 663.358 1387.35 C 662.532 1388.96 659.972 1390.15 660.525 1392.5 C 660.686 1393.35 661.636 1394.29 662.386 1394.58 C 663.902 1395.17 663.803 1398.49 664.941 1398.76 C 668.062 1399.51 671.505 1398.94 674.886 1399.1 C 663.82 1402.52 648.268 1403.19 636.497 1406.17 C 630.797 1407.62 622.821 1408.62 616.756 1409.84 C 619.67 1402.22 619.707 1404.85 627.961 1402.27 L 631.438 1401.14 C 643.198 1397.06 633.578 1397.4 647.705 1396.47 C 647.678 1395.39 647.719 1395.6 647.519 1394.59 L 647.556 1394.57 C 646.337 1391.94 632.036 1395.7 628.499 1396.27 C 622.479 1397.25 617.412 1398.15 611 1398.62 C 603.99 1399.13 593.99 1397.36 588.174 1403.08 C 583.556 1409.22 588.838 1409.99 592.54 1411.16 C 598.999 1413.21 601.591 1411.69 607.512 1411.81 C 604.236 1412.85 602.655 1413.41 599.219 1413.89 C 594.451 1413.61 590.614 1413.84 585.851 1414.03 C 581.689 1409.38 577.246 1407.39 583.396 1401.58 L 584.837 1400.16 C 590.501 1396.57 595.431 1395.78 601.4 1393.75 L 602.493 1393.4 C 605.04 1392.56 614.83 1391.86 617.424 1392.3 C 621.846 1390.78 626.132 1386.87 629.481 1387.7 C 649.338 1392.62 671.975 1377.44 637.622 1371.96 L 636.065 1371.07 z" fill="rgb(230,220,197)" fill-opacity="0.415686" transform="translate(0,0)"></path>
<path d="M 637.622 1371.96 C 671.975 1377.44 649.338 1392.62 629.481 1387.7 C 626.132 1386.87 621.846 1390.78 617.424 1392.3 C 614.83 1391.86 605.04 1392.56 602.493 1393.4 L 601.4 1393.75 C 595.431 1395.78 590.501 1396.57 584.837 1400.16 C 586.361 1391.82 595.057 1394.93 597.221 1391.57 L 597.026 1391.19 C 593.533 1390.07 583.704 1395.65 580.724 1397.39 L 579.769 1396.57 C 573.912 1390.66 578.014 1401.61 570.197 1397.95 C 569.147 1394.44 573.191 1389.63 561.351 1391.94 C 557.128 1391.56 555.115 1392.39 552.047 1389.74 C 551.536 1389.3 548.324 1390.31 547.958 1390.59 C 546.082 1392.04 542.016 1389.8 539.87 1388.97 C 550.679 1386.08 568.192 1383.06 579.59 1380.87 L 587.221 1383.3 C 587.905 1383.52 596.979 1385.32 598.388 1385.66 C 598.887 1385.87 599.386 1386.08 599.885 1386.29 C 602.871 1388.39 606.816 1387.6 610.022 1386.5 C 610.275 1386.41 614.527 1385.89 613.495 1384.48 C 612.945 1383.72 607.206 1383.91 608.603 1381.5 C 609.957 1380.82 618.069 1384.93 617.446 1381.73 C 617.068 1381.29 612.593 1380.73 612.064 1378.4 C 611.678 1376.71 610.753 1376.09 609.245 1375.33 L 620.288 1373.39 C 622.487 1374.45 622.696 1374.24 621.104 1376.28 C 621.384 1377.63 643.754 1389.78 649.068 1383.96 C 657.563 1374.65 642.701 1380.83 637.622 1371.96 z" fill="rgb(230,220,197)" fill-opacity="0.572549" transform="translate(0,0)"></path>
<path d="M 529.231 1391.33 C 532.737 1390.42 536.262 1389.37 539.87 1388.97 C 542.016 1389.8 546.082 1392.04 547.958 1390.59 C 548.324 1390.31 551.536 1389.3 552.047 1389.74 C 555.115 1392.39 557.128 1391.56 561.351 1391.94 C 559.809 1392.34 552.224 1393.32 551.67 1394.61 C 547.177 1405.11 568.058 1401.62 570.197 1397.95 C 578.014 1401.61 573.912 1390.66 579.769 1396.57 L 580.724 1397.39 C 579.291 1399.63 576.147 1402.4 574.139 1404.27 C 563.761 1405.16 557.466 1403.31 551.057 1412.49 C 550.009 1413.98 548.421 1415.01 546.63 1415.35 C 541.254 1416.34 537.361 1411.49 533.372 1408.49 C 529.619 1409.28 525.798 1410.23 522.065 1410.93 C 520.354 1411.26 517.249 1412.94 516.231 1411.92 C 516.915 1407.62 526.662 1408.17 526.946 1404.72 C 525.623 1401.8 500.102 1402.74 495.673 1399.6 C 499.048 1398.65 502.411 1397.62 505.838 1396.87 C 510.692 1399.06 528.836 1402.21 533.318 1400.29 L 533.296 1400.35 L 532.833 1399.96 C 527.289 1399.67 531.87 1396.96 529.231 1391.33 z" fill="rgb(230,220,197)" fill-opacity="0.662745" transform="translate(0,0)"></path>
<path d="M 370.378 1466.08 C 373.412 1459.62 376.336 1454.67 380.865 1449.17 L 382.052 1451.17 C 382.489 1451.92 383.786 1455.17 383.735 1455.81 C 381.664 1458.4 378.172 1455.42 377.251 1456.75 C 380.02 1465.63 384.91 1454.95 389.805 1454.09 C 385.617 1462.52 382.896 1461.02 379.664 1467.55 C 378.896 1469.11 383.576 1478.33 380.309 1482.05 C 378 1484.67 376.871 1483.38 375.123 1485.58 C 375.128 1485.57 377.434 1495.45 378.621 1495.91 C 380.233 1496.54 381.06 1493.64 381.31 1492.66 C 382.088 1491.39 383.028 1487.62 383.621 1486.85 C 385.126 1487.41 387.655 1488 388.331 1489.57 C 389.01 1491.14 385.315 1500.41 385.034 1500.52 C 377.011 1503.41 376.456 1516.9 371.327 1518.07 C 365.559 1504.84 362.961 1494.82 366.298 1480.15 C 366.448 1480.51 367.145 1482.37 367.541 1482.74 C 368.781 1482.24 369.608 1481.33 371.017 1481.42 C 371.526 1481.46 375.027 1481.96 375.377 1481.39 C 376.65 1479.32 376.75 1476.31 376.307 1473.99 L 375.632 1470.41 C 375.263 1468.54 372.458 1467.49 370.378 1466.08 z" fill="rgb(230,220,197)" fill-opacity="0.513725" transform="translate(0,0)"></path>
<path d="M 580.724 1397.39 C 583.704 1395.65 593.533 1390.07 597.026 1391.19 L 597.221 1391.57 C 595.057 1394.93 586.361 1391.82 584.837 1400.16 L 583.396 1401.58 C 577.246 1407.39 581.689 1409.38 585.851 1414.03 L 583.93 1413.77 C 574.461 1412.53 572.677 1405.96 562.995 1416.03 C 559.03 1420.15 548.266 1417.62 544.476 1421.71 C 542.414 1423.94 540.747 1426.44 538.765 1428.72 C 537.63 1429.02 536.859 1429 535.655 1429.09 C 537.715 1426.66 539.635 1422.04 538.308 1419 C 535.475 1412.51 522.999 1410.19 520.133 1418.88 C 518.422 1424.06 514.58 1428.22 523.99 1428.79 C 528.288 1428.82 530.847 1428.37 535.194 1429.08 C 533.799 1429.74 533.712 1429.93 532.402 1430.03 C 512.694 1427.93 508.001 1432.51 522.065 1410.93 C 525.798 1410.23 529.619 1409.28 533.372 1408.49 C 537.361 1411.49 541.254 1416.34 546.63 1415.35 C 548.421 1415.01 550.009 1413.98 551.057 1412.49 C 557.466 1403.31 563.761 1405.16 574.139 1404.27 C 576.147 1402.4 579.291 1399.63 580.724 1397.39 z" fill="rgb(230,220,197)" fill-opacity="0.584314" transform="translate(0,0)"></path>
<path d="M 607.512 1411.81 C 601.591 1411.69 598.999 1413.21 592.54 1411.16 C 588.838 1409.99 583.556 1409.22 588.174 1403.08 C 593.99 1397.36 603.99 1399.13 611 1398.62 C 617.412 1398.15 622.479 1397.25 628.499 1396.27 C 632.036 1395.7 646.337 1391.94 647.556 1394.57 L 647.519 1394.59 C 647.719 1395.6 647.678 1395.39 647.705 1396.47 C 633.578 1397.4 643.198 1397.06 631.438 1401.14 L 627.961 1402.27 C 619.707 1404.85 619.67 1402.22 616.756 1409.84 C 614.007 1410.58 610.279 1411.43 607.512 1411.81 z" fill="rgb(230,220,197)" fill-opacity="0.32549" transform="translate(0,0)"></path>
<path d="M 431.769 1455.65 C 431.999 1453.07 432.55 1452.86 435.882 1453.57 C 435.554 1453.95 434.663 1454.11 434.073 1454.48 C 434.548 1456.46 440.222 1455.2 442.39 1455.57 C 443.403 1457.51 441.241 1461.74 440.751 1464.06 C 439.617 1464.49 438.544 1464.94 437.424 1465.4 C 441.701 1454.17 436.432 1453.17 430.617 1461.69 C 428.56 1464.71 421.367 1469.78 428.213 1472.72 C 421.766 1480.82 418.317 1481.71 412.548 1492.08 C 403.551 1488.76 401.445 1480.16 408.9 1476.02 C 409.053 1475.93 405.53 1470.21 410.113 1469.99 C 411.048 1470.99 409.831 1472.87 411.53 1474.52 C 414.574 1474.63 417.012 1471.14 420.391 1471.11 C 422.262 1471.09 423.191 1466.67 423.78 1465.13 L 424.212 1464.03 C 424.722 1461.26 428.218 1464.34 431.769 1455.65 z" fill="rgb(230,220,197)" fill-opacity="0.513725" transform="translate(0,0)"></path>
<path d="M 419.966 1423.57 C 425.148 1420.42 433.062 1417.95 438.942 1416.33 C 440.077 1420.56 439.095 1425.02 433.496 1424.47 C 428.167 1423.95 426.92 1433.04 419.495 1432.87 C 415.132 1432.77 404.307 1441.73 402.188 1445.58 C 399.882 1448.89 401.09 1448.92 397.511 1449.42 C 395.959 1449.64 393.18 1452.78 390.837 1454.16 C 392.319 1446.82 406.712 1440.83 402.946 1431.52 C 404.72 1430.2 404.634 1430.29 406.778 1429.44 C 408.961 1430.8 415.632 1434.06 417.141 1428.98 C 418.311 1425.04 419.232 1427.59 419.966 1423.57 z" fill="rgb(230,220,197)" fill-opacity="0.52549" transform="translate(0,0)"></path>
<path d="M 538.765 1428.72 C 540.747 1426.44 542.414 1423.94 544.476 1421.71 C 548.266 1417.62 559.03 1420.15 562.995 1416.03 C 572.677 1405.96 574.461 1412.53 583.93 1413.77 L 585.851 1414.03 C 590.614 1413.84 594.451 1413.61 599.219 1413.89 C 585.179 1418.57 564.909 1421.94 549.974 1425.78 L 545.972 1426.8 C 543.681 1427.37 542.321 1427.68 539.975 1428.37 L 538.765 1428.72 z" fill="rgb(230,220,197)" fill-opacity="0.662745" transform="translate(0,0)"></path>
<path d="M 424.212 1464.03 C 418.361 1471.02 419.529 1466.83 413.042 1471.61 C 412.866 1471.56 412.69 1471.52 412.514 1471.48 C 412.233 1462.65 418.972 1460.09 423.366 1453.29 C 424.563 1451.44 429.419 1440.01 429.182 1440.34 C 431.911 1440.3 430.859 1444.54 434.046 1441.05 C 438.313 1438.96 439.943 1437.44 444.536 1437.26 C 445.805 1436.37 449.055 1436.65 450.336 1437.83 C 452.038 1439.39 449.291 1441.56 447.01 1441.39 C 440.142 1441.36 437.372 1446.85 432.576 1450.59 C 431.342 1451.55 426.373 1455.21 427.437 1457.33 C 427.527 1457.51 427.689 1457.64 427.881 1457.68 C 428.969 1457.96 431.032 1456.17 431.769 1455.65 C 428.218 1464.34 424.722 1461.26 424.212 1464.03 z" fill="rgb(230,220,197)" fill-opacity="0.682353" transform="translate(0,0)"></path>
<path d="M 739.023 1356.53 C 740.332 1356.05 740.329 1356.12 741.768 1356.2 C 749.375 1360.7 748.861 1358.99 758.504 1358.28 C 759.933 1360.39 776.357 1363.71 769.458 1367.4 C 761.582 1371.61 743.321 1371.81 737.941 1363.1 C 735.8 1359.63 741.207 1357.92 741.503 1357.58 C 741.299 1356.63 739.968 1356.69 739.023 1356.53 z" fill="rgb(230,220,197)" fill-opacity="0.14902" transform="translate(0,0)"></path>
<path d="M 620.288 1373.39 C 624.037 1372.44 632.319 1371.08 636.065 1371.07 L 637.622 1371.96 C 642.701 1380.83 657.563 1374.65 649.068 1383.96 C 643.754 1389.78 621.384 1377.63 621.104 1376.28 C 622.696 1374.24 622.487 1374.45 620.288 1373.39 z" fill="rgb(230,220,197)" fill-opacity="0.619608" transform="translate(0,0)"></path>
<path d="M 535.194 1429.08 C 530.847 1428.37 528.288 1428.82 523.99 1428.79 C 514.58 1428.22 518.422 1424.06 520.133 1418.88 C 522.999 1410.19 535.475 1412.51 538.308 1419 C 539.635 1422.04 537.715 1426.66 535.655 1429.09 L 535.194 1429.08 z M 528.777 1425.54 C 534 1419.59 535.869 1418.31 526.048 1416.42 L 524.904 1417.92 C 518.557 1425.89 521.963 1425.44 528.777 1425.54 z" fill="rgb(230,220,197)" fill-opacity="0.505882" transform="translate(0,0)"></path>
<path d="M 526.048 1416.42 C 535.869 1418.31 534 1419.59 528.777 1425.54 C 521.963 1425.44 518.557 1425.89 524.904 1417.92 L 526.048 1416.42 z" fill="rgb(230,220,197)" fill-opacity="0.462745" transform="translate(0,0)"></path>
<path d="M 387.223 1537.69 C 383.448 1532.55 378.023 1525.23 389.498 1526.8 C 401.6 1528.46 400.606 1514.52 408.199 1517.92 C 408.225 1519.16 408.21 1520.32 408.195 1521.56 C 403.644 1534.63 399.475 1533.61 388.846 1538.62 C 388.305 1538.31 387.764 1538 387.223 1537.69 z" fill="rgb(230,220,197)" fill-opacity="0.129412" transform="translate(0,0)"></path>
<path d="M 402.946 1431.52 C 406.712 1440.83 392.319 1446.82 390.837 1454.16 L 389.805 1454.09 C 384.91 1454.95 380.02 1465.63 377.251 1456.75 C 378.172 1455.42 381.664 1458.4 383.735 1455.81 C 383.786 1455.17 382.489 1451.92 382.052 1451.17 L 380.865 1449.17 C 387.621 1441.8 393.694 1435.93 402.946 1431.52 z" fill="url(#Gradient1)" transform="translate(0,0)"></path>
<path d="M 728.886 1357.95 C 733.025 1356.94 734.778 1356.88 739.023 1356.53 C 739.968 1356.69 741.299 1356.63 741.503 1357.58 C 741.207 1357.92 735.8 1359.63 737.941 1363.1 C 743.321 1371.81 761.582 1371.61 769.458 1367.4 C 776.357 1363.71 759.933 1360.39 758.504 1358.28 C 764.177 1356.79 775.765 1362.62 775.75 1364.39 C 775.683 1372.35 742.251 1374.27 737.01 1370.8 C 730.101 1366.24 735.554 1358.89 735.556 1358.34 C 735.049 1358.08 729.8 1358.01 728.886 1357.95 z" fill="rgb(230,220,197)" fill-opacity="0.054902" transform="translate(0,0)"></path>
<path d="M 499.584 1438.62 C 493.545 1436.92 491.827 1438.07 485.542 1438.03 C 481.792 1438.01 478.517 1433.8 484.024 1431.69 C 488.705 1429.9 503.739 1415.44 501.701 1431.48 C 501.525 1432.87 503.72 1432.05 503.418 1436.3 L 503.477 1437.67 C 501.936 1438.1 501.117 1438.32 499.584 1438.62 z M 492.423 1436.62 C 494.465 1436.21 497.817 1435.96 499.599 1435.32 C 500.172 1435.12 498.914 1432.41 498.775 1431.97 C 497.603 1428.26 492.787 1429.71 490.153 1430.15 C 477.347 1437.34 489.101 1437.99 492.423 1436.62 z" fill="rgb(230,220,197)" fill-opacity="0.6" transform="translate(0,0)"></path>
<path d="M 490.153 1430.15 C 492.787 1429.71 497.603 1428.26 498.775 1431.97 C 498.914 1432.41 500.172 1435.12 499.599 1435.32 C 497.817 1435.96 494.465 1436.21 492.423 1436.62 C 489.101 1437.99 477.347 1437.34 490.153 1430.15 z" fill="rgb(230,220,197)" fill-opacity="0.521569" transform="translate(0,0)"></path>
<path d="M 609.245 1375.33 C 610.753 1376.09 611.678 1376.71 612.064 1378.4 C 612.593 1380.73 617.068 1381.29 617.446 1381.73 C 618.069 1384.93 609.957 1380.82 608.603 1381.5 C 607.206 1383.91 612.945 1383.72 613.495 1384.48 C 614.527 1385.89 610.275 1386.41 610.022 1386.5 C 606.816 1387.6 602.871 1388.39 599.885 1386.29 C 599.386 1386.08 598.887 1385.87 598.388 1385.66 C 593.536 1380.09 597.554 1382.52 589.713 1379.04 C 596.071 1377.69 602.816 1376.56 609.245 1375.33 z" fill="rgb(230,220,197)" fill-opacity="0.392157" transform="translate(0,0)"></path>
<path d="M 561.351 1391.94 C 573.191 1389.63 569.147 1394.44 570.197 1397.95 C 568.058 1401.62 547.177 1405.11 551.67 1394.61 C 552.224 1393.32 559.809 1392.34 561.351 1391.94 z" fill="rgb(230,220,197)" fill-opacity="0.788235" transform="translate(0,0)"></path>
<path d="M 529.231 1391.33 C 531.87 1396.96 527.289 1399.67 532.833 1399.96 L 533.296 1400.35 L 533.318 1400.29 C 528.836 1402.21 510.692 1399.06 505.838 1396.87 C 507.928 1396.38 509.947 1395.82 512.013 1395.32 L 516.516 1394.25 L 520.551 1393.32 C 523.467 1392.66 526.31 1391.94 529.231 1391.33 z" fill="rgb(230,220,197)" fill-opacity="0.52549" transform="translate(0,0)"></path>
<path d="M 370.378 1466.08 C 372.458 1467.49 375.263 1468.54 375.632 1470.41 L 376.307 1473.99 C 376.75 1476.31 376.65 1479.32 375.377 1481.39 C 375.027 1481.96 371.526 1481.46 371.017 1481.42 C 369.608 1481.33 368.781 1482.24 367.541 1482.74 C 367.145 1482.37 366.448 1480.51 366.298 1480.15 C 367.545 1475.02 368.817 1471.05 370.378 1466.08 z" fill="rgb(230,220,197)" fill-opacity="0.207843" transform="translate(0,0)"></path>
<path d="M 428.213 1472.72 C 421.367 1469.78 428.56 1464.71 430.617 1461.69 C 436.432 1453.17 441.701 1454.17 437.424 1465.4 C 434.798 1467.72 430.988 1470.56 428.213 1472.72 z" fill="rgb(230,220,197)" fill-opacity="0.431373" transform="translate(0,0)"></path>
<path d="M 447.955 1413.19 C 453.982 1411.07 457.997 1409.94 464.289 1408.49 C 464.858 1408.83 465.427 1409.17 465.996 1409.51 C 465.534 1410.27 462.534 1410.36 462.64 1411.4 C 462.893 1413.88 462.809 1414.49 460.019 1415.19 C 455.2 1415.79 452.121 1415.22 447.955 1413.19 z" fill="rgb(230,220,197)" fill-opacity="0.482353" transform="translate(0,0)"></path>
<path d="M 579.59 1380.87 C 582.828 1380.16 586.48 1379.17 589.713 1379.04 C 597.554 1382.52 593.536 1380.09 598.388 1385.66 C 596.979 1385.32 587.905 1383.52 587.221 1383.3 L 579.59 1380.87 z" fill="rgb(230,220,197)" fill-opacity="0.509804" transform="translate(0,0)"></path>
<path d="M 419.966 1423.57 C 419.232 1427.59 418.311 1425.04 417.141 1428.98 C 415.632 1434.06 408.961 1430.8 406.778 1429.44 C 412.39 1426.15 413.946 1425.69 419.966 1423.57 z" fill="rgb(230,220,197)" fill-opacity="0.368627" transform="translate(0,0)"></path>
<metadata><recraft-signature>{"signed_by": "recraft", "signature_b64": "5AjGdhGzlWUkWGxEI4QMyTxnGu4t0IiGxzoJ6Ow8dOsQiwAdADqpihw97/eK7z3AWzwuW+6ViEOvUBzg5y5cCQ==", "signing_algo": "Ed25519", "generation_timestamp": 1781914916, "identifier": "4a285406-573e-4e41-90e5-226007bf27c2"}</recraft-signature></metadata></svg>