<svg xmlns="http://www.w3.org/2000/svg" height="1024" preserveAspectRatio="none" style="display: block;" version="1.1" viewBox="0 0 2048 2048" width="1024">
<path d="M 933.883 501.355 C 898.613 500.453 863.157 501.488 827.835 501.139 C 814.059 501.003 801.408 502.309 790.936 491.33 C 779.656 479.505 779.641 459.575 789.32 446.725 C 799.46 433.263 810.966 420.085 821.888 407.052 L 880.404 336.617 C 908.82 301.758 937.459 267.082 966.319 232.591 C 978.638 217.636 990.809 201.768 1003.9 187.622 C 1014.97 175.651 1037.06 176.279 1047.94 188.539 C 1058.49 200.441 1067.92 212.89 1078.04 225.101 L 1142.42 302.385 L 1218.49 394.052 C 1233.13 411.577 1248.08 429.068 1262.15 446.984 C 1277.65 466.728 1266.74 499.192 1240.11 500.676 C 1199.57 502.936 1157.75 499.564 1117.3 501.234 C 1117.02 534.977 1116.95 568.723 1117.12 602.467 C 1117.13 616.876 1116.27 646.258 1117.61 659.2 C 1119.61 660.343 1119.5 660.245 1121.81 660.495 C 1141.08 662.132 1160.68 664.166 1179.6 668.579 C 1187.42 670.403 1195.65 675.702 1203.96 676.543 C 1225.92 680.009 1245.24 686.137 1266.52 692.433 L 1373.34 724.269 L 1544.66 774.835 C 1572.27 783.032 1603.69 790.222 1629.88 801.522 C 1643.97 807.6 1661.02 825.986 1670.57 837.779 C 1697.29 871.167 1723.79 904.738 1750.05 938.49 C 1754.88 944.611 1759.88 950.682 1764.55 956.926 C 1794.63 997.188 1825.61 1021.84 1819.54 1075.93 C 1816.9 1098.52 1805.38 1119.12 1787.53 1133.21 C 1764.23 1151.62 1728.2 1155.91 1699.53 1162.04 C 1677.09 1166.85 1652.72 1172.78 1630.18 1176.38 C 1629.99 1194.53 1629.95 1212.68 1630.08 1230.83 L 1630.06 1386.9 C 1629.87 1453.32 1638.29 1516.48 1587.43 1568.16 C 1572.37 1583.7 1553.84 1595.46 1533.36 1602.47 C 1511.74 1609.93 1478.28 1616.26 1455.16 1621.29 L 1313.73 1651.42 L 1141.16 1688.87 C 1085.99 1700.62 1033.36 1716.21 976.726 1703.06 C 958.541 1698.83 940.202 1694.8 921.915 1691.04 L 764.626 1657.1 L 611.691 1624.43 C 585.886 1618.92 543.489 1611.26 519.853 1603.06 C 498.499 1595.81 479.106 1583.73 463.186 1567.75 C 413.025 1518.04 421.202 1454.22 421.188 1389.88 L 420.953 1232.48 C 421.024 1213.88 420.811 1195.27 420.315 1176.68 C 399.137 1172.78 374.462 1166.26 352.928 1161.96 C 337.232 1158.82 306.492 1152.71 292.392 1147.95 C 282.915 1144.84 273.952 1140.34 265.795 1134.6 C 221.936 1103.34 220.928 1042.82 252.304 1002.38 C 279.868 966.348 306.793 930.771 335.178 895.25 C 354.919 874.112 385.085 823.373 409.198 808.908 C 438.659 791.235 505.851 775.143 539.194 765.425 L 686.809 721.671 L 783.778 693.258 C 798.395 688.915 824.998 679.916 839.026 677.651 C 851.115 677.871 857.359 680.893 866.792 688.843 C 876.818 673.912 863.361 686.218 866.933 672.227 L 867.324 670.532 C 879.505 667.394 890.35 664.859 902.868 663.244 C 912.724 661.973 924.131 661.644 933.621 659.385 C 935.924 612.025 933.733 550.004 933.883 501.355 z M 1478 823.214 C 1476.94 823.346 1463 825.653 1468.69 830.446 C 1468.86 830.587 1475.63 831.803 1476.75 832.062 C 1480.81 830.352 1490.25 828.449 1479.65 823.94 L 1478 823.214 z M 579.589 832.768 C 584.745 832.122 593.435 833.933 591.673 825.051 C 591.247 822.907 585.006 821.532 583.244 820.917 C 580.279 822.053 568.309 823.664 569.021 827.91 C 569.535 830.971 576.868 831.606 579.589 832.768 z M 1102.11 1021.73 C 1103.11 1020.65 1103.1 1018.98 1102.09 1017.9 C 1101.09 1016.83 1099.43 1016.71 1098.28 1017.62 C 1097.45 1018.29 1097.06 1019.35 1097.27 1020.39 C 1097.48 1021.43 1098.26 1022.26 1099.28 1022.54 C 1100.3 1022.83 1101.4 1022.51 1102.11 1021.73 z" fill="rgb(250,168,15)" transform="translate(0,0)"></path>
<path d="M 583.244 820.917 C 585.006 821.532 591.247 822.907 591.673 825.051 C 593.435 833.933 584.745 832.122 579.589 832.768 C 576.868 831.606 569.535 830.971 569.021 827.91 C 568.309 823.664 580.279 822.053 583.244 820.917 z" fill="rgb(245,240,226)" fill-opacity="0.0196078" transform="translate(0,0)"></path>
<path d="M 1476.75 832.062 C 1475.63 831.803 1468.86 830.587 1468.69 830.446 C 1463 825.653 1476.94 823.346 1478 823.214 L 1479.65 823.94 C 1490.25 828.449 1480.81 830.352 1476.75 832.062 z" fill="rgb(248,237,221)" fill-opacity="0.462745" transform="translate(0,0)"></path>
<path d="M 1025.16 1036.76 C 1051.69 1063.49 1076.34 1099.83 1100.07 1129.37 C 1109.49 1142.88 1123.74 1156.71 1132.96 1169.92 C 1161.7 1211.1 1204.51 1255.44 1259.58 1253.17 C 1307.14 1251.21 1366.33 1232.34 1414.29 1223.42 C 1445.87 1217.54 1477.98 1208.1 1509.94 1202.37 L 1630.18 1176.38 C 1629.99 1194.53 1629.95 1212.68 1630.08 1230.83 L 1630.06 1386.9 C 1629.87 1453.32 1638.29 1516.48 1587.43 1568.16 C 1572.37 1583.7 1553.84 1595.46 1533.36 1602.47 C 1511.74 1609.93 1478.28 1616.26 1455.16 1621.29 L 1313.73 1651.42 L 1141.16 1688.87 C 1085.99 1700.62 1033.36 1716.21 976.726 1703.06 C 958.541 1698.83 940.202 1694.8 921.915 1691.04 L 764.626 1657.1 L 611.691 1624.43 C 585.886 1618.92 543.489 1611.26 519.853 1603.06 C 498.499 1595.81 479.106 1583.73 463.186 1567.75 C 413.025 1518.04 421.202 1454.22 421.188 1389.88 L 420.953 1232.48 C 421.024 1213.88 420.811 1195.27 420.315 1176.68 C 459.6 1184.92 501.48 1192.44 540.235 1202.14 C 596.809 1213.11 653.125 1228.59 709.94 1239.96 C 756.496 1249.28 793.972 1263.83 840.343 1241.9 C 878.521 1223.85 894.085 1199.36 919.625 1167.53 C 937.176 1145.71 954.571 1123.76 971.807 1101.69 C 987.073 1082.05 1008.22 1054.54 1025.16 1036.76 z" fill="rgb(172,124,47)" transform="translate(0,0)"></path>
<path d="M 420.315 1176.68 C 459.6 1184.92 501.48 1192.44 540.235 1202.14 C 534.342 1205.24 508.873 1210.78 500.785 1212.73 C 474.07 1218.88 447.456 1225.47 420.953 1232.48 C 421.024 1213.88 420.811 1195.27 420.315 1176.68 z" fill="rgb(145,102,34)" transform="translate(0,0)"></path>
<path d="M 1509.94 1202.37 L 1630.18 1176.38 C 1629.99 1194.53 1629.95 1212.68 1630.08 1230.83 C 1623.02 1231.2 1515.2 1205.65 1509.94 1202.37 z" fill="rgb(145,102,34)" transform="translate(0,0)"></path>
<path d="M 507.683 1260.19 C 545.473 1259.58 541.178 1297.93 541.095 1324.15 L 540.704 1410.43 C 540.521 1436.38 534.145 1480.42 565.391 1491.28 C 590.881 1500.14 620.366 1504.46 646.96 1510.57 C 715.478 1526.9 784.137 1542.62 852.929 1557.75 C 870.896 1561.6 888.876 1565.4 906.82 1569.36 C 922.442 1572.81 942.66 1575.99 947.762 1593.87 C 949.812 1601.31 948.751 1609.26 944.823 1615.89 C 939.688 1624.47 933.479 1627.34 924.318 1629.84 C 916.554 1630.13 892.056 1624.08 883.112 1622.14 C 851.35 1615.2 819.631 1608.05 787.959 1600.71 C 732.25 1588.5 676.634 1575.86 621.117 1562.79 C 599.077 1557.67 576.828 1552.6 554.851 1547.38 C 512.517 1537.72 484.844 1505.1 483.457 1461.37 C 482.036 1409.95 483.745 1358.39 482.862 1306.95 C 482.477 1284.49 482.139 1267.27 507.683 1260.19 z" fill="rgb(250,168,15)" transform="translate(0,0)"></path>
<path d="M 1538.96 1267.35 C 1571.87 1269.29 1567.54 1299.89 1567.83 1323.88 C 1567.96 1334.34 1567.91 1344.86 1567.94 1355.32 L 1568.02 1424.05 C 1567.98 1438.31 1568.34 1458.06 1566.18 1471.71 C 1563.92 1486.02 1558.58 1499.68 1550.51 1511.72 C 1526.18 1547.29 1488.4 1549.31 1449.53 1558.17 L 1362.69 1578.22 L 1227.72 1608.96 C 1195.98 1616.24 1163.15 1624.16 1131.23 1630.02 C 1124.45 1630.14 1118.77 1628.81 1113.25 1624.68 C 1107 1619.99 1103.3 1612.86 1102.32 1605.17 C 1101.05 1595.14 1105.06 1584.14 1113.69 1578.39 C 1125.73 1570.36 1222.16 1551.77 1243.94 1546.87 L 1419.86 1507.27 C 1440.58 1502.68 1462.21 1498.85 1482.58 1493.1 C 1514.79 1484.01 1509.84 1446.85 1509.72 1421 L 1509.51 1336.07 C 1509.51 1307 1501.89 1272.83 1538.96 1267.35 z" fill="rgb(250,168,15)" transform="translate(0,0)"></path>
<path d="M 933.883 501.355 C 898.613 500.453 863.157 501.488 827.835 501.139 C 814.059 501.003 801.408 502.309 790.936 491.33 C 779.656 479.505 779.641 459.575 789.32 446.725 C 799.46 433.263 810.966 420.085 821.888 407.052 L 880.404 336.617 C 908.82 301.758 937.459 267.082 966.319 232.591 C 978.638 217.636 990.809 201.768 1003.9 187.622 C 1014.97 175.651 1037.06 176.279 1047.94 188.539 C 1058.49 200.441 1067.92 212.89 1078.04 225.101 L 1142.42 302.385 L 1218.49 394.052 C 1233.13 411.577 1248.08 429.068 1262.15 446.984 C 1277.65 466.728 1266.74 499.192 1240.11 500.676 C 1199.57 502.936 1157.75 499.564 1117.3 501.234 C 1117.02 534.977 1116.95 568.723 1117.12 602.467 C 1117.13 616.876 1116.27 646.258 1117.61 659.2 C 1119.61 660.343 1119.5 660.245 1121.81 660.495 C 1116.93 660.958 1117.13 660.88 1117.1 666.154 L 1117.05 801.222 C 1117.05 819.766 1117.49 840.643 1116.7 859.217 C 1116.45 864.952 1112.36 872.529 1108.69 877.057 C 1102.55 884.625 1089.92 886.97 1080.42 886.922 C 1058.47 886.813 1035.47 886.955 1013.58 886.781 C 1000.52 886.677 970.279 887.64 958.592 885.372 C 952.842 884.237 947.57 881.388 943.469 877.2 C 938.271 871.995 935.171 864.771 934.671 857.596 C 933.255 837.268 933.96 814.493 933.952 794.049 L 933.621 659.385 C 935.924 612.025 933.733 550.004 933.883 501.355 z" fill="rgb(172,124,47)" transform="translate(0,0)"></path>
<path d="M 1025.59 263.477 C 1033.55 268.729 1069.06 316.034 1078.03 326.724 C 1107.67 362.079 1136.02 399.349 1166.39 434.211 C 1139.11 434.926 1109.48 432.765 1082.66 435.854 C 1049.25 439.701 1055.11 481.467 1055.27 504.829 C 1055.46 526.445 1055.53 548.062 1055.49 569.679 L 1055.14 822.645 L 1030.25 822.794 C 1018.86 822.784 1007.46 822.698 996.069 822.535 L 995.884 483.541 C 995.695 450.757 988.175 435.06 952.334 434.595 C 929.85 434.304 907.564 434.235 885.02 434.728 C 906.687 411.344 931.103 379.647 951.431 354.661 C 975.666 324.873 1002.26 293.781 1025.59 263.477 z" fill="rgb(250,168,15)" transform="translate(0,0)"></path>
<path d="M 933.621 659.385 L 933.952 794.049 C 933.96 814.493 933.255 837.268 934.671 857.596 C 935.171 864.771 938.271 871.995 943.469 877.2 C 947.57 881.388 952.842 884.237 958.592 885.372 C 970.279 887.64 1000.52 886.677 1013.58 886.781 C 1035.47 886.955 1058.47 886.813 1080.42 886.922 C 1089.92 886.97 1102.55 884.625 1108.69 877.057 C 1112.36 872.529 1116.45 864.952 1116.7 859.217 C 1117.49 840.643 1117.05 819.766 1117.05 801.222 L 1117.1 666.154 C 1117.13 660.88 1116.93 660.958 1121.81 660.495 C 1141.08 662.132 1160.68 664.166 1179.6 668.579 C 1187.42 670.403 1195.65 675.702 1203.96 676.543 C 1200.74 681.444 1172.46 688.505 1173.89 709.514 C 1174.99 725.821 1178.43 736.184 1195.55 742.186 C 1219.46 749.693 1243.68 755.716 1267.74 762.525 L 1413.09 803.953 C 1423.75 807.002 1470.17 822.998 1478 823.214 C 1476.94 823.346 1463 825.653 1468.69 830.446 C 1468.86 830.587 1475.63 831.803 1476.75 832.062 L 1171.69 923.396 L 1070.5 953.43 C 1056.75 957.49 1038.54 963.66 1025.2 966.845 L 768.786 889.552 C 750.173 884.009 583.825 836.191 579.589 832.768 C 584.745 832.122 593.435 833.933 591.673 825.051 C 591.247 822.907 585.006 821.532 583.244 820.917 C 591.324 815.559 622.974 808.86 634.203 805.702 C 661.741 797.958 855.559 744.509 865.125 737.191 C 871.839 732.056 876.039 723.935 876.708 715.566 C 877.552 705.01 873.296 696.707 866.792 688.843 C 876.818 673.912 863.361 686.218 866.933 672.227 L 867.324 670.532 C 879.505 667.394 890.35 664.859 902.868 663.244 C 912.724 661.973 924.131 661.644 933.621 659.385 z" fill="rgb(245,240,226)" transform="translate(0,0)"></path>
<path d="M 446.537 860.208 C 461.605 865.306 476.789 870.053 492.078 874.447 C 521.484 883.94 551.657 892.114 581.288 901.097 L 831.752 976.425 C 860.977 984.941 890.147 993.649 919.258 1002.55 C 931.471 1006.28 948.273 1010.91 959.9 1015.33 C 926.115 1059.93 889.189 1102.49 854.985 1146.84 C 849.068 1154.51 842.498 1162.76 835.806 1169.65 C 818.28 1187.68 792.873 1190.45 768.902 1185.67 C 731.903 1178.3 694.536 1169.79 657.468 1161.51 L 510.619 1129.73 L 403.878 1106.74 C 388.278 1103.4 363.539 1098.83 348.82 1094.47 C 335.705 1092.09 316.351 1089.9 306.2 1081.62 C 300.816 1077.28 297.409 1070.95 296.749 1064.06 C 294.653 1041.75 326.734 1009.78 340.788 991.983 C 375.682 947.774 410.933 903.848 446.537 860.208 z" fill="rgb(245,240,226)" transform="translate(0,0)"></path>
<path d="M 446.537 860.208 C 461.605 865.306 476.789 870.053 492.078 874.447 C 485.658 886.472 457.046 922.395 447.971 934.061 C 424.628 964.009 401.468 994.1 378.493 1024.33 C 368.027 1037.86 353.903 1053.81 346.563 1069.02 C 343.625 1075.11 345.099 1082.57 347.013 1088.82 C 347.596 1090.71 348.198 1092.59 348.82 1094.47 C 335.705 1092.09 316.351 1089.9 306.2 1081.62 C 300.816 1077.28 297.409 1070.95 296.749 1064.06 C 294.653 1041.75 326.734 1009.78 340.788 991.983 C 375.682 947.774 410.933 903.848 446.537 860.208 z" fill="rgb(248,206,117)" transform="translate(0,0)"></path>
<path d="M 1604.35 860.779 C 1624.09 882.104 1651.22 919.101 1670.75 943.021 C 1688.83 965.071 1706.8 987.212 1724.66 1009.44 C 1730.7 1017.02 1745.42 1034.84 1749.56 1042.15 C 1752.87 1047.91 1754.44 1054.49 1754.1 1061.11 C 1752.54 1088.18 1717.94 1093.47 1696.3 1095.35 C 1680.07 1100.36 1655.55 1104.87 1638.55 1108.51 L 1544.37 1129.01 C 1457 1148.41 1369.03 1166.87 1281.53 1185.79 C 1260.02 1190.44 1228.65 1185.18 1213.84 1167.63 C 1171.85 1117.86 1132.22 1065.57 1090.41 1015.56 C 1109.01 1008.85 1130.92 1002.99 1150.04 997.357 L 1217.11 977.097 L 1427.37 914.037 C 1468.51 901.838 1518.1 888.623 1557.84 875.175 C 1572.11 872.128 1590.76 866.087 1604.35 860.779 z M 1102.11 1021.73 C 1103.11 1020.65 1103.1 1018.98 1102.09 1017.9 C 1101.09 1016.83 1099.43 1016.71 1098.28 1017.62 C 1097.45 1018.29 1097.06 1019.35 1097.27 1020.39 C 1097.48 1021.43 1098.26 1022.26 1099.28 1022.54 C 1100.3 1022.83 1101.4 1022.51 1102.11 1021.73 z" fill="rgb(245,240,226)" transform="translate(0,0)"></path>
<path d="M 1604.35 860.779 C 1624.09 882.104 1651.22 919.101 1670.75 943.021 C 1688.83 965.071 1706.8 987.212 1724.66 1009.44 C 1730.7 1017.02 1745.42 1034.84 1749.56 1042.15 C 1752.87 1047.91 1754.44 1054.49 1754.1 1061.11 C 1752.54 1088.18 1717.94 1093.47 1696.3 1095.35 C 1717.13 1074.44 1699.75 1060.07 1686.32 1041.96 C 1672.7 1023.36 1658.74 1005.01 1644.47 986.906 C 1615.48 949.502 1588.13 911.561 1557.84 875.175 C 1572.11 872.128 1590.76 866.087 1604.35 860.779 z" fill="rgb(248,206,117)" transform="translate(0,0)"></path>
<path d="M 1098.28 1017.62 C 1099.43 1016.71 1101.09 1016.83 1102.09 1017.9 C 1103.1 1018.98 1103.11 1020.65 1102.11 1021.73 C 1101.4 1022.51 1100.3 1022.83 1099.28 1022.54 C 1098.26 1022.26 1097.48 1021.43 1097.27 1020.39 C 1097.06 1019.35 1097.45 1018.29 1098.28 1017.62 z" fill="rgb(248,237,221)" fill-opacity="0.647059" transform="translate(0,0)"></path>
<path d="M 839.026 677.651 C 849.951 676.221 856.847 673.584 867.324 670.532 L 866.933 672.227 C 863.361 686.218 876.818 673.912 866.792 688.843 C 857.359 680.893 851.115 677.871 839.026 677.651 z" fill="rgb(245,240,226)" fill-opacity="0.721569" transform="translate(0,0)"></path>
<metadata><recraft-signature>{"signed_by": "recraft", "signature_b64": "+OeJplsCWlvQa17oCRwPf9al+khtcMa5/Yne4QuvL2v5wf0iJjNDOWl2mL3fyXjsalo5NTsoD1J/KTBK1DrbDw==", "signing_algo": "Ed25519", "generation_timestamp": 1781914861, "identifier": "7bb68657-0d82-42a4-9c5c-beddec71d77a"}</recraft-signature></metadata></svg>