<svg xmlns="http://www.w3.org/2000/svg" height="1024" preserveAspectRatio="none" style="display: block;" version="1.1" viewBox="0 0 2048 2048" width="1024">
<path d="M 1219.81 625.096 C 1221.22 624.751 1224.82 624.342 1225.04 623.096 C 1229.06 600.249 1219.83 573.84 1233.45 552.649 C 1239.59 542.736 1253.85 532.905 1265.93 532.711 C 1290.17 532.462 1316.52 531.422 1340.6 532.428 C 1360.54 533.261 1392.48 529.141 1409.9 536.231 C 1445.59 550.756 1435.43 594.563 1436.91 623.734 C 1440.86 624.993 1442.68 625.385 1446.18 627.489 C 1469.87 639.119 1469.43 672.092 1442.83 681.637 C 1440.84 685.997 1460.25 927.835 1463.14 956.574 C 1505.15 961.312 1530.57 990.955 1531 1033.13 C 1526.6 1034.33 1525.42 1034.2 1520.76 1034.28 C 1516.92 1036.24 1459.58 1034.73 1449.05 1035.86 C 1457.97 1040.77 1464.77 1046.37 1467.32 1056.61 C 1472.35 1076.89 1462.5 1088.38 1446.18 1097.17 L 1455.36 1097.64 C 1478.85 1099.55 1509.61 1095.92 1532.39 1099.32 L 1528.57 1100 C 1527.51 1101.82 1527.91 1317.47 1527.93 1340.7 L 1528.02 1435.71 C 1528.02 1452.56 1527.49 1472.37 1528.24 1488.95 C 1540.72 1488.55 1550.17 1488.77 1560.14 1498.11 C 1566.59 1504.08 1570.32 1512.43 1570.46 1521.21 C 1570.61 1536.16 1560.63 1546.62 1547.97 1552.88 C 1572.16 1562.11 1587.17 1566.59 1599.4 1593.58 C 1606.44 1609.15 1606.86 1626.91 1600.57 1642.8 C 1590.33 1669.38 1565.99 1687.85 1537.09 1688.03 C 1506.06 1688.21 1475.02 1688.14 1444 1688.2 L 1238.8 1688.17 L 704.248 1688.18 L 488.691 1688.08 C 463.789 1688.19 438.773 1689.22 413.844 1688.68 C 404.692 1688.48 389.086 1689.04 380.515 1687.23 C 408.314 1686.53 436.968 1687.29 465.028 1686.74 C 443.045 1679.38 424.088 1669.1 413.393 1647.4 C 405.772 1631.93 403.642 1613.59 409.453 1597.17 C 415.934 1578.62 430.487 1564.03 449.01 1557.49 C 455.503 1555.17 463.074 1553.97 469.026 1550.9 C 464.776 1543.56 456.245 1542.91 453.653 1529.25 C 449.824 1509.09 459.493 1495 479.05 1490.37 L 478.272 1488.92 L 479.493 1487.38 C 480.068 1451.95 481.648 1105.47 478.334 1098.03 L 478.363 1096.81 C 442.464 1084.45 445.325 1042.62 479.025 1034.4 L 478.893 1032.84 C 480.489 1028.65 479.581 1008.62 479.596 1002.39 L 479.647 912.28 C 479.639 896.901 478.976 872.759 480.785 858.151 C 482.011 847.584 484.846 837.267 489.192 827.558 C 500.531 802.151 520.177 782.573 545.93 772.137 C 554.671 768.595 562.458 766.721 570.872 763.517 L 565.785 760.438 L 912.513 840.503 C 912.623 833.065 913.324 809.704 912.3 803.386 C 909.185 801.729 906.339 801.626 902.826 801.124 C 897.3 799.427 893.87 798.377 889.513 794.531 C 883.573 789.378 880.028 781.999 879.716 774.142 C 879.332 766.596 882.097 759.228 887.352 753.798 C 900.827 740.09 940.612 744.691 960.973 745.058 C 996.391 744.005 1035.68 744.919 1071.38 745.009 C 1080.12 744.985 1128.69 744.32 1133.75 745.458 C 1139.82 746.767 1145.39 749.798 1149.79 754.188 C 1154.64 759.118 1158.59 766.982 1158.22 774 C 1157.76 782.063 1154.04 789.591 1147.91 794.853 C 1143.42 798.771 1138.23 801.26 1132.35 802.141 L 1131.09 802.34 C 1129.48 806.851 1130.68 881.912 1130.38 891.454 C 1142.07 892.447 1189.5 904.498 1203.04 907.532 C 1204.84 893.38 1205.62 871.95 1206.64 857.136 L 1213.43 764.322 C 1215.22 740.637 1218.08 709.808 1219.3 685.479 C 1219.41 683.19 1215.43 681.956 1212.73 680.526 C 1204.34 675.636 1198.45 670.37 1195.99 660.489 C 1194.13 653.02 1195.38 645.115 1199.46 638.584 C 1204.12 631.131 1211.45 627.071 1219.81 625.096 z" fill="rgb(156,93,9)" transform="translate(0,0)"></path>
<path d="M 1219.81 625.096 C 1221.22 624.751 1224.82 624.342 1225.04 623.096 C 1229.06 600.249 1219.83 573.84 1233.45 552.649 C 1239.59 542.736 1253.85 532.905 1265.93 532.711 C 1290.17 532.462 1316.52 531.422 1340.6 532.428 C 1360.54 533.261 1392.48 529.141 1409.9 536.231 C 1445.59 550.756 1435.43 594.563 1436.91 623.734 C 1440.86 624.993 1442.68 625.385 1446.18 627.489 C 1469.87 639.119 1469.43 672.092 1442.83 681.637 C 1440.84 685.997 1460.25 927.835 1463.14 956.574 C 1505.15 961.312 1530.57 990.955 1531 1033.13 C 1526.6 1034.33 1525.42 1034.2 1520.76 1034.28 C 1516.92 1036.24 1459.58 1034.73 1449.05 1035.86 C 1457.97 1040.77 1464.77 1046.37 1467.32 1056.61 C 1472.35 1076.89 1462.5 1088.38 1446.18 1097.17 C 1401.26 1099.13 1346.19 1097.61 1300.64 1097.52 L 1035.69 1097.22 L 669.253 1097.24 C 607.066 1097.21 540.183 1098.39 478.363 1096.81 C 442.464 1084.45 445.325 1042.62 479.025 1034.4 L 478.893 1032.84 C 480.489 1028.65 479.581 1008.62 479.596 1002.39 L 479.647 912.28 C 479.639 896.901 478.976 872.759 480.785 858.151 C 482.011 847.584 484.846 837.267 489.192 827.558 C 500.531 802.151 520.177 782.573 545.93 772.137 C 554.671 768.595 562.458 766.721 570.872 763.517 L 565.785 760.438 L 912.513 840.503 C 912.623 833.065 913.324 809.704 912.3 803.386 C 909.185 801.729 906.339 801.626 902.826 801.124 C 897.3 799.427 893.87 798.377 889.513 794.531 C 883.573 789.378 880.028 781.999 879.716 774.142 C 879.332 766.596 882.097 759.228 887.352 753.798 C 900.827 740.09 940.612 744.691 960.973 745.058 C 996.391 744.005 1035.68 744.919 1071.38 745.009 C 1080.12 744.985 1128.69 744.32 1133.75 745.458 C 1139.82 746.767 1145.39 749.798 1149.79 754.188 C 1154.64 759.118 1158.59 766.982 1158.22 774 C 1157.76 782.063 1154.04 789.591 1147.91 794.853 C 1143.42 798.771 1138.23 801.26 1132.35 802.141 L 1131.09 802.34 C 1129.48 806.851 1130.68 881.912 1130.38 891.454 C 1142.07 892.447 1189.5 904.498 1203.04 907.532 C 1204.84 893.38 1205.62 871.95 1206.64 857.136 L 1213.43 764.322 C 1215.22 740.637 1218.08 709.808 1219.3 685.479 C 1219.41 683.19 1215.43 681.956 1212.73 680.526 C 1204.34 675.636 1198.45 670.37 1195.99 660.489 C 1194.13 653.02 1195.38 645.115 1199.46 638.584 C 1204.12 631.131 1211.45 627.071 1219.81 625.096 z" fill="rgb(156,93,9)" transform="translate(0,0)"></path>
<path d="M 479.025 1034.4 C 547.235 1032.78 621.934 1034.42 690.645 1034.34 L 1161.46 1034.32 L 1357.28 1034.38 C 1374.26 1034.37 1436.03 1033.34 1449.05 1035.86 C 1457.97 1040.77 1464.77 1046.37 1467.32 1056.61 C 1472.35 1076.89 1462.5 1088.38 1446.18 1097.17 C 1401.26 1099.13 1346.19 1097.61 1300.64 1097.52 L 1035.69 1097.22 L 669.253 1097.24 C 607.066 1097.21 540.183 1098.39 478.363 1096.81 C 442.464 1084.45 445.325 1042.62 479.025 1034.4 z" fill="rgb(252,179,72)" transform="translate(0,0)"></path>
<path d="M 1219.81 625.096 C 1221.22 624.751 1224.82 624.342 1225.04 623.096 C 1229.06 600.249 1219.83 573.84 1233.45 552.649 C 1239.59 542.736 1253.85 532.905 1265.93 532.711 C 1290.17 532.462 1316.52 531.422 1340.6 532.428 C 1360.54 533.261 1392.48 529.141 1409.9 536.231 C 1445.59 550.756 1435.43 594.563 1436.91 623.734 C 1440.86 624.993 1442.68 625.385 1446.18 627.489 C 1469.87 639.119 1469.43 672.092 1442.83 681.637 C 1438.23 681.002 1430.37 682.048 1425 681.835 C 1406.07 681.085 1381.11 683.148 1362.75 681.528 L 1362.76 680.56 C 1349.89 682.369 1306.14 681.017 1289.97 681.309 C 1276.94 681.545 1222.69 682.491 1212.73 680.526 C 1204.34 675.636 1198.45 670.37 1195.99 660.489 C 1194.13 653.02 1195.38 645.115 1199.46 638.584 C 1204.12 631.131 1211.45 627.071 1219.81 625.096 z" fill="rgb(93,55,4)" transform="translate(0,0)"></path>
<path d="M 1212.73 680.526 C 1204.34 675.636 1198.45 670.37 1195.99 660.489 C 1194.13 653.02 1195.38 645.115 1199.46 638.584 C 1204.12 631.131 1211.45 627.071 1219.81 625.096 C 1249.19 625.451 1278.57 625.531 1307.94 625.337 C 1323.49 625.325 1346.91 624.791 1361.87 626.711 C 1379.41 638.056 1383.57 650.686 1373.82 670.982 C 1371.26 676.317 1364.08 678.132 1362.76 680.56 C 1349.89 682.369 1306.14 681.017 1289.97 681.309 C 1276.94 681.545 1222.69 682.491 1212.73 680.526 z" fill="rgb(252,179,72)" transform="translate(0,0)"></path>
<path d="M 1361.87 626.711 C 1376.78 625.257 1432.61 624.62 1446.18 627.489 C 1469.87 639.119 1469.43 672.092 1442.83 681.637 C 1438.23 681.002 1430.37 682.048 1425 681.835 C 1406.07 681.085 1381.11 683.148 1362.75 681.528 L 1362.76 680.56 C 1364.08 678.132 1371.26 676.317 1373.82 670.982 C 1383.57 650.686 1379.41 638.056 1361.87 626.711 z" fill="rgb(181,116,22)" transform="translate(0,0)"></path>
<path d="M 1362.75 681.528 C 1381.11 683.148 1406.07 681.085 1425 681.835 C 1430.37 682.048 1438.23 681.002 1442.83 681.637 C 1440.84 685.997 1460.25 927.835 1463.14 956.574 C 1505.15 961.312 1530.57 990.955 1531 1033.13 C 1526.6 1034.33 1525.42 1034.2 1520.76 1034.28 C 1515.69 1033.67 1502.53 1033.99 1497.02 1034.02 L 1453.26 1034.26 C 1453.79 971.078 1415.49 955.22 1359.65 948.57 C 1358.73 860.087 1360.39 771.194 1359.64 682.652 L 1362.75 681.528 z" fill="rgb(93,55,4)" transform="translate(0,0)"></path>
<path d="M 1071.38 745.009 C 1080.12 744.985 1128.69 744.32 1133.75 745.458 C 1139.82 746.767 1145.39 749.798 1149.79 754.188 C 1154.64 759.118 1158.59 766.982 1158.22 774 C 1157.76 782.063 1154.04 789.591 1147.91 794.853 C 1143.42 798.771 1138.23 801.26 1132.35 802.141 L 1131.09 802.34 C 1124.98 800.576 1084.45 801.386 1074.89 800.848 C 1073 800.954 1071.31 800.996 1069.43 801.025 C 1013.9 800.529 958.359 800.562 902.826 801.124 C 897.3 799.427 893.87 798.377 889.513 794.531 C 883.573 789.378 880.028 781.999 879.716 774.142 C 879.332 766.596 882.097 759.228 887.352 753.798 C 900.827 740.09 940.612 744.691 960.973 745.058 C 996.391 744.005 1035.68 744.919 1071.38 745.009 z" fill="rgb(252,179,72)" transform="translate(0,0)"></path>
<path d="M 1071.38 745.009 C 1080.12 744.985 1128.69 744.32 1133.75 745.458 C 1139.82 746.767 1145.39 749.798 1149.79 754.188 C 1154.64 759.118 1158.59 766.982 1158.22 774 C 1157.76 782.063 1154.04 789.591 1147.91 794.853 C 1143.42 798.771 1138.23 801.26 1132.35 802.141 L 1131.09 802.34 C 1124.98 800.576 1084.45 801.386 1074.89 800.848 C 1099.03 786.753 1102.47 762.567 1077.32 747.221 C 1075.18 746.337 1073.59 745.741 1071.38 745.009 z" fill="rgb(181,116,22)" transform="translate(0,0)"></path>
<path d="M 960.973 745.058 C 996.391 744.005 1035.68 744.919 1071.38 745.009 C 1073.59 745.741 1075.18 746.337 1077.32 747.221 C 1040.53 744.273 995.046 748.374 960.973 745.058 z" fill="rgb(181,116,22)" transform="translate(0,0)"></path>
<path d="M 1074.89 800.848 C 1084.45 801.386 1124.98 800.576 1131.09 802.34 C 1129.48 806.851 1130.68 881.912 1130.38 891.454 C 1121.86 890.454 1113.38 887.992 1104.98 886.206 L 1100.48 885.23 C 1099.66 885.065 1098.84 884.901 1098.02 884.737 L 1091.48 883.244 L 1086.98 882.215 L 1082.99 881.297 C 1076.67 879.818 1070.11 877.825 1063.94 876.479 C 1064.1 853.186 1063.89 829.79 1064.02 806.49 C 1064.19 806.314 1063.63 802.731 1064.29 802.341 C 1065.58 801.572 1068.09 801.332 1069.43 801.025 C 1071.31 800.996 1073 800.954 1074.89 800.848 z" fill="rgb(93,55,4)" transform="translate(0,0)"></path>
<path d="M 1245.03 762.006 C 1259.23 762.188 1268.59 767.984 1267.46 783.565 C 1265.02 817.304 1264.29 852.014 1259.5 885.394 C 1258.77 890.505 1252.43 894.175 1248.37 896.128 C 1234.41 898.251 1230.46 893.819 1224.48 882.159 C 1225.46 853.089 1229.4 823.853 1230.93 794.754 C 1231.76 778.889 1230.29 770.196 1245.03 762.006 z" fill="rgb(181,116,22)" transform="translate(0,0)"></path>
<path d="M 1528.24 1488.95 C 1540.72 1488.55 1550.17 1488.77 1560.14 1498.11 C 1566.59 1504.08 1570.32 1512.43 1570.46 1521.21 C 1570.61 1536.16 1560.63 1546.62 1547.97 1552.88 C 1572.16 1562.11 1587.17 1566.59 1599.4 1593.58 C 1606.44 1609.15 1606.86 1626.91 1600.57 1642.8 C 1590.33 1669.38 1565.99 1687.85 1537.09 1688.03 C 1506.06 1688.21 1475.02 1688.14 1444 1688.2 L 1238.8 1688.17 L 704.248 1688.18 L 488.691 1688.08 C 463.789 1688.19 438.773 1689.22 413.844 1688.68 C 404.692 1688.48 389.086 1689.04 380.515 1687.23 C 408.314 1686.53 436.968 1687.29 465.028 1686.74 C 443.045 1679.38 424.088 1669.1 413.393 1647.4 C 405.772 1631.93 403.642 1613.59 409.453 1597.17 C 415.934 1578.62 430.487 1564.03 449.01 1557.49 C 455.503 1555.17 463.074 1553.97 469.026 1550.9 C 464.776 1543.56 456.245 1542.91 453.653 1529.25 C 449.824 1509.09 459.493 1495 479.05 1490.37 C 538.505 1488.64 605.355 1490.29 665.413 1490.43 L 999.637 1490.7 L 1284.18 1490.75 C 1334.23 1490.68 1396.06 1488.88 1445.06 1491.05 L 1447.82 1490.56 C 1463.94 1488.15 1516.96 1492.51 1528.24 1488.95 z" fill="rgb(156,93,9)" transform="translate(0,0)"></path>
<path d="M 479.05 1490.37 C 538.505 1488.64 605.355 1490.29 665.413 1490.43 L 999.637 1490.7 L 1284.18 1490.75 C 1334.23 1490.68 1396.06 1488.88 1445.06 1491.05 C 1477.99 1502.76 1477.3 1539.67 1446.98 1552.05 C 1442.42 1552.42 1439.73 1552.98 1434.63 1553.22 C 1428.53 1552.64 1414.67 1553.04 1408.14 1553.05 L 1358.95 1553.04 L 1195.08 1552.93 L 667.521 1553.07 L 538.578 1552.99 C 518.571 1552.99 493.595 1554.41 474.064 1551.44 C 471.583 1551.07 472.416 1550.45 469.026 1550.9 C 464.776 1543.56 456.245 1542.91 453.653 1529.25 C 449.824 1509.09 459.493 1495 479.05 1490.37 z" fill="rgb(252,179,72)" transform="translate(0,0)"></path>
<path d="M 1528.24 1488.95 C 1540.72 1488.55 1550.17 1488.77 1560.14 1498.11 C 1566.59 1504.08 1570.32 1512.43 1570.46 1521.21 C 1570.61 1536.16 1560.63 1546.62 1547.97 1552.88 C 1538.44 1551.93 1522.42 1552.48 1512.25 1552.57 C 1496 1552.71 1478.34 1552.38 1462.2 1553.18 C 1456.28 1552.94 1452.75 1553.28 1446.98 1552.05 C 1477.3 1539.67 1477.99 1502.76 1445.06 1491.05 L 1447.82 1490.56 C 1463.94 1488.15 1516.96 1492.51 1528.24 1488.95 z" fill="rgb(181,116,22)" transform="translate(0,0)"></path>
<path d="M 1446.98 1552.05 C 1452.75 1553.28 1456.28 1552.94 1462.2 1553.18 C 1457.34 1556.73 1440.72 1554.52 1434.63 1553.22 C 1439.73 1552.98 1442.42 1552.42 1446.98 1552.05 z" fill="rgb(93,55,4)" transform="translate(0,0)"></path>
<path d="M 1455.36 1097.64 C 1478.85 1099.55 1509.61 1095.92 1532.39 1099.32 L 1528.57 1100 C 1527.51 1101.82 1527.91 1317.47 1527.93 1340.7 L 1528.02 1435.71 C 1528.02 1452.56 1527.49 1472.37 1528.24 1488.95 C 1516.96 1492.51 1463.94 1488.15 1447.82 1490.56 C 1446.3 1472.35 1447.13 1438.53 1447.07 1419.39 L 1446.69 1286.4 L 1446.98 1159.26 C 1447.04 1144.34 1446.03 1112.96 1447.35 1099.5 C 1449.8 1097.07 1450.72 1097.91 1455.36 1097.64 z" fill="rgb(93,55,4)" transform="translate(0,0)"></path>
<path d="M 593.55 1177.36 C 594.796 1177.14 599.799 1176.97 601.231 1176.93 C 623.375 1176.41 644.835 1184.61 660.994 1199.76 C 699.293 1236.01 683.469 1294.35 686.941 1341.97 C 686.742 1357.49 687.931 1376.52 685.901 1391.6 C 682.92 1413.74 628.84 1406.67 613.379 1406.56 C 597.315 1406.48 537.994 1410.36 527.264 1402.44 C 522.553 1398.96 519.994 1393.12 519.245 1387.46 C 516.941 1370.06 518.77 1350.77 518.786 1333.16 C 518.809 1307.62 516.081 1268.57 520.482 1244.87 C 522.788 1231.84 528.142 1219.54 536.109 1208.97 C 551.18 1189.17 569.527 1180.72 593.55 1177.36 z" fill="rgb(249,228,181)" transform="translate(0,0)"></path>
<path d="M 1085.55 1177.34 C 1108.93 1173.3 1138.22 1183.81 1154.99 1200.37 C 1184.49 1229.52 1179.81 1268.08 1179.64 1306 C 1179.59 1327.28 1179.67 1348.56 1179.9 1369.84 C 1179.99 1403.1 1174.54 1408.17 1140.5 1407.17 C 1130.37 1406.88 1118.78 1407 1108.5 1406.89 C 1092.98 1406.8 1077.47 1406.8 1061.95 1406.87 C 1023.85 1407.03 1009.95 1410.67 1012.04 1366.1 C 1013.18 1341.75 1011.65 1314.93 1012.16 1290.29 C 1012.49 1274.34 1011.31 1258.38 1014.26 1242.5 C 1016.43 1230.49 1021.35 1219.13 1028.62 1209.33 C 1042.97 1189.98 1062.12 1180.67 1085.55 1177.34 z" fill="rgb(249,228,181)" transform="translate(0,0)"></path>
<path d="M 839.333 1177.36 C 841.883 1177.15 844.439 1177.02 846.997 1176.96 C 868.891 1176.61 892.961 1185.42 908.532 1201.07 C 938.317 1231 933.197 1264.63 933.03 1303.27 L 933.039 1369.54 C 933.003 1402.93 928.69 1407.48 893.97 1406.68 C 884.201 1406.46 873.087 1406.43 863.25 1406.29 C 847.1 1406.29 785.058 1409.4 775.227 1402.36 C 769.372 1398.17 766.563 1393.39 765.705 1386.33 C 763.458 1367.87 765.536 1347.59 765.644 1328.89 C 765.785 1304.66 763.045 1262.72 767.641 1240.37 C 770.08 1228.51 775.509 1217.53 782.955 1208.02 C 797.248 1189.75 816.616 1180.3 839.333 1177.36 z" fill="rgb(249,228,181)" transform="translate(0,0)"></path>
<path d="M 1329.74 1177.32 C 1332.49 1177.04 1335.25 1176.88 1338.01 1176.85 C 1393.68 1175.9 1427.57 1220.51 1424.81 1272.67 C 1425.2 1301.35 1424.39 1333.59 1425.01 1361.86 C 1425.74 1395.33 1424.84 1409.89 1385.93 1407.08 C 1378.18 1406.52 1364.72 1406.76 1356.07 1406.68 C 1339.22 1406.59 1277.27 1409.63 1266.89 1402.82 C 1262.5 1399.99 1259.44 1395.5 1258.42 1390.37 C 1256.64 1381.21 1257.62 1339.94 1257.81 1328.44 C 1259.06 1301.24 1255.12 1271.4 1259.12 1244.67 C 1264.79 1206.76 1293.79 1182.99 1329.74 1177.32 z" fill="rgb(249,228,181)" transform="translate(0,0)"></path>
<path d="M 1654.16 143.513 C 1694.5 144.165 1726.52 155.581 1754.98 185.229 C 1781.69 213.061 1796.15 250.436 1795.1 289.001 C 1794.06 329.251 1776.94 367.408 1747.57 394.944 C 1701.9 438.097 1645.47 446.611 1586.87 427.527 C 1550.44 481.021 1498.16 490.815 1440.31 466.581 C 1419.38 492.993 1394.72 510.343 1360.48 514.526 C 1332.1 517.992 1297.91 510.121 1275.3 492.18 C 1266.82 485.33 1259.3 477.36 1252.95 468.489 C 1239.68 451.12 1233.96 426.13 1234.71 404.497 C 1235.6 377.382 1247.43 351.783 1267.51 333.535 C 1292.13 310.71 1318.29 305.662 1350.58 306.684 C 1359.35 279.701 1361.38 266.058 1383.28 245.124 C 1402.84 226.107 1429.24 215.761 1456.52 216.417 C 1479.24 217.005 1507.96 227.396 1523.79 243.898 C 1532.45 221.513 1538.86 204.388 1555.79 186.415 C 1583.86 156.619 1614.14 145.114 1654.16 143.513 z" fill="rgb(207,167,122)" transform="translate(0,0)"></path>
<path d="M 1654.16 143.513 C 1694.5 144.165 1726.52 155.581 1754.98 185.229 C 1781.69 213.061 1796.15 250.436 1795.1 289.001 C 1794.06 329.251 1776.94 367.408 1747.57 394.944 C 1701.9 438.097 1645.47 446.611 1586.87 427.527 C 1550.44 481.021 1498.16 490.815 1440.31 466.581 C 1419.38 492.993 1394.72 510.343 1360.48 514.526 C 1332.1 517.992 1297.91 510.121 1275.3 492.18 C 1266.82 485.33 1259.3 477.36 1252.95 468.489 C 1262.01 468.768 1272.02 473.236 1280.99 474.953 C 1341.82 486.586 1390.35 454.32 1412.93 399.809 L 1413.64 400.27 C 1463.97 432.484 1519.15 421.223 1551.26 370.502 C 1573 374.377 1586.56 376.449 1608.77 372.851 C 1692.22 359.337 1738.23 268.587 1699.05 193.331 C 1687.52 171.167 1674.92 158.092 1654.16 143.513 z" fill="rgb(181,142,100)" transform="translate(0,0)"></path>
<path d="M 1304.49 343.157 C 1319.28 342.041 1332.36 346.597 1329.53 365.558 C 1327.88 376.566 1309.03 379.021 1303.31 386.293 C 1294.38 397.652 1299.99 405.038 1285.2 412.912 C 1271.45 413.779 1261.5 411.872 1259.46 394.994 C 1258.36 385.978 1268.81 371.025 1274.16 364.074 C 1281.88 354.046 1292.34 347.193 1304.49 343.157 z" fill="rgb(249,228,181)" transform="translate(0,0)"></path>
<path d="M 501.49 757.02 C 513.239 754.24 535.675 754.466 547.513 757.026 C 552.795 757.842 561.5 759.932 565.785 760.438 L 570.872 763.517 C 562.458 766.721 554.671 768.595 545.93 772.137 C 520.177 782.573 500.531 802.151 489.192 827.558 C 484.846 837.267 482.011 847.584 480.785 858.151 C 478.976 872.759 479.639 896.901 479.647 912.28 L 479.596 1002.39 C 479.581 1008.62 480.489 1028.65 478.893 1032.84 L 479.025 1034.4 C 445.325 1042.62 442.464 1084.45 478.363 1096.81 L 478.334 1098.03 C 481.648 1105.47 480.068 1451.95 479.493 1487.38 L 478.272 1488.92 L 479.05 1490.37 C 459.493 1495 449.824 1509.09 453.653 1529.25 C 456.245 1542.91 464.776 1543.56 469.026 1550.9 C 463.074 1553.97 455.503 1555.17 449.01 1557.49 C 430.487 1564.03 415.934 1578.62 409.453 1597.17 C 403.642 1613.59 405.772 1631.93 413.393 1647.4 C 424.088 1669.1 443.045 1679.38 465.028 1686.74 C 436.968 1687.29 408.314 1686.53 380.515 1687.23 C 355.307 1680.18 335.023 1665.37 327.368 1639.32 C 322.275 1621.92 324.282 1603.21 332.952 1587.28 C 342.15 1570.65 355.51 1560.45 373.651 1555.32 C 375.278 1554.65 382.746 1552.35 383.199 1551.59 C 383.184 1551.11 381.581 1549.28 381.253 1548.8 C 371.695 1544.71 364.718 1533.98 363.914 1523.71 C 363.203 1515.05 366.071 1506.48 371.849 1500 C 381.821 1488.76 393.027 1488.59 406.562 1487.97 C 407.018 1479.68 406.318 1467.61 406.238 1458.95 L 406.103 1404.09 L 406.136 1210.65 C 406.113 1176.64 404.876 1132.61 406.642 1099.25 C 394.353 1098.91 382.435 1098.53 372.687 1089.85 C 365.817 1083.84 361.814 1075.2 361.671 1066.07 C 361.591 1057.36 365.018 1048.98 371.18 1042.82 C 381.429 1032.48 392.873 1032.25 406.095 1032.06 C 406.668 994.554 405.587 956.243 406.033 918.65 C 406.32 894.38 404.58 866.164 409.698 842.635 C 413.243 825.966 420.623 810.351 431.253 797.03 C 447.369 777.01 475.897 759.728 501.49 757.02 z" fill="rgb(252,179,72)" transform="translate(0,0)"></path>
<path d="M 478.334 1098.03 C 474.344 1097.32 470.516 1095.89 467.036 1093.82 C 439.401 1077 449.866 1037.47 478.893 1032.84 L 479.025 1034.4 C 445.325 1042.62 442.464 1084.45 478.363 1096.81 L 478.334 1098.03 z" fill="rgb(156,93,9)" transform="translate(0,0)"></path>
<path d="M 469.026 1550.9 C 451.525 1544.1 445.346 1519.47 455.283 1504.39 C 460.527 1496.33 468.826 1490.74 478.272 1488.92 L 479.05 1490.37 C 459.493 1495 449.824 1509.09 453.653 1529.25 C 456.245 1542.91 464.776 1543.56 469.026 1550.9 z" fill="rgb(156,93,9)" transform="translate(0,0)"></path>
<path d="M 501.49 757.02 C 513.239 754.24 535.675 754.466 547.513 757.026 C 542.871 757.468 506.612 757.34 501.49 757.02 z" fill="rgb(181,116,22)" transform="translate(0,0)"></path>
<path d="M 381.253 1548.8 C 385.148 1549.93 387.518 1551.26 391.861 1552.22 C 390.432 1552.63 388.999 1553.02 387.563 1553.41 C 384.163 1553.03 378.222 1554.83 373.651 1555.32 C 375.278 1554.65 382.746 1552.35 383.199 1551.59 C 383.184 1551.11 381.581 1549.28 381.253 1548.8 z" fill="rgb(93,55,4)" transform="translate(0,0)"></path>
<path d="M 391.861 1552.22 C 394.411 1552.05 399.195 1551.56 401.184 1553.47 C 400.022 1554.81 389.833 1553.8 387.563 1553.41 C 388.999 1553.02 390.432 1552.63 391.861 1552.22 z" fill="rgb(181,116,22)" transform="translate(0,0)"></path>
<path d="M 431.372 1131.17 C 434.879 1130.86 438.453 1130.66 441.909 1131.5 C 445.666 1132.41 449.174 1134.63 451.13 1138.03 C 455.849 1146.24 456.435 1228.34 452.779 1238.47 C 450.643 1244.4 446.299 1246.79 440.789 1249.12 C 428.513 1249.46 423.773 1246.75 417.107 1236.61 C 415.082 1216.55 415.632 1164.31 417.761 1142.8 C 418.296 1137.38 426.558 1133.37 431.372 1131.17 z" fill="rgb(249,228,181)" transform="translate(0,0)"></path>
<path d="M 431.333 1267.08 C 436.439 1266.76 441.231 1267 445.963 1269.17 C 449.025 1270.58 451.538 1273 452.582 1276.26 C 455.355 1284.92 455.51 1367.49 451.853 1374.94 C 449.279 1380.18 444.868 1382.01 439.631 1383.9 C 436.172 1384.05 432.63 1384.23 429.276 1383.23 C 425.427 1382.08 421.793 1379.55 419.995 1375.86 C 416.078 1367.81 414.814 1284.56 418.079 1276.66 C 420.32 1271.24 426.334 1269.11 431.333 1267.08 z" fill="rgb(249,228,181)" transform="translate(0,0)"></path>
<path d="M 1531 1033.13 C 1539.99 1032 1550.13 1034.35 1557.38 1039.9 C 1564.92 1045.72 1569.74 1054.36 1570.74 1063.83 C 1571.65 1072.46 1568.98 1081.09 1563.36 1087.7 C 1556.74 1095.43 1548.04 1098.7 1538.09 1099.19 C 1536.19 1099.28 1534.29 1099.33 1532.39 1099.32 C 1509.61 1095.92 1478.85 1099.55 1455.36 1097.64 L 1446.18 1097.17 C 1462.5 1088.38 1472.35 1076.89 1467.32 1056.61 C 1464.77 1046.37 1457.97 1040.77 1449.05 1035.86 C 1459.58 1034.73 1516.92 1036.24 1520.76 1034.28 C 1525.42 1034.2 1526.6 1034.33 1531 1033.13 z" fill="rgb(181,116,22)" transform="translate(0,0)"></path>
<metadata><recraft-signature>{"signed_by": "recraft", "signature_b64": "g70QaIlypLaK0vEhvf3WwvLK69A/tFTg++pbyezQzbnNz98/dl8IsuUgPBK9PWRJ2Kq1IERT6vLzRpvYgX+yCA==", "signing_algo": "Ed25519", "generation_timestamp": 1781914898, "identifier": "d2012962-e5c7-4ab5-b63e-a47cad066f4b"}</recraft-signature></metadata></svg>