<svg xmlns="http://www.w3.org/2000/svg" height="1024" preserveAspectRatio="none" style="display: block;" version="1.1" viewBox="0 0 2048 2048" width="1024">
<path d="M 944.838 1778.42 C 923.684 1776.64 902.099 1774.91 881.134 1771.5 C 782.612 1754.73 688.611 1717.81 605.012 1663.05 C 454.428 1564.21 341.577 1406.1 304.976 1229.15 C 265.939 1040.42 319.253 834.836 424.036 675.701 C 433.569 661.222 467.533 607.998 483.51 605.264 C 490.412 604.083 497.441 606.447 503.023 610.476 C 516.208 619.991 515.056 638.539 517.296 652.961 C 521.984 683.144 536.12 716.445 561.639 734.732 C 579.393 747.455 600.453 751.897 621.904 748.298 C 658.701 742.124 691.586 714.009 712.698 684.515 C 728.171 662.898 738.677 639.244 746.081 613.802 C 774.842 514.966 737.085 415.001 676.921 336.55 C 670.272 327.879 663.246 319.503 655.863 311.446 C 639.303 293.536 610.204 272.382 630.544 244.205 C 643.408 226.386 683.639 221.573 704.606 218.374 C 876.62 192.135 1053.94 229.077 1193.9 334.651 C 1280.52 399.388 1369.26 499.37 1370.59 613.854 C 1373.13 649.836 1353.91 689.943 1361.4 725.26 C 1387.58 848.867 1513.2 817.553 1545.75 716.066 C 1549.77 703.534 1551.13 690.063 1558.4 679.462 C 1567.64 665.976 1584.85 665.503 1596.57 676.121 C 1615.36 695.12 1633.27 717.024 1649.85 738.171 C 1726.87 836.42 1777.11 953.808 1786.01 1078.98 C 1788.32 1106.29 1787.22 1133.08 1785.4 1160.41 C 1767.21 1432.69 1547.14 1666.48 1292.97 1745.41 C 1268.86 1752.9 1236.24 1762.26 1211.16 1764.33 C 1199.43 1767.31 1187.97 1768.96 1176.02 1770.76 C 1168.19 1772.04 1144.26 1775.29 1136.92 1775.32 C 1121.79 1776.93 1101.78 1779.12 1086.78 1779.3 C 1084.2 1780.27 1076.44 1780.12 1073.17 1780.24 C 1065.59 1781.36 1045.92 1781.06 1037.96 1781.06 C 1006.9 1781.08 975.847 1780.2 944.838 1778.42 z M 1032.53 937.273 C 1033.91 939.623 1033.2 946.62 1037.6 949.977 C 1042.55 953.908 1038.96 960.177 1045.48 952.98 C 1046.98 951.317 1052.11 946.776 1053.74 944.996 C 1054 943.124 1036.11 929.22 1031.97 931.027 C 1032.13 933.111 1032.32 935.193 1032.53 937.273 z" fill="rgb(212,151,55)" transform="translate(0,0)"></path>
<path d="M 1061.66 1778.08 C 1057.56 1778.42 1044.32 1776.95 1039.63 1776.41 C 1005.06 1772.63 971.082 1764.66 938.435 1752.69 C 709.842 1667.66 580.271 1448.95 669.053 1211.86 C 685.207 1168.98 707.063 1128.46 734.03 1091.41 C 742.05 1080.22 756.282 1056.44 773.962 1064.67 C 787.121 1071.55 786.576 1092.65 788.615 1105.13 C 805.77 1210.1 909.787 1206.43 951.747 1116.92 C 990.307 1034.66 965.088 948.366 910.316 879.835 C 901.163 868.382 887.109 857.737 881.801 843.884 C 877.432 831.481 882.635 811.404 898.069 808.686 C 970.169 795.986 1048.45 813.733 1111.83 849.366 C 1193.51 897.176 1274.94 986.363 1271.92 1086.28 C 1269.92 1123.26 1254.85 1150.8 1265.43 1188.29 C 1279.53 1240.11 1333.8 1259.41 1374.01 1220.68 C 1394.71 1202.65 1399.57 1179.18 1408.88 1154.88 C 1425.6 1111.22 1450.12 1141.08 1464.83 1164.1 C 1488.33 1200.08 1505.52 1239.8 1515.67 1281.56 C 1564.16 1485.69 1405.24 1680.28 1223.94 1750.56 C 1202.81 1758.75 1179.48 1765.18 1157.45 1770.38 C 1157.48 1770.65 1157.51 1770.92 1157.54 1771.19 C 1158.43 1771.76 1163.86 1769.65 1165.5 1770.7 C 1165.49 1770.7 1169.72 1770.15 1170.5 1770.43 C 1171.49 1770.78 1174.65 1770.66 1176.02 1770.76 C 1168.19 1772.04 1144.26 1775.29 1136.92 1775.32 C 1121.79 1776.93 1101.78 1779.12 1086.78 1779.3 C 1084.2 1780.27 1076.44 1780.12 1073.17 1780.24 C 1071.34 1780.1 1061.6 1779.84 1060.64 1779.25 L 1060.62 1779.08 C 1060.97 1778.54 1061.11 1778.5 1061.66 1778.08 z M 1032.53 937.273 C 1033.91 939.623 1033.2 946.62 1037.6 949.977 C 1042.55 953.908 1038.96 960.177 1045.48 952.98 C 1046.98 951.317 1052.11 946.776 1053.74 944.996 C 1054 943.124 1036.11 929.22 1031.97 931.027 C 1032.13 933.111 1032.32 935.193 1032.53 937.273 z" fill="rgb(245,197,110)" transform="translate(0,0)"></path>
<path d="M 1136.92 1775.32 C 1136.84 1774.8 1136.62 1774.03 1136.84 1773.59 C 1141.59 1772.49 1153.2 1770.4 1157.45 1770.38 C 1157.48 1770.65 1157.51 1770.92 1157.54 1771.19 C 1158.43 1771.76 1163.86 1769.65 1165.5 1770.7 C 1165.49 1770.7 1169.72 1770.15 1170.5 1770.43 C 1171.49 1770.78 1174.65 1770.66 1176.02 1770.76 C 1168.19 1772.04 1144.26 1775.29 1136.92 1775.32 z" fill="rgb(212,151,55)" transform="translate(0,0)"></path>
<path d="M 1061.66 1778.08 C 1064.95 1778.13 1084.04 1778.77 1086.78 1779.3 C 1084.2 1780.27 1076.44 1780.12 1073.17 1780.24 C 1071.34 1780.1 1061.6 1779.84 1060.64 1779.25 L 1060.62 1779.08 C 1060.97 1778.54 1061.11 1778.5 1061.66 1778.08 z" fill="rgb(212,151,55)" transform="translate(0,0)"></path>
<path d="M 1053.77 947.9 C 1073.94 957.821 1080.15 963.344 1097.03 978.377 C 1149.59 1025.21 1182.2 1085.55 1185.05 1156.67 C 1185.87 1177.33 1181.46 1198.81 1181.79 1219.99 C 1183.14 1307.23 1267.34 1385.1 1351.92 1334.31 C 1367.65 1324.86 1378.14 1311.59 1390.36 1298.16 C 1394.91 1314.04 1396.96 1329.46 1398.89 1346.11 C 1418.38 1514.13 1314.97 1689.16 1158.29 1752.69 C 1138.31 1760.8 1114.65 1764.68 1093.2 1767 C 1054.55 1768.04 1019.15 1759.59 984.61 1742.14 C 893.877 1696.29 817.636 1609.93 785.319 1513.44 C 753.878 1419.57 756.636 1333.92 800.84 1245.23 C 818.129 1258.79 831.962 1270.81 852.404 1279.33 C 935.293 1313.89 1016.96 1259.97 1048.73 1182.16 C 1074.55 1118.91 1077.4 1054.84 1054.39 989.797 C 1051.13 980.561 1046.63 971.835 1042.94 962.774 C 1049.76 955.759 1049.25 957.325 1056.68 952.161 L 1053.77 947.9 z" fill="rgb(236,231,207)" transform="translate(0,0)"></path>
<path d="M 1031.97 931.027 C 1036.11 929.22 1054 943.124 1053.74 944.996 C 1052.11 946.776 1046.98 951.317 1045.48 952.98 C 1038.96 960.177 1042.55 953.908 1037.6 949.977 C 1033.2 946.62 1033.91 939.623 1032.53 937.273 C 1032.32 935.193 1032.13 933.111 1031.97 931.027 z" fill="rgb(236,231,207)" fill-opacity="0.380392" transform="translate(0,0)"></path>
<path d="M 1016.9 920.674 C 1021.32 922.962 1030.98 926.145 1031.97 931.027 C 1032.13 933.111 1032.32 935.193 1032.53 937.273 C 1032.36 938.195 1032.3 939.668 1031.53 940.219 C 1032.84 941.087 1017.99 921.948 1016.9 920.674 z" fill="rgb(236,231,207)" transform="translate(0,0)"></path>
<path d="M 777.131 340.26 C 861.261 353.226 943.046 374.1 1018 414.902 C 1124.77 473.019 1232.43 579.753 1254.03 703.634 C 1262.03 749.042 1255.04 789.335 1268.82 834.517 C 1310.76 972.122 1481.18 991.69 1548.79 861.843 C 1568.16 898.7 1591.51 959.977 1602.65 999.655 C 1680.3 1269.3 1569.95 1557.77 1332.15 1706.75 C 1309.14 1720.82 1285.17 1733.25 1260.42 1743.97 C 1251.61 1747.85 1214 1759.27 1211.16 1764.33 C 1199.43 1767.31 1187.97 1768.96 1176.02 1770.76 C 1174.65 1770.66 1171.49 1770.78 1170.5 1770.43 C 1169.72 1770.15 1165.49 1770.7 1165.5 1770.7 C 1163.86 1769.65 1158.43 1771.76 1157.54 1771.19 C 1157.51 1770.92 1157.48 1770.65 1157.45 1770.38 C 1179.48 1765.18 1202.81 1758.75 1223.94 1750.56 C 1405.24 1680.28 1564.16 1485.69 1515.67 1281.56 C 1505.52 1239.8 1488.33 1200.08 1464.83 1164.1 C 1450.12 1141.08 1425.6 1111.22 1408.88 1154.88 C 1399.57 1179.18 1394.71 1202.65 1374.01 1220.68 C 1333.8 1259.41 1279.53 1240.11 1265.43 1188.29 C 1254.85 1150.8 1269.92 1123.26 1271.92 1086.28 C 1274.94 986.363 1193.51 897.176 1111.83 849.366 C 1048.45 813.733 970.169 795.986 898.069 808.686 C 882.635 811.404 877.432 831.481 881.801 843.884 C 887.109 857.737 901.163 868.382 910.316 879.835 C 965.088 948.366 990.307 1034.66 951.747 1116.92 C 909.787 1206.43 805.77 1210.1 788.615 1105.13 C 786.576 1092.65 787.121 1071.55 773.962 1064.67 C 756.282 1056.44 742.05 1080.22 734.03 1091.41 C 707.063 1128.46 685.207 1168.98 669.053 1211.86 C 580.271 1448.95 709.842 1667.66 938.435 1752.69 C 971.082 1764.66 1005.06 1772.63 1039.63 1776.41 C 1044.32 1776.95 1057.56 1778.42 1061.66 1778.08 C 1061.11 1778.5 1060.97 1778.54 1060.62 1779.08 L 1060.64 1779.25 C 1061.6 1779.84 1071.34 1780.1 1073.17 1780.24 C 1065.59 1781.36 1045.92 1781.06 1037.96 1781.06 C 1006.9 1781.08 975.847 1780.2 944.838 1778.42 C 947.489 1778.11 949.782 1778.16 952.035 1777.02 C 948.132 1775.28 939.772 1773.11 935.366 1771.96 C 705.608 1711.95 531.296 1515.47 477.77 1286.42 C 452.104 1176.59 455.942 1073.88 487.227 961.789 C 499.209 918.351 515.157 876.105 534.869 835.584 C 540.817 841.17 548.803 846.783 555.66 851.016 C 733.403 960.491 897.926 779.496 885.713 601.047 C 878.05 489.07 842.911 427.576 777.131 340.26 z" fill="rgb(164,100,2)" transform="translate(0,0)"></path>
<metadata><recraft-signature>{"signed_by": "recraft", "signature_b64": "gXCLMeaSDLzxDmkKP070rd/jav/o10+wm6xEvilL6veyZHCxrNW8JVeDOg9FTmsfcdEVc47/IVp4pSB2H1m3CA==", "signing_algo": "Ed25519", "generation_timestamp": 1781914926, "identifier": "75d9caa6-c2fe-48f6-8377-1e5f75298bcf"}</recraft-signature></metadata></svg>