<svg xmlns="http://www.w3.org/2000/svg" height="1024" preserveAspectRatio="none" style="display: block;" version="1.1" viewBox="0 0 2048 2048" width="1024">
<path d="M 1260.31 256.361 C 1318.35 239.289 1363.66 236.983 1419.81 267.528 C 1488.1 304.678 1549.21 383.901 1548.33 464.681 C 1543.1 546.649 1447.79 621.907 1371.94 640.289 C 1365.76 641.786 1354.33 643.975 1349.69 646.637 L 1350.76 647.401 C 1390.99 648.102 1435.4 646.226 1474.82 647.831 C 1488.55 647.721 1503.09 647.93 1516.67 647.547 C 1586.55 645.818 1651.87 671.522 1701.71 720.665 C 1760.04 778.189 1765.02 842.881 1762.94 919.784 C 1761.52 972.579 1764.14 1027.07 1762.85 1080.08 L 1763.12 1221.25 L 1763.28 1263.25 C 1763.3 1267.66 1763.64 1279.89 1763.15 1283.76 L 1763.01 1424.01 C 1763.01 1457.88 1765.02 1506.93 1758.2 1538.27 C 1748.76 1583.23 1726.4 1624.45 1693.86 1656.87 C 1661.47 1689.16 1620.45 1711.43 1575.73 1721 C 1549.4 1726.85 1516.23 1726.04 1489.16 1726.05 L 1399.83 1726.05 L 1110.52 1726.15 C 1109.67 1726.13 1108.83 1726.11 1107.99 1726.09 C 1092.84 1727.29 1053.8 1726.35 1036.68 1726.25 C 1007.66 1726.07 970.279 1727.74 942.372 1726.12 C 925.4 1726.87 900.329 1726 882.596 1725.99 L 755.942 1725.96 L 604.959 1726.13 C 560.209 1726.14 499.223 1730.03 458.085 1717.03 C 399.664 1698.57 347.328 1657.67 318.474 1603.36 C 284.338 1536.35 289.206 1491.19 289.847 1419.06 C 290.283 1369.98 288.695 1320.17 289.114 1271.02 C 288.541 1252.91 289.038 1231.9 289.024 1213.61 L 289.189 1096.43 C 287.98 1024.82 290.304 952.53 289.367 880.861 C 289.071 858.196 291.329 835.776 297.26 813.831 C 306.926 779.18 325.199 747.537 350.379 721.844 C 390.838 680.224 450.386 653.472 507.977 648.449 C 529.612 646.561 563.483 647.579 585.991 647.598 L 659.506 647.177 C 679.175 647.231 698.521 648.004 718.237 647.708 C 713.291 644.433 683.467 637.023 674.738 634.205 C 660.442 629.733 646.482 624.252 632.961 617.803 C 632.116 617.418 631.276 617.02 630.442 616.61 C 583.049 593.001 525.647 539.476 510.617 488.805 C 482.972 395.601 582.981 279.65 666.999 253.32 C 722.349 235.974 776.751 245.562 826.175 272.75 C 885.553 305.414 941.286 356.211 980.337 411.531 C 997.42 436.491 1015.73 480.043 1024.9 508.906 C 1029.45 496.037 1036.76 477.71 1042.34 465.256 C 1081.57 377.757 1170.39 290.476 1260.31 256.361 z M 946.273 632.878 C 950.3 632.143 966.283 631.101 966.563 628.353 C 972.877 629.197 984.438 630.892 990.211 633.582 C 992.586 635.486 992.253 637.511 995.459 637.662 C 1009.23 638.311 1024.47 636.565 1038.04 638.15 C 1048.3 638.086 1062.35 637.295 1072.13 638.632 C 1112.95 644.215 1148.41 674.37 1156.19 715.518 C 1158.89 729.824 1158.12 745.253 1158.11 759.577 L 1158.06 814.255 L 1158.15 1003.02 C 1158.13 1007.09 1158.1 1011.17 1158.03 1015.24 C 1175.74 1013.9 1212.96 1014.86 1231.59 1014.93 C 1230.06 1017.14 1230.85 1016.45 1230.55 1018.95 C 1228.94 1032.63 1223.94 1046.24 1220.76 1059.48 L 1219.8 1063.48 C 1217.43 1073.21 1212.76 1088.1 1208.65 1097.29 C 1208.28 1098.11 1208.32 1098.32 1208.14 1099.31 C 1227.67 1094.36 1252.55 1089.72 1272.77 1091.69 L 1282.31 1092.36 C 1297.76 1095.95 1356.44 1105.83 1365.63 1116.71 C 1370.27 1095.56 1371.71 1069.03 1374.1 1047.28 C 1374.88 1040.17 1374.59 1021.84 1376.08 1016.19 L 1378.67 1015.35 C 1435.78 1013.77 1498.58 1015.03 1555.97 1015.12 L 1625.04 1014.12 L 1664.25 1013.88 C 1693.55 1013.76 1716.11 1013.09 1739.14 1034.75 C 1755.41 1050.05 1755.06 1065.63 1762.85 1080.08 C 1764.14 1027.07 1761.52 972.579 1762.94 919.784 C 1765.02 842.881 1760.04 778.189 1701.71 720.665 C 1651.87 671.522 1586.55 645.818 1516.67 647.547 C 1503.09 647.93 1488.55 647.721 1474.82 647.831 C 1435.4 646.226 1390.99 648.102 1350.76 647.401 L 1349.69 646.637 C 1354.33 643.975 1365.76 641.786 1371.94 640.289 C 1447.79 621.907 1543.1 546.649 1548.33 464.681 C 1549.21 383.901 1488.1 304.678 1419.81 267.528 C 1363.66 236.983 1318.35 239.289 1260.31 256.361 C 1170.39 290.476 1081.57 377.757 1042.34 465.256 C 1036.76 477.71 1029.45 496.037 1024.9 508.906 C 1015.73 480.043 997.42 436.491 980.337 411.531 C 941.286 356.211 885.553 305.414 826.175 272.75 C 776.751 245.562 722.349 235.974 666.999 253.32 C 582.981 279.65 482.972 395.601 510.617 488.805 C 525.647 539.476 583.049 593.001 630.442 616.61 C 631.276 617.02 632.116 617.418 632.961 617.803 C 646.482 624.252 660.442 629.733 674.738 634.205 C 683.467 637.023 713.291 644.433 718.237 647.708 C 723.376 647.071 746.866 653.435 754.164 654.453 C 775.658 657.45 816.711 665.361 837.103 663.813 C 847.562 657.732 858.196 651.958 868.993 646.499 C 872.086 645.508 881.364 641.05 885.371 639.521 C 901.902 633.214 914.56 630.341 931.978 628.711 C 934.801 629.349 942.46 630.877 944.294 631.869 C 944.948 632.216 945.608 632.553 946.273 632.878 z" fill="rgb(251,227,175)" transform="translate(0,0)"></path>
<path d="M 931.978 628.711 C 941.36 627.416 957.152 627.589 966.563 628.353 C 966.283 631.101 950.3 632.143 946.273 632.878 C 945.608 632.553 944.948 632.216 944.294 631.869 C 942.46 630.877 934.801 629.349 931.978 628.711 z" fill="rgb(251,205,122)" fill-opacity="0.976471" transform="translate(0,0)"></path>
<path d="M 1260.31 256.361 C 1318.35 239.289 1363.66 236.983 1419.81 267.528 C 1488.1 304.678 1549.21 383.901 1548.33 464.681 C 1543.1 546.649 1447.79 621.907 1371.94 640.289 C 1365.76 641.786 1354.33 643.975 1349.69 646.637 L 1350.76 647.401 C 1390.99 648.102 1435.4 646.226 1474.82 647.831 C 1488.55 647.721 1503.09 647.93 1516.67 647.547 C 1586.55 645.818 1651.87 671.522 1701.71 720.665 C 1760.04 778.189 1765.02 842.881 1762.94 919.784 C 1761.52 972.579 1764.14 1027.07 1762.85 1080.08 C 1755.06 1065.63 1755.41 1050.05 1739.14 1034.75 C 1716.11 1013.09 1693.55 1013.76 1664.25 1013.88 L 1625.04 1014.12 L 1555.97 1015.12 C 1498.58 1015.03 1435.78 1013.77 1378.67 1015.35 L 1376.08 1016.19 C 1374.59 1021.84 1374.88 1040.17 1374.1 1047.28 C 1371.71 1069.03 1370.27 1095.56 1365.63 1116.71 C 1356.44 1105.83 1297.76 1095.95 1282.31 1092.36 L 1272.77 1091.69 C 1252.55 1089.72 1227.67 1094.36 1208.14 1099.31 C 1208.32 1098.32 1208.28 1098.11 1208.65 1097.29 C 1212.76 1088.1 1217.43 1073.21 1219.8 1063.48 L 1220.76 1059.48 C 1223.94 1046.24 1228.94 1032.63 1230.55 1018.95 C 1230.85 1016.45 1230.06 1017.14 1231.59 1014.93 C 1212.96 1014.86 1175.74 1013.9 1158.03 1015.24 C 1158.1 1011.17 1158.13 1007.09 1158.15 1003.02 L 1158.06 814.255 L 1158.11 759.577 C 1158.12 745.253 1158.89 729.824 1156.19 715.518 C 1148.41 674.37 1112.95 644.215 1072.13 638.632 C 1062.35 637.295 1048.3 638.086 1038.04 638.15 C 1024.47 636.565 1009.23 638.311 995.459 637.662 C 992.253 637.511 992.586 635.486 990.211 633.582 C 984.438 630.892 972.877 629.197 966.563 628.353 C 957.152 627.589 941.36 627.416 931.978 628.711 C 914.56 630.341 901.902 633.214 885.371 639.521 C 881.364 641.05 872.086 645.508 868.993 646.499 C 858.196 651.958 847.562 657.732 837.103 663.813 C 816.711 665.361 775.658 657.45 754.164 654.453 C 746.866 653.435 723.376 647.071 718.237 647.708 C 713.291 644.433 683.467 637.023 674.738 634.205 C 660.442 629.733 646.482 624.252 632.961 617.803 C 632.116 617.418 631.276 617.02 630.442 616.61 C 583.049 593.001 525.647 539.476 510.617 488.805 C 482.972 395.601 582.981 279.65 666.999 253.32 C 722.349 235.974 776.751 245.562 826.175 272.75 C 885.553 305.414 941.286 356.211 980.337 411.531 C 997.42 436.491 1015.73 480.043 1024.9 508.906 C 1029.45 496.037 1036.76 477.71 1042.34 465.256 C 1081.57 377.757 1170.39 290.476 1260.31 256.361 z M 898.332 600.197 C 910.582 602.757 938.024 609.168 949.538 609.981 C 927.784 533.668 874.255 445.403 803.845 405.931 C 782.144 393.766 758.758 385.788 733.671 387.381 C 717.351 389.172 699.007 394.195 687.738 406.952 C 665.944 431.622 671.177 469.64 690.272 494.381 C 739.88 558.657 822.114 584.86 898.332 600.197 z M 1104.9 610.653 C 1125.61 605.2 1146.83 601.052 1167.82 596.714 C 1236.72 581.51 1322.88 553.241 1365.99 492.039 C 1377.26 476.026 1382.08 452.217 1377.73 432.754 C 1374.48 417.562 1365.08 404.397 1351.76 396.396 C 1338.71 388.563 1321.6 386.634 1306.7 388.368 C 1208.03 400.704 1128.61 520.93 1104.9 610.653 z" fill="rgb(232,147,10)" transform="translate(0,0)"></path>
<path d="M 1217.33 663.179 C 1260.83 662.36 1305.11 653.999 1347.93 647.774 C 1352.54 647.104 1343.72 650.245 1350.76 647.401 C 1390.99 648.102 1435.4 646.226 1474.82 647.831 C 1488.55 647.721 1503.09 647.93 1516.67 647.547 C 1586.55 645.818 1651.87 671.522 1701.71 720.665 C 1760.04 778.189 1765.02 842.881 1762.94 919.784 C 1761.52 972.579 1764.14 1027.07 1762.85 1080.08 C 1755.06 1065.63 1755.41 1050.05 1739.14 1034.75 C 1716.11 1013.09 1693.55 1013.76 1664.25 1013.88 L 1625.04 1014.12 L 1555.97 1015.12 C 1498.58 1015.03 1435.78 1013.77 1378.67 1015.35 L 1375.75 1014.44 C 1374.58 1012.43 1374.79 979.073 1374.53 973.538 C 1373.84 959.865 1372.71 946.217 1371.13 932.617 C 1361.35 849.445 1332.82 774.117 1274.57 712.097 C 1257 693.384 1237.27 678.959 1217.33 663.179 z" fill="rgb(232,147,10)" transform="translate(0,0)"></path>
<path d="M 1474.82 647.831 C 1488.55 647.721 1503.09 647.93 1516.67 647.547 C 1586.55 645.818 1651.87 671.522 1701.71 720.665 C 1760.04 778.189 1765.02 842.881 1762.94 919.784 C 1761.52 972.579 1764.14 1027.07 1762.85 1080.08 C 1755.06 1065.63 1755.41 1050.05 1739.14 1034.75 C 1716.11 1013.09 1693.55 1013.76 1664.25 1013.88 L 1625.04 1014.12 L 1624.49 887.896 C 1624.5 864.512 1625.69 831.422 1622.98 809.179 C 1621.04 794.384 1617.3 779.882 1611.84 765.994 C 1593.75 721.217 1559.2 685.068 1515.29 664.975 C 1507.94 661.723 1500.44 658.826 1492.81 656.295 C 1486.87 654.386 1476.98 653.596 1474.82 647.831 z" fill="rgb(197,116,8)" transform="translate(0,0)"></path>
<path d="M 1084.91 629.31 C 1108.42 620.109 1154.91 633.13 1177.91 642.772 C 1192.06 649.47 1203.66 656.07 1217.33 663.179 C 1237.27 678.959 1257 693.384 1274.57 712.097 C 1332.82 774.117 1361.35 849.445 1371.13 932.617 C 1372.71 946.217 1373.84 959.865 1374.53 973.538 C 1374.79 979.073 1374.58 1012.43 1375.75 1014.44 L 1378.67 1015.35 L 1376.08 1016.19 C 1374.59 1021.84 1374.88 1040.17 1374.1 1047.28 C 1371.71 1069.03 1370.27 1095.56 1365.63 1116.71 C 1356.44 1105.83 1297.76 1095.95 1282.31 1092.36 L 1272.77 1091.69 C 1252.55 1089.72 1227.67 1094.36 1208.14 1099.31 C 1208.32 1098.32 1208.28 1098.11 1208.65 1097.29 C 1212.76 1088.1 1217.43 1073.21 1219.8 1063.48 L 1220.76 1059.48 C 1223.94 1046.24 1228.94 1032.63 1230.55 1018.95 C 1230.85 1016.45 1230.06 1017.14 1231.59 1014.93 C 1245.95 921.548 1238.07 823.047 1192.5 738.994 C 1161.09 681.044 1124.5 644.916 1058.88 633.31 C 1068.49 630.895 1074.97 629.437 1084.91 629.31 z" fill="rgb(248,186,78)" transform="translate(0,0)"></path>
<path d="M 1084.91 629.31 C 1095.77 630.714 1109.73 632.527 1119.7 636.559 C 1274.64 699.178 1315.22 899.748 1291.9 1048.78 C 1290.72 1056.28 1286.76 1090 1282.31 1092.36 L 1272.77 1091.69 C 1252.55 1089.72 1227.67 1094.36 1208.14 1099.31 C 1208.32 1098.32 1208.28 1098.11 1208.65 1097.29 C 1212.76 1088.1 1217.43 1073.21 1219.8 1063.48 L 1220.76 1059.48 C 1223.94 1046.24 1228.94 1032.63 1230.55 1018.95 C 1230.85 1016.45 1230.06 1017.14 1231.59 1014.93 C 1245.95 921.548 1238.07 823.047 1192.5 738.994 C 1161.09 681.044 1124.5 644.916 1058.88 633.31 C 1068.49 630.895 1074.97 629.437 1084.91 629.31 z" fill="rgb(251,227,175)" transform="translate(0,0)"></path>
<path d="M 1260.31 256.361 C 1318.35 239.289 1363.66 236.983 1419.81 267.528 C 1488.1 304.678 1549.21 383.901 1548.33 464.681 C 1543.1 546.649 1447.79 621.907 1371.94 640.289 C 1365.76 641.786 1354.33 643.975 1349.69 646.637 L 1350.76 647.401 C 1343.72 650.245 1352.54 647.104 1347.93 647.774 C 1305.11 653.999 1260.83 662.36 1217.33 663.179 C 1203.66 656.07 1192.06 649.47 1177.91 642.772 C 1193.03 638.174 1215.07 634.603 1230.89 631.666 C 1319.02 615.296 1415.53 584.89 1457.61 497.739 C 1475.32 461.051 1472.68 433.187 1458.87 395.987 C 1431.18 321.373 1363.68 277.601 1288.01 262.801 C 1279.85 261.186 1267.43 260.282 1260.31 256.361 z" fill="rgb(197,116,8)" transform="translate(0,0)"></path>
<path d="M 632.961 617.803 C 635.66 616.179 636.992 615.341 640.225 615.785 C 661.998 618.776 684.172 622.844 705.844 626.555 C 740.8 632.83 775.974 637.83 811.295 641.545 C 819.818 642.445 865.007 644.202 868.993 646.499 C 858.196 651.958 847.562 657.732 837.103 663.813 C 816.711 665.361 775.658 657.45 754.164 654.453 C 746.866 653.435 723.376 647.071 718.237 647.708 C 713.291 644.433 683.467 637.023 674.738 634.205 C 660.442 629.733 646.482 624.252 632.961 617.803 z" fill="rgb(197,116,8)" transform="translate(0,0)"></path>
<path d="M 634.435 315.071 C 658.906 313.765 663.237 338.564 645.626 351.723 C 642.359 354.164 634.855 360.774 630.855 364.894 C 609.557 386.832 586.596 421.915 586.029 453.434 C 594.732 500.019 652.207 543.894 693.34 561.933 C 702.693 567.115 720.547 571.403 725.512 581.801 C 730.791 592.857 722.945 602.028 713.597 606.369 C 707.636 607.11 701.386 606.207 695.793 603.78 C 639.503 579.349 583.727 540.12 556.723 483.413 C 543.805 456.286 549.12 436.424 558.521 409.704 C 569.752 377.785 604.289 328.798 634.435 315.071 z" fill="rgb(248,186,78)" transform="translate(0,0)"></path>
<path d="M 710.404 284.307 C 728.708 280.658 744.769 292.573 734.845 312.404 C 730.884 320.319 710.919 322.613 702.065 324.253 C 695.862 325.188 690.365 326.401 684.389 323.272 C 676.015 319.022 672.379 304.443 677.123 296.599 C 683.003 286.877 699.854 285.981 710.404 284.307 z" fill="rgb(248,186,78)" transform="translate(0,0)"></path>
<path d="M 289.114 1271.02 C 293.326 1276.8 293.968 1285.93 297.196 1292.96 C 309.2 1319.1 334.012 1337.96 362.004 1343.93 C 372.718 1345.95 401.067 1345.21 413.486 1345.2 L 512.607 1345.13 L 894.209 1345.19 C 894.935 1402.98 894.985 1460.78 894.356 1518.57 C 894.258 1540.78 892.948 1578.29 894.397 1598.9 L 893.961 1600.89 L 893.979 1640.39 C 894.039 1667.28 892.816 1687.99 913.202 1708.74 C 924.671 1720.42 930.586 1719.26 942.372 1726.12 C 925.4 1726.87 900.329 1726 882.596 1725.99 L 755.942 1725.96 L 604.959 1726.13 C 560.209 1726.14 499.223 1730.03 458.085 1717.03 C 399.664 1698.57 347.328 1657.67 318.474 1603.36 C 284.338 1536.35 289.206 1491.19 289.847 1419.06 C 290.283 1369.98 288.695 1320.17 289.114 1271.02 z" fill="rgb(232,147,10)" transform="translate(0,0)"></path>
<path d="M 318.474 1603.36 C 322.875 1602.41 349.713 1602.37 355.982 1602.31 L 459.709 1602.08 L 726.452 1601.91 C 780.363 1601.95 840.534 1603.2 893.961 1600.89 L 893.979 1640.39 C 894.039 1667.28 892.816 1687.99 913.202 1708.74 C 924.671 1720.42 930.586 1719.26 942.372 1726.12 C 925.4 1726.87 900.329 1726 882.596 1725.99 L 755.942 1725.96 L 604.959 1726.13 C 560.209 1726.14 499.223 1730.03 458.085 1717.03 C 399.664 1698.57 347.328 1657.67 318.474 1603.36 z" fill="rgb(197,116,8)" transform="translate(0,0)"></path>
<path d="M 1624.23 1345.04 C 1670.39 1344.82 1726.34 1355.84 1752.47 1305.37 C 1756 1298.55 1759.04 1289.92 1763.15 1283.76 L 1763.01 1424.01 C 1763.01 1457.88 1765.02 1506.93 1758.2 1538.27 C 1748.76 1583.23 1726.4 1624.45 1693.86 1656.87 C 1661.47 1689.16 1620.45 1711.43 1575.73 1721 C 1549.4 1726.85 1516.23 1726.04 1489.16 1726.05 L 1399.83 1726.05 L 1110.52 1726.15 C 1109.67 1726.13 1108.83 1726.11 1107.99 1726.09 C 1116.42 1720.31 1127.16 1721.43 1139.26 1708.38 C 1159.02 1687.08 1158.14 1668.28 1158.16 1641.64 L 1158.12 1602.31 C 1158.42 1585.16 1158.58 1568 1158.59 1550.84 C 1158.61 1541.92 1159.09 1528.8 1157.75 1520.32 C 1159.06 1506.81 1158.26 1476.21 1158.24 1461.84 C 1158.05 1423.22 1158.06 1384.61 1158.27 1345.99 C 1248.77 1345.1 1339.26 1344.8 1429.75 1345.07 C 1467.15 1345.07 1520.69 1347.08 1556.58 1344.9 C 1578.99 1345.58 1601.78 1345.2 1624.23 1345.04 z" fill="rgb(232,147,10)" transform="translate(0,0)"></path>
<path d="M 1624.23 1345.04 C 1670.39 1344.82 1726.34 1355.84 1752.47 1305.37 C 1756 1298.55 1759.04 1289.92 1763.15 1283.76 L 1763.01 1424.01 C 1763.01 1457.88 1765.02 1506.93 1758.2 1538.27 C 1748.76 1583.23 1726.4 1624.45 1693.86 1656.87 C 1661.47 1689.16 1620.45 1711.43 1575.73 1721 C 1549.4 1726.85 1516.23 1726.04 1489.16 1726.05 L 1399.83 1726.05 L 1110.52 1726.15 C 1109.67 1726.13 1108.83 1726.11 1107.99 1726.09 C 1116.42 1720.31 1127.16 1721.43 1139.26 1708.38 C 1159.02 1687.08 1158.14 1668.28 1158.16 1641.64 L 1158.12 1602.31 C 1180.02 1601 1218.3 1602.27 1241.52 1602.16 C 1309.6 1601.79 1377.68 1601.86 1445.76 1602.35 C 1499.45 1602.51 1538.88 1591.71 1578.04 1552.04 C 1622.03 1507.46 1624.87 1469.22 1624.47 1411.62 C 1624.25 1389.43 1624.16 1367.23 1624.23 1345.04 z" fill="rgb(197,116,8)" transform="translate(0,0)"></path>
<path d="M 289.189 1096.43 C 287.98 1024.82 290.304 952.53 289.367 880.861 C 289.071 858.196 291.329 835.776 297.26 813.831 C 306.926 779.18 325.199 747.537 350.379 721.844 C 390.838 680.224 450.386 653.472 507.977 648.449 C 529.612 646.561 563.483 647.579 585.991 647.598 L 659.506 647.177 C 679.175 647.231 698.521 648.004 718.237 647.708 C 723.376 647.071 746.866 653.435 754.164 654.453 C 775.658 657.45 816.711 665.361 837.103 663.813 C 823.403 673.562 809.473 683.379 797.132 694.781 C 737.559 749.815 699.45 825.35 686.531 905.104 C 682.971 927.081 679.786 954.417 679.86 976.715 C 678.624 986.589 679.094 1003.56 678.975 1014.05 L 465.818 1014 L 407.549 1013.97 C 391.552 1013.97 371.243 1012.65 356.021 1016.66 C 316.175 1027.17 294.83 1058.09 289.189 1096.43 z" fill="rgb(232,147,10)" transform="translate(0,0)"></path>
<path d="M 555.458 719.393 C 561.593 718.491 592.022 718.563 598.492 718.944 C 605.331 719.331 611.704 722.532 616.097 727.786 C 620.111 732.557 621.96 738.781 621.203 744.968 C 618.195 769.419 582.315 763.469 565.278 763.982 C 532.281 764.976 494.287 777.457 468.865 798.7 C 431.201 830.173 418.181 873.13 413.536 920.198 C 404.083 949.124 365.994 941.702 365.575 915.997 C 364.831 870.326 388.705 821.903 417.38 787.218 C 452.603 744.613 501.705 724.483 555.458 719.393 z" fill="rgb(248,186,78)" transform="translate(0,0)"></path>
<path d="M 1625.04 1014.12 L 1664.25 1013.88 C 1693.55 1013.76 1716.11 1013.09 1739.14 1034.75 C 1755.41 1050.05 1755.06 1065.63 1762.85 1080.08 L 1763.12 1221.25 L 1763.28 1263.25 C 1763.3 1267.66 1763.64 1279.89 1763.15 1283.76 C 1759.04 1289.92 1756 1298.55 1752.47 1305.37 C 1726.34 1355.84 1670.39 1344.82 1624.23 1345.04 C 1601.78 1345.2 1578.99 1345.58 1556.58 1344.9 C 1571.26 1342.1 1585.04 1335.75 1596.71 1326.41 C 1615.71 1310.87 1629.47 1286.44 1630.5 1261.88 C 1631.67 1233.87 1631.1 1204.64 1631.09 1176.52 L 1631.16 1121.64 C 1631.17 1108.26 1631.86 1094.35 1629.32 1081.17 C 1622.19 1044.07 1593.44 1018.25 1555.97 1015.12 L 1625.04 1014.12 z" fill="rgb(248,186,78)" transform="translate(0,0)"></path>
<path d="M 1157.75 1520.32 C 1159.09 1528.8 1158.61 1541.92 1158.59 1550.84 C 1158.58 1568 1158.42 1585.16 1158.12 1602.31 L 1158.16 1641.64 C 1158.14 1668.28 1159.02 1687.08 1139.26 1708.38 C 1127.16 1721.43 1116.42 1720.31 1107.99 1726.09 C 1092.84 1727.29 1053.8 1726.35 1036.68 1726.25 C 1007.66 1726.07 970.279 1727.74 942.372 1726.12 C 930.586 1719.26 924.671 1720.42 913.202 1708.74 C 892.816 1687.99 894.039 1667.28 893.979 1640.39 L 893.961 1600.89 L 894.397 1598.9 C 923.56 1600.32 962.002 1598.33 992.129 1598.98 C 1011.35 1599.39 1060.73 1600.12 1077.04 1597.81 C 1089.93 1595.96 1102.32 1591.57 1113.5 1584.88 C 1138.01 1569.9 1150.99 1547.6 1157.75 1520.32 z" fill="rgb(248,186,78)" transform="translate(0,0)"></path>
<path d="M 868.993 646.499 C 872.086 645.508 881.364 641.05 885.371 639.521 C 901.902 633.214 914.56 630.341 931.978 628.711 C 934.801 629.349 942.46 630.877 944.294 631.869 C 944.948 632.216 945.608 632.553 946.273 632.878 C 882.58 650.601 831.459 702.871 799.873 759.269 C 760.02 830.427 746.499 919.276 750.33 999.841 C 751.55 1021.81 753.925 1043.69 757.443 1065.41 C 758.722 1073.1 760.936 1084.99 762.456 1093.04 C 762.079 1093.64 761.702 1094.23 761.325 1094.83 C 745.84 1095.67 715.006 1104.34 700.826 1111.01 C 697.818 1112.47 694.355 1114.06 691.445 1115.64 L 689.553 1116.1 C 683.973 1091.04 678.629 1039.81 678.975 1014.05 C 679.094 1003.56 678.624 986.589 679.86 976.715 C 679.786 954.417 682.971 927.081 686.531 905.104 C 699.45 825.35 737.559 749.815 797.132 694.781 C 809.473 683.379 823.403 673.562 837.103 663.813 C 847.562 657.732 858.196 651.958 868.993 646.499 z" fill="rgb(251,227,175)" transform="translate(0,0)"></path>
<path d="M 678.975 1014.05 C 679.094 1003.56 678.624 986.589 679.86 976.715 C 680.409 987.84 680.03 998.981 680.181 1010.13 C 680.666 1045.94 687.464 1080.51 691.445 1115.64 L 689.553 1116.1 C 683.973 1091.04 678.629 1039.81 678.975 1014.05 z" fill="rgb(251,205,122)" transform="translate(0,0)"></path>
<path d="M 966.563 628.353 C 972.877 629.197 984.438 630.892 990.211 633.582 C 984.683 636.365 972.44 635.218 976.629 640.466 C 954.514 646.522 941.846 650.827 924.372 667.063 C 922.583 668.725 917.214 674.22 915.612 675.394 L 914.363 676.011 C 912.063 677.131 909.628 678.065 907.25 679.016 L 907.442 678.553 C 895.537 687.167 885.612 701.406 877.804 713.784 C 850.257 758.32 831.848 807.893 823.651 859.614 C 816.128 906.418 814.627 967.343 824.409 1013.88 L 825.88 1015.23 C 823.02 1023.16 845.545 1089.57 848.132 1101.66 C 826.165 1092.14 785.108 1090.35 761.88 1095.18 L 761.325 1094.83 C 761.702 1094.23 762.079 1093.64 762.456 1093.04 C 760.936 1084.99 758.722 1073.1 757.443 1065.41 C 753.925 1043.69 751.55 1021.81 750.33 999.841 C 746.499 919.276 760.02 830.427 799.873 759.269 C 831.459 702.871 882.58 650.601 946.273 632.878 C 950.3 632.143 966.283 631.101 966.563 628.353 z" fill="rgb(248,186,78)" transform="translate(0,0)"></path>
<path d="M 1208.14 1099.31 C 1227.67 1094.36 1252.55 1089.72 1272.77 1091.69 L 1282.31 1092.36 C 1297.76 1095.95 1356.44 1105.83 1365.63 1116.71 C 1362.09 1132.19 1359.2 1147.73 1356.2 1163.46 C 1352.02 1185.39 1350.66 1206 1329.58 1218.99 C 1287.72 1244.77 1187.31 1225.53 1183.65 1166.64 C 1182.72 1150.75 1199.68 1117.16 1205.97 1100.51 L 1208.14 1099.31 z" fill="rgb(197,116,8)" transform="translate(0,0)"></path>
<path d="M 1208.14 1099.31 C 1227.67 1094.36 1252.55 1089.72 1272.77 1091.69 L 1273.51 1093.32 C 1279.32 1105.45 1279.18 1121.02 1276.87 1133.99 C 1273.89 1150.07 1266.84 1165.11 1256.39 1177.69 C 1237.62 1200.63 1204.83 1198.19 1189.3 1174.38 C 1186.91 1170.72 1186.83 1169.82 1183.65 1166.64 C 1182.72 1150.75 1199.68 1117.16 1205.97 1100.51 L 1208.14 1099.31 z" fill="rgb(232,147,10)" transform="translate(0,0)"></path>
<path d="M 761.88 1095.18 C 785.108 1090.35 826.165 1092.14 848.132 1101.66 C 852.686 1113.92 857.549 1127.19 863.053 1139.02 C 899.566 1217.52 782.368 1245.2 730.504 1222.03 C 693 1205.27 701.34 1147.91 689.553 1116.1 L 691.445 1115.64 C 694.355 1114.06 697.818 1112.47 700.826 1111.01 C 715.006 1104.34 745.84 1095.67 761.325 1094.83 L 761.88 1095.18 z" fill="rgb(197,116,8)" transform="translate(0,0)"></path>
<path d="M 700.826 1111.01 C 715.006 1104.34 745.84 1095.67 761.325 1094.83 L 761.88 1095.18 C 766.342 1117.4 798.398 1156.49 783.466 1175.88 C 746.691 1223.65 708.873 1159.68 703.644 1124.01 C 703.182 1120.86 701.642 1113.6 700.826 1111.01 z" fill="rgb(232,147,10)" transform="translate(0,0)"></path>
<path d="M 825.88 1015.23 L 824.409 1013.88 C 814.627 967.343 816.128 906.418 823.651 859.614 C 831.848 807.893 850.257 758.32 877.804 713.784 C 885.612 701.406 895.537 687.167 907.442 678.553 L 907.25 679.016 C 909.628 678.065 912.063 677.131 914.363 676.011 L 915.612 675.394 C 907.406 685.88 898.527 699.479 896.59 712.861 C 892.365 742.047 895.029 776.441 894.595 806.063 C 893.581 875.325 895.636 945.908 894.443 1014.99 C 871.85 1015.06 848.401 1014.8 825.88 1015.23 z" fill="rgb(232,147,10)" transform="translate(0,0)"></path>
<path d="M 1231.59 1014.93 C 1230.06 1017.14 1230.85 1016.45 1230.55 1018.95 C 1228.94 1032.63 1223.94 1046.24 1220.76 1059.48 L 1219.8 1063.48 C 1217.43 1073.21 1212.76 1088.1 1208.65 1097.29 C 1208.28 1098.11 1208.32 1098.32 1208.14 1099.31 L 1205.97 1100.51 C 1215.62 1072.1 1221.56 1043.76 1230.59 1015.56 C 1213.52 1015.61 1173.59 1017.14 1158.03 1015.24 C 1175.74 1013.9 1212.96 1014.86 1231.59 1014.93 z" fill="rgb(251,205,122)" transform="translate(0,0)"></path>
<path d="M 990.211 633.582 C 992.586 635.486 992.253 637.511 995.459 637.662 C 1009.23 638.311 1024.47 636.565 1038.04 638.15 C 1018.43 640.307 998.812 637.413 976.629 640.466 C 972.44 635.218 984.683 636.365 990.211 633.582 z" fill="rgb(236,160,27)" transform="translate(0,0)"></path>
<metadata><recraft-signature>{"signed_by": "recraft", "signature_b64": "+zP75CD+gIkCHjWjz966pldFXlMb9q7G/B+1uWvbb2m9+jFC4rE5VaBk00z9uIQEXnt9EAI5YaCIFNei93GMCQ==", "signing_algo": "Ed25519", "generation_timestamp": 1781912609, "identifier": "27478589-0ff2-4af2-bd39-baae071d84b6"}</recraft-signature></metadata></svg>