<svg xmlns="http://www.w3.org/2000/svg" height="1024" preserveAspectRatio="none" style="display: block;" version="1.1" viewBox="0 0 2048 2048" width="1024">
<path d="M 827.939 273.47 C 834.973 257.748 846.314 248.562 864.806 242.28 C 898.162 230.95 957.072 213.704 991.892 222.725 C 997.675 224.223 1008.19 236.625 1016.39 241.005 L 1017.62 241.67 L 1019.54 241.592 C 1041.98 240.571 1062.81 235.635 1085.96 235.508 C 1149.15 235.161 1213.18 241.508 1272.98 263.013 C 1284.31 267.095 1308.23 275.087 1308.11 289.501 C 1308.09 291.784 1307.98 294.357 1307.84 296.653 C 1320.41 297.731 1372.9 323.648 1386.67 330.693 C 1431 353.16 1472.93 381.328 1513.34 410.101 C 1518.11 413.503 1525.38 419.5 1530.88 420.572 C 1536 419.039 1537.64 418.81 1542.99 418.277 C 1566.8 429.192 1607.93 471.263 1619.71 495.897 C 1622.63 501.999 1622.97 510.508 1619.65 516.745 C 1624.77 523.311 1628.31 527.873 1634.26 533.838 C 1663.79 544.692 1704.75 626.039 1720.43 655.177 C 1726.15 665.792 1730.14 682.246 1736.01 693.228 C 1745.81 709.462 1791.21 766.497 1765.88 783.425 C 1768.97 797.252 1775.48 820.512 1779.8 834.594 C 1784.91 842.303 1786.13 852.902 1787.94 861.897 C 1808.54 964.221 1811.95 1074 1791.25 1176.36 C 1767.82 1292.33 1719.19 1401.73 1648.8 1496.83 C 1637.74 1511.77 1626.31 1528.77 1612.02 1540.68 C 1606.21 1545.52 1597.38 1545.32 1591.92 1548.1 C 1578.91 1565.18 1546.63 1594.3 1530.01 1608.65 C 1416.29 1706.4 1276.83 1769.36 1128.3 1789.98 C 1057.2 1799.64 982.688 1797.44 911.565 1789.12 C 898.903 1787.63 872.034 1784.52 861.079 1779.76 C 858.442 1783.6 853.02 1791.96 849.372 1794.14 C 826.456 1807.9 803.296 1776.95 786.932 1771.04 C 758.728 1760.84 752.896 1774.15 732.504 1744.02 C 621.242 1703.2 512.671 1626.8 434.529 1538.43 C 421.092 1523.24 403.524 1504.61 392.236 1488.17 C 391.268 1487.48 390.687 1486.6 390.108 1485.57 L 389.216 1484.12 C 380.393 1478.67 327.016 1391.69 319.866 1378.31 C 222.288 1195.7 202.603 1002.59 261.001 805.241 C 266.488 809.526 265.369 806.03 271.211 811.829 C 277.607 818.178 279.705 814.971 279.313 808.107 C 274.698 801.289 274.844 803.651 270.93 794.439 C 270.456 792.593 270.097 789.41 270.302 787.538 C 273.241 761.048 273.455 731.842 288.912 708.924 C 296.545 697.606 306.634 687.314 312.82 674.96 C 316.791 667.028 319.924 658.41 323.528 650.27 C 331.6 632.252 343.273 616.077 357.83 602.738 C 342.174 584.038 357.54 572.791 368.937 555.722 C 395.643 515.726 430.298 482.971 467.563 452.965 C 489.172 435.565 501.606 423.578 528.813 414.942 C 540.398 414.729 545.131 413.769 557.578 415.349 C 560.22 415.831 561.884 415.975 564.586 416.217 C 574.347 411.895 586.968 411.13 597.005 412.411 C 612.574 414.397 602.497 408.209 608.652 403.484 C 614.013 399.368 612.89 400.49 615.16 394.915 C 612.854 392.984 613.584 392.219 611.651 389.96 C 609.981 390.378 608.306 390.772 606.625 391.143 C 604.662 391.862 602.858 392.368 600.877 393.061 C 586.919 401.405 592.421 405.51 575.69 404.416 C 568.847 398.747 569.323 396.841 568.335 388.2 C 574.319 377.653 578.841 371.761 588.813 364.5 C 619.404 342.224 676.249 298.557 714.717 308.012 C 720.255 306.71 729.121 303.841 734.296 301.528 C 764.196 288.161 797.527 283.35 827.939 273.47 z M 557.578 415.349 C 545.131 413.769 540.398 414.729 528.813 414.942 C 501.606 423.578 489.172 435.565 467.563 452.965 C 430.298 482.971 395.643 515.726 368.937 555.722 C 357.54 572.791 342.174 584.038 357.83 602.738 C 343.273 616.077 331.6 632.252 323.528 650.27 C 319.924 658.41 316.791 667.028 312.82 674.96 C 306.634 687.314 296.545 697.606 288.912 708.924 C 273.455 731.842 273.241 761.048 270.302 787.538 C 270.097 789.41 270.456 792.593 270.93 794.439 C 274.844 803.651 274.698 801.289 279.313 808.107 C 279.705 814.971 277.607 818.178 271.211 811.829 C 265.369 806.03 266.488 809.526 261.001 805.241 C 202.603 1002.59 222.288 1195.7 319.866 1378.31 C 327.016 1391.69 380.393 1478.67 389.216 1484.12 L 390.108 1485.57 C 390.687 1486.6 391.268 1487.48 392.236 1488.17 C 403.524 1504.61 421.092 1523.24 434.529 1538.43 C 512.671 1626.8 621.242 1703.2 732.504 1744.02 C 752.896 1774.15 758.728 1760.84 786.932 1771.04 C 803.296 1776.95 826.456 1807.9 849.372 1794.14 C 853.02 1791.96 858.442 1783.6 861.079 1779.76 C 872.364 1741.01 817.336 1735.41 808.285 1721.38 C 807.993 1715.72 811.178 1711.49 814.128 1706.74 C 824.897 1689.13 826.929 1677.74 821.54 1657.61 C 820.205 1652.62 818.379 1647.45 817.886 1642.32 C 815.861 1621.21 844.102 1624.5 855.629 1613.79 C 867.495 1602.76 864.287 1581.21 876.666 1572.34 C 891.826 1561.48 911.774 1567.28 927.768 1549.64 C 942.328 1533.58 940.004 1508.28 956.354 1490.46 C 978.033 1466.84 1007.34 1481.11 1029.85 1436.52 C 1046.3 1403.93 1031.59 1362.32 1053.19 1331.17 C 1059.26 1322.42 1069.85 1317.75 1076.47 1309.53 C 1087.04 1296.42 1095.19 1274.33 1093.09 1257.43 C 1092.52 1252.85 1091.12 1248.23 1088.61 1244.33 C 1083.85 1236.92 1059.72 1214.86 1050.9 1212.21 C 1039.46 1208.78 1026.23 1212.97 1014.35 1211.89 C 1009.62 1211.45 1005.42 1210.33 1000.97 1208.71 C 998.067 1207.65 951.054 1186.93 950.385 1186.37 C 946.665 1183.27 943.292 1172.8 940.904 1168.15 C 933.948 1154.63 924.845 1139.06 913.027 1129.3 C 883.479 1104.89 858.976 1122.87 835.392 1110.24 C 820.944 1102.49 820.631 1084.42 807.716 1075.08 C 793.172 1064.56 777.457 1067.3 761.199 1070.11 C 737.519 1060.48 737.072 1045.21 706.828 1058.15 C 694.878 1048.73 684.846 1042.81 668.737 1044.01 C 642.779 1045.94 648.54 1073.82 629.777 1082.73 C 623.56 1085.69 613.276 1083.01 607.43 1080.26 C 580.657 1068.09 595.371 1037.25 578.702 1020.92 C 570.659 1014 553.992 1011.6 551.108 999.98 C 546.741 982.388 574.192 960.123 548.321 950.67 C 515.996 938.859 500.47 958.894 475.671 969.964 C 439.657 953.739 449.801 930.439 458.726 901.33 C 461.074 893.673 461.659 876.897 468.816 871.552 C 476.147 866.078 487.748 863.416 495.767 858.548 C 501.202 855.377 506.198 851.678 511.639 848.622 C 520.859 850.877 529.832 855.75 539.341 857.11 C 549.964 858.629 569.62 852.341 579.364 855.312 C 585.898 857.305 586.134 878.983 590.932 886.272 C 594.503 891.698 595.729 895.737 603.667 898.276 C 610.88 900.582 619.321 898.666 625.301 894.886 C 654.366 876.513 646.347 855.52 651.053 828.149 C 654.531 807.922 675.673 807.146 690.216 796.486 C 713.651 779.307 715.181 748.42 740.029 733.75 L 741.298 733.015 C 748.71 732.972 756.337 733.445 763.427 731.678 C 782.223 726.993 797.303 705.146 803.452 687.747 C 807.596 674.485 808.319 667.073 815.133 654.4 C 825.03 635.992 862.76 621.494 882.174 631.206 C 894.178 637.21 868.449 659.407 886.548 665.443 C 904.778 671.523 926.793 674.13 944.98 666.751 C 953.962 662.968 964.515 656.584 968.014 647.144 C 969.871 642.046 969.593 636.414 967.244 631.523 C 961.235 618.919 941.71 610.991 929.136 606.924 C 942.011 590.865 945.345 579.71 925.798 565.6 C 900.856 547.597 934.064 520.394 916.512 504.106 C 899.173 488.016 879.655 513.763 863.649 516.524 C 855.661 518.317 854.182 501.151 850.551 498.178 C 840.617 490.87 832.287 476.461 824.026 469.362 C 809.975 457.288 771.827 478.546 763.091 490.017 C 764.007 502.071 765.472 515.319 760.51 526.659 C 752.177 545.701 730.015 551.691 716.29 566.381 C 712.873 578.745 716.133 606.85 697.702 605.158 C 687.297 597.743 700.113 575.712 691.298 561.994 C 681.703 547.063 646.55 549.309 641.26 535.018 C 633.482 518.026 659.54 479.073 675.729 473.827 C 693.66 468.016 701.676 464.089 718.987 454.973 C 735.144 455.783 747.155 461.851 765.011 456.97 C 779.71 452.952 791.857 442.432 787.668 425.013 C 786.497 420.143 778.814 416.93 774.376 415.158 C 771.306 414.965 771.411 414.839 768.483 414.181 L 751.483 410.271 C 750.727 410.085 749.972 409.9 749.217 409.714 C 729.003 405.081 708.351 400.797 688.238 395.765 C 679.247 393.516 668.53 386.711 658.958 385.233 C 653.12 384.331 646.102 386.259 640.256 387.537 C 636.31 384.194 625.697 392.257 622.501 393.387 C 620.015 389.218 619.851 392.556 615.16 394.915 C 612.89 400.49 614.013 399.368 608.652 403.484 C 602.497 408.209 612.574 414.397 597.005 412.411 C 586.968 411.13 574.347 411.895 564.586 416.217 C 561.884 415.975 560.22 415.831 557.578 415.349 z" fill="rgb(233,228,214)" transform="translate(0,0)"></path>
<path d="M 640.256 387.537 C 646.102 386.259 653.12 384.331 658.958 385.233 C 668.53 386.711 679.247 393.516 688.238 395.765 C 708.351 400.797 729.003 405.081 749.217 409.714 C 749.972 409.9 750.727 410.085 751.483 410.271 L 768.483 414.181 C 771.411 414.839 771.306 414.965 774.376 415.158 C 778.814 416.93 786.497 420.143 787.668 425.013 C 791.857 442.432 779.71 452.952 765.011 456.97 C 747.155 461.851 735.144 455.783 718.987 454.973 C 701.676 464.089 693.66 468.016 675.729 473.827 C 659.54 479.073 633.482 518.026 641.26 535.018 C 646.55 549.309 681.703 547.063 691.298 561.994 C 700.113 575.712 687.297 597.743 697.702 605.158 C 716.133 606.85 712.873 578.745 716.29 566.381 C 730.015 551.691 752.177 545.701 760.51 526.659 C 765.472 515.319 764.007 502.071 763.091 490.017 C 771.827 478.546 809.975 457.288 824.026 469.362 C 832.287 476.461 840.617 490.87 850.551 498.178 C 854.182 501.151 855.661 518.317 863.649 516.524 C 879.655 513.763 899.173 488.016 916.512 504.106 C 934.064 520.394 900.856 547.597 925.798 565.6 C 945.345 579.71 942.011 590.865 929.136 606.924 C 941.71 610.991 961.235 618.919 967.244 631.523 C 969.593 636.414 969.871 642.046 968.014 647.144 C 964.515 656.584 953.962 662.968 944.98 666.751 C 926.793 674.13 904.778 671.523 886.548 665.443 C 868.449 659.407 894.178 637.21 882.174 631.206 C 862.76 621.494 825.03 635.992 815.133 654.4 C 808.319 667.073 807.596 674.485 803.452 687.747 C 797.303 705.146 782.223 726.993 763.427 731.678 C 756.337 733.445 748.71 732.972 741.298 733.015 L 740.029 733.75 C 715.181 748.42 713.651 779.307 690.216 796.486 C 675.673 807.146 654.531 807.922 651.053 828.149 C 646.347 855.52 654.366 876.513 625.301 894.886 C 619.321 898.666 610.88 900.582 603.667 898.276 C 595.729 895.737 594.503 891.698 590.932 886.272 C 586.134 878.983 585.898 857.305 579.364 855.312 C 569.62 852.341 549.964 858.629 539.341 857.11 C 529.832 855.75 520.859 850.877 511.639 848.622 C 506.198 851.678 501.202 855.377 495.767 858.548 C 487.748 863.416 476.147 866.078 468.816 871.552 C 461.659 876.897 461.074 893.673 458.726 901.33 C 449.801 930.439 439.657 953.739 475.671 969.964 C 500.47 958.894 515.996 938.859 548.321 950.67 C 574.192 960.123 546.741 982.388 551.108 999.98 C 553.992 1011.6 570.659 1014 578.702 1020.92 C 595.371 1037.25 580.657 1068.09 607.43 1080.26 C 613.276 1083.01 623.56 1085.69 629.777 1082.73 C 648.54 1073.82 642.779 1045.94 668.737 1044.01 C 684.846 1042.81 694.878 1048.73 706.828 1058.15 C 737.072 1045.21 737.519 1060.48 761.199 1070.11 C 777.457 1067.3 793.172 1064.56 807.716 1075.08 C 820.631 1084.42 820.944 1102.49 835.392 1110.24 C 858.976 1122.87 883.479 1104.89 913.027 1129.3 C 924.845 1139.06 933.948 1154.63 940.904 1168.15 C 943.292 1172.8 946.665 1183.27 950.385 1186.37 C 951.054 1186.93 998.067 1207.65 1000.97 1208.71 C 1005.42 1210.33 1009.62 1211.45 1014.35 1211.89 C 1026.23 1212.97 1039.46 1208.78 1050.9 1212.21 C 1059.72 1214.86 1083.85 1236.92 1088.61 1244.33 C 1091.12 1248.23 1092.52 1252.85 1093.09 1257.43 C 1095.19 1274.33 1087.04 1296.42 1076.47 1309.53 C 1069.85 1317.75 1059.26 1322.42 1053.19 1331.17 C 1031.59 1362.32 1046.3 1403.93 1029.85 1436.52 C 1007.34 1481.11 978.033 1466.84 956.354 1490.46 C 940.004 1508.28 942.328 1533.58 927.768 1549.64 C 911.774 1567.28 891.826 1561.48 876.666 1572.34 C 864.287 1581.21 867.495 1602.76 855.629 1613.79 C 844.102 1624.5 815.861 1621.21 817.886 1642.32 C 818.379 1647.45 820.205 1652.62 821.54 1657.61 C 826.929 1677.74 824.897 1689.13 814.128 1706.74 C 811.178 1711.49 807.993 1715.72 808.285 1721.38 C 817.336 1735.41 872.364 1741.01 861.079 1779.76 C 858.442 1783.6 853.02 1791.96 849.372 1794.14 C 826.456 1807.9 803.296 1776.95 786.932 1771.04 C 758.728 1760.84 752.896 1774.15 732.504 1744.02 C 621.242 1703.2 512.671 1626.8 434.529 1538.43 C 421.092 1523.24 403.524 1504.61 392.236 1488.17 C 391.268 1487.48 390.687 1486.6 390.108 1485.57 L 389.216 1484.12 C 380.393 1478.67 327.016 1391.69 319.866 1378.31 C 222.288 1195.7 202.603 1002.59 261.001 805.241 C 266.488 809.526 265.369 806.03 271.211 811.829 C 277.607 818.178 279.705 814.971 279.313 808.107 C 274.698 801.289 274.844 803.651 270.93 794.439 C 270.456 792.593 270.097 789.41 270.302 787.538 C 273.241 761.048 273.455 731.842 288.912 708.924 C 296.545 697.606 306.634 687.314 312.82 674.96 C 316.791 667.028 319.924 658.41 323.528 650.27 C 331.6 632.252 343.273 616.077 357.83 602.738 C 342.174 584.038 357.54 572.791 368.937 555.722 C 395.643 515.726 430.298 482.971 467.563 452.965 C 489.172 435.565 501.606 423.578 528.813 414.942 C 540.398 414.729 545.131 413.769 557.578 415.349 C 560.22 415.831 561.884 415.975 564.586 416.217 C 574.347 411.895 586.968 411.13 597.005 412.411 C 612.574 414.397 602.497 408.209 608.652 403.484 C 614.013 399.368 612.89 400.49 615.16 394.915 C 619.851 392.556 620.015 389.218 622.501 393.387 C 625.697 392.257 636.31 384.194 640.256 387.537 z M 294.9 834.389 L 296.391 835.349 C 299.385 837.333 299.915 837.477 303.084 835.862 C 307.405 838.851 300.82 840.167 299.527 840.626 L 299.476 840.736 C 300.162 841.063 299.967 840.899 301.097 840.768 C 306.477 843.404 307.909 844.503 311.175 849.833 L 312.469 848.359 C 306.913 836.585 304.185 822.49 290.847 815.909 C 275.142 819.922 292.312 826.522 293.798 829.856 C 294.363 831.123 294.725 833.039 294.9 834.389 z M 312.897 882.749 C 314.807 885.581 316.571 892.046 318.759 892.394 C 321.574 890.665 319.162 879.538 319.055 876.195 C 319.464 874.9 319.863 873.67 320.226 872.36 C 319.137 869.418 318.081 866.748 317.308 863.709 L 315.201 863.959 C 314.334 867.02 314.091 867.728 313.793 870.834 C 313.104 875.914 313.114 877.785 312.897 882.749 z" fill="rgb(165,99,20)" transform="translate(0,0)"></path>
<path d="M 290.847 815.909 C 304.185 822.49 306.913 836.585 312.469 848.359 L 311.175 849.833 C 307.909 844.503 306.477 843.404 301.097 840.768 C 299.967 840.899 300.162 841.063 299.476 840.736 L 299.527 840.626 C 300.82 840.167 307.405 838.851 303.084 835.862 C 299.772 827.754 299.086 825.918 294.9 834.389 C 294.725 833.039 294.363 831.123 293.798 829.856 C 292.312 826.522 275.142 819.922 290.847 815.909 z M 293.223 824.116 C 294.092 823.472 294.538 822.404 294.387 821.334 C 294.236 820.263 293.51 819.361 292.497 818.983 C 291.484 818.605 290.345 818.812 289.529 819.522 C 288.335 820.562 288.175 822.36 289.167 823.595 C 290.16 824.829 291.95 825.06 293.223 824.116 z" fill="rgb(233,228,214)" fill-opacity="0.984314" transform="translate(0,0)"></path>
<path d="M 289.529 819.522 C 290.345 818.812 291.484 818.605 292.497 818.983 C 293.51 819.361 294.236 820.263 294.387 821.334 C 294.538 822.404 294.092 823.472 293.223 824.116 C 291.95 825.06 290.16 824.829 289.167 823.595 C 288.175 822.36 288.335 820.562 289.529 819.522 z" fill="rgb(233,228,214)" fill-opacity="0.898039" transform="translate(0,0)"></path>
<path d="M 313.793 870.834 C 316.235 873.056 317.035 873.596 319.055 876.195 C 319.162 879.538 321.574 890.665 318.759 892.394 C 316.571 892.046 314.807 885.581 312.897 882.749 C 313.114 877.785 313.104 875.914 313.793 870.834 z" fill="rgb(233,228,214)" fill-opacity="0.403922" transform="translate(0,0)"></path>
<path d="M 317.308 863.709 C 318.081 866.748 319.137 869.418 320.226 872.36 C 319.863 873.67 319.464 874.9 319.055 876.195 C 317.035 873.596 316.235 873.056 313.793 870.834 C 314.091 867.728 314.334 867.02 315.201 863.959 L 317.308 863.709 z" fill="rgb(229,207,169)" fill-opacity="0.984314" transform="translate(0,0)"></path>
<path d="M 294.9 834.389 C 299.086 825.918 299.772 827.754 303.084 835.862 C 299.915 837.477 299.385 837.333 296.391 835.349 L 294.9 834.389 z" fill="rgb(233,228,214)" fill-opacity="0.666667" transform="translate(0,0)"></path>
<path d="M 261.001 805.241 C 266.488 809.526 265.369 806.03 271.211 811.829 C 277.607 818.178 279.705 814.971 279.313 808.107 C 283.086 810.841 286.761 813.698 290.847 815.909 C 275.142 819.922 292.312 826.522 293.798 829.856 C 294.363 831.123 294.725 833.039 294.9 834.389 L 296.391 835.349 C 299.385 837.333 299.915 837.477 303.084 835.862 C 307.405 838.851 300.82 840.167 299.527 840.626 L 299.476 840.736 C 300.162 841.063 299.967 840.899 301.097 840.768 C 284.326 848.452 293.397 853.268 293.705 864.881 C 294.445 892.84 298.086 909.168 315.903 931.186 C 321.723 938.377 320.492 945.593 335.966 941.544 C 337.262 941.257 347.154 953.847 350.976 957.375 C 350.539 969.872 352.967 976.81 362.279 986.738 C 374.785 1000.07 393.524 1011.35 412.162 1012.7 C 418.034 1013.12 433.389 1009.69 438.141 1011.57 C 465.609 1022.44 501.669 1042.48 524.12 1061.67 C 537.748 1073.32 538.235 1095.52 546.395 1102.36 C 568.146 1120.59 610.504 1108.03 609.948 1151.13 C 609.574 1180.16 578.768 1193.34 576.331 1221.37 C 572.683 1263.34 607.521 1265.28 592.011 1308.09 C 602.521 1338.16 621.289 1339.71 647.39 1350.99 C 670.431 1360.95 681.985 1383.09 690.929 1405.24 C 697.912 1422.03 690.521 1444.84 692.037 1460.89 C 694.49 1486.84 705.611 1496.66 702.023 1525.25 C 699.186 1547.85 685.708 1567.45 687.437 1588.18 C 688.909 1605.82 701.946 1630.11 709.037 1646.89 C 714.535 1659.8 718.964 1673.14 722.282 1686.78 C 726.24 1707.17 724.33 1724.79 732.504 1744.02 C 621.242 1703.2 512.671 1626.8 434.529 1538.43 C 421.092 1523.24 403.524 1504.61 392.236 1488.17 C 391.268 1487.48 390.687 1486.6 390.108 1485.57 L 389.216 1484.12 C 380.393 1478.67 327.016 1391.69 319.866 1378.31 C 222.288 1195.7 202.603 1002.59 261.001 805.241 z" fill="rgb(233,228,214)" transform="translate(0,0)"></path>
<path d="M 392.236 1488.17 C 395.917 1490.02 396.381 1490.42 399.701 1492.86 C 417.85 1509.14 434.224 1526.91 452.941 1542.93 C 515.5 1595.95 586.6 1637.96 663.215 1667.18 C 679.658 1673.5 705.853 1684.76 722.282 1686.78 C 726.24 1707.17 724.33 1724.79 732.504 1744.02 C 621.242 1703.2 512.671 1626.8 434.529 1538.43 C 421.092 1523.24 403.524 1504.61 392.236 1488.17 z" fill="rgb(229,207,169)" transform="translate(0,0)"></path>
<path d="M 389.216 1484.12 C 394.806 1486.32 395.595 1487.76 399.701 1492.86 C 396.381 1490.42 395.917 1490.02 392.236 1488.17 C 391.268 1487.48 390.687 1486.6 390.108 1485.57 L 389.216 1484.12 z" fill="rgb(229,207,169)" transform="translate(0,0)"></path>
<path d="M 615.16 394.915 C 619.851 392.556 620.015 389.218 622.501 393.387 C 625.697 392.257 636.31 384.194 640.256 387.537 C 617.314 398.194 624.263 391.806 608.379 414.5 C 595.432 418.104 577.84 418.198 564.586 416.217 C 574.347 411.895 586.968 411.13 597.005 412.411 C 612.574 414.397 602.497 408.209 608.652 403.484 C 614.013 399.368 612.89 400.49 615.16 394.915 z" fill="rgb(229,207,169)" transform="translate(0,0)"></path>
<path d="M 320.226 872.36 L 320.901 874.15 C 326.95 889.847 327.521 898.019 329.335 914.486 C 322.178 904.442 313.315 895.417 312.925 883.428 L 312.897 882.749 C 314.807 885.581 316.571 892.046 318.759 892.394 C 321.574 890.665 319.162 879.538 319.055 876.195 C 319.464 874.9 319.863 873.67 320.226 872.36 z" fill="rgb(233,228,214)" transform="translate(0,0)"></path>
<path d="M 312.469 848.359 C 315.173 853.543 316.537 857.948 317.308 863.709 L 315.201 863.959 C 314.639 856.826 313.478 856.226 311.175 849.833 L 312.469 848.359 z" fill="rgb(226,172,81)" transform="translate(0,0)"></path>
<path d="M 648.96 401.103 C 671.774 402.197 704.859 424.098 731.484 423.895 C 738.868 423.838 764.004 425.674 763.972 434.487 C 755.01 449.867 730.864 430.56 713.737 435.311 C 701.704 438.649 700.921 442.791 690.389 448.153 C 684.268 451.025 674.763 452.053 668.848 454.775 C 641.773 467.233 610.949 509.715 621.429 540.424 C 627.665 556.748 646.163 558.635 659.53 564.645 C 677.658 572.795 672.391 585.593 666.377 598.62 C 671.625 615.357 681.205 629.143 700.251 629.232 C 736.753 632.734 728.041 582.036 738.9 571.518 C 770.498 540.909 786.163 543.682 787.125 491.097 C 794.239 486.855 801.202 484.523 809.007 481.946 C 814.413 485.709 828.653 499.246 833.54 503.961 C 841.721 542.806 863.935 535.739 891.333 520.062 C 895.585 521.099 897.287 521.271 901.003 523.411 C 905.243 530.641 897.432 537.59 895.555 545.447 C 894.558 549.622 894.913 554.366 895.062 558.636 C 898.663 565.551 904.151 570.907 911.284 575.18 C 925.94 581.307 914.087 609.276 904.544 612.209 C 894.492 615.298 870.287 611.381 858.368 611.761 C 825.861 612.796 805.395 634.436 784.012 656.162 C 781.163 659.057 777.436 662.681 777.614 666.973 C 779.216 670.193 783.117 672.086 786.283 674.116 C 783.364 690.888 771.623 705.323 756.646 713.155 C 754.315 713.105 741.974 712.646 740.314 713.05 C 712.104 719.916 700.417 756.171 684.045 775.063 C 671.47 789.573 645.033 791.826 636.109 810.906 C 627.576 829.152 637.357 857.24 623.991 872.46 C 621.421 875.35 617.72 876.976 613.853 876.915 C 597.307 876.486 602.701 847.616 591.287 837.939 C 578.503 824.518 557.343 835.019 543.6 833.187 C 512.88 829.091 506.33 820.972 480.119 843.671 C 475.51 846.34 452.027 856.781 449.882 861.196 C 441.844 877.74 431.76 921.912 432.794 939.191 C 433.604 954.497 440.687 968.792 452.376 978.707 C 489.862 1010.81 513.835 944.041 539.177 968.659 C 539.625 971.921 534.795 984.826 533.977 988.68 C 526.1 1025.83 551.498 1018.66 566.132 1038.73 C 571.424 1052.33 570.341 1063.07 578.715 1076.08 C 594.669 1100.87 629.512 1106.23 654.22 1089.41 C 657.988 1078.06 666.33 1052.12 683.135 1063.3 C 690.642 1068.3 693.511 1077.33 699.653 1083.96 C 706.85 1086.29 712.786 1073.33 720.977 1072.75 C 734.226 1071.81 741.575 1084.95 754.199 1086.82 C 762.43 1088.03 772.633 1083.79 780.025 1083.51 C 807.086 1082.48 802.327 1114.97 824.653 1126.61 C 851.398 1140.56 880.092 1126.57 903.877 1145.54 C 923.77 1161.4 921.266 1186.17 936.605 1201.51 C 943.729 1208.64 966.327 1209.85 974.861 1213.83 C 985.573 1218.82 991.272 1226.58 1004.87 1228.28 C 1017.71 1229.88 1030.25 1226.88 1043.32 1225.51 C 1053.88 1233.76 1066.5 1245.91 1074.32 1256.73 C 1074.14 1260.79 1073.91 1264.85 1073.64 1268.9 C 1066.34 1308.03 1048.09 1295.55 1030.46 1324.66 C 1024.99 1333.69 1019.01 1360.09 1017.88 1370.84 C 1016.59 1383.07 1018.11 1410.55 1010.3 1420.91 C 991.107 1446.39 953.247 1449 930.989 1467.39 C 910.687 1484.15 917.227 1512.96 904.472 1532.94 C 891.433 1553.36 864.932 1550.91 852.115 1570.26 C 847.806 1576.76 849.363 1585.78 845.366 1594.11 C 838.59 1608.22 826.727 1607.13 813.692 1612.15 C 806.511 1614.92 797.433 1619.07 794.348 1626.61 C 788.78 1640.2 800.624 1654.74 805.329 1667.02 C 813.787 1689.11 789.281 1694.12 782.25 1710.7 C 772.833 1732.89 798.559 1736.12 806.006 1751.22 C 806.699 1752.63 806.06 1752.92 805.174 1754.53 C 803.649 1755.2 801.947 1755.86 800.39 1755.75 C 792.843 1755.19 757.826 1751.15 754.268 1745.36 C 742.267 1725.84 744.997 1696.09 738.656 1672.52 C 730.12 1640.8 712.436 1617.02 707.622 1585.85 C 705.987 1575.26 713.051 1559.51 716.196 1550.17 C 719.265 1541.04 720.894 1527.42 721.758 1517.8 C 723.75 1495.62 714.447 1477.28 711.919 1455.62 C 710.528 1443.71 713.992 1435.11 714.073 1424.7 C 714.347 1389.43 690.419 1350.21 658.244 1334.87 C 648.191 1330.08 628.322 1322.43 622.071 1315.38 C 614.036 1306.32 616.81 1284.18 614.015 1273.27 C 610.647 1260.12 599.881 1254.04 596.906 1239.69 C 588.33 1198.31 627.249 1193.46 631.152 1157.78 C 632.252 1147.81 630.772 1137.73 626.853 1128.5 C 613.403 1096.85 587.797 1105.75 566.242 1090.35 C 560.022 1085.91 552.799 1063.61 544.18 1052.74 C 539.773 1047.16 534.652 1042.2 528.95 1037.96 C 510.652 1024.4 469.035 1002.23 447.242 993.735 C 441.197 991.379 418.751 991.084 410.018 990.005 C 393.907 988.014 374.341 980.884 370.652 962.861 C 369.189 955.716 369.996 948.607 366.425 941.706 C 361.215 931.637 350.053 923.871 346.426 913.146 C 342.719 902.185 340.79 889.517 338.785 878.016 C 335.307 858.073 330.53 844.605 321.582 826.788 C 312.664 809.033 295.877 803.51 286.568 791.685 C 287.177 773.464 286.435 751.627 292.444 734.45 C 298.337 717.604 316.174 702.644 325.578 686.958 C 331.233 677.525 334.637 669.3 339.375 659.498 C 345.083 647.575 351.768 636.145 359.361 625.324 C 365.913 616.06 374.769 610.858 381.276 601.936 C 377.22 594.35 375.167 591.747 369.741 584.89 C 388.611 544.847 438.838 498.968 470.426 470.683 C 504.027 440.595 519.267 422.358 564.586 434.114 C 569.475 435.382 618.555 438.217 620.546 435.465 C 629.874 422.576 630.087 409.111 648.96 401.103 z" fill="rgb(226,172,81)" transform="translate(0,0)"></path>
<path d="M 529.481 436.765 C 535.398 436.391 543.9 439.509 546.351 445.163 C 551.875 457.902 526.276 472.636 517.553 479.517 C 506.327 488.484 495.351 497.761 484.64 507.338 C 465.062 524.863 447.142 544.986 429.392 564.273 C 419.454 575.072 409.272 594.582 397.091 600.09 C 362.233 600.357 389.97 570.743 398.769 559.686 C 435.464 513.573 480.798 470.025 529.481 436.765 z" fill="rgb(229,207,169)" transform="translate(0,0)"></path>
<path d="M 320.122 717.138 C 351.111 714.373 338.364 739.963 329.388 754.918 C 322.918 765.698 319.993 781.72 309.256 789.393 C 307.995 789.608 306.768 789.825 305.495 789.944 C 301.485 790.317 298.07 789.81 295.006 787.023 C 292.177 784.45 290.485 780.298 290.482 776.501 C 290.477 770.355 312.955 723.471 317.937 719.023 C 318.253 718.741 318.585 718.478 318.905 718.201 L 320.122 717.138 z" fill="rgb(229,207,169)" transform="translate(0,0)"></path>
<path d="M 369.503 623.991 C 376.848 624.031 381.438 625.041 384.858 632.579 C 387.156 637.849 385.457 643.727 382.584 648.373 C 374.654 661.2 369.32 675.336 363.294 689.1 C 361.039 694.251 358.936 695.166 353.906 696.966 C 323.057 696.651 341.422 670.001 349.366 653.915 C 353.597 645.349 360.662 630.249 368.065 625.048 L 369.503 623.991 z" fill="rgb(229,207,169)" transform="translate(0,0)"></path>
<path d="M 925.467 623.807 C 934.26 624.358 957.767 634.802 943.337 644.363 C 935.494 649.56 928.903 650.43 920.111 651.931 C 915.984 652.015 897.604 652.889 896.89 651.148 C 894.084 644.309 922.384 625.724 925.467 623.807 z" fill="rgb(226,172,81)" transform="translate(0,0)"></path>
<path d="M 1547.28 1412.31 C 1526.16 1370.73 1539.42 1362.02 1553.63 1321.73 C 1559.04 1306.37 1558.59 1292.23 1558.3 1276.56 C 1557.76 1246.97 1535.81 1234.22 1526.3 1208.97 C 1522.81 1197.36 1526.72 1179.95 1524.51 1168.93 C 1523.17 1162.23 1493.84 1146.19 1487.27 1143.07 C 1467.18 1133.31 1443.55 1134.21 1424.27 1145.47 C 1415.33 1150.63 1404.46 1158.47 1394.7 1161.62 C 1368.39 1171.23 1319.79 1150.43 1311.65 1122.55 C 1301.32 1087.19 1258.63 1088.41 1247.24 1052.42 C 1239.28 1027.29 1251.52 1011.86 1256.27 988.552 C 1259.99 970.303 1248.53 947.32 1253.33 928.355 C 1258.58 905.29 1280.58 884.333 1299.78 871.776 C 1308.5 865.778 1323.98 859.258 1330.25 850.726 C 1343.76 832.334 1335.76 810.91 1358.01 796.457 C 1377.82 783.597 1392 797.632 1411.82 791.834 C 1421.83 788.907 1431.06 775.271 1442.13 773.3 C 1458.44 769.884 1476.95 769.212 1493.62 769.054 C 1511.47 768.884 1532.83 766.947 1549.04 775.147 C 1556.18 778.757 1557.41 789.75 1558.68 796.572 C 1562.17 815.177 1588.03 810.533 1601.17 816.898 C 1607.86 819.701 1613.34 825.56 1619.53 829.037 C 1642.2 841.769 1652.61 815.866 1678.61 809.433 C 1714.73 809.63 1715.12 821.471 1747.06 832.936 C 1759.75 837.491 1765.83 829.972 1779.8 834.594 C 1784.91 842.303 1786.13 852.902 1787.94 861.897 C 1808.54 964.221 1811.95 1074 1791.25 1176.36 C 1767.82 1292.33 1719.19 1401.73 1648.8 1496.83 C 1637.74 1511.77 1626.31 1528.77 1612.02 1540.68 C 1606.21 1545.52 1597.38 1545.32 1591.92 1548.1 C 1589.88 1547.6 1587.85 1547.06 1585.84 1546.5 C 1546.3 1535.35 1556.63 1510 1567.51 1483.02 C 1576.52 1460.72 1558.26 1432.35 1547.28 1412.31 z" fill="rgb(165,99,20)" transform="translate(0,0)"></path>
<path d="M 1471.21 788.506 C 1488.03 788.582 1507.2 786.893 1523.57 788.269 C 1532.43 789.013 1537.5 804.749 1542.93 812.165 C 1556.14 830.19 1577.43 829.161 1596.3 836.243 C 1601.25 838.1 1611.3 847.765 1618.64 849.47 C 1627.18 851.45 1631.02 849.609 1637.63 849.001 C 1650.76 847.794 1670.99 829.276 1680.76 831.205 C 1684.98 838.018 1689.84 906.974 1690.48 918.848 C 1696.93 1031.29 1688.32 1150.52 1639.76 1253.88 C 1623.31 1288.89 1584.85 1367.97 1560.63 1395.29 C 1546.3 1383.37 1567.4 1343.81 1572.69 1331.01 C 1575.57 1324.04 1577.38 1317.74 1579.25 1310.4 C 1583.74 1283.68 1583.64 1250.38 1564.24 1229.55 C 1557.22 1222 1550.17 1212.36 1547.59 1202.34 C 1544.45 1190.15 1549.65 1177.65 1549.09 1165.31 C 1547.99 1143.58 1531.46 1138.7 1517.37 1126.94 C 1511.07 1121.63 1504.71 1113.08 1498.42 1108.04 C 1469.85 1085.13 1434.01 1104.02 1405.98 1117.01 C 1398.83 1120.32 1386.16 1121.75 1378.41 1122.57 C 1344.7 1126.18 1334.18 1100.41 1312.9 1081.85 C 1304.92 1075.2 1293 1070.86 1283.67 1062.48 C 1277.61 1057.04 1272.83 1050.33 1269.68 1042.83 C 1259.91 1019.6 1276.77 1006.93 1278.13 984.08 C 1278.86 971.92 1273.47 958.058 1273.27 945.357 C 1272.51 897.35 1324.36 887.34 1349.63 857.233 C 1361.34 843.284 1363.34 821.515 1372.43 811.657 C 1383.62 807.033 1401.44 813.469 1415.33 810.125 C 1433.25 805.807 1437.13 793.388 1453.31 789.331 C 1456.38 788.563 1467.48 788.548 1471.21 788.506 z" fill="rgb(226,172,81)" transform="translate(0,0)"></path>
<path d="M 1547.28 1412.31 C 1558.26 1432.35 1576.52 1460.72 1567.51 1483.02 C 1556.63 1510 1546.3 1535.35 1585.84 1546.5 C 1587.85 1547.06 1589.88 1547.6 1591.92 1548.1 C 1578.91 1565.18 1546.63 1594.3 1530.01 1608.65 C 1416.29 1706.4 1276.83 1769.36 1128.3 1789.98 C 1057.2 1799.64 982.688 1797.44 911.565 1789.12 C 898.903 1787.63 872.034 1784.52 861.079 1779.76 C 872.364 1741.01 817.336 1735.41 808.285 1721.38 C 807.993 1715.72 811.178 1711.49 814.128 1706.74 C 819.053 1710.11 840.077 1712.04 847.329 1712.86 C 924.594 1722.1 1002.83 1719.15 1079.18 1704.12 C 1231.05 1674.07 1370.52 1599.44 1479.78 1489.76 C 1504.8 1464.87 1527.6 1441.6 1547.28 1412.31 z" fill="rgb(229,207,169)" transform="translate(0,0)"></path>
<path d="M 827.939 273.47 C 834.973 257.748 846.314 248.562 864.806 242.28 C 898.162 230.95 957.072 213.704 991.892 222.725 C 997.675 224.223 1008.19 236.625 1016.39 241.005 L 1017.62 241.67 L 1019.54 241.592 C 1041.98 240.571 1062.81 235.635 1085.96 235.508 C 1149.15 235.161 1213.18 241.508 1272.98 263.013 C 1284.31 267.095 1308.23 275.087 1308.11 289.501 C 1308.09 291.784 1307.98 294.357 1307.84 296.653 C 1297.75 312.047 1289.4 309.174 1280.24 319.401 C 1273.13 327.343 1288.14 348.789 1282.3 360.296 C 1271.67 381.272 1245.16 378.69 1227.05 386.749 C 1216.76 391.33 1211.81 405.497 1200.81 412.13 C 1181.74 423.558 1158.96 425.713 1138.18 433.841 C 1115.22 442.821 1112.22 455.045 1103.29 476.333 C 1097 491.3 1082.9 502.911 1067.75 508.709 C 1038.39 519.946 1016.49 500.487 1008.42 473.251 C 1002.13 450.038 993.443 424.392 1003.9 401.101 C 1007.63 392.807 1012.3 386.972 1016.45 379.082 C 1014.51 364.398 1014.61 352.194 1015.01 337.692 C 1016.32 289.91 933.578 353.083 955.745 284.604 C 926.887 289.543 926.027 288.748 898.929 303.494 C 872.763 317.734 818.57 318.897 827.939 273.47 z" fill="rgb(165,99,20)" transform="translate(0,0)"></path>
<path d="M 1089.44 250.425 C 1127.7 248.199 1180.86 255.364 1217.93 266.279 C 1228.36 269.35 1287.69 287.448 1291.18 292.431 C 1287.31 296.559 1268.5 299.304 1261.97 310.622 C 1255.52 321.8 1262.41 337.303 1265.24 350.394 C 1248.93 366.334 1223.71 363.109 1205.99 374.865 C 1198.04 380.135 1193.8 398.443 1183.29 402.153 C 1155.77 411.873 1131.98 406.542 1108.46 428.827 C 1092.57 445.898 1082.96 480.883 1059.28 487.939 C 1026.17 497.806 1015.9 431.649 1022.89 410.009 C 1026.22 399.704 1036.56 386.017 1037.27 377.622 C 1039.09 358.198 1038.53 340.327 1034.87 321.486 C 1028.99 291.177 980.513 309.243 975.747 289.883 C 984.672 255.906 1059.99 252.137 1089.44 250.425 z" fill="rgb(226,172,81)" transform="translate(0,0)"></path>
<path d="M 1081.64 260.437 C 1098.35 258.837 1137.48 257.943 1153.31 264.322 C 1162.78 268.139 1160.35 286.61 1147.65 286.901 C 1121.36 287.506 1095.69 285.783 1069.21 288.407 C 1057.96 289.328 1046.76 290.686 1035.62 292.478 C 1026.99 293.926 1018.65 295.513 1009.93 296.537 C 1000.73 298.717 992.541 280.141 999.389 274.761 C 1016.22 261.538 1061.62 261.387 1081.64 260.437 z" fill="rgb(229,207,169)" transform="translate(0,0)"></path>
<path d="M 973.631 238.428 C 976.902 238.497 980.931 238.927 984.257 239.186 C 987.986 242.335 990.177 243.72 992.557 248.048 C 992.619 249.421 993.018 250.64 992.142 251.157 C 984.252 255.815 967.998 256.13 959.236 259.103 C 952.337 261.029 944.347 268.155 938.047 270.314 C 923.808 275.193 912.466 273.875 899.346 283.084 C 888.676 290.574 877.051 293.457 863.977 294.247 C 854.588 294.066 845.375 292.732 844.614 281.635 C 844.422 278.828 845.997 274.078 848.133 272.485 C 877.035 250.921 938.729 240.248 973.631 238.428 z" fill="rgb(226,172,81)" transform="translate(0,0)"></path>
<path d="M 1634.26 533.838 C 1663.79 544.692 1704.75 626.039 1720.43 655.177 C 1726.15 665.792 1730.14 682.246 1736.01 693.228 C 1745.81 709.462 1791.21 766.497 1765.88 783.425 C 1768.97 797.252 1775.48 820.512 1779.8 834.594 C 1765.83 829.972 1759.75 837.491 1747.06 832.936 C 1715.12 821.471 1714.73 809.63 1678.61 809.433 C 1678.8 806.023 1670.52 773.896 1667.69 770.473 C 1648.38 765.814 1651.57 741.303 1645.09 726.302 C 1641.58 718.17 1639.73 716.513 1634.08 709.784 C 1632.63 733.715 1631.78 743.253 1610.86 758.009 C 1600.74 765.15 1577.24 779.088 1571.55 759.429 C 1569.66 752.888 1578.61 740.264 1582.76 735.28 C 1581.1 733.073 1579.24 731.031 1577.19 729.184 C 1572.08 724.657 1559.99 717.091 1556.13 713.17 C 1537.3 694.044 1533.83 690.809 1506.41 695.626 C 1501.75 696.445 1489.7 696.845 1484.8 697.327 C 1462.33 699.538 1467.34 702.29 1464.5 718.243 C 1463.53 723.732 1461.52 728.985 1458.57 733.716 C 1439.46 764.619 1380.17 778.23 1347.03 762.781 C 1329.31 754.521 1347.17 730.549 1347.54 717.628 C 1348.16 707.238 1334.25 692.226 1344.13 682.932 C 1362.28 665.872 1390.1 680.076 1410.51 681.521 C 1416.81 681.967 1418.09 675.926 1418.33 670.452 C 1419.02 654.387 1390.41 652.481 1401.04 635.061 C 1407.43 627.822 1430.16 626.303 1440.53 620.996 C 1460.13 610.966 1467 597.929 1481.95 583.254 C 1502.17 572.744 1531.56 575.917 1553.64 575.131 C 1568.48 574.603 1582.63 580.4 1591.27 567.448 C 1601.95 542.144 1607.06 537.106 1634.26 533.838 z" fill="rgb(165,99,20)" transform="translate(0,0)"></path>
<path d="M 1699.67 748.986 C 1734.7 755.516 1732.21 786.524 1765.88 783.425 C 1768.97 797.252 1775.48 820.512 1779.8 834.594 C 1765.83 829.972 1759.75 837.491 1747.06 832.936 C 1715.12 821.471 1714.73 809.63 1678.61 809.433 C 1678.8 806.023 1670.52 773.896 1667.69 770.473 C 1687.97 768.595 1688.39 765.261 1699.67 748.986 z" fill="rgb(229,207,169)" transform="translate(0,0)"></path>
<path d="M 1601.79 586.012 C 1607.35 592.084 1639.1 663.494 1642.06 676.166 C 1643.75 683.367 1645.57 691.68 1646.65 699.429 C 1641.9 692.993 1627.68 676.692 1620.45 676.909 C 1603.8 677.407 1600.69 690.049 1606.97 702.862 C 1612.89 714.947 1616.02 728.054 1604.67 736.785 C 1602.2 738.689 1601.69 738.247 1599.1 737.785 C 1596.78 734.552 1597.77 733.705 1597.98 728.571 C 1590.89 715.223 1578.11 707.769 1567.02 697.771 C 1559.3 691.197 1551.41 676.562 1540.78 675.018 C 1521.03 672.148 1500.09 676.963 1480.24 677.926 C 1469.98 678.424 1456.05 681.525 1448.67 688.721 C 1444.11 693.175 1444.88 701.13 1444.92 707.056 C 1439.43 744.234 1395.05 751.374 1364.64 745.553 C 1368.05 730.675 1368.59 718.686 1368.31 703.476 C 1368.6 699.682 1371.12 695.946 1375.21 696.523 C 1392.88 699.014 1407.35 702.038 1425.31 699.605 C 1429.09 694.372 1436.99 681.103 1438.18 674.729 C 1440.12 664.305 1431.44 655.917 1425.65 647.787 C 1430.67 643.765 1436.99 640.907 1442.77 638.159 C 1467.53 626.388 1475.44 623.886 1490.73 601.155 C 1514.09 591.752 1543.22 596.958 1567.83 596.826 C 1581.76 596.751 1590.11 592.879 1601.79 586.012 z" fill="rgb(226,172,81)" transform="translate(0,0)"></path>
<path d="M 752.762 407.48 C 738.971 399.262 725.445 385.276 736.31 369.383 C 747.847 352.507 772.873 335.697 792.58 330.169 C 807.554 325.757 821.322 334.101 835.651 334.714 C 846.103 335.161 854.986 328.36 866.544 329.842 C 895.655 333.573 913.628 353.963 889.568 378.675 C 905.405 380.075 903.618 388.275 915.962 395.41 C 922.313 399.081 933.056 398.732 938.56 404.411 C 951.01 421.34 927.488 437.635 919.745 450.813 C 916.814 455.801 917.143 467.792 911.805 471.517 C 907.03 474.906 898.84 476.633 893.022 477.19 C 883.216 478.129 870.068 480.947 860.443 480.317 C 850.168 479.644 849.708 455.575 838.795 453.596 C 830.174 452.033 820.257 453.541 815.181 444.388 C 806.114 426.935 838.493 418.617 847.853 411.413 C 858.074 403.545 867.216 396.259 876.45 387.892 C 852.526 395.311 846.581 387.967 829.869 392.149 C 815.077 395.851 798.422 408.622 779.416 413.423 C 777.721 413.957 776.04 414.536 774.376 415.158 C 771.306 414.965 771.411 414.839 768.483 414.181 L 751.483 410.271 C 750.727 410.085 749.972 409.9 749.217 409.714 L 752.762 407.48 z" fill="rgb(165,99,20)" transform="translate(0,0)"></path>
<path d="M 752.762 407.48 C 764.052 411.005 767.204 412.964 779.416 413.423 C 777.721 413.957 776.04 414.536 774.376 415.158 C 771.306 414.965 771.411 414.839 768.483 414.181 L 751.483 410.271 C 750.727 410.085 749.972 409.9 749.217 409.714 L 752.762 407.48 z" fill="rgb(229,207,169)" transform="translate(0,0)"></path>
<path d="M 801.934 345.201 C 813.171 345.434 821.846 352.424 833.166 352.627 C 841.953 352.897 850.858 349.689 859.3 347.77 C 863.208 346.612 872.417 345.15 875.447 349.19 C 896.684 377.511 831.547 374.731 823.372 375.935 L 822.047 376.143 C 806.401 379.851 760.364 404.159 754.476 382.839 C 750.217 367.422 789.878 347.714 801.934 345.201 z" fill="rgb(226,172,81)" transform="translate(0,0)"></path>
<path d="M 889.072 400.693 C 894.991 402.036 902.15 407.924 907.562 410.896 C 909.347 411.875 916.692 416.157 917.168 418.045 C 918.975 425.223 908.608 432.664 905.213 437.627 C 901.723 442.726 900.94 446.225 898.759 451.33 L 898.063 453.033 C 889.55 457.181 883.12 459.636 873.745 461.868 L 871.942 461.981 C 868.963 462.149 866.365 462.584 865.485 459.198 C 861.697 444.633 856.221 438.904 845.144 429.085 L 889.072 400.693 z" fill="rgb(226,172,81)" transform="translate(0,0)"></path>
<path d="M 1530.88 420.572 C 1536 419.039 1537.64 418.81 1542.99 418.277 C 1566.8 429.192 1607.93 471.263 1619.71 495.897 C 1622.63 501.999 1622.97 510.508 1619.65 516.745 C 1624.77 523.311 1628.31 527.873 1634.26 533.838 C 1607.06 537.106 1601.95 542.144 1591.27 567.448 L 1591.02 567.123 C 1584.24 558.534 1578.89 548.682 1571.02 540.867 C 1564.75 558.369 1552.24 567.748 1537.66 551.16 C 1537.03 552.459 1536.46 553.656 1535.86 554.976 C 1533.25 560.402 1526.71 564.216 1520.77 564.435 C 1499.83 565.205 1499.52 539.047 1499.12 524.252 C 1485.12 519.286 1473.29 510.151 1469.49 494.785 C 1462.43 466.219 1498.53 469.079 1509.7 446.75 C 1514.15 437.128 1523.38 427.976 1530.88 420.572 z" fill="rgb(165,99,20)" transform="translate(0,0)"></path>
<path d="M 1571.02 540.867 C 1569.37 536.932 1559.2 510.531 1559.41 508.581 C 1560.29 500.49 1584.1 518.399 1586.32 519.631 C 1599.21 526.764 1609.73 527.194 1619.65 516.745 C 1624.77 523.311 1628.31 527.873 1634.26 533.838 C 1607.06 537.106 1601.95 542.144 1591.27 567.448 L 1591.02 567.123 C 1584.24 558.534 1578.89 548.682 1571.02 540.867 z" fill="rgb(229,207,169)" transform="translate(0,0)"></path>
<path d="M 1535.86 554.976 C 1535.83 552.828 1533.96 542.458 1535.62 542.504 C 1537.54 544.213 1537.25 548.597 1537.66 551.16 C 1537.03 552.459 1536.46 553.656 1535.86 554.976 z" fill="rgb(190,127,59)" transform="translate(0,0)"></path>
<path d="M 1533.61 443.239 C 1541.89 446.451 1557.68 457.274 1560.09 466.494 C 1562.9 477.294 1548.62 476.367 1543.36 485.309 C 1536.63 496.725 1546.2 505.946 1549.5 516.989 C 1552.29 525.353 1553.03 528.006 1554.67 536.678 C 1545.91 526.118 1538.28 511.65 1524.49 527.889 C 1524.5 534.632 1530.77 543.131 1525.51 542.768 C 1513.42 541.933 1512.54 516.177 1507.2 510.982 C 1486.67 491.009 1483.81 490.462 1509.48 473.981 C 1518.5 468.184 1527.89 454.385 1533.61 443.239 z" fill="rgb(226,172,81)" transform="translate(0,0)"></path>
<path d="M 568.335 388.2 C 574.319 377.653 578.841 371.761 588.813 364.5 C 619.404 342.224 676.249 298.557 714.717 308.012 C 721.61 311.919 729.386 316.889 732.363 324.309 C 741.786 347.794 716.88 361.644 697.403 364.82 C 680.259 367.616 664.271 366.22 647.602 370.022 C 633.212 375.012 632.897 386.02 611.651 389.96 C 609.981 390.378 608.306 390.772 606.625 391.143 C 604.662 391.862 602.858 392.368 600.877 393.061 C 586.919 401.405 592.421 405.51 575.69 404.416 C 568.847 398.747 569.323 396.841 568.335 388.2 z" fill="rgb(165,99,20)" transform="translate(0,0)"></path>
<path d="M 697.554 324.195 C 703.696 323.536 707.536 322.199 712.2 325.938 C 720.635 349.476 674.116 348.393 661.839 351.392 C 648.509 354.649 632.86 361.77 620.71 368.133 C 614.694 370.289 610.548 371.062 604.299 372.344 C 621.191 353.942 672.845 329.422 697.554 324.195 z" fill="rgb(226,172,81)" transform="translate(0,0)"></path>
<path d="M 1386.67 330.693 C 1431 353.16 1472.93 381.328 1513.34 410.101 C 1518.11 413.503 1525.38 419.5 1530.88 420.572 C 1523.38 427.976 1514.15 437.128 1509.7 446.75 C 1490.24 424.714 1469.6 403.747 1447.87 383.94 C 1439.63 376.368 1431.25 368.951 1422.74 361.694 C 1416.25 356.276 1390.09 335.901 1386.67 330.693 z" fill="rgb(229,207,169)" transform="translate(0,0)"></path>
<path d="M 1305.25 416.208 C 1312.59 415.169 1320.74 415.629 1327.24 419.67 C 1345.7 431.136 1333.4 447.966 1319.99 457.163 C 1303.17 468.701 1289.37 473.541 1268.87 470.198 C 1263.36 468.307 1260.55 467.896 1255.57 464.608 L 1253.89 463.542 C 1233.18 427.425 1231.19 433.918 1267.54 416.423 C 1273.12 417.939 1278.67 419.663 1284.23 421.28 C 1291.05 419.672 1298.6 417.538 1305.25 416.208 z" fill="rgb(165,99,20)" transform="translate(0,0)"></path>
<path d="M 1270.56 431.895 L 1272.58 432.68 C 1282.56 436.484 1285.33 435.947 1296.5 434.088 C 1311.52 431.589 1323.65 433.823 1302.54 443.991 C 1293.28 448.102 1274.86 457.507 1265.42 448.555 C 1259.35 442.798 1265.71 436.012 1270.56 431.895 z" fill="rgb(226,172,81)" transform="translate(0,0)"></path>
<path d="M 1418.09 529.812 C 1428.17 530.805 1430.42 536.158 1436.1 544.426 C 1446.75 559.933 1461.94 565.791 1459.1 586.493 C 1455.93 609.611 1449.27 609.768 1427.05 611.277 C 1418.66 613.112 1405.75 619.245 1397.91 616.531 C 1385.44 612.211 1388.84 591.464 1391.33 582.162 C 1392.39 578.209 1399.19 575.82 1402.35 574.61 C 1405.17 567.766 1411.95 554.478 1411.33 547.492 C 1410.45 537.652 1410.63 536.059 1418.09 529.812 z" fill="rgb(165,99,20)" transform="translate(0,0)"></path>
<path d="M 1422.75 568.395 C 1429.75 571.021 1445.19 579.393 1439.5 590.01 C 1438.29 592.281 1425.89 591.56 1421.9 592.144 C 1418.15 593.843 1413.57 596.909 1409.64 597.49 C 1406.97 597.885 1407.57 595.57 1407.63 594.31 C 1408 586.967 1415.3 582.972 1418.96 577.358 C 1420.38 575.19 1421.68 570.952 1422.75 568.395 z" fill="rgb(226,172,81)" transform="translate(0,0)"></path>
<path d="M 835.299 656.342 C 860.011 655.66 856.406 660.005 873.551 668.94 C 901.509 683.51 888.885 690.229 866.018 696.271 C 863.445 696.951 850.738 705.201 847.057 707.381 C 839.705 712.229 824.615 725.152 817.493 724.891 C 815.064 724.79 812.794 723.659 811.249 721.782 C 805.573 714.873 809.117 696.521 809.848 687.994 C 811.548 668.166 814.41 659.229 835.299 656.342 z" fill="rgb(165,99,20)" transform="translate(0,0)"></path>
<path d="M 837.652 671.233 C 842.457 671.154 858.831 671.164 861.034 677.711 C 861.602 679.4 844.511 689.686 842.351 691.171 C 837.61 693.759 832.969 696.715 828.073 699.393 C 827.972 686.856 824.242 676.367 837.652 671.233 z" fill="rgb(226,172,81)" transform="translate(0,0)"></path>
<path d="M 670.274 951.206 C 682.912 950.697 692.64 954.21 705.012 955.874 C 712.776 956.457 731.118 960.279 726.764 971.991 C 724.174 978.959 699.647 984.206 691.478 988.235 C 678.422 992.674 665.531 993.571 651.984 991.285 C 614.5 984.96 653.471 956.329 670.274 951.206 z" fill="rgb(165,99,20)" transform="translate(0,0)"></path>
<path d="M 667.993 965.092 C 671.993 964.914 675.998 964.88 680 964.988 C 694.836 965.349 684.341 970.491 677.973 973.746 C 673.721 974.193 670.821 974.803 666.505 974.395 L 658.386 973.709 C 662.599 969.458 663.116 968.837 667.993 965.092 z" fill="rgb(226,172,81)" transform="translate(0,0)"></path>
<path d="M 1354.13 546.196 C 1379.52 543.062 1380.6 565.823 1380.88 585.476 C 1374.08 595.79 1367.47 600.292 1355.58 604.553 C 1333.01 609.104 1326.15 599.293 1329.83 577.974 L 1330.8 572.488 C 1332.85 560.33 1343.62 551.419 1354.13 546.196 z" fill="rgb(165,99,20)" transform="translate(0,0)"></path>
<path d="M 1355.59 557.72 C 1358.96 561.039 1363.22 573.255 1364.9 577.984 C 1360.69 579.724 1357.02 580.73 1352.88 582.964 C 1338.49 590.565 1347.01 581.539 1347.89 570.986 C 1348.37 565.207 1351.52 561.587 1355.59 557.72 z" fill="rgb(226,172,81)" transform="translate(0,0)"></path>
<path d="M 618.073 918.18 C 634.303 917.258 658.793 921.715 670.169 935.003 C 676.329 942.199 663.15 949.796 657.831 952.547 C 654.652 952.381 645.151 951.25 642.72 951.58 C 580.906 972.719 573.108 927.095 618.073 918.18 z" fill="rgb(165,99,20)" transform="translate(0,0)"></path>
<path d="M 624.716 931.436 C 632.252 930.773 636.607 931.734 644.002 932.695 C 637.03 935.078 630.211 936.983 623.236 939.41 C 619.484 940.874 608.315 940.55 607.996 935.866 C 607.957 935.359 608.122 934.858 608.453 934.473 C 610.634 931.884 621.229 931.73 624.716 931.436 z" fill="rgb(226,172,81)" transform="translate(0,0)"></path>
<path d="M 1398.7 501.229 C 1426.38 502.248 1416.36 517.444 1410.13 532.523 C 1403.79 547.861 1408.97 551.213 1390.99 559.167 C 1377.15 561.805 1377.75 551.829 1374.21 539.982 C 1368.24 519.989 1379.61 505.439 1398.7 501.229 z" fill="rgb(165,99,20)" transform="translate(0,0)"></path>
<path d="M 1397.86 513.94 C 1399.61 517.448 1393.96 539.483 1390.65 541.987 C 1384.31 527.773 1383.67 520.121 1397.86 513.94 z" fill="rgb(226,172,81)" transform="translate(0,0)"></path>
<path d="M 568.335 388.2 C 569.323 396.841 568.847 398.747 575.69 404.416 C 576.026 411.51 574.556 408.532 568.389 412.661 C 565.707 414.458 560.735 414.937 557.578 415.349 C 545.131 413.769 540.398 414.729 528.813 414.942 C 531.996 414.02 537.693 413.765 538.893 410.031 C 541.144 403.021 551.296 398.174 557.2 394.435 C 560.002 397.37 562.449 400.069 565.35 402.968 C 566.344 398.018 567.338 393.14 568.335 388.2 z" fill="rgb(229,207,169)" fill-opacity="0.568627" transform="translate(0,0)"></path>
<path d="M 606.625 391.143 C 608.306 390.772 609.981 390.378 611.651 389.96 C 613.584 392.219 612.854 392.984 615.16 394.915 C 612.89 400.49 614.013 399.368 608.652 403.484 C 602.497 408.209 612.574 414.397 597.005 412.411 C 586.968 411.13 574.347 411.895 564.586 416.217 C 561.884 415.975 560.22 415.831 557.578 415.349 C 560.735 414.937 565.707 414.458 568.389 412.661 C 574.556 408.532 576.026 411.51 575.69 404.416 C 592.421 405.51 586.919 401.405 600.877 393.061 C 600.94 397.051 600.74 399.811 605.149 400.573 C 609.621 398.772 607.501 395.179 606.625 391.143 z M 598.937 411.744 C 602.437 407.158 596.055 404.861 592.304 404.414 C 590.034 408.498 588.623 410.584 594.029 411.118 C 595.669 411.296 597.305 411.504 598.937 411.744 z" fill="rgb(229,207,169)" fill-opacity="0.827451" transform="translate(0,0)"></path>
<path d="M 592.304 404.414 C 596.055 404.861 602.437 407.158 598.937 411.744 C 597.305 411.504 595.669 411.296 594.029 411.118 C 588.623 410.584 590.034 408.498 592.304 404.414 z" fill="rgb(229,207,169)" fill-opacity="0.694118" transform="translate(0,0)"></path>
<path d="M 270.93 794.439 C 274.844 803.651 274.698 801.289 279.313 808.107 C 279.705 814.971 277.607 818.178 271.211 811.829 C 265.369 806.03 266.488 809.526 261.001 805.241 C 265.518 797.628 267.119 806.383 270.93 794.439 z" fill="rgb(233,228,214)" fill-opacity="0.839216" transform="translate(0,0)"></path>
<path d="M 600.877 393.061 C 602.858 392.368 604.662 391.862 606.625 391.143 C 607.501 395.179 609.621 398.772 605.149 400.573 C 600.74 399.811 600.94 397.051 600.877 393.061 z" fill="rgb(229,207,169)" fill-opacity="0.784314" transform="translate(0,0)"></path>
<metadata><recraft-signature>{"signed_by": "recraft", "signature_b64": "4Qt7GBPFHGxrX+Ce/vjY5n6jb/ps/YGiiLeXJ4kcSNh3V9EqLTOnADazkJvZA9pc5qwKiIFuVuJR8gl+zjQPDA==", "signing_algo": "Ed25519", "generation_timestamp": 1781914945, "identifier": "f6705679-f64e-4b8a-941d-e869152d2519"}</recraft-signature></metadata></svg>