<svg xmlns="http://www.w3.org/2000/svg" height="1024" preserveAspectRatio="none" style="display: block;" version="1.1" viewBox="0 0 2048 2048" width="1024">
<defs>
	<linearGradient gradientUnits="userSpaceOnUse" id="Gradient1" x1="1087.76" x2="1004.62" y1="1741.73" y2="1157.3">
		<stop class="stop0" offset="0" stop-color="rgb(165,97,0)" stop-opacity="1"></stop>
		<stop class="stop1" offset="1" stop-color="rgb(210,147,52)" stop-opacity="1"></stop>
	</linearGradient>
</defs>
<path d="M 852.118 561.25 C 854.232 553.493 852.899 523.351 852.98 512.749 L 852.872 432.082 C 852.832 415.522 852.124 395.253 854.57 379.215 C 862.026 330.332 891.92 286.383 933.474 259.947 C 972.819 235.275 1020.35 227.227 1065.62 237.572 C 1108.02 247.024 1147.06 275.417 1170.17 312.018 C 1180.4 328.435 1187.51 346.596 1191.14 365.592 C 1195.13 386.583 1194.25 411.437 1194.36 433.092 L 1194.81 517.624 C 1194.85 531.507 1194.4 547.602 1194.93 561.277 L 1206.79 561.38 C 1257.39 560.562 1309.72 561.094 1360.48 561.026 C 1397.32 560.976 1446.46 559.515 1482.01 563.069 C 1545.48 569.414 1608.46 596.441 1654.33 641.161 C 1668.66 655.148 1681.32 670.734 1692.09 687.613 C 1706.01 709.663 1723.17 743.464 1735.91 766.899 L 1815.23 911.897 L 1904.04 1073.61 C 1926.73 1115.92 1954.31 1154.4 1953.54 1204.15 C 1953.19 1227.31 1947.14 1264.33 1936.58 1284.87 C 1928.72 1307.21 1907.68 1347.71 1896.87 1371.08 C 1879.65 1409.2 1861.97 1447.12 1843.82 1484.81 C 1831.19 1511.05 1820.54 1537.3 1802.47 1560.47 C 1776.65 1593.56 1738.54 1622.87 1700.84 1641.46 C 1668.61 1657.36 1624.64 1669.24 1588.69 1672.24 C 1566.27 1674.11 1539.1 1673.39 1516.21 1673.36 L 1405.69 1673.12 L 1065.62 1672.99 L 676.32 1673.16 L 548.417 1673.44 C 523.874 1673.47 493.97 1674.07 469.731 1672.55 C 439.321 1670.61 409.32 1664.5 380.569 1654.41 C 326.777 1635.44 276.499 1600.71 242.222 1554.51 C 231.497 1540.06 221.951 1520.57 214.211 1504.26 C 180.505 1433.8 147.463 1363.01 115.09 1291.92 C 112.836 1286.7 110.585 1282.05 108.717 1276.64 C 92.8299 1243.88 91.4458 1183.27 105.307 1149.55 C 113.762 1128.98 127.352 1105.21 138.079 1085.35 L 208.535 957.79 L 312.871 767.749 C 326.505 743.15 342.273 711.542 356.827 688.031 C 364.634 675.167 373.781 663.166 384.114 652.227 C 432.519 601.399 497.629 569.73 567.499 563.031 C 599.357 559.866 638.961 560.953 671.452 561.044 L 801.566 561.269 C 818.151 561.226 835.744 561.744 852.118 561.25 z M 1936.58 1284.87 C 1931.81 1287.45 1921.38 1304.46 1917.1 1309.78 C 1870.14 1368.2 1794.57 1401.84 1722.37 1416.47 C 1716.54 1416.87 1709.72 1418.13 1703.95 1419.24 C 1663.68 1427 1623.41 1425.16 1582.44 1425.13 L 1443.47 1424.99 L 1003.11 1424.71 C 876.403 1425.5 749.693 1425.64 622.985 1425.13 L 471.022 1425.18 C 417.917 1425.2 367.837 1426.82 316.049 1413.13 C 302.028 1409.43 287.888 1405.24 273.865 1401.81 C 206.429 1376.7 154.533 1347.72 115.163 1284.71 C 114.54 1285.94 115.057 1290.18 115.09 1291.92 C 147.463 1363.01 180.505 1433.8 214.211 1504.26 C 221.951 1520.57 231.497 1540.06 242.222 1554.51 C 276.499 1600.71 326.777 1635.44 380.569 1654.41 C 409.32 1664.5 439.321 1670.61 469.731 1672.55 C 493.97 1674.07 523.874 1673.47 548.417 1673.44 L 676.32 1673.16 L 1065.62 1672.99 L 1405.69 1673.12 L 1516.21 1673.36 C 1539.1 1673.39 1566.27 1674.11 1588.69 1672.24 C 1624.64 1669.24 1668.61 1657.36 1700.84 1641.46 C 1738.54 1622.87 1776.65 1593.56 1802.47 1560.47 C 1820.54 1537.3 1831.19 1511.05 1843.82 1484.81 C 1861.97 1447.12 1879.65 1409.2 1896.87 1371.08 C 1907.68 1347.71 1928.72 1307.21 1936.58 1284.87 z" fill="rgb(218,159,69)" transform="translate(0,0)"></path>
<path d="M 762.107 842.186 C 778.536 864.339 794.415 888.348 809.969 911.216 C 840.793 957.212 871.902 1003.02 903.293 1048.63 C 916.872 1068.18 936.583 1101.15 952.302 1115.93 C 968.023 1130.88 987.944 1140.65 1009.39 1143.94 C 1087.48 1155.39 1115.59 1093.94 1152.92 1039.98 L 1246.36 906.264 L 1273.81 867.004 C 1278.88 859.649 1285.09 849.785 1290.58 843.074 C 1312.26 841.189 1339.35 842.719 1361.56 842.629 C 1420.37 842.392 1467.02 838.411 1518.27 875.05 C 1537.13 889.096 1553.1 906.65 1565.31 926.751 C 1572.87 939.191 1579.74 956.003 1585.63 969.523 L 1611.1 1027.71 L 1705.85 1238.05 C 1715.6 1259.3 1729.99 1295.67 1739.92 1314.64 C 1736.27 1317.02 1730.11 1319.87 1726.07 1321.61 C 1703.96 1331.14 1680.41 1336.88 1656.41 1338.59 C 1631.91 1340.12 1598.13 1339.18 1572.91 1339.15 L 1426.31 1338.99 L 984.201 1339.06 L 588.86 1339.27 L 464.013 1339.16 C 403.482 1339.06 370.256 1342.12 312.158 1318.91 C 339.409 1249.32 373.206 1178.43 402.404 1109.24 C 418.596 1070.69 435.08 1032.27 451.855 993.97 C 474.007 942.642 480.883 914.506 525.727 877.029 C 564.327 850.83 600.368 842.999 646.461 842.98 C 684.279 842.964 724.354 843.936 762.107 842.186 z" fill="rgb(235,230,214)" transform="translate(0,0)"></path>
<path d="M 698.104 882.429 C 704.91 881.71 712.901 881.9 719.847 881.886 C 727.41 886.642 733.508 893.862 732.893 903.345 C 731.178 929.749 700.118 923.305 682.455 925.489 C 640.838 930.516 597.759 949.303 570.727 982.27 C 549.13 1008.61 536.691 1045.18 522.958 1076.44 C 505.599 1115.33 488.919 1154.53 472.927 1194.01 C 467.33 1207.97 452.38 1251.59 443.349 1260.21 C 434.938 1265.11 427.908 1265.52 419.327 1260.23 C 408.288 1253.41 408.763 1243.7 412.96 1232.64 C 426.266 1197.58 441.037 1163.02 456.209 1128.73 C 468.501 1100.01 480.083 1071.16 493.5 1042.9 C 502.433 1023.84 509.722 1003.58 519.489 984.602 C 526.004 971.729 534.166 959.758 543.77 948.992 C 584.043 904.167 639.473 885.637 698.104 882.429 z" fill="rgb(231,203,154)" transform="translate(0,0)"></path>
<path d="M 115.09 1291.92 C 115.057 1290.18 114.54 1285.94 115.163 1284.71 C 154.533 1347.72 206.429 1376.7 273.865 1401.81 C 287.888 1405.24 302.028 1409.43 316.049 1413.13 C 367.837 1426.82 417.917 1425.2 471.022 1425.18 L 622.985 1425.13 C 749.693 1425.64 876.403 1425.5 1003.11 1424.71 L 1443.47 1424.99 L 1582.44 1425.13 C 1623.41 1425.16 1663.68 1427 1703.95 1419.24 C 1709.72 1418.13 1716.54 1416.87 1722.37 1416.47 C 1794.57 1401.84 1870.14 1368.2 1917.1 1309.78 C 1921.38 1304.46 1931.81 1287.45 1936.58 1284.87 C 1928.72 1307.21 1907.68 1347.71 1896.87 1371.08 C 1879.65 1409.2 1861.97 1447.12 1843.82 1484.81 C 1831.19 1511.05 1820.54 1537.3 1802.47 1560.47 C 1776.65 1593.56 1738.54 1622.87 1700.84 1641.46 C 1668.61 1657.36 1624.64 1669.24 1588.69 1672.24 C 1566.27 1674.11 1539.1 1673.39 1516.21 1673.36 L 1405.69 1673.12 L 1065.62 1672.99 L 676.32 1673.16 L 548.417 1673.44 C 523.874 1673.47 493.97 1674.07 469.731 1672.55 C 439.321 1670.61 409.32 1664.5 380.569 1654.41 C 326.777 1635.44 276.499 1600.71 242.222 1554.51 C 231.497 1540.06 221.951 1520.57 214.211 1504.26 C 180.505 1433.8 147.463 1363.01 115.09 1291.92 z M 307.71 1480.61 C 297.459 1469.21 287.003 1453.14 279.474 1439.91 C 260.87 1407.23 229.441 1432.02 248.611 1461.18 C 265.73 1490.94 281.909 1512.52 307.983 1535.71 C 362.036 1582.98 429.735 1611.82 501.273 1618.04 C 554.576 1623.12 613.008 1619.05 666.853 1620.08 C 673.186 1620.2 674.912 1618.64 680.162 1615.95 C 691.564 1603.29 686.177 1583.81 668.913 1581.94 C 652.99 1580.21 635.649 1581.04 619.595 1581.11 L 555.269 1580.94 C 532.491 1580.89 510.867 1581.21 488.151 1578.26 C 431.559 1571.23 378.449 1547.14 335.878 1509.2 C 326.356 1500.84 315.349 1490.58 307.71 1480.61 z M 784.351 1616.95 C 791.244 1609.46 792.468 1604.72 789.176 1593 C 784.23 1575.39 736.334 1582.11 724.421 1584.83 C 717.447 1586.43 711.702 1601.56 718.479 1612.19 L 720.67 1615.57 L 722.039 1616.38 C 725.987 1618.73 728.805 1620.26 733.491 1620.3 C 747.675 1620.44 762.471 1621.71 776.544 1620.33 C 778.647 1620.12 782.435 1617.76 784.351 1616.95 z" fill="rgb(210,150,56)" transform="translate(0,0)"></path>
<path d="M 115.09 1291.92 C 115.057 1290.18 114.54 1285.94 115.163 1284.71 C 154.533 1347.72 206.429 1376.7 273.865 1401.81 C 283.682 1407.39 296.691 1410.09 307.589 1413.01 C 364.95 1428.38 423.559 1427.79 482.405 1427.16 C 507.57 1426.88 533.375 1427.53 558.625 1427.52 L 806.297 1427.5 L 883.437 1427.46 C 895.838 1427.46 941.287 1425.3 949.333 1433.98 C 948.634 1439.6 944.911 1436.72 940.268 1439.6 L 939.201 1438.89 L 936.405 1440.63 L 934.722 1439.92 C 932.795 1441.33 904.415 1445.82 901.72 1444.49 C 896.717 1442.01 879.591 1445.21 877.295 1444.81 L 877.072 1443.08 C 873.703 1441.81 868.488 1445.38 864.343 1445.53 C 850.857 1446 838.458 1448.72 824.894 1447.98 C 819.329 1453.89 798.577 1458.52 790.486 1460.41 C 783.04 1458.38 790.697 1457.44 784.632 1456.48 C 775.748 1461.75 773.408 1454.53 765.994 1452.57 C 763.707 1451.97 753.52 1452.8 750.828 1453.18 C 739.399 1454.83 738.393 1455.51 727.581 1451.68 C 725.178 1453.41 723.422 1454.47 721.434 1456.66 C 718.164 1460.26 707.875 1459.74 705.124 1462.98 C 699.656 1461.81 702.043 1460.45 700.123 1460.26 C 696.019 1459.85 688.621 1456.87 685.115 1458.3 C 675.625 1455.86 678.739 1459.67 668.314 1461.58 C 665.17 1462.16 661.03 1465.89 658.612 1466.89 C 655.796 1468.06 646.632 1472.06 643.982 1472.63 C 628.791 1475.92 612.377 1477.23 596.926 1479.24 C 593.948 1479.63 588.434 1482.54 586.104 1482.58 C 580.864 1482.7 572.735 1480.74 567.639 1481.29 C 562.178 1481.89 553.651 1485.95 548.286 1485.47 L 546.526 1483.37 C 540.939 1484.38 537.573 1488.57 528.909 1486.81 C 525.723 1486.17 517.28 1487.06 513.83 1486.85 C 508.535 1486.85 490.312 1492.76 486.071 1491.07 C 475.672 1485.75 462.263 1500.02 451.71 1503.44 C 449.548 1504.15 439.868 1511.25 436.902 1513.06 C 430.851 1516.74 424.431 1517.42 420.61 1523.33 C 408.079 1527.98 393.826 1527.47 382.905 1537.71 C 381.395 1539.13 372.827 1534.4 373.07 1532.13 C 371.698 1529.14 366.089 1526.46 362.881 1524.68 L 360.48 1526.96 C 359.558 1525.53 356.615 1518.98 355.212 1519.11 C 351.18 1519.49 350.066 1519.73 347.078 1516.52 L 347.297 1513.54 C 342.604 1510.08 344.714 1514.96 342.108 1512.53 C 333.754 1504.72 316.047 1488.08 309.437 1479.97 C 307.921 1480.33 308.432 1479.99 307.71 1480.61 C 297.459 1469.21 287.003 1453.14 279.474 1439.91 C 260.87 1407.23 229.441 1432.02 248.611 1461.18 C 265.73 1490.94 281.909 1512.52 307.983 1535.71 C 362.036 1582.98 429.735 1611.82 501.273 1618.04 C 554.576 1623.12 613.008 1619.05 666.853 1620.08 C 673.186 1620.2 674.912 1618.64 680.162 1615.95 C 693.666 1616.18 707.173 1616.06 720.67 1615.57 L 722.039 1616.38 C 725.987 1618.73 728.805 1620.26 733.491 1620.3 C 747.675 1620.44 762.471 1621.71 776.544 1620.33 C 778.647 1620.12 782.435 1617.76 784.351 1616.95 L 1255.85 1616.97 L 1390.3 1616.92 C 1418.4 1616.92 1452.78 1617.98 1480.04 1614.84 C 1514.71 1610.83 1548.4 1600.72 1579.56 1584.99 C 1650.67 1549.13 1697.42 1491.68 1722.37 1416.47 C 1794.57 1401.84 1870.14 1368.2 1917.1 1309.78 C 1921.38 1304.46 1931.81 1287.45 1936.58 1284.87 C 1928.72 1307.21 1907.68 1347.71 1896.87 1371.08 C 1879.65 1409.2 1861.97 1447.12 1843.82 1484.81 C 1831.19 1511.05 1820.54 1537.3 1802.47 1560.47 C 1776.65 1593.56 1738.54 1622.87 1700.84 1641.46 C 1668.61 1657.36 1624.64 1669.24 1588.69 1672.24 C 1566.27 1674.11 1539.1 1673.39 1516.21 1673.36 L 1405.69 1673.12 L 1065.62 1672.99 L 676.32 1673.16 L 548.417 1673.44 C 523.874 1673.47 493.97 1674.07 469.731 1672.55 C 439.321 1670.61 409.32 1664.5 380.569 1654.41 C 326.777 1635.44 276.499 1600.71 242.222 1554.51 C 231.497 1540.06 221.951 1520.57 214.211 1504.26 C 180.505 1433.8 147.463 1363.01 115.09 1291.92 z" fill="url(#Gradient1)" transform="translate(0,0)"></path>
<path d="M 915.963 1428.55 C 917.902 1430.37 919.589 1432.15 915.529 1431.88 C 913.545 1431.2 912.139 1430.47 914.793 1429.17 L 915.963 1428.55 z" fill="rgb(210,150,56)" transform="translate(0,0)"></path>
<path d="M 852.118 561.25 C 854.232 553.493 852.899 523.351 852.98 512.749 L 852.872 432.082 C 852.832 415.522 852.124 395.253 854.57 379.215 C 862.026 330.332 891.92 286.383 933.474 259.947 C 972.819 235.275 1020.35 227.227 1065.62 237.572 C 1108.02 247.024 1147.06 275.417 1170.17 312.018 C 1180.4 328.435 1187.51 346.596 1191.14 365.592 C 1195.13 386.583 1194.25 411.437 1194.36 433.092 L 1194.81 517.624 C 1194.85 531.507 1194.4 547.602 1194.93 561.277 L 1206.79 561.38 C 1203.41 562.579 1198.66 562.101 1194.94 562.014 C 1194.88 581.868 1195.9 621.153 1194.26 639.263 C 1193.89 665.195 1193.46 694.823 1194.19 720.618 C 1230.6 691.305 1284.35 691.801 1314.57 729.352 C 1325.32 742.602 1330.37 759.574 1328.63 776.547 C 1326.19 798.184 1303.15 823.918 1290.58 843.074 C 1285.09 849.785 1278.88 859.649 1273.81 867.004 L 1246.36 906.264 L 1152.92 1039.98 C 1115.59 1093.94 1087.48 1155.39 1009.39 1143.94 C 987.944 1140.65 968.023 1130.88 952.302 1115.93 C 936.583 1101.15 916.872 1068.18 903.293 1048.63 C 871.902 1003.02 840.793 957.212 809.969 911.216 C 794.415 888.348 778.536 864.339 762.107 842.186 C 739.827 810.059 712.066 780.955 734.416 740.443 C 744.862 721.931 762.204 708.3 782.659 702.523 C 807.966 695.354 830.586 702.806 852.607 715.2 C 852.844 692.093 853.765 661.834 852.544 639.173 C 850.947 617.73 852.051 583.579 852.118 561.25 z" fill="rgb(173,105,7)" transform="translate(0,0)"></path>
<path d="M 990.556 273.285 C 1045.07 267.853 1095.45 304.718 1111.03 355.446 C 1121.92 390.894 1117.21 446.901 1117.61 484.859 L 1118.66 692.893 C 1118.67 718.358 1117.56 745.597 1119.45 770.564 C 1120.97 790.643 1150.78 800.802 1166.47 788.556 C 1180.2 777.836 1183.83 763.926 1195.67 752.055 C 1203.44 744.267 1210.57 744.657 1220.59 745.113 L 1221.21 745.509 C 1231.43 751.991 1238.14 760.454 1239.42 772.985 C 1240.21 780.745 1239.02 785.421 1235.15 792.098 C 1227.2 805.833 1217.64 818.772 1208.56 831.814 L 1160.43 900.873 L 1102.33 985.948 C 1086.26 1009.91 1070.23 1034.52 1052.66 1057.4 C 1038.61 1075.69 1024.98 1079.37 1003.1 1081.84 C 954.672 1081.75 945.231 1055.54 921.169 1020.33 C 902.334 993.125 883.703 965.785 865.275 938.308 L 794.008 835.078 C 784.382 820.899 758.603 787.093 757.63 772.044 C 757.034 762.476 760.346 753.076 766.807 745.994 C 774.175 737.777 781.521 734.721 791.918 733.789 C 823.837 730.928 828.697 765.265 847.405 782.493 C 852.915 787.277 859.242 788.149 866.137 787.332 C 881.869 785.467 883.366 769.824 882.952 757.049 C 882.317 737.456 882.526 717.812 882.531 698.217 L 883.067 512.324 C 883.102 444.957 874.803 376.647 916.965 318.837 C 934.413 294.419 960.92 278.012 990.556 273.285 z" fill="rgb(218,159,69)" transform="translate(0,0)"></path>
<path d="M 1016.56 285.434 C 1040.51 285.53 1047.25 322.018 1012.07 327.938 C 971.526 334.76 945.928 371.639 945.85 412.051 C 945.749 464.322 944.218 518.681 945.404 571.21 C 945.625 587.468 944.041 598.39 925.594 601.651 C 910.287 600.738 904.583 592.789 904.313 578.065 C 903.874 554.182 904.79 529.809 904.914 505.91 L 904.862 444.18 C 904.822 423.954 903.818 404.325 908.117 384.368 C 919.666 330.76 960.623 289.531 1016.56 285.434 z" fill="rgb(235,230,214)" transform="translate(0,0)"></path>
<path d="M 926.258 631.331 C 930.465 631.803 933.223 631.808 937 633.854 C 941.343 636.238 944.562 640.25 945.948 645.007 C 947.285 649.498 947.334 657.816 947.084 662.621 C 946.01 683.305 953.621 701.663 927.219 707.4 L 926.013 707.341 C 905.619 706.475 903.954 691.725 904.811 674.8 C 905.877 653.752 899.292 635.597 926.258 631.331 z" fill="rgb(235,230,214)" transform="translate(0,0)"></path>
<path d="M 1194.26 639.263 C 1233.34 638.735 1272.77 639.823 1311.96 639.558 L 1385.5 639.019 C 1411.75 638.868 1446.09 637.426 1470.75 644.292 C 1542.55 661.053 1602.09 713.028 1634.61 777.807 C 1646.38 801.271 1659.56 824.653 1671.92 847.893 L 1755.95 1004.54 C 1768.32 1028.35 1781.03 1051.99 1794.07 1075.44 C 1805.41 1095.91 1823.7 1127.27 1830.88 1148.43 C 1838.04 1169.01 1839.15 1191.22 1834.07 1212.42 C 1824.6 1251.77 1793.92 1282.91 1760.29 1303.46 C 1756.5 1305.78 1743.72 1313.16 1739.92 1314.64 C 1729.99 1295.67 1715.6 1259.3 1705.85 1238.05 L 1611.1 1027.71 L 1585.63 969.523 C 1579.74 956.003 1572.87 939.191 1565.31 926.751 C 1553.1 906.65 1537.13 889.096 1518.27 875.05 C 1467.02 838.411 1420.37 842.392 1361.56 842.629 C 1339.35 842.719 1312.26 841.189 1290.58 843.074 C 1303.15 823.918 1326.19 798.184 1328.63 776.547 C 1330.37 759.574 1325.32 742.602 1314.57 729.352 C 1284.35 691.801 1230.6 691.305 1194.19 720.618 C 1193.46 694.823 1193.89 665.195 1194.26 639.263 z" fill="rgb(231,203,154)" transform="translate(0,0)"></path>
<path d="M 852.544 639.173 C 853.765 661.834 852.844 692.093 852.607 715.2 C 830.586 702.806 807.966 695.354 782.659 702.523 C 762.204 708.3 744.862 721.931 734.416 740.443 C 712.066 780.955 739.827 810.059 762.107 842.186 C 724.354 843.936 684.279 842.964 646.461 842.98 C 600.368 842.999 564.327 850.83 525.727 877.029 C 524.707 876.077 523.702 875.109 522.71 874.126 C 514.605 866.132 506.631 857.404 500.055 848.103 C 463.291 796.105 472.523 725.785 516.891 681.526 C 536.389 662.365 560.737 648.876 587.322 642.508 C 609.511 637.323 666.718 639.112 692.005 639.168 L 852.544 639.173 z" fill="rgb(231,203,154)" transform="translate(0,0)"></path>
<path d="M 108.717 1276.64 C 112.971 1279.57 112.864 1279.55 115.163 1284.71 C 114.54 1285.94 115.057 1290.18 115.09 1291.92 C 112.836 1286.7 110.585 1282.05 108.717 1276.64 z" fill="rgb(210,150,56)" transform="translate(0,0)"></path>
<metadata><recraft-signature>{"signed_by": "recraft", "signature_b64": "0xrLt/sMcuk1qkELL+CE5ornv1EjO49pk26TozZ0au6cGLGsSEp5fWX3KLqS4PCV8a+0kMnRp3STVu5rwjGyAg==", "signing_algo": "Ed25519", "generation_timestamp": 1781914861, "identifier": "0944658c-32c9-4974-9bc8-44deef5d4dad"}</recraft-signature></metadata></svg>