<svg xmlns="http://www.w3.org/2000/svg" height="1024" preserveAspectRatio="none" style="display: block;" version="1.1" viewBox="0 0 2048 2048" width="1024">
<path d="M 1009.05 212.877 C 1041.1 213.006 1086.05 211.752 1116.54 215.769 C 1211.29 228.252 1287.8 267.727 1354.53 334.964 C 1419.05 400.98 1459.36 486.874 1468.91 578.694 C 1471.83 606.523 1471.11 635.452 1471.23 663.501 L 1472.05 767.538 C 1574.03 825.172 1643.79 919.958 1659.62 1036.34 C 1663.91 1067.89 1663.37 1095.61 1663.28 1127.35 L 1663.17 1222.69 L 1663.24 1336.23 C 1663.25 1356.85 1663.98 1383.62 1662.51 1403.65 C 1660.86 1429.24 1656.38 1454.56 1649.16 1479.16 C 1622.42 1571.41 1559.84 1649.11 1475.41 1694.89 C 1436.03 1716.34 1392.93 1730.08 1348.41 1735.35 C 1312.26 1739.97 1269.21 1738.31 1232.14 1738.3 L 1061.8 1738.55 L 840.219 1738.85 C 805.472 1738.78 759.616 1739.92 725.556 1737.49 C 697.343 1735.27 669.441 1730.09 642.311 1722.03 C 554.31 1695.77 472.787 1629 430.247 1548 C 409.027 1507.59 397.881 1471.1 391.48 1426.22 C 386.925 1394.29 387.981 1368.54 387.95 1336.58 L 387.963 1229.42 L 387.984 1130.28 C 387.954 1106.23 387.426 1081.69 389.457 1057.74 C 391.385 1032.7 396.067 1007.94 403.417 983.925 C 432.215 891.583 495.907 814.123 580.943 768.024 L 580.865 662.736 C 580.826 640.544 580.1 614.591 581.852 592.727 C 589.265 494.469 631.435 402.063 700.802 332.078 C 764.186 268.39 846.912 227.537 936.012 215.922 C 961.865 212.713 983.164 212.966 1009.05 212.877 z M 1241.55 719.58 C 1241.82 689.444 1241.35 659.115 1242.05 629.03 C 1244.31 530.589 1184.52 421.743 1089.23 386.17 C 957.067 360.466 841.354 453.158 817.523 581.772 C 811.327 615.213 813.294 647.881 813.044 681.641 C 813.034 690.514 812.424 712.207 813.361 719.526 C 843.366 720.409 875.238 719.967 905.401 719.999 L 1064.45 720.008 L 1175.33 719.996 C 1196.03 720.012 1221.11 720.627 1241.55 719.58 z" fill="rgb(211,139,6)" transform="translate(0,0)"></path>
<path d="M 1009.05 212.877 C 1041.1 213.006 1086.05 211.752 1116.54 215.769 C 1211.29 228.252 1287.8 267.727 1354.53 334.964 C 1419.05 400.98 1459.36 486.874 1468.91 578.694 C 1471.83 606.523 1471.11 635.452 1471.23 663.501 L 1472.05 767.538 L 1471.89 769.236 C 1470.25 787.584 1470.94 818.095 1470.92 837.232 L 1471.09 960.169 C 1471.12 982.986 1472.58 1008.67 1468.71 1031.17 C 1466.76 1042.49 1459.34 1053.49 1450.73 1060.71 C 1419.59 1086.27 1384.69 1071.53 1353.14 1056.88 C 1340.65 1050.4 1329.03 1040.22 1318.45 1031 C 1273.99 992.241 1247.7 935.016 1243.43 876.623 C 1239.61 824.555 1244.37 771.277 1241.55 719.58 C 1241.82 689.444 1241.35 659.115 1242.05 629.03 C 1244.31 530.589 1184.52 421.743 1089.23 386.17 C 957.067 360.466 841.354 453.158 817.523 581.772 C 811.327 615.213 813.294 647.881 813.044 681.641 C 813.034 690.514 812.424 712.207 813.361 719.526 C 813.048 748.517 812.931 777.511 813.012 806.504 C 812.976 827.813 813.211 848.585 811.469 869.857 C 806.342 932.458 773.606 1000.95 722.506 1039.13 C 700.577 1056.33 671.774 1073.76 642.931 1075.13 C 618.86 1077.51 586.877 1056.85 583.388 1031.92 C 579.777 1006.1 581.381 972.363 581.354 945.567 L 580.943 768.024 L 580.865 662.736 C 580.826 640.544 580.1 614.591 581.852 592.727 C 589.265 494.469 631.435 402.063 700.802 332.078 C 764.186 268.39 846.912 227.537 936.012 215.922 C 961.865 212.713 983.164 212.966 1009.05 212.877 z" fill="rgb(238,213,167)" transform="translate(0,0)"></path>
<path d="M 1009.05 212.877 C 1041.1 213.006 1086.05 211.752 1116.54 215.769 C 1211.29 228.252 1287.8 267.727 1354.53 334.964 C 1419.05 400.98 1459.36 486.874 1468.91 578.694 C 1471.83 606.523 1471.11 635.452 1471.23 663.501 L 1472.05 767.538 L 1471.89 769.236 C 1470.25 787.584 1470.94 818.095 1470.92 837.232 L 1471.09 960.169 C 1471.12 982.986 1472.58 1008.67 1468.71 1031.17 C 1466.76 1042.49 1459.34 1053.49 1450.73 1060.71 C 1419.59 1086.27 1384.69 1071.53 1353.14 1056.88 C 1366.52 1048.44 1375.64 1042.02 1380.33 1026.03 C 1383.28 1016 1384.9 1008.14 1385.01 997.54 C 1385.31 969.854 1385.18 942.177 1385.13 914.493 L 1384.9 770.195 C 1384.83 735.776 1384.57 701.358 1384.13 666.942 C 1384.02 641.021 1384.82 612.252 1382.19 586.741 C 1373.1 497.262 1335.05 413.196 1273.82 347.313 C 1204.12 273.673 1114.65 225.149 1012.17 215.582 C 1009.39 215.322 1010.63 216.105 1007.79 214.742 L 1009.05 212.877 z" fill="rgb(229,180,85)" transform="translate(0,0)"></path>
<path d="M 722.506 1039.13 C 721.513 1012.14 722.009 982.291 721.984 955.085 L 721.983 808.985 L 721.869 695.878 C 721.667 646.065 718.389 603.814 731.399 554.94 C 749.713 487.256 794.12 429.595 854.882 394.602 C 913.173 361.033 982.384 351.91 1047.38 369.228 C 1055.7 371.508 1085.55 379.735 1089.23 386.17 C 957.067 360.466 841.354 453.158 817.523 581.772 C 811.327 615.213 813.294 647.881 813.044 681.641 C 813.034 690.514 812.424 712.207 813.361 719.526 C 813.048 748.517 812.931 777.511 813.012 806.504 C 812.976 827.813 813.211 848.585 811.469 869.857 C 806.342 932.458 773.606 1000.95 722.506 1039.13 z" fill="rgb(229,180,85)" transform="translate(0,0)"></path>
<metadata><recraft-signature>{"signed_by": "recraft", "signature_b64": "LGfIWm+h+GU+Jjlrpm4mhJFkjDghNGo+3qq3ywxfokzzYTwPjIypUvSef8JTKbstk9K1OfbtOD3WMeXCXzaMAw==", "signing_algo": "Ed25519", "generation_timestamp": 1781914905, "identifier": "57d15ca0-c953-40fb-8d0f-12f1f76bb0f6"}</recraft-signature></metadata></svg>