<svg xmlns="http://www.w3.org/2000/svg" height="1024" preserveAspectRatio="none" style="display: block;" version="1.1" viewBox="0 0 2048 2048" width="1024">
<path d="M 884.656 289.497 L 1239.4 289.523 L 1351.74 289.55 C 1386.84 289.56 1440.49 286.45 1471.8 296.743 C 1507.26 308.741 1536.6 334.155 1553.55 367.537 C 1560.19 380.614 1564.62 394.699 1566.67 409.222 C 1569.23 427.186 1568.12 454.124 1567.63 472.788 C 1566.75 505.863 1565.49 538.928 1563.87 571.975 C 1551.85 835.897 1519.85 1094.19 1444.47 1348.26 C 1430.47 1395.9 1414.82 1443.04 1397.55 1489.59 C 1388.58 1513.86 1375.53 1543.8 1367.8 1567.33 C 1388.38 1610.2 1440.86 1681.32 1441.11 1726.47 C 1441.29 1759.37 1426.78 1789.14 1403.85 1812.07 C 1387.46 1828.47 1367.28 1842.94 1344.88 1849.75 C 1318.92 1857.65 1284.6 1854.5 1257.52 1854.49 L 1169.5 1854.42 L 870.988 1854.81 L 782.015 1854.98 C 743.52 1855.03 711.506 1858.19 677.832 1835.95 C 646.743 1815.42 620.594 1791.04 612.011 1753.32 C 608.104 1735.81 608.614 1717.59 613.498 1700.32 C 618.555 1681.92 629.295 1664.74 638.353 1647.86 C 652.636 1621.23 667.88 1592.96 683.822 1567.3 C 664.214 1527.78 640.118 1456.98 626.331 1415.13 C 555.151 1199.04 517.417 974.583 497.47 748.403 C 488.652 653.355 483.525 558.001 482.101 462.556 C 481.443 410.263 482.881 371.85 522.84 331.309 C 541.647 312.489 565.307 299.256 591.187 293.083 C 615.273 287.585 679.256 289.695 706.626 289.751 L 884.656 289.497 z M 745.925 1719.63 L 1252.2 1719.77 C 1268.71 1719.78 1288.64 1720.29 1304.87 1719.47 C 1287.68 1689.81 1270.21 1661.75 1252.53 1632.54 C 1227.57 1631.47 1199.59 1631.93 1174.36 1631.93 L 1043.67 1632.11 C 964.113 1632.24 877.991 1630.56 798.901 1632.45 L 745.925 1719.63 z M 1421.91 634.009 C 1419.73 637.324 1417.46 640.566 1415.26 643.877 C 1414.25 644.61 1407.45 653.357 1406.75 654.564 C 1406.39 657.454 1403.34 661 1404.34 662.968 C 1406.52 667.242 1409.71 669.344 1414.33 669.999 C 1418.05 660.229 1422.9 657.336 1424.36 643.549 C 1423.8 638.155 1424.39 638.551 1421.91 634.009 z M 759.65 425.976 C 755.562 425.486 747.74 425.753 743.287 425.822 C 741.158 427.549 739.089 429.035 742.894 431.207 C 747.714 433.958 753.162 434.056 753.69 441.022 C 754.004 445.176 761.52 443.507 763.954 443.695 C 765.639 442.866 775.549 436.026 777.299 434.691 C 779.831 433.167 785.877 430.225 788.703 429.004 L 785.375 426.252 C 776.5 426.027 768.424 426.087 759.65 425.976 z" fill="rgb(215,141,13)" transform="translate(0,0)"></path>
<path d="M 799.912 1499.66 C 772.187 1440.06 747.9 1362.48 729.668 1298.54 C 656.941 1036.11 618.916 765.289 616.564 492.982 C 616.409 463.957 633.533 438.756 661.194 429.649 C 675.965 424.787 688.464 425.67 703.842 425.723 L 743.287 425.822 C 741.158 427.549 739.089 429.035 742.894 431.207 C 747.714 433.958 753.162 434.056 753.69 441.022 C 754.004 445.176 761.52 443.507 763.954 443.695 C 741.042 464.465 727.995 484.747 726.739 516.541 C 725.914 537.434 726.094 558.619 726.098 579.54 C 726.296 638.774 728.103 697.992 731.518 757.128 L 734.906 757.566 C 752.174 710.108 806.223 681.421 852.125 669.142 C 910.638 653.489 972.619 655.511 1028.86 678.869 C 1045.01 685.578 1060.24 694.756 1076.12 702.178 C 1119.58 722.987 1167.34 733.227 1215.51 732.064 C 1287.43 730.309 1356.32 707.469 1406.75 654.564 C 1406.39 657.454 1403.34 661 1404.34 662.968 C 1406.52 667.242 1409.71 669.344 1414.33 669.999 C 1418.05 660.229 1422.9 657.336 1424.36 643.549 C 1423.8 638.155 1424.39 638.551 1421.91 634.009 C 1424.33 629.028 1426.68 624.024 1429.1 619.071 C 1429.01 630.25 1427.71 650.06 1426.36 661.387 C 1421.03 732.674 1414.16 813.539 1405.07 884.383 C 1386.82 1030.89 1356.49 1175.63 1314.38 1317.13 C 1295.16 1381.62 1276.98 1438.57 1250.78 1501 L 983.058 1500.73 C 923.306 1500.8 859.385 1501.78 799.912 1499.66 z" fill="rgb(241,231,180)" transform="translate(0,0)"></path>
<path d="M 799.912 1499.66 C 772.187 1440.06 747.9 1362.48 729.668 1298.54 C 656.941 1036.11 618.916 765.289 616.564 492.982 C 616.409 463.957 633.533 438.756 661.194 429.649 C 675.965 424.787 688.464 425.67 703.842 425.723 L 743.287 425.822 C 741.158 427.549 739.089 429.035 742.894 431.207 C 747.714 433.958 753.162 434.056 753.69 441.022 C 754.004 445.176 761.52 443.507 763.954 443.695 C 741.042 464.465 727.995 484.747 726.739 516.541 C 725.914 537.434 726.094 558.619 726.098 579.54 C 726.296 638.774 728.103 697.992 731.518 757.128 C 731.673 759.35 731.739 761.235 731.786 763.452 C 731.614 777.885 734.101 796.959 735.675 811.603 C 738.231 836.16 741.097 860.684 744.272 885.169 C 752.491 948.099 761.297 1007.39 773.161 1069.72 C 784.293 1128.2 794.7 1183.77 810.117 1241.65 C 818.843 1274.62 828.077 1307.45 837.815 1340.14 C 845.108 1364.01 854.32 1388.55 859.437 1412.88 C 864.234 1435.69 853.281 1463.94 837.306 1480.38 C 829.155 1488.77 811.556 1497.1 799.912 1499.66 z" fill="rgb(249,249,231)" transform="translate(0,0)"></path>
<path d="M 1421.91 634.009 C 1424.33 629.028 1426.68 624.024 1429.1 619.071 C 1429.01 630.25 1427.71 650.06 1426.36 661.387 C 1425.31 658.09 1423.81 655.708 1425.28 652.485 C 1425.54 651.903 1425.69 650.465 1425.41 649.793 L 1425.66 648.973 L 1425.64 648.978 C 1424.13 654.893 1419.53 666.425 1414.33 669.999 C 1418.05 660.229 1422.9 657.336 1424.36 643.549 C 1423.8 638.155 1424.39 638.551 1421.91 634.009 z" fill="rgb(243,224,171)" transform="translate(0,0)"></path>
<path d="M 731.518 757.128 L 734.906 757.566 C 733.729 760.655 733.676 760.726 731.786 763.452 C 731.739 761.235 731.673 759.35 731.518 757.128 z" fill="rgb(225,163,42)" transform="translate(0,0)"></path>
<path d="M 1424.36 643.549 C 1422.9 657.336 1418.05 660.229 1414.33 669.999 C 1409.71 669.344 1406.52 667.242 1404.34 662.968 C 1403.34 661 1406.39 657.454 1406.75 654.564 C 1407.45 653.357 1414.25 644.61 1415.26 643.877 C 1419.7 647.082 1420.55 647.289 1424.36 643.549 z" fill="rgb(243,224,171)" fill-opacity="0.870588" transform="translate(0,0)"></path>
<path d="M 743.287 425.822 C 747.74 425.753 755.562 425.486 759.65 425.976 C 762.437 441.958 765.715 435.985 777.299 434.691 C 775.549 436.026 765.639 442.866 763.954 443.695 C 761.52 443.507 754.004 445.176 753.69 441.022 C 753.162 434.056 747.714 433.958 742.894 431.207 C 739.089 429.035 741.158 427.549 743.287 425.822 z" fill="rgb(249,249,231)" fill-opacity="0.647059" transform="translate(0,0)"></path>
<path d="M 1421.91 634.009 C 1424.39 638.551 1423.8 638.155 1424.36 643.549 C 1420.55 647.289 1419.7 647.082 1415.26 643.877 C 1417.46 640.566 1419.73 637.324 1421.91 634.009 z" fill="rgb(243,224,171)" fill-opacity="0.564706" transform="translate(0,0)"></path>
<path d="M 785.375 426.252 C 787.661 426.007 795.657 425.407 797.462 426.321 L 797.57 426.484 C 796.525 427.937 790.795 429.078 788.703 429.004 L 785.375 426.252 z" fill="rgb(241,231,180)" transform="translate(0,0)"></path>
<metadata><recraft-signature>{"signed_by": "recraft", "signature_b64": "kELqh5kVZXoKGJ/iwBJR/WgRVZyk9L71DalGdDsQ/QykrA3W4+Sd4CdKl4ixP8335Puh8L3qJ1sm4xNNGXq7Aw==", "signing_algo": "Ed25519", "generation_timestamp": 1781914839, "identifier": "5d607a3c-3ee8-47db-82f1-c9487bbc8309"}</recraft-signature></metadata></svg>