<svg xmlns="http://www.w3.org/2000/svg" height="1024" preserveAspectRatio="none" style="display: block;" version="1.1" viewBox="0 0 2048 2048" width="1024">
<defs>
	<linearGradient gradientUnits="userSpaceOnUse" id="Gradient1" x1="1087.13" x2="1092.04" y1="438.199" y2="435.056">
		<stop class="stop0" offset="0" stop-color="rgb(232,222,197)" stop-opacity="0.662745"></stop>
		<stop class="stop1" offset="1" stop-color="rgb(232,222,198)" stop-opacity="0.694118"></stop>
	</linearGradient>
	<linearGradient gradientUnits="userSpaceOnUse" id="Gradient2" x1="993.744" x2="960.385" y1="1196.51" y2="1020.17">
		<stop class="stop0" offset="0" stop-color="rgb(230,219,194)" stop-opacity="0.960784"></stop>
		<stop class="stop1" offset="1" stop-color="rgb(232,222,198)" stop-opacity="1"></stop>
	</linearGradient>
</defs>
<path d="M 960.646 415.823 C 984.9 389.112 1012.37 361.977 1037.44 335.787 C 1065.56 306.419 1087.28 271.115 1131.09 268.928 C 1144.11 268.206 1157.09 270.721 1168.9 276.248 C 1184.07 283.417 1200.2 298.907 1214.89 308.915 C 1249.35 332.401 1276.37 346.573 1307.87 374.454 C 1342.05 404.703 1406.3 495.145 1443.43 512.922 C 1505.47 535.629 1512.47 561.459 1509.27 623.142 C 1506.76 671.735 1527.33 742.138 1548.21 785.871 C 1633.24 963.893 1743.93 1175.17 1665.97 1374.81 C 1653.36 1407.12 1667.14 1434.16 1663.07 1466.79 C 1652.3 1561.55 1530.13 1579.1 1455.76 1555.95 C 1442.19 1551.72 1404.96 1552.98 1391.34 1555.71 C 1325.38 1568.93 1259.23 1597.29 1195.27 1618.83 C 1026.21 1675.78 878.749 1634.87 725.444 1556.37 C 681.037 1622.41 603.824 1669.94 526.031 1684.91 C 485.226 1692.76 442.938 1688.94 401.63 1689.31 C 394.955 1689.37 388.074 1689.49 381.476 1688.45 C 339.528 1681.1 335.19 1642.89 336.202 1608.46 C 334.949 1551.38 336.016 1490.43 335.902 1433.05 L 335.833 1064.98 C 335.897 1034.09 341.872 1010.89 364.345 987.679 C 379.302 972.029 399.397 965.025 417.679 955.031 C 495.135 912.689 587.47 893.441 674.049 916.798 C 722.557 929.884 782.879 967.318 819.015 1003.67 C 824.154 1009.09 834.027 1018.18 838.086 1022.87 C 840.666 1026.71 841.646 1028.15 844.855 1031.44 C 798.204 1070.19 757.058 1133.15 727.961 1185.74 C 723.863 1193.15 715.513 1208.88 714.862 1216.81 C 714.126 1218.55 713.46 1219.95 712.635 1221.66 C 716.022 1224.05 742.335 1194.25 748.341 1189.89 C 753.375 1186.49 756.441 1183.19 761.064 1179.66 C 764.487 1177.03 767.851 1174.33 771.156 1171.55 C 771.824 1170.97 772.492 1170.4 773.16 1169.83 C 890.508 1077.84 1048.11 1041.12 1170.39 1145.5 C 1180.98 1154.55 1190.49 1163.76 1200.71 1173.12 L 1203.64 1176.54 L 1204.19 1177.8 C 1210.69 1175.32 1208.45 1172.97 1208.49 1165.57 C 1203.07 1143.27 1202.85 1121.91 1203.93 1099.25 C 1206.51 1084.29 1209.04 1072.39 1213.36 1057.85 L 1227.89 1073.2 C 1235.77 1025.16 1247.05 995.724 1263.42 950.613 C 1278.08 910.219 1286.01 859.049 1290.92 816.449 C 1295.57 776.045 1278.41 720.396 1251.91 689.173 C 1221.53 695.897 1182.07 704.434 1152.53 691.062 C 1117.45 675.178 1085.14 663.589 1045.74 666.493 C 1019.49 668.428 992.379 675.951 969.703 657.927 C 942.805 636.546 934.155 596.266 956.825 568.551 C 970.283 552.084 980.013 550.127 1000.06 547.802 C 971.091 527.135 939.765 502.574 939.638 463.204 C 939.58 445.269 948.007 428.326 960.646 415.823 z M 1293.31 423.133 L 1295.33 418.712 C 1293.89 416.64 1292.53 414.577 1290.87 412.672 C 1276.2 387.635 1227.85 364.078 1204.59 345.361 C 1195.83 338.316 1185.67 331.653 1176.58 324.374 C 1166.19 316.049 1153.2 303.424 1139.71 301.541 C 1114.68 299.492 1102.21 315.587 1086.18 331.694 C 1083.23 334.316 1083.52 334.595 1081.34 337.572 C 1053.82 361.132 1028.53 389.961 1002.35 415.172 C 994.919 422.33 979.69 434.189 974.532 441.262 C 961.815 458.701 978.57 472.994 997.009 469.787 C 993.562 475.469 990.456 484.745 988.036 491.228 C 981.977 488.115 976.593 483.835 972.193 478.635 C 961.263 465.967 956.729 448.191 957.744 431.744 C 958.07 426.467 960.559 422.03 960.646 415.823 C 948.007 428.326 939.58 445.269 939.638 463.204 C 939.765 502.574 971.091 527.135 1000.06 547.802 C 980.013 550.127 970.283 552.084 956.825 568.551 C 934.155 596.266 942.805 636.546 969.703 657.927 C 992.379 675.951 1019.49 668.428 1045.74 666.493 C 1085.14 663.589 1117.45 675.178 1152.53 691.062 C 1182.07 704.434 1221.53 695.897 1251.91 689.173 C 1278.41 720.396 1295.57 776.045 1290.92 816.449 C 1286.01 859.049 1278.08 910.219 1263.42 950.613 C 1247.05 995.724 1235.77 1025.16 1227.89 1073.2 L 1213.36 1057.85 C 1209.04 1072.39 1206.51 1084.29 1203.93 1099.25 C 1202.85 1121.91 1203.07 1143.27 1208.49 1165.57 C 1208.45 1172.97 1210.69 1175.32 1204.19 1177.8 C 1207.59 1180.83 1211.82 1187.59 1215.34 1188.77 C 1221.43 1201.79 1228.47 1217.09 1236.58 1228.91 C 1265.63 1271.25 1309.05 1307.41 1357.6 1324.75 C 1384.79 1334.46 1405.64 1337.26 1433.77 1338.26 C 1431.02 1337.09 1427.11 1335.56 1424.52 1334.26 C 1424.33 1333.97 1397.56 1315.03 1396.99 1314.83 C 1390.8 1309.07 1383.78 1301.86 1378.61 1295.22 C 1377.51 1292.86 1375.78 1290.82 1374.25 1288.63 C 1371.8 1287.28 1368.22 1285.34 1365.69 1284.02 C 1363.02 1286.46 1363.18 1296.05 1361.29 1295.41 C 1351.87 1292.24 1353.45 1292.49 1359.42 1286.27 C 1359.95 1285.71 1358.01 1285.48 1357.99 1285.48 C 1344.15 1285.34 1354.18 1295.11 1354.74 1296.58 C 1353.86 1295.91 1353 1295.23 1352.14 1294.53 C 1265.04 1223.89 1257.83 1128.36 1285.23 1027.03 C 1289.84 1010 1296.4 993.404 1301.78 976.594 C 1320.72 917.386 1339.72 851.358 1332.95 788.547 C 1345.71 800.192 1339.42 790.347 1346.42 790.703 C 1346.36 790.652 1348.28 799.976 1354.04 788.487 C 1357.7 781.199 1351.8 770.353 1350.74 760.803 C 1349.93 757.338 1345.56 749.851 1343.61 746.929 C 1343.13 745.565 1342.97 745.293 1342.25 744.019 C 1341.31 742.697 1340.39 741.364 1339.48 740.019 C 1338.64 738.599 1338.34 738.172 1337.34 736.83 C 1329.04 724.404 1320.6 714.044 1309.31 704.213 C 1307.63 702.62 1306.28 701.821 1304.34 700.571 C 1302.29 699.143 1302.15 699.324 1301.32 697.03 C 1305.3 694.143 1322.55 690.524 1328.16 688.109 C 1358.2 675.179 1386.12 659.811 1403.77 631.775 C 1368.51 644.872 1311.54 661.61 1277.85 637.832 C 1243.12 613.32 1221.95 567.056 1214.01 526.406 C 1222.64 519.291 1243.31 493.77 1227.2 485.687 C 1224.97 484.546 1222.37 484.344 1219.99 485.127 C 1214.01 487.058 1201.47 507.4 1195.55 513.42 C 1183.47 526.629 1169.79 535.149 1153.84 542.835 C 1146.48 546.378 1134.16 551.558 1140.07 561.739 C 1141.66 564.539 1144.4 566.503 1147.56 567.116 C 1160.63 569.594 1180.78 555.391 1191.4 548.378 C 1186.13 570.191 1175.8 590.437 1151.81 595.563 C 1118.79 602.615 1076.52 581.034 1069.78 546.463 C 1064.23 517.995 1081.97 481.299 1096.24 457.59 C 1105.36 442.43 1117.66 427.586 1127.26 412.36 C 1130.73 409.62 1132.46 406.329 1132.83 402.067 C 1133.55 398.695 1142.04 390.648 1144.4 387.383 C 1149.26 380.644 1150.89 373.901 1159.08 370.475 C 1168.24 366.645 1174.78 371.54 1176.58 380.697 C 1178.15 388.605 1175.2 391.931 1170.99 397.986 C 1167.65 402.768 1151.42 427.591 1149.5 431.562 C 1147.09 434.708 1133.1 453.714 1131.7 456.363 C 1127.29 462.214 1122.78 467.855 1118.39 473.707 L 1112.37 481.658 C 1111.02 483.47 1108.17 486.641 1107.52 488.636 C 1101.41 495.651 1095.39 503.332 1089.21 510.169 C 1082.58 517.492 1077.24 521.787 1070.9 529.723 C 1097.04 539.779 1107.53 538.862 1127.17 518.25 C 1130.84 515.624 1136.71 508.03 1139.84 504.241 C 1142.25 502.538 1147.52 494.858 1149.58 492.172 C 1152.65 489.848 1160.32 479.064 1162.88 475.311 C 1181.99 447.321 1194.99 419.893 1231.1 411.497 C 1253.05 406.395 1271.64 413.138 1290.08 424.703 C 1291.9 424.15 1291.86 424.229 1293.31 423.133 z M 1051.94 478.541 C 1055.17 482.828 1058.53 488.149 1050.81 488.114 C 1047.43 483.961 1044.95 482.752 1051.94 478.541 z M 1083 447.31 C 1081.5 446.986 1080.37 445.745 1080.18 444.219 C 1080 442.693 1080.8 441.217 1082.18 440.543 L 1080.15 439.042 C 1084.25 438.935 1085.55 438.41 1088.36 435.368 C 1092.1 431.317 1097.69 435.782 1091.63 438.214 C 1089.36 439.125 1087.66 438.479 1087.54 442.033 C 1087.48 442.693 1087.42 443.353 1087.36 444.014 C 1087.3 445.061 1086.78 446.028 1085.94 446.661 C 1085.1 447.294 1084.03 447.531 1083 447.31 z M 398.297 1073.19 L 410.625 1063.99 L 410.296 1063.32 C 413.308 1056.75 411.731 1058.5 407.389 1054.68 L 405.908 1053.35 C 407.178 1049.45 403.496 1048.54 404.357 1045.42 C 405.571 1044.38 403.299 1027.19 403.892 1028.04 C 396.759 1017.84 412.74 1013.57 410.79 1008.47 C 406.651 1010.94 402.79 1013.81 398.859 1016.59 L 398.297 1073.19 z" fill="rgb(225,153,12)" transform="translate(0,0)"></path>
<path d="M 1086.18 331.694 C 1102.21 315.587 1114.68 299.492 1139.71 301.541 C 1153.2 303.424 1166.19 316.049 1176.58 324.374 C 1185.67 331.653 1195.83 338.316 1204.59 345.361 C 1227.85 364.078 1276.2 387.635 1290.87 412.672 C 1287.11 410.929 1283.22 408.568 1280.47 405.944 C 1278.37 403.934 1272.05 409.248 1278.5 413.478 L 1282.03 415.822 C 1286.76 419.017 1287.85 421.958 1293.31 423.133 C 1291.86 424.229 1291.9 424.15 1290.08 424.703 C 1271.64 413.138 1253.05 406.395 1231.1 411.497 C 1194.99 419.893 1181.99 447.321 1162.88 475.311 C 1160.32 479.064 1152.65 489.848 1149.58 492.172 C 1144.27 490.429 1147.86 495.797 1143.45 494.005 C 1142.36 493.564 1138.1 492.181 1138.52 490.602 C 1138.67 489.23 1142.35 481.654 1143.2 481.322 C 1147.91 479.71 1144.88 468.836 1142.14 476.035 C 1140.64 479.985 1140.2 480.016 1137.64 483.555 C 1137.25 483.618 1133.58 480.853 1133.45 480.015 C 1133.13 477.877 1134.61 474.905 1135.25 472.88 C 1136.3 472.962 1144.32 476.159 1140.62 469.746 C 1136.74 465.464 1143.73 460.813 1146.48 456.133 C 1148.67 452.39 1157.64 439.433 1161.09 436.888 C 1168.42 431.466 1156.96 431.188 1168.03 424.02 C 1169.48 423.081 1169.96 417.388 1171.56 414.028 L 1172.31 412.589 C 1172.4 412.405 1172.49 412.221 1172.57 412.037 L 1173.32 410.603 C 1176.86 403.531 1176.71 403.482 1170.99 397.986 C 1175.2 391.931 1178.15 388.605 1176.58 380.697 C 1174.78 371.54 1168.24 366.645 1159.08 370.475 C 1150.89 373.901 1149.26 380.644 1144.4 387.383 C 1142.04 390.648 1133.55 398.695 1132.83 402.067 L 1129.33 403.72 C 1125.42 399.718 1127.73 401.556 1122.42 399.317 C 1109.47 393.863 1118.64 385.979 1113.43 380.626 L 1112.42 379.565 C 1113.72 376.317 1111.27 377.791 1109.62 378.78 L 1108.21 379.48 C 1118.13 366.192 1124 348.496 1100.66 347.167 C 1100.47 347.085 1099.64 346.904 1099.48 346.508 C 1099.27 345.972 1099.74 345.065 1100.03 344.639 C 1100.39 344.099 1100.8 343.591 1101.14 343.041 C 1101.97 341.726 1102.29 340.018 1101.76 338.524 C 1101.55 337.903 1100.56 337.529 1100.02 337.328 C 1095.97 335.834 1095.57 334.58 1092.48 331.828 C 1091.7 331.134 1091.06 331.157 1090.07 331.304 C 1089.39 331.403 1088.72 331.554 1088.04 331.597 C 1087.42 331.636 1086.8 331.661 1086.18 331.694 z" fill="rgb(231,221,197)" fill-opacity="0.976471" transform="translate(0,0)"></path>
<path d="M 1024.58 414.164 C 1025.08 413.238 1026.18 411.701 1026.43 410.603 C 1026.47 410.439 1026.29 410.119 1026.12 410.096 C 1023.08 409.681 1019.55 416.088 1017.58 416.508 C 1017.31 416.416 1017.41 416.502 1017.27 416.247 C 1017.28 415.429 1025.84 406.109 1026.39 404.39 C 1026.03 405.494 1044.32 385.515 1040.92 395.538 C 1040.84 395.791 1041.46 399.409 1041.55 399.693 L 1041.32 399.699 L 1041.39 399.723 C 1042.75 399.318 1042.97 396.601 1044.22 395.293 C 1044.77 395.123 1044.54 395.08 1044.94 395.283 C 1045.66 397.89 1041.12 404.027 1040.04 406.889 C 1034.64 407.709 1031.34 412.142 1024.58 414.164 z" fill="rgb(231,221,197)" fill-opacity="0.121569" transform="translate(0,0)"></path>
<path d="M 1040.04 406.889 C 1041.37 411.335 1036.02 408.422 1033.66 412.207 C 1034.02 411.635 1027.12 417.407 1027.53 417.185 C 1027.28 416.628 1027.07 416.179 1026.79 415.502 C 1023.75 417.35 1019.67 422.109 1017.32 422.063 L 1017.22 422.463 C 1017.24 419.786 1022.64 415.803 1024.58 414.164 C 1031.34 412.142 1034.64 407.709 1040.04 406.889 z" fill="rgb(231,221,197)" fill-opacity="0.0352941" transform="translate(0,0)"></path>
<path d="M 1100.66 389.626 C 1103.29 393.335 1103.36 393.526 1103.65 397.892 C 1099.51 404.483 1097.6 409.476 1102.13 416.531 C 1105.9 422.415 1099.12 424.571 1100.8 430.575 C 1101.19 431.959 1102.69 434.601 1103.33 436.306 C 1098.08 442.688 1092.79 449.325 1087.12 455.312 C 1086 453.046 1085.66 451.87 1084.88 449.459 C 1084.03 448.236 1084.11 448.313 1083 447.31 C 1084.03 447.531 1085.1 447.294 1085.94 446.661 C 1086.78 446.028 1087.3 445.061 1087.36 444.014 C 1087.42 443.353 1087.48 442.693 1087.54 442.033 C 1087.66 438.479 1089.36 439.125 1091.63 438.214 C 1097.69 435.782 1092.1 431.317 1088.36 435.368 C 1085.55 438.41 1084.25 438.935 1080.15 439.042 C 1078.93 442.974 1074.27 452.703 1074.46 455.502 C 1074.78 460.095 1067.11 464.328 1070.07 466.846 C 1070.09 466.832 1077.55 459.521 1078.2 458.693 C 1079.17 457.452 1084.53 457.167 1086.29 456.745 C 1074.92 471.28 1061.66 486.822 1053.63 503.193 C 1053.51 500.124 1053.49 497.051 1053.57 493.98 C 1053.66 490.594 1053.57 490.324 1050.81 488.114 C 1058.53 488.149 1055.17 482.828 1051.94 478.541 C 1044.95 482.752 1047.43 483.961 1050.81 488.114 C 1042.82 489.022 1048.63 481.332 1044.91 482.242 C 1043.87 483.717 1045.68 488.31 1043.57 491.338 C 1040.19 487.391 1042.18 487.575 1036.09 487.096 C 1034.33 485.898 1035.09 486.703 1034.48 483.953 C 1039.05 469.144 1050.92 475.484 1058.54 468.806 C 1070.82 458.046 1071.79 437.358 1088.74 429.956 C 1092.96 428.111 1095.79 410.672 1096.26 406.086 C 1096.58 402.922 1094.88 401.28 1092.73 399.175 C 1094.47 396.505 1098.44 392.203 1100.66 389.626 z M 1061.15 486.019 C 1062.43 485.113 1062.9 483.44 1062.28 482.002 C 1061.67 480.563 1060.13 479.749 1058.6 480.045 C 1057.26 480.303 1056.22 481.346 1055.96 482.68 C 1055.7 484.013 1056.28 485.37 1057.43 486.105 C 1058.57 486.84 1060.04 486.806 1061.15 486.019 z" fill="rgb(231,221,197)" fill-opacity="0.627451" transform="translate(0,0)"></path>
<path d="M 1058.6 480.045 C 1060.13 479.749 1061.67 480.563 1062.28 482.002 C 1062.9 483.44 1062.43 485.113 1061.15 486.019 C 1060.04 486.806 1058.57 486.84 1057.43 486.105 C 1056.28 485.37 1055.7 484.013 1055.96 482.68 C 1056.22 481.346 1057.26 480.303 1058.6 480.045 z" fill="rgb(231,221,197)" fill-opacity="0.588235" transform="translate(0,0)"></path>
<path d="M 1131.7 456.363 C 1137.26 471.95 1124.12 473.989 1120.83 488.005 C 1119.03 495.694 1114.53 502.276 1121.12 508.927 L 1121.43 508.985 C 1123.45 505.724 1125.52 508.443 1128.69 504.448 C 1130.65 503.646 1128.89 501.006 1129.08 499.661 L 1129.26 499.536 C 1131.29 500.044 1131.61 504.093 1135.59 501.673 C 1137.38 500.58 1138.99 503.038 1139.84 504.241 C 1136.71 508.03 1130.84 515.624 1127.17 518.25 C 1119.77 516.322 1119.06 522.07 1111.94 517.68 C 1107.53 514.954 1099.85 521.235 1099.21 518.009 C 1099.22 513.312 1104.7 509.803 1104.75 504.564 C 1104.8 497.669 1112.98 493.662 1107.52 488.636 C 1108.17 486.641 1111.02 483.47 1112.37 481.658 L 1118.39 473.707 C 1122.78 467.855 1127.29 462.214 1131.7 456.363 z" fill="rgb(231,221,197)" fill-opacity="0.235294" transform="translate(0,0)"></path>
<path d="M 1092.73 399.175 C 1094.88 401.28 1096.58 402.922 1096.26 406.086 C 1095.79 410.672 1092.96 428.111 1088.74 429.956 C 1071.79 437.358 1070.82 458.046 1058.54 468.806 C 1050.92 475.484 1039.05 469.144 1034.48 483.953 C 1035.09 486.703 1034.33 485.898 1036.09 487.096 L 1037.13 488.361 C 1043.18 495.654 1042.06 502.768 1051.48 508.071 L 1050.66 511.765 C 1048.03 509.101 1041.4 503.643 1040.32 500.955 C 1036.54 491.558 1029.51 501.621 1027.7 500.467 C 1023.72 497.923 1027.53 490.283 1028.41 487.7 C 1030.77 480.788 1039.25 473.574 1040.66 468.894 C 1045.2 465.486 1053.42 461.889 1057.36 457.427 C 1062.33 451.151 1068.32 444.824 1073.26 438.521 C 1077.9 432.599 1096.31 414.597 1084.47 408.913 L 1092.73 399.175 z" fill="rgb(231,221,197)" fill-opacity="0.458824" transform="translate(0,0)"></path>
<path d="M 1149.5 431.562 C 1152.08 434.936 1150.19 444.044 1146.31 446.331 C 1144.2 447.574 1142.86 455.485 1140.38 457.36 C 1137.06 460.827 1136.18 468.189 1135.25 472.88 C 1134.61 474.905 1133.13 477.877 1133.45 480.015 C 1133.58 480.853 1137.25 483.618 1137.64 483.555 C 1140.2 480.016 1140.64 479.985 1142.14 476.035 C 1144.88 468.836 1147.91 479.71 1143.2 481.322 C 1142.35 481.654 1138.67 489.23 1138.52 490.602 C 1138.1 492.181 1142.36 493.564 1143.45 494.005 C 1147.86 495.797 1144.27 490.429 1149.58 492.172 C 1147.52 494.858 1142.25 502.538 1139.84 504.241 C 1138.99 503.038 1137.38 500.58 1135.59 501.673 C 1131.61 504.093 1131.29 500.044 1129.26 499.536 L 1129.08 499.661 C 1128.89 501.006 1130.65 503.646 1128.69 504.448 C 1125.52 508.443 1123.45 505.724 1121.43 508.985 L 1121.12 508.927 C 1114.53 502.276 1119.03 495.694 1120.83 488.005 C 1124.12 473.989 1137.26 471.95 1131.7 456.363 C 1133.1 453.714 1147.09 434.708 1149.5 431.562 z" fill="rgb(231,221,197)" fill-opacity="0.521569" transform="translate(0,0)"></path>
<path d="M 1084.47 408.913 C 1096.31 414.597 1077.9 432.599 1073.26 438.521 C 1068.32 444.824 1062.33 451.151 1057.36 457.427 C 1053.42 461.889 1045.2 465.486 1040.66 468.894 C 1039.94 465.219 1040.49 463.398 1038.77 460.097 C 1051.38 448.046 1074.18 422.988 1084.47 408.913 z" fill="rgb(235,221,188)" fill-opacity="0.113725" transform="translate(0,0)"></path>
<path d="M 1149.5 431.562 C 1151.42 427.591 1167.65 402.768 1170.99 397.986 C 1176.71 403.482 1176.86 403.531 1173.32 410.603 L 1172.57 412.037 C 1172.49 412.221 1172.4 412.405 1172.31 412.589 L 1171.56 414.028 C 1169.96 417.388 1169.48 423.081 1168.03 424.02 C 1156.96 431.188 1168.42 431.466 1161.09 436.888 C 1157.64 439.433 1148.67 452.39 1146.48 456.133 C 1143.73 460.813 1136.74 465.464 1140.62 469.746 C 1144.32 476.159 1136.3 472.962 1135.25 472.88 C 1136.18 468.189 1137.06 460.827 1140.38 457.36 C 1142.86 455.485 1144.2 447.574 1146.31 446.331 C 1150.19 444.044 1152.08 434.936 1149.5 431.562 z" fill="rgb(231,221,197)" fill-opacity="0.780392" transform="translate(0,0)"></path>
<path d="M 1343.61 746.929 C 1345.56 749.851 1349.93 757.338 1350.74 760.803 C 1351.8 770.353 1357.7 781.199 1354.04 788.487 C 1348.28 799.976 1346.36 790.652 1346.42 790.703 C 1339.42 790.347 1345.71 800.192 1332.95 788.547 C 1332.57 785.947 1332.32 784.24 1332.2 781.623 C 1334.4 781.332 1342.2 763.811 1344.02 760.959 L 1344.51 760.176 C 1343.85 754.184 1343.45 752.983 1343.61 746.929 z" fill="rgb(231,221,197)" fill-opacity="0.682353" transform="translate(0,0)"></path>
<path d="M 1354.74 1296.58 C 1354.18 1295.11 1344.15 1285.34 1357.99 1285.48 C 1358.01 1285.48 1359.95 1285.71 1359.42 1286.27 C 1353.45 1292.49 1351.87 1292.24 1361.29 1295.41 C 1363.18 1296.05 1363.02 1286.46 1365.69 1284.02 C 1368.22 1285.34 1371.8 1287.28 1374.25 1288.63 C 1375.78 1290.82 1377.51 1292.86 1378.61 1295.22 C 1373.06 1296.34 1377.36 1305.67 1377.88 1309.24 L 1369.97 1307.53 C 1366.72 1306.19 1357.72 1299.12 1354.74 1296.58 z" fill="rgb(231,221,197)" fill-opacity="0.658824" transform="translate(0,0)"></path>
<path d="M 1021.59 480.377 C 1024.04 474.938 1027.51 470.946 1031.63 466.769 C 1036.18 470.479 1034.24 470.462 1040.66 468.894 C 1039.25 473.574 1030.77 480.788 1028.41 487.7 C 1027.53 490.283 1023.72 497.923 1027.7 500.467 C 1029.51 501.621 1036.54 491.558 1040.32 500.955 C 1041.4 503.643 1048.03 509.101 1050.66 511.765 L 1049.47 513.688 L 1048.07 511.082 C 1029.34 499.582 1025.86 513.043 1023.45 488.499 C 1023.38 487.821 1021.87 480.949 1021.59 480.377 z" fill="rgb(231,221,197)" fill-opacity="0.239216" transform="translate(0,0)"></path>
<path d="M 410.79 1008.47 C 412.74 1013.57 396.759 1017.84 403.892 1028.04 C 403.299 1027.19 405.571 1044.38 404.357 1045.42 C 403.496 1048.54 407.178 1049.45 405.908 1053.35 C 398.617 1059.46 397.455 1068.28 410.296 1063.32 L 410.625 1063.99 L 398.297 1073.19 L 398.859 1016.59 C 402.79 1013.81 406.651 1010.94 410.79 1008.47 z" fill="rgb(231,221,197)" fill-opacity="0.984314" transform="translate(0,0)"></path>
<path d="M 1337.34 736.83 C 1338.34 738.172 1338.64 738.599 1339.48 740.019 C 1340.26 748.256 1340.69 754.743 1336.7 762.424 C 1336.07 763.646 1331.77 769.412 1330.34 769.705 C 1329.39 765.277 1328.48 761.179 1327.25 756.807 C 1328.63 753.785 1331.01 753.046 1331.54 750.85 C 1333.12 744.337 1327.24 748.542 1325.32 750.455 L 1323.82 746.161 C 1329.19 738.977 1329.48 741.754 1337.34 736.83 z" fill="rgb(231,221,197)" fill-opacity="0.345098" transform="translate(0,0)"></path>
<path d="M 1086.18 331.694 C 1086.8 331.661 1087.42 331.636 1088.04 331.597 C 1088.72 331.554 1089.39 331.403 1090.07 331.304 C 1091.06 331.157 1091.7 331.134 1092.48 331.828 C 1095.57 334.58 1095.97 335.834 1100.02 337.328 C 1100.56 337.529 1101.55 337.903 1101.76 338.524 C 1102.29 340.018 1101.97 341.726 1101.14 343.041 C 1100.8 343.591 1100.39 344.099 1100.03 344.639 C 1099.74 345.065 1099.27 345.972 1099.48 346.508 C 1099.64 346.904 1100.47 347.085 1100.66 347.167 C 1095.42 350.661 1094.83 349.544 1088.26 355.108 C 1082.88 344.13 1091.53 342.584 1081.34 337.572 C 1083.52 334.595 1083.23 334.316 1086.18 331.694 z" fill="rgb(231,221,197)" fill-opacity="0.886275" transform="translate(0,0)"></path>
<path d="M 1101.19 388.659 C 1100.42 388.025 1105.28 392.023 1104.43 390.887 C 1106.96 394.285 1104.02 400.129 1106.95 405.213 C 1108.78 405.963 1108.02 404.677 1110.54 406.259 C 1128.33 413.244 1111.04 416.363 1110.09 427.785 C 1108.99 429.51 1107.41 431.354 1106.13 433.045 C 1105.36 433.837 1104.59 434.63 1103.83 435.422 C 1104.15 428.547 1109.14 425.331 1107.47 422.401 C 1100.27 409.826 1103.3 409.869 1103.65 397.892 C 1103.36 393.526 1103.29 393.335 1100.66 389.626 L 1101.19 388.659 z" fill="rgb(231,221,197)" fill-opacity="0.752941" transform="translate(0,0)"></path>
<path d="M 1024.6 503.883 C 1032.74 515.986 1032.57 510.383 1048.07 511.082 L 1049.47 513.688 C 1048.23 516.913 1047.42 519.918 1046.02 523.13 C 1039.1 522.47 1029.3 521.656 1024.68 515.747 C 1026.1 512.711 1024.52 508.051 1024.6 503.883 z" fill="rgb(231,221,197)" fill-opacity="0.0196078" transform="translate(0,0)"></path>
<path d="M 1369.97 1307.53 L 1377.88 1309.24 C 1382.78 1311.64 1389.83 1316.55 1395.33 1317.34 C 1395.71 1317.39 1396.86 1315.06 1396.99 1314.83 C 1397.56 1315.03 1424.33 1333.97 1424.52 1334.26 C 1410.86 1330.43 1380.76 1316.74 1369.97 1307.53 z" fill="rgb(235,221,188)" fill-opacity="0.972549" transform="translate(0,0)"></path>
<path d="M 1108.21 379.48 L 1109.62 378.78 C 1111.27 377.791 1113.72 376.317 1112.42 379.565 C 1112.54 383.133 1112.56 385.552 1112.56 390.522 C 1112.56 397.625 1108.03 395.006 1113.2 403.532 C 1115.42 407.206 1132.3 395.418 1123.07 409.067 C 1120.37 413.049 1120.52 411.831 1120.22 416.01 C 1116.97 420.041 1113.59 423.969 1110.09 427.785 C 1111.04 416.363 1128.33 413.244 1110.54 406.259 C 1101.25 388.309 1115.75 395.363 1107.01 381.21 L 1108.21 379.48 z" fill="rgb(231,221,197)" fill-opacity="0.839216" transform="translate(0,0)"></path>
<path d="M 1036.09 487.096 C 1042.18 487.575 1040.19 487.391 1043.57 491.338 C 1045.68 488.31 1043.87 483.717 1044.91 482.242 C 1048.63 481.332 1042.82 489.022 1050.81 488.114 C 1053.57 490.324 1053.66 490.594 1053.57 493.98 C 1053.49 497.051 1053.51 500.124 1053.63 503.193 C 1053 504.883 1052.34 506.485 1051.48 508.071 C 1042.06 502.768 1043.18 495.654 1037.13 488.361 L 1036.09 487.096 z" fill="rgb(231,221,197)" fill-opacity="0.611765" transform="translate(0,0)"></path>
<path d="M 1377.88 1309.24 C 1377.36 1305.67 1373.06 1296.34 1378.61 1295.22 C 1383.78 1301.86 1390.8 1309.07 1396.99 1314.83 C 1396.86 1315.06 1395.71 1317.39 1395.33 1317.34 C 1389.83 1316.55 1382.78 1311.64 1377.88 1309.24 z" fill="rgb(235,219,187)" fill-opacity="0.301961" transform="translate(0,0)"></path>
<path d="M 1112.42 379.565 L 1113.43 380.626 C 1118.64 385.979 1109.47 393.863 1122.42 399.317 C 1127.73 401.556 1125.42 399.718 1129.33 403.72 C 1127.91 408.424 1123.7 412.155 1120.22 416.01 C 1120.52 411.831 1120.37 413.049 1123.07 409.067 C 1132.3 395.418 1115.42 407.206 1113.2 403.532 C 1108.03 395.006 1112.56 397.625 1112.56 390.522 C 1112.56 385.552 1112.54 383.133 1112.42 379.565 z" fill="rgb(231,221,197)" fill-opacity="0.894118" transform="translate(0,0)"></path>
<path d="M 1021.59 480.377 C 1021.87 480.949 1023.38 487.821 1023.45 488.499 C 1025.86 513.043 1029.34 499.582 1048.07 511.082 C 1032.57 510.383 1032.74 515.986 1024.6 503.883 C 1023.98 495.562 1020.37 495.668 1017.94 487.592 C 1019.21 485.301 1020.31 482.75 1021.59 480.377 z" fill="rgb(231,221,197)" fill-opacity="0.105882" transform="translate(0,0)"></path>
<path d="M 1293.31 423.133 C 1287.85 421.958 1286.76 419.017 1282.03 415.822 L 1278.5 413.478 C 1272.05 409.248 1278.37 403.934 1280.47 405.944 C 1283.22 408.568 1287.11 410.929 1290.87 412.672 C 1292.53 414.577 1293.89 416.64 1295.33 418.712 L 1293.31 423.133 z" fill="rgb(231,221,197)" fill-opacity="0.466667" transform="translate(0,0)"></path>
<path d="M 1080.15 439.042 L 1082.18 440.543 C 1080.8 441.217 1080 442.693 1080.18 444.219 C 1080.37 445.745 1081.5 446.986 1083 447.31 C 1084.11 448.313 1084.03 448.236 1084.88 449.459 C 1078.92 450.357 1081.29 456.249 1086.74 455.968 L 1086.29 456.745 C 1084.53 457.167 1079.17 457.452 1078.2 458.693 C 1077.55 459.521 1070.09 466.832 1070.07 466.846 C 1067.11 464.328 1074.78 460.095 1074.46 455.502 C 1074.27 452.703 1078.93 442.974 1080.15 439.042 z" fill="rgb(231,221,197)" fill-opacity="0.654902" transform="translate(0,0)"></path>
<path d="M 1103.65 397.892 C 1103.3 409.869 1100.27 409.826 1107.47 422.401 C 1109.14 425.331 1104.15 428.547 1103.83 435.422 L 1103.33 436.306 C 1102.69 434.601 1101.19 431.959 1100.8 430.575 C 1099.12 424.571 1105.9 422.415 1102.13 416.531 C 1097.6 409.476 1099.51 404.483 1103.65 397.892 z" fill="rgb(231,221,197)" fill-opacity="0.72549" transform="translate(0,0)"></path>
<path d="M 1339.48 740.019 C 1340.39 741.364 1341.31 742.697 1342.25 744.019 C 1342.51 759.527 1340.88 760.917 1333.56 774.715 C 1333.2 775.386 1333.02 776.14 1332.32 776.546 C 1331.84 776.447 1332.16 776.557 1331.27 776.043 C 1330.81 773.612 1330.53 772.195 1330.34 769.705 C 1331.77 769.412 1336.07 763.646 1336.7 762.424 C 1340.69 754.743 1340.26 748.256 1339.48 740.019 z" fill="rgb(231,221,197)" fill-opacity="0.501961" transform="translate(0,0)"></path>
<path d="M 1342.25 744.019 C 1342.97 745.293 1343.13 745.565 1343.61 746.929 C 1343.45 752.983 1343.85 754.184 1344.51 760.176 L 1344.02 760.959 C 1342.2 763.811 1334.4 781.332 1332.2 781.623 C 1331.69 779.272 1331.51 778.432 1331.27 776.043 C 1332.16 776.557 1331.84 776.447 1332.32 776.546 C 1333.02 776.14 1333.2 775.386 1333.56 774.715 C 1340.88 760.917 1342.51 759.527 1342.25 744.019 z" fill="rgb(231,221,197)" fill-opacity="0.635294" transform="translate(0,0)"></path>
<path d="M 410.296 1063.32 C 397.455 1068.28 398.617 1059.46 405.908 1053.35 L 407.389 1054.68 C 411.731 1058.5 413.308 1056.75 410.296 1063.32 z" fill="rgb(231,221,197)" fill-opacity="0.580392" transform="translate(0,0)"></path>
<path d="M 1107.01 381.21 C 1115.75 395.363 1101.25 388.309 1110.54 406.259 C 1108.02 404.677 1108.78 405.963 1106.95 405.213 C 1104.02 400.129 1106.96 394.285 1104.43 390.887 C 1105.28 392.023 1100.42 388.025 1101.19 388.659 C 1103.13 386.187 1105.03 383.623 1107.01 381.21 z" fill="rgb(231,221,197)" fill-opacity="0.772549" transform="translate(0,0)"></path>
<path d="M 1038.77 460.097 C 1040.49 463.398 1039.94 465.219 1040.66 468.894 C 1034.24 470.462 1036.18 470.479 1031.63 466.769 C 1034.1 464.415 1036.19 462.386 1038.77 460.097 z" fill="rgb(235,221,188)" fill-opacity="0.133333" transform="translate(0,0)"></path>
<path d="M 1325.32 750.455 C 1327.24 748.542 1333.12 744.337 1331.54 750.85 C 1331.01 753.046 1328.63 753.785 1327.25 756.807 C 1326.63 754.683 1325.99 752.565 1325.32 750.455 z" fill="rgb(231,221,197)" fill-opacity="0.415686" transform="translate(0,0)"></path>
<path d="M 1086.74 455.968 C 1081.29 456.249 1078.92 450.357 1084.88 449.459 C 1085.66 451.87 1086 453.046 1087.12 455.312 L 1086.74 455.968 z" fill="rgb(231,221,197)" fill-opacity="0.6" transform="translate(0,0)"></path>
<path d="M 1304.34 700.571 C 1306.28 701.821 1307.63 702.62 1309.31 704.213 L 1308.05 707.632 C 1306.54 705.043 1305.73 703.141 1304.34 700.571 z" fill="rgb(231,221,197)" fill-opacity="0.0313725" transform="translate(0,0)"></path>
<path d="M 1443.43 512.922 C 1505.47 535.629 1512.47 561.459 1509.27 623.142 C 1506.76 671.735 1527.33 742.138 1548.21 785.871 C 1633.24 963.893 1743.93 1175.17 1665.97 1374.81 C 1653.36 1407.12 1667.14 1434.16 1663.07 1466.79 C 1652.3 1561.55 1530.13 1579.1 1455.76 1555.95 C 1442.19 1551.72 1404.96 1552.98 1391.34 1555.71 C 1325.38 1568.93 1259.23 1597.29 1195.27 1618.83 C 1026.21 1675.78 878.749 1634.87 725.444 1556.37 C 681.037 1622.41 603.824 1669.94 526.031 1684.91 C 485.226 1692.76 442.938 1688.94 401.63 1689.31 C 394.955 1689.37 388.074 1689.49 381.476 1688.45 C 339.528 1681.1 335.19 1642.89 336.202 1608.46 C 336.601 1611.66 336.993 1614.26 337.558 1617.42 C 342.629 1618.47 353.745 1618.28 359.306 1618.37 C 405.625 1619.1 454.026 1607.69 494.895 1586.08 C 563.847 1549.61 623.501 1473.65 645.634 1398.93 C 676.944 1399.95 708.273 1400.24 739.596 1399.79 C 742.657 1405.69 745.979 1413.8 751.429 1417.31 C 767.673 1456.35 826.442 1497.11 864.014 1515.72 C 948.779 1557.12 1044.75 1569.69 1137.32 1551.51 C 1238.6 1531.96 1338.03 1475.54 1443.93 1488.18 C 1468.79 1493.73 1485.06 1499.31 1510.84 1499.1 C 1594.7 1498.4 1621.55 1462.27 1592.2 1381.34 C 1599.56 1364.98 1602.97 1352.22 1607.14 1335.25 C 1647.18 1172.69 1597.45 1023.57 1533.9 875.062 C 1512.59 825.25 1488.85 786.409 1476.61 732.209 C 1467.68 692.656 1462.95 665.086 1464 623.563 C 1463.32 599.572 1474.91 578.313 1469.19 554.474 C 1464.78 536.097 1451.93 527.547 1443.43 512.922 z" fill="rgb(172,105,5)" transform="translate(0,0)"></path>
<path d="M 1100.66 347.167 C 1124 348.496 1118.13 366.192 1108.21 379.48 L 1107.01 381.21 C 1105.03 383.623 1103.13 386.187 1101.19 388.659 L 1100.66 389.626 C 1098.44 392.203 1094.47 396.505 1092.73 399.175 L 1084.47 408.913 C 1074.18 422.988 1051.38 448.046 1038.77 460.097 C 1036.19 462.386 1034.1 464.415 1031.63 466.769 C 1027.51 470.946 1024.04 474.938 1021.59 480.377 C 1020.31 482.75 1019.21 485.301 1017.94 487.592 C 1016.09 494.333 1015.85 494.62 1016.19 501.552 C 1017.97 508.288 1019.44 511.267 1024.68 515.747 C 1029.3 521.656 1039.1 522.47 1046.02 523.13 C 1047.42 519.918 1048.23 516.913 1049.47 513.688 L 1050.66 511.765 L 1051.48 508.071 C 1052.34 506.485 1053 504.883 1053.63 503.193 C 1061.66 486.822 1074.92 471.28 1086.29 456.745 L 1086.74 455.968 L 1087.12 455.312 C 1092.79 449.325 1098.08 442.688 1103.33 436.306 L 1103.83 435.422 C 1104.59 434.63 1105.36 433.837 1106.13 433.045 C 1107.41 431.354 1108.99 429.51 1110.09 427.785 C 1113.59 423.969 1116.97 420.041 1120.22 416.01 C 1123.7 412.155 1127.91 408.424 1129.33 403.72 L 1132.83 402.067 C 1132.46 406.329 1130.73 409.62 1127.26 412.36 C 1117.66 427.586 1105.36 442.43 1096.24 457.59 C 1081.97 481.299 1064.23 517.995 1069.78 546.463 C 1076.52 581.034 1118.79 602.615 1151.81 595.563 C 1175.8 590.437 1186.13 570.191 1191.4 548.378 C 1180.78 555.391 1160.63 569.594 1147.56 567.116 C 1144.4 566.503 1141.66 564.539 1140.07 561.739 C 1134.16 551.558 1146.48 546.378 1153.84 542.835 C 1169.79 535.149 1183.47 526.629 1195.55 513.42 C 1201.47 507.4 1214.01 487.058 1219.99 485.127 C 1222.37 484.344 1224.97 484.546 1227.2 485.687 C 1243.31 493.77 1222.64 519.291 1214.01 526.406 C 1221.95 567.056 1243.12 613.32 1277.85 637.832 C 1311.54 661.61 1368.51 644.872 1403.77 631.775 C 1386.12 659.811 1358.2 675.179 1328.16 688.109 C 1322.55 690.524 1305.3 694.143 1301.32 697.03 C 1302.15 699.324 1302.29 699.143 1304.34 700.571 C 1305.73 703.141 1306.54 705.043 1308.05 707.632 C 1312.03 715.179 1321.59 737.874 1323.82 746.161 L 1325.32 750.455 C 1325.99 752.565 1326.63 754.683 1327.25 756.807 C 1328.48 761.179 1329.39 765.277 1330.34 769.705 C 1330.53 772.195 1330.81 773.612 1331.27 776.043 C 1331.51 778.432 1331.69 779.272 1332.2 781.623 C 1332.32 784.24 1332.57 785.947 1332.95 788.547 C 1339.72 851.358 1320.72 917.386 1301.78 976.594 C 1296.4 993.404 1289.84 1010 1285.23 1027.03 C 1257.83 1128.36 1265.04 1223.89 1352.14 1294.53 C 1353 1295.23 1353.86 1295.91 1354.74 1296.58 C 1357.72 1299.12 1366.72 1306.19 1369.97 1307.53 C 1380.76 1316.74 1410.86 1330.43 1424.52 1334.26 C 1427.11 1335.56 1431.02 1337.09 1433.77 1338.26 C 1405.64 1337.26 1384.79 1334.46 1357.6 1324.75 C 1309.05 1307.41 1265.63 1271.25 1236.58 1228.91 C 1228.47 1217.09 1221.43 1201.79 1215.34 1188.77 C 1211.82 1187.59 1207.59 1180.83 1204.19 1177.8 C 1210.69 1175.32 1208.45 1172.97 1208.49 1165.57 C 1203.07 1143.27 1202.85 1121.91 1203.93 1099.25 C 1206.51 1084.29 1209.04 1072.39 1213.36 1057.85 L 1227.89 1073.2 C 1235.77 1025.16 1247.05 995.724 1263.42 950.613 C 1278.08 910.219 1286.01 859.049 1290.92 816.449 C 1295.57 776.045 1278.41 720.396 1251.91 689.173 C 1221.53 695.897 1182.07 704.434 1152.53 691.062 C 1117.45 675.178 1085.14 663.589 1045.74 666.493 C 1019.49 668.428 992.379 675.951 969.703 657.927 C 942.805 636.546 934.155 596.266 956.825 568.551 C 970.283 552.084 980.013 550.127 1000.06 547.802 C 971.091 527.135 939.765 502.574 939.638 463.204 C 939.58 445.269 948.007 428.326 960.646 415.823 C 960.559 422.03 958.07 426.467 957.744 431.744 C 956.729 448.191 961.263 465.967 972.193 478.635 C 976.593 483.835 981.977 488.115 988.036 491.228 C 990.456 484.745 993.562 475.469 997.009 469.787 C 1010.45 444.781 1022.94 431.978 1041.4 410.52 C 1047.33 403.632 1055.8 392.666 1062.09 386.721 C 1065.18 382.325 1075.87 369.584 1079.65 365.962 C 1080.61 363.555 1086.41 357.155 1088.26 355.108 C 1094.83 349.544 1095.42 350.661 1100.66 347.167 z M 1035.3 576.884 C 1018.61 573.88 1012.06 569.496 995.175 578.796 L 994.67 579.427 C 993.202 580.976 992.097 582.082 990.519 583.55 L 990.184 585.024 C 987.294 592.775 983.521 608.71 990.561 615.16 C 997.199 610.461 997.529 605.715 1002.68 599.106 C 1004.14 598.15 1005.7 596.593 1007.03 595.4 C 1008.66 594.767 1008.53 594.845 1009.88 593.67 C 1016.01 591.062 1022.34 590.194 1029 590.136 L 1031.01 590.088 C 1032.77 586.818 1039.28 578.425 1035.3 576.884 z" fill="rgb(172,105,5)" transform="translate(0,0)"></path>
<path d="M 1100.66 347.167 C 1124 348.496 1118.13 366.192 1108.21 379.48 L 1107.01 381.21 C 1105.03 383.623 1103.13 386.187 1101.19 388.659 L 1100.66 389.626 C 1098.44 392.203 1094.47 396.505 1092.73 399.175 L 1084.47 408.913 C 1074.18 422.988 1051.38 448.046 1038.77 460.097 C 1036.19 462.386 1034.1 464.415 1031.63 466.769 C 1027.51 470.946 1024.04 474.938 1021.59 480.377 C 1020.31 482.75 1019.21 485.301 1017.94 487.592 C 1016.09 494.333 1015.85 494.62 1016.19 501.552 L 1013.24 504.246 C 1011.41 478.495 1021.49 461.185 1033.96 439.176 C 1046.78 416.543 1060.52 395.641 1075.6 374.467 C 1078.78 372.295 1079.59 369.547 1079.65 365.962 C 1080.61 363.555 1086.41 357.155 1088.26 355.108 C 1094.83 349.544 1095.42 350.661 1100.66 347.167 z" fill="rgb(225,153,12)" transform="translate(0,0)"></path>
<path d="M 1016.19 501.552 C 1017.97 508.288 1019.44 511.267 1024.68 515.747 C 1029.3 521.656 1039.1 522.47 1046.02 523.13 C 1046.63 524.512 1046.59 524.779 1046.11 526.479 L 1043.18 536.632 C 1027.8 529.383 1018.09 521.505 1013.24 504.246 L 1016.19 501.552 z" fill="rgb(225,153,12)" transform="translate(0,0)"></path>
<path d="M 1132.83 402.067 C 1132.46 406.329 1130.73 409.62 1127.26 412.36 C 1120.63 415.516 1115.48 427.668 1106.13 433.045 C 1107.41 431.354 1108.99 429.51 1110.09 427.785 C 1113.59 423.969 1116.97 420.041 1120.22 416.01 C 1123.7 412.155 1127.91 408.424 1129.33 403.72 L 1132.83 402.067 z" fill="rgb(200,128,6)" transform="translate(0,0)"></path>
<path d="M 1208.49 1165.57 C 1209.93 1172.65 1212.65 1182.1 1215.34 1188.77 C 1211.82 1187.59 1207.59 1180.83 1204.19 1177.8 C 1210.69 1175.32 1208.45 1172.97 1208.49 1165.57 z" fill="rgb(235,219,187)" transform="translate(0,0)"></path>
<path d="M 1062.09 386.721 C 1065.18 382.325 1075.87 369.584 1079.65 365.962 C 1079.59 369.547 1078.78 372.295 1075.6 374.467 C 1068.16 380.215 1070.44 383.537 1062.09 386.721 z" fill="rgb(200,128,6)" transform="translate(0,0)"></path>
<path d="M 1051.96 575.621 C 1062.92 596.185 1088.06 607.922 1109.36 614.375 C 1110.94 614.858 1112.53 615.318 1114.12 615.755 C 1114.98 625.112 1115.22 628.896 1118.42 637.883 C 1103.51 632.12 1092.49 628.634 1076.56 626.961 C 1050.28 624.2 1024.2 632.248 998.454 629.483 C 996.046 629.224 990.666 617.924 990.561 615.16 C 997.199 610.461 997.529 605.715 1002.68 599.106 C 1004.14 598.15 1005.7 596.593 1007.03 595.4 C 1008.66 594.767 1008.53 594.845 1009.88 593.67 C 1016.01 591.062 1022.34 590.194 1029 590.136 L 1031.01 590.088 C 1032.77 586.818 1039.28 578.425 1035.3 576.884 C 1039.31 575.48 1047.38 575.718 1051.96 575.621 z" fill="rgb(225,153,12)" transform="translate(0,0)"></path>
<path d="M 994.67 579.427 L 995.175 578.796 C 998.001 580.979 1007.42 586.391 1007.3 588.966 C 999.481 585.621 995.741 595.834 1007.03 595.4 C 1005.7 596.593 1004.14 598.15 1002.68 599.106 C 996.566 595.886 992.034 591.787 990.184 585.024 L 990.519 583.55 C 995.785 592.231 997.935 587.449 994.67 579.427 z" fill="rgb(235,221,188)" fill-opacity="0.101961" transform="translate(0,0)"></path>
<path d="M 1007.03 595.4 C 995.741 595.834 999.481 585.621 1007.3 588.966 C 1008.23 590.971 1008.57 591.881 1009.88 593.67 C 1008.53 594.845 1008.66 594.767 1007.03 595.4 z" fill="rgb(235,219,187)" fill-opacity="0.152941" transform="translate(0,0)"></path>
<path d="M 990.519 583.55 C 992.097 582.082 993.202 580.976 994.67 579.427 C 997.935 587.449 995.785 592.231 990.519 583.55 z" fill="rgb(235,221,188)" fill-opacity="0.129412" transform="translate(0,0)"></path>
<path d="M 1350.74 760.803 C 1358.01 774.088 1362.42 787.972 1366.91 802.354 C 1416.19 960.315 1275.43 1141.64 1374.25 1288.63 C 1371.8 1287.28 1368.22 1285.34 1365.69 1284.02 C 1363.02 1286.46 1363.18 1296.05 1361.29 1295.41 C 1351.87 1292.24 1353.45 1292.49 1359.42 1286.27 C 1359.95 1285.71 1358.01 1285.48 1357.99 1285.48 C 1344.15 1285.34 1354.18 1295.11 1354.74 1296.58 C 1353.86 1295.91 1353 1295.23 1352.14 1294.53 C 1265.04 1223.89 1257.83 1128.36 1285.23 1027.03 C 1289.84 1010 1296.4 993.404 1301.78 976.594 C 1320.72 917.386 1339.72 851.358 1332.95 788.547 C 1345.71 800.192 1339.42 790.347 1346.42 790.703 C 1346.36 790.652 1348.28 799.976 1354.04 788.487 C 1357.7 781.199 1351.8 770.353 1350.74 760.803 z" fill="rgb(231,221,197)" transform="translate(0,0)"></path>
<path d="M 739.596 1399.79 C 729.046 1373.55 726.064 1347.96 737.554 1321.12 C 759.101 1271.53 820.68 1245.68 870.535 1267.94 C 877.808 1271.19 884.301 1275.59 891.282 1279.2 C 921.213 1294.67 957.143 1311.08 990.055 1317.89 C 1049.06 1330.1 1113.02 1321.76 1169.41 1301.82 C 1192.22 1293.72 1210.71 1283.59 1231.37 1271.85 C 1191.07 1325.5 1128.6 1359.97 1062.44 1369.29 C 1025.29 1374.75 987.443 1373.14 950.893 1364.55 C 933.465 1360.33 900.979 1350.22 884.043 1342.6 C 836.047 1321 775.636 1319.74 750.999 1374.96 C 744.162 1390.28 747.714 1401.39 751.429 1417.31 C 745.979 1413.8 742.657 1405.69 739.596 1399.79 z" fill="rgb(107,61,20)" transform="translate(0,0)"></path>
<path d="M 410.79 1008.47 C 427.623 997.042 442.097 990.531 460.098 982.085 C 518.401 954.728 582.888 944.902 646.548 956.576 C 701.833 966.714 744.987 997.257 787.999 1031.42 C 774.122 1046.93 756.154 1067.35 744.933 1085.08 C 651.383 1007.29 534.466 990.256 427.975 1053.69 C 422.211 1057.12 416.384 1060.53 410.625 1063.99 L 410.296 1063.32 C 413.308 1056.75 411.731 1058.5 407.389 1054.68 L 405.908 1053.35 C 407.178 1049.45 403.496 1048.54 404.357 1045.42 C 405.571 1044.38 403.299 1027.19 403.892 1028.04 C 396.759 1017.84 412.74 1013.57 410.79 1008.47 z" fill="rgb(231,221,197)" transform="translate(0,0)"></path>
<path d="M 819.015 1003.67 C 824.154 1009.09 834.027 1018.18 838.086 1022.87 C 840.666 1026.71 841.646 1028.15 844.855 1031.44 C 798.204 1070.19 757.058 1133.15 727.961 1185.74 C 723.863 1193.15 715.513 1208.88 714.862 1216.81 C 714.126 1218.55 713.46 1219.95 712.635 1221.66 C 706.12 1225.18 688.883 1261.72 685.837 1270.36 C 685.284 1268.85 684.847 1267.7 684.404 1266.17 C 691.747 1192.41 708.323 1148.32 744.933 1085.08 C 756.154 1067.35 774.122 1046.93 787.999 1031.42 C 796.098 1023 809.804 1011.21 819.015 1003.67 z" fill="rgb(172,105,5)" transform="translate(0,0)"></path>
<path d="M 1295.33 418.712 C 1300.45 425.486 1304.1 433.583 1307.78 441.181 C 1301.47 434.91 1295.57 430.065 1290.08 424.703 C 1291.9 424.15 1291.86 424.229 1293.31 423.133 L 1295.33 418.712 z" fill="rgb(235,221,188)" transform="translate(0,0)"></path>
<path d="M 685.837 1270.36 C 682.016 1282.04 683.335 1269.56 684.404 1266.17 C 684.847 1267.7 685.284 1268.85 685.837 1270.36 z" fill="rgb(200,128,6)" transform="translate(0,0)"></path>
<path d="M 752.286 1156.95 C 761.014 1144.32 770.609 1132.31 781.001 1121.01 C 792.356 1108.66 810.576 1089.94 823.449 1079.77 C 870.063 1042.92 926.869 1019.01 986.497 1017 C 1048.47 1014.92 1095.66 1028.18 1148.01 1060.06 C 1172.03 1074.68 1181.7 1078.64 1203.93 1099.25 C 1202.85 1121.91 1203.07 1143.27 1208.49 1165.57 C 1208.45 1172.97 1210.69 1175.32 1204.19 1177.8 L 1203.64 1176.54 C 1207.29 1171.19 1205.76 1169.12 1203.98 1162.78 C 1203.25 1159.7 1199.1 1163.43 1198.32 1164.21 C 1197.45 1165.09 1199.72 1169.32 1200.05 1170.56 L 1200.71 1173.12 C 1190.49 1163.76 1180.98 1154.55 1170.39 1145.5 C 1048.11 1041.12 890.508 1077.84 773.16 1169.83 C 773.579 1165.9 778.093 1162.18 776.604 1161.01 C 765.657 1152.37 765.498 1162.91 764.211 1163.65 L 763.728 1163.49 C 762.114 1161.66 765.737 1147.95 755.025 1155.1 L 752.286 1156.95 z" fill="url(#Gradient2)" transform="translate(0,0)"></path>
<path d="M 838.086 1022.87 C 858.882 1011.23 873.824 1002.17 896.468 992.955 C 955.216 969.043 1025.06 966.821 1086 983.183 C 1125.61 993.818 1183.74 1029.1 1213.36 1057.85 C 1209.04 1072.39 1206.51 1084.29 1203.93 1099.25 C 1181.7 1078.64 1172.03 1074.68 1148.01 1060.06 C 1095.66 1028.18 1048.47 1014.92 986.497 1017 C 926.869 1019.01 870.063 1042.92 823.449 1079.77 C 810.576 1089.94 792.356 1108.66 781.001 1121.01 C 770.609 1132.31 761.014 1144.32 752.286 1156.95 C 749.856 1159.56 747.112 1163.98 745.269 1167.05 C 742.924 1169.87 741.863 1171.83 740.128 1175.05 C 734.737 1184.87 720.827 1207.65 714.862 1216.81 C 715.513 1208.88 723.863 1193.15 727.961 1185.74 C 757.058 1133.15 798.204 1070.19 844.855 1031.44 C 841.646 1028.15 840.666 1026.71 838.086 1022.87 z" fill="rgb(225,153,12)" transform="translate(0,0)"></path>
<path d="M 745.269 1167.05 C 759.203 1163.07 751.885 1160.52 766.242 1170.35 C 764.35 1174.03 763.353 1176.17 761.064 1179.66 C 756.441 1183.19 753.375 1186.49 748.341 1189.89 C 752.258 1184.18 751.538 1186.56 750.358 1181.52 C 748.152 1172.1 745.195 1178.04 740.128 1175.05 C 741.863 1171.83 742.924 1169.87 745.269 1167.05 z" fill="rgb(231,221,197)" fill-opacity="0.611765" transform="translate(0,0)"></path>
<path d="M 752.286 1156.95 L 755.025 1155.1 C 765.737 1147.95 762.114 1161.66 763.728 1163.49 L 764.211 1163.65 C 765.498 1162.91 765.657 1152.37 776.604 1161.01 C 778.093 1162.18 773.579 1165.9 773.16 1169.83 C 772.492 1170.4 771.824 1170.97 771.156 1171.55 C 767.851 1174.33 764.487 1177.03 761.064 1179.66 C 763.353 1176.17 764.35 1174.03 766.242 1170.35 C 751.885 1160.52 759.203 1163.07 745.269 1167.05 C 747.112 1163.98 749.856 1159.56 752.286 1156.95 z" fill="rgb(231,221,197)" fill-opacity="0.8" transform="translate(0,0)"></path>
<path d="M 1200.71 1173.12 L 1200.05 1170.56 C 1199.72 1169.32 1197.45 1165.09 1198.32 1164.21 C 1199.1 1163.43 1203.25 1159.7 1203.98 1162.78 C 1205.76 1169.12 1207.29 1171.19 1203.64 1176.54 L 1200.71 1173.12 z" fill="rgb(231,221,197)" fill-opacity="0.54902" transform="translate(0,0)"></path>
<path d="M 1080.15 439.042 C 1084.25 438.935 1085.55 438.41 1088.36 435.368 C 1092.1 431.317 1097.69 435.782 1091.63 438.214 C 1089.36 439.125 1087.66 438.479 1087.54 442.033 C 1087.48 442.693 1087.42 443.353 1087.36 444.014 C 1087.44 442.732 1086.84 441.504 1085.77 440.789 C 1084.7 440.074 1083.34 439.98 1082.18 440.543 L 1080.15 439.042 z" fill="url(#Gradient1)" transform="translate(0,0)"></path>
<path d="M 1050.81 488.114 C 1047.43 483.961 1044.95 482.752 1051.94 478.541 C 1055.17 482.828 1058.53 488.149 1050.81 488.114 z" fill="rgb(231,221,197)" fill-opacity="0.745098" transform="translate(0,0)"></path>
<path d="M 1082.18 440.543 C 1083.34 439.98 1084.7 440.074 1085.77 440.789 C 1086.84 441.504 1087.44 442.732 1087.36 444.014 C 1087.3 445.061 1086.78 446.028 1085.94 446.661 C 1085.1 447.294 1084.03 447.531 1083 447.31 C 1081.5 446.986 1080.37 445.745 1080.18 444.219 C 1080 442.693 1080.8 441.217 1082.18 440.543 z" fill="rgb(231,221,197)" fill-opacity="0.756863" transform="translate(0,0)"></path>
<metadata><recraft-signature>{"signed_by": "recraft", "signature_b64": "bKlIgamBkJGgMjriwNgI49mDZR4wHo72bnyc9gOCXsMLVCXJcDfM08uvLREwgioPj33vrFIIETWYV8b4QmlCBg==", "signing_algo": "Ed25519", "generation_timestamp": 1781914944, "identifier": "aa42de1a-6723-49d6-b57d-b914d1c2fee2"}</recraft-signature></metadata></svg>