<svg xmlns="http://www.w3.org/2000/svg" height="1024" preserveAspectRatio="none" style="display: block;" version="1.1" viewBox="0 0 2048 2048" width="1024">
<path d="M 1106.23 252.78 C 1115.94 268.17 1124.47 284.671 1133.58 300.304 C 1145.01 319.936 1157.58 340.029 1167.1 360.444 C 1202.05 435.391 1200.47 527.018 1174.37 604.465 C 1172.43 610.216 1158.52 639.811 1159.23 642.731 C 1181.42 659.038 1201.89 677.4 1222.96 695.075 C 1254.67 721.688 1285.19 748.226 1315.32 776.704 C 1328.53 789.154 1341.65 801.696 1354.69 814.33 C 1361.77 821.283 1371.35 831.726 1378.64 837.772 C 1345.67 870.158 1316.61 908.621 1301.18 952.711 C 1312.5 942.643 1324.23 933.051 1336.34 923.961 C 1343.65 929.281 1345.52 924.374 1341.46 920.505 C 1359.51 906.433 1393.7 888.762 1414.78 880.168 C 1493.47 970.278 1585.88 1108.57 1578.7 1234.69 C 1575.79 1285.62 1548.68 1323.68 1503.12 1346.39 C 1471.73 1364.1 1433.72 1376.43 1399.59 1388.71 L 1282.82 1430.63 L 1095.56 1498.25 L 966.467 1544.49 C 942.038 1553.22 915.759 1562.08 891.609 1571.4 L 629.279 1665.88 C 597.506 1677.71 565.61 1689.21 533.597 1700.38 C 491.656 1714.88 459.807 1725.95 416.408 1705.22 C 388.326 1691.55 366.885 1667.21 356.874 1637.63 C 354.986 1632.11 353.789 1626.67 352.552 1620.99 C 347.354 1578 358.432 1555.52 371.211 1515.64 L 395.402 1437.83 C 418.687 1364.59 440.935 1289.2 464.963 1216.53 C 473.155 1185.52 486.71 1147.74 496.485 1116.61 L 566.604 892.878 L 632.718 683.74 C 641.704 655.132 652.972 610.152 663.53 583.812 C 664.447 579.847 667.217 570.398 668.817 566.445 L 670.327 562.754 C 682.334 526.494 708.17 496.44 742.219 479.129 C 836.034 432.368 962.171 502.197 1039.92 554.525 C 1051.53 562.34 1064.16 571.574 1076.01 578.664 C 1077.65 567.916 1076.59 552.437 1075.85 541.517 C 1071.06 470.916 1044.04 401.647 997.659 347.943 C 991.814 341.175 984.775 333.828 979.335 326.83 C 1013.09 305.079 1051.89 286.373 1085.88 264.434 C 1091.79 260.618 1099.98 255.919 1106.23 252.78 z" fill="rgb(252,171,19)" transform="translate(0,0)"></path>
<path d="M 1106.23 252.78 C 1115.94 268.17 1124.47 284.671 1133.58 300.304 C 1145.01 319.936 1157.58 340.029 1167.1 360.444 C 1202.05 435.391 1200.47 527.018 1174.37 604.465 C 1172.43 610.216 1158.52 639.811 1159.23 642.731 C 1181.42 659.038 1201.89 677.4 1222.96 695.075 C 1254.67 721.688 1285.19 748.226 1315.32 776.704 C 1328.53 789.154 1341.65 801.696 1354.69 814.33 C 1361.77 821.283 1371.35 831.726 1378.64 837.772 C 1345.67 870.158 1316.61 908.621 1301.18 952.711 C 1312.5 942.643 1324.23 933.051 1336.34 923.961 C 1343.65 929.281 1345.52 924.374 1341.46 920.505 C 1359.51 906.433 1393.7 888.762 1414.78 880.168 C 1493.47 970.278 1585.88 1108.57 1578.7 1234.69 C 1575.79 1285.62 1548.68 1323.68 1503.12 1346.39 C 1495.62 1348.44 1484.17 1351.65 1476.97 1353 C 1372.43 1372.59 1230.1 1294.85 1146.39 1239.49 C 1142.66 1236.61 1137.75 1233.75 1133.79 1231.03 C 1104.77 1211.01 1076.64 1189.41 1048.81 1167.73 C 1006.12 1133.79 965.533 1097.28 927.27 1058.42 C 822.497 953.909 703.103 791.787 672.874 643.337 C 669.069 624.653 668.775 605.617 668.747 586.618 C 668.626 586.219 666.781 578.806 667.238 579.606 L 667.081 579.571 C 664.965 580.79 666.855 584.747 663.53 583.812 C 664.447 579.847 667.217 570.398 668.817 566.445 L 670.327 562.754 C 682.334 526.494 708.17 496.44 742.219 479.129 C 836.034 432.368 962.171 502.197 1039.92 554.525 C 1051.53 562.34 1064.16 571.574 1076.01 578.664 C 1077.65 567.916 1076.59 552.437 1075.85 541.517 C 1071.06 470.916 1044.04 401.647 997.659 347.943 C 991.814 341.175 984.775 333.828 979.335 326.83 C 1013.09 305.079 1051.89 286.373 1085.88 264.434 C 1091.79 260.618 1099.98 255.919 1106.23 252.78 z" fill="rgb(247,215,162)" transform="translate(0,0)"></path>
<path d="M 1106.23 252.78 C 1115.94 268.17 1124.47 284.671 1133.58 300.304 C 1145.01 319.936 1157.58 340.029 1167.1 360.444 C 1202.05 435.391 1200.47 527.018 1174.37 604.465 C 1172.43 610.216 1158.52 639.811 1159.23 642.731 C 1156.24 645.358 1136.72 682.345 1130.75 691.122 C 1095.82 742.471 1056.89 776.115 1005.7 809.396 L 1016.88 790.207 C 1049.83 732.821 1069.2 674.116 1074.66 608.112 C 1075.16 602.065 1077.27 583.325 1076.01 578.664 C 1077.65 567.916 1076.59 552.437 1075.85 541.517 C 1071.06 470.916 1044.04 401.647 997.659 347.943 C 991.814 341.175 984.775 333.828 979.335 326.83 C 1013.09 305.079 1051.89 286.373 1085.88 264.434 C 1091.79 260.618 1099.98 255.919 1106.23 252.78 z" fill="rgb(252,171,19)" transform="translate(0,0)"></path>
<path d="M 670.327 562.754 C 672.301 566.913 669.592 581.6 668.747 586.618 C 668.626 586.219 666.781 578.806 667.238 579.606 L 667.081 579.571 C 664.965 580.79 666.855 584.747 663.53 583.812 C 664.447 579.847 667.217 570.398 668.817 566.445 L 670.327 562.754 z" fill="rgb(252,171,19)" transform="translate(0,0)"></path>
<path d="M 1457.57 1102.69 C 1494.73 1203.7 1444.95 1260.27 1339.5 1228.65 C 1283.95 1211.99 1222.92 1175.75 1175.76 1142.24 C 1036.24 1043.09 906.247 913.52 822.798 763.04 C 797.265 717.004 758.554 618.183 823.086 582.958 C 848.984 568.821 876.873 572.179 904.293 580.89 C 932.046 593.318 959.02 606.264 984.403 623.202 C 976.013 680.843 957.52 736.476 970.279 795.33 C 973.169 808.657 980.912 827.877 982.438 840.154 C 989.808 855.539 1001.87 870.578 1012.01 884.242 C 1054.73 941.812 1126.25 1003.64 1189.77 1036.92 C 1203.52 1038.58 1217.1 1043.78 1231.14 1045.76 C 1292.16 1054.38 1347.37 1035.49 1398.05 1002.44 C 1413.29 1024.74 1449.13 1079.56 1457.57 1102.69 z" fill="rgb(200,141,11)" transform="translate(0,0)"></path>
<path d="M 1189.77 1036.92 C 1203.52 1038.58 1217.1 1043.78 1231.14 1045.76 C 1292.16 1054.38 1347.37 1035.49 1398.05 1002.44 C 1413.29 1024.74 1449.13 1079.56 1457.57 1102.69 L 1454.38 1103.4 C 1436.45 1107.28 1418.02 1108.24 1399.78 1106.24 C 1348.16 1101.07 1233.54 1065.09 1189.77 1036.92 z" fill="rgb(252,171,19)" transform="translate(0,0)"></path>
<path d="M 904.293 580.89 C 932.046 593.318 959.02 606.264 984.403 623.202 C 976.013 680.843 957.52 736.476 970.279 795.33 C 973.169 808.657 980.912 827.877 982.438 840.154 C 981.653 839.276 980.197 837.684 979.604 836.688 C 939.545 769.439 891.624 659.231 904.293 580.89 z" fill="rgb(252,171,19)" transform="translate(0,0)"></path>
<path d="M 1174.65 822.139 C 1206.52 817.466 1236.19 839.373 1241.11 871.202 C 1246.02 903.032 1224.34 932.869 1192.55 938.027 C 1160.41 943.242 1130.18 921.276 1125.21 889.101 C 1120.25 856.925 1142.44 826.862 1174.65 822.139 z" fill="rgb(150,98,10)" transform="translate(0,0)"></path>
<path d="M 352.552 1620.99 C 347.354 1578 358.432 1555.52 371.211 1515.64 L 395.402 1437.83 C 418.687 1364.59 440.935 1289.2 464.963 1216.53 C 505.197 1295.31 589.816 1378.65 657.847 1433.92 C 682.004 1453.54 709.194 1471.91 734.002 1491 C 852.943 1432.47 967.398 1365.24 1076.43 1289.86 C 1095.38 1276.56 1129.43 1253.54 1146.39 1239.49 C 1230.1 1294.85 1372.43 1372.59 1476.97 1353 C 1484.17 1351.65 1495.62 1348.44 1503.12 1346.39 C 1471.73 1364.1 1433.72 1376.43 1399.59 1388.71 L 1282.82 1430.63 L 1095.56 1498.25 L 966.467 1544.49 C 942.038 1553.22 915.759 1562.08 891.609 1571.4 L 629.279 1665.88 C 597.506 1677.71 565.61 1689.21 533.597 1700.38 C 491.656 1714.88 459.807 1725.95 416.408 1705.22 C 388.326 1691.55 366.885 1667.21 356.874 1637.63 C 354.986 1632.11 353.789 1626.67 352.552 1620.99 z" fill="rgb(150,98,10)" transform="translate(0,0)"></path>
<path d="M 352.552 1620.99 C 360.029 1619.22 375.05 1617.35 383.457 1615.82 C 405.085 1611.86 426.572 1607.16 447.88 1601.74 C 535.207 1579.34 653.553 1531.49 733.855 1490.85 C 792.311 1528.26 827.834 1544.04 891.609 1571.4 L 629.279 1665.88 C 597.506 1677.71 565.61 1689.21 533.597 1700.38 C 491.656 1714.88 459.807 1725.95 416.408 1705.22 C 388.326 1691.55 366.885 1667.21 356.874 1637.63 C 354.986 1632.11 353.789 1626.67 352.552 1620.99 z" fill="rgb(62,33,5)" transform="translate(0,0)"></path>
<path d="M 1198.23 1339.14 C 1214.01 1338.35 1226.14 1346.55 1228.8 1362.69 C 1230.17 1370.64 1228.28 1378.81 1223.57 1385.36 C 1216.29 1395.45 1184.37 1404.63 1171.39 1409.42 C 1142.95 1420 1114.42 1430.36 1085.81 1440.5 C 1060.55 1449.53 1005.51 1471.56 981.231 1475.91 C 955.328 1477.58 942.58 1454.18 954.435 1432.2 C 960.288 1421.35 989.917 1413.22 1002.19 1408.86 C 1020.35 1402.49 1038.45 1395.98 1056.51 1389.34 L 1146.32 1357.23 C 1160.2 1352.22 1184.61 1342.29 1198.23 1339.14 z" fill="rgb(247,215,162)" transform="translate(0,0)"></path>
<path d="M 899.729 1448.29 C 924.488 1450.22 932.479 1475.51 920.606 1495.39 C 915.606 1503.75 899.47 1507.55 890.237 1509.15 C 863.341 1508.24 854.726 1486.05 868.079 1463.57 C 873.528 1454.4 889.459 1449.89 899.729 1448.29 z" fill="rgb(247,215,162)" transform="translate(0,0)"></path>
<path d="M 662.073 834.16 C 684.352 831.752 702.899 844.017 697.216 868.383 C 694.027 882.054 689.346 895.732 685.265 909.21 C 676.434 938.246 667.447 967.235 658.305 996.176 L 617.753 1127.16 C 609.811 1153.02 601.965 1178.96 593.715 1204.72 C 589.75 1217.1 585.94 1219.17 574.693 1224.76 C 551.009 1227.31 533.528 1214.55 539.95 1189.11 C 545.847 1165.75 553.753 1142.49 560.93 1119.45 L 602.497 986.249 L 629.083 899.026 C 633.801 883.129 638.198 866.19 643.971 850.698 C 647.416 841.456 653.578 837.79 662.073 834.16 z" fill="rgb(247,215,162)" transform="translate(0,0)"></path>
<path d="M 1378.64 837.772 C 1455.7 765.928 1547.09 733.349 1652.4 737.039 C 1711.01 739.093 1763.32 758.355 1814.65 785.439 C 1827.27 792.097 1842.67 799.454 1854.11 807.815 C 1847.05 821.718 1834.91 840.691 1826.7 854.391 C 1811.55 880.004 1796.08 905.431 1780.3 930.666 C 1674.75 857.282 1535.94 829.401 1414.78 880.168 C 1393.7 888.762 1359.51 906.433 1341.46 920.505 C 1339.71 921.648 1338.02 922.706 1336.34 923.961 C 1324.23 933.051 1312.5 942.643 1301.18 952.711 C 1316.61 908.621 1345.67 870.158 1378.64 837.772 z" fill="rgb(150,98,10)" transform="translate(0,0)"></path>
<path d="M 1647.12 372.517 C 1659.81 372.124 1685.57 372.027 1697.67 373.049 C 1698.88 389.488 1698.69 414.627 1698.81 431.352 L 1699.99 514.223 C 1673.94 510.297 1647.56 509.018 1621.26 510.407 C 1511.89 516.271 1416.64 551.911 1332.09 623.079 C 1315.08 637.395 1298.88 656.016 1284 672.597 C 1274.44 683.92 1268.29 693.632 1260.23 706.036 C 1262.86 630.552 1301.66 552.296 1353.87 498.899 C 1434.49 416.436 1532.65 375.565 1647.12 372.517 z" fill="rgb(252,171,19)" transform="translate(0,0)"></path>
<path d="M 1777.82 554.38 C 1810.22 549.82 1840.15 572.517 1844.49 604.953 C 1848.84 637.39 1825.95 667.165 1793.48 671.299 C 1761.32 675.395 1731.88 652.76 1727.57 620.623 C 1723.27 588.485 1745.71 558.897 1777.82 554.38 z" fill="rgb(150,98,10)" transform="translate(0,0)"></path>
<path d="M 1302.26 264.579 C 1334.63 260.693 1363.99 283.855 1367.75 316.239 C 1371.51 348.623 1348.24 377.896 1315.84 381.529 C 1283.62 385.142 1254.54 362.022 1250.8 329.816 C 1247.06 297.61 1270.07 268.443 1302.26 264.579 z" fill="rgb(150,98,10)" transform="translate(0,0)"></path>
<path d="M 1684.56 996.954 C 1716.74 993.294 1745.78 1016.46 1749.36 1048.64 C 1752.94 1080.83 1729.7 1109.81 1697.51 1113.31 C 1665.42 1116.8 1636.57 1093.67 1633 1061.59 C 1629.43 1029.51 1652.49 1000.6 1684.56 996.954 z" fill="rgb(252,171,19)" transform="translate(0,0)"></path>
<path d="M 872.25 302.458 C 891.036 299.573 908.643 312.348 911.729 331.102 C 914.814 349.857 902.227 367.599 883.506 370.884 C 871.218 373.04 858.719 368.429 850.775 358.808 C 842.832 349.188 840.669 336.041 845.112 324.383 C 849.555 312.725 859.918 304.352 872.25 302.458 z" fill="rgb(252,171,19)" transform="translate(0,0)"></path>
<path d="M 1445.74 631.373 C 1458.07 629.912 1470.22 635.223 1477.52 645.261 C 1484.82 655.298 1486.13 668.496 1480.94 679.772 C 1475.76 691.049 1464.89 698.644 1452.51 699.633 C 1433.88 701.123 1417.49 687.424 1415.64 668.825 C 1413.8 650.226 1427.18 633.572 1445.74 631.373 z" fill="rgb(252,171,19)" transform="translate(0,0)"></path>
<path d="M 1341.46 920.505 C 1345.52 924.374 1343.65 929.281 1336.34 923.961 C 1338.02 922.706 1339.71 921.648 1341.46 920.505 z" fill="rgb(247,215,162)" fill-opacity="0.952941" transform="translate(0,0)"></path>
<metadata><recraft-signature>{"signed_by": "recraft", "signature_b64": "6rEBR6fWJo4y7N9NJz6qjXvxb+CCBufDM2cuCRT2PmRRtgBtPJe+Dwz8M5GBqC9suho7I/G2wEyjIc1mPRs6CA==", "signing_algo": "Ed25519", "generation_timestamp": 1781914923, "identifier": "f90b646d-77a7-4c7d-9eca-908a2b9c9a0f"}</recraft-signature></metadata></svg>