<svg xmlns="http://www.w3.org/2000/svg" height="1024" preserveAspectRatio="none" style="display: block;" version="1.1" viewBox="0 0 2048 2048" width="1024">
<path d="M 969.685 267.227 C 1027.73 252.866 1089.1 262.176 1140.27 293.107 C 1164.97 308.008 1175.37 323.857 1196.86 340.725 C 1218.11 357.411 1250.03 368.273 1274.21 380.566 C 1403.7 323.987 1557.18 262.347 1697.72 317.206 C 1702.85 319.208 1717.56 325.393 1722.1 328.251 C 1787.98 361.094 1838.12 418.739 1861.52 488.525 C 1895.15 587.028 1873.61 678.408 1828.98 769.207 C 1815.14 797.073 1799.97 824.268 1783.56 850.701 C 1772.78 867.8 1760.18 885.45 1749.83 902.428 C 1785.14 958.002 1797.73 1015.92 1783.09 1081.09 C 1775.75 1112.91 1760.82 1142.49 1739.58 1167.3 C 1728.78 1179.92 1718.62 1189.53 1709.28 1203.59 C 1697 1222.07 1689.16 1241.38 1683.03 1262.69 C 1672.99 1297.6 1664.7 1335.66 1663.09 1372 C 1662.1 1394.13 1665.51 1413.28 1666.75 1434.61 C 1668.45 1464.05 1660.89 1498.67 1649.14 1525.52 C 1630.27 1570.45 1593.38 1610.53 1552.37 1635.71 C 1520.86 1655.07 1465.9 1674.02 1428.92 1668.65 C 1380.33 1661.6 1340.61 1663.56 1292.85 1675.51 C 1262.76 1683.04 1231.38 1691.46 1204.63 1708.38 C 1184.72 1719.8 1170.95 1737.84 1153.18 1751.89 C 1102.95 1791.61 1037.15 1800.31 976.144 1787.05 C 923.011 1775.51 897.341 1751.21 858.827 1717.28 C 844.373 1704.55 794.817 1680.28 775.107 1675.2 C 744.305 1685.73 712.922 1699.85 681.9 1710.54 C 567.061 1750.1 448.123 1780.02 333.429 1723.61 C 269.576 1692.6 219.408 1639.12 192.536 1573.42 L 192.282 1572.69 C 148.338 1441.98 197.585 1326.79 256.422 1209.28 C 263.721 1195.41 271.818 1181.97 279.877 1168.55 C 285.185 1159.71 291.805 1150.56 296.098 1141.33 C 292.058 1134.42 288.269 1127.38 284.74 1120.2 C 249.576 1046.87 257.845 952.188 313.476 891.385 C 341.225 861.056 350.164 839.513 363.465 801.659 C 374.908 771.837 388.444 717.245 390.657 685.045 C 391.463 673.31 386.35 647.896 385.238 634.172 C 381.089 582.932 394.44 535.2 421.117 491.625 C 459.858 428.345 533.844 384.016 608.477 382.868 C 635.095 382.458 658.669 388.848 683.749 387.832 C 725.947 385.976 767.88 377.845 807.423 363.497 C 846.963 349.151 864.981 329.343 895.116 302.5 C 913.497 286.126 945.665 273.091 969.685 267.227 z M 1632.29 677.99 C 1639.73 681.676 1638.13 675.245 1636.91 670.05 C 1635.27 672.642 1633.84 675.346 1632.29 677.99 z M 549.333 1519.59 C 542.002 1512.04 530.684 1502.61 522.621 1495.05 C 507.772 1481.11 493.658 1466.41 480.335 1451 C 463.337 1429.83 452.306 1413.72 440.904 1388.64 C 430.532 1365.82 422.684 1340.5 406.956 1320.91 C 382.92 1365.3 369.305 1450.63 372.346 1501.29 C 379.939 1510.93 407.439 1522.27 418.805 1526.43 C 455.529 1539.87 494.86 1536.93 531.645 1525.48 C 536.872 1523.85 544.504 1520.73 549.333 1519.59 z M 1585.89 601.602 C 1600.4 619.806 1626.04 649.191 1638.15 667.95 C 1649.67 658.767 1660.82 604.376 1661.99 588.502 C 1664.21 558.501 1654.25 516.309 1633.55 493.779 C 1597.58 488.21 1529.84 500.086 1494.4 510.268 C 1528.4 536.996 1559.11 567.654 1585.89 601.602 z" fill="rgb(250,171,50)" transform="translate(0,0)"></path>
<path d="M 1722.1 328.251 C 1787.98 361.094 1838.12 418.739 1861.52 488.525 C 1895.15 587.028 1873.61 678.408 1828.98 769.207 C 1815.14 797.073 1799.97 824.268 1783.56 850.701 C 1772.78 867.8 1760.18 885.45 1749.83 902.428 C 1785.14 958.002 1797.73 1015.92 1783.09 1081.09 C 1775.75 1112.91 1760.82 1142.49 1739.58 1167.3 C 1728.78 1179.92 1718.62 1189.53 1709.28 1203.59 C 1697 1222.07 1689.16 1241.38 1683.03 1262.69 C 1672.99 1297.6 1664.7 1335.66 1663.09 1372 C 1662.1 1394.13 1665.51 1413.28 1666.75 1434.61 C 1668.45 1464.05 1660.89 1498.67 1649.14 1525.52 C 1630.27 1570.45 1593.38 1610.53 1552.37 1635.71 C 1520.86 1655.07 1465.9 1674.02 1428.92 1668.65 C 1380.33 1661.6 1340.61 1663.56 1292.85 1675.51 C 1262.76 1683.04 1231.38 1691.46 1204.63 1708.38 C 1184.72 1719.8 1170.95 1737.84 1153.18 1751.89 C 1102.95 1791.61 1037.15 1800.31 976.144 1787.05 C 923.011 1775.51 897.341 1751.21 858.827 1717.28 C 844.373 1704.55 794.817 1680.28 775.107 1675.2 C 744.305 1685.73 712.922 1699.85 681.9 1710.54 C 567.061 1750.1 448.123 1780.02 333.429 1723.61 C 269.576 1692.6 219.408 1639.12 192.536 1573.42 C 201.838 1576.44 231.099 1596.59 242.396 1602.9 C 278.236 1623.02 315.646 1640.19 354.259 1654.27 C 390.843 1667.6 429.464 1674.49 468.402 1674.61 C 576.154 1674.44 715.821 1614.65 812.824 1568.49 C 852.263 1549.72 890.132 1527.92 928.064 1506.38 C 1199.41 1352.29 1514.95 1098.57 1691.04 840.599 C 1726.34 788.885 1759.8 734.731 1780.66 675.32 C 1814.52 578.902 1790.2 472.965 1749.97 382.338 C 1741.68 363.663 1730.91 346.566 1722.1 328.251 z" fill="rgb(198,132,8)" transform="translate(0,0)"></path>
<path d="M 1507.1 1172.79 C 1555.77 1130.42 1601.01 1082.09 1643.99 1034.02 C 1640.95 1109.38 1626.44 1180.04 1604.5 1252.19 C 1597.55 1275.03 1590.91 1300.75 1582.92 1322.94 C 1562.8 1379.27 1529.42 1429.92 1485.59 1470.63 C 1459.51 1495.02 1430.25 1515.76 1398.61 1532.31 C 1364.33 1550.05 1326.33 1562.14 1289.32 1572.7 C 1182.7 1604.26 1071.56 1617.75 960.491 1612.61 C 944.6 1611.95 923.885 1610.8 908.109 1608.67 C 935.015 1592.87 963.415 1578.91 990.146 1562.89 C 1102.2 1495.98 1209.73 1421.75 1312.01 1340.68 C 1355.26 1305.81 1398.64 1271.42 1440.06 1234.32 C 1462.66 1214.07 1484.83 1193.39 1507.1 1172.79 z" fill="rgb(250,171,50)" transform="translate(0,0)"></path>
<path d="M 1507.1 1172.79 C 1522.16 1189.24 1530.36 1203.39 1540.92 1222.51 C 1573.36 1281.25 1557.27 1339.47 1509.28 1384.13 C 1460.64 1429.39 1382.87 1426.95 1338.21 1377.15 C 1327.82 1365.36 1319.94 1354.27 1312.01 1340.68 C 1355.26 1305.81 1398.64 1271.42 1440.06 1234.32 C 1462.66 1214.07 1484.83 1193.39 1507.1 1172.79 z" fill="rgb(250,222,172)" transform="translate(0,0)"></path>
<path d="M 363.465 801.659 C 374.908 771.837 388.444 717.245 390.657 685.045 C 391.463 673.31 386.35 647.896 385.238 634.172 C 381.089 582.932 394.44 535.2 421.117 491.625 C 459.858 428.345 533.844 384.016 608.477 382.868 C 635.095 382.458 658.669 388.848 683.749 387.832 C 725.947 385.976 767.88 377.845 807.423 363.497 C 846.963 349.151 864.981 329.343 895.116 302.5 C 913.497 286.126 945.665 273.091 969.685 267.227 C 998.13 288.204 1014.15 310.466 1020.48 346.271 C 1025.15 372.634 1016.54 404.984 1000.61 426.497 C 982.134 451.682 954.327 468.398 923.421 472.895 C 912.764 474.459 901.918 473.601 891.557 475.089 C 824.576 484.71 798.769 552.313 831.408 608.786 C 847.418 636.487 874.022 646.019 893.334 670.254 C 934.463 721.166 934.437 792.604 896.426 844.716 C 873.146 877.071 837.801 898.671 798.389 904.63 C 757.503 910.788 714.531 901.299 681.148 876.569 C 660.205 861.054 652.879 846.939 636.444 829.532 C 604.16 795.336 553.458 780.838 507.407 788.175 C 487.473 791.351 472.442 795.841 453.099 800.433 C 422.963 807.588 393.818 805.247 363.465 801.659 z" fill="rgb(250,222,172)" transform="translate(0,0)"></path>
<path d="M 1567.58 418.948 L 1567.56 417.582 C 1567.5 406.067 1570.41 394.103 1578.74 385.692 C 1586.1 378.261 1598.02 373.61 1608.45 373.797 C 1634.15 374.257 1668.93 406.928 1685.68 425.086 C 1727.07 469.983 1750.09 533.564 1747.44 594.625 C 1740.35 758.241 1496.61 1011.55 1377.89 1119.6 C 1174.6 1304.6 884.98 1508.34 621.975 1591.33 C 569.867 1607.77 516.232 1623.68 461.016 1620.97 C 400.397 1617.99 334.149 1587.7 293.287 1542.28 C 279.211 1526.63 261.233 1511.94 262.243 1488.9 C 262.652 1478.1 267.345 1467.9 275.285 1460.57 C 284.034 1452.55 293.062 1450.08 304.548 1450.87 L 305.554 1450.95 C 330.643 1453.7 349.37 1484.25 372.346 1501.29 C 379.939 1510.93 407.439 1522.27 418.805 1526.43 C 455.529 1539.87 494.86 1536.93 531.645 1525.48 C 536.872 1523.85 544.504 1520.73 549.333 1519.59 C 542.002 1512.04 530.684 1502.61 522.621 1495.05 C 507.772 1481.11 493.658 1466.41 480.335 1451 C 519.051 1441.93 547.119 1431.35 583.795 1420.45 C 589.218 1418.11 594.812 1415.86 600.332 1413.75 C 640.717 1398.26 680.159 1381.56 719.466 1363.48 C 843.829 1306.24 961.614 1235.68 1070.75 1153.04 C 1103.62 1128.64 1135.3 1102.59 1167.16 1076.89 C 1173.85 1071.49 1181.28 1065.22 1187.3 1059.14 C 1183.12 1021.22 1167.59 983.305 1136.59 959.431 C 1120.94 948.337 1106.29 938.617 1093.49 924.122 C 1046.83 871.269 1058.96 784.137 1113.21 740.881 C 1144.83 715.668 1173.95 703.502 1215.15 706.92 C 1266.42 711.173 1307.17 749.078 1324.95 795.821 C 1332.58 816.111 1336 837.302 1346.3 856.94 C 1353.56 870.769 1365.45 877.17 1373.76 887.057 C 1381.72 879.868 1393.06 867.64 1400.76 859.723 C 1432.45 827.039 1462.45 792.752 1490.64 756.996 C 1505.06 738.757 1518.42 721.928 1531.35 702.548 C 1548.16 676.682 1574.86 630.152 1585.89 601.602 C 1600.4 619.806 1626.04 649.191 1638.15 667.95 C 1649.67 658.767 1660.82 604.376 1661.99 588.502 C 1664.21 558.501 1654.25 516.309 1633.55 493.779 C 1624.72 480.99 1617.86 473.142 1605.96 462.78 C 1587.16 446.425 1572.98 444.913 1567.58 418.948 z M 1632.29 677.99 C 1639.73 681.676 1638.13 675.245 1636.91 670.05 C 1635.27 672.642 1633.84 675.346 1632.29 677.99 z" fill="rgb(250,222,172)" transform="translate(0,0)"></path>
<path d="M 1636.91 670.05 C 1638.13 675.245 1639.73 681.676 1632.29 677.99 C 1633.84 675.346 1635.27 672.642 1636.91 670.05 z" fill="rgb(250,222,172)" fill-opacity="0.921569" transform="translate(0,0)"></path>
<path d="M 1585.89 601.602 C 1600.4 619.806 1626.04 649.191 1638.15 667.95 L 1636.91 670.05 C 1635.27 672.642 1633.84 675.346 1632.29 677.99 C 1502.35 904.942 1215.95 1145.88 998.582 1289.73 C 920.91 1341.55 840.28 1388.8 757.103 1431.22 C 704.355 1458.93 649.98 1483.43 594.277 1504.59 C 586.628 1507.47 555.327 1519.95 549.333 1519.59 C 542.002 1512.04 530.684 1502.61 522.621 1495.05 C 507.772 1481.11 493.658 1466.41 480.335 1451 C 519.051 1441.93 547.119 1431.35 583.795 1420.45 C 589.218 1418.11 594.812 1415.86 600.332 1413.75 C 640.717 1398.26 680.159 1381.56 719.466 1363.48 C 843.829 1306.24 961.614 1235.68 1070.75 1153.04 C 1103.62 1128.64 1135.3 1102.59 1167.16 1076.89 C 1173.85 1071.49 1181.28 1065.22 1187.3 1059.14 C 1183.12 1021.22 1167.59 983.305 1136.59 959.431 C 1120.94 948.337 1106.29 938.617 1093.49 924.122 C 1046.83 871.269 1058.96 784.137 1113.21 740.881 C 1144.83 715.668 1173.95 703.502 1215.15 706.92 C 1266.42 711.173 1307.17 749.078 1324.95 795.821 C 1332.58 816.111 1336 837.302 1346.3 856.94 C 1353.56 870.769 1365.45 877.17 1373.76 887.057 C 1381.72 879.868 1393.06 867.64 1400.76 859.723 C 1432.45 827.039 1462.45 792.752 1490.64 756.996 C 1505.06 738.757 1518.42 721.928 1531.35 702.548 C 1548.16 676.682 1574.86 630.152 1585.89 601.602 z" fill="rgb(198,132,8)" transform="translate(0,0)"></path>
<path d="M 1187.3 1059.14 C 1183.12 1021.22 1167.59 983.305 1136.59 959.431 C 1120.94 948.337 1106.29 938.617 1093.49 924.122 C 1046.83 871.269 1058.96 784.137 1113.21 740.881 C 1144.83 715.668 1173.95 703.502 1215.15 706.92 C 1266.42 711.173 1307.17 749.078 1324.95 795.821 C 1332.58 816.111 1336 837.302 1346.3 856.94 C 1353.56 870.769 1365.45 877.17 1373.76 887.057 C 1347.7 914.214 1320.85 940.59 1293.23 966.15 C 1264.03 992.637 1234.17 1018.6 1204.45 1044.5 C 1198.83 1049.39 1192.78 1054.14 1187.3 1059.14 z" fill="rgb(250,222,172)" transform="translate(0,0)"></path>
<path d="M 300.395 1145.28 C 327.366 1101.63 370.519 1070.44 420.42 1058.51 C 518.012 1035.42 617.581 1096.61 639.771 1194.65 C 648.712 1234.19 643.259 1275.62 624.393 1311.5 C 602.578 1353.19 588.124 1370.47 583.795 1420.45 C 547.119 1431.35 519.051 1441.93 480.335 1451 C 463.337 1429.83 452.306 1413.72 440.904 1388.64 C 430.532 1365.82 422.684 1340.5 406.956 1320.91 C 405.503 1313.98 394.261 1297.93 391.498 1289.47 C 382.827 1262.92 375.585 1241.82 361.499 1217.2 C 340.422 1185.97 320.415 1174.36 300.395 1145.28 z" fill="rgb(250,222,172)" transform="translate(0,0)"></path>
<path d="M 1490.64 756.996 C 1457.94 699.141 1426.35 655.491 1372.99 612.534 C 1312.5 563.835 1240.95 527.408 1167.29 501.94 C 1141.12 495.714 1136.14 459.335 1158.78 445.849 C 1179.35 433.592 1226.82 456.978 1246.15 465.398 C 1353.64 512.23 1475.49 596.457 1531.35 702.548 C 1518.42 721.928 1505.06 738.757 1490.64 756.996 z" fill="rgb(250,222,172)" transform="translate(0,0)"></path>
<path d="M 361.499 1217.2 C 375.585 1241.82 382.827 1262.92 391.498 1289.47 C 394.261 1297.93 405.503 1313.98 406.956 1320.91 C 382.92 1365.3 369.305 1450.63 372.346 1501.29 C 349.37 1484.25 330.643 1453.7 305.554 1450.95 L 299.619 1449.43 C 297.749 1444.02 300.621 1430.11 301.411 1423.31 C 310.133 1348.23 333.34 1286.26 361.499 1217.2 z" fill="rgb(198,132,8)" transform="translate(0,0)"></path>
<path d="M 1411.65 453.807 C 1443.23 442.065 1534.23 421.291 1567.58 418.948 C 1572.98 444.913 1587.16 446.425 1605.96 462.78 C 1617.86 473.142 1624.72 480.99 1633.55 493.779 C 1597.58 488.21 1529.84 500.086 1494.4 510.268 C 1487.17 506.381 1470.07 494.054 1462.4 488.783 C 1446.27 477.705 1426.99 465.57 1411.65 453.807 z" fill="rgb(198,132,8)" transform="translate(0,0)"></path>
<metadata><recraft-signature>{"signed_by": "recraft", "signature_b64": "TrYqiji9o9Fo76d6B4roSuweELP7VrdCtJzpeoU0BP0NhuZw3e/fMnnDbiB0QD00Ls0psQPQqTYF/tzRX1joCA==", "signing_algo": "Ed25519", "generation_timestamp": 1781914967, "identifier": "e4748cee-5ef8-4fce-aa00-1cfb4cf46158"}</recraft-signature></metadata></svg>