<svg xmlns="http://www.w3.org/2000/svg" height="1024" preserveAspectRatio="none" style="display: block;" version="1.1" viewBox="0 0 2048 2048" width="1024">
<path d="M 538.962 1005.17 C 538.564 941.921 538.578 878.667 539.005 815.416 L 538.952 541.367 L 538.91 380.45 C 538.826 345.099 536.256 297.997 539.951 263.455 C 551.478 155.719 654.241 80.2628 761.109 111.101 C 801.763 122.787 836.949 155.044 857.317 191.544 C 868.785 212.26 876.334 234.914 879.584 258.368 C 883.704 287.249 882.297 339.747 882.311 370.993 L 882.388 560.357 C 882.399 570.46 881.267 638.323 884.179 642.714 C 913.883 618.008 960.538 614.458 996.718 623.687 L 999.11 624.38 C 1038.67 637.271 1066.7 662.15 1086.02 699.098 C 1090.32 707.339 1092.86 722.313 1097.45 724.34 L 1100.79 722.339 C 1098.73 725.346 1097.1 728.366 1094.03 730.219 C 1089.32 736.58 1084.72 743.021 1080.23 749.539 C 1113.49 754.036 1104.59 771.28 1112.42 776.064 C 1113.91 774.841 1115.37 773.292 1117.07 772.829 C 1130.11 763.161 1134.38 761.186 1149.51 754.665 C 1153.19 754.505 1157.66 752.796 1161.54 752.299 C 1183.85 749.449 1196.94 754.246 1214.9 766.897 C 1215.01 760.561 1228.56 756.858 1234 748.118 C 1243.04 733.597 1244.75 730.455 1243.39 713.499 C 1242.93 707.648 1241.19 701.969 1238.3 696.861 C 1237.6 695.608 1237.12 694.797 1236.48 693.495 C 1237.8 692.898 1238.63 692.737 1240.11 692.332 C 1281.15 709.642 1312.22 737.129 1329.33 778.794 C 1331.04 782.939 1335.67 798.05 1338.11 799.49 C 1337.53 800.801 1309.93 824.475 1306.23 828.158 C 1304.62 831.197 1304.35 831.501 1302.29 834.056 C 1314.08 838.203 1321.44 841.591 1327.52 853.686 C 1331.1 860.798 1329.59 867.163 1330.29 875.087 C 1332.09 875.416 1331.21 875.439 1332.95 875.047 C 1352.98 846.604 1388.88 838.764 1421.11 847.695 C 1425.7 847.234 1432.31 852.282 1436.49 854.813 C 1435.12 847.251 1433.84 839.375 1435.17 831.512 C 1437.27 819.105 1449.32 800.966 1459.85 793.98 C 1461.67 791.27 1468.38 787.65 1471.69 785.484 L 1472.13 783.249 C 1516.16 798.18 1554.33 832.454 1575.02 873.982 C 1584.09 892.176 1588.41 911.523 1593.36 931.088 L 1609.92 998.025 C 1617.89 1029.23 1625.18 1060.92 1633.19 1091.99 C 1686.51 1298.73 1659.05 1516.83 1524.02 1686.88 C 1527.59 1750.5 1503.55 1808.34 1461.23 1855.35 C 1414.77 1907.19 1349.75 1938.64 1280.26 1942.89 C 1237.36 1945.1 1184.91 1942.55 1140.98 1943.04 C 1101.72 1944.35 1056.91 1943.56 1017.18 1943.58 L 918.671 1943.53 C 897.101 1943.5 870.454 1944.16 849.308 1942.15 C 787.943 1936.5 730.519 1909.45 687.091 1865.73 C 640.387 1819.61 614.125 1756.68 614.181 1691.04 C 579.754 1672.77 546.391 1643.49 519.553 1615.72 C 437.602 1530.94 392.461 1421.44 397.054 1302.62 C 400.809 1205.46 438.135 1118.95 500.396 1044.38 C 512.28 1030.15 525.533 1017.84 538.962 1005.17 z M 666.145 1007.41 C 674.646 1016.31 670.682 1009.1 672.343 1002 C 672.978 999.284 672.54 999.05 672.338 996.386 L 671.131 994.743 C 667.24 995.633 663.63 996.558 659.773 997.557 C 661.205 1002.38 661.457 1005.22 664.307 1009.71 L 666.145 1007.41 z M 1231.19 790.447 L 1230.98 789.108 C 1230.41 784.923 1224.75 783.396 1221.25 782.875 L 1221.78 784.437 C 1221.84 784.615 1221.89 784.794 1221.94 784.972 C 1222.53 786.727 1223.82 788.16 1225.5 788.934 C 1228.15 790.137 1228.63 790.399 1231.19 790.447 z M 1451.31 884.109 C 1457.54 881.802 1455.47 880.003 1450.92 875.91 C 1448.51 878.827 1442.83 883.063 1449.4 883.838 C 1450.04 883.917 1450.68 884.008 1451.31 884.109 z M 961.483 1814.08 C 960.589 1813.06 959.667 1812.06 958.717 1811.08 C 944.678 1796.85 918.759 1801.17 898.412 1801.29 C 914.314 1789.24 924.697 1773.17 912.587 1753.74 C 900.487 1734.32 874.698 1737.93 854.82 1736.57 C 806.188 1733.24 757.694 1719.44 714.982 1695.82 C 692.107 1683.12 671.439 1655.02 643.173 1677.5 C 635.81 1683.35 632.733 1690.67 631.938 1699.96 C 628.61 1738.8 681.291 1744.55 704.026 1764.89 C 704.323 1765.28 704.619 1765.66 704.916 1766.05 C 706.674 1781.61 736.786 1812.18 749.014 1821.99 C 781.053 1847.4 819.86 1862.83 860.602 1866.34 C 880.229 1867.94 901.193 1866.37 920.991 1867.17 C 936.007 1867.78 951.213 1868.3 961.692 1855.48 C 967.241 1848.71 969.797 1839.97 968.771 1831.27 C 968.049 1825.11 965.187 1819.01 961.483 1814.08 z" fill="rgb(250,174,60)" transform="translate(0,0)"></path>
<path d="M 672.338 996.386 C 672.54 999.05 672.978 999.284 672.343 1002 C 670.682 1009.1 674.646 1016.31 666.145 1007.41 C 664.056 1001.97 664.479 997.776 670.686 996.703 L 672.338 996.386 z" fill="rgb(234,217,187)" fill-opacity="0.898039" transform="translate(0,0)"></path>
<path d="M 659.773 997.557 C 663.63 996.558 667.24 995.633 671.131 994.743 L 672.338 996.386 L 670.686 996.703 C 664.479 997.776 664.056 1001.97 666.145 1007.41 L 664.307 1009.71 C 661.457 1005.22 661.205 1002.38 659.773 997.557 z" fill="rgb(234,217,187)" fill-opacity="0.988235" transform="translate(0,0)"></path>
<path d="M 884.179 642.714 C 913.883 618.008 960.538 614.458 996.718 623.687 L 999.11 624.38 C 1038.67 637.271 1066.7 662.15 1086.02 699.098 C 1090.32 707.339 1092.86 722.313 1097.45 724.34 L 1100.79 722.339 C 1098.73 725.346 1097.1 728.366 1094.03 730.219 C 1089.32 736.58 1084.72 743.021 1080.23 749.539 C 1113.49 754.036 1104.59 771.28 1112.42 776.064 C 1113.91 774.841 1115.37 773.292 1117.07 772.829 C 1130.11 763.161 1134.38 761.186 1149.51 754.665 C 1153.19 754.505 1157.66 752.796 1161.54 752.299 C 1183.85 749.449 1196.94 754.246 1214.9 766.897 C 1215.01 760.561 1228.56 756.858 1234 748.118 C 1243.04 733.597 1244.75 730.455 1243.39 713.499 C 1242.93 707.648 1241.19 701.969 1238.3 696.861 C 1237.6 695.608 1237.12 694.797 1236.48 693.495 C 1237.8 692.898 1238.63 692.737 1240.11 692.332 C 1281.15 709.642 1312.22 737.129 1329.33 778.794 C 1331.04 782.939 1335.67 798.05 1338.11 799.49 C 1337.53 800.801 1309.93 824.475 1306.23 828.158 C 1304.62 831.197 1304.35 831.501 1302.29 834.056 C 1314.08 838.203 1321.44 841.591 1327.52 853.686 C 1331.1 860.798 1329.59 867.163 1330.29 875.087 C 1332.09 875.416 1331.21 875.439 1332.95 875.047 C 1325.45 886.458 1321.04 903.004 1317.4 916.128 C 1307.89 950.408 1298.32 984.643 1288.4 1018.81 L 1265.51 1098.32 C 1260.75 1114.67 1252.45 1134.83 1253.18 1151.61 C 1253.53 1159.68 1261.65 1166.28 1264.06 1171.28 C 1260.01 1169.9 1258.56 1167.2 1255.5 1163.63 C 1262.86 1189.38 1269.89 1210.24 1297.16 1220.84 L 1297.2 1222.45 C 1264.8 1214.23 1256.61 1175.38 1250.61 1148.02 C 1241.78 1173.75 1243.36 1195.92 1259 1219.15 C 1272.42 1239.08 1292.08 1252.51 1315.95 1256.6 C 1332.43 1259.54 1349.39 1257.77 1364.91 1251.52 C 1402.17 1236.52 1410.63 1211.26 1421.42 1176.22 L 1435.91 1127.79 L 1470.85 1007.43 C 1474.35 995.473 1479.44 975.63 1486.07 966.113 C 1498.6 948.122 1527.04 956.445 1535.49 974.432 C 1544.39 993.366 1538.03 1007.03 1532.38 1024.38 C 1539.8 1048.58 1548.25 1092.86 1553.35 1118.41 C 1553.41 1119.25 1553.4 1119.27 1553.67 1120.07 C 1555.2 1130.03 1557.17 1139.94 1558.66 1149.79 L 1557.04 1150.18 C 1549.59 1104.99 1540.07 1069.47 1531.54 1026.31 L 1498.98 1138.31 C 1480.38 1203.24 1469.02 1269.18 1403.4 1304.63 C 1369.56 1322.91 1326.93 1327.71 1289.7 1316.86 C 1248.25 1303.65 1224.47 1281.13 1202.6 1245.28 C 1191.64 1255.24 1181.29 1264.69 1168.11 1271.76 C 1102.38 1306.96 1022.4 1277.5 978.846 1221.85 C 962.848 1235.48 952.545 1242.7 934.429 1253.83 C 1021.69 1275.22 1091.73 1327.22 1138.16 1403.81 C 1153.94 1429.86 1190.34 1509.68 1182.88 1539.4 C 1180.78 1547.77 1175.41 1555.2 1167.78 1559.35 C 1156.47 1565.5 1143.61 1562.84 1132.02 1559.03 C 1112.69 1552.68 1097.18 1541.14 1088.01 1522.69 C 1080.75 1508.1 1077.8 1491.84 1071.2 1476.99 C 1048.68 1426.31 1004.89 1382.97 954.528 1359.98 C 892.896 1334.36 848.478 1330.44 784.46 1350.02 C 758.029 1359.85 742.575 1368.68 720.555 1385.93 C 704.45 1398.33 685.974 1404.64 665.593 1401.6 C 648.458 1400.17 629.152 1381.68 634.865 1363.25 C 645.759 1328.09 693.351 1302.97 722.284 1284.97 C 694.875 1276.13 641.183 1256.02 630.52 1224.38 C 628.084 1217.15 629.918 1205.91 634.097 1199.37 C 641.655 1187.54 654.234 1184.52 667.094 1181.66 C 674.245 1180.27 684.344 1179.73 691.247 1182.29 C 693.906 1182.88 696.578 1183.35 699.094 1184.37 C 753.693 1200.72 793.076 1205.53 849.119 1187.93 C 857.655 1184.43 863.608 1181.6 871.62 1176.94 C 875.043 1174.95 882.826 1169.65 885.965 1168.6 C 918.516 1139.82 939.232 1112.07 938.629 1065.22 C 938.302 1039.86 932.009 1043.11 941.092 1015.18 C 937.222 1012.28 930.811 1006.58 926.233 1006.88 C 924.171 1007.02 923.128 1008.87 921.304 1010.7 C 923.185 1006.72 923.693 1007.36 923.014 1003.91 C 890.719 987.078 856.297 989.492 820.809 989.524 C 771.527 989.568 719.629 986.013 671.131 994.743 C 667.24 995.633 663.63 996.558 659.773 997.557 C 661.205 1002.38 661.457 1005.22 664.307 1009.71 L 665.895 1013.67 C 661.88 1011.25 659.53 1002.58 658.037 998.077 C 646.575 1002.04 636.325 1006.59 625.725 1012.49 C 608.826 1021.88 592.475 1037.86 572 1027.42 C 559.711 1021.15 553.893 1010.16 549.566 997.752 C 551.703 988.449 555.365 980.634 561.958 973.614 C 584.342 949.781 662.062 928.293 695.133 924.471 C 716.495 922.003 738.458 923.093 759.955 922.733 C 765.307 901.123 770.798 879.548 776.427 858.009 C 784.301 827.272 787.561 815.462 787.136 783.699 L 789.057 790.423 L 789.568 800.833 C 796.179 781.332 800.057 756.457 805.875 736.31 C 814.468 706.556 810.943 689.036 845.968 680.391 C 847.861 678.549 849.881 676.816 851.859 675.061 C 849.313 676.082 885.042 641.261 884.179 642.714 z M 1231.19 790.447 L 1230.98 789.108 C 1230.41 784.923 1224.75 783.396 1221.25 782.875 L 1221.78 784.437 C 1221.84 784.615 1221.89 784.794 1221.94 784.972 C 1222.53 786.727 1223.82 788.16 1225.5 788.934 C 1228.15 790.137 1228.63 790.399 1231.19 790.447 z" fill="rgb(93,54,4)" transform="translate(0,0)"></path>
<path d="M 884.179 642.714 C 913.883 618.008 960.538 614.458 996.718 623.687 L 999.11 624.38 C 1038.67 637.271 1066.7 662.15 1086.02 699.098 C 1090.32 707.339 1092.86 722.313 1097.45 724.34 L 1100.79 722.339 C 1098.73 725.346 1097.1 728.366 1094.03 730.219 C 1087.41 734.77 1082.8 742.978 1078.62 749.785 C 1068.29 752.755 1052.82 758.376 1048.2 768.472 C 1040.89 784.432 1037.15 808.293 1032.54 825.761 C 1019.14 876.519 1008.28 928.793 993.83 979.151 C 978.596 964.244 974.07 962.233 957.944 950.164 C 942.304 941.779 927.765 935.352 910.517 930.809 C 903.707 929.016 893.865 928.045 887.922 926.184 L 886.414 925.696 C 878.517 926.97 833.363 925.443 824.188 925.205 C 829.45 907.561 834.436 885.693 838.961 867.695 C 846.161 838.821 853.531 809.989 861.07 781.201 C 865.567 763.646 872.418 732.853 879.528 717.307 C 877.983 701.309 875.68 690.815 858.469 683.586 C 855.617 682.388 851.143 682.081 849.022 680.139 L 851.859 675.061 C 849.313 676.082 885.042 641.261 884.179 642.714 z" fill="rgb(234,217,187)" transform="translate(0,0)"></path>
<path d="M 996.718 623.687 L 999.11 624.38 C 1038.67 637.271 1066.7 662.15 1086.02 699.098 C 1090.32 707.339 1092.86 722.313 1097.45 724.34 L 1100.79 722.339 C 1098.73 725.346 1097.1 728.366 1094.03 730.219 C 1087.41 734.77 1082.8 742.978 1078.62 749.785 C 1068.29 752.755 1052.82 758.376 1048.2 768.472 C 1040.89 784.432 1037.15 808.293 1032.54 825.761 C 1019.14 876.519 1008.28 928.793 993.83 979.151 C 978.596 964.244 974.07 962.233 957.944 950.164 C 960.341 940.058 962.969 930.008 965.825 920.022 L 967.254 920.325 C 976.881 885.162 986.207 849.917 995.229 814.594 C 999.462 797.942 1004.02 781.006 1007.31 764.192 C 1009.28 754.121 1008.51 725.698 999.758 719.558 C 989.176 708.634 990.403 702.135 972.527 691.442 C 985.346 690.037 993.372 674.07 999.269 664.003 C 1001.05 646.388 1004.52 641.689 996.718 623.687 z" fill="rgb(191,120,7)" transform="translate(0,0)"></path>
<path d="M 996.718 623.687 L 999.11 624.38 C 1001.88 630.649 1001.75 629.449 1003.15 636.035 C 1004.31 641.451 1004.93 661.679 999.269 664.003 C 1001.05 646.388 1004.52 641.689 996.718 623.687 z" fill="rgb(143,91,25)" transform="translate(0,0)"></path>
<path d="M 999.758 719.558 C 1008.51 725.698 1009.28 754.121 1007.31 764.192 C 1004.02 781.006 999.462 797.942 995.229 814.594 C 986.207 849.917 976.881 885.162 967.254 920.325 L 965.825 920.022 C 962.969 930.008 960.341 940.058 957.944 950.164 C 942.304 941.779 927.765 935.352 910.517 930.809 C 903.707 929.016 893.865 928.045 887.922 926.184 L 886.414 925.696 C 887.102 920.285 891.209 905.518 892.67 899.726 C 897.111 882.047 901.669 864.398 906.344 846.779 C 912.514 823.336 918.07 799.771 924.058 776.286 C 931.099 748.669 951.599 734.514 978.525 729.253 C 985.311 726.201 994.69 725.694 999.666 722.786 L 999.758 719.558 z" fill="rgb(250,174,60)" transform="translate(0,0)"></path>
<path d="M 999.758 719.558 C 1008.51 725.698 1009.28 754.121 1007.31 764.192 C 1004.02 781.006 999.462 797.942 995.229 814.594 C 986.207 849.917 976.881 885.162 967.254 920.325 L 965.825 920.022 C 974.36 884.133 985.043 848.441 993.723 812.531 C 1001.62 779.869 1011.54 758.931 1001.8 725.297 C 993.248 726.025 986.738 728.796 978.525 729.253 C 985.311 726.201 994.69 725.694 999.666 722.786 L 999.758 719.558 z" fill="rgb(143,91,25)" transform="translate(0,0)"></path>
<path d="M 884.179 642.714 C 913.883 618.008 960.538 614.458 996.718 623.687 C 1004.52 641.689 1001.05 646.388 999.269 664.003 C 993.372 674.07 985.346 690.037 972.527 691.442 C 937.031 675.944 902.915 687.19 879.528 717.307 C 877.983 701.309 875.68 690.815 858.469 683.586 C 855.617 682.388 851.143 682.081 849.022 680.139 L 851.859 675.061 C 849.313 676.082 885.042 641.261 884.179 642.714 z" fill="rgb(250,174,60)" transform="translate(0,0)"></path>
<path d="M 1149.51 754.665 C 1153.19 754.505 1157.66 752.796 1161.54 752.299 C 1183.85 749.449 1196.94 754.246 1214.9 766.897 C 1225.47 776.347 1228.17 779.855 1236.1 791.768 L 1237.25 791.993 C 1246.95 809.078 1246.91 827.764 1241.52 845.985 C 1235.47 866.434 1229.37 886.899 1223.32 907.341 L 1180.17 1050.57 L 1163.02 1106.28 C 1156.44 1128.09 1146.39 1169.87 1119.92 1176.45 L 1117.78 1177.34 C 1101.53 1182.57 1094.99 1185.31 1077.49 1182.99 C 1072.78 1182.39 1068.18 1181.14 1063.81 1179.28 C 1062.63 1178.79 1061.93 1178.55 1060.65 1178.19 L 1060.48 1179.38 C 1048.15 1174.25 1039.38 1165.84 1033.54 1153.87 C 1031.58 1149.83 1031.76 1147.93 1028.45 1151.08 C 1026.2 1149.74 1029.98 1145.52 1030.49 1145.53 C 1045.9 1123.02 1042.4 1072.57 1036.28 1047.19 C 1043.39 1026.76 1049.15 1004.17 1055.07 983.205 L 1084.11 880.21 C 1089.81 859.81 1095.63 839.441 1101.55 819.102 C 1105.45 805.701 1110.12 792.176 1112.41 778.466 C 1114.06 776.605 1115.52 774.766 1117.07 772.829 C 1130.11 763.161 1134.38 761.186 1149.51 754.665 z M 1231.19 790.447 L 1230.98 789.108 C 1230.41 784.923 1224.75 783.396 1221.25 782.875 L 1221.78 784.437 C 1221.84 784.615 1221.89 784.794 1221.94 784.972 C 1222.53 786.727 1223.82 788.16 1225.5 788.934 C 1228.15 790.137 1228.63 790.399 1231.19 790.447 z" fill="rgb(250,174,60)" transform="translate(0,0)"></path>
<path d="M 1149.51 754.665 C 1153.19 754.505 1157.66 752.796 1161.54 752.299 C 1183.85 749.449 1196.94 754.246 1214.9 766.897 C 1225.47 776.347 1228.17 779.855 1236.1 791.768 C 1223.61 791.652 1199.83 796.112 1188.68 802.37 C 1156.96 809.161 1146.65 874.942 1139.12 901.732 C 1122.58 960.278 1106.42 1018.93 1090.66 1077.69 C 1085.45 1096.42 1081 1118.37 1072.49 1135.87 C 1070.06 1140.88 1062.45 1145.56 1057.7 1148.32 C 1048.1 1149.31 1037.45 1156.06 1030.49 1145.53 C 1045.9 1123.02 1042.4 1072.57 1036.28 1047.19 C 1043.39 1026.76 1049.15 1004.17 1055.07 983.205 L 1084.11 880.21 C 1089.81 859.81 1095.63 839.441 1101.55 819.102 C 1105.45 805.701 1110.12 792.176 1112.41 778.466 C 1114.06 776.605 1115.52 774.766 1117.07 772.829 C 1130.11 763.161 1134.38 761.186 1149.51 754.665 z M 1231.19 790.447 L 1230.98 789.108 C 1230.41 784.923 1224.75 783.396 1221.25 782.875 L 1221.78 784.437 C 1221.84 784.615 1221.89 784.794 1221.94 784.972 C 1222.53 786.727 1223.82 788.16 1225.5 788.934 C 1228.15 790.137 1228.63 790.399 1231.19 790.447 z" fill="rgb(234,217,187)" transform="translate(0,0)"></path>
<path d="M 1221.25 782.875 C 1224.75 783.396 1230.41 784.923 1230.98 789.108 L 1231.19 790.447 C 1228.63 790.399 1228.15 790.137 1225.5 788.934 C 1223.82 788.16 1222.53 786.727 1221.94 784.972 C 1221.89 784.794 1221.84 784.615 1221.78 784.437 L 1221.25 782.875 z" fill="rgb(234,217,187)" fill-opacity="0.258824" transform="translate(0,0)"></path>
<path d="M 1236.1 791.768 L 1237.25 791.993 C 1246.95 809.078 1246.91 827.764 1241.52 845.985 C 1235.47 866.434 1229.37 886.899 1223.32 907.341 L 1180.17 1050.57 L 1163.02 1106.28 C 1156.44 1128.09 1146.39 1169.87 1119.92 1176.45 C 1154.54 1151.59 1154.36 1127.65 1166.19 1089.08 C 1178.16 1050.96 1189.81 1012.75 1201.15 974.442 C 1210.41 944.355 1219.47 914.209 1228.35 884.006 C 1238.13 851.353 1250.63 827.295 1236.2 793.948 C 1217.54 793.598 1206.32 797.71 1188.68 802.37 C 1199.83 796.112 1223.61 791.652 1236.1 791.768 z" fill="rgb(143,91,25)" transform="translate(0,0)"></path>
<path d="M 1028.45 1151.08 C 1026.2 1149.74 1029.98 1145.52 1030.49 1145.53 C 1037.45 1156.06 1048.1 1149.31 1057.7 1148.32 C 1054.37 1152.86 1039.17 1151.73 1033.89 1151.64 C 1041.25 1164.87 1046.86 1171.21 1060.65 1178.19 L 1060.48 1179.38 C 1048.15 1174.25 1039.38 1165.84 1033.54 1153.87 C 1031.58 1149.83 1031.76 1147.93 1028.45 1151.08 z" fill="rgb(63,32,4)" transform="translate(0,0)"></path>
<path d="M 1240.11 692.332 C 1281.15 709.642 1312.22 737.129 1329.33 778.794 C 1331.04 782.939 1335.67 798.05 1338.11 799.49 C 1337.53 800.801 1309.93 824.475 1306.23 828.158 C 1303.18 829.37 1301.72 831.944 1299.63 834.618 C 1276.99 836.977 1269.93 848.599 1264.33 868.802 C 1261 880.808 1257.84 893.241 1254.39 905.208 L 1202.93 1083.57 C 1195.7 1108.54 1181.49 1168.03 1169.37 1188.55 C 1145.15 1229.56 1080.99 1234.36 1046.54 1203.45 C 1035.39 1194.63 1027.42 1186.52 1017.87 1176.09 C 1020.43 1170.88 1028.36 1155.96 1028.45 1151.08 C 1031.76 1147.93 1031.58 1149.83 1033.54 1153.87 C 1039.38 1165.84 1048.15 1174.25 1060.48 1179.38 L 1060.65 1178.19 C 1061.93 1178.55 1062.63 1178.79 1063.81 1179.28 C 1068.18 1181.14 1072.78 1182.39 1077.49 1182.99 C 1094.99 1185.31 1101.53 1182.57 1117.78 1177.34 L 1119.92 1176.45 C 1146.39 1169.87 1156.44 1128.09 1163.02 1106.28 L 1180.17 1050.57 L 1223.32 907.341 C 1229.37 886.899 1235.47 866.434 1241.52 845.985 C 1246.91 827.764 1246.95 809.078 1237.25 791.993 L 1236.1 791.768 C 1228.17 779.855 1225.47 776.347 1214.9 766.897 C 1215.01 760.561 1228.56 756.858 1234 748.118 C 1243.04 733.597 1244.75 730.455 1243.39 713.499 C 1242.93 707.648 1241.19 701.969 1238.3 696.861 C 1237.6 695.608 1237.12 694.797 1236.48 693.495 C 1237.8 692.898 1238.63 692.737 1240.11 692.332 z" fill="rgb(191,120,7)" transform="translate(0,0)"></path>
<path d="M 1060.65 1178.19 C 1061.93 1178.55 1062.63 1178.79 1063.81 1179.28 C 1068.18 1181.14 1072.78 1182.39 1077.49 1182.99 C 1094.99 1185.31 1101.53 1182.57 1117.78 1177.34 C 1106.76 1187.82 1072.14 1188.77 1060.48 1179.38 L 1060.65 1178.19 z" fill="rgb(143,91,25)" transform="translate(0,0)"></path>
<path d="M 783.672 1348.59 C 769.62 1353.62 755.553 1359.86 742.999 1367.99 C 720.021 1382.88 702.086 1402.8 672.186 1401.22 L 671.062 1400.39 C 673.935 1397.25 684.102 1395.24 686.558 1391.82 C 722.592 1341.71 783.458 1312.39 845.493 1308.07 C 915.894 1303.18 986.258 1331.49 1039.19 1380 C 1075.88 1413.88 1102.14 1457.53 1114.9 1505.82 C 1119.67 1524.33 1120.47 1541.73 1131.46 1556.81 C 1124.91 1554.73 1120.57 1553.65 1114.93 1549.47 C 1114.19 1549.15 1114.35 1549.22 1113.7 1548.61 C 1110.82 1546.97 1108.44 1544.71 1105.91 1542.54 C 1103.22 1538.68 1100.27 1536.13 1096.68 1533.11 C 1084.13 1517.24 1081.88 1497.44 1074.1 1479.2 C 1068.29 1465.59 1061.12 1453.74 1053.38 1441.27 C 1052.77 1440.67 1052.82 1440.79 1052.48 1440.04 L 1048.38 1434.31 C 1047.84 1433.79 1047.83 1433.82 1047.49 1433.16 L 1044.37 1429.22 C 1043.83 1428.57 1043.81 1428.57 1043.46 1427.79 L 1041.45 1425.59 C 1040.86 1424.71 1040.96 1424.89 1040.57 1424.08 C 1029.15 1411.54 1020.19 1402.74 1007.85 1391.31 C 1006.62 1390.76 1006.64 1390.86 1005.87 1389.81 C 1003.26 1387.89 1000.6 1385.65 998.074 1383.59 C 997.396 1383.22 997.275 1383.26 996.892 1382.7 L 991.067 1378.63 C 990.419 1378.27 990.342 1378.3 989.807 1377.78 C 977.646 1370.03 968.728 1364.24 955.327 1358.6 L 954.528 1359.98 C 892.896 1334.36 848.478 1330.44 784.46 1350.02 L 783.672 1348.59 z" fill="rgb(191,120,7)" transform="translate(0,0)"></path>
<path d="M 829.614 1337.12 C 866.523 1334.37 891.579 1335.39 927.474 1347.57 C 935.834 1350.41 947.78 1354.43 955.327 1358.6 L 954.528 1359.98 C 892.896 1334.36 848.478 1330.44 784.46 1350.02 L 783.672 1348.59 C 795.214 1343.21 814.503 1339.54 827.138 1337.51 C 828.138 1337.28 828.565 1337.24 829.614 1337.12 z" fill="rgb(143,91,25)" transform="translate(0,0)"></path>
<path d="M 942.477 1016.26 C 990.213 1063.09 987.281 1132.28 940.07 1178.43 C 884.112 1233.13 794.978 1244.11 723.287 1217.56 C 700.411 1209.09 687.447 1197.65 667.268 1185.21 L 666.712 1183.81 C 668.348 1183.09 668.092 1183.01 669.794 1182.82 L 667.094 1181.66 C 674.245 1180.27 684.344 1179.73 691.247 1182.29 C 693.906 1182.88 696.578 1183.35 699.094 1184.37 C 753.693 1200.72 793.076 1205.53 849.119 1187.93 C 857.655 1184.43 863.608 1181.6 871.62 1176.94 C 875.043 1174.95 882.826 1169.65 885.965 1168.6 C 887.48 1168.07 888.397 1167.68 889.711 1166.71 C 918.376 1145.63 932.68 1118.45 939.292 1084.66 C 939.744 1082.87 939.969 1082.22 939.814 1080.38 C 942.049 1054.1 933.121 1040.41 942.477 1016.26 z" fill="rgb(191,120,7)" transform="translate(0,0)"></path>
<path d="M 849.119 1187.93 L 849.407 1189.58 C 812.738 1202.91 767.746 1203.37 729.994 1195.15 C 724.273 1193.91 701.878 1188.67 699.094 1184.37 C 753.693 1200.72 793.076 1205.53 849.119 1187.93 z" fill="rgb(143,91,25)" transform="translate(0,0)"></path>
<path d="M 1096.68 1533.11 C 1100.27 1536.13 1103.22 1538.68 1105.91 1542.54 C 1101.83 1539.34 1099.76 1537.2 1096.68 1533.11 z" fill="rgb(166,110,30)" transform="translate(0,0)"></path>
<path d="M 939.814 1080.38 C 939.969 1082.22 939.744 1082.87 939.292 1084.66 C 938.973 1082.46 938.841 1082.27 939.814 1080.38 z" fill="rgb(143,91,25)" transform="translate(0,0)"></path>
<path d="M 1472.13 783.249 C 1516.16 798.18 1554.33 832.454 1575.02 873.982 C 1584.09 892.176 1588.41 911.523 1593.36 931.088 L 1609.92 998.025 C 1617.89 1029.23 1625.18 1060.92 1633.19 1091.99 C 1686.51 1298.73 1659.05 1516.83 1524.02 1686.88 C 1527.59 1750.5 1503.55 1808.34 1461.23 1855.35 C 1414.77 1907.19 1349.75 1938.64 1280.26 1942.89 C 1237.36 1945.1 1184.91 1942.55 1140.98 1943.04 C 1142.12 1940.39 1143.38 1936.59 1144.4 1933.8 C 1146.32 1932.64 1156.65 1911.47 1159.85 1907.13 C 1167.77 1896.46 1177.71 1887.45 1189.12 1880.64 C 1222.13 1860.94 1252.1 1870.21 1287.74 1864.62 C 1300.05 1862.69 1311.66 1859.97 1323.22 1855.35 L 1322.56 1853.93 C 1361.77 1838.42 1399.98 1807.53 1417.46 1768.66 C 1368.08 1787.52 1317.43 1804.49 1263.72 1800.86 C 1235.71 1798.96 1224.65 1746.7 1258.65 1736.67 C 1279.82 1730.42 1313.24 1734.89 1332.24 1726.32 C 1364.06 1711.96 1396.22 1687.68 1421.61 1663.91 C 1428.49 1657.32 1442.16 1641.05 1448.05 1636.9 C 1449.63 1633.51 1455.97 1626.05 1458.97 1623.79 C 1464.07 1615.74 1472.02 1606.8 1477.76 1598.64 C 1544.01 1504.38 1571.23 1393.09 1569.78 1278.88 C 1569.21 1234.09 1563.95 1193.71 1557.04 1150.18 L 1558.66 1149.79 C 1557.17 1139.94 1555.2 1130.03 1553.67 1120.07 C 1553.4 1119.27 1553.41 1119.25 1553.35 1118.41 C 1548.25 1092.86 1539.8 1048.58 1532.38 1024.38 C 1538.03 1007.03 1544.39 993.366 1535.49 974.432 C 1527.04 956.445 1498.6 948.122 1486.07 966.113 C 1479.44 975.63 1474.35 995.473 1470.85 1007.43 L 1435.91 1127.79 L 1421.42 1176.22 C 1410.63 1211.26 1402.17 1236.52 1364.91 1251.52 C 1349.39 1257.77 1332.43 1259.54 1315.95 1256.6 C 1292.08 1252.51 1272.42 1239.08 1259 1219.15 C 1243.36 1195.92 1241.78 1173.75 1250.61 1148.02 C 1256.61 1175.38 1264.8 1214.23 1297.2 1222.45 L 1297.16 1220.84 C 1269.89 1210.24 1262.86 1189.38 1255.5 1163.63 C 1258.56 1167.2 1260.01 1169.9 1264.06 1171.28 C 1261.65 1166.28 1253.53 1159.68 1253.18 1151.61 C 1252.45 1134.83 1260.75 1114.67 1265.51 1098.32 L 1288.4 1018.81 C 1298.32 984.643 1307.89 950.408 1317.4 916.128 C 1321.04 903.004 1325.45 886.458 1332.95 875.047 C 1352.98 846.604 1388.88 838.764 1421.11 847.695 C 1425.7 847.234 1432.31 852.282 1436.49 854.813 C 1435.12 847.251 1433.84 839.375 1435.17 831.512 C 1437.27 819.105 1449.32 800.966 1459.85 793.98 C 1461.67 791.27 1468.38 787.65 1471.69 785.484 L 1472.13 783.249 z M 1451.31 884.109 C 1457.54 881.802 1455.47 880.003 1450.92 875.91 C 1448.51 878.827 1442.83 883.063 1449.4 883.838 C 1450.04 883.917 1450.68 884.008 1451.31 884.109 z" fill="rgb(191,120,7)" transform="translate(0,0)"></path>
<path d="M 1332.95 875.047 C 1352.98 846.604 1388.88 838.764 1421.11 847.695 C 1423.47 849.409 1428.13 851.393 1431 852.994 C 1447.16 861.999 1452.15 870.177 1461.59 884.939 L 1461.97 887.204 L 1462.4 889.157 C 1466.8 909.883 1462.23 914.361 1456.32 933.953 C 1447.76 962.349 1438.24 990.38 1429.4 1018.69 L 1395.12 1132.27 C 1388.91 1152.69 1383.4 1178.07 1372.7 1196.2 C 1366.46 1206.77 1358.5 1210.5 1350.04 1217.56 C 1347.87 1217.48 1338.74 1221.32 1335.53 1222.21 C 1323.33 1225.6 1315.29 1225.44 1303.02 1222.68 C 1301.03 1222.21 1299.07 1221.59 1297.16 1220.84 C 1269.89 1210.24 1262.86 1189.38 1255.5 1163.63 C 1258.56 1167.2 1260.01 1169.9 1264.06 1171.28 C 1261.65 1166.28 1253.53 1159.68 1253.18 1151.61 C 1252.45 1134.83 1260.75 1114.67 1265.51 1098.32 L 1288.4 1018.81 C 1298.32 984.643 1307.89 950.408 1317.4 916.128 C 1321.04 903.004 1325.45 886.458 1332.95 875.047 z M 1451.31 884.109 C 1457.54 881.802 1455.47 880.003 1450.92 875.91 C 1448.51 878.827 1442.83 883.063 1449.4 883.838 C 1450.04 883.917 1450.68 884.008 1451.31 884.109 z" fill="rgb(250,174,60)" transform="translate(0,0)"></path>
<path d="M 1332.95 875.047 C 1352.98 846.604 1388.88 838.764 1421.11 847.695 C 1423.47 849.409 1428.13 851.393 1431 852.994 C 1447.16 861.999 1452.15 870.177 1461.59 884.939 L 1461.97 887.204 L 1462.4 889.157 C 1444.92 889.579 1422.51 892.742 1406.56 900.216 C 1401.99 902.356 1398.75 905.644 1393.95 907.728 C 1377.7 918.325 1367.01 967.261 1361.43 985.721 L 1324.63 1110.11 C 1315.18 1142.39 1310.45 1191.71 1264.06 1171.28 C 1261.65 1166.28 1253.53 1159.68 1253.18 1151.61 C 1252.45 1134.83 1260.75 1114.67 1265.51 1098.32 L 1288.4 1018.81 C 1298.32 984.643 1307.89 950.408 1317.4 916.128 C 1321.04 903.004 1325.45 886.458 1332.95 875.047 z M 1451.31 884.109 C 1457.54 881.802 1455.47 880.003 1450.92 875.91 C 1448.51 878.827 1442.83 883.063 1449.4 883.838 C 1450.04 883.917 1450.68 884.008 1451.31 884.109 z" fill="rgb(234,217,187)" transform="translate(0,0)"></path>
<path d="M 1461.97 887.204 L 1462.4 889.157 C 1444.92 889.579 1422.51 892.742 1406.56 900.216 C 1401.99 902.356 1398.75 905.644 1393.95 907.728 C 1404.21 896.409 1426.58 890.408 1441.5 888.995 L 1461.97 887.204 z" fill="rgb(166,110,30)" transform="translate(0,0)"></path>
<path d="M 1450.92 875.91 C 1455.47 880.003 1457.54 881.802 1451.31 884.109 C 1450.68 884.008 1450.04 883.917 1449.4 883.838 C 1442.83 883.063 1448.51 878.827 1450.92 875.91 z" fill="rgb(234,217,187)" fill-opacity="0.929412" transform="translate(0,0)"></path>
<path d="M 1417.46 1768.66 C 1368.08 1787.52 1317.43 1804.49 1263.72 1800.86 C 1235.71 1798.96 1224.65 1746.7 1258.65 1736.67 C 1279.82 1730.42 1313.24 1734.89 1332.24 1726.32 C 1364.06 1711.96 1396.22 1687.68 1421.61 1663.91 C 1428.49 1657.32 1442.16 1641.05 1448.05 1636.9 C 1447.57 1641.7 1419.87 1667.52 1415.01 1672.37 C 1413.37 1673.7 1412.21 1674.42 1410.97 1676.11 L 1405.21 1680.97 C 1403.7 1682.02 1403.52 1682.28 1402.27 1683.64 L 1401.42 1684.18 C 1399.33 1685.62 1399.02 1685.83 1397.23 1687.57 L 1395.85 1688.55 C 1394.62 1689.42 1394.38 1689.66 1393.29 1690.71 L 1391.88 1691.57 C 1390.64 1692.41 1390.36 1692.67 1389.26 1693.68 L 1387.87 1694.55 C 1386.24 1695.64 1386.26 1695.73 1384.73 1697.19 L 1383.39 1698.15 C 1382.72 1699.05 1382.3 1699.2 1381.35 1699.84 C 1380.15 1700.38 1380.19 1700.38 1379.12 1701.17 C 1375.47 1703.56 1371.41 1706.09 1367.88 1708.58 C 1367.2 1708.83 1367.27 1708.84 1366.68 1709.33 C 1357.56 1714.62 1348.11 1719.95 1339.08 1725.35 C 1377.65 1714.02 1412.64 1700.6 1446.63 1678.66 C 1454.98 1673.98 1464.41 1665.63 1473.42 1662.71 C 1499.18 1654.37 1522.24 1693.46 1506.94 1712.21 C 1488.65 1734.65 1446 1755.71 1420.21 1767.85 C 1397.67 1808.57 1367.63 1838.94 1323.22 1855.35 L 1322.56 1853.93 C 1361.77 1838.42 1399.98 1807.53 1417.46 1768.66 z" fill="rgb(93,54,4)" transform="translate(0,0)"></path>
<path d="M 1558.66 1149.79 C 1563.55 1167.36 1564.42 1189.49 1566.79 1207.8 C 1582.36 1328.47 1562.41 1477.36 1492.53 1580.17 C 1491.85 1581.05 1491.92 1580.9 1491.52 1581.92 C 1485.73 1590.43 1467.21 1619.16 1458.97 1623.79 C 1464.07 1615.74 1472.02 1606.8 1477.76 1598.64 C 1544.01 1504.38 1571.23 1393.09 1569.78 1278.88 C 1569.21 1234.09 1563.95 1193.71 1557.04 1150.18 L 1558.66 1149.79 z" fill="rgb(143,91,25)" transform="translate(0,0)"></path>
<path d="M 1436.49 854.813 C 1435.12 847.251 1433.84 839.375 1435.17 831.512 C 1437.27 819.105 1449.32 800.966 1459.85 793.98 C 1457.68 797.261 1454.87 800.245 1452.25 803.191 C 1436.73 820.642 1434.77 833.065 1439.01 855.332 C 1448.67 864.953 1458.38 870.258 1461.59 884.939 C 1452.15 870.177 1447.16 861.999 1431 852.994 C 1428.13 851.393 1423.47 849.409 1421.11 847.695 C 1425.7 847.234 1432.31 852.282 1436.49 854.813 z" fill="rgb(143,91,25)" transform="translate(0,0)"></path>
<path d="M 1297.16 1220.84 C 1299.07 1221.59 1301.03 1222.21 1303.02 1222.68 C 1315.29 1225.44 1323.33 1225.6 1335.53 1222.21 C 1338.74 1221.32 1347.87 1217.48 1350.04 1217.56 C 1348.95 1220.84 1338.31 1223.69 1335.08 1224.47 L 1330.21 1225.62 C 1321.66 1227.88 1304.62 1227.42 1297.2 1222.45 L 1297.16 1220.84 z" fill="rgb(143,91,25)" transform="translate(0,0)"></path>
<path d="M 1415.01 1672.37 C 1413.61 1674.26 1413.19 1675.53 1410.97 1676.11 C 1412.21 1674.42 1413.37 1673.7 1415.01 1672.37 z" fill="rgb(166,110,30)" transform="translate(0,0)"></path>
<path d="M 1401.42 1684.18 L 1400.65 1685.13 C 1399.61 1686.46 1398.76 1686.86 1397.23 1687.57 C 1399.02 1685.83 1399.33 1685.62 1401.42 1684.18 z" fill="rgb(166,110,30)" transform="translate(0,0)"></path>
<path d="M 1405.21 1680.97 C 1404.5 1682.84 1404.11 1682.82 1402.27 1683.64 C 1403.52 1682.28 1403.7 1682.02 1405.21 1680.97 z" fill="rgb(166,110,30)" transform="translate(0,0)"></path>
<path d="M 761.109 111.101 C 801.763 122.787 836.949 155.044 857.317 191.544 C 868.785 212.26 876.334 234.914 879.584 258.368 C 883.704 287.249 882.297 339.747 882.311 370.993 L 882.388 560.357 C 882.399 570.46 881.267 638.323 884.179 642.714 C 885.042 641.261 849.313 676.082 851.859 675.061 C 849.881 676.816 847.861 678.549 845.968 680.391 C 810.943 689.036 814.468 706.556 805.875 736.31 C 800.057 756.457 796.179 781.332 789.568 800.833 L 789.057 790.423 L 787.136 783.699 C 785.575 740.463 787.654 689.495 787.62 645.543 L 786.191 391.429 L 786.113 313.663 C 786.092 276.485 789.469 228.262 765.465 197.711 C 748.971 176.717 724.953 163.562 741.76 130.882 C 742.629 124.213 756.255 116.081 761.109 111.101 z" fill="rgb(191,120,7)" transform="translate(0,0)"></path>
<path d="M 741.76 130.882 C 740.073 147.421 732.846 157.908 747.193 174.65 C 760.87 190.61 775.22 203.696 780.846 224.741 C 790.234 254.566 788.176 289.09 788.155 320.496 L 788.215 397.419 L 789.24 548.649 L 789.08 658.894 C 789.05 680.482 788.474 703.907 789.193 725.26 C 789.098 746.626 789.468 769.176 789.057 790.423 L 787.136 783.699 C 785.575 740.463 787.654 689.495 787.62 645.543 L 786.191 391.429 L 786.113 313.663 C 786.092 276.485 789.469 228.262 765.465 197.711 C 748.971 176.717 724.953 163.562 741.76 130.882 z" fill="rgb(93,54,4)" transform="translate(0,0)"></path>
<path d="M 789.24 548.649 C 791.396 571.752 790.136 617.658 790.114 642.803 C 790.115 661.495 789.992 680.187 789.748 698.878 C 789.66 705.911 789.892 718.758 789.193 725.26 C 788.474 703.907 789.05 680.482 789.08 658.894 L 789.24 548.649 z" fill="rgb(166,110,30)" transform="translate(0,0)"></path>
<path d="M 671.131 994.743 C 719.629 986.013 771.527 989.568 820.809 989.524 C 856.297 989.492 890.719 987.078 923.014 1003.91 C 923.693 1007.36 923.185 1006.72 921.304 1010.7 C 916.445 1015.23 912.57 1021.29 907.944 1025.76 C 900.306 1033.15 888.356 1039.69 878.851 1044.26 C 872.563 1045.44 863.516 1048.36 857.493 1048.69 C 816.119 1050.95 773.602 1050.54 732.243 1048.19 C 723.363 1047.68 709.838 1043.44 701.059 1041.31 C 684.466 1033.25 678.524 1027.43 665.895 1013.67 L 664.307 1009.71 L 666.145 1007.41 C 674.646 1016.31 670.682 1009.1 672.343 1002 C 672.978 999.284 672.54 999.05 672.338 996.386 L 671.131 994.743 z" fill="rgb(234,217,187)" transform="translate(0,0)"></path>
<path d="M 1144.4 1933.8 C 1157.18 1895.31 1193.18 1866.59 1233.11 1865.32 C 1269.61 1864.15 1286.15 1865.81 1322.56 1853.93 L 1323.22 1855.35 C 1311.66 1859.97 1300.05 1862.69 1287.74 1864.62 C 1252.1 1870.21 1222.13 1860.94 1189.12 1880.64 C 1177.71 1887.45 1167.77 1896.46 1159.85 1907.13 C 1156.65 1911.47 1146.32 1932.64 1144.4 1933.8 z" fill="rgb(143,91,25)" transform="translate(0,0)"></path>
<path d="M 701.059 1041.31 C 709.838 1043.44 723.363 1047.68 732.243 1048.19 C 773.602 1050.54 816.119 1050.95 857.493 1048.69 C 863.516 1048.36 872.563 1045.44 878.851 1044.26 L 878.489 1045.28 C 861.428 1055.38 709.77 1055.33 701.059 1041.31 z" fill="rgb(191,120,7)" transform="translate(0,0)"></path>
<path d="M 518.467 1128.18 C 520.862 1119.57 526.519 1115.92 530.319 1108.57 C 546.404 1077.46 584.931 1054.28 602.516 1097.98 C 603.959 1101.56 603.868 1118.3 599.321 1119.92 C 594.936 1127.1 576.657 1149.7 575.545 1153.93 C 573.182 1161.51 566.075 1170.24 562.308 1177.59 C 556.736 1188.45 551.532 1199.29 546.931 1210.61 C 516.701 1284.7 518.537 1368.01 552.002 1440.7 C 555.062 1447.2 579.138 1486.91 579.173 1488.11 C 590.159 1508.41 617.949 1533.18 634.651 1549.18 C 638.525 1550 641.395 1560.05 642.257 1563.49 C 647.507 1584.45 624.829 1608.31 603.488 1602.1 C 600.893 1601.34 594.993 1600.07 594.141 1597.42 C 573.83 1582.2 563.831 1565.99 549.022 1553.83 C 539.233 1547.73 519.24 1516.85 512.466 1505.63 C 474.918 1444.55 456.308 1373.71 458.987 1302.06 C 460.821 1257.97 473.247 1214.4 491.434 1174.36 C 494.025 1168.65 499.47 1156.93 503.605 1153.13 C 504.916 1152.15 517.283 1130.85 518.467 1128.18 z" fill="rgb(234,217,187)" transform="translate(0,0)"></path>
<path d="M 549.022 1553.83 C 539.233 1547.73 519.24 1516.85 512.466 1505.63 C 474.918 1444.55 456.308 1373.71 458.987 1302.06 C 460.821 1257.97 473.247 1214.4 491.434 1174.36 C 494.025 1168.65 499.47 1156.93 503.605 1153.13 C 493.566 1175.36 486.786 1187.79 478.415 1211.6 C 451.982 1286.75 455.935 1369.82 484.024 1444.12 C 494.746 1472.21 508.84 1498.88 525.997 1523.56 C 533.176 1533.7 542.582 1544.38 549.022 1553.83 z" fill="rgb(143,91,25)" transform="translate(0,0)"></path>
<path d="M 579.173 1488.11 C 578.794 1487.87 578.415 1487.63 578.036 1487.39 C 514.605 1401.35 506.231 1282.42 555.506 1187.82 C 561.439 1176.43 567.043 1163.69 575.545 1153.93 C 573.182 1161.51 566.075 1170.24 562.308 1177.59 C 556.736 1188.45 551.532 1199.29 546.931 1210.61 C 516.701 1284.7 518.537 1368.01 552.002 1440.7 C 555.062 1447.2 579.138 1486.91 579.173 1488.11 z" fill="rgb(166,110,30)" transform="translate(0,0)"></path>
<path d="M 518.467 1128.18 C 520.862 1119.57 526.519 1115.92 530.319 1108.57 C 546.404 1077.46 584.931 1054.28 602.516 1097.98 C 603.959 1101.56 603.868 1118.3 599.321 1119.92 C 600.707 1107.89 605.07 1100.75 596.539 1088.44 C 592.1 1081.98 585.221 1077.6 577.485 1076.31 C 547.781 1071.16 534.1 1111.35 518.467 1128.18 z" fill="rgb(166,110,30)" transform="translate(0,0)"></path>
<path d="M 634.651 1549.18 C 638.525 1550 641.395 1560.05 642.257 1563.49 C 647.507 1584.45 624.829 1608.31 603.488 1602.1 C 600.893 1601.34 594.993 1600.07 594.141 1597.42 C 596.509 1597.85 598.29 1598.91 600.58 1599.7 C 616.722 1605.27 634.994 1595.37 639.854 1578.98 C 642.399 1570.29 641.25 1560.94 636.676 1553.12 C 635.9 1551.79 635.039 1550.68 634.651 1549.18 z" fill="rgb(143,91,25)" transform="translate(0,0)"></path>
<path d="M 704.916 1766.05 C 704.619 1765.66 704.323 1765.28 704.026 1764.89 C 681.291 1744.55 628.61 1738.8 631.938 1699.96 C 632.733 1690.67 635.81 1683.35 643.173 1677.5 C 671.439 1655.02 692.107 1683.12 714.982 1695.82 C 757.694 1719.44 806.188 1733.24 854.82 1736.57 C 874.698 1737.93 900.487 1734.32 912.587 1753.74 C 924.697 1773.17 914.314 1789.24 898.412 1801.29 C 918.759 1801.17 944.678 1796.85 958.717 1811.08 C 959.667 1812.06 960.589 1813.06 961.483 1814.08 C 965.187 1819.01 968.049 1825.11 968.771 1831.27 C 969.797 1839.97 967.241 1848.71 961.692 1855.48 C 951.213 1868.3 936.007 1867.78 920.991 1867.17 C 901.193 1866.37 880.229 1867.94 860.602 1866.34 C 819.86 1862.83 781.053 1847.4 749.014 1821.99 C 736.786 1812.18 706.674 1781.61 704.916 1766.05 z M 736.826 1808.62 C 740.317 1812.95 748.328 1819.06 752.78 1822.89 C 754.476 1822.4 759.889 1821.6 759.318 1820.01 C 757.234 1814.21 755.194 1813.28 757.575 1806.52 C 757.535 1804.63 758.164 1802.57 756.352 1801.52 C 745.134 1795.02 767.621 1790.06 770.131 1789.05 L 768.575 1788.59 C 761.765 1786.61 755.836 1784.32 749.208 1782.2 C 735.69 1777.81 722.277 1770.84 709.01 1765.67 C 706.566 1764.72 705.636 1763.32 705.751 1765.89 C 710.456 1776.18 712.606 1778.77 718.763 1788.08 C 724.333 1796.5 731.82 1802.15 736.826 1808.62 z M 801.121 1796.84 C 796.808 1795.82 792.445 1794.84 788.067 1794.16 C 786.457 1794.96 782.429 1795.98 781.741 1796.6 C 780.08 1801.99 799.147 1797.2 801.121 1796.84 z" fill="rgb(93,54,4)" transform="translate(0,0)"></path>
<path d="M 749.208 1782.2 C 755.836 1784.32 761.765 1786.61 768.575 1788.59 L 770.131 1789.05 C 767.621 1790.06 745.134 1795.02 756.352 1801.52 C 758.164 1802.57 757.535 1804.63 757.575 1806.52 C 755.194 1813.28 757.234 1814.21 759.318 1820.01 C 759.889 1821.6 754.476 1822.4 752.78 1822.89 C 748.328 1819.06 740.317 1812.95 736.826 1808.62 C 745.356 1812.96 745.387 1805.82 743.645 1799.37 C 741.819 1792.6 743.196 1786.83 749.208 1782.2 z" fill="rgb(234,217,187)" fill-opacity="0.607843" transform="translate(0,0)"></path>
<path d="M 788.067 1794.16 C 792.445 1794.84 796.808 1795.82 801.121 1796.84 C 799.147 1797.2 780.08 1801.99 781.741 1796.6 C 782.429 1795.98 786.457 1794.96 788.067 1794.16 z" fill="rgb(234,217,187)" fill-opacity="0.878431" transform="translate(0,0)"></path>
<path d="M 704.916 1766.05 L 705.751 1765.89 C 710.456 1776.18 712.606 1778.77 718.763 1788.08 C 724.333 1796.5 731.82 1802.15 736.826 1808.62 C 740.317 1812.95 748.328 1819.06 752.78 1822.89 C 754.476 1822.4 759.889 1821.6 759.318 1820.01 C 757.234 1814.21 755.194 1813.28 757.575 1806.52 C 757.535 1804.63 758.164 1802.57 756.352 1801.52 C 745.134 1795.02 767.621 1790.06 770.131 1789.05 C 776.038 1791.16 782 1792.59 788.067 1794.16 C 786.457 1794.96 782.429 1795.98 781.741 1796.6 C 780.08 1801.99 799.147 1797.2 801.121 1796.84 C 825.211 1801.09 852.059 1805.31 876.619 1804.9 C 902.158 1804.46 941.056 1792.42 960.129 1814.93 L 961.483 1814.08 C 965.187 1819.01 968.049 1825.11 968.771 1831.27 C 969.797 1839.97 967.241 1848.71 961.692 1855.48 C 951.213 1868.3 936.007 1867.78 920.991 1867.17 C 901.193 1866.37 880.229 1867.94 860.602 1866.34 C 819.86 1862.83 781.053 1847.4 749.014 1821.99 C 736.786 1812.18 706.674 1781.61 704.916 1766.05 z" fill="rgb(234,217,187)" transform="translate(0,0)"></path>
<path d="M 704.916 1766.05 L 705.751 1765.89 C 710.456 1776.18 712.606 1778.77 718.763 1788.08 C 724.333 1796.5 731.82 1802.15 736.826 1808.62 C 740.317 1812.95 748.328 1819.06 752.78 1822.89 C 776.687 1840.15 800.642 1852.62 829.554 1859.78 C 839.125 1862.08 848.854 1863.67 858.661 1864.52 C 877.478 1866.06 897.519 1864.61 916.648 1865.16 C 936.895 1865.75 961.008 1867.34 966.36 1841.93 C 968.635 1831.13 965.769 1823.81 960.129 1814.93 L 961.483 1814.08 C 965.187 1819.01 968.049 1825.11 968.771 1831.27 C 969.797 1839.97 967.241 1848.71 961.692 1855.48 C 951.213 1868.3 936.007 1867.78 920.991 1867.17 C 901.193 1866.37 880.229 1867.94 860.602 1866.34 C 819.86 1862.83 781.053 1847.4 749.014 1821.99 C 736.786 1812.18 706.674 1781.61 704.916 1766.05 z" fill="rgb(143,91,25)" transform="translate(0,0)"></path>
<path d="M 665.658 471.942 C 659.903 489.891 630.955 495.499 616.257 484.511 C 595.2 468.77 601.427 444.819 600.679 422.071 C 600.318 411.072 600.843 400.061 600.845 389.279 L 600.552 319.393 C 600.461 299.955 599.61 277.99 603.199 259.094 C 606.557 241.092 613.927 224.077 624.76 209.313 C 637.785 191.52 653.935 179.572 674.19 170.947 C 696.718 161.353 725.243 168.524 728.388 196.152 C 729.05 202.118 728.068 208.153 725.546 213.601 C 716.522 233.309 701.92 229.76 689.248 241.541 C 666.554 262.639 671.032 307.12 671.066 335.037 L 671.189 414.379 C 671.209 425.55 673.58 462.795 666.585 470.112 C 665.635 471.673 665.766 471.002 665.658 471.942 z" fill="rgb(234,217,187)" transform="translate(0,0)"></path>
<path d="M 665.658 471.942 C 659.903 489.891 630.955 495.499 616.257 484.511 C 595.2 468.77 601.427 444.819 600.679 422.071 C 600.318 411.072 600.843 400.061 600.845 389.279 L 600.552 319.393 C 600.461 299.955 599.61 277.99 603.199 259.094 C 606.557 241.092 613.927 224.077 624.76 209.313 C 637.785 191.52 653.935 179.572 674.19 170.947 C 696.718 161.353 725.243 168.524 728.388 196.152 C 729.05 202.118 728.068 208.153 725.546 213.601 C 716.522 233.309 701.92 229.76 689.248 241.541 C 666.554 262.639 671.032 307.12 671.066 335.037 L 671.189 414.379 C 671.209 425.55 673.58 462.795 666.585 470.112 C 671.296 454.344 669.866 435.611 669.745 418.95 L 669.39 340.067 C 669.395 306.275 662.926 251.702 698.085 233.48 C 710.429 227.083 721.245 224.132 725.632 208.954 C 728.015 200.482 726.813 191.402 722.307 183.842 C 717.783 176.271 710.326 170.912 701.708 169.036 C 685.724 165.555 666.104 175.629 653.075 184.155 C 627.864 200.654 609.556 231.356 604.592 260.844 C 601.698 278.037 602.155 299.118 602.29 316.854 L 602.749 384.899 L 602.704 430.642 C 602.635 452.553 599.681 483.068 628.962 487.761 C 638.837 489.322 648.923 486.814 656.917 480.81 C 659.972 478.509 663.099 474.853 665.658 471.942 z" fill="rgb(143,91,25)" transform="translate(0,0)"></path>
<path d="M 620.232 609.682 C 627.866 602.242 649.409 602.712 653.269 610.328 C 660.221 616.836 661.67 618.377 667.365 626.203 C 672.842 631.123 671.714 663.184 671.357 672.315 C 670.284 699.725 672.93 734.622 671.404 761.066 C 670.469 777.268 674.255 852.12 671.13 860.663 C 670.701 884.313 651.372 900.668 628.134 895.274 C 618.851 893.051 610.88 887.132 606.067 878.89 C 598.393 865.945 600.83 834.466 600.844 818.732 L 600.918 737.128 C 600.901 705.824 600.262 664.068 601.649 632.119 C 601.765 629.435 605.507 621.188 609.218 619.062 C 612.701 615.84 616.575 612.731 620.232 609.682 z" fill="rgb(234,217,187)" transform="translate(0,0)"></path>
<path d="M 671.13 860.663 C 670.701 884.313 651.372 900.668 628.134 895.274 C 618.851 893.051 610.88 887.132 606.067 878.89 C 598.393 865.945 600.83 834.466 600.844 818.732 L 600.918 737.128 C 600.901 705.824 600.262 664.068 601.649 632.119 C 601.765 629.435 605.507 621.188 609.218 619.062 C 599.203 640.213 601.972 644.509 602.111 667.589 L 602.523 727.016 C 602.733 762.311 602.448 797.624 602.526 832.899 C 602.55 844.241 601.813 863.552 605.324 873.885 C 611.896 893.225 639.09 900.655 655.502 888.737 C 666.413 880.813 668.31 873.804 670.054 860.876 L 671.13 860.663 z" fill="rgb(143,91,25)" transform="translate(0,0)"></path>
<path d="M 667.365 626.203 C 672.842 631.123 671.714 663.184 671.357 672.315 C 670.284 699.725 672.93 734.622 671.404 761.066 C 670.469 777.268 674.255 852.12 671.13 860.663 L 670.054 860.876 C 669.348 809.401 669.981 757.758 669.727 706.339 C 669.651 690.853 670.724 645.075 668.45 631.983 C 668.121 630.051 667.759 628.123 667.365 626.203 z" fill="rgb(191,120,7)" transform="translate(0,0)"></path>
<path d="M 620.232 609.682 C 627.866 602.242 649.409 602.712 653.269 610.328 C 650.205 610.106 646.065 607.791 642.539 606.92 C 634.17 604.852 628.099 607.209 620.232 609.682 z" fill="rgb(191,120,7)" transform="translate(0,0)"></path>
<path d="M 1100.79 722.339 C 1105.01 717.202 1114.19 709.915 1119.91 706.226 C 1150.32 686.611 1184.3 679.195 1219.79 686.983 C 1226.77 687.919 1233.4 690.328 1240.11 692.332 C 1238.63 692.737 1237.8 692.898 1236.48 693.495 C 1237.12 694.797 1237.6 695.608 1238.3 696.861 C 1241.19 701.969 1242.93 707.648 1243.39 713.499 C 1244.75 730.455 1243.04 733.597 1234 748.118 C 1228.56 756.858 1215.01 760.561 1214.9 766.897 C 1196.94 754.246 1183.85 749.449 1161.54 752.299 C 1157.66 752.796 1153.19 754.505 1149.51 754.665 C 1134.38 761.186 1130.11 763.161 1117.07 772.829 C 1115.37 773.292 1113.91 774.841 1112.42 776.064 C 1104.59 771.28 1113.49 754.036 1080.23 749.539 C 1084.72 743.021 1089.32 736.58 1094.03 730.219 C 1097.1 728.366 1098.73 725.346 1100.79 722.339 z" fill="rgb(250,174,60)" transform="translate(0,0)"></path>
<path d="M 1219.79 686.983 C 1226.77 687.919 1233.4 690.328 1240.11 692.332 C 1238.63 692.737 1237.8 692.898 1236.48 693.495 C 1237.12 694.797 1237.6 695.608 1238.3 696.861 C 1241.19 701.969 1242.93 707.648 1243.39 713.499 C 1244.75 730.455 1243.04 733.597 1234 748.118 C 1228.56 756.858 1215.01 760.561 1214.9 766.897 C 1196.94 754.246 1183.85 749.449 1161.54 752.299 C 1157.66 752.796 1153.19 754.505 1149.51 754.665 C 1153.61 749.84 1172.04 750.872 1178.5 750.673 C 1191.57 750.27 1202.01 757.195 1213.01 762.664 C 1241.05 746.576 1251.06 721.083 1233.63 692.554 C 1229.18 690.574 1223.3 688.919 1219.79 686.983 z" fill="rgb(143,91,25)" transform="translate(0,0)"></path>
<path d="M 1338.11 799.49 C 1341.79 796.355 1354.53 789.566 1359.09 787.566 C 1397.17 770.85 1433.26 768.616 1472.13 783.249 L 1471.69 785.484 C 1468.38 787.65 1461.67 791.27 1459.85 793.98 C 1449.32 800.966 1437.27 819.105 1435.17 831.512 C 1433.84 839.375 1435.12 847.251 1436.49 854.813 C 1432.31 852.282 1425.7 847.234 1421.11 847.695 C 1388.88 838.764 1352.98 846.604 1332.95 875.047 C 1331.21 875.439 1332.09 875.416 1330.29 875.087 C 1329.59 867.163 1331.1 860.798 1327.52 853.686 C 1321.44 841.591 1314.08 838.203 1302.29 834.056 C 1304.35 831.501 1304.62 831.197 1306.23 828.158 C 1309.93 824.475 1337.53 800.801 1338.11 799.49 z" fill="rgb(250,174,60)" transform="translate(0,0)"></path>
<metadata><recraft-signature>{"signed_by": "recraft", "signature_b64": "FgyvjlvqxWnSFAilav0ppULb1sj6Vg29DTcQQcrmdRBK+au2Lxt6ZbqWFiAli46Ul3ie0w9k1QsciDl0gf9vAA==", "signing_algo": "Ed25519", "generation_timestamp": 1781914986, "identifier": "ace553bb-7f16-44e1-95e0-9a9a88536104"}</recraft-signature></metadata></svg>