<svg xmlns="http://www.w3.org/2000/svg" height="1024" preserveAspectRatio="none" style="display: block;" version="1.1" viewBox="0 0 2048 2048" width="1024">
<path d="M 871.714 457.972 C 870.154 428.189 871.532 395.586 871.721 365.489 C 871.995 322.028 888.436 284.366 920.15 254.32 C 949.891 225.85 989.942 210.716 1031.08 212.403 C 1107.87 215.18 1173.1 273.855 1179.98 351.338 C 1181.23 364.459 1180.26 377.909 1180.91 391.005 C 1182.01 413.382 1182 434.728 1180.97 457.094 C 1180.9 467.87 1180.53 480.346 1180.97 490.991 C 1191.6 491.784 1200.94 490.898 1211.31 491.122 C 1235.55 490.922 1260.3 490.286 1284.4 492.785 C 1359.1 500.56 1428.91 533.593 1482.29 586.423 C 1485.75 589.822 1494.23 598.32 1496.47 602.359 L 1496.82 602.687 C 1507.66 612.032 1516.67 625.548 1524.85 637.288 C 1552.54 677.004 1571.3 721.53 1579.78 769.228 C 1585.54 801.564 1586.13 834.182 1585.82 866.965 C 1593.96 867.288 1604.65 867.434 1612.45 868.873 C 1666.4 878.515 1711.66 908.312 1742.44 953.445 C 1743.72 955.323 1744.29 955.984 1745.29 958.097 C 1765.01 984.55 1776.5 1028.06 1776.13 1060.95 C 1778.03 1083.15 1776.19 1112.28 1776.52 1135.27 C 1777.52 1205.53 1779.07 1263.28 1730.51 1321.01 C 1703.9 1352.66 1662.17 1376.48 1621.16 1383.48 C 1620.13 1383.7 1616.88 1384.49 1616.04 1384.56 C 1602.86 1387.5 1595.72 1387.06 1582.17 1387.07 C 1581.64 1391.45 1580.99 1395.75 1580.95 1400.16 C 1580.77 1431.89 1578.08 1465.5 1569.26 1495.8 C 1534.03 1616.91 1435.37 1710.95 1311.77 1737.91 C 1271.9 1746.61 1238.87 1745.16 1198.79 1745.03 L 1105.77 1744.91 L 806.809 1745.07 C 773.925 1744.84 744.085 1741.05 712.577 1731.33 C 707.485 1729.76 696.76 1726.75 692.109 1724.49 C 651.189 1711.28 610.817 1684.55 579.194 1655.76 C 520.412 1602.63 481.842 1530.79 470.04 1452.44 C 466.605 1428.55 467.05 1410.9 465.968 1387.19 C 450.705 1386.76 439.053 1385.37 424.119 1382.84 L 418.232 1381.41 C 370.291 1369.56 326.787 1338.95 301.409 1296.4 C 289.712 1277.15 281.481 1255.99 277.09 1233.9 C 275.248 1224.16 274.092 1214.3 273.632 1204.39 C 272.195 1174.38 273.784 1140.03 273.263 1109.71 C 273.096 1099.98 272.804 1054.09 274.747 1046.27 C 275.788 999.281 314.07 923.966 356.873 902.593 C 361.584 898.174 372.05 891.858 377.911 888.71 C 409.423 871.78 431.597 868.92 465.978 867.642 C 465.086 857.652 465.602 832.972 465.801 822.616 C 467.489 732.254 504.933 646.247 569.927 583.447 C 638.955 517.132 722.423 489.193 817.017 491.166 C 822.717 491.131 830 490.883 835.559 491.174 C 846.763 490.729 859.926 490.978 871.256 490.945 C 872.056 481.359 871.695 467.863 871.714 457.972 z M 332.858 1061.57 C 335.867 1058.34 341.299 1055.46 343.046 1052.02 C 343.268 1050.65 342.014 1048.1 341.013 1047.52 C 336.116 1044.64 338.758 1036.03 330.943 1038.41 C 326.247 1039.83 327.752 1048.38 321.165 1046.62 C 316.983 1045.51 316.526 1047.01 313.476 1049.95 C 317.079 1058.54 324.031 1061.49 332.858 1061.57 z M 873.473 403.056 L 1042.75 402.99 L 1178.27 403.191 C 1182.3 353.745 1175.55 307.87 1142.6 268.922 C 1107.71 227.685 1062.38 213.398 1009.75 215.431 C 977.93 220.337 955.275 228.051 929.964 248.948 C 879.051 290.983 871.23 340.611 873.473 403.056 z" fill="rgb(250,174,74)" transform="translate(0,0)"></path>
<path d="M 467.978 1364.72 C 470.38 1377.72 472.811 1390.64 475.806 1403.52 C 493.979 1481.66 545.923 1546.81 611.106 1591.91 C 649.973 1618.39 693.845 1636.63 740.023 1645.52 C 755.617 1648.44 770.69 1649.72 786.329 1651.88 C 866.116 1653 947.473 1652.1 1027.44 1652.21 C 1106.2 1652.77 1184.96 1652.68 1263.72 1651.93 C 1310.62 1655.34 1366.81 1635.89 1407.64 1613.7 C 1461.37 1584.89 1506.41 1542.22 1538.09 1490.12 C 1547.6 1474.76 1558.3 1454.75 1563.45 1437.37 C 1569.66 1427.61 1570.64 1405.35 1580.95 1400.16 C 1580.77 1431.89 1578.08 1465.5 1569.26 1495.8 C 1534.03 1616.91 1435.37 1710.95 1311.77 1737.91 C 1271.9 1746.61 1238.87 1745.16 1198.79 1745.03 L 1105.77 1744.91 L 806.809 1745.07 C 773.925 1744.84 744.085 1741.05 712.577 1731.33 C 707.485 1729.76 696.76 1726.75 692.109 1724.49 C 651.189 1711.28 610.817 1684.55 579.194 1655.76 C 520.412 1602.63 481.842 1530.79 470.04 1452.44 C 466.605 1428.55 467.05 1410.9 465.968 1387.19 C 450.705 1386.76 439.053 1385.37 424.119 1382.84 C 424.834 1381.59 425.332 1380.16 425.887 1378.81 C 446.052 1386.39 449.795 1382.03 467.123 1385.45 C 466.539 1378.73 465.142 1370.68 467.978 1364.72 z" fill="rgb(133,81,7)" transform="translate(0,0)"></path>
<path d="M 467.978 1364.72 C 470.38 1377.72 472.811 1390.64 475.806 1403.52 C 493.979 1481.66 545.923 1546.81 611.106 1591.91 C 649.973 1618.39 693.845 1636.63 740.023 1645.52 C 755.617 1648.44 770.69 1649.72 786.329 1651.88 C 732.325 1656.79 659.116 1627.91 614.415 1598.35 C 549.378 1555.33 498.147 1492.86 475.512 1417.63 C 474.04 1412.82 472.123 1407.35 470.378 1402.49 C 465.778 1529.14 547.085 1652.2 658.702 1707.33 C 667.914 1711.88 685 1717.51 692.314 1722.7 L 692.109 1724.49 C 651.189 1711.28 610.817 1684.55 579.194 1655.76 C 520.412 1602.63 481.842 1530.79 470.04 1452.44 C 466.605 1428.55 467.05 1410.9 465.968 1387.19 C 450.705 1386.76 439.053 1385.37 424.119 1382.84 C 424.834 1381.59 425.332 1380.16 425.887 1378.81 C 446.052 1386.39 449.795 1382.03 467.123 1385.45 C 466.539 1378.73 465.142 1370.68 467.978 1364.72 z" fill="rgb(167,106,28)" transform="translate(0,0)"></path>
<path d="M 356.873 902.593 C 361.584 898.174 372.05 891.858 377.911 888.71 C 409.423 871.78 431.597 868.92 465.978 867.642 L 467.987 879.55 C 469.498 903.169 468.684 935.638 468.748 960.041 L 468.93 1106.08 L 468.925 1223.09 C 468.91 1241.4 469.653 1270.43 468.027 1288.1 C 466.882 1312.64 466.231 1340.16 467.978 1364.72 C 465.142 1370.68 466.539 1378.73 467.123 1385.45 C 449.795 1382.03 446.052 1386.39 425.887 1378.81 C 425.332 1380.16 424.834 1381.59 424.119 1382.84 L 418.232 1381.41 C 370.291 1369.56 326.787 1338.95 301.409 1296.4 C 289.712 1277.15 281.481 1255.99 277.09 1233.9 C 275.248 1224.16 274.092 1214.3 273.632 1204.39 C 272.195 1174.38 273.784 1140.03 273.263 1109.71 C 273.096 1099.98 272.804 1054.09 274.747 1046.27 C 275.788 999.281 314.07 923.966 356.873 902.593 z M 332.858 1061.57 C 335.867 1058.34 341.299 1055.46 343.046 1052.02 C 343.268 1050.65 342.014 1048.1 341.013 1047.52 C 336.116 1044.64 338.758 1036.03 330.943 1038.41 C 326.247 1039.83 327.752 1048.38 321.165 1046.62 C 316.983 1045.51 316.526 1047.01 313.476 1049.95 C 317.079 1058.54 324.031 1061.49 332.858 1061.57 z" fill="rgb(174,128,61)" transform="translate(0,0)"></path>
<path d="M 313.476 1049.95 C 316.526 1047.01 316.983 1045.51 321.165 1046.62 C 327.752 1048.38 326.247 1039.83 330.943 1038.41 C 338.758 1036.03 336.116 1044.64 341.013 1047.52 C 342.014 1048.1 343.268 1050.65 343.046 1052.02 C 341.299 1055.46 335.867 1058.34 332.858 1061.57 C 324.031 1061.49 317.079 1058.54 313.476 1049.95 z" fill="rgb(245,234,203)" fill-opacity="0.878431" transform="translate(0,0)"></path>
<path d="M 356.873 902.593 C 363.849 899.973 371.772 894.576 378.552 890.99 C 395.062 882.259 415.583 874.109 434.148 871.49 C 421.835 879.695 416.065 883.942 405.922 894.845 C 398.713 902.592 392.854 913.557 385.017 919.099 C 382.231 921.069 380.087 921.95 378.077 924.756 C 376.68 926.321 377.468 925.981 375.997 926.271 C 362 932.804 342.283 958.934 334.792 972.077 C 322.86 993.012 309.737 1024.88 310.955 1049.29 C 314.448 1054.95 318.877 1061.63 325.815 1062.83 C 348.635 1066.76 351.325 1046.33 353.755 1029.71 C 356.092 1013.73 365.151 998.966 372.661 985.334 C 374.097 1068.3 371.289 1151.84 372.681 1234.88 C 372.853 1245.15 372.916 1256.03 372.664 1266.28 C 325.953 1241.18 299.016 1208.92 281.765 1157.52 C 271.602 1127.23 275.956 1101.19 275.114 1070 C 275.01 1066.15 275.401 1049.18 274.747 1046.27 C 275.788 999.281 314.07 923.966 356.873 902.593 z" fill="rgb(250,174,74)" transform="translate(0,0)"></path>
<path d="M 372.134 1266.12 C 403.432 1284.01 433.001 1287.89 468.027 1288.1 C 466.882 1312.64 466.231 1340.16 467.978 1364.72 C 465.142 1370.68 466.539 1378.73 467.123 1385.45 C 449.795 1382.03 446.052 1386.39 425.887 1378.81 C 418.834 1375.43 410.439 1369.31 405.057 1363.64 C 377.2 1334.27 372.378 1304.25 372.134 1266.12 z" fill="rgb(133,81,7)" transform="translate(0,0)"></path>
<path d="M 378.077 924.756 C 386.977 919.497 399.108 911.778 409.741 914.133 C 417.173 915.779 425.941 923.911 423.395 932.199 C 418.875 946.914 402.699 950.794 392.037 959.74 C 383.593 967.209 373.871 979.882 368.201 989.487 C 360.817 1001.89 354.866 1014.51 351.888 1028.7 C 350.221 1036.64 348.941 1045.51 346.016 1053.01 C 344.133 1057.85 337.409 1060.34 332.858 1061.57 C 335.867 1058.34 341.299 1055.46 343.046 1052.02 C 343.268 1050.65 342.014 1048.1 341.013 1047.52 C 336.116 1044.64 338.758 1036.03 330.943 1038.41 C 326.247 1039.83 327.752 1048.38 321.165 1046.62 C 316.983 1045.51 316.526 1047.01 313.476 1049.95 C 311.669 1037.09 315.272 1024.28 318.948 1012.06 C 329.815 975.959 348.943 951.496 375.997 926.271 C 377.468 925.981 376.68 926.321 378.077 924.756 z" fill="rgb(245,234,203)" transform="translate(0,0)"></path>
<path d="M 1585.82 866.965 C 1593.96 867.288 1604.65 867.434 1612.45 868.873 C 1666.4 878.515 1711.66 908.312 1742.44 953.445 C 1743.72 955.323 1744.29 955.984 1745.29 958.097 C 1765.01 984.55 1776.5 1028.06 1776.13 1060.95 C 1778.03 1083.15 1776.19 1112.28 1776.52 1135.27 C 1777.52 1205.53 1779.07 1263.28 1730.51 1321.01 C 1703.9 1352.66 1662.17 1376.48 1621.16 1383.48 C 1620.13 1383.7 1616.88 1384.49 1616.04 1384.56 C 1608.45 1383.54 1588.72 1384.88 1580.77 1386.01 L 1581.63 1372.61 C 1584.87 1348.86 1584.23 1346.87 1583.9 1323.66 L 1583.84 1300.11 C 1582.35 1288.68 1582.39 1257.35 1583.11 1245.64 C 1586.21 1237.33 1585.05 1158.93 1585.06 1145.62 L 1584.99 930.73 C 1585.01 920.165 1584.18 872.963 1585.82 866.965 z" fill="rgb(174,128,61)" transform="translate(0,0)"></path>
<path d="M 1612.45 868.873 C 1666.4 878.515 1711.66 908.312 1742.44 953.445 C 1743.72 955.323 1744.29 955.984 1745.29 958.097 C 1765.01 984.55 1776.5 1028.06 1776.13 1060.95 C 1775.35 1067.79 1775.37 1073.62 1775.31 1080.5 C 1775.34 1108.15 1776.68 1126.31 1768.66 1153.18 C 1754.67 1200.03 1722.65 1242.22 1679.09 1265.27 L 1678.96 1087.55 C 1678.95 1060.02 1680.25 1014.66 1677.63 988.623 C 1676.29 973.812 1672.85 959.265 1667.42 945.418 C 1657.5 920.328 1639.18 897.353 1617.75 880.879 C 1614.69 878.53 1602.91 872.51 1602.24 870.312 L 1612.45 868.873 z" fill="rgb(250,174,74)" transform="translate(0,0)"></path>
<path d="M 1745.29 958.097 C 1765.01 984.55 1776.5 1028.06 1776.13 1060.95 C 1775.35 1067.79 1775.37 1073.62 1775.31 1080.5 C 1775.52 1044.55 1770.28 1006.71 1752.95 975.008 C 1750.23 970.031 1746.74 963.45 1745.29 958.097 z" fill="rgb(197,127,44)" transform="translate(0,0)"></path>
<path d="M 1584.09 1288.21 C 1619.62 1287.07 1647.29 1280.79 1679.15 1265.61 C 1678.96 1315.42 1665.44 1355.44 1620.86 1381.91 L 1621.16 1383.48 C 1620.13 1383.7 1616.88 1384.49 1616.04 1384.56 C 1608.45 1383.54 1588.72 1384.88 1580.77 1386.01 L 1581.63 1372.61 C 1584.87 1348.86 1584.23 1346.87 1583.9 1323.66 L 1583.84 1300.11 L 1584.09 1288.21 z" fill="rgb(133,81,7)" transform="translate(0,0)"></path>
<path d="M 871.714 457.972 C 870.154 428.189 871.532 395.586 871.721 365.489 C 871.995 322.028 888.436 284.366 920.15 254.32 C 949.891 225.85 989.942 210.716 1031.08 212.403 C 1107.87 215.18 1173.1 273.855 1179.98 351.338 C 1181.23 364.459 1180.26 377.909 1180.91 391.005 C 1182.01 413.382 1182 434.728 1180.97 457.094 L 1178.56 458.18 C 1171.11 457.259 1157.2 457.739 1149.3 457.786 L 1096.67 458.018 L 960.432 457.81 C 932.108 457.856 901.775 458.513 873.601 457.772 L 871.714 457.972 z M 873.473 403.056 L 1042.75 402.99 L 1178.27 403.191 C 1182.3 353.745 1175.55 307.87 1142.6 268.922 C 1107.71 227.685 1062.38 213.398 1009.75 215.431 C 977.93 220.337 955.275 228.051 929.964 248.948 C 879.051 290.983 871.23 340.611 873.473 403.056 z" fill="rgb(174,128,61)" transform="translate(0,0)"></path>
<path d="M 873.409 404.981 L 1178.44 405.029 C 1178.36 422.995 1179.42 440.07 1178.56 458.18 C 1171.11 457.259 1157.2 457.739 1149.3 457.786 L 1096.67 458.018 L 960.432 457.81 C 932.108 457.856 901.775 458.513 873.601 457.772 C 873.955 440.176 873.891 422.574 873.409 404.981 z" fill="rgb(245,234,203)" transform="translate(0,0)"></path>
<path d="M 1009.75 215.431 C 1062.38 213.398 1107.71 227.685 1142.6 268.922 C 1175.55 307.87 1182.3 353.745 1178.27 403.191 L 1042.75 402.99 L 873.473 403.056 C 871.23 340.611 879.051 290.983 929.964 248.948 C 955.275 228.051 977.93 220.337 1009.75 215.431 z M 932.772 348.371 C 936.174 342.353 942.059 333.054 941.247 327.009 C 939.508 317.246 944.468 321.324 947.035 319.192 C 953.686 313.665 944.58 311.96 956.629 309.679 L 957.709 309.467 C 962.57 303.935 967.709 298.654 973.106 293.644 C 974.138 284.541 972.992 286.676 979.996 286.09 C 983.533 285.794 986.996 272.372 996.611 279.548 C 1011.44 272.668 1008.52 260.28 1000.24 249.44 C 989.34 245.603 982.816 245.658 972.152 250.886 C 945.568 263.918 909.18 303.749 905.67 333.81 C 905.93 336.039 906.208 336.834 905.838 338.999 C 908.254 344.659 909.314 346.447 914.226 350.215 L 914.238 351.089 C 915.394 351.41 916.555 351.717 917.719 352.009 L 918.403 351.255 C 923.591 350.637 927.768 349.695 932.772 348.371 z" fill="rgb(250,174,74)" transform="translate(0,0)"></path>
<path d="M 905.67 333.81 C 909.18 303.749 945.568 263.918 972.152 250.886 C 982.816 245.658 989.34 245.603 1000.24 249.44 C 1008.52 260.28 1011.44 272.668 996.611 279.548 C 986.996 272.372 983.533 285.794 979.996 286.09 C 972.992 286.676 974.138 284.541 973.106 293.644 C 967.709 298.654 962.57 303.935 957.709 309.467 L 956.629 309.679 C 944.58 311.96 953.686 313.665 947.035 319.192 C 944.468 321.324 939.508 317.246 941.247 327.009 C 942.059 333.054 936.174 342.353 932.772 348.371 C 927.768 349.695 923.591 350.637 918.403 351.255 C 925.736 346.479 935.097 348.601 934.876 336.974 C 934.828 334.441 922.525 320.498 919.707 327.525 C 918.975 329.35 917.058 333.953 915.356 334.615 C 912.456 334.015 914.03 329.373 905.67 333.81 z" fill="rgb(245,234,203)" fill-opacity="0.917647" transform="translate(0,0)"></path>
<path d="M 905.67 333.81 C 914.03 329.373 912.456 334.015 915.356 334.615 C 917.058 333.953 918.975 329.35 919.707 327.525 C 922.525 320.498 934.828 334.441 934.876 336.974 C 935.097 348.601 925.736 346.479 918.403 351.255 L 917.719 352.009 C 916.555 351.717 915.394 351.41 914.238 351.089 L 914.226 350.215 C 923.414 349.196 914.023 344.093 911.473 341.795 C 910.949 341.323 908.929 336.614 907.482 336.155 C 906.969 336.541 905.945 338.789 905.838 338.999 C 906.208 336.834 905.93 336.039 905.67 333.81 z" fill="rgb(245,234,203)" fill-opacity="0.776471" transform="translate(0,0)"></path>
<path d="M 903.494 336.211 C 903.812 334.137 904.187 332.072 904.619 330.018 C 911.299 298.779 948.065 256.608 979.411 246.401 C 985.049 244.565 996.63 243.193 1000.24 249.44 C 989.34 245.603 982.816 245.658 972.152 250.886 C 945.568 263.918 909.18 303.749 905.67 333.81 C 905.93 336.039 906.208 336.834 905.838 338.999 C 908.254 344.659 909.314 346.447 914.226 350.215 L 914.238 351.089 C 907.55 349.327 905.377 341.932 903.494 336.211 z" fill="rgb(167,106,28)" transform="translate(0,0)"></path>
<path d="M 932.772 348.371 C 936.174 342.353 942.059 333.054 941.247 327.009 C 939.508 317.246 944.468 321.324 947.035 319.192 C 953.686 313.665 944.58 311.96 956.629 309.679 L 957.709 309.467 C 954.295 314.137 949.636 320.442 947.168 325.567 C 941.772 336.775 942.634 341.168 933.369 350.069 L 927.568 351.479 C 924.855 352.113 920.631 351.986 917.719 352.009 L 918.403 351.255 C 923.591 350.637 927.768 349.695 932.772 348.371 z" fill="rgb(245,234,203)" transform="translate(0,0)"></path>
<path d="M 973.106 293.644 C 974.138 284.541 972.992 286.676 979.996 286.09 C 983.533 285.794 986.996 272.372 996.611 279.548 C 987.248 284.183 981.273 287.002 973.106 293.644 z" fill="rgb(245,234,203)" transform="translate(0,0)"></path>
<path d="M 905.838 338.999 C 905.945 338.789 906.969 336.541 907.482 336.155 C 908.929 336.614 910.949 341.323 911.473 341.795 C 914.023 344.093 923.414 349.196 914.226 350.215 C 909.314 346.447 908.254 344.659 905.838 338.999 z" fill="rgb(245,234,203)" fill-opacity="0.643137" transform="translate(0,0)"></path>
<path d="M 1180.97 457.094 C 1180.9 467.87 1180.53 480.346 1180.97 490.991 C 1191.6 491.784 1200.94 490.898 1211.31 491.122 C 1208.68 491.64 1204.93 492.268 1202.42 492.911 C 1133.69 494.333 1065.17 494.068 996.44 493.837 C 944.186 493.662 887.287 495.518 835.559 491.174 C 846.763 490.729 859.926 490.978 871.256 490.945 C 872.056 481.359 871.695 467.863 871.714 457.972 L 873.601 457.772 C 901.775 458.513 932.108 457.856 960.432 457.81 L 1096.67 458.018 L 1149.3 457.786 C 1157.2 457.739 1171.11 457.259 1178.56 458.18 L 1180.97 457.094 z" fill="rgb(174,128,61)" transform="translate(0,0)"></path>
<path d="M 1577.48 1375.84 C 1580.16 1358.52 1582.3 1341.11 1583.9 1323.66 C 1584.23 1346.87 1584.87 1348.86 1581.63 1372.61 L 1580.77 1386.01 C 1588.72 1384.88 1608.45 1383.54 1616.04 1384.56 C 1602.86 1387.5 1595.72 1387.06 1582.17 1387.07 C 1581.64 1391.45 1580.99 1395.75 1580.95 1400.16 C 1570.64 1405.35 1569.66 1427.61 1563.45 1437.37 C 1558.3 1454.75 1547.6 1474.76 1538.09 1490.12 C 1506.41 1542.22 1461.37 1584.89 1407.64 1613.7 C 1366.81 1635.89 1310.62 1655.34 1263.72 1651.93 C 1272.63 1650.16 1287.6 1649.2 1298.14 1647.49 C 1329.15 1642.41 1359.34 1633.14 1387.86 1619.93 C 1469.64 1582.51 1532.84 1513.65 1563.13 1428.97 C 1569.2 1410.58 1573.15 1394.73 1577.48 1375.84 z" fill="rgb(167,106,28)" transform="translate(0,0)"></path>
<path d="M 1496.82 602.687 C 1507.66 612.032 1516.67 625.548 1524.85 637.288 C 1552.54 677.004 1571.3 721.53 1579.78 769.228 C 1585.54 801.564 1586.13 834.182 1585.82 866.965 C 1584.18 872.963 1585.01 920.165 1584.99 930.73 L 1585.06 1145.62 C 1585.05 1158.93 1586.21 1237.33 1583.11 1245.64 C 1582.54 1209.45 1583.06 1171.75 1583.06 1135.48 L 1582.66 928.964 C 1582.55 901.095 1582.42 872.618 1583.11 844.984 C 1585.07 767.284 1563.12 691.28 1516.6 628.642 C 1511.84 622.23 1499.66 608.873 1496.82 602.687 z" fill="rgb(167,106,28)" transform="translate(0,0)"></path>
<path d="M 465.978 867.642 C 465.086 857.652 465.602 832.972 465.801 822.616 C 467.489 732.254 504.933 646.247 569.927 583.447 C 638.955 517.132 722.423 489.193 817.017 491.166 C 788.196 492.765 755.297 494.706 727.202 500.878 C 661.337 515.346 596.107 555.127 551.469 605.636 C 503.687 659.703 474.242 733.065 469.1 804.88 C 467.228 831.032 468.88 854.571 467.987 879.55 L 465.978 867.642 z" fill="rgb(167,106,28)" transform="translate(0,0)"></path>
<path d="M 1211.31 491.122 C 1235.55 490.922 1260.3 490.286 1284.4 492.785 C 1359.1 500.56 1428.91 533.593 1482.29 586.423 C 1485.75 589.822 1494.23 598.32 1496.47 602.359 C 1493.49 600.662 1477.19 584.346 1473.26 580.745 C 1463.93 572.266 1454.11 564.348 1443.85 557.031 C 1385.66 515.471 1327.77 496.819 1256.24 492.859 C 1239.18 491.914 1219.85 492.957 1202.42 492.911 C 1204.93 492.268 1208.68 491.64 1211.31 491.122 z" fill="rgb(197,127,44)" transform="translate(0,0)"></path>
<path d="M 829.324 1555.33 C 750.473 1548.69 676.427 1511.27 625.088 1451.19 C 547.546 1360.45 554.676 1275.45 555.903 1165.05 C 556.325 1127.09 553.614 1076.84 556.962 1039.85 C 563.891 963.253 601.538 892.725 661.322 844.341 C 696.734 814.985 738.651 794.521 783.578 784.652 C 824.531 775.749 872.099 777.884 914.392 777.856 L 1047.01 777.447 L 1155.79 777.423 C 1177.97 777.458 1208.69 777.088 1230.21 779.156 C 1308.85 786.302 1381.34 824.64 1431.52 885.609 C 1506.03 976.663 1498.37 1058.33 1498.12 1167.69 C 1498.04 1204.98 1499.43 1252.79 1496.24 1289.15 C 1489.31 1368.35 1447.86 1440.41 1386 1490.21 C 1330.13 1534.66 1260.49 1558.22 1189.11 1556.81 C 1176.01 1558.09 1151.8 1557.45 1138.02 1557.39 L 1050.06 1557.1 L 912.209 1557.13 C 899.983 1557.14 837.535 1557.82 829.324 1555.33 z" fill="rgb(174,128,61)" transform="translate(0,0)"></path>
<path d="M 829.324 1555.33 C 750.473 1548.69 676.427 1511.27 625.088 1451.19 C 547.546 1360.45 554.676 1275.45 555.903 1165.05 C 556.325 1127.09 553.614 1076.84 556.962 1039.85 C 563.891 963.253 601.538 892.725 661.322 844.341 C 696.734 814.985 738.651 794.521 783.578 784.652 C 824.531 775.749 872.099 777.884 914.392 777.856 L 1047.01 777.447 L 1155.79 777.423 C 1177.97 777.458 1208.69 777.088 1230.21 779.156 C 1308.85 786.302 1381.34 824.64 1431.52 885.609 C 1506.03 976.663 1498.37 1058.33 1498.12 1167.69 C 1498.04 1204.98 1499.43 1252.79 1496.24 1289.15 C 1489.31 1368.35 1447.86 1440.41 1386 1490.21 C 1330.13 1534.66 1260.49 1558.22 1189.11 1556.81 C 1189.7 1554.72 1193.75 1555.57 1196.25 1555.49 C 1217.47 1554.93 1238.67 1552.08 1259.46 1547.83 C 1387.46 1521.64 1492.04 1405.76 1494.89 1272.84 C 1495.51 1227.22 1495.82 1181.59 1495.84 1135.97 C 1495.82 1110.1 1496.41 1073.72 1494.42 1048.83 C 1489.51 980.659 1460.53 916.455 1412.65 867.684 C 1369.36 822.707 1306.68 791.893 1244.98 783.277 C 1219.4 779.706 1182.78 779.454 1156.82 779.493 C 1127.87 779.346 1098.91 779.426 1069.96 779.731 C 1054.17 779.771 1038.36 778.281 1022.45 778.341 C 961.744 778.568 901.015 780.34 840.303 779.088 C 841.814 779.777 842.614 779.957 844.218 780.281 C 834.795 780.858 824.992 780.654 815.753 781.519 C 781.197 785.097 747.612 795.092 716.723 810.991 C 647.977 846.182 595.63 904.6 572.095 978.597 C 565.717 998.241 561.424 1018.5 559.285 1039.04 C 555.705 1074.76 557.65 1127.2 557.515 1164.41 C 558.61 1211.59 554.642 1260.53 561.463 1307.33 C 579.5 1431.09 679.986 1526.99 801.091 1549.9 C 810.567 1551.69 821.275 1551.62 830.438 1554.5 L 829.324 1555.33 z" fill="rgb(133,81,7)" transform="translate(0,0)"></path>
<path d="M 1232.55 897.588 C 1315.88 890.206 1389.43 951.731 1396.89 1035.05 C 1404.35 1118.38 1342.89 1191.99 1259.58 1199.52 C 1176.15 1207.07 1102.43 1145.51 1094.96 1062.08 C 1087.49 978.65 1149.11 904.98 1232.55 897.588 z" fill="rgb(245,234,203)" transform="translate(0,0)"></path>
<path d="M 1235.24 959.04 C 1283.51 952.562 1327.88 986.453 1334.33 1034.72 C 1340.77 1082.99 1306.85 1127.34 1258.58 1133.76 C 1210.35 1140.17 1166.05 1106.29 1159.61 1058.06 C 1153.17 1009.84 1187.02 965.512 1235.24 959.04 z" fill="rgb(133,81,7)" transform="translate(0,0)"></path>
<path d="M 1228.11 983.135 C 1244.62 982.405 1253.02 993.472 1246.31 1008.21 C 1242.34 1016.95 1221.18 1015.92 1214.79 1027.4 C 1209.33 1037.18 1209.36 1042.36 1200.24 1048.92 C 1156.35 1052.85 1183.27 993.872 1228.11 983.135 z" fill="rgb(245,234,203)" transform="translate(0,0)"></path>
<path d="M 795.873 897.19 C 879.403 894.399 949.42 959.769 952.362 1043.29 C 955.305 1126.82 890.063 1196.95 806.544 1200.05 C 722.809 1203.15 652.452 1137.71 649.502 1053.96 C 646.551 970.224 712.127 899.987 795.873 897.19 z" fill="rgb(245,234,203)" transform="translate(0,0)"></path>
<path d="M 788.821 959.328 C 836.864 952.027 881.744 985.011 889.122 1033.04 C 896.5 1081.07 863.589 1126.01 815.57 1133.46 C 767.441 1140.93 722.384 1107.93 714.989 1059.79 C 707.594 1011.65 740.669 966.646 788.821 959.328 z" fill="rgb(133,81,7)" transform="translate(0,0)"></path>
<path d="M 779.883 983.145 C 793.889 982.424 805.138 986.359 802.813 1003.49 C 800.564 1020.06 779.837 1012.7 770.629 1025.36 C 763.369 1035.33 766.072 1040.8 755.347 1048.43 C 744.943 1050.64 733.763 1047.68 732.503 1036.83 C 729.656 1012.32 760.882 988.02 779.883 983.145 z" fill="rgb(245,234,203)" transform="translate(0,0)"></path>
<path d="M 1037.63 1487.02 C 1026.84 1486.39 1016.04 1486.84 1004.91 1486.14 C 916.91 1480.65 832.743 1428.96 790.198 1351.46 C 784.244 1340.62 778.643 1327.76 777.161 1315.39 C 774.01 1291.33 793.37 1269.35 817.438 1268.56 C 824.783 1268.33 832.069 1269.94 838.637 1273.23 C 858.982 1283.46 857.817 1299.81 866.176 1317.48 C 872.585 1329.34 881.595 1340.5 891.125 1349.87 C 970.087 1427.58 1119.05 1417.06 1178.83 1321.16 C 1186.34 1307.86 1187.55 1292.52 1198.82 1281.34 C 1215.86 1264.11 1242.83 1263.87 1259.68 1281.57 C 1283.14 1306.19 1265.55 1339.13 1250.66 1363.12 C 1235.78 1387.08 1215.57 1409.03 1194.03 1427.5 C 1188.54 1452.69 1063.52 1499.31 1037.63 1487.02 z" fill="rgb(245,234,203)" transform="translate(0,0)"></path>
<path d="M 1194.03 1427.5 C 1188.54 1452.69 1063.52 1499.31 1037.63 1487.02 C 1048.78 1485.41 1061.55 1485.23 1072.17 1483.14 C 1121 1473.51 1154.51 1456.33 1194.03 1427.5 z" fill="rgb(167,106,28)" transform="translate(0,0)"></path>
<path d="M 571.043 629.173 C 574.227 627.405 583.394 615.677 588.261 611.513 C 612.721 590.592 645.142 564.831 676.132 555.49 C 682.604 554.593 687.818 555.132 692.929 559.188 C 711.158 573.655 705.126 588.669 689.541 602.28 C 684.273 606.881 673.261 614.626 668.795 619.952 L 667.819 621.468 C 665.576 625.151 652.19 637.09 647.979 638.846 C 642.638 642.679 628.953 658.296 626.035 663.829 C 625.72 666.776 614.704 680.906 611.808 685.736 C 605.953 695.505 600.633 705.586 595.872 715.932 C 585.771 737.771 578.676 760.878 574.782 784.622 C 571.635 804.615 573.882 828.804 554.857 841.36 C 538.056 852.862 514.975 848.39 503.591 831.574 C 492.339 814.953 499.167 782.431 503.06 763.793 C 511.627 722.516 528.685 683.471 553.152 649.141 C 557.52 643.065 564.858 633.216 571.043 629.173 z" fill="rgb(245,234,203)" transform="translate(0,0)"></path>
<path d="M 626.035 663.829 C 625.72 666.776 614.704 680.906 611.808 685.736 C 605.953 695.505 600.633 705.586 595.872 715.932 C 585.771 737.771 578.676 760.878 574.782 784.622 C 571.635 804.615 573.882 828.804 554.857 841.36 C 538.056 852.862 514.975 848.39 503.591 831.574 C 492.339 814.953 499.167 782.431 503.06 763.793 C 511.627 722.516 528.685 683.471 553.152 649.141 C 557.52 643.065 564.858 633.216 571.043 629.173 C 559.075 645.755 546.967 659.179 536.533 678.597 C 515.146 718.401 498.262 770.867 500.041 816.58 C 501.171 845.642 548.415 857.447 562.672 830.778 C 569.618 819.539 570.122 809.371 571.387 796.672 C 575.23 758.101 588.658 721.605 608.353 688.361 C 611.172 683.604 621.725 666.743 626.035 663.829 z" fill="rgb(174,128,61)" transform="translate(0,0)"></path>
<path d="M 647.979 638.846 C 652.121 633.802 663.387 623.289 668.795 619.952 L 667.819 621.468 C 665.576 625.151 652.19 637.09 647.979 638.846 z" fill="rgb(197,127,44)" transform="translate(0,0)"></path>
<path d="M 715.279 544.963 C 711.695 539.394 732.386 530.876 736.99 530.756 C 738.388 530.72 747.254 528.439 749.028 528.014 L 753.023 527.088 C 767.524 523.706 774.483 526.934 783.056 537.556 C 789.482 545.52 784.987 564.87 777.931 564.203 C 756.894 574.003 700.039 589.912 715.279 544.963 z" fill="rgb(245,234,203)" transform="translate(0,0)"></path>
<path d="M 715.279 544.963 C 711.695 539.394 732.386 530.876 736.99 530.756 C 738.388 530.72 747.254 528.439 749.028 528.014 L 753.023 527.088 C 767.524 523.706 774.483 526.934 783.056 537.556 C 789.482 545.52 784.987 564.87 777.931 564.203 C 778.694 562.407 779.186 562.329 780.396 560.793 C 787.319 552.009 784.316 537.435 775.04 531.495 C 764.281 524.594 751.708 529.797 740.487 531.806 C 725.88 534.421 724.641 535.766 715.279 544.963 z" fill="rgb(174,128,61)" transform="translate(0,0)"></path>
<metadata><recraft-signature>{"signed_by": "recraft", "signature_b64": "l6Oph8Z2dtpIljNq13bCzGOUGILp9huoQLdXdkElFQTBHeirO+z0Wh5qHxKvYQZwnK7iVPp8WqjErgg7SH4JDQ==", "signing_algo": "Ed25519", "generation_timestamp": 1781914945, "identifier": "9d1836d7-733a-4103-b2a8-9a4116f1fab8"}</recraft-signature></metadata></svg>