<svg xmlns="http://www.w3.org/2000/svg" height="1024" preserveAspectRatio="none" style="display: block;" version="1.1" viewBox="0 0 2048 2048" width="1024">
<path d="M 734.022 503.103 C 782.838 395.413 854.482 300.438 939.091 218.332 C 955.745 202.17 981.782 175.985 1003.1 167.683 C 1044.52 151.557 1074.65 182.781 1102.36 207.715 C 1176.74 275.074 1239.82 353.937 1289.2 441.295 C 1300.38 460.955 1313.15 483.661 1321.8 504.585 C 1370.11 606.7 1397.02 726.928 1397.9 839.36 C 1398.01 852.812 1399.26 889.219 1398.14 902.366 C 1394.36 993.098 1385.03 1083.51 1370.19 1173.1 C 1363.93 1211.88 1352.05 1259.47 1347.54 1296.48 C 1338.81 1333.72 1330.3 1359.82 1295.8 1382.19 C 1270.48 1398.6 1243.36 1399.27 1214.47 1402.2 C 1209.91 1402.66 1195.78 1403.94 1192.19 1405.11 C 1177.22 1404.77 1153.08 1408.13 1137.6 1409.06 C 1079.97 1412.57 1023.69 1414.71 965.972 1412.03 C 951.408 1411.35 927.141 1411.27 913.634 1409.6 C 898.58 1407.79 873.758 1405.4 858.946 1404.96 C 821.09 1397.62 789.488 1404.88 754.091 1380.68 C 722.461 1359.06 713.14 1335.99 705.525 1300.12 C 698.056 1278.02 694.918 1243.34 690.129 1219.66 C 668.804 1114.22 660.314 1010.46 656.036 903.002 C 654.76 883.116 655.931 846.335 656.669 826.632 C 661.056 709.493 685.559 609.693 734.022 503.103 z" fill="rgb(186,108,14)" transform="translate(0,0)"></path>
<path d="M 734.022 503.103 C 782.838 395.413 854.482 300.438 939.091 218.332 C 955.745 202.17 981.782 175.985 1003.1 167.683 C 1044.52 151.557 1074.65 182.781 1102.36 207.715 C 1176.74 275.074 1239.82 353.937 1289.2 441.295 C 1300.38 460.955 1313.15 483.661 1321.8 504.585 C 1315.97 505.458 1294.07 512.814 1286.36 514.879 C 1260.32 521.856 1234.68 528.666 1208.09 533.566 C 1058.68 561.098 877.306 555.763 734.022 503.103 z" fill="rgb(214,144,49)" transform="translate(0,0)"></path>
<path d="M 1009.82 233.247 C 1036.53 231.195 1053.88 260.138 1039.37 282.735 C 1034.49 289.884 1027.02 295.207 1020.6 300.818 C 978.003 337.991 939.97 383.573 907.73 429.994 C 896.606 446.011 888.441 465.187 867.775 469.536 C 836.963 471.706 823.46 442.74 839.599 417.28 C 871.521 366.787 911.608 321.032 953.358 278.471 C 968.937 262.59 988.234 239.079 1009.82 233.247 z" fill="rgb(248,163,13)" transform="translate(0,0)"></path>
<path d="M 1014.7 653.407 C 1044.26 650.122 1077.73 662.461 1100.82 680.419 C 1150.15 718.791 1176.36 786.91 1184.32 847.257 C 1194.48 924.33 1178.85 1013.5 1130.41 1075.68 C 1105.55 1107.58 1076.63 1128.16 1036.24 1133.42 C 1004.33 1136.88 973.235 1125.2 948.485 1105.61 C 895.622 1062.68 871.447 991.426 864.238 925.455 C 858.492 872.865 867.672 811.941 888.344 763.177 C 910.351 711.263 955.607 659.058 1014.7 653.407 z" fill="rgb(254,204,104)" transform="translate(0,0)"></path>
<path d="M 781.747 617.131 C 798.247 616.283 811.015 620.09 817.194 637.141 C 821.026 647.715 817.602 657.953 814.345 668.155 C 805.789 694.949 799.342 722.981 794.329 750.669 C 776.804 844.73 772.449 940.772 781.39 1036.03 C 783.827 1063.99 787.652 1092.13 791.055 1120 C 794.449 1147.79 811.419 1182.66 773.206 1194.49 C 755.99 1195.92 740.462 1186.58 736.748 1169.06 C 703.112 1010.41 706.148 842.501 744.765 685.046 C 749.164 667.111 754.505 647.032 762.342 630.488 C 766.24 622.217 773.525 619.38 781.747 617.131 z" fill="rgb(254,204,104)" transform="translate(0,0)"></path>
<path d="M 779.175 1264.11 C 792.172 1262.77 831.461 1267.96 843.336 1273.74 C 870.443 1286.93 866.864 1323.37 837.55 1333.95 C 826.491 1334.98 786.521 1327.54 775.444 1323.49 C 747.297 1313.21 750.721 1275.54 779.175 1264.11 z" fill="rgb(254,204,104)" transform="translate(0,0)"></path>
<path d="M 1137.6 1409.06 C 1153.08 1408.13 1177.22 1404.77 1192.19 1405.11 C 1204.35 1412.39 1218.09 1427.28 1227.25 1437.92 C 1281.42 1500.87 1308.13 1569.32 1300.39 1652.99 C 1298.58 1677.67 1288.13 1725.53 1268.89 1742.38 C 1239.62 1767.99 1180.48 1693.84 1164.47 1674.63 C 1157.1 1718.18 1150.43 1749.84 1125.32 1790.59 C 1105.68 1822.48 1065.86 1870.85 1029.72 1884.05 C 1023.46 1886.34 1012.09 1879.26 1006.6 1875.3 C 958.322 1840.45 921.116 1790.3 900.741 1734.43 C 893.81 1715.42 890.5 1696.76 886.989 1677.3 C 875.742 1689.78 864.068 1701.87 851.987 1713.54 C 838.486 1726.59 800.256 1765.82 782.83 1742.19 C 758.809 1709.62 751.164 1653.99 752.449 1614.31 C 754.459 1552.28 780.963 1489.16 820.716 1441.97 C 830.382 1430.6 847.578 1415.54 858.946 1404.96 C 873.758 1405.4 898.58 1407.79 913.634 1409.6 C 927.141 1411.27 951.408 1411.35 965.972 1412.03 C 1023.69 1414.71 1079.97 1412.57 1137.6 1409.06 z" fill="rgb(248,163,13)" transform="translate(0,0)"></path>
<path d="M 913.634 1409.6 C 927.141 1411.27 951.408 1411.35 965.972 1412.03 C 1023.69 1414.71 1079.97 1412.57 1137.6 1409.06 C 1148.47 1418.92 1163.15 1432.33 1171.9 1444.05 C 1192 1471.68 1204.77 1506.61 1207.38 1540.67 C 1208.11 1550.12 1206.37 1559.84 1199.78 1567.22 C 1189.65 1578.56 1168.3 1580.01 1157.42 1569.04 C 1148.52 1560.06 1145.25 1544.29 1139.93 1533.08 C 1134.05 1519.78 1116.78 1488.75 1103.85 1482.44 C 1100.06 1482.4 1101.73 1481.85 1098.71 1484.23 C 1096.59 1489.11 1099.15 1501.71 1100.26 1506.96 C 1112.73 1566.04 1098.44 1630.07 1054.46 1672.95 C 1044.67 1682.49 1031.38 1695.41 1016.33 1688.23 C 953.621 1644.27 935.227 1563.38 952.434 1491.59 C 953.654 1486.5 953.113 1484.32 948.804 1481.55 C 940.701 1481.81 919.533 1516.38 915.357 1523.97 C 904.632 1543.79 903.632 1575.87 874.622 1576.96 C 855.599 1577.68 843.319 1560.08 844.662 1542.19 C 848.351 1493.05 873.406 1439.27 913.634 1409.6 z" fill="rgb(254,204,104)" transform="translate(0,0)"></path>
<path d="M 1398.14 902.366 C 1431.62 917.302 1469.56 936.647 1499.42 957.939 C 1616.89 1041.72 1702.27 1175.76 1708.89 1321.96 C 1712.61 1404.54 1692.76 1488.02 1672.32 1567.49 C 1665.49 1594.05 1661.43 1617.62 1632.6 1628.6 C 1604.47 1639.7 1572.36 1622.64 1563.24 1594.33 C 1559.44 1582.55 1558.86 1568.15 1556.03 1555.99 C 1553.32 1540.78 1549.93 1528.12 1545.55 1513.3 C 1519.57 1427.38 1460.77 1355.16 1381.9 1312.31 C 1370.58 1306.24 1359.33 1301.47 1347.54 1296.48 C 1352.05 1259.47 1363.93 1211.88 1370.19 1173.1 C 1385.03 1083.51 1394.36 993.098 1398.14 902.366 z" fill="rgb(149,85,4)" transform="translate(0,0)"></path>
<path d="M 1471.45 1025.19 C 1494.23 1023.92 1506.92 1041.83 1522.17 1055.89 C 1612.01 1138.64 1666.87 1257.27 1651.55 1380.62 C 1648.48 1405.33 1651.11 1422.81 1623.83 1432.64 C 1574.65 1437.59 1589.17 1391.65 1591.32 1362.32 C 1593.74 1330.13 1590.58 1297.77 1581.99 1266.65 C 1566.17 1207.2 1531.67 1153.6 1488.76 1110.04 C 1475.12 1092.82 1443.24 1079.1 1446.05 1053.91 C 1447.88 1037.47 1457.86 1030.3 1471.45 1025.19 z" fill="rgb(248,163,13)" transform="translate(0,0)"></path>
<path d="M 656.036 903.002 C 660.314 1010.46 668.804 1114.22 690.129 1219.66 C 694.918 1243.34 698.056 1278.02 705.525 1300.12 C 702.339 1301.04 699.203 1302.13 696.13 1303.37 C 590.901 1344.97 515.955 1442.58 497.02 1553.14 C 491.755 1583.88 492.37 1614.85 457.468 1628.05 C 443.707 1633.2 428.444 1632.54 415.176 1626.23 C 401.981 1620.14 391.827 1608.95 387.044 1595.23 C 377.512 1567.93 368.455 1521.64 362.245 1492.78 C 336.448 1372.9 338.233 1259.78 392.286 1147.66 C 435.588 1057.83 505.029 984.211 591.598 934.718 C 608.716 924.932 637.649 909.399 656.036 903.002 z" fill="rgb(149,85,4)" transform="translate(0,0)"></path>
<path d="M 567.88 1025.19 C 588.802 1026.23 604.373 1043.07 600.134 1063.61 C 597.039 1078.61 571.27 1095.48 560.777 1106.98 C 536.483 1133.6 515.668 1163.37 499.291 1195.33 C 479.138 1234.59 466.862 1277.41 463.152 1321.39 C 461.599 1338.43 461.712 1355.58 463.49 1372.59 C 466.128 1400.51 474.517 1421.67 440.426 1432.25 C 400.369 1437.28 402.039 1391.04 400.91 1363.54 C 396.193 1248.65 448.394 1130.74 530.161 1051.04 C 541.553 1039.93 551.671 1028.64 567.88 1025.19 z" fill="rgb(248,163,13)" transform="translate(0,0)"></path>
<metadata><recraft-signature>{"signed_by": "recraft", "signature_b64": "10cH1IeTA0aoJJQduG3vWlbPgSN7pihN+zrgIkF8SEd9t8kvd1l4XqxEWNJFKxOsE6Gu/Oparm5/hnPZO23dDg==", "signing_algo": "Ed25519", "generation_timestamp": 1781914936, "identifier": "328fd2cd-8723-47ec-b6e8-e54484ffadd5"}</recraft-signature></metadata></svg>