<svg xmlns="http://www.w3.org/2000/svg" height="1024" preserveAspectRatio="none" style="display: block;" version="1.1" viewBox="0 0 2048 2048" width="1024">
<path d="M 525.686 281.392 C 537.323 280.19 566.917 280.959 580.058 280.957 L 687.95 280.967 L 1039.73 281.053 L 1379.19 280.988 L 1475.15 280.979 C 1500.99 280.983 1528.37 280.042 1553.73 283.939 C 1603.24 291.548 1643.72 310.114 1683.03 340.702 C 1739.15 385.239 1775.33 450.205 1783.64 521.366 C 1786.06 541.461 1785.07 570.608 1785.04 591.665 L 1784.9 706.595 L 1785.17 863.672 C 1785.57 972.492 1792.91 1009.4 1721.16 1100.67 C 1718.75 1182.17 1721.4 1266.18 1720.54 1347.78 C 1720.17 1382.58 1722.45 1432.1 1718.61 1465.49 C 1714.87 1496.6 1707.27 1527.12 1695.99 1556.36 C 1659.58 1648.03 1588.54 1721.69 1498.25 1761.42 C 1423.84 1791.95 1383.24 1788.91 1305.05 1789.12 L 1155.84 1789.8 L 703.317 1789.97 C 680.948 1789.94 659.749 1788.93 637.592 1785.37 C 478.051 1759.73 350.076 1622.52 332.758 1462.33 C 330.223 1438.88 330.415 1415.02 330.341 1391.44 L 330.278 1306.73 L 330.225 1098.61 C 293.077 1060.88 270.503 1011.2 266.508 958.397 C 264.964 937.244 265.951 905.377 265.951 883.4 L 266.064 739.699 L 265.919 608.965 C 265.875 573.493 263.923 535.267 270.719 500.437 C 294.873 376.638 401.11 289.654 525.686 281.392 z" fill="rgb(216,148,4)" transform="translate(0,0)"></path>
<path d="M 1473.73 457.014 C 1483.5 456.777 1493.27 456.757 1503.04 456.954 C 1552.5 458.427 1596.54 494.863 1602.39 545.739 C 1604.35 562.75 1603.42 583.919 1603.41 601.308 L 1603.28 702.846 L 1603.32 865.748 C 1603.25 891.925 1604.76 926.848 1600.47 952.355 C 1597.57 969.613 1583.31 983.44 1573.05 996.493 C 1554.34 1020.1 1542.82 1048.6 1539.87 1078.57 C 1537.45 1102.18 1539.02 1149.92 1539.03 1175.68 L 1539.06 1327.39 C 1539.06 1354.94 1539.67 1385.37 1538.79 1412.77 C 1536.82 1466.92 1513.42 1518.07 1473.75 1554.98 C 1444.88 1581.72 1408.94 1599.6 1370.2 1606.47 C 1342.16 1611.55 1298.9 1609.88 1269.29 1609.77 L 1127 1609.57 L 854.517 1609.76 C 809.069 1609.79 762.951 1610.31 717.537 1609.72 C 662.518 1609.01 610.963 1584.53 573.478 1544.04 C 548.851 1517.41 531.526 1484.86 523.184 1449.56 C 516.161 1419.5 517.646 1380.09 517.512 1348.33 L 517.439 1171.45 C 517.429 1143.33 518.365 1110.12 516.403 1082.59 C 514.608 1057.41 500.139 1020.56 483.849 1001.44 C 472.064 987.605 453.173 970.91 449.341 951.888 C 445.798 934.292 446.821 904.74 446.824 885.896 L 446.877 793.06 L 446.987 639.327 C 447.008 610.866 446.905 582.542 447.448 554.042 C 448.355 506.483 486.405 465.963 532.832 458.645 C 547.136 456.39 562.505 456.714 576.903 457.526 C 581.394 457.649 586.039 457.843 590.517 457.849 L 610.258 586.372 C 615.439 620.7 622.785 684.414 635.553 714.072 C 648.442 743.476 668.763 769.018 694.519 788.184 C 738.454 821.076 781.576 825.749 833.302 831.534 L 892.277 838.347 C 900.774 839.27 926.693 840.721 932.612 842.142 C 935.504 842.834 943.463 842.919 946.624 842.947 L 1190.73 842.836 L 1267.09 842.905 C 1331.83 842.955 1375.6 843.149 1425.33 793.605 C 1445.66 773.121 1460.12 747.561 1467.2 719.588 C 1476.31 684.352 1474.05 631.028 1474.02 593.051 L 1473.73 457.014 z" fill="rgb(252,215,130)" transform="translate(0,0)"></path>
<path d="M 576.903 457.526 C 581.394 457.649 586.039 457.843 590.517 457.849 L 610.258 586.372 C 615.439 620.7 622.785 684.414 635.553 714.072 C 648.442 743.476 668.763 769.018 694.519 788.184 C 738.454 821.076 781.576 825.749 833.302 831.534 L 892.277 838.347 C 900.774 839.27 926.693 840.721 932.612 842.142 C 882.882 843.879 829.526 841.732 779.548 842.808 C 760.437 842.488 740.418 843.602 721.466 841.082 C 652.083 831.858 593.039 777.044 580.275 707.972 C 574.548 676.98 576.823 640.089 576.834 608.452 L 576.903 457.526 z" fill="rgb(176,109,1)" transform="translate(0,0)"></path>
<path d="M 1135.47 1449.1 C 1134.21 1452.5 1132.88 1455.89 1131.48 1459.24 C 1091.52 1553.46 961.031 1551.65 925.835 1457.77 C 922.118 1448.06 919.833 1437.86 919.051 1427.49 C 917.498 1406.98 918.207 1378.32 918.164 1357.21 L 917.996 1235.02 L 918.332 1119.23 C 918.56 1087.94 915.401 1056.63 928.865 1027.7 C 941.46 1000.04 964.786 978.715 993.457 968.644 C 1021.81 958.487 1050.1 960.569 1077.05 973.476 C 1112.54 988.868 1137.34 1030.81 1138.72 1068.69 C 1139.41 1087.84 1139.33 1107.27 1139.33 1126.45 L 1139.21 1224.74 L 1139.06 1357.94 C 1139.06 1369.46 1140.06 1434.83 1137.59 1440.89 C 1136.91 1443.64 1136.15 1446.34 1135.47 1449.1 z" fill="rgb(214,159,74)" transform="translate(0,0)"></path>
<path d="M 1135.47 1449.1 C 1134.21 1452.5 1132.88 1455.89 1131.48 1459.24 C 1091.52 1553.46 961.031 1551.65 925.835 1457.77 C 922.118 1448.06 919.833 1437.86 919.051 1427.49 C 917.498 1406.98 918.207 1378.32 918.164 1357.21 L 917.996 1235.02 L 918.332 1119.23 C 918.56 1087.94 915.401 1056.63 928.865 1027.7 C 941.46 1000.04 964.786 978.715 993.457 968.644 C 1021.81 958.487 1050.1 960.569 1077.05 973.476 L 1075.72 973.963 C 1071.88 975.33 1066.41 976.739 1062.12 978.02 C 1027.52 988.346 1003.04 1018.84 998.71 1054.44 C 996.771 1070.39 997.955 1092.75 997.966 1109.43 L 998.028 1208.77 L 997.778 1330.2 C 997.728 1351.24 996.745 1374.87 998.151 1395.63 C 1001.41 1443.74 1054.49 1490.57 1103.26 1473.96 C 1116.06 1469.6 1128.72 1455.07 1133.93 1443.04 C 1134.9 1440.38 1134.99 1440.18 1137.59 1440.89 C 1136.91 1443.64 1136.15 1446.34 1135.47 1449.1 z" fill="rgb(176,109,1)" transform="translate(0,0)"></path>
<path d="M 1133.93 1443.04 C 1134.9 1440.38 1134.99 1440.18 1137.59 1440.89 C 1136.91 1443.64 1136.15 1446.34 1135.47 1449.1 C 1134.93 1447.09 1134.41 1445.07 1133.93 1443.04 z" fill="rgb(216,148,4)" transform="translate(0,0)"></path>
<path d="M 1450.76 1446.11 C 1449.79 1449.67 1448.74 1453.2 1447.63 1456.72 C 1438.39 1484.39 1418.64 1507.32 1392.65 1520.57 C 1367.89 1533.1 1336.98 1535.12 1310.71 1526.4 C 1283.34 1517.42 1260.7 1497.87 1247.81 1472.11 C 1243.33 1463.14 1240.18 1453.57 1238.47 1443.69 C 1236.49 1431.91 1236.09 1368.22 1237.46 1355.21 C 1238.19 1348.17 1239.74 1341.23 1242.1 1334.55 C 1258.92 1285.4 1307.49 1255.43 1359.22 1261.95 C 1370.82 1263.42 1380.21 1266.54 1391.2 1270.45 C 1414.26 1280.3 1435.07 1302.91 1444.48 1326.05 C 1448.02 1334.85 1450.46 1344.06 1451.75 1353.46 C 1453.16 1363.64 1454.47 1434.26 1451.37 1441.11 C 1451.19 1442.8 1451.05 1444.44 1450.76 1446.11 z" fill="rgb(176,109,1)" transform="translate(0,0)"></path>
<path d="M 1391.2 1270.45 C 1414.26 1280.3 1435.07 1302.91 1444.48 1326.05 C 1448.02 1334.85 1450.46 1344.06 1451.75 1353.46 C 1453.16 1363.64 1454.47 1434.26 1451.37 1441.11 C 1451.19 1442.8 1451.05 1444.44 1450.76 1446.11 C 1449.68 1445.74 1448.48 1445.25 1447.4 1444.83 C 1444.97 1454.7 1433.14 1468.51 1423.95 1472.59 C 1406.82 1480.19 1384.62 1478.93 1367.43 1472.37 C 1325.83 1456.49 1308.28 1414.06 1311.14 1371.87 C 1312.14 1355.96 1311.63 1345.02 1317.92 1329.73 C 1330.9 1298.18 1356.38 1277.03 1390.01 1271.02 C 1390.4 1270.83 1390.8 1270.64 1391.2 1270.45 z" fill="rgb(214,159,74)" transform="translate(0,0)"></path>
<path d="M 1447.4 1444.83 C 1447.98 1443.6 1449.17 1440.08 1451.37 1441.11 C 1451.19 1442.8 1451.05 1444.44 1450.76 1446.11 C 1449.68 1445.74 1448.48 1445.25 1447.4 1444.83 z" fill="rgb(216,148,4)" transform="translate(0,0)"></path>
<path d="M 868.967 459.817 C 888.86 455.977 915.322 457.056 936.109 457.073 L 1021.78 457.153 C 1114 457.247 1208.38 455.962 1300.32 457.136 C 1299.92 529.04 1299.98 600.946 1300.51 672.849 L 1016.98 672.976 L 943.938 673.042 C 926.665 673.059 904.331 673.751 887.83 670.766 C 880.942 674.557 835.743 672.097 825.132 672.49 C 811.327 673.002 792.308 672.968 778.121 671.762 C 765.015 670.647 755.134 659.144 753.514 646.305 C 751.926 626.322 752.938 605.409 752.963 585.268 L 752.822 457.962 C 768.476 457.925 862.941 456.519 868.967 459.817 z" fill="rgb(252,215,130)" transform="translate(0,0)"></path>
<path d="M 752.822 457.962 C 768.476 457.925 862.941 456.519 868.967 459.817 C 849.876 467.613 838.488 481.081 837.292 502.071 C 835.987 524.979 837.686 548.248 837.011 571.205 C 835.086 616.625 839.831 652.76 887.83 670.766 C 880.942 674.557 835.743 672.097 825.132 672.49 C 811.327 673.002 792.308 672.968 778.121 671.762 C 765.015 670.647 755.134 659.144 753.514 646.305 C 751.926 626.322 752.938 605.409 752.963 585.268 L 752.822 457.962 z" fill="rgb(176,109,1)" transform="translate(0,0)"></path>
<metadata><recraft-signature>{"signed_by": "recraft", "signature_b64": "hzTKmTT2ifSnYrIdH6eqeP3HH8+wRvBkO7r2adsY6e7uFfj2jzu7V1Q64f51MeVFxrlhUbhIuEX6qyHvla8CCA==", "signing_algo": "Ed25519", "generation_timestamp": 1781914861, "identifier": "51a6239b-962b-4cd6-b61c-adf74d027de1"}</recraft-signature></metadata></svg>