<svg xmlns="http://www.w3.org/2000/svg" height="1024" preserveAspectRatio="none" style="display: block;" version="1.1" viewBox="0 0 2048 2048" width="1024">
<path d="M 446.317 1453.93 C 439.893 1446.48 420.173 1416.83 414.77 1408.42 C 369.91 1339.92 336.633 1264.51 316.273 1185.2 C 264.38 982.415 299.45 775.018 405.901 595.859 C 492.21 453.774 622.654 343.844 777.309 282.858 C 903.997 232.202 1038.85 216.366 1174.04 236.111 C 1190.83 238.564 1219.77 241.368 1235.03 249.843 C 1268.36 268.361 1268 325.709 1229.43 338.115 C 1090.12 370.478 978.193 438.677 898.068 560.799 C 828.506 666.822 798.316 804.306 824.903 932.454 C 850.448 1058.36 925.754 1168.61 1033.74 1238.21 C 1139.43 1307.12 1270.44 1332.03 1393.01 1304.12 C 1530.67 1272.76 1635.16 1190.3 1707.81 1071.93 C 1715.96 1058.86 1722.95 1045.1 1728.68 1030.8 C 1740.67 1000.64 1742.73 978.252 1779.67 970.756 C 1810.49 971.666 1831.77 990.29 1830.4 1022.16 C 1821.75 1223.19 1727.3 1419.94 1579.44 1555.72 C 1471.04 1654.88 1336.72 1721.22 1192.1 1747.03 C 1134.94 1756.51 1076.91 1759.79 1019.04 1756.81 C 856.396 1749.83 684.647 1680.21 560.952 1575.05 C 531.01 1549.59 508.225 1526.21 481.824 1497.39 C 469.109 1483.65 457.251 1469.13 446.317 1453.93 z" fill="rgb(227,166,82)" transform="translate(0,0)"></path>
<path d="M 1779.67 970.756 C 1810.49 971.666 1831.77 990.29 1830.4 1022.16 C 1821.75 1223.19 1727.3 1419.94 1579.44 1555.72 C 1471.04 1654.88 1336.72 1721.22 1192.1 1747.03 C 1134.94 1756.51 1076.91 1759.79 1019.04 1756.81 C 856.396 1749.83 684.647 1680.21 560.952 1575.05 C 531.01 1549.59 508.225 1526.21 481.824 1497.39 C 469.109 1483.65 457.251 1469.13 446.317 1453.93 C 453.496 1456.84 475.028 1472.75 482.969 1478.08 C 500.112 1489.58 516.556 1500.85 534.549 1511.29 C 626.826 1565.89 727.241 1605.39 831.991 1628.27 C 881.14 1639.45 938.584 1644.98 988.875 1645.07 C 1137.65 1645.63 1283.45 1603.32 1408.81 1523.2 C 1557.79 1428.53 1672.4 1288.49 1735.74 1123.73 C 1755.15 1072.89 1767.69 1023.46 1779.67 970.756 z" fill="rgb(189,116,2)" transform="translate(0,0)"></path>
<path d="M 721.607 395.241 C 761.952 392.853 783.714 442.204 757.865 468.916 C 741.685 485.637 713.846 500.511 695.067 515.904 C 520.074 659.345 431.778 898.539 480.686 1120.67 C 486.427 1146.87 493.984 1172.64 503.301 1197.79 C 515.53 1231.25 541.572 1272.05 501.943 1299.1 C 494.11 1304.45 487.418 1305.73 478.391 1307.08 C 441.134 1306.13 435.145 1280.92 424.333 1252.94 C 406.555 1206.93 390.995 1160.16 382.637 1111.41 C 338.664 854.959 451.234 577.831 663.35 426.685 C 681.396 413.83 699.322 399.037 721.607 395.241 z" fill="rgb(240,218,194)" transform="translate(0,0)"></path>
<path d="M 1046.69 1077.97 C 1073.13 1031.82 1137.24 1017.98 1185.65 1008.78 C 1195.2 1006.97 1214.81 1003.91 1222.29 998.363 C 1227.55 975.091 1151.92 945.55 1134.88 936.674 C 1101.81 919.445 1032.51 885.302 1028.13 843.246 C 1017.86 744.524 1156.96 720.453 1230.09 718.566 C 1258.31 717.631 1286.91 720.296 1315 721.976 C 1329.55 722.524 1348.72 726.167 1362.77 724.063 C 1370.22 722.947 1369.71 714.102 1365.33 708.268 C 1349.23 686.83 1319.4 672.259 1297.63 657.997 C 1246.65 624.592 1159.14 562.525 1196.28 491.501 C 1216.44 452.946 1270.2 434.654 1310.33 427.526 C 1384.47 414.36 1461.84 411.695 1535.17 430.547 C 1566.59 438.623 1589.48 448.976 1617.92 463.637 C 1636.64 475.038 1655.4 490.887 1660.62 513.169 C 1663.91 527.875 1661.1 543.288 1652.83 555.885 C 1626.04 596.062 1551.28 588.796 1509.02 587.658 C 1484.38 586.995 1459.76 585.964 1435.07 586.997 C 1480 614.857 1528.69 647.777 1564.74 686.208 C 1621.56 746.772 1623.31 844.067 1527.91 861.943 C 1473.94 872.843 1427.11 867.83 1372.74 866.512 C 1348.8 866.146 1324.85 866.949 1300.98 868.919 C 1300.06 869.077 1298.85 869.097 1298.26 869.953 C 1298.42 870.678 1299.03 870.621 1299.68 870.715 C 1310.37 876.193 1323.53 881.013 1333.61 886.294 C 1374.74 907.713 1433.32 952.393 1446.73 997.57 C 1479.28 1107.14 1299.84 1157.15 1221.95 1174.17 C 1173.48 1184.76 1122.77 1196.08 1076.33 1171.5 C 1039.33 1151.91 1028.6 1114.96 1046.69 1077.97 z M 1551.99 533.283 L 1553.19 532.139 C 1560.15 530.581 1563.09 527.641 1567.56 522.406 C 1575 507.149 1572.97 495.224 1559.95 484.343 C 1555.41 482.425 1550.76 480.798 1546.01 479.472 C 1491.73 463.795 1420.83 461.058 1365.27 470.211 C 1355.57 471.808 1342.51 473.487 1333.96 478.167 C 1329.27 481.869 1328.11 483.248 1325.27 488.746 L 1324.68 489.865 L 1324.47 490.75 C 1322.5 498.949 1321.68 499.457 1324.43 507.999 C 1328.5 517.645 1331.52 519.736 1339.78 524.862 C 1348.65 525.154 1352.77 525.083 1361.49 523.705 L 1367.49 522.713 C 1370.39 522.132 1378.56 521.162 1380.9 520.136 C 1418.41 517.391 1452.6 515.47 1490.18 521.243 C 1510.9 524.428 1531.31 530.013 1551.99 533.283 z" fill="rgb(227,166,82)" transform="translate(0,0)"></path>
<path d="M 1333.96 478.167 C 1342.51 473.487 1355.57 471.808 1365.27 470.211 C 1420.83 461.058 1491.73 463.795 1546.01 479.472 C 1550.76 480.798 1555.41 482.425 1559.95 484.343 C 1572.97 495.224 1575 507.149 1567.56 522.406 C 1567.17 522.046 1566.78 521.686 1566.39 521.326 C 1563.33 518.231 1550.31 520.76 1551.28 526.892 C 1551.38 527.533 1554.34 528.425 1554.79 529.59 C 1554.44 530.639 1552.13 529.645 1551.3 530.239 C 1551.74 531.32 1552.08 531.235 1553.19 532.139 L 1551.99 533.283 C 1531.31 530.013 1510.9 524.428 1490.18 521.243 C 1452.6 515.47 1418.41 517.391 1380.9 520.136 C 1379.97 515.333 1378.6 519.204 1377.68 519.522 C 1375.68 520.211 1367.29 519.796 1365.37 521.724 C 1357.76 521.004 1348.33 525.157 1340.43 522.666 C 1331.73 519.925 1340.81 514.481 1336.57 511.271 C 1335.75 511.316 1334.87 512.143 1334.24 512.57 L 1334.3 512.423 C 1333.12 512.594 1332.46 514.29 1331.47 514.368 C 1330.53 513.832 1330.34 512.449 1329.29 512.076 C 1328.97 512.188 1328.66 512.299 1328.34 512.411 L 1328.21 512.322 C 1328.71 509.033 1331.75 504.855 1332.74 497.75 C 1334.03 488.504 1326.87 491.709 1329.46 485.445 C 1330.98 481.772 1335.72 482.896 1334.65 486.707 C 1334.46 487.392 1332.8 492.155 1335.09 492.568 C 1340.93 492.827 1338.47 491.124 1339.8 488.026 C 1341 485.252 1336.04 478.894 1333.96 478.167 z" fill="rgb(240,218,194)" fill-opacity="0.964706" transform="translate(0,0)"></path>
<path d="M 1333.96 478.167 C 1336.04 478.894 1341 485.252 1339.8 488.026 C 1338.47 491.124 1340.93 492.827 1335.09 492.568 C 1332.8 492.155 1334.46 487.392 1334.65 486.707 C 1335.72 482.896 1330.98 481.772 1329.46 485.445 C 1326.87 491.709 1334.03 488.504 1332.74 497.75 C 1331.75 504.855 1328.71 509.033 1328.21 512.322 L 1328.34 512.411 C 1328.66 512.299 1328.97 512.188 1329.29 512.076 C 1330.34 512.449 1330.53 513.832 1331.47 514.368 C 1332.46 514.29 1333.12 512.594 1334.3 512.423 L 1334.24 512.57 C 1334.87 512.143 1335.75 511.316 1336.57 511.271 C 1340.81 514.481 1331.73 519.925 1340.43 522.666 C 1348.33 525.157 1357.76 521.004 1365.37 521.724 C 1367.29 519.796 1375.68 520.211 1377.68 519.522 C 1378.6 519.204 1379.97 515.333 1380.9 520.136 C 1378.56 521.162 1370.39 522.132 1367.49 522.713 L 1361.49 523.705 C 1352.77 525.083 1348.65 525.154 1339.78 524.862 C 1331.52 519.736 1328.5 517.645 1324.43 507.999 C 1330.3 499.337 1327.81 498.51 1324.68 489.865 L 1325.27 488.746 C 1328.11 483.248 1329.27 481.869 1333.96 478.167 z" fill="rgb(240,218,194)" fill-opacity="0.690196" transform="translate(0,0)"></path>
<path d="M 1553.19 532.139 C 1552.08 531.235 1551.74 531.32 1551.3 530.239 C 1552.13 529.645 1554.44 530.639 1554.79 529.59 C 1554.34 528.425 1551.38 527.533 1551.28 526.892 C 1550.31 520.76 1563.33 518.231 1566.39 521.326 C 1566.78 521.686 1567.17 522.046 1567.56 522.406 C 1563.09 527.641 1560.15 530.581 1553.19 532.139 z" fill="rgb(240,218,194)" fill-opacity="0.843137" transform="translate(0,0)"></path>
<path d="M 1324.68 489.865 C 1327.81 498.51 1330.3 499.337 1324.43 507.999 C 1321.68 499.457 1322.5 498.949 1324.47 490.75 L 1324.68 489.865 z" fill="rgb(240,218,194)" fill-opacity="0.443137" transform="translate(0,0)"></path>
<path d="M 1617.92 463.637 C 1636.64 475.038 1655.4 490.887 1660.62 513.169 C 1663.91 527.875 1661.1 543.288 1652.83 555.885 C 1626.04 596.062 1551.28 588.796 1509.02 587.658 C 1484.38 586.995 1459.76 585.964 1435.07 586.997 C 1480 614.857 1528.69 647.777 1564.74 686.208 C 1621.56 746.772 1623.31 844.067 1527.91 861.943 C 1473.94 872.843 1427.11 867.83 1372.74 866.512 C 1348.8 866.146 1324.85 866.949 1300.98 868.919 C 1300.06 869.077 1298.85 869.097 1298.26 869.953 C 1298.42 870.678 1299.03 870.621 1299.68 870.715 C 1310.37 876.193 1323.53 881.013 1333.61 886.294 C 1374.74 907.713 1433.32 952.393 1446.73 997.57 C 1479.28 1107.14 1299.84 1157.15 1221.95 1174.17 C 1173.48 1184.76 1122.77 1196.08 1076.33 1171.5 C 1039.33 1151.91 1028.6 1114.96 1046.69 1077.97 C 1054.07 1084.54 1061.91 1090.25 1070.93 1094.37 C 1112.44 1113.29 1217.32 1090.93 1259.57 1075.12 C 1285.12 1065.56 1323.12 1048.3 1334.78 1021.51 C 1340.04 1009.41 1339.38 996.126 1334.89 983.923 C 1309.35 914.38 1199.8 912.171 1180.12 860.208 C 1176.96 851.865 1177.75 843.775 1181.62 835.82 C 1187.96 822.779 1200.63 814.738 1213.28 808.681 C 1256.13 788.178 1307.48 786.243 1354.17 785.345 C 1385 784.751 1416.52 784.822 1445.95 774.246 C 1456.92 770.304 1470.35 764.304 1475.23 752.972 C 1487.42 724.673 1440.37 684.065 1421.22 669.582 C 1399.46 653.118 1355.19 632.041 1345.07 605.705 C 1341.55 596.556 1342.07 586.918 1346.34 578.12 C 1364.64 540.47 1430.94 539.351 1466.78 540.084 C 1485 540.456 1504.2 542.84 1522.31 541.121 C 1532.61 540.144 1542.34 536.817 1551.99 533.283 L 1553.19 532.139 C 1560.15 530.581 1563.09 527.641 1567.56 522.406 C 1575 507.149 1572.97 495.224 1559.95 484.343 C 1562.2 483.453 1560.56 483.985 1562.66 483.548 C 1580.08 479.917 1601.65 471.179 1617.92 463.637 z" fill="rgb(189,116,2)" transform="translate(0,0)"></path>
<path d="M 1299.68 870.715 C 1299.03 870.621 1298.42 870.678 1298.26 869.953 C 1298.85 869.097 1300.06 869.077 1300.98 868.919 L 1299.68 870.715 z" fill="rgb(255,255,242)" fill-opacity="0.0235294" transform="translate(0,0)"></path>
<metadata><recraft-signature>{"signed_by": "recraft", "signature_b64": "qv8wKa5sfYSVgf/NhgoiV1zHF/Pex2MtOYFPt+zAyjsx3fwvsoFRb1eRoB523w2p7Sjkow58o2ROnFoGxyy9Dg==", "signing_algo": "Ed25519", "generation_timestamp": 1781914966, "identifier": "0f489bda-7ad5-49ee-8499-24fd36ffcd13"}</recraft-signature></metadata></svg>