<svg xmlns="http://www.w3.org/2000/svg" height="1024" preserveAspectRatio="none" style="display: block;" version="1.1" viewBox="0 0 2048 2048" width="1024">
<path d="M 1030.84 278.416 C 1120.88 271.909 1205.01 349.082 1214 437.097 C 1216.47 461.264 1215.84 487.932 1215.92 512.301 L 1215.74 641.386 L 1215.76 1057.41 L 1215.94 1418.86 L 1215.52 1523.94 C 1215.51 1549.5 1216.37 1577.94 1213.58 1603 C 1208.28 1650.79 1185.29 1692.04 1147.19 1721.56 C 1106.61 1752.99 1061.81 1763.7 1011 1756.91 C 980.272 1752.81 950.404 1738.38 926.439 1718.86 C 909.109 1704.74 895.04 1684.6 881.086 1666.96 C 858.585 1638.45 836.447 1609.65 814.678 1580.57 C 788.685 1546.29 761.148 1512.94 735.002 1478.63 L 728.619 1471.08 L 630.7 1471.09 C 600.743 1471.04 568.393 1471.51 538.973 1467.47 C 478.916 1459.24 414.261 1425.63 370.615 1383.98 C 305.474 1321.81 270.625 1240.58 270.239 1150.49 C 270.012 1097.43 269.555 1043.77 269.81 990.81 C 269.985 954.407 268.466 911.879 270.595 876.347 C 275.811 797.215 306.437 726.06 360.39 668.195 C 410.043 612.894 489.59 571.376 564.624 565.983 C 616.883 562.227 676.108 566.206 729.769 564.758 C 763.973 520.27 799.345 475.516 834.622 431.785 C 894.591 357.444 925.283 286.808 1030.84 278.416 z" fill="rgb(193,121,2)" transform="translate(0,0)"></path>
<path d="M 1031.86 418.239 C 1042.64 417.788 1052.77 420.068 1061.01 427.284 C 1070.38 435.493 1074.99 448.52 1075.12 460.77 C 1075.34 482.515 1074.96 504.481 1074.96 526.249 L 1074.99 667.692 L 1075.12 1090.83 L 1075.02 1422.74 L 1074.86 1524.32 C 1074.89 1557.63 1085.19 1618.61 1034.18 1618.39 C 1026.73 1618.35 1015.76 1614.99 1010.23 1609.76 C 990.33 1590.93 975.64 1566.48 958.778 1545 C 911.451 1483.79 866.188 1420.68 817.605 1360.49 C 811.524 1352.96 798.748 1345.3 790.181 1340.91 C 772.832 1332 754.699 1332.03 735.696 1331.93 C 704.777 1331.58 673.854 1331.54 642.934 1331.81 C 612.945 1331.97 578.824 1333.85 549.905 1327.16 C 481.533 1311.36 424.995 1251.95 411.467 1183.25 C 405.877 1154.86 406.933 1128.68 406.987 1100.18 L 407.062 1020.78 L 406.94 938.939 C 406.911 913.118 406.15 888.554 410.583 862.935 C 415.51 835.402 426.134 809.201 441.775 786.011 C 472.357 740.386 521.232 710.275 575.737 703.48 C 595.409 700.951 620.949 701.469 641.13 701.443 L 717.819 701.358 C 754.5 701.303 793.467 701.898 821.394 672.251 C 838.635 653.949 854.104 631.276 869.75 611.278 L 974.398 475.996 C 981.995 466.085 989.359 455.853 996.799 445.821 C 1007.09 431.936 1013.86 421.839 1031.86 418.239 z" fill="rgb(233,175,83)" transform="translate(0,0)"></path>
<path d="M 601.033 728.426 C 618.247 726.953 690.87 726.657 705.31 731.248 C 719.535 735.793 731.327 745.879 738.024 759.226 C 744.763 772.724 745.544 791.313 740.04 805.607 C 715.722 868.751 627.71 824.009 579.835 849.172 C 537.46 871.444 537.062 900.921 536.864 941.244 L 536.576 1001.97 C 536.47 1021.67 537.959 1037.58 531.075 1056.42 C 528.758 1061.69 526.307 1066.15 522.647 1070.6 C 513.719 1081.62 500.746 1088.6 486.632 1089.98 C 449.647 1093.26 424.436 1067.77 422.741 1031.7 C 421.68 1009.11 422.538 986.287 422.203 963.687 C 421.489 915.43 419.261 879.959 440.878 835.117 C 448.176 819.65 457.625 805.294 468.944 792.474 C 502.527 754.175 550.165 731.077 601.033 728.426 z" fill="rgb(240,223,191)" transform="translate(0,0)"></path>
<path d="M 1583.63 536.252 C 1610.81 533.174 1631.98 538.655 1655.12 552.842 C 1678.38 567.109 1689.87 584.695 1706.01 606.155 C 1764.96 684.875 1806.41 775.287 1827.58 871.332 C 1868.1 1049.27 1836.91 1236 1740.76 1391.11 C 1721.64 1421.4 1690.5 1468.12 1661.98 1490.63 C 1649.69 1500.34 1633.83 1506.17 1618.62 1509.62 C 1617.83 1509.81 1617.04 1509.99 1616.24 1510.14 C 1558.54 1521.41 1503.14 1481.48 1492.48 1424.17 C 1486.91 1393.45 1493.62 1361.78 1511.17 1335.96 C 1519.96 1323.17 1531.13 1310.72 1540.42 1297.28 C 1644.7 1146.63 1654.41 949.85 1565.48 789.667 C 1557.08 774.799 1546.82 758.047 1537.03 744.466 C 1517.91 717.922 1497.98 700.949 1492.82 667.288 C 1487.7 633.883 1492.14 603.557 1513.14 576.549 C 1532.43 551.735 1554.1 541.502 1583.63 536.252 z" fill="rgb(193,121,2)" transform="translate(0,0)"></path>
<path d="M 1638.85 610.126 C 1642.62 609.904 1646.7 609.551 1650.41 610.442 C 1668.41 614.765 1709.93 685.411 1719.67 702.047 C 1732.16 723.399 1741.97 745.639 1751.62 768.397 C 1808.46 901.999 1819.18 1050.73 1782.08 1191.1 C 1761.99 1267.13 1728.21 1338.86 1682.42 1402.79 C 1674.85 1413.27 1664.58 1429.46 1653.82 1435.72 C 1651.1 1435.97 1644.91 1436.54 1642.51 1435.58 C 1606.58 1421.31 1633.98 1396.57 1645.02 1381.51 C 1697.14 1311.24 1733.36 1222.36 1749.9 1137.4 C 1783.28 965.902 1738.67 783.102 1630.7 646.08 C 1620.62 633.289 1625.03 618.549 1638.85 610.126 z" fill="rgb(233,175,83)" transform="translate(0,0)"></path>
<path d="M 1385 681.378 C 1437.88 676.906 1471.49 713.855 1498.34 753.835 C 1540.39 816.615 1567.56 888.159 1577.8 963.022 C 1595.06 1080.66 1555.75 1217.75 1484.85 1312.09 C 1462.91 1341.28 1442.19 1359.43 1405.2 1364.76 C 1403.16 1365.04 1401.11 1365.28 1399.05 1365.49 C 1372.29 1367.85 1345.66 1359.64 1324.87 1342.62 C 1286.42 1310.59 1277.48 1257.99 1298.56 1213.13 C 1304.36 1200.77 1313.64 1190.32 1321.18 1179.07 C 1329.76 1166.27 1336.74 1152.1 1342.94 1137.99 C 1363.02 1092.27 1370.95 1047.21 1366.47 997.28 C 1362.16 954.02 1348.69 912.174 1326.95 874.522 C 1309.47 843.91 1290.64 835.637 1287.88 795.986 C 1283.6 734.275 1323.42 686.71 1385 681.378 z" fill="rgb(193,121,2)" transform="translate(0,0)"></path>
<path d="M 1435.19 754.19 C 1438.29 753.955 1443.47 753.781 1446.25 754.666 C 1463.13 760.024 1487.99 808.748 1495.84 824.048 C 1547.66 925.055 1556.22 1050.14 1521.89 1157.98 C 1511.97 1189.17 1473.97 1277.8 1446.95 1291.78 C 1436.19 1292.72 1428.05 1291.01 1422.83 1280.78 C 1415.55 1266.73 1425.62 1254.38 1433.35 1243.21 C 1454.85 1212.16 1470.81 1176.81 1481.96 1140.76 C 1511.49 1043.58 1503.48 938.849 1459.49 847.292 C 1454.38 836.678 1448.14 824.916 1442.05 814.854 C 1430.06 795.055 1401.46 770.147 1435.19 754.19 z" fill="rgb(233,175,83)" transform="translate(0,0)"></path>
<metadata><recraft-signature>{"signed_by": "recraft", "signature_b64": "cP9aqIR09E32XuyCEgE/EN+wat3hTfgwJPWVPYqLkZZx/7R0HTCiVFQLKl5//fdrgZViS9tnjPAlR6opQFgyBQ==", "signing_algo": "Ed25519", "generation_timestamp": 1781914841, "identifier": "a86cd703-1b82-4ff8-bb74-975bd6377102"}</recraft-signature></metadata></svg>