<svg xmlns="http://www.w3.org/2000/svg" height="1024" preserveAspectRatio="none" style="display: block;" version="1.1" viewBox="0 0 2048 2048" width="1024">
<defs>
	<linearGradient gradientUnits="userSpaceOnUse" id="Gradient1" x1="1670.37" x2="408.941" y1="890.496" y2="1156.61">
		<stop class="stop0" offset="0" stop-color="rgb(171,99,1)" stop-opacity="1"></stop>
		<stop class="stop1" offset="1" stop-color="rgb(237,141,3)" stop-opacity="1"></stop>
	</linearGradient>
</defs>
<path d="M 773.022 1726.81 C 729.885 1727.93 686.734 1728.35 643.583 1728.08 C 621.035 1728.11 597.796 1728.67 575.53 1727.72 C 428.683 1721.4 300.107 1604.12 278.047 1459.08 C 275.365 1441.44 273.555 1424.77 274.483 1407.11 C 274.931 1398.21 275.967 1389.35 277.584 1380.58 C 288.872 1320.06 335.077 1267.17 391.51 1243.45 C 411.372 1235.1 432.605 1233.69 453.12 1228.4 C 503.781 1215.22 543.881 1177.12 565.372 1130.23 C 587.235 1082.52 585.645 1029.49 590.42 977.756 C 600.952 862.693 610.358 747.53 618.636 632.282 L 625.369 547.165 C 631.737 466.157 640.959 414.464 691.306 347.059 C 697.904 338.361 704.95 330.013 712.416 322.047 C 716.164 317.986 720.016 314.022 723.967 310.159 C 726.748 307.446 729.586 304.793 732.479 302.2 C 777.973 261.463 843.013 226.653 903.996 220.463 C 950.943 215.697 1010.82 216.516 1058.22 219.185 C 1087.19 217.395 1119.94 216.848 1148.78 220.632 C 1209.64 228.618 1270.75 257.272 1316.58 297.888 C 1323.34 303.862 1329.85 310.105 1336.11 316.603 C 1370.32 352.276 1397.1 395.336 1412.25 442.446 C 1426.44 486.552 1426.62 517.534 1429.91 562.866 L 1436.77 649.041 L 1461 956.993 C 1464.59 1006.61 1465.43 1068.37 1480.3 1115.23 C 1496.26 1165.49 1543.46 1213.21 1594.09 1227.62 C 1614.97 1233.37 1634.52 1233.83 1656.04 1241.61 C 1725.43 1267.12 1773.4 1330.98 1778.57 1404.73 C 1779.58 1421.19 1778.19 1435.74 1776.05 1452.15 C 1757.1 1597.45 1630.76 1719.78 1483.11 1727.12 C 1455.37 1728.5 1426.02 1727.79 1397.96 1727.84 L 1247.58 1727.97 C 1089.4 1729.28 931.2 1728.89 773.022 1726.81 z" fill="url(#Gradient1)" transform="translate(0,0)"></path>
<path d="M 773.022 1726.81 C 729.885 1727.93 686.734 1728.35 643.583 1728.08 C 621.035 1728.11 597.796 1728.67 575.53 1727.72 C 428.683 1721.4 300.107 1604.12 278.047 1459.08 C 275.365 1441.44 273.555 1424.77 274.483 1407.11 C 274.931 1398.21 275.967 1389.35 277.584 1380.58 C 288.872 1320.06 335.077 1267.17 391.51 1243.45 C 411.372 1235.1 432.605 1233.69 453.12 1228.4 C 503.781 1215.22 543.881 1177.12 565.372 1130.23 C 587.235 1082.52 585.645 1029.49 590.42 977.756 C 600.952 862.693 610.358 747.53 618.636 632.282 L 625.369 547.165 C 631.737 466.157 640.959 414.464 691.306 347.059 C 697.904 338.361 704.95 330.013 712.416 322.047 C 716.164 317.986 720.016 314.022 723.967 310.159 C 726.748 307.446 729.586 304.793 732.479 302.2 C 777.973 261.463 843.013 226.653 903.996 220.463 C 950.943 215.697 1010.82 216.516 1058.22 219.185 C 1053.25 221.974 1034.35 225.646 1027.64 227.346 C 1018.43 229.742 1009.32 232.478 1000.31 235.548 C 973.214 244.668 946.29 256.962 922.356 272.707 C 911.189 280.054 900.03 289.441 888.649 297.008 C 889.629 298.451 889.112 297.995 889.947 298.617 C 901.378 300.621 909.476 304.988 916.321 314.787 C 922.343 323.252 924.653 333.807 922.717 344.014 C 918.489 366.014 907.569 369.529 892.464 383.041 C 886.555 388.326 878.235 397.205 872.955 403.24 C 858.719 419.349 846.863 437.414 837.749 456.884 C 818.936 497.276 807.042 540.542 802.565 584.875 C 801.308 596.839 800.001 629.199 797.581 638.791 C 798.125 648.561 795.292 681.23 794.22 692.363 C 792.349 711.806 791.714 737.928 789.164 756.476 C 788.432 763.562 789.021 765.776 787.589 773.843 C 787.918 788.294 785.745 811.503 784.753 826.411 L 777.756 925.493 L 770.254 1026.5 C 768.272 1054.7 767.945 1086.09 760.533 1113.11 C 751.644 1145.95 734.772 1176.07 711.421 1200.81 C 685.105 1228.14 650.72 1250.97 613.536 1259.43 C 598.951 1262.75 577.708 1266.85 564.922 1272.7 C 503.237 1300.93 466.916 1360.86 468.792 1428.26 C 470.871 1502.94 511.123 1573.8 563.804 1624.21 C 620.856 1678.16 693.325 1712.97 771.104 1723.76 C 772.985 1725.67 772.608 1724.58 773.022 1726.81 z" fill="rgb(220,178,101)" transform="translate(0,0)"></path>
<path d="M 797.581 638.791 C 792.906 656.452 776.312 667.602 758.447 668.195 C 747.579 668.542 737.031 664.485 729.196 656.944 C 720.848 648.939 716.41 637.877 716.625 626.233 C 718.486 525.496 747.318 417.573 818.213 342.946 C 836.648 323.54 862.272 299.282 889.947 298.617 C 901.378 300.621 909.476 304.988 916.321 314.787 C 922.343 323.252 924.653 333.807 922.717 344.014 C 918.489 366.014 907.569 369.529 892.464 383.041 C 886.555 388.326 878.235 397.205 872.955 403.24 C 858.719 419.349 846.863 437.414 837.749 456.884 C 818.936 497.276 807.042 540.542 802.565 584.875 C 801.308 596.839 800.001 629.199 797.581 638.791 z" fill="rgb(250,230,190)" transform="translate(0,0)"></path>
<path d="M 787.589 773.843 L 787.375 774.602 C 784.788 784.077 778.963 791.894 770.878 797.458 C 737.817 820.21 692.586 789.699 705.654 749.987 C 709.209 739.054 717.171 730.104 727.614 725.298 C 743.611 717.822 760.986 719.871 774.224 731.694 C 783.458 739.941 784.373 746.034 789.164 756.476 C 788.432 763.562 789.021 765.776 787.589 773.843 z" fill="rgb(250,230,190)" transform="translate(0,0)"></path>
<path d="M 929.106 509.199 C 952.044 507.94 965.947 526.675 981.227 541.775 L 1022.99 583.439 L 1083.85 522.653 C 1120.48 486.736 1154.03 531.204 1135.34 556.602 C 1119.66 577.917 1085.51 608.608 1064.92 627.545 C 1079.58 641.219 1131.75 688.43 1138.46 702.678 C 1142.07 710.337 1142.74 719.172 1139.45 727.062 C 1135.39 736.819 1127.01 741.766 1117.77 745.713 C 1109.19 746.613 1102.83 747.026 1095.38 741.66 C 1084.62 733.904 1075.53 723.211 1066.22 713.79 L 1023.47 670.861 C 1004.07 691.593 983.42 711.204 963.556 731.59 C 950.158 745.34 930.979 753.986 915.229 737.481 C 890.172 711.224 919.451 687.163 937.967 669.299 C 952.188 655.578 966.949 641.545 981.085 627.438 C 969.187 616.966 914.539 565.401 909.426 554.587 C 905.448 546.175 904.479 536.553 908.051 527.838 C 912.034 518.123 919.757 512.942 929.106 509.199 z" fill="rgb(220,178,101)" transform="translate(0,0)"></path>
<metadata><recraft-signature>{"signed_by": "recraft", "signature_b64": "agqQh57+YmL+/qWg6ebuvijgp7c61WLYSBED3BmCs1dUGEP9cNqXCy5rn7EhJWcL76sHUKe39tgQl/P1C8JADw==", "signing_algo": "Ed25519", "generation_timestamp": 1781914856, "identifier": "4467f503-3ef9-4d94-a002-db142d67bbdb"}</recraft-signature></metadata></svg>