<svg xmlns="http://www.w3.org/2000/svg" height="1024" preserveAspectRatio="none" style="display: block;" version="1.1" viewBox="0 0 2048 2048" width="1024">
<path d="M 1023.6 228.479 C 1025.34 228.364 1027.08 228.282 1028.83 228.233 C 1082.62 226.818 1102.22 279.93 1121.14 320.242 L 1165.48 413.885 C 1184.75 454.806 1203.44 504.406 1235.77 536.498 C 1271.13 571.6 1327.51 574.366 1374.25 581.176 C 1425.7 588.672 1478.09 594 1529.52 602.073 C 1541.4 603.946 1552.45 605.007 1563.95 608.829 C 1574 612.162 1583.16 617.728 1590.75 625.108 C 1605.92 639.39 1614.73 659.164 1615.2 679.996 C 1615.53 701.757 1607.13 719.645 1591.98 734.645 C 1579.7 746.79 1567.54 759.182 1555.31 771.381 C 1530.72 795.994 1506.3 820.774 1482.06 845.721 C 1487.85 855.827 1495.62 872.965 1501.16 883.955 L 1544.41 968.879 C 1561.11 1001.18 1576.47 1036.62 1613.04 1049.72 C 1631.23 1056.23 1650.03 1057.41 1668.99 1060.16 C 1707.42 1065.73 1745.73 1071.79 1784.23 1076.78 C 1801.66 1079.26 1818.97 1081.01 1836.09 1085.16 C 1862.02 1091.45 1883.09 1117.57 1884.73 1143.98 C 1885.57 1157.44 1882.23 1170.83 1875.14 1182.31 C 1869.29 1191.94 1846.23 1213.13 1836.88 1222.52 C 1813.3 1246.3 1789.57 1269.93 1765.71 1293.41 C 1736.41 1322.47 1687.67 1361.93 1691.8 1407.11 C 1693.54 1426.09 1697.73 1447.59 1700.87 1466.62 L 1718.78 1575.95 C 1721.91 1595.29 1725.84 1615.5 1727.52 1634.35 C 1732.24 1687.66 1677.25 1727.63 1628.71 1703.04 C 1607.6 1692.34 1587.92 1680.45 1567.88 1668.73 L 1475.19 1614.72 C 1399.99 1570.76 1401.45 1576.17 1327.64 1618.15 L 1214.64 1682.71 C 1195.75 1693.43 1172.58 1709.97 1150.54 1710.68 C 1122.28 1711.59 1093.2 1688.03 1084.43 1661.72 C 1076.9 1639.16 1084.6 1614.9 1088.64 1592.31 L 1112.86 1457.1 C 1115.56 1441.17 1121.25 1418.75 1121.12 1403.27 C 1120.91 1390.3 1117.32 1377.61 1110.72 1366.45 C 1099.54 1347.29 1046.11 1297.7 1027.9 1279.67 L 1027.25 1279.17 L 1025.21 1279.62 C 1005.11 1297.31 986.708 1320.04 967.363 1338.77 C 958.107 1347.74 947.516 1360.64 942.282 1372.52 C 937.689 1383.15 935.369 1394.63 935.473 1406.21 C 935.501 1423.44 942.123 1458.28 945.246 1476.81 C 950.747 1510.76 956.436 1544.67 962.314 1578.55 C 967.288 1607.29 976.879 1641.85 965.454 1668.84 C 958.193 1685.62 944.535 1698.81 927.511 1705.48 C 913.161 1711.12 897.362 1711.94 882.505 1707.81 C 869.425 1704.12 853.01 1692.75 840.465 1685.79 C 804.983 1665.7 769.705 1645.25 734.637 1624.44 C 652.414 1575.7 654.18 1565.49 569.701 1615.26 C 532.855 1637.16 495.806 1658.71 458.558 1679.92 C 445.104 1687.55 428.476 1698.7 414.923 1704.26 C 389.485 1713.5 362.978 1708.97 343.888 1689.82 C 313.459 1659.31 323.666 1626.24 330.457 1588.22 L 347.846 1490.19 C 356.041 1443.93 374.06 1391.16 344.027 1351.01 C 331.237 1333.91 317.898 1321.86 303.173 1306.8 C 273.124 1276.08 241.512 1247.26 211.163 1216.87 C 196.765 1201.69 178.407 1187.97 170.783 1167.86 C 160.014 1139.91 175.26 1102.76 202.476 1090.18 C 220.631 1081.79 245.795 1079.82 265.848 1077.07 C 299.83 1072.37 333.772 1067.4 367.672 1062.14 C 429.001 1053.19 459.928 1056.66 491.643 995.464 C 518.291 944.043 546.195 893.066 570.941 840.461 C 543.32 813.696 515.959 786.663 488.864 759.366 C 468.108 738.616 442.107 719.292 437.988 688.933 C 435.363 669.137 440.826 649.118 453.144 633.4 C 459.948 624.723 470.704 614.813 480.953 610.651 C 508.57 599.436 547.149 597.287 577.086 593.711 L 658.789 583.381 C 696.764 578.525 743.472 574.69 778.659 561.287 C 837.702 538.796 862.827 469.639 888.589 417.111 C 901.112 391.782 912.582 365.761 925.307 340.537 C 950.225 291.147 959.399 236.24 1023.6 228.479 z M 1273.49 1519.23 C 1275.91 1513.91 1271.45 1516.02 1266.78 1516.37 C 1261.55 1520.38 1272.05 1519.26 1273.49 1519.23 z M 1228.37 1534.12 C 1226.22 1540.16 1223.38 1547.54 1220.64 1553.25 C 1220.24 1554.28 1219.84 1555.32 1219.45 1556.35 L 1216.98 1562.83 C 1219.56 1564.11 1219.31 1564.09 1222.14 1563.82 C 1222.42 1562.88 1222.71 1561.94 1223 1560.99 C 1231.76 1555.36 1229.05 1555.71 1235.98 1549.56 C 1237.85 1548.67 1244.6 1540.46 1244.94 1539.02 C 1246.04 1534.27 1241.21 1535.04 1244.47 1528.6 C 1247.22 1527.99 1250.71 1529.18 1253.46 1527.67 C 1254.44 1527.46 1255.2 1524.51 1255.21 1524.51 C 1257.88 1521.92 1254.09 1514.52 1254.09 1515.34 C 1255.69 1514.8 1259.3 1515.14 1261.56 1514.72 C 1249.12 1513.22 1250.88 1514.55 1238.77 1509.38 C 1236.42 1511.53 1229.34 1530.42 1228.37 1534.12 z M 476.094 1508.32 C 473.675 1513.63 469.269 1527.88 467.265 1534.13 C 464.489 1541.53 459.71 1555.26 456.13 1561.86 C 458.569 1562.12 460.552 1562.22 462.989 1562.33 C 465.932 1559 472.82 1553.97 476.474 1551.17 C 477.996 1549.97 479.341 1548.92 480.953 1547.82 C 484.102 1546.08 488.707 1543.06 491.508 1540.8 C 497.008 1533.76 504.481 1530.71 510.098 1521.67 C 513.48 1520.11 516.671 1518.99 520.034 1517.32 C 523.372 1515.85 524.986 1513.02 528.832 1511.49 L 530.508 1510.75 C 533.512 1510.39 545.188 1502.65 545.038 1499.54 C 543.984 1498.16 543.555 1498.6 542.361 1496.72 C 537.376 1499.8 532.366 1502.99 527.389 1506.1 C 521.893 1508.8 515.392 1512.07 509.416 1513.53 L 506.267 1514.36 C 492.797 1514.73 488.287 1514.45 476.615 1506.62 L 476.094 1508.32 z" fill="rgb(157,93,6)" transform="translate(0,0)"></path>
<path d="M 720.9 651.926 C 733.806 648.785 750.142 647.375 764.273 643.919 C 822.409 629.697 869.031 603.61 902.246 552.863 C 917.453 529.629 928.098 505.326 940.132 480.512 L 1003.3 351.725 C 1010.51 337.208 1019.94 314.827 1027.97 301.691 L 1029.42 301.563 C 1035.92 307.385 1049.77 338.569 1054.21 347.982 C 1069.27 380.44 1084.69 413.087 1100.52 445.181 C 1122.93 490.649 1143.8 547.09 1177.05 584.998 C 1197.96 608.428 1224.26 626.412 1253.68 637.397 C 1284.12 648.656 1333.28 653.76 1366.88 658.224 L 1474.68 673.108 C 1488.08 674.981 1522.81 678.777 1533.28 683.621 C 1536.6 691.728 1500.62 722.716 1493.2 730.275 C 1463.18 760.63 1432.88 790.703 1402.3 820.491 C 1379.21 843.298 1347.97 871.626 1331.02 898.31 C 1308.97 933.033 1295.39 980.078 1296.35 1021.2 C 1296.88 1044.22 1302.64 1070.98 1306.89 1094.01 L 1330.39 1221.45 C 1333.39 1237.86 1339.68 1266.11 1341.13 1281.85 C 1341.46 1283.42 1341.68 1284.41 1341.63 1286.06 C 1341.48 1290.63 1339.46 1294.93 1336.06 1297.97 C 1331.5 1301.99 1325.34 1301.58 1320.42 1298.77 C 1281.83 1276.75 1242.08 1255.27 1203.66 1233.06 C 1152.59 1203.54 1103.96 1172.53 1045.13 1161.06 C 1015.21 1155.22 993.005 1162.34 965.033 1171.2 C 936.22 1180.36 908.19 1191.82 881.216 1205.48 C 833.387 1229.84 787.098 1263.27 739.358 1288.49 C 720.489 1298.45 707.995 1285.45 710.796 1266.86 C 713.487 1249.01 719.14 1229.93 723.294 1212.28 L 740.995 1136 C 747.233 1109.94 753.481 1083.54 758.049 1057.53 C 768.453 998.322 748.215 925.915 710.554 879.474 C 695.816 861.299 669.28 835.085 651.787 817.388 L 567.567 732.959 C 555.886 721.382 525.355 692.365 517.118 681.053 C 526.922 677.103 572.02 672.236 584.81 670.461 C 600.565 667.624 620.136 665.524 636.35 663.372 L 720.9 651.926 z" fill="rgb(244,206,151)" transform="translate(0,0)"></path>
<path d="M 716.149 779.879 C 708.999 765.519 704.783 750.184 710.466 734.602 C 721.89 703.279 753.607 698.438 781.73 694.939 C 832.122 688.67 882.338 686.502 919.701 647.582 C 929.865 637.063 938.466 625.137 945.239 612.172 C 952.723 597.552 960.677 579.255 967.829 563.736 C 980.539 536.156 989.511 508.613 1024.08 503.072 C 1032.56 501.712 1042.86 502.834 1050.75 505.857 C 1058.99 509.047 1066.23 514.39 1071.7 521.327 C 1080.16 531.866 1084.3 544.156 1089.82 556.136 C 1099.3 576.671 1108.45 603.234 1119.79 622.473 C 1129.85 639.489 1143.32 654.247 1159.35 665.822 C 1173.25 675.647 1188.81 682.9 1205.27 687.237 C 1224.78 692.468 1246.71 695.227 1266.13 698.888 C 1293.88 704.117 1328.14 705.593 1340.35 736.41 C 1354.37 771.81 1335.88 793.412 1312.2 815.201 C 1273.28 851.74 1230.88 885.659 1224.33 942.598 C 1220.24 978.088 1231.99 1014.55 1240.87 1049.53 C 1249.69 1084.29 1253.33 1116.91 1213.61 1135.63 C 1189.38 1147.05 1165.47 1129.12 1146.24 1116.91 C 1119.03 1100.61 1089.88 1079.03 1060.7 1066.85 C 1005.69 1043.9 953.464 1087.16 909.218 1114.34 C 883.7 1130.02 855.159 1151.48 825.208 1130.02 C 794.492 1103.32 801.47 1078.26 810.677 1043.19 C 814.461 1028.78 818.637 1012.94 821.871 998.357 C 820.657 994.348 820.029 980.455 819.769 975.859 C 817.05 927.782 798.236 882.248 764.245 847.861 C 757.734 841.274 743.524 829.026 738.581 821.928 C 730.482 810.298 725.873 797.449 716.662 785.412 C 715.793 784.251 714.915 783.096 714.031 781.946 L 716.149 779.879 z" fill="rgb(157,93,6)" transform="translate(0,0)"></path>
<path d="M 719.556 784.894 C 785.511 855.476 854.048 885.299 821.871 998.357 C 820.657 994.348 820.029 980.455 819.769 975.859 C 817.05 927.782 798.236 882.248 764.245 847.861 C 757.734 841.274 743.524 829.026 738.581 821.928 C 730.482 810.298 725.873 797.449 716.662 785.412 L 719.556 784.894 z" fill="rgb(244,206,151)" transform="translate(0,0)"></path>
<path d="M 716.149 779.879 C 717.416 781.617 718.406 783.102 719.556 784.894 L 716.662 785.412 C 715.793 784.251 714.915 783.096 714.031 781.946 L 716.149 779.879 z" fill="rgb(250,201,131)" transform="translate(0,0)"></path>
<path d="M 517.118 681.053 C 526.922 677.103 572.02 672.236 584.81 670.461 C 602.707 679.888 618.699 688.316 635.598 699.787 C 658.198 715.127 700.418 758.311 714.031 781.946 C 714.915 783.096 715.793 784.251 716.662 785.412 C 725.873 797.449 730.482 810.298 738.581 821.928 C 743.524 829.026 757.734 841.274 764.245 847.861 C 798.236 882.248 817.05 927.782 819.769 975.859 C 820.029 980.455 820.657 994.348 821.871 998.357 C 818.637 1012.94 814.461 1028.78 810.677 1043.19 C 801.47 1078.26 794.492 1103.32 825.208 1130.02 C 815.34 1161.21 802.998 1186.09 791.401 1216.33 C 820.162 1187.28 843.743 1168.32 879.189 1148.08 C 923.466 1122.8 962.769 1103.42 1015.4 1103.14 C 1035.4 1103.08 1055.29 1106.28 1074.27 1112.61 C 1127.17 1130.22 1185.67 1170.55 1231.18 1202.38 C 1255.01 1218.96 1278.68 1235.78 1302.18 1252.84 C 1307.22 1256.57 1338.18 1281.19 1341.13 1281.85 C 1341.46 1283.42 1341.68 1284.41 1341.63 1286.06 C 1341.48 1290.63 1339.46 1294.93 1336.06 1297.97 C 1331.5 1301.99 1325.34 1301.58 1320.42 1298.77 C 1281.83 1276.75 1242.08 1255.27 1203.66 1233.06 C 1152.59 1203.54 1103.96 1172.53 1045.13 1161.06 C 1015.21 1155.22 993.005 1162.34 965.033 1171.2 C 936.22 1180.36 908.19 1191.82 881.216 1205.48 C 833.387 1229.84 787.098 1263.27 739.358 1288.49 C 720.489 1298.45 707.995 1285.45 710.796 1266.86 C 713.487 1249.01 719.14 1229.93 723.294 1212.28 L 740.995 1136 C 747.233 1109.94 753.481 1083.54 758.049 1057.53 C 768.453 998.322 748.215 925.915 710.554 879.474 C 695.816 861.299 669.28 835.085 651.787 817.388 L 567.567 732.959 C 555.886 721.382 525.355 692.365 517.118 681.053 z" fill="rgb(251,168,27)" transform="translate(0,0)"></path>
<path d="M 720.9 651.926 C 733.806 648.785 750.142 647.375 764.273 643.919 C 822.409 629.697 869.031 603.61 902.246 552.863 C 917.453 529.629 928.098 505.326 940.132 480.512 L 1003.3 351.725 C 1010.51 337.208 1019.94 314.827 1027.97 301.691 L 1029.42 301.563 C 1035.92 307.385 1049.77 338.569 1054.21 347.982 C 1052.08 351.945 1050.78 372.278 1049.81 378.45 C 1047.57 392.326 1044.14 405.981 1039.54 419.262 C 1021.35 472.543 966.829 551.18 930.097 594.104 C 883.13 648.988 790.139 652.494 720.9 651.926 z" fill="rgb(251,168,27)" transform="translate(0,0)"></path>
<path d="M 1430.6 900.153 L 1437.77 892.271 C 1454.07 923.592 1471.19 959.159 1487.23 990.951 C 1515.65 1047.27 1537.25 1090.75 1602.65 1112.21 C 1623.79 1119.14 1647.32 1121.56 1669.55 1124.89 C 1700.77 1129.64 1732.04 1134.1 1763.34 1138.28 C 1778.92 1140.39 1795.46 1142.37 1810.93 1145.28 C 1813.76 1145.81 1815.34 1147.46 1816.79 1149.85 C 1816.5 1158.24 1792.01 1179.3 1784.94 1186.11 C 1767.54 1202.98 1750.01 1219.72 1732.36 1236.34 C 1678.89 1286.32 1633.52 1318.8 1629.53 1401.03 C 1628.31 1426.3 1637.5 1467.28 1642.1 1493.64 L 1664.47 1623.33 C 1667.49 1634.17 1658.89 1645.15 1649.35 1639.58 C 1637.09 1632.42 1624.99 1624.95 1612.62 1617.81 C 1587.54 1603.43 1562.39 1589.18 1537.18 1575.06 C 1503.28 1555.86 1474.26 1535.19 1435.15 1526.96 C 1367.44 1512.69 1320.26 1545.91 1265.28 1579.16 C 1243.4 1592.09 1221.64 1605.23 1200.01 1618.57 C 1188.1 1625.95 1168.57 1639.85 1155.21 1641.03 C 1136.35 1636.17 1150.05 1598.08 1152.36 1585.81 L 1171.35 1481.73 C 1175.77 1456.51 1182.08 1428.6 1181.01 1403.36 C 1178.01 1332.4 1137.74 1296.36 1089.66 1252.13 C 1101.96 1257.23 1124.07 1271.92 1136.7 1279.04 C 1166.75 1296 1198.79 1313.68 1227.84 1332.27 C 1232.47 1334.52 1235.9 1336.58 1240.33 1339.22 C 1242.46 1354.23 1239.81 1368.06 1236.61 1382.7 C 1229.58 1411.03 1220.39 1441.36 1217.35 1470.17 C 1215.12 1491.31 1228.01 1497.89 1238.77 1509.38 C 1236.42 1511.53 1229.34 1530.42 1228.37 1534.12 C 1226.22 1540.16 1223.38 1547.54 1220.64 1553.25 C 1220.24 1554.28 1219.84 1555.32 1219.45 1556.35 L 1216.98 1562.83 C 1219.56 1564.11 1219.31 1564.09 1222.14 1563.82 C 1222.42 1562.88 1222.71 1561.94 1223 1560.99 C 1231.76 1555.36 1229.05 1555.71 1235.98 1549.56 C 1237.85 1548.67 1244.6 1540.46 1244.94 1539.02 C 1246.04 1534.27 1241.21 1535.04 1244.47 1528.6 C 1247.22 1527.99 1250.71 1529.18 1253.46 1527.67 C 1254.44 1527.46 1255.2 1524.51 1255.21 1524.51 C 1257.88 1521.92 1254.09 1514.52 1254.09 1515.34 C 1255.69 1514.8 1259.3 1515.14 1261.56 1514.72 C 1292.45 1508.65 1326.09 1478.92 1355.71 1462.69 C 1406.59 1428.35 1460.9 1461.91 1503.38 1493.11 C 1564.14 1537.74 1606.98 1506.48 1584.97 1434.97 C 1582.06 1425.52 1576.64 1401.43 1574.86 1390.98 C 1572.38 1377 1572.47 1362.69 1575.11 1348.74 C 1588.43 1280.9 1667.37 1260.56 1676.04 1219.38 C 1678.29 1208.7 1675.76 1198.06 1669.86 1189.01 C 1665.5 1182.31 1659.2 1177.4 1652 1174.05 C 1634.45 1165.88 1598.88 1162.23 1578.81 1158.35 C 1541.2 1151.08 1509.34 1135.5 1489.62 1101.17 C 1481.69 1087.34 1475.8 1071.93 1469.43 1057.33 C 1464.15 1045.24 1459.43 1031.22 1451.8 1020.4 C 1444.6 1010.18 1433.73 1002.59 1421.24 1000.65 C 1406.32 998.335 1392.89 1004.06 1381.19 1012.73 L 1371.13 1024.62 C 1373.98 965.984 1392.57 940.224 1430.6 900.153 z M 1273.49 1519.23 C 1275.91 1513.91 1271.45 1516.02 1266.78 1516.37 C 1261.55 1520.38 1272.05 1519.26 1273.49 1519.23 z" fill="rgb(244,206,151)" transform="translate(0,0)"></path>
<path d="M 1089.66 1252.13 C 1101.96 1257.23 1124.07 1271.92 1136.7 1279.04 C 1166.75 1296 1198.79 1313.68 1227.84 1332.27 C 1232.47 1334.52 1235.9 1336.58 1240.33 1339.22 C 1242.46 1354.23 1239.81 1368.06 1236.61 1382.7 C 1229.58 1411.03 1220.39 1441.36 1217.35 1470.17 C 1215.12 1491.31 1228.01 1497.89 1238.77 1509.38 C 1236.42 1511.53 1229.34 1530.42 1228.37 1534.12 C 1226.22 1540.16 1223.38 1547.54 1220.64 1553.25 C 1220.24 1554.28 1219.84 1555.32 1219.45 1556.35 L 1216.98 1562.83 C 1219.56 1564.11 1219.31 1564.09 1222.14 1563.82 L 1222.41 1565.09 C 1273.94 1521.96 1346.2 1474.72 1416.57 1481.31 C 1480.02 1487.25 1561.73 1548.89 1612.72 1586.58 C 1627.53 1597.53 1648.38 1615.71 1664.47 1623.33 C 1667.49 1634.17 1658.89 1645.15 1649.35 1639.58 C 1637.09 1632.42 1624.99 1624.95 1612.62 1617.81 C 1587.54 1603.43 1562.39 1589.18 1537.18 1575.06 C 1503.28 1555.86 1474.26 1535.19 1435.15 1526.96 C 1367.44 1512.69 1320.26 1545.91 1265.28 1579.16 C 1243.4 1592.09 1221.64 1605.23 1200.01 1618.57 C 1188.1 1625.95 1168.57 1639.85 1155.21 1641.03 C 1136.35 1636.17 1150.05 1598.08 1152.36 1585.81 L 1171.35 1481.73 C 1175.77 1456.51 1182.08 1428.6 1181.01 1403.36 C 1178.01 1332.4 1137.74 1296.36 1089.66 1252.13 z" fill="rgb(251,168,27)" transform="translate(0,0)"></path>
<path d="M 1227.84 1332.27 C 1232.47 1334.52 1235.9 1336.58 1240.33 1339.22 C 1242.46 1354.23 1239.81 1368.06 1236.61 1382.7 C 1233.64 1382.07 1234.5 1353.25 1231.69 1348.01 C 1231.07 1346.85 1228.01 1333.75 1227.84 1332.27 z" fill="rgb(250,201,131)" transform="translate(0,0)"></path>
<path d="M 1208.48 1579.71 L 1214.44 1566.84 C 1215.22 1565.14 1215.53 1563.79 1216.98 1562.83 C 1219.56 1564.11 1219.31 1564.09 1222.14 1563.82 L 1222.41 1565.09 C 1219.12 1568.48 1215.73 1571.77 1212.62 1575.33 L 1208.48 1579.71 z" fill="rgb(250,201,131)" transform="translate(0,0)"></path>
<path d="M 1430.6 900.153 C 1427.75 919.188 1422.09 937.694 1413.79 955.061 C 1407.83 967.399 1401.27 979.436 1394.13 991.128 C 1391.4 995.498 1381.62 1008.7 1381.19 1012.73 L 1371.13 1024.62 C 1373.98 965.984 1392.57 940.224 1430.6 900.153 z" fill="rgb(251,168,27)" transform="translate(0,0)"></path>
<path d="M 1266.78 1516.37 C 1271.45 1516.02 1275.91 1513.91 1273.49 1519.23 C 1272.05 1519.26 1261.55 1520.38 1266.78 1516.37 z" fill="rgb(244,206,151)" fill-opacity="0.768627" transform="translate(0,0)"></path>
<path d="M 908.516 1624.29 C 912.242 1633.52 901.016 1645.07 892.294 1640.38 C 836.108 1610.19 781.416 1576.53 725.87 1545.14 C 713.763 1538.29 687.469 1529.99 674.084 1526.95 C 597.164 1509.43 531.674 1566.67 469.284 1602.13 C 451.765 1613.58 431.427 1623.06 414.491 1635.14 C 394.762 1649.57 384.499 1633.75 388.217 1613.88 C 396.038 1575.15 402.752 1535.39 409.985 1496.67 C 420.838 1438.58 432.366 1390.82 405.455 1334.2 C 387.813 1297.08 363.021 1276.77 334.295 1248.44 C 312.567 1226.85 290.687 1205.41 268.657 1184.12 C 260.096 1175.86 251.074 1167.59 242.818 1159 C 239.323 1155.37 236.699 1152.09 238.705 1147.14 C 244.769 1142.4 277.695 1139.66 287.77 1138.36 C 291.749 1140.4 296.185 1142.81 300.263 1144.52 C 327.01 1159.76 368.512 1192.13 384.997 1218.55 L 388.631 1219.64 C 390.094 1221.08 396.886 1230.19 398.428 1232.36 C 457.869 1289.05 494.897 1309.84 474.528 1396.95 C 467.542 1433.32 446.404 1473.34 474.783 1504.57 L 476.615 1506.62 L 476.094 1508.32 C 473.675 1513.63 469.269 1527.88 467.265 1534.13 C 464.489 1541.53 459.71 1555.26 456.13 1561.86 C 458.569 1562.12 460.552 1562.22 462.989 1562.33 C 465.932 1559 472.82 1553.97 476.474 1551.17 C 477.996 1549.97 479.341 1548.92 480.953 1547.82 C 484.102 1546.08 488.707 1543.06 491.508 1540.8 C 497.008 1533.76 504.481 1530.71 510.098 1521.67 C 513.48 1520.11 516.671 1518.99 520.034 1517.32 C 523.372 1515.85 524.986 1513.02 528.832 1511.49 L 530.508 1510.75 C 533.512 1510.39 545.188 1502.65 545.038 1499.54 C 543.984 1498.16 543.555 1498.6 542.361 1496.72 C 629.727 1435.08 659.127 1429.95 749.058 1495.21 C 801.044 1532.92 846.657 1514.04 829.836 1446.09 C 816.915 1393.9 804.073 1366.51 829.018 1315.77 C 850.338 1303.08 879.774 1288.47 902.354 1276.73 C 927.203 1263.8 955.941 1247.55 980.819 1235.9 C 942.875 1275.16 899.002 1304.04 881.555 1358.6 C 867.203 1403.49 876.774 1437.54 884.207 1482.37 L 908.516 1624.29 z" fill="rgb(251,168,27)" transform="translate(0,0)"></path>
<path d="M 829.018 1315.77 C 850.338 1303.08 879.774 1288.47 902.354 1276.73 C 927.203 1263.8 955.941 1247.55 980.819 1235.9 C 942.875 1275.16 899.002 1304.04 881.555 1358.6 C 867.203 1403.49 876.774 1437.54 884.207 1482.37 L 908.516 1624.29 C 905 1624.55 892.685 1614.32 889.032 1611.68 L 832.662 1571.15 C 786.805 1538.18 731.874 1498.74 676.965 1484.42 C 634.442 1473.33 580.612 1490.12 543.069 1509.83 C 526.334 1518.61 507.859 1530.73 491.508 1540.8 C 497.008 1533.76 504.481 1530.71 510.098 1521.67 C 513.48 1520.11 516.671 1518.99 520.034 1517.32 C 523.372 1515.85 524.986 1513.02 528.832 1511.49 L 530.508 1510.75 C 533.512 1510.39 545.188 1502.65 545.038 1499.54 C 543.984 1498.16 543.555 1498.6 542.361 1496.72 C 629.727 1435.08 659.127 1429.95 749.058 1495.21 C 801.044 1532.92 846.657 1514.04 829.836 1446.09 C 816.915 1393.9 804.073 1366.51 829.018 1315.77 z" fill="rgb(244,206,151)" transform="translate(0,0)"></path>
<path d="M 398.428 1232.36 C 457.869 1289.05 494.897 1309.84 474.528 1396.95 C 472.671 1393.57 473.183 1382.1 472.718 1377.12 C 471.42 1363.21 468.854 1346.64 464.376 1333.47 C 457.321 1312.6 446.104 1293.39 431.406 1276.99 C 425.61 1270.62 417.576 1263.5 412.245 1257.19 C 407.738 1251.85 401.053 1241.26 397.039 1235.19 C 397.456 1233.65 397.486 1233.8 398.428 1232.36 z" fill="rgb(244,206,151)" transform="translate(0,0)"></path>
<path d="M 447.373 1579.24 C 448.585 1576.43 454.028 1563.13 456.13 1561.86 C 458.569 1562.12 460.552 1562.22 462.989 1562.33 C 462.376 1564.34 450.172 1576.17 447.373 1579.24 z" fill="rgb(250,201,131)" transform="translate(0,0)"></path>
<path d="M 388.631 1219.64 C 390.094 1221.08 396.886 1230.19 398.428 1232.36 C 397.486 1233.8 397.456 1233.65 397.039 1235.19 C 393.693 1232.26 387.695 1222.52 384.997 1218.55 L 388.631 1219.64 z" fill="rgb(250,201,131)" transform="translate(0,0)"></path>
<path d="M 615.221 887.991 C 623.756 895.498 644.232 918.436 651.773 927.317 C 673.132 956.768 686.353 983.198 685.278 1020.62 C 643.384 985.431 610.965 1002.56 593.213 1048.95 C 570.396 1108.59 542.705 1150.42 474.27 1156.43 C 444.423 1159.93 379.803 1161.89 385.039 1207.61 C 385.511 1211.8 386.727 1215.87 388.631 1219.64 L 384.997 1218.55 C 368.512 1192.13 327.01 1159.76 300.263 1144.52 C 296.185 1142.81 291.749 1140.4 287.77 1138.36 C 294.659 1137.14 302.406 1136.18 309.394 1135.16 C 334.483 1132.01 359.123 1127.66 384.468 1124.84 C 405.721 1120.95 428.108 1117.46 448.615 1110.94 C 486.759 1098.92 519.237 1073.45 540.007 1039.28 C 548.679 1024.72 555.818 1006.93 564.002 991.903 C 582.387 958.145 597.659 921.904 615.221 887.991 z" fill="rgb(244,206,151)" transform="translate(0,0)"></path>
<path d="M 615.221 887.991 C 623.756 895.498 644.232 918.436 651.773 927.317 C 627.692 977.028 584.545 1056.99 542.747 1091.41 C 531.491 1100.61 518.708 1107.78 504.979 1112.57 C 475.767 1122.85 416.208 1125.56 384.468 1124.84 C 405.721 1120.95 428.108 1117.46 448.615 1110.94 C 486.759 1098.92 519.237 1073.45 540.007 1039.28 C 548.679 1024.72 555.818 1006.93 564.002 991.903 C 582.387 958.145 597.659 921.904 615.221 887.991 z" fill="rgb(251,168,27)" transform="translate(0,0)"></path>
<path d="M 1238.77 1509.38 C 1250.88 1514.55 1249.12 1513.22 1261.56 1514.72 C 1259.3 1515.14 1255.69 1514.8 1254.09 1515.34 C 1254.09 1514.52 1257.88 1521.92 1255.21 1524.51 C 1255.2 1524.51 1254.44 1527.46 1253.46 1527.67 C 1250.71 1529.18 1247.22 1527.99 1244.47 1528.6 C 1241.21 1535.04 1246.04 1534.27 1244.94 1539.02 C 1244.6 1540.46 1237.85 1548.67 1235.98 1549.56 C 1234.46 1543.3 1231.56 1539.54 1228.37 1534.12 C 1229.34 1530.42 1236.42 1511.53 1238.77 1509.38 z" fill="rgb(244,206,151)" fill-opacity="0.819608" transform="translate(0,0)"></path>
<path d="M 476.615 1506.62 C 488.287 1514.45 492.797 1514.73 506.267 1514.36 C 506.261 1514.37 505.26 1514.94 505.245 1515.34 C 505.241 1515.47 508.564 1519.7 508.745 1519.94 C 509.176 1520.53 509.641 1521.1 510.098 1521.67 C 504.481 1530.71 497.008 1533.76 491.508 1540.8 C 488.707 1543.06 484.102 1546.08 480.953 1547.82 C 483.507 1543.87 485.179 1542.14 488.166 1538.52 C 476.295 1527.23 477.905 1528.28 487.342 1514.36 C 482.176 1511.94 480.414 1511.99 476.094 1508.32 L 476.615 1506.62 z" fill="rgb(244,206,151)" fill-opacity="0.737255" transform="translate(0,0)"></path>
<path d="M 476.094 1508.32 C 480.414 1511.99 482.176 1511.94 487.342 1514.36 C 477.905 1528.28 476.295 1527.23 488.166 1538.52 C 485.179 1542.14 483.507 1543.87 480.953 1547.82 C 479.341 1548.92 477.996 1549.97 476.474 1551.17 C 476.562 1544.66 474.722 1535.97 467.265 1534.13 C 469.269 1527.88 473.675 1513.63 476.094 1508.32 z" fill="rgb(244,206,151)" fill-opacity="0.462745" transform="translate(0,0)"></path>
<path d="M 467.265 1534.13 C 474.722 1535.97 476.562 1544.66 476.474 1551.17 C 472.82 1553.97 465.932 1559 462.989 1562.33 C 460.552 1562.22 458.569 1562.12 456.13 1561.86 C 459.71 1555.26 464.489 1541.53 467.265 1534.13 z" fill="rgb(250,201,131)" fill-opacity="0.113725" transform="translate(0,0)"></path>
<path d="M 1228.37 1534.12 C 1231.56 1539.54 1234.46 1543.3 1235.98 1549.56 C 1229.05 1555.71 1231.76 1555.36 1223 1560.99 C 1225.41 1554.9 1230.66 1550.69 1220.64 1553.25 C 1223.38 1547.54 1226.22 1540.16 1228.37 1534.12 z" fill="rgb(244,206,151)" fill-opacity="0.360784" transform="translate(0,0)"></path>
<path d="M 542.361 1496.72 C 543.555 1498.6 543.984 1498.16 545.038 1499.54 C 545.188 1502.65 533.512 1510.39 530.508 1510.75 C 530.15 1507.93 529.697 1508.16 527.389 1506.1 C 532.366 1502.99 537.376 1499.8 542.361 1496.72 z" fill="rgb(244,206,151)" fill-opacity="0.886275" transform="translate(0,0)"></path>
<path d="M 509.416 1513.53 C 515.392 1512.07 521.893 1508.8 527.389 1506.1 C 529.697 1508.16 530.15 1507.93 530.508 1510.75 L 528.832 1511.49 C 524.986 1513.02 523.372 1515.85 520.034 1517.32 C 518.071 1514.81 513.948 1515.38 509.416 1513.53 z" fill="rgb(244,206,151)" fill-opacity="0.807843" transform="translate(0,0)"></path>
<path d="M 509.416 1513.53 C 513.948 1515.38 518.071 1514.81 520.034 1517.32 C 516.671 1518.99 513.48 1520.11 510.098 1521.67 C 509.641 1521.1 509.176 1520.53 508.745 1519.94 C 508.564 1519.7 505.241 1515.47 505.245 1515.34 C 505.26 1514.94 506.261 1514.37 506.267 1514.36 L 509.416 1513.53 z" fill="rgb(244,206,151)" fill-opacity="0.466667" transform="translate(0,0)"></path>
<path d="M 1220.64 1553.25 C 1230.66 1550.69 1225.41 1554.9 1223 1560.99 C 1222.71 1561.94 1222.42 1562.88 1222.14 1563.82 C 1219.31 1564.09 1219.56 1564.11 1216.98 1562.83 L 1219.45 1556.35 C 1219.84 1555.32 1220.24 1554.28 1220.64 1553.25 z" fill="rgb(244,206,151)" fill-opacity="0.254902" transform="translate(0,0)"></path>
<metadata><recraft-signature>{"signed_by": "recraft", "signature_b64": "bSuuUQTrJ+Z/8PQSJ2vAfAmh8DT8Mb67q6FZUg7SdyLrF7aE5LSXC7MtvvanwH8a3HS0QpfgbnBUOtceI936CQ==", "signing_algo": "Ed25519", "generation_timestamp": 1781914922, "identifier": "9ec11c36-c4c6-4119-a587-556244414e2a"}</recraft-signature></metadata></svg>