<svg xmlns="http://www.w3.org/2000/svg" height="1024" preserveAspectRatio="none" style="display: block;" version="1.1" viewBox="0 0 2048 2048" width="1024">
<path d="M 1013.59 222.358 C 1047.22 215.694 1094.77 237.84 1115.81 263.322 C 1135.63 287.325 1148.06 324.276 1159.97 353.041 L 1238.72 541.153 C 1247.8 562.278 1261.84 598.694 1271.88 617.873 C 1276.6 626.879 1282.38 635.284 1289.11 642.907 C 1332.95 691.972 1389.7 686.245 1449.29 689.887 C 1455.96 690.295 1462.68 690.697 1469.35 691.11 L 1701.31 705.237 C 1738.76 707.296 1767.01 716.106 1793.09 744.933 C 1816.7 771.036 1827.04 802.292 1824.67 837.366 C 1823.26 860.097 1815.14 881.898 1801.33 900.004 C 1789.04 916.047 1765.79 933.846 1749.58 947.278 C 1733.2 961.095 1716.72 974.794 1700.14 988.375 L 1613.38 1060.42 C 1582.09 1086.14 1551.2 1111.88 1520 1138.01 C 1485.91 1166.56 1468.87 1214.14 1476.7 1258.03 C 1482.61 1291.15 1492.38 1325.77 1500.76 1358.55 L 1550.28 1549.47 C 1557.29 1576.65 1567.88 1605.79 1566.68 1633.94 C 1563.33 1712.98 1483.37 1769.97 1407.64 1746.68 C 1382.41 1738.92 1355.6 1718.52 1332.59 1703.91 L 1159.54 1593.08 C 1137.3 1578.9 1100.89 1553.16 1078.76 1542.39 C 1065.36 1535.83 1050.8 1531.94 1035.9 1530.95 L 1034.5 1530.86 C 1014.45 1528.87 994.219 1531.77 975.542 1539.33 C 956.159 1547.34 908.758 1579.62 888.495 1592.64 L 718.743 1701.86 C 690.739 1719.88 655.996 1746.44 623.523 1751.15 C 590.601 1755.82 557.17 1747.24 530.567 1727.29 C 501.813 1705.71 483.946 1672.62 481.669 1636.74 C 479.86 1606.95 494.393 1564.26 502.432 1534.61 L 547.033 1366.22 C 556.125 1332.21 566.012 1295.14 573.303 1261.01 C 581.62 1222.09 565.71 1171.01 536.82 1143.61 C 515.279 1123.18 488.624 1102.83 465.132 1083.47 L 308.518 954.536 C 289.676 939.02 264.544 921.556 249.959 903.064 C 236.768 886.316 228.303 866.341 225.445 845.214 C 220.857 811.895 230.035 778.144 250.864 751.736 C 266.597 731.768 288.206 717.249 312.639 710.228 C 335.747 703.479 362.152 705.107 386.306 702.916 C 426.689 699.254 467.575 698.024 507.989 695.529 L 592.465 689.641 C 653.151 685.986 719.964 693.497 762.795 641.708 C 781.838 618.681 790.556 591.089 801.84 563.913 L 830.006 496.411 L 892.14 347.79 C 901.148 326.045 915.766 285.289 929.379 268.175 C 951.141 240.816 979.455 226.723 1013.59 222.358 z" fill="rgb(2,1,0)" transform="translate(0,0)"></path>
<path d="M 1012.67 225.354 C 1019.28 224.503 1030.87 224.582 1037.44 225.369 C 1067.63 228.924 1095.36 243.802 1115.01 267.001 C 1130.91 285.862 1140.51 313.244 1150.17 336.244 L 1177.43 401.58 L 1244.22 560.82 C 1255.8 588.081 1266.12 619.263 1284.87 642.228 C 1327.34 694.242 1391.86 689.672 1452.81 693.368 L 1624.72 703.415 C 1654.97 705.169 1686.36 706.622 1716.46 709.243 C 1748.19 712.006 1777.9 729.077 1797.57 754.309 C 1829.04 794.531 1831.16 850.396 1802.84 892.892 C 1788.78 914.225 1755.03 939.204 1734.26 956.46 L 1586.09 1079.39 L 1540.82 1117.12 C 1520.14 1134.29 1501.82 1147.32 1488.86 1171.55 C 1477.52 1192.57 1471.84 1216.17 1472.37 1240.04 C 1472.91 1263.82 1487 1315.24 1493.49 1341.33 L 1546.09 1544.42 C 1550.18 1560.44 1554.4 1577.16 1558.78 1593.08 C 1572.81 1643.97 1556.38 1693.41 1514.26 1725.25 C 1485.68 1746.68 1448.96 1754.08 1414.31 1745.41 C 1387.11 1738.47 1353.48 1713.96 1328.81 1698.15 L 1157.38 1588.26 C 1117.7 1563.08 1084 1534.24 1036.25 1527.7 C 1014.49 1525.48 992.525 1528.84 972.432 1537.48 C 955.284 1544.65 903.849 1579.43 885.915 1591 L 712.174 1702.67 C 683.7 1720.68 656.475 1742.98 622.688 1748.27 C 544.699 1760.49 472.81 1690.32 485.568 1611.88 C 489.08 1590.28 496.503 1568.35 502.044 1547.02 L 550.581 1363.37 L 566.537 1302.4 C 575.479 1267.88 582.024 1245.3 574.697 1208.93 C 570.247 1187.46 560.629 1167.39 546.676 1150.47 C 530.19 1130.53 490.817 1100.91 469.686 1083.37 L 317.021 957.665 C 298.411 942.606 267.161 919.849 253.09 902.178 C 240.002 885.94 231.446 866.527 228.292 845.911 C 223.391 813.23 232.335 781.7 251.936 755.281 C 266.269 736.086 286.176 721.781 308.941 714.32 C 330.663 707.377 381.981 705.771 406.701 704.226 L 581.986 693.828 C 615.65 691.975 652.924 690.407 685.932 686.801 C 717.828 683.317 752.048 661.918 770.863 636.253 C 784.122 618.167 796.097 584.886 805.453 562.805 L 885.993 369.706 C 914.683 301.115 927.134 236.986 1012.67 225.354 z" fill="rgb(176,110,18)" transform="translate(0,0)"></path>
<path d="M 1016.56 381.401 C 1019.34 381.272 1022.21 381.165 1024.99 381.256 C 1053.45 382.399 1080.09 395.526 1098.34 417.393 C 1114.21 436.505 1125.94 472.271 1134.99 496.059 L 1191.65 642.785 C 1203.89 673.819 1212.72 708.103 1236.19 732.386 C 1253.68 750.255 1275.72 763.004 1299.93 769.253 C 1326.04 775.735 1373.7 773.291 1402.35 773.48 C 1459.07 773.618 1515.89 773.781 1572.6 773.871 C 1595.2 773.907 1614.02 781.177 1631.39 795.044 C 1669.53 824.015 1677.74 889.859 1648.22 927.346 C 1634.32 944.992 1602.96 968.144 1584.43 983.098 L 1493.54 1056.71 C 1471.84 1074.08 1449.64 1090.99 1428.87 1109.47 C 1386.72 1146.97 1375.27 1204.82 1390.93 1257.76 C 1397.18 1278.9 1403.13 1300.95 1409.06 1322.26 C 1420.15 1363.49 1431.65 1404.6 1443.54 1445.61 C 1450.67 1470.23 1460.42 1495.96 1459.69 1521.71 C 1457.89 1584.64 1392.97 1630.13 1333.24 1609.91 C 1311.97 1602.71 1292.92 1586.25 1274.34 1573.45 L 1154.75 1490.86 C 1107.93 1458.6 1081.7 1432.88 1022.59 1430.2 C 971.775 1430.96 949.931 1451.17 910.465 1478.81 L 794.195 1559.35 C 765.945 1579.09 731.105 1610.01 696.802 1613.96 C 671.315 1616.79 645.739 1609.48 625.597 1593.61 C 602.89 1575.58 589.184 1548.53 588.067 1519.56 C 587.36 1499.09 598.951 1464.19 604.843 1443.78 L 640.78 1315.88 C 647.381 1292.61 659.163 1255.57 662.731 1233.04 C 664.644 1220.44 664.84 1207.64 663.314 1194.98 C 660.319 1169.05 652.218 1146.13 635.632 1125.67 C 616.032 1101.5 582.408 1078.23 557.451 1058.35 C 509.378 1020.02 460.192 983.19 411.854 945.212 C 347.402 894.573 371.172 793.579 449.082 772.816 C 470.679 767.061 499.228 769.497 521.881 769.833 L 659.657 772.618 C 679.554 772.994 716.573 774.564 734.861 772.495 C 770.164 768.381 802.366 750.349 824.321 722.398 C 840.991 700.757 863.458 629.984 873.856 600.091 L 911.765 491.615 C 919.586 469.084 928.263 438.341 943.064 420.46 C 962.474 397.013 986.512 384.408 1016.56 381.401 z" fill="rgb(2,1,0)" transform="translate(0,0)"></path>
<path d="M 909.771 509.37 C 925.866 462.803 933.709 417.74 980.489 394.723 C 1003.32 383.504 1029.69 381.891 1053.72 390.244 C 1083.63 400.637 1102.87 423.183 1114.29 451.875 C 1122.69 472.964 1130.55 494.272 1138.67 515.46 L 1188.07 642.951 C 1198.57 669.93 1207.88 702.104 1225.31 725.053 C 1273.17 788.088 1349.37 777.292 1419.11 777.22 L 1532.25 777.343 C 1552.65 777.42 1581.16 775.551 1599.89 781.464 C 1623.03 788.872 1642.13 805.399 1652.8 827.223 C 1668.73 859.761 1665.16 906.096 1639.03 932.147 C 1622.11 949.02 1600.24 965.639 1581.48 980.936 L 1470.89 1070.47 C 1426.62 1105.93 1391.07 1129.48 1382.01 1190.39 C 1379.99 1204.32 1379.96 1218.47 1381.92 1232.41 C 1385.15 1255.08 1397.27 1294.06 1403.72 1316.88 C 1414.67 1357.06 1425.98 1397.15 1437.66 1437.13 C 1444.87 1461.59 1456.71 1496.25 1455.89 1520.82 C 1454.69 1556.76 1434.11 1586.8 1401.75 1602.38 C 1379.91 1612.77 1354.83 1613.99 1332.09 1605.76 C 1313.36 1599 1295.69 1583.9 1278.97 1572.55 L 1163.48 1492.79 C 1134.63 1472.91 1098.76 1444.87 1066.63 1433.69 C 1037.8 1423.66 995.525 1424.46 968.034 1437.97 C 942.536 1450.5 912.949 1472.67 888.907 1489.38 L 776.45 1567.26 C 761.079 1578.05 745.319 1590.31 729.414 1599.96 C 701.569 1616.85 657.327 1613.92 631.787 1593.72 C 602.104 1575.88 588.154 1536.71 592.942 1503.35 C 595.014 1487.12 606.911 1450.11 611.894 1432.48 C 622.306 1394.39 633.015 1356.39 644.021 1318.46 C 644.65 1313.84 652.85 1286.43 654.585 1280.97 C 672.104 1225.91 674.881 1192.67 649.586 1139.98 C 627.183 1105.27 608.282 1093.87 576.255 1068.61 C 551.47 1048.98 526.554 1029.5 501.508 1010.2 C 488.621 1000.26 467.478 984.878 455.886 974.382 C 452.195 972.683 419.828 946.834 414.785 942.75 C 407.07 937.246 400.377 930.436 395.009 922.627 C 366.719 881.885 375.395 820.781 416.801 792.298 C 445.306 768.005 485.579 772.478 520.456 773.149 C 539.13 772.912 558.727 774.439 577.56 774.785 L 723.571 777.161 C 741.35 775.559 752.961 772.542 769.628 767.169 C 834.805 738.887 841.406 702.832 863.202 641.148 L 893.759 555.275 C 898.998 540.326 903.883 523.943 909.771 509.37 z" fill="rgb(236,164,53)" transform="translate(0,0)"></path>
<path d="M 416.801 792.298 C 445.306 768.005 485.579 772.478 520.456 773.149 C 522.687 773.518 529.144 774.216 530.492 775.285 C 527.341 777.048 508.797 781.03 504.83 781.759 C 464.135 789.235 426.622 801.95 414.404 846.136 C 408.598 867.133 410.557 889.048 421.346 908.505 C 430.868 925.678 457.352 942.845 473.524 955.521 C 505.897 981.407 538.698 1006.75 571.912 1031.55 C 628.401 1074.25 689.297 1111.95 696.89 1189.08 C 699.917 1211.17 701.269 1237.66 694.428 1259.35 C 676.634 1315.77 659.209 1373.21 643.563 1430.25 C 631.505 1474.2 609.751 1519.47 621.718 1565.34 C 623.498 1572.16 632.193 1589.36 631.787 1593.72 C 602.104 1575.88 588.154 1536.71 592.942 1503.35 C 595.014 1487.12 606.911 1450.11 611.894 1432.48 C 622.306 1394.39 633.015 1356.39 644.021 1318.46 C 644.65 1313.84 652.85 1286.43 654.585 1280.97 C 672.104 1225.91 674.881 1192.67 649.586 1139.98 C 627.183 1105.27 608.282 1093.87 576.255 1068.61 C 551.47 1048.98 526.554 1029.5 501.508 1010.2 C 488.621 1000.26 467.478 984.878 455.886 974.382 C 452.195 972.683 419.828 946.834 414.785 942.75 C 407.07 937.246 400.377 930.436 395.009 922.627 C 366.719 881.885 375.395 820.781 416.801 792.298 z" fill="rgb(253,197,102)" transform="translate(0,0)"></path>
<path d="M 649.906 1132.04 C 669.858 1159.38 676.955 1206.05 671.244 1238.61 C 668.447 1254.56 653.36 1310.07 646.443 1323.97 L 645.055 1323.67 L 644.758 1324.01 C 643.728 1321.46 643.954 1321.28 644.021 1318.46 C 644.65 1313.84 652.85 1286.43 654.585 1280.97 C 672.104 1225.91 674.881 1192.67 649.586 1139.98 C 648.726 1134.91 647.837 1135.18 649.906 1132.04 z" fill="rgb(236,164,53)" transform="translate(0,0)"></path>
<path d="M 455.886 974.382 C 462.218 974.092 483.538 992.519 490.262 997.68 C 512.367 1014.4 534.25 1031.42 555.904 1048.72 C 586.206 1072.85 629.064 1100.37 649.906 1132.04 C 647.837 1135.18 648.726 1134.91 649.586 1139.98 C 627.183 1105.27 608.282 1093.87 576.255 1068.61 C 551.47 1048.98 526.554 1029.5 501.508 1010.2 C 488.621 1000.26 467.478 984.878 455.886 974.382 z" fill="rgb(236,164,53)" transform="translate(0,0)"></path>
<path d="M 414.785 942.75 C 407.07 937.246 400.377 930.436 395.009 922.627 C 366.719 881.885 375.395 820.781 416.801 792.298 C 413.751 800.129 402.696 807.558 398.483 814.917 C 378.702 849.475 381.646 893.295 402.606 926.622 C 406.165 932.282 412.285 936.109 414.785 942.75 z" fill="rgb(236,164,53)" transform="translate(0,0)"></path>
<path d="M 592.942 1503.35 C 595.014 1487.12 606.911 1450.11 611.894 1432.48 C 622.306 1394.39 633.015 1356.39 644.021 1318.46 C 643.954 1321.28 643.728 1321.46 644.758 1324.01 L 645.055 1323.67 L 646.443 1323.97 C 639.847 1347.42 600.109 1493.71 592.942 1503.35 z" fill="rgb(236,164,53)" transform="translate(0,0)"></path>
<path d="M 915.247 504.707 C 922.073 487.578 936.956 433.763 960.064 439.619 C 962.63 441.641 967.393 447.103 966.779 450.555 C 965.375 458.446 959.424 466.017 956.272 473.463 C 932.994 528.434 915.542 585.534 895.522 641.716 C 885.528 669.761 876.472 697.583 862.882 724.206 C 843.952 763.979 809.781 795.085 763.139 790.177 C 754.006 789.216 729.814 784.382 723.571 777.161 C 741.35 775.559 752.961 772.542 769.628 767.169 C 834.805 738.887 841.406 702.832 863.202 641.148 L 893.759 555.275 C 898.998 540.326 903.883 523.943 909.771 509.37 C 911.484 507.409 913.187 506.27 915.247 504.707 z" fill="rgb(253,197,102)" transform="translate(0,0)"></path>
<path d="M 909.771 509.37 C 911.484 507.409 913.187 506.27 915.247 504.707 C 902.26 542.857 888.961 580.9 875.352 618.832 C 869.047 636.698 862.92 654.769 856.306 672.532 C 843.621 706.601 829.654 745.601 793.793 761.336 C 786.124 764.701 778.096 768.666 769.628 767.169 C 834.805 738.887 841.406 702.832 863.202 641.148 L 893.759 555.275 C 898.998 540.326 903.883 523.943 909.771 509.37 z" fill="rgb(236,164,53)" transform="translate(0,0)"></path>
<path d="M 1012.85 558.32 C 1020.16 557.725 1025.87 557.473 1033.23 558.214 C 1046.9 559.577 1060.07 564.107 1071.69 571.445 C 1107.23 593.56 1109.66 619.15 1124.29 655.173 C 1141.61 697.802 1153.52 753.053 1181.47 789.298 C 1200.68 814.222 1236.81 832.668 1267.69 834.851 C 1282.37 835.889 1299.6 834.554 1314.62 833.667 L 1376.2 829.699 C 1389.4 828.84 1405.91 827.376 1418.85 828.669 C 1442.44 830.981 1464.12 842.645 1479.04 861.054 C 1506.89 895.219 1508.31 947.351 1479.9 981.302 C 1466.11 997.783 1448.55 1009.55 1431.71 1022.67 C 1408.89 1040.44 1385.75 1057.65 1363.01 1075.5 C 1321.02 1107.36 1301.2 1153.04 1307.82 1205.58 C 1309.71 1220.58 1317.07 1243.65 1321.52 1259.24 L 1342.96 1333.67 C 1349.1 1354.62 1356.95 1373.57 1354.32 1395.51 C 1351.61 1418.14 1339.82 1438.68 1321.64 1452.42 C 1310.84 1460.54 1298.39 1466.17 1285.16 1468.91 C 1235.3 1479.41 1201.29 1443.47 1163.38 1417.39 C 1118.28 1386.36 1091.89 1358.78 1035.5 1351.09 C 978.831 1349.73 956.998 1364.21 912.398 1397.7 L 855.983 1440.45 C 837.11 1454.77 821.627 1466.83 797.796 1471.47 C 774.076 1476.01 749.525 1470.95 729.532 1457.4 C 703.074 1439.11 687.732 1407.25 691.548 1375.16 C 693.659 1357.41 700.401 1338.49 705.52 1321.18 L 722.49 1263.33 C 728.228 1244.02 736.087 1219.1 738.34 1199.42 C 740.003 1185.33 739.46 1171.07 736.73 1157.15 C 726.389 1105.11 696.822 1084.26 657.701 1054.24 L 605.3 1013.8 C 596.601 1007.11 587.855 1000.57 579.464 993.498 C 541.278 961.305 534.2 906.126 563.169 865.459 C 579.924 842.334 606.421 828.245 634.961 827.287 C 647.985 826.761 662.949 828.927 675.864 829.149 C 709.031 829.718 760.905 836.484 792.124 831.137 C 830.363 824.429 863.371 800.459 881.584 766.173 C 889.425 751.342 897.237 727.841 903.165 711.539 C 911.507 688.418 920.149 665.405 929.088 642.508 C 935.073 626.888 940.555 609.552 950.432 596.081 C 966.032 574.806 987.025 562.403 1012.85 558.32 z" fill="rgb(2,1,0)" transform="translate(0,0)"></path>
<path d="M 1017.69 561.384 C 1020.79 561.014 1026.11 561.111 1029.26 561.335 C 1060.11 563.451 1087.67 581.361 1102.13 608.686 C 1108.62 620.727 1115.56 641.668 1120.39 655.031 L 1140.83 711.681 C 1151.49 741.102 1160.13 770.429 1181.18 794.364 C 1204.3 820.467 1236.81 836.368 1271.62 838.6 C 1283.38 839.288 1300.45 837.797 1312.69 837.071 C 1333.45 835.862 1354.2 834.542 1374.94 833.111 C 1387 832.298 1403.17 830.747 1414.82 831.613 C 1438.22 833.23 1459.97 844.263 1475.1 862.193 C 1502.48 894.28 1504.5 943.008 1478.89 976.701 C 1465.6 994.187 1446.11 1006.81 1428.94 1020.3 C 1404.91 1039.18 1379.94 1056.97 1356.28 1076.32 C 1316.39 1108.2 1297.45 1155.27 1304.27 1205.9 C 1306.41 1221.73 1313.53 1244.04 1318.17 1260.31 L 1338.79 1331.79 C 1344.71 1351.87 1353.15 1373.53 1350.71 1394.78 C 1344.06 1452.69 1278.2 1485.04 1227.54 1457.31 C 1203.03 1443.12 1180.1 1424.89 1156.9 1408.54 C 1112.26 1377.07 1088.02 1353.25 1031.35 1347.1 C 975.365 1346.2 951.616 1363.83 908.475 1396.25 L 854.947 1436.6 C 834.244 1452.28 817.271 1465.69 790.338 1468.83 C 767.738 1471.46 745.011 1465.08 727.081 1451.07 C 706.802 1435.14 694.932 1410.8 694.864 1385 C 694.755 1363.19 701.996 1348.56 706.833 1328.98 C 718.559 1281.5 748.051 1215.4 741.934 1167.58 C 733.855 1104.42 699.344 1081.65 654.09 1046.92 L 590.452 997.533 C 567.249 979.515 553.962 961.5 549.571 931.462 C 546.411 909.849 554.754 880.618 569.128 863.789 C 602.299 824.954 633.69 830.386 677.719 832.442 C 706.062 833.766 762.424 838.515 787.392 835.344 C 828.85 829.731 865.141 804.672 885.077 767.891 C 892.491 753.907 900.632 729.266 906.37 713.411 C 914.65 690.161 923.227 667.018 932.098 643.987 C 942.709 616.355 950.035 592.963 976.129 576.148 C 990.298 567.017 1001.1 563.362 1017.69 561.384 z" fill="rgb(253,197,102)" transform="translate(0,0)"></path>
<path d="M 1018.64 399.189 C 1026 398.574 1030.36 400.198 1033.11 407.494 C 1037.6 419.426 1029.65 421.573 1020.03 424.177 C 1018.17 424.714 1016.31 425.22 1014.44 425.695 C 1005.79 427.879 996.489 430.714 987.756 433.166 C 974.877 433.44 966.954 426.501 973.193 414.609 C 977.931 405.577 1009.09 401.12 1018.64 399.189 z" fill="rgb(253,197,102)" transform="translate(0,0)"></path>
<metadata><recraft-signature>{"signed_by": "recraft", "signature_b64": "BU1xz3azMKav02JVevy8LcW16un3KPcd0jE58kRM/3A2hxT58JjXcQn6Zv905yOZbMgwEZZESbs7ePgowrWCDA==", "signing_algo": "Ed25519", "generation_timestamp": 1781914926, "identifier": "5f40f538-486e-41a3-8122-7252b987cf7b"}</recraft-signature></metadata></svg>