<svg xmlns="http://www.w3.org/2000/svg" height="1024" preserveAspectRatio="none" style="display: block;" version="1.1" viewBox="0 0 2048 2048" width="1024">
<path d="M 1326.11 203.698 L 1433.37 203.469 C 1447.44 203.47 1478.49 202.72 1491.66 204.079 C 1510.04 204.235 1555.52 217.295 1568.79 230.391 C 1594.73 246.121 1625.21 279.685 1634.48 308.784 C 1653.6 343.934 1646.22 401.632 1643.2 440.542 C 1641.02 470.985 1638.65 501.414 1636.09 531.828 C 1635.54 542.504 1633.1 580.913 1631.1 590.322 C 1629.72 634.812 1623.78 683.368 1623.01 728.393 C 1622.63 750.241 1623.51 774.03 1623.76 796.048 C 1624.08 844.585 1624.92 893.118 1626.31 941.636 L 1635.57 1274.73 C 1635.94 1290.84 1636.43 1306.95 1637.04 1323.05 C 1637.33 1330.16 1638.35 1343.91 1638.09 1350.32 C 1640.42 1375.67 1639.08 1400.56 1641.24 1427.4 C 1643.31 1453.13 1642.91 1472.64 1644.7 1500.42 C 1649.83 1580.18 1584.87 1653.85 1507.44 1666.83 C 1506.96 1666.82 1506.49 1666.82 1506.02 1666.81 C 1493.05 1669.4 1474.95 1669.34 1461.49 1669.55 C 1439.95 1669.81 1418.42 1669.89 1396.88 1669.79 C 1382.48 1669.76 1333.81 1670.14 1320.92 1667.61 C 1316.19 1667.79 1311.6 1666.21 1306.99 1665.28 C 1272.86 1658.39 1246.23 1640.15 1222.26 1615.72 L 1220.83 1614.28 C 1196.64 1588.08 1183.47 1557.27 1176.49 1522.77 C 1171.69 1552.28 1165.95 1574.11 1148.87 1599.42 C 1124.71 1635.51 1087.13 1660.46 1044.48 1668.71 C 1024.98 1672.32 976.944 1671.44 955.139 1671.16 C 926.272 1670.78 871.472 1673.33 844.986 1668.21 C 824.541 1664.34 805.165 1656.12 788.167 1644.12 C 743.693 1613.25 725.22 1574.72 715.714 1523.19 C 715.767 1522.12 715.857 1521.02 715.806 1519.95 C 715.669 1519.3 716.169 1504.13 716.185 1502.02 C 717 1495.88 717.194 1491.15 716.934 1484.98 L 717.033 1477.01 C 716.987 1471.67 717.142 1469.38 717.994 1463.98 L 718.131 1456.97 C 717.993 1452.5 718.341 1449.48 718.943 1444.98 L 719.03 1436.01 C 718.863 1430.2 719.006 1428.89 720.002 1422.97 C 721.826 1397.03 730.982 1160.04 725.193 1148.9 L 723.529 1148.94 C 722.114 1146.01 720.651 1137.25 722.321 1134.3 C 723.379 1136.37 724.947 1144.41 725.491 1147.1 C 727.397 1108.57 725.514 1069.64 727.157 1031.06 C 728.273 1004.86 724.981 980.823 722.592 954.864 L 712.825 848.614 C 710.353 822.082 706.547 794.439 708.366 767.943 C 709.622 750.462 713.403 733.255 719.592 716.858 C 736.101 672.471 766.502 637.158 809.997 617.333 C 832.382 607.129 855.031 604.862 879.321 604.757 C 914.52 604.604 949.754 604.721 984.954 604.7 C 998.852 604.71 1012.84 604.314 1026.68 605.739 C 1040.8 607.186 1054.67 610.494 1067.92 615.577 C 1110.92 632.429 1145.96 664.908 1166.02 706.505 C 1171.73 718.513 1174.56 731.234 1179.8 742.908 L 1180.23 743.843 C 1181.44 735.873 1181.14 724.308 1181.19 715.984 C 1180 681.32 1182.76 641.828 1180.73 608.152 C 1176.69 554.341 1172.69 500.715 1168.7 446.881 C 1166.42 416.043 1161.49 381.83 1165.5 351.045 C 1169.54 319.986 1184.41 283.805 1206.41 261.047 C 1210.47 255.937 1211.56 254.811 1216.44 250.458 C 1217.24 249.146 1217.53 248.807 1218.69 247.7 C 1246.71 220.849 1287.68 204.242 1326.11 203.698 z M 1041.29 694.604 C 1043.87 693.6 1051.2 692.389 1051.52 689.393 C 1049.37 686.05 1044.43 686.811 1041.24 685.126 C 1039.88 685.234 1031.53 685.364 1031.09 686.299 C 1026.4 696.387 1035.63 694.386 1041.29 694.604 z M 1510.88 283.35 C 1513.64 281.593 1516.99 281.03 1515.84 277.984 C 1496.33 280.352 1502.97 285.442 1510.88 283.35 z" fill="rgb(200,158,60)" transform="translate(0,0)"></path>
<path d="M 725.491 1147.1 C 727.397 1108.57 725.514 1069.64 727.157 1031.06 C 728.273 1004.86 724.981 980.823 722.592 954.864 L 712.825 848.614 C 710.353 822.082 706.547 794.439 708.366 767.943 C 709.622 750.462 713.403 733.255 719.592 716.858 C 736.101 672.471 766.502 637.158 809.997 617.333 C 832.382 607.129 855.031 604.862 879.321 604.757 C 914.52 604.604 949.754 604.721 984.954 604.7 C 998.852 604.71 1012.84 604.314 1026.68 605.739 C 1040.8 607.186 1054.67 610.494 1067.92 615.577 C 1110.92 632.429 1145.96 664.908 1166.02 706.505 C 1171.73 718.513 1174.56 731.234 1179.8 742.908 L 1180.23 743.843 C 1184.35 752.062 1176.63 1294.2 1175.81 1349.65 C 1175.19 1385.85 1174.76 1422.05 1174.53 1458.25 C 1174.37 1477.65 1173.04 1504.07 1176.49 1522.77 C 1171.69 1552.28 1165.95 1574.11 1148.87 1599.42 C 1124.71 1635.51 1087.13 1660.46 1044.48 1668.71 C 1024.98 1672.32 976.944 1671.44 955.139 1671.16 C 926.272 1670.78 871.472 1673.33 844.986 1668.21 C 824.541 1664.34 805.165 1656.12 788.167 1644.12 C 743.693 1613.25 725.22 1574.72 715.714 1523.19 C 715.767 1522.12 715.857 1521.02 715.806 1519.95 C 715.669 1519.3 716.169 1504.13 716.185 1502.02 C 717 1495.88 717.194 1491.15 716.934 1484.98 L 717.033 1477.01 C 716.987 1471.67 717.142 1469.38 717.994 1463.98 L 718.131 1456.97 C 717.993 1452.5 718.341 1449.48 718.943 1444.98 L 719.03 1436.01 C 718.863 1430.2 719.006 1428.89 720.002 1422.97 C 721.826 1397.03 730.982 1160.04 725.193 1148.9 L 723.529 1148.94 C 722.114 1146.01 720.651 1137.25 722.321 1134.3 C 723.379 1136.37 724.947 1144.41 725.491 1147.1 z M 1041.29 694.604 C 1043.87 693.6 1051.2 692.389 1051.52 689.393 C 1049.37 686.05 1044.43 686.811 1041.24 685.126 C 1039.88 685.234 1031.53 685.364 1031.09 686.299 C 1026.4 696.387 1035.63 694.386 1041.29 694.604 z" fill="rgb(157,108,8)" transform="translate(0,0)"></path>
<path d="M 720.002 1422.97 C 720.19 1429.15 719.988 1429.92 719.03 1436.01 C 718.863 1430.2 719.006 1428.89 720.002 1422.97 z" fill="rgb(125,82,7)" transform="translate(0,0)"></path>
<path d="M 717.994 1463.98 C 718.262 1470.5 718.114 1470.5 717.033 1477.01 C 716.987 1471.67 717.142 1469.38 717.994 1463.98 z" fill="rgb(125,82,7)" transform="translate(0,0)"></path>
<path d="M 718.943 1444.98 C 719.134 1449.94 719.405 1452.29 718.131 1456.97 C 717.993 1452.5 718.341 1449.48 718.943 1444.98 z" fill="rgb(125,82,7)" transform="translate(0,0)"></path>
<path d="M 850.093 702.662 C 851.299 699.245 853.768 698.616 857.449 696.754 C 914.396 667.955 1006.02 667.788 1065.77 689.542 L 1065.37 690.678 C 1047.61 691.562 1009.2 713.852 1002.81 713.405 C 964.847 732.697 927.036 775.409 913.599 815.991 C 914.872 819.187 904.291 853.343 903.141 860.969 C 899.876 881.152 899.498 900.137 900.82 920.531 C 907.777 1027.84 899.139 1135.58 890.26 1242.49 C 884.128 1316.32 877.336 1388.68 861.987 1461.29 C 855.591 1491.54 850.64 1523.11 840.559 1552.33 L 838.971 1552.1 C 835.562 1561.41 832.104 1570.71 828.599 1579.98 C 829.286 1581.11 828.963 1580.38 829.166 1582.33 C 824.703 1595.04 811.248 1589.63 807.269 1578.88 C 791.764 1537.02 786.875 1493.1 784.55 1448.66 C 781.524 1390.81 782.622 1332.14 782.613 1274.07 L 782.695 1060.74 C 782.743 1022.89 782.889 984.825 782.664 946.973 C 781.938 934.097 777.243 919.606 773.674 907.13 C 758.405 853.753 760.505 795.439 794.362 749.349 C 801.874 739.123 817.526 720.397 830.073 715.359 C 831.545 715.001 847.397 704.427 850.093 702.662 z M 1041.29 694.604 C 1043.87 693.6 1051.2 692.389 1051.52 689.393 C 1049.37 686.05 1044.43 686.811 1041.24 685.126 C 1039.88 685.234 1031.53 685.364 1031.09 686.299 C 1026.4 696.387 1035.63 694.386 1041.29 694.604 z" fill="rgb(215,206,179)" transform="translate(0,0)"></path>
<path d="M 828.599 1579.98 C 829.286 1581.11 828.963 1580.38 829.166 1582.33 C 824.703 1595.04 811.248 1589.63 807.269 1578.88 C 791.764 1537.02 786.875 1493.1 784.55 1448.66 C 781.524 1390.81 782.622 1332.14 782.613 1274.07 L 782.695 1060.74 C 782.743 1022.89 782.889 984.825 782.664 946.973 C 781.938 934.097 777.243 919.606 773.674 907.13 C 758.405 853.753 760.505 795.439 794.362 749.349 C 801.874 739.123 817.526 720.397 830.073 715.359 C 821.741 722.942 814.161 729.113 806.483 737.534 C 782.435 764.084 768.427 798.207 766.885 833.996 C 765.454 864.675 770.646 885.593 777.874 914.888 C 780.551 925.737 784.615 935.556 784.715 946.451 C 785.097 988.011 784.859 1029.76 784.83 1071.33 L 784.779 1307.54 C 784.791 1392.88 780.784 1486.83 806.158 1569.35 C 808.394 1576.62 811.991 1587.53 820.426 1588.47 C 824.901 1586.67 826.29 1584.29 828.599 1579.98 z" fill="rgb(125,82,7)" transform="translate(0,0)"></path>
<path d="M 913.599 815.991 C 914.872 819.187 904.291 853.343 903.141 860.969 C 899.876 881.152 899.498 900.137 900.82 920.531 C 907.777 1027.84 899.139 1135.58 890.26 1242.49 C 884.128 1316.32 877.336 1388.68 861.987 1461.29 C 855.591 1491.54 850.64 1523.11 840.559 1552.33 L 838.971 1552.1 C 847.608 1523.99 852.798 1497.05 858.67 1468.39 C 873.829 1394.41 881.597 1320.28 888.084 1245.17 C 892.339 1199.88 895.638 1154.51 897.979 1109.08 C 899.956 1069.31 900.838 1029.5 900.623 989.687 C 900.227 930.457 889.786 871.888 913.599 815.991 z" fill="rgb(125,82,7)" transform="translate(0,0)"></path>
<path d="M 850.093 702.662 C 851.299 699.245 853.768 698.616 857.449 696.754 C 914.396 667.955 1006.02 667.788 1065.77 689.542 L 1065.37 690.678 C 1047.61 691.562 1009.2 713.852 1002.81 713.405 C 1014.05 705.612 1029.4 701.232 1041.29 694.604 C 1043.87 693.6 1051.2 692.389 1051.52 689.393 C 1049.37 686.05 1044.43 686.811 1041.24 685.126 C 1002.85 673.369 938.51 674.151 900.47 683.915 C 880.9 688.938 867.86 693.883 850.093 702.662 z" fill="rgb(125,82,7)" transform="translate(0,0)"></path>
<path d="M 1181.19 715.984 C 1181.5 720.206 1181.79 727.758 1182.85 731.566 C 1183.8 777.557 1183.18 825.294 1183.13 871.392 L 1178.68 1307.22 L 1176.98 1447.64 C 1176.65 1516.86 1173.71 1556.03 1221.82 1612.9 L 1220.83 1614.28 C 1196.64 1588.08 1183.47 1557.27 1176.49 1522.77 C 1173.04 1504.07 1174.37 1477.65 1174.53 1458.25 C 1174.76 1422.05 1175.19 1385.85 1175.81 1349.65 C 1176.63 1294.2 1184.35 752.062 1180.23 743.843 C 1181.44 735.873 1181.14 724.308 1181.19 715.984 z" fill="rgb(103,67,11)" transform="translate(0,0)"></path>
<path d="M 1635.57 1274.73 L 1634.3 1273.94 L 1634.03 1277.63 L 1633.56 1277.98 C 1632.92 1236.67 1630.51 1195.58 1629.18 1154.43 C 1625.87 1052.15 1623.63 949.839 1622.47 847.511 C 1621.87 790.023 1618.31 731.43 1624.02 674.237 C 1625.65 657.945 1625.86 601.204 1631.1 590.322 C 1629.72 634.812 1623.78 683.368 1623.01 728.393 C 1622.63 750.241 1623.51 774.03 1623.76 796.048 C 1624.08 844.585 1624.92 893.118 1626.31 941.636 L 1635.57 1274.73 z" fill="rgb(157,108,8)" transform="translate(0,0)"></path>
<path d="M 1206.41 261.047 C 1205.95 265.328 1198.38 273.783 1195.63 278.252 C 1190.44 286.686 1185.52 294.434 1181.27 303.47 C 1162.21 344.025 1165.67 382.736 1169.19 425.76 L 1174.06 489.574 L 1178.86 557.197 C 1180.64 579.386 1183.72 603.732 1183.18 625.827 C 1182.33 660.75 1183.91 696.764 1182.85 731.566 C 1181.79 727.758 1181.5 720.206 1181.19 715.984 C 1180 681.32 1182.76 641.828 1180.73 608.152 C 1176.69 554.341 1172.69 500.715 1168.7 446.881 C 1166.42 416.043 1161.49 381.83 1165.5 351.045 C 1169.54 319.986 1184.41 283.805 1206.41 261.047 z" fill="rgb(157,108,8)" transform="translate(0,0)"></path>
<path d="M 1506.02 1666.81 C 1508.04 1663.52 1519.87 1662.43 1524.5 1660.75 C 1528.31 1659.37 1533.15 1658.73 1537.09 1657.13 C 1590.76 1635.39 1634.01 1584.96 1641.72 1526.89 C 1644.11 1508.92 1642.2 1490.84 1641.41 1472.88 L 1638.38 1406.18 C 1637.65 1392.08 1634.81 1363.12 1638.09 1350.32 C 1640.42 1375.67 1639.08 1400.56 1641.24 1427.4 C 1643.31 1453.13 1642.91 1472.64 1644.7 1500.42 C 1649.83 1580.18 1584.87 1653.85 1507.44 1666.83 C 1506.96 1666.82 1506.49 1666.82 1506.02 1666.81 z" fill="rgb(157,108,8)" transform="translate(0,0)"></path>
<path d="M 1634.48 308.784 C 1653.6 343.934 1646.22 401.632 1643.2 440.542 C 1641.02 470.985 1638.65 501.414 1636.09 531.828 C 1633.12 520.792 1643.4 422.356 1644.56 402.642 C 1645.32 381.763 1646.16 360.16 1642.39 339.545 C 1640.58 329.636 1635.3 318.613 1634.48 308.784 z" fill="rgb(157,108,8)" transform="translate(0,0)"></path>
<path d="M 1221.82 1612.9 C 1248.23 1638.06 1273.22 1656.64 1310.03 1663.57 C 1312.39 1664.01 1320.31 1665.42 1320.92 1667.61 C 1316.19 1667.79 1311.6 1666.21 1306.99 1665.28 C 1272.86 1658.39 1246.23 1640.15 1222.26 1615.72 L 1220.83 1614.28 L 1221.82 1612.9 z" fill="rgb(157,108,8)" transform="translate(0,0)"></path>
<path d="M 1216.44 250.458 C 1217.24 249.146 1217.53 248.807 1218.69 247.7 C 1246.71 220.849 1287.68 204.242 1326.11 203.698 C 1318 207.125 1304.02 207.967 1294.94 209.803 C 1265.72 215.995 1238.88 230.381 1217.54 251.278 L 1216.44 250.458 z" fill="rgb(157,108,8)" transform="translate(0,0)"></path>
<path d="M 1491.66 204.079 C 1510.04 204.235 1555.52 217.295 1568.79 230.391 C 1565.15 230.589 1547.9 220.844 1542.69 218.584 C 1535.19 215.401 1527.44 212.833 1519.53 210.905 C 1513.21 209.33 1496.07 206.856 1491.66 204.079 z" fill="rgb(157,108,8)" transform="translate(0,0)"></path>
<path d="M 1418.23 266.566 C 1451.05 263.486 1495.41 268.046 1526.78 276.397 C 1530.86 277.482 1538.81 278.375 1541.79 279.483 C 1513.42 290.107 1501.78 292.355 1473.47 308.614 C 1422.08 337.594 1385.43 384.806 1370.76 441.977 C 1361.05 479.805 1363.08 503.297 1365.79 540.563 C 1367.02 560.051 1367.99 579.555 1368.69 599.069 C 1369.73 639.226 1370.14 679.397 1369.92 719.566 C 1369.28 867.965 1363.27 1016.29 1351.92 1164.26 C 1342.04 1296.82 1333.4 1414.11 1298.55 1543.44 C 1296.1 1550.87 1293.58 1558.29 1291 1565.68 C 1280.42 1595.12 1270.57 1600.03 1258.97 1567.88 C 1247.58 1536.06 1240.52 1502.86 1237.95 1469.16 C 1235.96 1444.75 1237.06 1406.71 1237.08 1381.17 L 1237.03 1230.64 L 1236.96 809.568 L 1237.13 661.876 C 1237.17 635.929 1237.3 609.803 1237.11 583.869 C 1237.02 571.379 1231.88 555.905 1228.74 543.526 C 1223.18 521.568 1216.73 499.569 1214.75 476.915 C 1210.47 427.718 1220.91 376.27 1253.98 338.171 C 1295.95 289.833 1356.98 271.765 1418.23 266.566 z M 1510.88 283.35 C 1513.64 281.593 1516.99 281.03 1515.84 277.984 C 1496.33 280.352 1502.97 285.442 1510.88 283.35 z" fill="rgb(103,67,11)" transform="translate(0,0)"></path>
<path d="M 1514.83 286.388 C 1492.75 292.766 1453.25 317.135 1436.02 331.912 C 1399.48 363.6 1374.73 406.72 1365.81 454.258 C 1356.78 501.454 1363.82 538.244 1365.67 585.705 C 1367.18 630.352 1367.83 675.024 1367.6 719.696 C 1366.52 890.756 1358.78 1061.71 1344.42 1232.17 C 1335.67 1340.73 1323.74 1451.91 1291.93 1556.54 C 1277.33 1601.47 1269.2 1594.16 1256.64 1555.41 C 1236.01 1491.78 1239.66 1433.19 1239.51 1367.26 L 1239.25 1181.68 L 1239.5 647.771 C 1239.57 631.325 1241.75 586.679 1238.95 574.856 C 1224.79 515.203 1205.54 467.213 1222.67 403.988 C 1234.8 359.231 1261.68 324.45 1303.5 300.781 C 1360.99 268.252 1452.67 258.91 1516.63 276.254 C 1519.16 276.778 1521.47 277.178 1524.02 277.741 L 1530.8 279.296 L 1532.62 279.735 L 1529.1 281.144 C 1524.38 282.998 1519.47 284.345 1514.83 286.388 z M 1510.88 283.35 C 1513.64 281.593 1516.99 281.03 1515.84 277.984 C 1496.33 280.352 1502.97 285.442 1510.88 283.35 z" fill="rgb(215,206,179)" transform="translate(0,0)"></path>
<path d="M 1515.84 277.984 C 1516.99 281.03 1513.64 281.593 1510.88 283.35 C 1502.97 285.442 1496.33 280.352 1515.84 277.984 z" fill="rgb(215,206,179)" fill-opacity="0.352941" transform="translate(0,0)"></path>
<path d="M 1516.63 276.254 C 1519.16 276.778 1521.47 277.178 1524.02 277.741 L 1530.8 279.296 L 1532.62 279.735 L 1529.1 281.144 C 1524.38 282.998 1519.47 284.345 1514.83 286.388 C 1512.89 285.238 1512.62 284.918 1510.88 283.35 C 1513.64 281.593 1516.99 281.03 1515.84 277.984 C 1516.04 277.476 1516.3 276.692 1516.63 276.254 z" fill="rgb(223,206,173)" transform="translate(0,0)"></path>
<path d="M 505.274 996.335 C 573.356 995.836 617.865 991.731 673.218 1044.29 C 676.608 1047.51 678.777 1050.18 681.653 1053.91 C 699.256 1069.85 717.947 1110.57 722.321 1134.3 C 720.651 1137.25 722.114 1146.01 723.529 1148.94 L 725.193 1148.9 C 730.982 1160.04 721.826 1397.03 720.002 1422.97 C 719.006 1428.89 718.863 1430.2 719.03 1436.01 L 718.943 1444.98 C 718.341 1449.48 717.993 1452.5 718.131 1456.97 L 717.994 1463.98 C 717.142 1469.38 716.987 1471.67 717.033 1477.01 L 716.934 1484.98 C 717.194 1491.15 717 1495.88 716.185 1502.02 C 716.169 1504.13 715.669 1519.3 715.806 1519.95 C 715.857 1521.02 715.767 1522.12 715.714 1523.19 C 712.62 1531.3 711.867 1542.54 709.786 1551.49 C 706.706 1564.76 701.926 1577.58 695.562 1589.62 C 694.439 1591.75 693.408 1594.45 691.587 1595.96 C 686.461 1605.51 682.634 1610.83 675.491 1619 C 641.589 1662.58 594.974 1674.43 542.381 1672.82 C 537.521 1673.15 531.017 1673.01 526.05 1672.92 C 489.655 1672.2 452.412 1674.34 416.098 1672.91 C 378.118 1674.04 339.933 1653.98 313.657 1627.69 C 281.434 1594.81 263.287 1550.68 263.064 1504.64 C 261.629 1490.45 262.431 1463.79 262.494 1448.61 L 262.93 1346.68 C 262.984 1310.4 262.847 1274.12 262.521 1237.85 C 262.361 1213.99 261.917 1190.34 263.208 1166.5 C 266.387 1107.81 296.686 1046.99 349.894 1018.41 C 378.108 997.122 420.505 996.211 453.739 996.368 C 470.917 996.166 488.096 996.155 505.274 996.335 z M 389.471 1570.24 C 410.604 1514.7 423.697 1434.99 430.187 1375.54 C 432.135 1357.22 433.717 1338.87 434.933 1320.49 C 435.609 1309.61 435.881 1292.13 437.633 1281.86 C 451.84 1198.54 490.387 1125.72 571.379 1090.77 C 587.186 1083.95 600.506 1078.24 617.381 1075.09 C 578.183 1063.11 547.804 1055.1 505.745 1056.48 C 396.918 1062.2 311.733 1123.27 317.052 1239.76 C 317.936 1259.84 324.116 1279.13 324.615 1299.21 C 326.916 1391.98 315.326 1488.31 343.437 1578.25 C 361.166 1634.97 376.256 1605.05 389.471 1570.24 z" fill="rgb(200,158,60)" transform="translate(0,0)"></path>
<path d="M 723.529 1148.94 L 725.193 1148.9 C 730.982 1160.04 721.826 1397.03 720.002 1422.97 C 719.006 1428.89 718.863 1430.2 719.03 1436.01 L 718.943 1444.98 C 718.341 1449.48 717.993 1452.5 718.131 1456.97 L 717.994 1463.98 C 717.142 1469.38 716.987 1471.67 717.033 1477.01 L 716.934 1484.98 C 717.194 1491.15 717 1495.88 716.185 1502.02 C 716.169 1504.13 715.669 1519.3 715.806 1519.95 L 712.891 1522.9 C 714.303 1514.28 714.744 1489.16 715.167 1479.18 C 716.53 1451.1 717.74 1423.02 718.796 1394.92 C 720.791 1348.49 722.395 1302.04 723.606 1255.57 C 724.64 1221.82 726.43 1182.51 723.529 1148.94 z" fill="rgb(103,67,11)" transform="translate(0,0)"></path>
<path d="M 716.934 1484.98 C 717.194 1491.15 717 1495.88 716.185 1502.02 C 715.913 1495.58 716.078 1491.49 716.934 1484.98 z" fill="rgb(125,82,7)" transform="translate(0,0)"></path>
<path d="M 263.064 1504.64 C 267.672 1514.71 266.009 1529.37 268.517 1539.82 C 283.005 1600.2 326.728 1654.67 389.546 1667.66 C 394.217 1668.62 413.282 1670.81 416.098 1672.91 C 378.118 1674.04 339.933 1653.98 313.657 1627.69 C 281.434 1594.81 263.287 1550.68 263.064 1504.64 z" fill="rgb(157,108,8)" transform="translate(0,0)"></path>
<path d="M 505.274 996.335 C 573.356 995.836 617.865 991.731 673.218 1044.29 C 676.608 1047.51 678.777 1050.18 681.653 1053.91 C 674.865 1051.37 670.189 1042.64 665.206 1038.87 C 643.565 1022.49 632.048 1013.9 605.497 1005.74 C 574.221 996.12 552.831 999.516 521.285 997.727 C 516.875 997.477 508.271 998.285 505.274 996.335 z" fill="rgb(157,108,8)" transform="translate(0,0)"></path>
<path d="M 542.381 1672.82 C 548.936 1670.48 578.346 1671.06 592.037 1667.58 C 615.19 1662.41 637.478 1652.57 655.218 1636.58 C 660.257 1632.03 669.857 1622.04 675.491 1619 C 641.589 1662.58 594.974 1674.43 542.381 1672.82 z" fill="rgb(157,108,8)" transform="translate(0,0)"></path>
<path d="M 349.894 1018.41 C 378.108 997.122 420.505 996.211 453.739 996.368 C 450.172 998.434 445.229 997.229 440.112 997.971 L 440.559 998.096 C 418.711 999.117 400.27 999.328 379.166 1006.48 C 372.588 1008.71 354.174 1017.61 349.894 1018.41 z" fill="rgb(157,108,8)" transform="translate(0,0)"></path>
<path d="M 715.806 1519.95 C 715.857 1521.02 715.767 1522.12 715.714 1523.19 C 712.62 1531.3 711.867 1542.54 709.786 1551.49 C 706.706 1564.76 701.926 1577.58 695.562 1589.62 C 694.439 1591.75 693.408 1594.45 691.587 1595.96 C 691.39 1591.22 695.349 1586 697.344 1581.41 C 705.597 1562.4 710.153 1543.37 712.891 1522.9 L 715.806 1519.95 z" fill="rgb(157,108,8)" transform="translate(0,0)"></path>
<path d="M 505.745 1056.48 C 547.804 1055.1 578.183 1063.11 617.381 1075.09 C 600.506 1078.24 587.186 1083.95 571.379 1090.77 C 490.387 1125.72 451.84 1198.54 437.633 1281.86 C 435.881 1292.13 435.609 1309.61 434.933 1320.49 C 433.717 1338.87 432.135 1357.22 430.187 1375.54 C 423.697 1434.99 410.604 1514.7 389.471 1570.24 C 376.256 1605.05 361.166 1634.97 343.437 1578.25 C 315.326 1488.31 326.916 1391.98 324.615 1299.21 C 324.116 1279.13 317.936 1259.84 317.052 1239.76 C 311.733 1123.27 396.918 1062.2 505.745 1056.48 z M 364.02 1602.97 C 364.279 1603.39 364.538 1603.81 364.798 1604.23 C 365.222 1604.18 365.265 1603.98 365.724 1603.44 C 365.813 1602.93 365.965 1602.72 365.766 1602.36 C 365.162 1602.33 364.575 1602.73 364.02 1602.97 z M 600.773 1075.82 C 596.157 1072.03 592.09 1073.22 586.468 1073.01 C 583.739 1072.91 580.977 1076.27 583.321 1077.07 C 586.465 1078.14 590.261 1077.54 594.313 1078.52 C 597.036 1077.5 598.122 1077.18 600.773 1075.82 z" fill="rgb(103,67,11)" transform="translate(0,0)"></path>
<path d="M 594.313 1078.52 C 588.879 1081.67 576.407 1086.57 570.222 1089.28 C 559.228 1094.08 548.613 1099.71 538.468 1106.11 C 489.326 1137.06 461.641 1184.52 445.418 1239.05 C 441.945 1250.73 435.802 1272.69 434.85 1284.24 C 432.532 1312.37 431.686 1339.85 428.623 1368.14 C 423.64 1415.76 415.938 1463.05 405.557 1509.79 C 399.692 1535.76 385.76 1585.87 367.871 1606.71 C 360.682 1615.08 350.422 1591.52 348.582 1586.24 C 315.932 1492.63 330.159 1391.19 326.769 1294.08 C 325.892 1268.96 315.278 1241.88 319.395 1215.45 C 323.221 1147.01 366.816 1096.25 430.079 1072.91 C 476.433 1055.8 559.55 1052.62 605.898 1074.3 L 605.688 1075.18 L 602.563 1076.24 L 600.773 1075.82 C 596.157 1072.03 592.09 1073.22 586.468 1073.01 C 583.739 1072.91 580.977 1076.27 583.321 1077.07 C 586.465 1078.14 590.261 1077.54 594.313 1078.52 z M 365.724 1603.44 C 365.813 1602.93 365.965 1602.72 365.766 1602.36 C 365.162 1602.33 364.575 1602.73 364.02 1602.97 C 364.279 1603.39 364.538 1603.81 364.798 1604.23 C 365.222 1604.18 365.265 1603.98 365.724 1603.44 z" fill="rgb(215,206,179)" transform="translate(0,0)"></path>
<path d="M 364.02 1602.97 C 364.575 1602.73 365.162 1602.33 365.766 1602.36 C 365.965 1602.72 365.813 1602.93 365.724 1603.44 C 365.265 1603.98 365.222 1604.18 364.798 1604.23 C 364.538 1603.81 364.279 1603.39 364.02 1602.97 z" fill="rgb(215,206,179)" fill-opacity="0.882353" transform="translate(0,0)"></path>
<path d="M 594.313 1078.52 C 590.261 1077.54 586.465 1078.14 583.321 1077.07 C 580.977 1076.27 583.739 1072.91 586.468 1073.01 C 592.09 1073.22 596.157 1072.03 600.773 1075.82 C 598.122 1077.18 597.036 1077.5 594.313 1078.52 z" fill="rgb(215,206,179)" fill-opacity="0.137255" transform="translate(0,0)"></path>
<metadata><recraft-signature>{"signed_by": "recraft", "signature_b64": "7AtzrrBLe+REuYBHkbR42Wsbi722DFxjpr8tmhhNa0e8iMK9HpQBjZ+f8Dfg9k84r1OEBIS4VScCT3I05U4WAQ==", "signing_algo": "Ed25519", "generation_timestamp": 1781914838, "identifier": "d28bb1a3-2031-4f35-be35-8de053fcb334"}</recraft-signature></metadata></svg>