<svg xmlns="http://www.w3.org/2000/svg" height="1024" preserveAspectRatio="none" style="display: block;" version="1.1" viewBox="0 0 2048 2048" width="1024">
<path d="M 953.251 287.589 C 963.258 286.403 997.357 287.209 1009.2 287.296 C 1038.87 287.516 1070.65 286.43 1100.05 287.245 C 1144.73 288.037 1199.81 288.675 1244.12 287.642 L 1409.44 287.053 L 1470.5 287.308 C 1512.03 287.402 1541.92 285.125 1573.88 317.124 C 1582.07 325.282 1589.02 334.586 1594.53 344.745 C 1603.89 362.236 1614.77 388.458 1623.28 407.046 L 1674.86 518.315 L 1731.09 639.54 C 1740.61 659.905 1756.57 692.15 1764.63 712.877 C 1765.13 762.75 1769.45 802.76 1731.82 843.386 C 1718.86 857.376 1700.79 866.024 1683.12 873.148 C 1683.12 908.053 1684.15 947.701 1683.07 982.261 L 1683.3 1439.96 C 1683.33 1514.96 1681.84 1593.46 1683.58 1668.06 C 1711.48 1664.46 1754.01 1665.58 1763.53 1698.65 C 1775.71 1723.55 1755.66 1756.06 1733.12 1767.29 C 1723.79 1771.94 1714.64 1773.43 1704.37 1773.36 C 1671.55 1773.13 1638.75 1773.05 1605.93 1773.02 L 1389.99 1772.97 L 729.422 1772.98 L 461.507 1772.92 C 437.261 1772.91 343.637 1775.8 326.434 1770.22 C 311.943 1765.52 297.921 1753.4 291.209 1739.66 C 284.324 1725.56 284.986 1711.91 289.756 1697.4 C 303.574 1668.76 326.254 1665.77 354.096 1667.55 C 358.159 1667.81 365.25 1667.96 368.705 1666.12 L 369.702 1662.4 L 369.503 1242.61 L 369.53 1089.2 C 369.539 1065.13 368.619 1032.87 369.789 1009.47 C 368.891 995.481 369.457 978.105 369.457 963.744 C 369.547 933.556 369.461 903.367 369.198 873.18 C 350.869 866.253 335.819 857.847 322.041 843.887 C 282.783 804.112 287.187 763.316 287.259 712.828 C 289.342 704.9 297.611 690.306 301.278 682.341 C 308.927 665.726 317.128 649.086 324.69 632.43 L 414.888 437.66 C 429.539 406.255 443.068 373.967 458.877 342.996 C 464.13 332.705 467.995 327.237 476.058 319.175 C 509.257 285.98 537.757 287.128 581.059 287.096 L 643.296 287.123 C 680.152 288.037 717.597 287.172 754.501 287.32 C 773.642 287.397 793.118 286.61 812.215 287.572 C 843.346 287.32 874.48 287.351 905.611 287.666 C 918.819 287.744 940.863 288.511 953.251 287.589 z" fill="rgb(230,174,66)" transform="translate(0,0)"></path>
<path d="M 953.251 287.589 C 963.258 286.403 997.357 287.209 1009.2 287.296 C 1038.87 287.516 1070.65 286.43 1100.05 287.245 C 1144.73 288.037 1199.81 288.675 1244.12 287.642 L 1409.44 287.053 L 1470.5 287.308 C 1512.03 287.402 1541.92 285.125 1573.88 317.124 C 1582.07 325.282 1589.02 334.586 1594.53 344.745 C 1603.89 362.236 1614.77 388.458 1623.28 407.046 L 1674.86 518.315 L 1731.09 639.54 C 1740.61 659.905 1756.57 692.15 1764.63 712.877 C 1692.93 714.47 1615.36 713.01 1543.12 712.971 L 1542.62 711.297 C 1542.08 711.773 1541.53 712.249 1540.99 712.726 C 1481.24 712.9 1392.58 713.45 1335.94 712.812 C 1336.01 727.46 1334.98 765.112 1336.01 777.552 C 1332.86 808.572 1323.62 832.918 1298.7 853.366 C 1277.18 871.011 1249.53 879.388 1221.84 876.658 C 1196.11 874.088 1170.54 859.391 1154.4 839.383 C 1139.81 821.295 1135.01 805.584 1131.04 783.328 C 1129.61 760.261 1129.98 736.189 1129.99 713.007 L 921.003 713.003 L 920.915 712.317 C 921.473 682.909 926.586 638.21 928.959 607.897 C 933.137 547.466 937.77 487.067 942.855 426.706 C 945.457 396.965 947.637 367.19 949.396 337.388 C 950.329 323.204 951.113 300.522 953.251 287.589 z" fill="rgb(247,202,115)" transform="translate(0,0)"></path>
<path d="M 1409.44 287.053 L 1470.5 287.308 C 1512.03 287.402 1541.92 285.125 1573.88 317.124 C 1582.07 325.282 1589.02 334.586 1594.53 344.745 C 1603.89 362.236 1614.77 388.458 1623.28 407.046 L 1674.86 518.315 L 1731.09 639.54 C 1740.61 659.905 1756.57 692.15 1764.63 712.877 C 1692.93 714.47 1615.36 713.01 1543.12 712.971 L 1542.62 711.297 L 1443.35 396.265 C 1432.6 361.046 1418.47 322.306 1409.44 287.053 z" fill="rgb(230,174,66)" transform="translate(0,0)"></path>
<path d="M 953.251 287.589 C 963.258 286.403 997.357 287.209 1009.2 287.296 C 1038.87 287.516 1070.65 286.43 1100.05 287.245 C 1103.48 349.143 1107.56 411.005 1112.26 472.819 C 1117.54 552.927 1123.45 632.992 1129.99 713.007 L 921.003 713.003 L 920.915 712.317 C 921.473 682.909 926.586 638.21 928.959 607.897 C 933.137 547.466 937.77 487.067 942.855 426.706 C 945.457 396.965 947.637 367.19 949.396 337.388 C 950.329 323.204 951.113 300.522 953.251 287.589 z" fill="rgb(230,174,66)" transform="translate(0,0)"></path>
<path d="M 1100.05 287.245 C 1144.73 288.037 1199.81 288.675 1244.12 287.642 L 1301.43 552.495 C 1313.17 605.65 1326.46 659.292 1336.01 712.917 L 1129.99 713.007 C 1123.45 632.992 1117.54 552.927 1112.26 472.819 C 1107.56 411.005 1103.48 349.143 1100.05 287.245 z" fill="rgb(249,230,193)" transform="translate(0,0)"></path>
<path d="M 1200.17 1158.94 L 1200.08 1095.64 C 1200.06 1052.1 1197.96 1019.66 1231.08 985.069 C 1241.16 974.55 1263.14 961.853 1276.93 959.105 C 1307.63 952.988 1350.19 955.041 1382.23 955.054 L 1516.03 955.067 C 1548.35 955.25 1573.27 963.236 1596.44 986.898 C 1611.23 1001.94 1620.94 1021.23 1624.21 1042.07 C 1626.45 1056.62 1625.83 1091.81 1625.86 1107.62 L 1626.02 1223.88 L 1625.93 1520.81 C 1625.9 1569.86 1625.2 1620.49 1625.89 1669.43 C 1619.91 1670.69 1594.41 1670.37 1587.18 1670.37 L 1511.38 1670.3 L 1328.07 1670.34 C 1286.51 1670.4 1242.36 1671.17 1201.03 1669.95 L 1201.01 1336.99 L 1200.87 1223.51 C 1200.81 1203.75 1201.4 1178.26 1200.17 1158.94 z" fill="rgb(152,101,7)" transform="translate(0,0)"></path>
<path d="M 1291.54 1053.4 C 1325.66 1052.02 1368.57 1053.19 1403.3 1053.13 C 1443.99 1053.06 1492.65 1051.88 1532.7 1053.67 C 1533.47 1073.92 1532.95 1097.88 1532.95 1118.38 L 1532.63 1247.41 L 1532.82 1572.28 C 1452.28 1571.76 1371.73 1571.81 1291.19 1572.44 L 1291.09 1272.02 C 1291.07 1199.54 1290.44 1125.79 1291.54 1053.4 z" fill="rgb(230,174,66)" transform="translate(0,0)"></path>
<path d="M 287.259 712.828 C 289.342 704.9 297.611 690.306 301.278 682.341 C 308.927 665.726 317.128 649.086 324.69 632.43 L 414.888 437.66 C 429.539 406.255 443.068 373.967 458.877 342.996 C 464.13 332.705 467.995 327.237 476.058 319.175 C 509.257 285.98 537.757 287.128 581.059 287.096 L 643.296 287.123 C 680.152 288.037 717.597 287.172 754.501 287.32 C 773.642 287.397 793.118 286.61 812.215 287.572 C 843.346 287.32 874.48 287.351 905.611 287.666 C 918.819 287.744 940.863 288.511 953.251 287.589 C 951.113 300.522 950.329 323.204 949.396 337.388 C 947.637 367.19 945.457 396.965 942.855 426.706 C 937.77 487.067 933.137 547.466 928.959 607.897 C 926.586 638.21 921.473 682.909 920.915 712.317 L 921.003 713.003 C 919.449 734.952 921.658 759.661 919.465 781.048 C 918.651 786.044 918.106 790.924 917.14 795.917 C 908.918 838.405 875.789 868.917 833.285 875.578 C 806.573 879.835 779.264 873.31 757.361 857.437 C 730.586 837.823 719.099 810.27 714.025 778.557 L 714.127 713.007 C 694.124 713.005 513.812 713.978 509.396 711.733 L 508.867 713.061 L 287.259 712.828 z" fill="rgb(247,202,115)" transform="translate(0,0)"></path>
<path d="M 287.259 712.828 C 289.342 704.9 297.611 690.306 301.278 682.341 C 308.927 665.726 317.128 649.086 324.69 632.43 L 414.888 437.66 C 429.539 406.255 443.068 373.967 458.877 342.996 C 464.13 332.705 467.995 327.237 476.058 319.175 C 509.257 285.98 537.757 287.128 581.059 287.096 L 643.296 287.123 C 635.925 306.897 630.586 329.037 624.229 349.485 L 580.791 487.821 L 533.332 636.106 C 526.594 657.108 514.397 691.277 509.396 711.733 L 508.867 713.061 L 287.259 712.828 z" fill="rgb(230,174,66)" transform="translate(0,0)"></path>
<path d="M 812.215 287.572 C 843.346 287.32 874.48 287.351 905.611 287.666 C 918.819 287.744 940.863 288.511 953.251 287.589 C 951.113 300.522 950.329 323.204 949.396 337.388 C 947.637 367.19 945.457 396.965 942.855 426.706 C 937.77 487.067 933.137 547.466 928.959 607.897 C 926.586 638.21 921.473 682.909 920.915 712.317 C 916.829 713.457 872.668 713.002 864.855 713.001 L 714.4 712.966 C 723.402 674.064 803.072 293.779 806.628 289.38 C 807.915 287.789 810.258 287.917 812.215 287.572 z" fill="rgb(249,230,193)" transform="translate(0,0)"></path>
<path d="M 1542.62 711.297 L 1543.12 712.971 C 1615.36 713.01 1692.93 714.47 1764.63 712.877 C 1765.13 762.75 1769.45 802.76 1731.82 843.386 C 1718.86 857.376 1700.79 866.024 1683.12 873.148 C 1683.12 908.053 1684.15 947.701 1683.07 982.261 C 1674.95 972.69 1665.29 960.64 1655.88 952.469 C 1623.56 924.388 1577.12 905.02 1534.47 901.468 C 1527.34 900.875 1519.21 900.65 1512.03 900.344 C 1470.33 926.608 1427.43 932.127 1381.18 911.041 C 1361.53 902.081 1351.72 892.185 1335.34 879.251 C 1274.4 940.804 1185.35 940.313 1124.37 879.029 L 1123.8 878.446 C 1104.23 902.944 1069.29 919.387 1038.39 922.831 C 999.938 927.117 964.34 915.874 934.403 891.534 C 929.212 887.363 924.254 882.911 919.551 878.197 C 857.148 939.403 780.517 940.028 718.014 878.754 C 703.631 891.059 689.401 902.438 672.346 910.546 C 640.472 925.945 595.313 929.294 562.927 913.753 C 540.663 903.069 537.364 903.897 513.09 906.676 C 452.311 913.634 406.487 936.738 370.329 985.802 C 370.286 992.115 370.536 1003.59 369.789 1009.47 C 368.891 995.481 369.457 978.105 369.457 963.744 C 369.547 933.556 369.461 903.367 369.198 873.18 C 350.869 866.253 335.819 857.847 322.041 843.887 C 282.783 804.112 287.187 763.316 287.259 712.828 L 508.867 713.061 L 509.396 711.733 C 513.812 713.978 694.124 713.005 714.127 713.007 L 714.025 778.557 C 719.099 810.27 730.586 837.823 757.361 857.437 C 779.264 873.31 806.573 879.835 833.285 875.578 C 875.789 868.917 908.918 838.405 917.14 795.917 C 918.106 790.924 918.651 786.044 919.465 781.048 C 921.658 759.661 919.449 734.952 921.003 713.003 L 1129.99 713.007 C 1129.98 736.189 1129.61 760.261 1131.04 783.328 C 1135.01 805.584 1139.81 821.295 1154.4 839.383 C 1170.54 859.391 1196.11 874.088 1221.84 876.658 C 1249.53 879.388 1277.18 871.011 1298.7 853.366 C 1323.62 832.918 1332.86 808.572 1336.01 777.552 C 1334.98 765.112 1336.01 727.46 1335.94 712.812 C 1392.58 713.45 1481.24 712.9 1540.99 712.726 C 1541.53 712.249 1542.08 711.773 1542.62 711.297 z" fill="rgb(184,137,56)" transform="translate(0,0)"></path>
<path d="M 1543.12 712.971 C 1615.36 713.01 1692.93 714.47 1764.63 712.877 C 1765.13 762.75 1769.45 802.76 1731.82 843.386 C 1718.86 857.376 1700.79 866.024 1683.12 873.148 C 1679.49 874.047 1675.84 874.899 1672.18 875.704 C 1644.72 881.69 1616 876.44 1592.42 861.124 C 1560.48 840.25 1549.76 814.204 1542.54 779.078 C 1544.12 761.242 1543.17 731.568 1543.12 712.971 z" fill="rgb(207,143,6)" transform="translate(0,0)"></path>
<path d="M 287.259 712.828 L 508.867 713.061 C 508.826 729.65 507.789 764.165 509.395 779.57 C 505.61 786.178 504.289 801.234 501.227 809.584 C 482.355 861.057 421.028 889.388 369.198 873.18 C 350.869 866.253 335.819 857.847 322.041 843.887 C 282.783 804.112 287.187 763.316 287.259 712.828 z" fill="rgb(207,143,6)" transform="translate(0,0)"></path>
<path d="M 921.003 713.003 L 1129.99 713.007 C 1129.98 736.189 1129.61 760.261 1131.04 783.328 C 1127.5 788.474 1122.84 812.55 1116.6 822.969 C 1069.27 901.997 960.286 893.307 926.433 807.84 C 923.283 799.889 921.776 789.667 919.465 781.048 C 921.658 759.661 919.449 734.952 921.003 713.003 z" fill="rgb(207,143,6)" transform="translate(0,0)"></path>
<path d="M 1542.62 711.297 L 1543.12 712.971 C 1543.17 731.568 1544.12 761.242 1542.54 779.078 C 1537.36 812.689 1529.88 835.396 1500.57 857.111 C 1478.31 873.501 1450.46 880.384 1423.14 876.247 C 1380.43 869.519 1346.42 833.141 1339.23 791.623 C 1338.59 787.882 1337.4 780.745 1336.01 777.552 C 1334.98 765.112 1336.01 727.46 1335.94 712.812 C 1392.58 713.45 1481.24 712.9 1540.99 712.726 C 1541.53 712.249 1542.08 711.773 1542.62 711.297 z" fill="rgb(230,174,66)" transform="translate(0,0)"></path>
<path d="M 508.867 713.061 L 509.396 711.733 C 513.812 713.978 694.124 713.005 714.127 713.007 L 714.025 778.557 C 708.185 801.25 710.724 811.551 694.837 833.806 C 678.816 856.291 654.487 871.454 627.244 875.934 C 601.41 880.19 574.663 874.766 553.636 859.12 C 524.412 837.375 514.81 814.233 509.395 779.57 C 507.789 764.165 508.826 729.65 508.867 713.061 z" fill="rgb(230,174,66)" transform="translate(0,0)"></path>
<path d="M 1200.17 1158.94 C 1201.4 1178.26 1200.81 1203.75 1200.87 1223.51 L 1201.01 1336.99 L 1201.03 1669.95 C 1242.36 1671.17 1286.51 1670.4 1328.07 1670.34 L 1511.38 1670.3 L 1587.18 1670.37 C 1594.41 1670.37 1619.91 1670.69 1625.89 1669.43 C 1638.21 1668.01 1676.49 1671.1 1683.58 1668.06 C 1711.48 1664.46 1754.01 1665.58 1763.53 1698.65 C 1775.71 1723.55 1755.66 1756.06 1733.12 1767.29 C 1723.79 1771.94 1714.64 1773.43 1704.37 1773.36 C 1671.55 1773.13 1638.75 1773.05 1605.93 1773.02 L 1389.99 1772.97 L 729.422 1772.98 L 461.507 1772.92 C 437.261 1772.91 343.637 1775.8 326.434 1770.22 C 311.943 1765.52 297.921 1753.4 291.209 1739.66 C 284.324 1725.56 284.986 1711.91 289.756 1697.4 C 303.574 1668.76 326.254 1665.77 354.096 1667.55 C 358.159 1667.81 365.25 1667.96 368.705 1666.12 L 369.702 1662.4 C 369.898 1665.03 369.824 1665.3 370.659 1667.76 C 397.214 1669.63 441.282 1668.23 468.965 1668.28 L 655.529 1668.51 L 1200 1668.98 L 1200.05 1314.69 L 1199.89 1215.49 C 1199.87 1197.47 1199.37 1176.75 1200.17 1158.94 z" fill="rgb(184,137,56)" transform="translate(0,0)"></path>
<path d="M 289.756 1697.4 C 295.798 1697.88 297.433 1701.03 301.535 1705.8 C 313.749 1720.01 330.302 1731.83 349.619 1732.79 C 376.54 1733.18 404.651 1733.02 431.899 1733 L 588.61 1732.9 L 1070.26 1732.94 L 1500.86 1732.81 L 1633.5 1732.98 C 1656.92 1733.02 1680.46 1733.51 1703.86 1732.7 C 1730.5 1731.78 1745.66 1718.14 1760.6 1697.54 L 1762.76 1699.22 L 1763.53 1698.65 C 1775.71 1723.55 1755.66 1756.06 1733.12 1767.29 C 1723.79 1771.94 1714.64 1773.43 1704.37 1773.36 C 1671.55 1773.13 1638.75 1773.05 1605.93 1773.02 L 1389.99 1772.97 L 729.422 1772.98 L 461.507 1772.92 C 437.261 1772.91 343.637 1775.8 326.434 1770.22 C 311.943 1765.52 297.921 1753.4 291.209 1739.66 C 284.324 1725.56 284.986 1711.91 289.756 1697.4 z" fill="rgb(152,101,7)" transform="translate(0,0)"></path>
<path d="M 555.212 955.424 C 586.913 953.358 625.038 955.087 657.121 955.087 L 850.626 955.044 L 958.385 954.967 C 978.341 954.959 1011 953.848 1029.37 957.328 C 1055.79 962.294 1080.2 974.807 1099.65 993.353 C 1124.75 1017.36 1138.48 1050.82 1138.75 1085.32 C 1139.04 1121.96 1138.71 1158.6 1138.56 1195.23 L 1138.39 1354.08 L 1138.24 1437.89 C 1138.21 1454.92 1138.96 1482.33 1135.82 1498.04 C 1131.14 1521.02 1119.96 1542.18 1103.61 1559 C 1077.46 1585.83 1049.48 1594.15 1013.25 1594.64 L 684.953 1593.96 L 590.724 1594.68 C 572.759 1594.83 541.743 1595.63 524.666 1592.9 C 503.585 1589.67 483.831 1580.6 467.65 1566.71 C 444.093 1546.55 429.63 1517.76 427.517 1486.83 C 426.02 1463.41 427.083 1428.05 427.11 1403.86 L 427.247 1247.4 L 427.138 1136.97 C 427.106 1117.38 426.202 1081.62 429.315 1063.21 C 433.259 1039.86 443.696 1018.11 459.431 1000.42 C 484.856 971.71 517.35 957.762 555.212 955.424 z" fill="rgb(152,101,7)" transform="translate(0,0)"></path>
<path d="M 572.736 1050.46 C 603.805 1049.45 639.234 1050.25 670.54 1050.34 L 836.075 1050.38 L 942.072 1050.15 C 962.574 1050.1 984.258 1049.35 1004.42 1051.28 C 1024.21 1053.18 1043.99 1075.25 1045.38 1094.81 C 1046.89 1115.99 1046.34 1138.1 1046.34 1159.36 L 1046.44 1273.19 L 1046.37 1393.64 C 1046.33 1414.3 1046.83 1435.1 1045.56 1455.7 C 1043.86 1483.29 1022.39 1500.76 996.031 1502.88 C 900.69 1503.99 803.334 1502.97 707.863 1502.98 L 616.071 1503.07 C 598.378 1503.08 579.847 1503.61 562.281 1502.03 C 541.316 1500.14 519.686 1477.87 519.132 1456.67 C 518.521 1433.3 518.84 1409.34 518.874 1385.78 L 518.978 1250.82 L 518.801 1150.12 C 518.767 1131.84 517.28 1107.5 520.416 1089.93 C 524.895 1064.84 549.523 1051.77 572.736 1050.46 z" fill="rgb(249,230,193)" transform="translate(0,0)"></path>
<path d="M 559.922 1339.18 C 560.381 1322.12 559.373 1302.24 559.208 1284.87 L 559.03 1186.71 C 559.104 1156.86 562.945 1138.86 584.371 1116.84 C 614.708 1085.65 661.749 1091.29 702.093 1091.16 L 844.828 1092.08 L 845.831 1094.73 C 751.658 1113.81 664.062 1136.23 604.734 1221.59 C 584.728 1250.37 565.913 1303.5 562.957 1339.63 L 559.922 1339.18 z" fill="rgb(247,202,115)" transform="translate(0,0)"></path>
<path d="M 559.922 1339.18 L 562.957 1339.63 C 562.545 1344.43 561.829 1349.2 561.689 1354.02 C 561.673 1354.57 561.832 1357.22 560.847 1357.2 C 560.348 1356.68 560.302 1355.76 560.266 1355.05 C 559.95 1349.77 559.835 1344.48 559.922 1339.18 z" fill="rgb(247,202,115)" transform="translate(0,0)"></path>
<path d="M 844.828 1092.08 C 852.585 1091.84 855.759 1092.13 863.206 1093.03 C 857.481 1093.62 851.558 1094.23 845.831 1094.73 L 844.828 1092.08 z" fill="rgb(247,202,115)" transform="translate(0,0)"></path>
<metadata><recraft-signature>{"signed_by": "recraft", "signature_b64": "TIpFMxIVX5tnm9GIKMzNXJootAJljQknzsLPfu6qV1lh1BXL5Dxp7I5UlJ/dAgWsakSpscOQNwZWIbL8Rpl3Ag==", "signing_algo": "Ed25519", "generation_timestamp": 1781914882, "identifier": "230a45dd-ee63-4b49-ad42-eb9d8503b2e5"}</recraft-signature></metadata></svg>