<svg xmlns="http://www.w3.org/2000/svg" height="1024" preserveAspectRatio="none" style="display: block;" version="1.1" viewBox="0 0 2048 2048" width="1024">
<defs>
	<linearGradient gradientUnits="userSpaceOnUse" id="Gradient1" x1="1328.91" x2="1540.92" y1="1707.96" y2="1566.12">
		<stop class="stop0" offset="0" stop-color="rgb(196,140,29)" stop-opacity="1"></stop>
		<stop class="stop1" offset="1" stop-color="rgb(226,190,120)" stop-opacity="1"></stop>
	</linearGradient>
</defs>
<path d="M 778.349 416.676 C 781.173 402.997 783.525 390.834 787.862 377.512 C 805.276 323.866 840.281 277.665 887.214 246.384 C 1003.27 169.942 1162.38 202.375 1236.37 319.698 C 1257.44 353.099 1265.68 378.754 1272.99 416.655 C 1289.54 416.997 1306.09 417.105 1322.64 416.979 C 1334.43 416.963 1353.53 416.199 1364.48 419.033 C 1373.27 421.259 1381.26 425.907 1387.53 432.448 C 1409.84 455.518 1400.1 476.658 1382.58 497.448 C 1403.08 508.956 1433.84 520.67 1452.26 535.341 C 1458.78 539.398 1465.97 542.567 1471.82 547.129 C 1493.14 563.659 1514.23 580 1533.67 598.732 C 1537.05 601.99 1540.62 605.236 1544.24 608.235 C 1553.86 618.184 1563.51 627.996 1572.7 638.348 C 1590.6 660.602 1617.28 691.083 1631.29 714.943 C 1653.66 751.464 1670.2 776.111 1687.86 816.944 C 1764.13 995.316 1771.79 1186.42 1699.3 1367.35 C 1665.27 1454.05 1613.25 1532.56 1546.66 1597.69 C 1567.48 1604.97 1585.5 1625.06 1594.64 1644.65 C 1602.03 1660.5 1603.37 1672.72 1603.19 1689.79 C 1600.38 1715.19 1589.54 1739.31 1569.41 1755.48 C 1540.64 1778.59 1511.46 1777.3 1476.77 1776.71 C 1460.04 1776.42 1442.91 1776.8 1426.08 1776.32 C 1380.72 1777.23 1332.4 1776.26 1286.81 1776.24 C 1245.5 1777.41 1204.08 1776.6 1162.79 1776.86 C 1145.59 1776.97 1123.89 1776.1 1107.01 1776.94 C 1054.49 1777.05 991.068 1778.54 939.169 1776.63 C 882.254 1778.2 818.142 1776.87 761.276 1776.28 C 715.893 1775.44 669.673 1777.3 624.533 1776.23 C 608.354 1776.61 592.172 1776.85 575.988 1776.94 C 563.062 1777.04 549.653 1777.47 536.782 1776.33 C 487.61 1771.96 454.354 1739.64 447.88 1691.2 C 446.575 1647.72 465.85 1615.14 505.754 1596.88 C 492.935 1585.99 480.393 1571.97 469.199 1559.34 C 415.677 1498.92 377.984 1434.17 348.763 1359.18 C 340.734 1340.73 332.267 1311.08 326.85 1291.59 C 296.947 1184.02 292.807 1051.11 322.189 942.558 C 324.02 937.021 325.563 930.583 326.937 924.897 C 336.935 883.527 351.953 845.892 369.491 807.308 C 385.668 771.22 401.191 748.164 420.528 714.742 C 414.829 710.592 409.589 705.844 404.899 700.579 C 381.518 674.44 371.597 641.63 373.334 606.985 C 378.082 573.21 388.559 544.235 415.078 521.563 C 473.591 471.536 551.541 480.737 600.72 536.839 C 621.505 521.607 646.169 509.836 668.743 497.448 C 662.958 490.605 657.461 484.607 653.831 476.291 C 646.116 458.612 654.029 438.668 668.804 427.338 C 675.024 422.593 682.27 419.374 689.961 417.939 C 699.418 416.127 710.794 416.934 720.448 416.769 C 739.334 416.448 759.656 417.606 778.349 416.676 z M 1097.91 1600.28 L 1099.43 1600.2 C 1104.97 1599.96 1110.44 1599.4 1116.06 1599.38 C 1116.88 1599.38 1118.59 1598.34 1117.72 1597.26 C 1116.2 1595.37 1110.24 1596.6 1109.38 1595.69 C 1110.74 1595.16 1112.06 1594.92 1113.56 1594.59 L 1114.6 1594.29 C 1111.1 1594.23 1107.5 1594.28 1104.02 1594.14 C 1097.61 1594.83 1091.42 1593 1097.91 1600.28 z" fill="rgb(214,171,85)" transform="translate(0,0)"></path>
<path d="M 348.763 1359.18 C 360.101 1360.92 381.658 1367.03 394.017 1369.75 C 420.344 1375.5 446.856 1380.36 473.509 1384.34 C 670.125 1414.21 873.665 1412.79 1063.54 1348.45 C 1191.98 1305.85 1311.57 1240.18 1416.45 1154.69 C 1452.82 1124.46 1477.06 1100.53 1509.5 1066.98 C 1581.42 993.268 1641.58 908.938 1687.86 816.944 C 1764.13 995.316 1771.79 1186.42 1699.3 1367.35 C 1665.27 1454.05 1613.25 1532.56 1546.66 1597.69 C 1567.48 1604.97 1585.5 1625.06 1594.64 1644.65 C 1602.03 1660.5 1603.37 1672.72 1603.19 1689.79 C 1600.38 1715.19 1589.54 1739.31 1569.41 1755.48 C 1540.64 1778.59 1511.46 1777.3 1476.77 1776.71 C 1460.04 1776.42 1442.91 1776.8 1426.08 1776.32 C 1380.72 1777.23 1332.4 1776.26 1286.81 1776.24 C 1245.5 1777.41 1204.08 1776.6 1162.79 1776.86 C 1145.59 1776.97 1123.89 1776.1 1107.01 1776.94 C 1054.49 1777.05 991.068 1778.54 939.169 1776.63 C 882.254 1778.2 818.142 1776.87 761.276 1776.28 C 715.893 1775.44 669.673 1777.3 624.533 1776.23 C 608.354 1776.61 592.172 1776.85 575.988 1776.94 C 563.062 1777.04 549.653 1777.47 536.782 1776.33 C 487.61 1771.96 454.354 1739.64 447.88 1691.2 C 446.575 1647.72 465.85 1615.14 505.754 1596.88 C 492.935 1585.99 480.393 1571.97 469.199 1559.34 C 415.677 1498.92 377.984 1434.17 348.763 1359.18 z M 1097.91 1600.28 L 1099.43 1600.2 C 1104.97 1599.96 1110.44 1599.4 1116.06 1599.38 C 1116.88 1599.38 1118.59 1598.34 1117.72 1597.26 C 1116.2 1595.37 1110.24 1596.6 1109.38 1595.69 C 1110.74 1595.16 1112.06 1594.92 1113.56 1594.59 L 1114.6 1594.29 C 1111.1 1594.23 1107.5 1594.28 1104.02 1594.14 C 1097.61 1594.83 1091.42 1593 1097.91 1600.28 z" fill="rgb(177,115,6)" transform="translate(0,0)"></path>
<path d="M 1104.02 1594.14 C 1107.5 1594.28 1111.1 1594.23 1114.6 1594.29 L 1113.56 1594.59 C 1112.06 1594.92 1110.74 1595.16 1109.38 1595.69 C 1110.24 1596.6 1116.2 1595.37 1117.72 1597.26 C 1118.59 1598.34 1116.88 1599.38 1116.06 1599.38 C 1110.44 1599.4 1104.97 1599.96 1099.43 1600.2 L 1097.91 1600.28 C 1091.42 1593 1097.61 1594.83 1104.02 1594.14 z" fill="rgb(238,221,194)" fill-opacity="0.945098" transform="translate(0,0)"></path>
<path d="M 1241.72 1595.2 C 1252.53 1593.73 1271.84 1594.12 1283.17 1594.1 L 1351.2 1594.08 L 1459.42 1594.06 C 1483.22 1594.03 1524.78 1592.29 1546.66 1597.69 C 1567.48 1604.97 1585.5 1625.06 1594.64 1644.65 C 1602.03 1660.5 1603.37 1672.72 1603.19 1689.79 C 1600.38 1715.19 1589.54 1739.31 1569.41 1755.48 C 1540.64 1778.59 1511.46 1777.3 1476.77 1776.71 C 1460.04 1776.42 1442.91 1776.8 1426.08 1776.32 C 1380.72 1777.23 1332.4 1776.26 1286.81 1776.24 C 1245.5 1777.41 1204.08 1776.6 1162.79 1776.86 C 1145.59 1776.97 1123.89 1776.1 1107.01 1776.94 C 1116.86 1758.45 1124.7 1724.97 1125.12 1704.1 C 1125.7 1700.95 1125.76 1694.38 1125.89 1690.94 C 1123.23 1655.58 1115.65 1630.73 1097.91 1600.28 L 1099.43 1600.2 C 1104.97 1599.96 1110.44 1599.4 1116.06 1599.38 C 1116.88 1599.38 1118.59 1598.34 1117.72 1597.26 C 1116.2 1595.37 1110.24 1596.6 1109.38 1595.69 C 1110.74 1595.16 1112.06 1594.92 1113.56 1594.59 L 1114.6 1594.29 L 1192.29 1594.06 C 1206.99 1594.05 1227.54 1593.52 1241.72 1595.2 z" fill="url(#Gradient1)" transform="translate(0,0)"></path>
<path d="M 1114.6 1594.29 L 1192.29 1594.06 C 1206.99 1594.05 1227.54 1593.52 1241.72 1595.2 C 1267.65 1600.42 1290.45 1615.73 1305.11 1637.75 C 1315.6 1653.34 1320.54 1669.78 1322.52 1688.27 L 1323.31 1691.31 C 1321.83 1723.37 1311.89 1754.57 1286.81 1776.24 C 1245.5 1777.41 1204.08 1776.6 1162.79 1776.86 C 1145.59 1776.97 1123.89 1776.1 1107.01 1776.94 C 1116.86 1758.45 1124.7 1724.97 1125.12 1704.1 C 1125.7 1700.95 1125.76 1694.38 1125.89 1690.94 C 1123.23 1655.58 1115.65 1630.73 1097.91 1600.28 L 1099.43 1600.2 C 1104.97 1599.96 1110.44 1599.4 1116.06 1599.38 C 1116.88 1599.38 1118.59 1598.34 1117.72 1597.26 C 1116.2 1595.37 1110.24 1596.6 1109.38 1595.69 C 1110.74 1595.16 1112.06 1594.92 1113.56 1594.59 L 1114.6 1594.29 z" fill="rgb(238,221,194)" transform="translate(0,0)"></path>
<path d="M 1322.52 1688.27 L 1323.31 1691.31 C 1321.83 1723.37 1311.89 1754.57 1286.81 1776.24 C 1245.5 1777.41 1204.08 1776.6 1162.79 1776.86 C 1145.59 1776.97 1123.89 1776.1 1107.01 1776.94 C 1116.86 1758.45 1124.7 1724.97 1125.12 1704.1 C 1125.7 1700.95 1125.76 1694.38 1125.89 1690.94 L 1258.88 1690.94 C 1269.94 1690.95 1313.64 1691.64 1321.18 1690.28 L 1322.52 1688.27 z" fill="rgb(225,190,128)" transform="translate(0,0)"></path>
<path d="M 1323.31 1691.31 C 1368.61 1689.67 1422.54 1690.92 1468.54 1690.77 C 1467.56 1725.26 1461.56 1743.4 1435.35 1768.13 C 1432.33 1770.94 1429.24 1773.67 1426.08 1776.32 C 1380.72 1777.23 1332.4 1776.26 1286.81 1776.24 C 1311.89 1754.57 1321.83 1723.37 1323.31 1691.31 z" fill="rgb(177,115,6)" transform="translate(0,0)"></path>
<path d="M 1468.54 1690.77 C 1468.34 1684.49 1467.91 1680.44 1466.72 1674.24 C 1461.6 1648.2 1446.52 1625.17 1424.7 1610.06 C 1417.76 1605.35 1411.06 1602.8 1404.51 1598.39 C 1409.57 1598.89 1421.65 1605.81 1426.07 1609.06 C 1456.45 1631.4 1464.25 1653.7 1470.67 1688.37 C 1480.34 1690.31 1494.05 1688.28 1504.12 1689.18 C 1537.01 1692.09 1570.11 1690.52 1603.19 1689.79 C 1600.38 1715.19 1589.54 1739.31 1569.41 1755.48 C 1540.64 1778.59 1511.46 1777.3 1476.77 1776.71 C 1460.04 1776.42 1442.91 1776.8 1426.08 1776.32 C 1429.24 1773.67 1432.33 1770.94 1435.35 1768.13 C 1461.56 1743.4 1467.56 1725.26 1468.54 1690.77 z" fill="rgb(214,171,85)" transform="translate(0,0)"></path>
<path d="M 919.895 1594.16 C 933.753 1593.11 950.83 1593.84 964.862 1594.07 C 981.884 1594.2 998.907 1594.23 1015.93 1594.16 L 1072.35 1593.98 C 1080.85 1593.93 1096.02 1593.4 1104.02 1594.14 C 1097.61 1594.83 1091.42 1593 1097.91 1600.28 C 1115.65 1630.73 1123.23 1655.58 1125.89 1690.94 C 1125.76 1694.38 1125.7 1700.95 1125.12 1704.1 C 1124.7 1724.97 1116.86 1758.45 1107.01 1776.94 C 1054.49 1777.05 991.068 1778.54 939.169 1776.63 C 882.254 1778.2 818.142 1776.87 761.276 1776.28 C 739.746 1754.52 730.253 1730.99 726.864 1701.16 C 727.013 1697.66 726.909 1694.18 726.869 1690.68 C 731.238 1642.66 758.588 1610.33 803.93 1595.87 C 819.591 1593.89 837.7 1594.14 853.579 1594.16 C 875.684 1594.27 897.79 1594.27 919.895 1594.16 z" fill="rgb(238,221,194)" transform="translate(0,0)"></path>
<path d="M 919.895 1594.16 C 933.753 1593.11 950.83 1593.84 964.862 1594.07 C 981.884 1594.2 998.907 1594.23 1015.93 1594.16 L 1072.35 1593.98 C 1080.85 1593.93 1096.02 1593.4 1104.02 1594.14 C 1097.61 1594.83 1091.42 1593 1097.91 1600.28 C 1115.65 1630.73 1123.23 1655.58 1125.89 1690.94 C 1125.76 1694.38 1125.7 1700.95 1125.12 1704.1 C 1124.7 1724.97 1116.86 1758.45 1107.01 1776.94 C 1054.49 1777.05 991.068 1778.54 939.169 1776.63 C 941.074 1774.64 937.322 1767.94 936.231 1764.85 C 927.255 1739.36 923.804 1717.86 923.817 1691.07 L 923.877 1682.69 C 925.982 1654.52 937.424 1617.63 954.291 1594.77 C 943.097 1594.74 930.988 1594.95 919.895 1594.16 z" fill="rgb(214,171,85)" transform="translate(0,0)"></path>
<path d="M 923.817 1691.07 L 1124.74 1691.32 C 1124.84 1695.36 1124.82 1700.13 1125.12 1704.1 C 1124.7 1724.97 1116.86 1758.45 1107.01 1776.94 C 1054.49 1777.05 991.068 1778.54 939.169 1776.63 C 941.074 1774.64 937.322 1767.94 936.231 1764.85 C 927.255 1739.36 923.804 1717.86 923.817 1691.07 z" fill="rgb(177,115,6)" transform="translate(0,0)"></path>
<path d="M 923.877 1682.69 L 923.817 1691.07 C 923.804 1717.86 927.255 1739.36 936.231 1764.85 C 937.322 1767.94 941.074 1774.64 939.169 1776.63 C 882.254 1778.2 818.142 1776.87 761.276 1776.28 C 739.746 1754.52 730.253 1730.99 726.864 1701.16 C 727.013 1697.66 726.909 1694.18 726.869 1690.68 L 852.379 1690.92 C 873.581 1690.98 900.528 1691.82 921.376 1690.71 C 923.423 1688.6 923.197 1686.21 923.877 1682.69 z" fill="rgb(225,190,128)" transform="translate(0,0)"></path>
<path d="M 659.22 1593.95 C 666.955 1592.18 801.603 1594.33 803.93 1595.87 C 758.588 1610.33 731.238 1642.66 726.869 1690.68 C 726.909 1694.18 727.013 1697.66 726.864 1701.16 C 730.253 1730.99 739.746 1754.52 761.276 1776.28 C 715.893 1775.44 669.673 1777.3 624.533 1776.23 C 608.354 1776.61 592.172 1776.85 575.988 1776.94 C 563.062 1777.04 549.653 1777.47 536.782 1776.33 C 487.61 1771.96 454.354 1739.64 447.88 1691.2 C 446.575 1647.72 465.85 1615.14 505.754 1596.88 C 518.221 1591.73 636.928 1594.06 659.22 1593.95 z" fill="rgb(214,171,85)" transform="translate(0,0)"></path>
<path d="M 505.754 1596.88 C 518.221 1591.73 636.928 1594.06 659.22 1593.95 C 652.737 1597.96 642.463 1600.07 634.975 1603.99 C 610.702 1616.7 592.06 1640.75 584.661 1666.93 C 582.448 1674.7 581.128 1682.7 580.726 1690.77 L 581.018 1691.55 C 581.893 1722.92 592.193 1744.76 614.513 1767.45 C 617.427 1770.41 621.26 1773.11 624.533 1776.23 C 608.354 1776.61 592.172 1776.85 575.988 1776.94 C 563.062 1777.04 549.653 1777.47 536.782 1776.33 C 487.61 1771.96 454.354 1739.64 447.88 1691.2 C 446.575 1647.72 465.85 1615.14 505.754 1596.88 z" fill="rgb(225,190,128)" transform="translate(0,0)"></path>
<path d="M 580.726 1690.77 L 581.018 1691.55 C 581.893 1722.92 592.193 1744.76 614.513 1767.45 C 617.427 1770.41 621.26 1773.11 624.533 1776.23 C 608.354 1776.61 592.172 1776.85 575.988 1776.94 C 563.062 1777.04 549.653 1777.47 536.782 1776.33 C 487.61 1771.96 454.354 1739.64 447.88 1691.2 C 456.835 1689.75 477.12 1690.73 486.963 1690.57 C 517.466 1690.07 550.478 1692.04 580.726 1690.77 z" fill="rgb(214,171,85)" transform="translate(0,0)"></path>
<path d="M 581.018 1691.55 C 614.342 1691.16 647.669 1691.02 680.996 1691.15 C 686.938 1691.14 721.466 1690.64 725.442 1691.9 C 725.976 1694.97 726.45 1698.06 726.864 1701.16 C 730.253 1730.99 739.746 1754.52 761.276 1776.28 C 715.893 1775.44 669.673 1777.3 624.533 1776.23 C 621.26 1773.11 617.427 1770.41 614.513 1767.45 C 592.193 1744.76 581.893 1722.92 581.018 1691.55 z" fill="rgb(177,115,6)" transform="translate(0,0)"></path>
<path d="M 778.349 416.676 C 781.173 402.997 783.525 390.834 787.862 377.512 C 805.276 323.866 840.281 277.665 887.214 246.384 C 1003.27 169.942 1162.38 202.375 1236.37 319.698 C 1257.44 353.099 1265.68 378.754 1272.99 416.655 C 1289.54 416.997 1306.09 417.105 1322.64 416.979 C 1334.43 416.963 1353.53 416.199 1364.48 419.033 C 1373.27 421.259 1381.26 425.907 1387.53 432.448 C 1409.84 455.518 1400.1 476.658 1382.58 497.448 C 1403.08 508.956 1433.84 520.67 1452.26 535.341 C 1458.78 539.398 1465.97 542.567 1471.82 547.129 C 1451.54 573.676 1412.85 611.8 1388.48 634.499 C 1252.4 761.265 1085.23 842.835 900.445 867.435 C 753.967 885.464 605.385 874.996 462.883 836.606 C 437.804 829.962 394.174 817.146 369.491 807.308 C 385.668 771.22 401.191 748.164 420.528 714.742 C 414.829 710.592 409.589 705.844 404.899 700.579 C 381.518 674.44 371.597 641.63 373.334 606.985 C 378.082 573.21 388.559 544.235 415.078 521.563 C 473.591 471.536 551.541 480.737 600.72 536.839 C 621.505 521.607 646.169 509.836 668.743 497.448 C 662.958 490.605 657.461 484.607 653.831 476.291 C 646.116 458.612 654.029 438.668 668.804 427.338 C 675.024 422.593 682.27 419.374 689.961 417.939 C 699.418 416.127 710.794 416.934 720.448 416.769 C 739.334 416.448 759.656 417.606 778.349 416.676 z" fill="rgb(214,171,85)" transform="translate(0,0)"></path>
<path d="M 778.349 416.676 C 781.173 402.997 783.525 390.834 787.862 377.512 C 805.276 323.866 840.281 277.665 887.214 246.384 C 1003.27 169.942 1162.38 202.375 1236.37 319.698 C 1257.44 353.099 1265.68 378.754 1272.99 416.655 C 1289.54 416.997 1306.09 417.105 1322.64 416.979 C 1334.43 416.963 1353.53 416.199 1364.48 419.033 C 1373.27 421.259 1381.26 425.907 1387.53 432.448 C 1409.84 455.518 1400.1 476.658 1382.58 497.448 L 1382.1 497.769 C 1376.22 496.558 1323.62 497.225 1314.06 497.256 L 1166.78 497.098 L 830.892 497.346 L 730.179 497.294 C 712.655 497.228 686.218 496.421 669.367 497.841 L 668.743 497.448 C 662.958 490.605 657.461 484.607 653.831 476.291 C 646.116 458.612 654.029 438.668 668.804 427.338 C 675.024 422.593 682.27 419.374 689.961 417.939 C 699.418 416.127 710.794 416.934 720.448 416.769 C 739.334 416.448 759.656 417.606 778.349 416.676 z" fill="rgb(225,190,128)" transform="translate(0,0)"></path>
<path d="M 1008.87 295.395 C 1043.41 290.175 1086.15 302.754 1115.12 321.652 C 1150.3 345.109 1174.76 381.56 1183.12 423.016 L 1044.25 423.284 L 866.51 423.295 C 883.095 353.203 936.748 303.255 1008.87 295.395 z" fill="rgb(177,115,6)" transform="translate(0,0)"></path>
<path d="M 669.367 497.841 C 686.218 496.421 712.655 497.228 730.179 497.294 L 830.892 497.346 L 1166.78 497.098 L 1314.06 497.256 C 1323.62 497.225 1376.22 496.558 1382.1 497.769 C 1379.95 503.397 1377.39 508.86 1374.45 514.117 C 1361.33 538.026 1340.94 554.718 1314.67 562.176 C 1295.62 567.586 1271.46 566.212 1251.43 566.213 L 1189.15 566.188 L 997.863 566.048 L 837.598 566.304 C 809.731 566.309 781.508 566.659 753.699 565.572 C 716.798 564.128 679.395 533.05 669.367 497.841 z" fill="rgb(177,115,6)" transform="translate(0,0)"></path>
<path d="M 373.334 606.985 C 378.082 573.21 388.559 544.235 415.078 521.563 C 473.591 471.536 551.541 480.737 600.72 536.839 C 591.672 544.222 580.902 551.307 571.429 558.472 C 557.897 568.821 544.756 579.67 532.031 590.997 C 528.01 594.522 515.594 606.806 511.193 607.261 C 466.179 606.389 418.544 607.054 373.334 606.985 z" fill="rgb(225,190,128)" transform="translate(0,0)"></path>
<path d="M 420.528 714.742 C 414.829 710.592 409.589 705.844 404.899 700.579 C 381.518 674.44 371.597 641.63 373.334 606.985 C 418.544 607.054 466.179 606.389 511.193 607.261 C 499.732 620.352 486.644 632.195 475.233 645.073 C 456.27 666.475 436.821 691.241 420.528 714.742 z" fill="rgb(177,115,6)" transform="translate(0,0)"></path>
<path d="M 1471.82 547.129 C 1493.14 563.659 1514.23 580 1533.67 598.732 C 1537.05 601.99 1540.62 605.236 1544.24 608.235 C 1553.86 618.184 1563.51 627.996 1572.7 638.348 C 1557.23 661.842 1513.83 703.394 1492.18 724.086 C 1352.96 857.148 1177.05 954.13 987.649 992.689 C 827.073 1025.38 646.488 1020.12 486.642 984.993 C 454.266 977.879 423.862 970.929 391.972 962.246 C 378.742 958.645 332.003 943.457 322.189 942.558 C 324.02 937.021 325.563 930.583 326.937 924.897 C 336.935 883.527 351.953 845.892 369.491 807.308 C 394.174 817.146 437.804 829.962 462.883 836.606 C 605.385 874.996 753.967 885.464 900.445 867.435 C 1085.23 842.835 1252.4 761.265 1388.48 634.499 C 1412.85 611.8 1451.54 573.676 1471.82 547.129 z" fill="rgb(238,221,194)" transform="translate(0,0)"></path>
<path d="M 1452.26 535.341 C 1480.61 505.917 1508.06 490.134 1549.64 489.467 C 1620.83 488.324 1669.93 538.664 1678.53 606.943 C 1682.25 648.537 1664.14 689.436 1631.29 714.943 C 1617.28 691.083 1590.6 660.602 1572.7 638.348 C 1563.51 627.996 1553.86 618.184 1544.24 608.235 C 1540.62 605.236 1537.05 601.99 1533.67 598.732 C 1514.23 580 1493.14 563.659 1471.82 547.129 C 1465.97 542.567 1458.78 539.398 1452.26 535.341 z" fill="rgb(225,190,128)" transform="translate(0,0)"></path>
<path d="M 1678.53 606.943 C 1682.25 648.537 1664.14 689.436 1631.29 714.943 C 1617.28 691.083 1590.6 660.602 1572.7 638.348 C 1563.51 627.996 1553.86 618.184 1544.24 608.235 C 1548.2 606.288 1664.53 606.967 1678.53 606.943 z" fill="rgb(177,115,6)" transform="translate(0,0)"></path>
<metadata><recraft-signature>{"signed_by": "recraft", "signature_b64": "ywrYkaZ4C0+3FbjqMiXAQbR/a2NJykC0Vwfvs0fO+1u1Rgx+3p1XD74/8eZZRbxrR5ZlUvXuLqNqzagggakCAA==", "signing_algo": "Ed25519", "generation_timestamp": 1781914879, "identifier": "e01ca7a9-94ab-4292-8c54-1d028413085c"}</recraft-signature></metadata></svg>