<svg xmlns="http://www.w3.org/2000/svg" height="1024" preserveAspectRatio="none" style="display: block;" version="1.1" viewBox="0 0 2048 2048" width="1024">
<path d="M 389.59 616.382 C 455.206 578.082 523.464 534.066 588.11 493.688 L 822.691 348.712 L 928.073 283.3 C 954.56 266.797 977.652 248.144 1009.41 243.369 C 1057.19 236.189 1090.74 264.871 1129.47 288.414 C 1156.05 304.328 1182.51 320.456 1208.84 336.796 L 1519.39 527.365 C 1544.53 542.599 1569.4 557.745 1594.65 572.831 C 1618.86 587.298 1642.8 603.857 1668.31 616.229 C 1677.33 618.188 1685.83 617.49 1694.62 619.247 C 1741.03 628.519 1771.81 671.995 1762.68 718.423 C 1758.28 740.151 1745.43 759.244 1726.97 771.511 C 1718.44 777.113 1708.91 781.022 1698.91 783.026 C 1685.56 785.768 1672.35 785.081 1658.84 785.16 C 1637.49 785.285 1615.87 784.433 1594.59 786.28 C 1600.48 789.892 1606.3 793.195 1611.55 797.684 C 1653.03 832.722 1634.22 892.595 1584.12 907.096 C 1565.24 910.094 1528.54 909.326 1508.04 909.161 C 1478.16 908.919 1444.54 909.903 1415.03 908.664 L 1406.86 907.624 C 1388.98 902.632 1373.25 890.589 1364.88 873.869 C 1357.51 858.774 1356.46 841.366 1361.96 825.495 C 1368.91 805.441 1382.81 794.993 1401.12 786.211 C 1384.75 784.756 1359.22 785.292 1342.04 785.257 C 1321.43 785.216 1293.61 784.23 1273.74 786.134 C 1282.79 790.445 1287.43 791.567 1295.64 797.531 C 1337.13 835.274 1321.14 887.565 1271.53 907.287 C 1228.14 912.41 1181.24 907.857 1137.29 909.089 C 1125.47 909.42 1110.09 909.475 1098.56 908.389 L 1096.1 908.046 C 1094.33 907.378 1092.57 906.679 1090.83 905.947 C 1055.78 891.165 1037.47 858.91 1052.43 820.77 C 1059.25 803.39 1078.41 792.454 1095.37 786.034 C 1072.13 785.342 1047.81 785.424 1024.52 785.322 C 1012.57 785.269 980.28 784.24 969.844 786.968 C 973.758 789.261 977.082 791.264 980.837 793.803 C 995.367 806.735 1005.87 821.353 1006.93 841.63 C 1007.92 860.462 1001.62 874.489 989.864 888.499 C 979.255 901.141 962.527 904.249 958.645 907.976 L 957.684 907.342 C 943.399 909.761 911.291 909.196 895.063 909.238 C 861.713 909.322 826.988 909.955 793.748 909.017 C 789.849 909.131 785.9 908.25 782.032 907.586 C 763.123 901.318 746.759 889.384 738.359 870.87 C 731.849 856.383 731.385 839.897 737.071 825.067 C 745.031 804.033 757.333 795.198 776.906 786.371 C 768.558 785.796 758.845 785.159 750.544 785.425 C 718.055 786.462 681.767 783.01 649.689 786.07 C 654.509 788.514 662.61 792.056 666.818 794.799 C 695.05 818.347 702.7 855.391 679.111 885.488 C 672.354 894.109 655.753 905.784 645.116 908.316 C 613.98 911.095 571.021 908.446 539.058 909.249 C 528.169 909.522 479.973 909.56 470.991 908.148 L 469.462 908.166 C 463.387 905.427 457.54 902.789 451.702 899.513 C 416.094 879.537 406.605 830.541 438.322 801.954 C 447.149 793.998 455.398 790.539 466.257 785.834 C 443.612 786.029 420.467 784.827 397.705 785.284 C 383.752 785.565 366.215 785.802 352.811 782.895 C 341.385 780.312 330.616 775.398 321.176 768.462 C 303.219 755.547 291.335 735.842 288.288 713.934 C 285.134 691.672 291 669.072 304.584 651.155 C 317.85 633.54 339.017 621.541 360.806 618.776 C 370.001 617.609 378.687 617.956 388.245 616.586 L 389.59 616.382 z" fill="rgb(254,178,56)" transform="translate(0,0)"></path>
<path d="M 389.59 616.382 C 455.206 578.082 523.464 534.066 588.11 493.688 L 822.691 348.712 L 928.073 283.3 C 954.56 266.797 977.652 248.144 1009.41 243.369 C 1057.19 236.189 1090.74 264.871 1129.47 288.414 C 1156.05 304.328 1182.51 320.456 1208.84 336.796 L 1519.39 527.365 C 1544.53 542.599 1569.4 557.745 1594.65 572.831 C 1618.86 587.298 1642.8 603.857 1668.31 616.229 C 1654.3 618.307 1610.09 617.337 1594.11 617.308 L 1452.54 617.221 L 945.869 617.255 L 556.78 617.327 L 445.361 617.385 C 432.507 617.388 400.903 618.153 389.59 616.382 z" fill="rgb(195,126,5)" transform="translate(0,0)"></path>
<path d="M 984.462 313.184 C 997.785 312.494 1009.15 316.326 1013.83 330.385 C 1018 342.909 1011.24 353.67 1000.72 360.4 C 987.015 369.16 972.997 377.841 959.08 386.494 L 860.019 447.533 L 723.049 532.87 C 710.007 540.895 677.738 563.459 664.628 567.01 C 644.895 567.787 630.057 550.62 637.443 531.046 C 639.722 525.007 647.639 519.478 653.188 515.972 C 671.922 504.136 691.013 492.762 709.868 481.053 L 846.504 396.485 L 936.095 340.473 C 948.698 332.728 971.135 317.891 984.462 313.184 z" fill="rgb(215,172,111)" transform="translate(0,0)"></path>
<path d="M 1401.12 786.211 C 1405.13 786.661 1424.99 785.045 1430.97 785.02 L 1532.22 784.854 C 1546.46 784.858 1580.67 784.175 1593.49 786.915 L 1594.59 786.28 C 1600.48 789.892 1606.3 793.195 1611.55 797.684 C 1653.03 832.722 1634.22 892.595 1584.12 907.096 C 1565.24 910.094 1528.54 909.326 1508.04 909.161 C 1478.16 908.919 1444.54 909.903 1415.03 908.664 L 1406.86 907.624 C 1388.98 902.632 1373.25 890.589 1364.88 873.869 C 1357.51 858.774 1356.46 841.366 1361.96 825.495 C 1368.91 805.441 1382.81 794.993 1401.12 786.211 z" fill="rgb(195,126,5)" transform="translate(0,0)"></path>
<path d="M 1611.55 797.684 C 1653.03 832.722 1634.22 892.595 1584.12 907.096 C 1565.24 910.094 1528.54 909.326 1508.04 909.161 C 1478.16 908.919 1444.54 909.903 1415.03 908.664 C 1428.27 890.956 1465.04 891.954 1484.13 891.887 C 1508.15 891.803 1535.5 894.193 1558.09 885.807 C 1582.82 876.629 1598.16 848.819 1604.7 824.722 C 1607.04 816.299 1607.85 805.416 1611.55 797.684 z" fill="rgb(181,125,64)" transform="translate(0,0)"></path>
<path d="M 776.906 786.371 C 775.875 786.038 813.296 785.091 816.758 785.081 L 869.242 784.982 L 928.45 784.936 C 942.688 784.942 954.916 783.282 968.671 787.743 L 969.844 786.968 C 973.758 789.261 977.082 791.264 980.837 793.803 C 995.367 806.735 1005.87 821.353 1006.93 841.63 C 1007.92 860.462 1001.62 874.489 989.864 888.499 C 979.255 901.141 962.527 904.249 958.645 907.976 L 957.684 907.342 C 943.399 909.761 911.291 909.196 895.063 909.238 C 861.713 909.322 826.988 909.955 793.748 909.017 C 789.849 909.131 785.9 908.25 782.032 907.586 C 763.123 901.318 746.759 889.384 738.359 870.87 C 731.849 856.383 731.385 839.897 737.071 825.067 C 745.031 804.033 757.333 795.198 776.906 786.371 z" fill="rgb(195,126,5)" transform="translate(0,0)"></path>
<path d="M 980.837 793.803 C 995.367 806.735 1005.87 821.353 1006.93 841.63 C 1007.92 860.462 1001.62 874.489 989.864 888.499 C 979.255 901.141 962.527 904.249 958.645 907.976 L 957.684 907.342 C 943.399 909.761 911.291 909.196 895.063 909.238 C 861.713 909.322 826.988 909.955 793.748 909.017 C 829.848 874.111 904.627 910.342 945.469 878.296 C 975.554 854.69 975.137 828.791 980.501 795.752 L 980.837 793.803 z" fill="rgb(181,125,64)" transform="translate(0,0)"></path>
<path d="M 466.257 785.834 C 478.599 784.748 497.95 785.405 510.706 785.456 L 585.175 785.612 C 597.075 785.631 640.115 784.047 649.689 786.07 C 654.509 788.514 662.61 792.056 666.818 794.799 C 695.05 818.347 702.7 855.391 679.111 885.488 C 672.354 894.109 655.753 905.784 645.116 908.316 C 613.98 911.095 571.021 908.446 539.058 909.249 C 528.169 909.522 479.973 909.56 470.991 908.148 L 469.462 908.166 C 463.387 905.427 457.54 902.789 451.702 899.513 C 416.094 879.537 406.605 830.541 438.322 801.954 C 447.149 793.998 455.398 790.539 466.257 785.834 z" fill="rgb(230,198,152)" transform="translate(0,0)"></path>
<path d="M 666.818 794.799 C 695.05 818.347 702.7 855.391 679.111 885.488 C 672.354 894.109 655.753 905.784 645.116 908.316 C 613.98 911.095 571.021 908.446 539.058 909.249 C 528.169 909.522 479.973 909.56 470.991 908.148 C 480.694 908.794 493.392 897.504 506.694 895.461 C 546.686 889.32 599.147 904.202 632.504 878.355 C 649.653 865.067 660.831 843.789 664.165 822.33 C 665.543 813.459 665.432 804.579 666.682 795.718 L 666.818 794.799 z" fill="rgb(215,172,111)" transform="translate(0,0)"></path>
<path d="M 1095.37 786.034 C 1106.1 784.99 1122.59 785.497 1133.84 785.511 L 1197.41 785.597 L 1245.54 785.666 C 1253.06 785.669 1266.74 785.201 1273.74 786.134 C 1282.79 790.445 1287.43 791.567 1295.64 797.531 C 1337.13 835.274 1321.14 887.565 1271.53 907.287 C 1228.14 912.41 1181.24 907.857 1137.29 909.089 C 1125.47 909.42 1110.09 909.475 1098.56 908.389 L 1096.1 908.046 C 1094.33 907.378 1092.57 906.679 1090.83 905.947 C 1055.78 891.165 1037.47 858.91 1052.43 820.77 C 1059.25 803.39 1078.41 792.454 1095.37 786.034 z" fill="rgb(230,198,152)" transform="translate(0,0)"></path>
<path d="M 1295.64 797.531 C 1337.13 835.274 1321.14 887.565 1271.53 907.287 C 1228.14 912.41 1181.24 907.857 1137.29 909.089 C 1125.47 909.42 1110.09 909.475 1098.56 908.389 C 1100.46 908.252 1101.51 908.192 1103.15 907.089 C 1147.29 877.3 1218.75 910.344 1259.52 879.186 C 1285.63 859.23 1291.59 827.656 1295.64 797.531 z" fill="rgb(215,172,111)" transform="translate(0,0)"></path>
<path d="M 409.203 667.313 C 455.706 666.311 502.604 667.273 549.139 667.073 C 557.361 667.038 567.281 668.384 573.826 673.672 C 578.532 677.457 581.489 682.998 582.013 689.014 C 583.51 705.277 571.819 715.984 556.25 717.063 L 457.464 717.007 C 439.221 717.062 421.569 717.268 402.908 716.821 C 383.611 716.359 374.739 694.398 384.206 679.058 C 388.978 671.324 400.47 668.415 409.203 667.313 z" fill="rgb(230,198,152)" transform="translate(0,0)"></path>
<path d="M 1272.17 1327.89 C 1277.81 1328.61 1280.62 1329.97 1285.81 1332.03 C 1321.18 1351.63 1331.97 1391.66 1301.56 1422.8 C 1297.49 1426.96 1289.64 1430.04 1286.4 1434.8 C 1306.7 1435.75 1328.82 1435.31 1349.35 1435.46 C 1362.23 1435.55 1384.13 1436.11 1396.31 1434.71 C 1377.22 1425.06 1364.46 1412.74 1361.57 1390.12 C 1358.39 1365.2 1370.48 1344.14 1393.05 1333.44 C 1397.63 1331.52 1402.19 1330.44 1406.98 1329.13 C 1425.91 1327.49 1453.39 1328.28 1472.96 1328.29 C 1510.05 1328.14 1547.15 1328.29 1584.24 1328.76 L 1594.69 1331.75 C 1641.1 1354.05 1639.74 1412.32 1591.62 1434.39 C 1600.3 1436.69 1613.64 1435.79 1622.92 1435.95 C 1645.17 1436.33 1663.98 1448.5 1675.71 1466.98 C 1692.22 1493.28 1684.39 1536.86 1686.48 1568.21 L 1687.09 1569.85 C 1697.84 1572.27 1704.22 1572.8 1714.92 1577.06 C 1750.48 1591.22 1771.03 1628.33 1762.55 1666.13 C 1758.06 1685.92 1745.82 1703.08 1728.58 1713.78 C 1715.32 1722.09 1702.99 1725.56 1687.41 1725.77 C 1650.81 1726.27 1613.89 1726.04 1577.28 1726.04 L 1372.71 1726.26 L 727.054 1726.37 L 455.589 1726.33 L 390.848 1726.06 C 375.58 1725.98 357.76 1727.17 343.044 1723.67 C 275.546 1707.61 261.493 1618.79 320.826 1582.93 C 334.681 1574.56 351.77 1570.04 367.926 1570.59 C 369.237 1545.09 366.333 1519.14 369.189 1493.37 C 372.477 1463.7 395.088 1439.74 425.09 1436.55 C 436.13 1435.38 446.688 1436.44 457.939 1434.67 C 454.033 1432.3 449.875 1429.98 446.151 1427.36 C 419.021 1408.33 415.218 1367.38 439.25 1344.29 C 445.306 1338.48 448.645 1336.47 455.923 1332.7 C 461.058 1330.73 463.343 1329.73 468.899 1328.83 L 583.419 1328.94 C 602.81 1328.97 626.231 1328.37 645.132 1329.29 C 651.058 1330.51 655.616 1331.27 661.283 1333.57 C 669.371 1338.3 674.769 1342.27 680.977 1349.5 C 696.073 1367.06 696.683 1392.13 685.064 1411.61 C 679.127 1421.56 669.282 1427.93 659.861 1434.44 C 671.116 1436.28 756.593 1436.2 765.961 1433.3 C 756.762 1428.5 746.958 1420.53 741.495 1411.69 C 733.542 1398.83 731.159 1383.29 734.895 1368.64 C 739.398 1351.42 749.959 1342.22 764.498 1333.86 C 770.283 1331.95 775.798 1329.62 781.843 1328.91 C 796.532 1328 812.269 1327.99 827.043 1328.25 C 870.779 1329.02 915.346 1327.22 958.99 1328.62 C 964.254 1329.88 966.117 1330.43 971.076 1332.56 C 1001.17 1349.33 1012.23 1380.33 994.43 1411.38 C 987.569 1423.35 978.582 1427.8 967.178 1434.13 C 977.832 1436.67 1070.38 1436.82 1080.38 1433.61 C 1068.39 1425.12 1059.07 1419.35 1052.99 1405.22 C 1047.12 1391.22 1047.03 1375.47 1052.74 1361.41 C 1058.41 1347.75 1067.23 1338.7 1080.86 1333.09 C 1085.96 1331.08 1090.98 1329.98 1096.29 1328.64 L 1210.32 1328.56 C 1227.21 1328.51 1256.14 1329.28 1272.17 1327.89 z" fill="rgb(230,198,152)" transform="translate(0,0)"></path>
<path d="M 1686.48 1568.21 L 1687.09 1569.85 C 1697.84 1572.27 1704.22 1572.8 1714.92 1577.06 C 1750.48 1591.22 1771.03 1628.33 1762.55 1666.13 C 1758.06 1685.92 1745.82 1703.08 1728.58 1713.78 C 1715.32 1722.09 1702.99 1725.56 1687.41 1725.77 C 1650.81 1726.27 1613.89 1726.04 1577.28 1726.04 L 1372.71 1726.26 L 727.054 1726.37 L 455.589 1726.33 L 390.848 1726.06 C 375.58 1725.98 357.76 1727.17 343.044 1723.67 C 275.546 1707.61 261.493 1618.79 320.826 1582.93 C 334.681 1574.56 351.77 1570.04 367.926 1570.59 C 375.401 1571.66 403.662 1571.04 413.061 1571.03 L 507.628 1570.92 L 841.418 1570.95 L 1410.92 1570.95 L 1590.99 1571.06 C 1617.98 1571.08 1660.14 1572.41 1685.84 1570.63 L 1686.48 1568.21 z" fill="rgb(181,125,64)" transform="translate(0,0)"></path>
<path d="M 403.497 1619.4 C 438.578 1618.24 481.043 1619.38 516.524 1619.41 L 726.314 1619.41 L 894 1619.15 C 923.68 1619.03 953.77 1618.9 983.427 1618.97 C 1020.2 1619.07 1020.12 1666.3 988.25 1669.13 C 948.274 1670.57 905.071 1669.94 864.844 1669.98 L 658.087 1669.89 L 492.355 1669.7 C 463.438 1669.65 434.738 1669.82 405.638 1669.33 C 391.469 1670.43 378.568 1660.52 377.775 1645.48 C 376.825 1627.46 388.477 1620.58 403.497 1619.4 z" fill="rgb(215,172,111)" transform="translate(0,0)"></path>
<path d="M 1272.17 1327.89 C 1277.81 1328.61 1280.62 1329.97 1285.81 1332.03 C 1321.18 1351.63 1331.97 1391.66 1301.56 1422.8 C 1297.49 1426.96 1289.64 1430.04 1286.4 1434.8 L 1285.7 1434.12 C 1282.41 1432.4 1280.38 1434.06 1276.76 1435.23 C 1271.16 1434.51 1253.86 1435.93 1247.05 1435.98 L 1157.14 1436.14 C 1140.45 1436.15 1096.35 1437.61 1082.9 1433.4 L 1081.57 1432.97 L 1080.38 1433.61 C 1068.39 1425.12 1059.07 1419.35 1052.99 1405.22 C 1047.12 1391.22 1047.03 1375.47 1052.74 1361.41 C 1058.41 1347.75 1067.23 1338.7 1080.86 1333.09 C 1085.96 1331.08 1090.98 1329.98 1096.29 1328.64 L 1210.32 1328.56 C 1227.21 1328.51 1256.14 1329.28 1272.17 1327.89 z" fill="rgb(215,172,111)" transform="translate(0,0)"></path>
<path d="M 1272.17 1327.89 C 1277.81 1328.61 1280.62 1329.97 1285.81 1332.03 C 1284.15 1352.6 1280.92 1369.56 1264.46 1384.01 C 1257.68 1390 1249.49 1394.18 1240.65 1396.14 C 1216.74 1401.47 1183.34 1395.95 1158.9 1397.98 C 1109.77 1402.07 1079.72 1386.87 1080.86 1333.09 C 1085.96 1331.08 1090.98 1329.98 1096.29 1328.64 L 1210.32 1328.56 C 1227.21 1328.51 1256.14 1329.28 1272.17 1327.89 z" fill="rgb(230,198,152)" transform="translate(0,0)"></path>
<path d="M 781.843 1328.91 C 796.532 1328 812.269 1327.99 827.043 1328.25 C 870.779 1329.02 915.346 1327.22 958.99 1328.62 C 964.254 1329.88 966.117 1330.43 971.076 1332.56 C 1001.17 1349.33 1012.23 1380.33 994.43 1411.38 C 987.569 1423.35 978.582 1427.8 967.178 1434.13 L 965.973 1433.61 C 951.293 1436.54 784.259 1437.46 770.681 1433.89 C 768.929 1433.43 767.821 1433.12 765.961 1433.3 C 756.762 1428.5 746.958 1420.53 741.495 1411.69 C 733.542 1398.83 731.159 1383.29 734.895 1368.64 C 739.398 1351.42 749.959 1342.22 764.498 1333.86 C 770.283 1331.95 775.798 1329.62 781.843 1328.91 z" fill="rgb(181,125,64)" transform="translate(0,0)"></path>
<path d="M 781.843 1328.91 C 796.532 1328 812.269 1327.99 827.043 1328.25 C 870.779 1329.02 915.346 1327.22 958.99 1328.62 C 964.254 1329.88 966.117 1330.43 971.076 1332.56 L 970.765 1333.59 C 964.711 1354.12 964.338 1378.21 941.194 1390.7 C 934.266 1394.36 926.719 1396.7 918.936 1397.6 C 901.896 1399.74 817.537 1399.52 802.987 1394.96 C 791.01 1391.2 782.281 1385.07 776.39 1373.66 C 769.87 1361.03 769.724 1346.66 764.498 1333.86 C 770.283 1331.95 775.798 1329.62 781.843 1328.91 z" fill="rgb(195,126,5)" transform="translate(0,0)"></path>
<path d="M 468.899 1328.83 L 583.419 1328.94 C 602.81 1328.97 626.231 1328.37 645.132 1329.29 C 651.058 1330.51 655.616 1331.27 661.283 1333.57 C 669.371 1338.3 674.769 1342.27 680.977 1349.5 C 696.073 1367.06 696.683 1392.13 685.064 1411.61 C 679.127 1421.56 669.282 1427.93 659.861 1434.44 L 659.287 1434.04 C 657.072 1433.76 648.881 1435.2 645.438 1435.41 C 637.836 1435.81 630.225 1435.99 622.614 1435.95 L 489.859 1436.05 C 485.989 1436.04 459.078 1434.07 457.939 1434.67 C 454.033 1432.3 449.875 1429.98 446.151 1427.36 C 419.021 1408.33 415.218 1367.38 439.25 1344.29 C 445.306 1338.48 448.645 1336.47 455.923 1332.7 C 461.058 1330.73 463.343 1329.73 468.899 1328.83 z" fill="rgb(215,172,111)" transform="translate(0,0)"></path>
<path d="M 468.899 1328.83 L 583.419 1328.94 C 602.81 1328.97 626.231 1328.37 645.132 1329.29 C 651.058 1330.51 655.616 1331.27 661.283 1333.57 C 652.705 1409.83 602.524 1397.89 543.732 1398.25 C 523.097 1398.38 494.906 1401.16 477.608 1389.08 C 459.851 1376.68 458.233 1351.95 455.923 1332.7 C 461.058 1330.73 463.343 1329.73 468.899 1328.83 z" fill="rgb(230,198,152)" transform="translate(0,0)"></path>
<path d="M 1406.98 1329.13 C 1425.91 1327.49 1453.39 1328.28 1472.96 1328.29 C 1510.05 1328.14 1547.15 1328.29 1584.24 1328.76 L 1594.69 1331.75 C 1641.1 1354.05 1639.74 1412.32 1591.62 1434.39 C 1591.22 1434.4 1590.82 1434.41 1590.42 1434.42 C 1568.67 1437.07 1546.71 1435.94 1524.78 1435.98 C 1494.42 1436.13 1464.07 1436.1 1433.72 1435.89 C 1430.3 1435.85 1395.24 1435.17 1396.31 1434.71 C 1377.22 1425.06 1364.46 1412.74 1361.57 1390.12 C 1358.39 1365.2 1370.48 1344.14 1393.05 1333.44 C 1397.63 1331.52 1402.19 1330.44 1406.98 1329.13 z" fill="rgb(181,125,64)" transform="translate(0,0)"></path>
<path d="M 1406.98 1329.13 C 1425.91 1327.49 1453.39 1328.28 1472.96 1328.29 C 1510.05 1328.14 1547.15 1328.29 1584.24 1328.76 L 1594.69 1331.75 C 1587.94 1391.13 1566.41 1400.95 1508.25 1398.92 C 1485.13 1398.11 1460.27 1399.95 1437.02 1397.34 C 1400.37 1393.41 1397.36 1362.14 1393.05 1333.44 C 1397.63 1331.52 1402.19 1330.44 1406.98 1329.13 z" fill="rgb(195,126,5)" transform="translate(0,0)"></path>
<path d="M 1276.76 1435.23 C 1280.38 1434.06 1282.41 1432.4 1285.7 1434.12 C 1283.15 1437.08 1280.18 1435.99 1276.76 1435.23 z" fill="rgb(238,219,189)" transform="translate(0,0)"></path>
<path d="M 476.005 1471.41 C 507.444 1469.86 551.85 1471.07 583.838 1471.13 L 777.594 1471.15 L 1019.99 1471.39 C 1062.94 1471.47 1105.86 1471.37 1148.83 1471.91 C 1162.06 1471.23 1176.89 1477.36 1178.1 1492.72 C 1179.68 1512.75 1167.33 1520.09 1150.94 1521.89 C 1085.2 1522.8 1017.9 1522.29 952.075 1522.33 L 688.398 1522.47 C 642.449 1522.21 596.499 1522.21 550.549 1522.48 C 525.529 1522.6 500.001 1522.95 474.964 1522.59 C 468.658 1522.5 462.447 1521.35 457.277 1517.51 C 451.699 1513.3 448.072 1507 447.229 1500.06 C 444.72 1480.55 458.782 1472.39 476.005 1471.41 z" fill="rgb(238,219,189)" transform="translate(0,0)"></path>
<path d="M 1415.03 908.664 C 1444.54 909.903 1478.16 908.919 1508.04 909.161 C 1528.54 909.326 1565.24 910.094 1584.12 907.096 L 1584.13 938.549 L 1583.98 1197.73 L 1584.01 1283.52 C 1584.02 1297.54 1583.56 1314.94 1584.24 1328.76 C 1547.15 1328.29 1510.05 1328.14 1472.96 1328.29 C 1453.39 1328.28 1425.91 1327.49 1406.98 1329.13 L 1406.95 955.496 L 1406.86 907.624 L 1415.03 908.664 z" fill="rgb(230,198,152)" transform="translate(0,0)"></path>
<path d="M 1415.03 908.664 C 1444.54 909.903 1478.16 908.919 1508.04 909.161 C 1528.54 909.326 1565.24 910.094 1584.12 907.096 L 1584.13 938.549 C 1524.2 923.154 1462.1 925.954 1406.95 955.496 L 1406.86 907.624 L 1415.03 908.664 z" fill="rgb(215,172,111)" transform="translate(0,0)"></path>
<path d="M 1447.6 997.238 C 1489.52 993.899 1484.42 1032.45 1484.37 1060.39 L 1484.28 1114.86 L 1484.18 1179.38 C 1484.13 1207.29 1491 1238.17 1456.91 1245.95 C 1451.47 1246.14 1446.83 1246.19 1441.68 1244.29 C 1433.27 1241.25 1426.51 1234.83 1423.05 1226.58 C 1418.88 1216.45 1420.85 1053.96 1420.38 1030.24 C 1420.31 1026.6 1421.33 1017.52 1423.28 1013.97 C 1428.89 1003.77 1437.18 1000.31 1447.6 997.238 z" fill="rgb(238,219,189)" transform="translate(0,0)"></path>
<path d="M 793.748 909.017 C 826.988 909.955 861.713 909.322 895.063 909.238 C 911.291 909.196 943.399 909.761 957.684 907.342 L 958.645 907.976 C 958.504 923.626 959.112 940.386 958.662 955.746 L 958.86 1189.8 C 958.406 1221.9 958.264 1254.01 958.432 1286.11 C 958.505 1298.88 958.121 1316.12 958.99 1328.62 C 915.346 1327.22 870.779 1329.02 827.043 1328.25 C 812.269 1327.99 796.532 1328 781.843 1328.91 L 781.885 953.361 L 782.032 907.586 C 785.9 908.25 789.849 909.131 793.748 909.017 z" fill="rgb(230,198,152)" transform="translate(0,0)"></path>
<path d="M 793.748 909.017 C 826.988 909.955 861.713 909.322 895.063 909.238 C 911.291 909.196 943.399 909.761 957.684 907.342 L 958.645 907.976 C 958.504 923.626 959.112 940.386 958.662 955.746 C 957 953.622 957.615 940.152 957.637 936.542 C 913.882 927.631 866.944 924.966 823.707 937.821 C 808.459 942.354 796.454 948.469 781.885 953.361 L 782.032 907.586 C 785.9 908.25 789.849 909.131 793.748 909.017 z" fill="rgb(215,172,111)" transform="translate(0,0)"></path>
<path d="M 825.921 995.334 C 863.457 996.335 857.815 1031.9 857.867 1058.22 L 857.961 1121.85 L 858.13 1179.89 C 858.334 1209.37 865.556 1240.14 827.691 1245.82 C 788.404 1243.58 795.049 1207.82 795.03 1179.34 L 795.032 1113.69 L 794.897 1059.6 C 794.787 1031.37 789.046 1000.91 825.921 995.334 z" fill="rgb(238,219,189)" transform="translate(0,0)"></path>
<path d="M 469.462 908.166 L 470.991 908.148 C 479.973 909.56 528.169 909.522 539.058 909.249 C 571.021 908.446 613.98 911.095 645.116 908.316 C 644.274 950.5 645.744 993.901 644.662 1035.59 L 644.701 1226.74 C 644.704 1258.39 643.679 1298.37 645.132 1329.29 C 626.231 1328.37 602.81 1328.97 583.419 1328.94 L 468.899 1328.83 C 469.62 1286.25 469.021 1242.28 469.038 1199.53 L 469.125 955.444 C 469.143 939.866 468.947 923.684 469.462 908.166 z" fill="rgb(195,126,5)" transform="translate(0,0)"></path>
<path d="M 469.462 908.166 L 470.991 908.148 C 479.973 909.56 528.169 909.522 539.058 909.249 C 571.021 908.446 613.98 911.095 645.116 908.316 C 644.274 950.5 645.744 993.901 644.662 1035.59 C 641.671 1025.22 643.667 955.32 643.667 939.784 C 596.064 922.875 532.331 924.708 487.094 948.491 C 482.211 951.058 474.535 955.685 469.125 955.444 C 469.143 939.866 468.947 923.684 469.462 908.166 z" fill="rgb(181,125,64)" transform="translate(0,0)"></path>
<path d="M 506.294 1003.15 C 512.927 1002.88 518.879 1002.73 525.273 1004.95 C 532.324 1007.41 538.925 1012.78 541.769 1019.85 C 546.88 1032.54 545.842 1190.84 544.535 1213.46 C 544.234 1218.67 543.986 1224.45 541.709 1229.23 C 537.645 1237.75 530.547 1241.98 521.86 1244.81 C 515.675 1245.65 510.308 1246.06 504.248 1244.22 C 496.331 1241.81 489.609 1236.61 486.076 1229.02 C 483.823 1224.19 483.701 1218.08 483.44 1212.8 C 482.356 1190.92 481.153 1031.98 485.749 1020.88 C 489.784 1011.14 497.012 1006.9 506.294 1003.15 z" fill="rgb(215,172,111)" transform="translate(0,0)"></path>
<path d="M 1098.56 908.389 C 1110.09 909.475 1125.47 909.42 1137.29 909.089 C 1181.24 907.857 1228.14 912.41 1271.53 907.287 L 1271.47 939.09 L 1271.64 1188.94 C 1271.67 1234.52 1270.74 1282.36 1272.17 1327.89 C 1256.14 1329.28 1227.21 1328.51 1210.32 1328.56 L 1096.29 1328.64 C 1096.98 1289.62 1096.01 1249.72 1095.94 1210.58 L 1096.42 1014.75 L 1096.1 908.046 L 1098.56 908.389 z" fill="rgb(195,126,5)" transform="translate(0,0)"></path>
<path d="M 1098.56 908.389 C 1110.09 909.475 1125.47 909.42 1137.29 909.089 C 1181.24 907.857 1228.14 912.41 1271.53 907.287 L 1271.47 939.09 C 1259.68 938.092 1247.08 932.488 1235.2 930.844 C 1223.12 929.17 1211.02 928.656 1198.83 928.793 C 1156.64 928.573 1133.8 936.537 1097.24 955.515 C 1097.29 962.77 1098.28 1011.66 1096.42 1014.75 L 1096.1 908.046 L 1098.56 908.389 z" fill="rgb(181,125,64)" transform="translate(0,0)"></path>
<path d="M 1132.29 1003.16 C 1138.17 1002.7 1144.03 1002.37 1149.8 1003.85 C 1157.76 1005.88 1164.43 1010.6 1168.4 1017.9 C 1170.75 1022.21 1171.32 1030.34 1171.64 1035.27 C 1172.99 1056.21 1174.45 1215.99 1170.63 1226.81 C 1167.04 1236.99 1160.08 1241.25 1150.82 1245.53 C 1135.04 1248.22 1121.8 1246.3 1113.78 1230.13 C 1112.22 1226.98 1111.12 1217.41 1111.07 1213.61 C 1110.64 1183.59 1111.02 1153.54 1110.84 1123.52 C 1110.8 1092.87 1110.56 1062.09 1110.9 1031.46 C 1110.94 1028.09 1111.52 1022.69 1112.8 1019.62 C 1116.89 1009.83 1123.31 1006.94 1132.29 1003.16 z" fill="rgb(215,172,111)" transform="translate(0,0)"></path>
<metadata><recraft-signature>{"signed_by": "recraft", "signature_b64": "xVSUxcDtUo6yKJGlSj96YLfprRnKf+1zG2tUN5U0Si3ZnYEwO1neIZmrd8ypDguB6gkCC0mHZfxVhQowsSk9Bw==", "signing_algo": "Ed25519", "generation_timestamp": 1781914975, "identifier": "9191244d-fe13-4934-b8de-9d0d6a3a72bd"}</recraft-signature></metadata></svg>