<svg xmlns="http://www.w3.org/2000/svg" height="1024" preserveAspectRatio="none" style="display: block;" version="1.1" viewBox="0 0 2048 2048" width="1024">
<path d="M 928.608 302.998 C 941.862 298.757 963.289 292.828 977.206 293.265 C 1029.69 294.913 1088.29 284.647 1136.25 309.516 C 1170.26 327.475 1195.79 358.159 1207.26 394.872 C 1211.24 407.825 1212.12 416.646 1213.15 430.072 C 1236.9 430.232 1264.11 429.819 1287.46 432.305 C 1344.11 438.339 1402.9 466.312 1442.96 507.029 C 1495.83 560.763 1514.26 606.699 1526.78 677.952 C 1554.59 675.073 1581.42 679.784 1603.47 697.804 C 1623.21 714.202 1635.66 737.743 1638.1 763.287 C 1640.21 787.533 1632.61 811.625 1616.97 830.271 C 1592.04 859.859 1563.58 863.063 1527.2 862.674 L 1484.36 1391.63 L 1473.82 1517.75 C 1471.25 1547.31 1469.66 1581.36 1461.47 1609.4 C 1440.54 1681.02 1373.21 1738.28 1300.56 1752.3 C 1270.2 1758.16 1226.35 1756.2 1194.62 1756.27 L 1026.69 1756.34 L 862.026 1756.49 C 801.386 1756.54 756.077 1762.11 698.839 1735.28 C 681.034 1727.12 664.492 1716.45 649.719 1703.6 C 619.11 1676.96 596.373 1642.9 585.749 1603.7 C 578.201 1575.85 578.058 1552.75 575.672 1524.27 C 572.386 1485.06 570.113 1445.8 566.675 1406.62 L 541.62 1100.51 C 535.937 1030.49 529.275 958.641 524.57 888.714 C 523.719 880.852 522.948 872.982 522.257 865.105 C 499.209 863.107 486.087 863.821 463.915 853.029 C 448.472 845.704 433.612 832.898 424.52 818.372 C 411.949 798.35 407.923 774.127 413.342 751.115 C 419.758 724.169 436.093 705.021 459.277 690.887 C 479.552 679.778 499.9 676.752 522.635 676.85 C 525.854 658.465 530.636 634.686 536.465 617.283 C 559.989 547.414 610.447 489.837 676.625 457.347 C 714.269 439.469 750.892 430.424 792.764 429.993 C 800.647 429.912 830.213 431.2 836.595 429.484 L 837.414 427.166 C 842.354 367.693 873.894 326.165 928.608 302.998 z M 871.284 1712.28 C 870.819 1714.56 870.811 1714.55 869.865 1716.84 C 865.53 1719.81 868.763 1719.87 867.429 1722.38 C 867.032 1722.42 866.636 1722.45 866.239 1722.49 L 866.458 1722.49 C 855.302 1722.92 840.299 1721.85 829.803 1723.15 C 826.236 1723.52 818.232 1722.95 814.329 1722.77 C 786.636 1725.63 722.154 1724.53 698.839 1735.28 C 756.077 1762.11 801.386 1756.54 862.026 1756.49 L 1026.69 1756.34 L 1194.62 1756.27 C 1226.35 1756.2 1270.2 1758.16 1300.56 1752.3 C 1373.21 1738.28 1440.54 1681.02 1461.47 1609.4 C 1469.66 1581.36 1471.25 1547.31 1473.82 1517.75 L 1484.36 1391.63 L 1527.2 862.674 C 1563.58 863.063 1592.04 859.859 1616.97 830.271 C 1632.61 811.625 1640.21 787.533 1638.1 763.287 C 1635.66 737.743 1623.21 714.202 1603.47 697.804 C 1581.42 679.784 1554.59 675.073 1526.78 677.952 C 1514.26 606.699 1495.83 560.763 1442.96 507.029 C 1402.9 466.312 1344.11 438.339 1287.46 432.305 C 1264.11 429.819 1236.9 430.232 1213.15 430.072 C 1212.12 416.646 1211.24 407.825 1207.26 394.872 C 1195.79 358.159 1170.26 327.475 1136.25 309.516 C 1088.29 284.647 1029.69 294.913 977.206 293.265 C 963.289 292.828 941.862 298.757 928.608 302.998 C 873.894 326.165 842.354 367.693 837.414 427.166 L 836.595 429.484 C 830.213 431.2 800.647 429.912 792.764 429.993 C 750.892 430.424 714.269 439.469 676.625 457.347 C 610.447 489.837 559.989 547.414 536.465 617.283 C 530.636 634.686 525.854 658.465 522.635 676.85 C 499.9 676.752 479.552 679.778 459.277 690.887 C 436.093 705.021 419.758 724.169 413.342 751.115 C 407.923 774.127 411.949 798.35 424.52 818.372 C 433.612 832.898 448.472 845.704 463.915 853.029 C 486.087 863.821 499.209 863.107 522.257 865.105 C 522.948 872.982 523.719 880.852 524.57 888.714 C 526.312 888.07 594.196 889.127 601.789 889.132 C 634.904 889.098 668.87 889.476 701.908 889.011 L 1147.38 889.107 L 1304.94 889.091 C 1330.36 889.16 1360.02 888.631 1385.18 889.704 L 1347.09 1371.03 L 1337.03 1499.36 C 1334.96 1527.32 1333.49 1565.69 1327.45 1592.06 C 1320.31 1623.25 1297.18 1658.95 1272.86 1679.83 C 1250.66 1698.74 1224.16 1711.93 1195.68 1718.24 C 1167.9 1724.46 1123.86 1723.16 1094.09 1723.24 L 965.209 1723.18 C 955.138 1723.11 945.37 1723.14 935.299 1723.43 C 929.326 1723.6 918.791 1724.7 913.158 1723.84 C 910.841 1722.63 889.905 1718.05 887.427 1718.08 C 883.036 1716.57 875.151 1713.97 871.284 1712.28 z" fill="rgb(223,159,56)" transform="translate(0,0)"></path>
<path d="M 871.284 1712.28 C 875.151 1713.97 883.036 1716.57 887.427 1718.08 C 884.211 1718.87 872.207 1722.29 870.403 1718 L 869.865 1716.84 C 870.811 1714.55 870.819 1714.56 871.284 1712.28 z" fill="rgb(230,216,186)" fill-opacity="0.294118" transform="translate(0,0)"></path>
<path d="M 928.608 302.998 C 941.862 298.757 963.289 292.828 977.206 293.265 C 1029.69 294.913 1088.29 284.647 1136.25 309.516 C 1170.26 327.475 1195.79 358.159 1207.26 394.872 C 1211.24 407.825 1212.12 416.646 1213.15 430.072 C 1236.9 430.232 1264.11 429.819 1287.46 432.305 C 1344.11 438.339 1402.9 466.312 1442.96 507.029 C 1495.83 560.763 1514.26 606.699 1526.78 677.952 C 1554.59 675.073 1581.42 679.784 1603.47 697.804 C 1623.21 714.202 1635.66 737.743 1638.1 763.287 C 1640.21 787.533 1632.61 811.625 1616.97 830.271 C 1592.04 859.859 1563.58 863.063 1527.2 862.674 L 1484.36 1391.63 L 1473.82 1517.75 C 1471.25 1547.31 1469.66 1581.36 1461.47 1609.4 C 1440.54 1681.02 1373.21 1738.28 1300.56 1752.3 C 1270.2 1758.16 1226.35 1756.2 1194.62 1756.27 L 1026.69 1756.34 L 862.026 1756.49 C 801.386 1756.54 756.077 1762.11 698.839 1735.28 C 722.154 1724.53 786.636 1725.63 814.329 1722.77 C 818.232 1722.95 826.236 1723.52 829.803 1723.15 C 840.299 1721.85 855.302 1722.92 866.458 1722.49 L 866.239 1722.49 C 866.636 1722.45 867.032 1722.42 867.429 1722.38 C 868.763 1719.87 865.53 1719.81 869.865 1716.84 L 870.403 1718 C 872.207 1722.29 884.211 1718.87 887.427 1718.08 C 889.905 1718.05 910.841 1722.63 913.158 1723.84 C 918.791 1724.7 929.326 1723.6 935.299 1723.43 C 945.37 1723.14 955.138 1723.11 965.209 1723.18 L 1094.09 1723.24 C 1123.86 1723.16 1167.9 1724.46 1195.68 1718.24 C 1224.16 1711.93 1250.66 1698.74 1272.86 1679.83 C 1297.18 1658.95 1320.31 1623.25 1327.45 1592.06 C 1333.49 1565.69 1334.96 1527.32 1337.03 1499.36 L 1347.09 1371.03 L 1385.18 889.704 C 1360.02 888.631 1330.36 889.16 1304.94 889.091 L 1147.38 889.107 L 701.908 889.011 C 668.87 889.476 634.904 889.098 601.789 889.132 C 594.196 889.127 526.312 888.07 524.57 888.714 C 523.719 880.852 522.948 872.982 522.257 865.105 C 499.209 863.107 486.087 863.821 463.915 853.029 C 448.472 845.704 433.612 832.898 424.52 818.372 C 411.949 798.35 407.923 774.127 413.342 751.115 C 419.758 724.169 436.093 705.021 459.277 690.887 C 479.552 679.778 499.9 676.752 522.635 676.85 C 525.854 658.465 530.636 634.686 536.465 617.283 C 559.989 547.414 610.447 489.837 676.625 457.347 C 714.269 439.469 750.892 430.424 792.764 429.993 C 800.647 429.912 830.213 431.2 836.595 429.484 L 837.414 427.166 C 842.354 367.693 873.894 326.165 928.608 302.998 z M 894.81 472.608 C 903.34 470.77 912.164 470.609 920.237 468.281 C 913.042 468.077 899.767 467.44 892.954 468.311 C 887.651 467.856 883.026 467.79 877.751 467.677 L 877.692 467.189 C 873.748 467.216 869.809 467.149 865.867 467.209 C 868.206 472.581 866.249 473.861 874.265 471.038 L 875.955 470.938 C 882.784 471.65 890.378 470.137 894.81 472.608 z M 1037.17 331.381 C 1033.71 330.888 1029.93 330.207 1026.46 330.197 C 1025.21 330.869 1019.75 332.524 1020.24 333.707 C 1024.09 336.621 1033.16 333.348 1037.17 331.381 z" fill="rgb(193,117,3)" transform="translate(0,0)"></path>
<path d="M 892.954 468.311 C 899.767 467.44 913.042 468.077 920.237 468.281 C 912.164 470.609 903.34 470.77 894.81 472.608 C 890.378 470.137 882.784 471.65 875.955 470.938 C 883.278 469.508 887.646 471.429 892.954 468.311 z" fill="rgb(223,200,154)" fill-opacity="0.976471" transform="translate(0,0)"></path>
<path d="M 1026.46 330.197 C 1029.93 330.207 1033.71 330.888 1037.17 331.381 C 1033.16 333.348 1024.09 336.621 1020.24 333.707 C 1019.75 332.524 1025.21 330.869 1026.46 330.197 z" fill="rgb(230,216,186)" fill-opacity="0.878431" transform="translate(0,0)"></path>
<path d="M 877.751 467.677 C 883.026 467.79 887.651 467.856 892.954 468.311 C 887.646 471.429 883.278 469.508 875.955 470.938 L 874.265 471.038 C 874.546 467.838 874.583 468.27 877.751 467.677 z" fill="rgb(230,216,186)" fill-opacity="0.509804" transform="translate(0,0)"></path>
<path d="M 865.867 467.209 C 869.809 467.149 873.748 467.216 877.692 467.189 L 877.751 467.677 C 874.583 468.27 874.546 467.838 874.265 471.038 C 866.249 473.861 868.206 472.581 865.867 467.209 z" fill="rgb(230,216,186)" fill-opacity="0.686275" transform="translate(0,0)"></path>
<path d="M 522.635 676.85 C 525.854 658.465 530.636 634.686 536.465 617.283 C 559.989 547.414 610.447 489.837 676.625 457.347 C 691.639 470.508 778.262 467.433 785.32 471.806 C 818.457 466.653 832.981 467.003 865.867 467.209 C 868.206 472.581 866.249 473.861 874.265 471.038 L 875.955 470.938 C 882.784 471.65 890.378 470.137 894.81 472.608 C 903.34 470.77 912.164 470.609 920.237 468.281 C 913.042 468.077 899.767 467.44 892.954 468.311 C 887.651 467.856 883.026 467.79 877.751 467.677 L 877.692 467.189 C 926.04 466.203 980.097 467.848 1029.09 467.878 L 1107.97 467.757 C 1145.42 467.56 1183.19 465.216 1219.5 476.098 C 1313.4 504.247 1371.7 574.798 1390.33 668.937 L 1013.88 669.357 L 831.737 669.239 C 789.58 669.291 746.329 668.348 704.197 670.975 C 689.74 671.877 674.826 675.95 660.144 675.777 C 615.541 677.417 566.869 673.599 522.635 676.85 z" fill="rgb(223,159,56)" transform="translate(0,0)"></path>
<path d="M 785.32 471.806 C 818.457 466.653 832.981 467.003 865.867 467.209 C 868.206 472.581 866.249 473.861 874.265 471.038 L 875.955 470.938 C 882.784 471.65 890.378 470.137 894.81 472.608 C 869.539 479.295 844.545 488.996 822.085 502.382 C 775.58 530.037 739.713 572.515 720.243 622.999 C 714.112 638.881 710.781 652.824 706.662 669.269 C 674.951 668.149 639.33 668.749 607.314 668.769 C 610.724 645.183 624.312 607.303 636.06 586.627 C 672.583 522.347 716.359 491.872 785.32 471.806 z" fill="rgb(230,216,186)" transform="translate(0,0)"></path>
<path d="M 463.915 853.029 C 448.472 845.704 433.612 832.898 424.52 818.372 C 411.949 798.35 407.923 774.127 413.342 751.115 C 419.758 724.169 436.093 705.021 459.277 690.887 C 487.266 701.777 518.797 698.031 544.59 703.818 C 571.725 702.6 600.962 703.018 628.237 703.025 L 753.937 703.085 L 1127.85 703.003 L 1364.49 703.168 L 1439.19 703.097 C 1452.85 703.074 1467.81 702.585 1481.28 703.705 C 1512.31 706.286 1541.06 735.451 1541.92 766.853 C 1542.43 785.403 1537.42 802.469 1524.56 816.161 C 1511.23 830.391 1494.17 836.785 1474.94 837.014 C 1449.34 837.319 1423.74 837.09 1398.16 837.275 C 1310.51 838.325 1222.85 838.271 1135.21 837.112 L 602.519 838.239 L 601.331 838.358 C 591.408 839.282 575.141 838.709 567.176 839.503 C 545.278 841.688 480.178 844.057 463.915 853.029 z" fill="rgb(230,216,186)" transform="translate(0,0)"></path>
<path d="M 463.915 853.029 C 448.472 845.704 433.612 832.898 424.52 818.372 C 411.949 798.35 407.923 774.127 413.342 751.115 C 419.758 724.169 436.093 705.021 459.277 690.887 C 487.266 701.777 518.797 698.031 544.59 703.818 C 535.621 706.913 528.892 708.972 520.988 714.468 C 477.819 744.485 482.713 809.464 531.203 831.247 C 555.564 842.19 577.142 836.886 602.519 838.239 L 601.331 838.358 C 591.408 839.282 575.141 838.709 567.176 839.503 C 545.278 841.688 480.178 844.057 463.915 853.029 z" fill="rgb(223,159,56)" transform="translate(0,0)"></path>
<path d="M 1024.75 329.746 L 1026.46 330.197 C 1025.21 330.869 1019.75 332.524 1020.24 333.707 C 1024.09 336.621 1033.16 333.348 1037.17 331.381 L 1044.86 333.335 C 1069.74 339.82 1091.04 355.876 1104.13 378.004 C 1114.22 395.055 1117.02 409.613 1119.02 428.991 C 1053.65 429.373 981.932 431.256 917.15 429.925 L 917.188 429.123 C 915.488 407.766 931.274 376.57 946.468 361.793 C 969.717 339.184 992.64 330.042 1024.75 329.746 z" fill="rgb(223,200,154)" transform="translate(0,0)"></path>
<path d="M 1024.75 329.746 L 1026.46 330.197 C 1025.21 330.869 1019.75 332.524 1020.24 333.707 C 1024.09 336.621 1033.16 333.348 1037.17 331.381 L 1044.86 333.335 C 1042.92 336.894 1035.94 337.838 1031.02 340.119 C 989.007 359.617 972.072 385.201 964.619 428.96 C 950.212 428.963 931.217 428.397 917.188 429.123 C 915.488 407.766 931.274 376.57 946.468 361.793 C 969.717 339.184 992.64 330.042 1024.75 329.746 z" fill="rgb(230,216,186)" transform="translate(0,0)"></path>
<path d="M 837.414 427.166 C 842.354 367.693 873.894 326.165 928.608 302.998 C 935.186 313.256 965.521 320.346 976.743 322.8 C 987.33 325.105 998.011 326.96 1008.76 328.359 C 1014.53 329.083 1018.85 328.741 1024.75 329.746 C 992.64 330.042 969.717 339.184 946.468 361.793 C 931.274 376.57 915.488 407.766 917.188 429.123 L 917.15 429.925 L 865.778 430.151 C 859.518 430.174 843.773 430.629 838.262 429.499 L 837.414 427.166 z" fill="rgb(223,159,56)" transform="translate(0,0)"></path>
<path d="M 829.803 1723.15 C 840.299 1721.85 855.302 1722.92 866.458 1722.49 L 866.239 1722.49 C 866.636 1722.45 867.032 1722.42 867.429 1722.38 C 868.763 1719.87 865.53 1719.81 869.865 1716.84 L 870.403 1718 C 872.207 1722.29 884.211 1718.87 887.427 1718.08 C 889.905 1718.05 910.841 1722.63 913.158 1723.84 L 862.5 1723.83 C 853.764 1723.81 838.153 1724.14 829.803 1723.15 z" fill="rgb(230,216,186)" transform="translate(0,0)"></path>
<path d="M 524.57 888.714 C 526.312 888.07 594.196 889.127 601.789 889.132 C 634.904 889.098 668.87 889.476 701.908 889.011 C 704.902 937.238 710.28 988.649 714.281 1037.19 L 740.919 1356.47 L 753.485 1495.8 C 755.696 1522.21 757.792 1569.69 764.17 1593.59 C 772.92 1626.11 790.979 1655.37 816.126 1677.76 C 826.058 1686.58 835.155 1692.85 846.48 1699.69 C 850.14 1701.91 869.68 1710.79 871.284 1712.28 C 870.819 1714.56 870.811 1714.55 869.865 1716.84 C 865.53 1719.81 868.763 1719.87 867.429 1722.38 C 867.032 1722.42 866.636 1722.45 866.239 1722.49 L 866.458 1722.49 C 855.302 1722.92 840.299 1721.85 829.803 1723.15 C 826.236 1723.52 818.232 1722.95 814.329 1722.77 C 786.636 1725.63 722.154 1724.53 698.839 1735.28 C 681.034 1727.12 664.492 1716.45 649.719 1703.6 C 619.11 1676.96 596.373 1642.9 585.749 1603.7 C 578.201 1575.85 578.058 1552.75 575.672 1524.27 C 572.386 1485.06 570.113 1445.8 566.675 1406.62 L 541.62 1100.51 C 535.937 1030.49 529.275 958.641 524.57 888.714 z" fill="rgb(230,216,186)" transform="translate(0,0)"></path>
<path d="M 524.57 888.714 C 526.312 888.07 594.196 889.127 601.789 889.132 C 604.219 939.103 609.857 992.816 613.896 1042.96 L 643.256 1381.76 C 647.033 1423.33 650.57 1464.92 653.866 1506.53 C 655.597 1528.11 658.311 1572.57 663.426 1592.18 C 672.001 1624.28 689.674 1653.22 714.317 1675.51 C 742.927 1701.41 776.793 1715.74 814.329 1722.77 C 786.636 1725.63 722.154 1724.53 698.839 1735.28 C 681.034 1727.12 664.492 1716.45 649.719 1703.6 C 619.11 1676.96 596.373 1642.9 585.749 1603.7 C 578.201 1575.85 578.058 1552.75 575.672 1524.27 C 572.386 1485.06 570.113 1445.8 566.675 1406.62 L 541.62 1100.51 C 535.937 1030.49 529.275 958.641 524.57 888.714 z" fill="rgb(223,159,56)" transform="translate(0,0)"></path>
<metadata><recraft-signature>{"signed_by": "recraft", "signature_b64": "QT4BTw+0TwLideg8AcWR706bIN6P6Pem0SGpCLA2hx7WIiSuiiTK7KCF/13fBY1ksJxWR7ADKlmwYfn1awO4Bw==", "signing_algo": "Ed25519", "generation_timestamp": 1781914860, "identifier": "964abb50-4a0a-4c3e-b566-0e01515026af"}</recraft-signature></metadata></svg>