<svg xmlns="http://www.w3.org/2000/svg" height="1024" preserveAspectRatio="none" style="display: block;" version="1.1" viewBox="0 0 2048 2048" width="1024">
<path d="M 1195.76 443.637 C 1187.9 394.404 1208.92 352.625 1254.44 329.636 C 1265.75 323.926 1280.62 321.478 1292.68 317.537 C 1314.34 311.425 1336.47 306.207 1358.17 300.196 C 1407.53 286.229 1457.03 272.766 1506.66 259.81 C 1526.86 254.605 1556.14 246.24 1575.82 243.192 C 1617.74 236.703 1660.53 246.995 1694.92 271.839 C 1726.85 295.331 1752.32 333.598 1757.42 373.009 C 1762.33 410.919 1753.61 462.076 1749.19 501.104 C 1745.07 540.094 1740.71 579.058 1736.11 617.994 C 1732.64 647.822 1728.44 678.955 1725.88 708.758 C 1727.44 754.129 1738.34 795.537 1704.28 832.357 C 1665.74 874.003 1600.35 877.574 1559.33 838.064 C 1546.63 825.836 1540.16 813.673 1530.68 799.093 C 1520.86 785.907 1502.48 766.489 1490.74 754.794 L 1323.21 920.528 C 1309.39 934.282 1294.98 947.477 1281.32 961.324 C 1243.55 999.97 1205.17 1038.02 1166.2 1075.46 C 1144.41 1096.58 1124.54 1119.62 1099 1136.09 C 1070.74 1154.31 1040.72 1162.76 1007.19 1162.46 C 984.252 1162.25 957.603 1157.02 937.257 1146.06 C 900.585 1126.3 869.583 1089.75 839.763 1061.34 C 810.814 1033.76 783.24 1004.74 754.077 977.848 C 717.348 1011.52 685.095 1045.39 649.937 1080.57 C 610.987 1119.54 570.557 1157.58 531.721 1196.74 C 508.823 1220.05 485.614 1243.06 462.1 1265.75 C 449.306 1278.3 432.265 1296.72 417.838 1306.24 C 399.339 1318.37 377.514 1324.41 355.412 1323.53 C 327.744 1322.21 301.734 1309.96 283.108 1289.45 C 255.876 1260.04 252.8 1225.96 266.919 1189.74 C 246.756 1122.19 300.93 1083.05 342.918 1041.24 L 464.549 921.179 L 561.556 824.232 C 619.554 766.118 660.735 716.567 750.914 714.103 C 831.978 711.888 875.033 751.097 928.539 805.918 C 954.501 832.519 983.528 861.806 1010.79 887.624 L 1190.39 709.83 C 1229.49 670.728 1272.79 625.874 1313.01 588.469 C 1321.34 581.079 1329.85 573.633 1336.65 564.797 C 1341.83 558.069 1345.92 551.543 1351.28 544.825 C 1333 533.109 1315.91 519.596 1297.94 508.208 C 1293.18 508.119 1290.58 507.791 1285.85 507.086 C 1273.02 506.899 1260.35 504.131 1248.61 498.948 C 1220.5 486.527 1206.67 471.39 1195.76 443.637 z" fill="rgb(202,148,55)" transform="translate(0,0)"></path>
<path d="M 1351.28 544.825 C 1389.59 567.088 1439.03 597.141 1392.02 642.894 C 1381.16 653.458 1370.02 664.455 1359.27 675.148 C 1322.65 712.061 1285.74 748.693 1248.55 785.041 L 1125.01 908.595 C 1104.06 929.524 1083.23 951.357 1061.24 971.258 C 1038.76 991.604 997.142 994.705 971.426 978.579 C 957.032 969.552 944.879 954.647 932.717 942.876 C 914.269 923.761 893.289 905.141 874.888 886.219 C 836.353 846.594 797.168 798.18 735.024 810.863 C 702.223 817.558 684.379 837.547 661.557 859.737 C 645.509 875.256 629.579 890.898 613.77 906.66 L 485.503 1033.61 C 455.01 1063.57 424.669 1093.68 394.481 1123.94 C 369.692 1148.65 333.038 1174.3 342.74 1214.98 C 345.886 1228.17 351.907 1236.09 362.599 1244.1 C 333.632 1247.37 305.614 1239.71 285.117 1218.16 C 277.325 1209.96 272.041 1199.72 266.919 1189.74 C 246.756 1122.19 300.93 1083.05 342.918 1041.24 L 464.549 921.179 L 561.556 824.232 C 619.554 766.118 660.735 716.567 750.914 714.103 C 831.978 711.888 875.033 751.097 928.539 805.918 C 954.501 832.519 983.528 861.806 1010.79 887.624 L 1190.39 709.83 C 1229.49 670.728 1272.79 625.874 1313.01 588.469 C 1321.34 581.079 1329.85 573.633 1336.65 564.797 C 1341.83 558.069 1345.92 551.543 1351.28 544.825 z" fill="rgb(165,105,6)" transform="translate(0,0)"></path>
<path d="M 362.599 1244.1 C 389.082 1243.36 404.698 1222.22 421.899 1204.89 L 474.685 1151.91 L 671.696 957.185 C 697.852 931.355 724.754 887.837 766.64 896.728 C 791.629 902.033 808.608 924.036 825.486 941.614 L 894.763 1013.27 C 929.847 1049.69 960.026 1089.54 1015.69 1085.62 C 1054.48 1082.9 1073.78 1068.81 1099.72 1041.19 C 1113.66 1026.35 1129.98 1010.48 1144.39 996.032 L 1367.97 773.626 L 1422.36 719.129 C 1433.1 708.409 1450.39 690.149 1462.81 682.28 C 1490.78 664.556 1533.16 691.653 1548.06 715.984 C 1552.35 722.982 1555.72 731.878 1559.93 739.149 L 1560.54 740.185 C 1569.6 759.009 1579.26 772.499 1598.43 782.221 C 1616.21 791.347 1636.95 792.8 1655.83 786.243 C 1681.08 777.414 1701.94 759.185 1714.08 735.354 C 1718.36 726.921 1721.29 717.715 1725.06 710.328 L 1725.88 708.758 C 1727.44 754.129 1738.34 795.537 1704.28 832.357 C 1665.74 874.003 1600.35 877.574 1559.33 838.064 C 1546.63 825.836 1540.16 813.673 1530.68 799.093 C 1520.86 785.907 1502.48 766.489 1490.74 754.794 L 1323.21 920.528 C 1309.39 934.282 1294.98 947.477 1281.32 961.324 C 1243.55 999.97 1205.17 1038.02 1166.2 1075.46 C 1144.41 1096.58 1124.54 1119.62 1099 1136.09 C 1070.74 1154.31 1040.72 1162.76 1007.19 1162.46 C 984.252 1162.25 957.603 1157.02 937.257 1146.06 C 900.585 1126.3 869.583 1089.75 839.763 1061.34 C 810.814 1033.76 783.24 1004.74 754.077 977.848 C 717.348 1011.52 685.095 1045.39 649.937 1080.57 C 610.987 1119.54 570.557 1157.58 531.721 1196.74 C 508.823 1220.05 485.614 1243.06 462.1 1265.75 C 449.306 1278.3 432.265 1296.72 417.838 1306.24 C 399.339 1318.37 377.514 1324.41 355.412 1323.53 C 327.744 1322.21 301.734 1309.96 283.108 1289.45 C 255.876 1260.04 252.8 1225.96 266.919 1189.74 C 272.041 1199.72 277.325 1209.96 285.117 1218.16 C 305.614 1239.71 333.632 1247.37 362.599 1244.1 z" fill="rgb(250,210,131)" transform="translate(0,0)"></path>
<path d="M 1195.76 443.637 C 1187.9 394.404 1208.92 352.625 1254.44 329.636 C 1265.75 323.926 1280.62 321.478 1292.68 317.537 C 1314.34 311.425 1336.47 306.207 1358.17 300.196 C 1407.53 286.229 1457.03 272.766 1506.66 259.81 C 1526.86 254.605 1556.14 246.24 1575.82 243.192 C 1617.74 236.703 1660.53 246.995 1694.92 271.839 C 1726.85 295.331 1752.32 333.598 1757.42 373.009 C 1762.33 410.919 1753.61 462.076 1749.19 501.104 C 1745.07 540.094 1740.71 579.058 1736.11 617.994 C 1732.64 647.822 1728.44 678.955 1725.88 708.758 L 1725.06 710.328 C 1721.29 717.715 1718.36 726.921 1714.08 735.354 C 1701.94 759.185 1681.08 777.414 1655.83 786.243 C 1636.95 792.8 1616.21 791.347 1598.43 782.221 C 1579.26 772.499 1569.6 759.009 1560.54 740.185 C 1568.22 742.94 1564.11 748.192 1569.39 751.549 L 1570.99 750.662 C 1571.63 744.979 1569.73 743.327 1565.77 739.828 L 1565.74 738.634 C 1572.77 742.458 1576.64 745.725 1584.94 745.213 C 1625.01 742.739 1628.63 708.224 1632.23 678.447 C 1634.25 662.624 1636.15 646.786 1637.93 630.935 L 1653.14 496.474 C 1656.69 462.656 1663.29 427.602 1663.1 393.884 C 1663.82 366.9 1631.74 332.474 1604.16 336.919 C 1563.17 343.527 1519.15 358.032 1478.85 368.295 L 1357.33 399.276 C 1338.3 404.144 1318.44 408.609 1299.69 414.396 C 1293.37 416.344 1285.57 423.408 1281.16 428.507 C 1272.05 439.054 1267.27 454.087 1269.2 468.087 C 1272 488.464 1280.15 494.529 1294.2 505.996 C 1292.17 507.238 1288.58 506.959 1285.85 507.086 C 1273.02 506.899 1260.35 504.131 1248.61 498.948 C 1220.5 486.527 1206.67 471.39 1195.76 443.637 z" fill="rgb(165,105,6)" transform="translate(0,0)"></path>
<path d="M 1299.19 1053.4 C 1298.56 1022.94 1304.51 1002.06 1326.17 979.515 C 1348.06 956.734 1374.16 946.821 1405.58 946.733 C 1448.6 946.612 1491.8 946.793 1534.83 946.508 C 1560.57 946.632 1615.9 944.278 1638.56 949.556 C 1660.53 954.67 1680.68 965.688 1696.85 981.42 C 1738.71 1022.31 1736.92 1065.64 1730 1119.31 C 1726.46 1146.75 1723.41 1175.6 1720.67 1203.12 C 1719.48 1214.7 1718.47 1226.3 1717.65 1237.91 C 1717.41 1241.48 1716.71 1255.29 1716.11 1257.57 C 1719.09 1306.47 1731.33 1360.7 1696.26 1399.96 C 1659.14 1441.51 1598.74 1443.9 1557.56 1406.9 C 1536.88 1388.46 1531.28 1369.59 1516.41 1347.56 C 1448.17 1413.59 1380.43 1480.14 1313.18 1547.19 L 1260.16 1599.99 C 1242.16 1617.94 1221.38 1639.92 1199.97 1653.26 C 1169.52 1672.23 1134.18 1681.88 1098.32 1681.02 C 1028.7 1679.47 989.595 1637.86 943.635 1592.85 C 925.027 1574.63 907.01 1556 888.637 1537.61 L 811.329 1460.95 C 794.392 1444 769.947 1418.12 752.562 1402.81 L 510.651 1643.07 L 453.198 1699.91 C 442.095 1710.74 429.701 1723.87 417.01 1732.44 C 375.213 1760.68 320.797 1756.16 285.374 1719.75 C 254.15 1687.66 254.593 1656.25 265.29 1615.9 C 247.555 1547.9 300.772 1511.65 343.143 1469.45 C 379.13 1432.96 415.402 1396.76 451.954 1360.84 C 492.038 1320.44 532.417 1280.34 573.09 1240.53 C 626.603 1188.53 663.898 1146.94 744.905 1143.14 C 783.302 1141.3 821.387 1150.84 854.377 1170.58 C 879.297 1185.56 915.96 1225.17 937.925 1247.08 L 1046.55 1354.78 C 1065.72 1373.8 1085.07 1394.86 1105.03 1412.91 C 1180.25 1335.39 1260.27 1260.07 1335.1 1182.24 C 1332.67 1178.87 1332.65 1180.51 1329.9 1178.75 C 1295.95 1157.03 1279.71 1117.61 1290.01 1078.43 C 1292.33 1069.58 1295.86 1061.6 1299.19 1053.4 z" fill="rgb(202,148,55)" transform="translate(0,0)"></path>
<path d="M 1388.45 1129.64 C 1429.13 1112.51 1467.95 1159.9 1450.6 1195.75 C 1441.41 1214.76 1410.8 1240.7 1395.21 1256.41 C 1357.75 1294.55 1319.88 1332.27 1281.58 1369.57 L 1202.06 1448.54 C 1183.57 1466.82 1159.3 1495.38 1135.02 1504.11 C 1112.76 1512.1 1088.21 1510.78 1066.95 1500.43 C 1047.61 1491.03 1015.21 1456.96 999.114 1440.8 L 889.092 1331.52 C 867.789 1310.28 846.657 1288.86 824.975 1268.11 C 795.902 1240.29 752.788 1233.69 715.211 1245.64 C 686.408 1254.8 663.264 1284.11 642.037 1305.04 L 540.102 1407.07 L 417.221 1530.28 C 398.436 1548.97 379.123 1566.98 360.41 1585.75 C 337.189 1609.05 328.783 1647.44 358.305 1669.96 C 310.521 1671.99 286.48 1658.66 265.29 1615.9 C 247.555 1547.9 300.772 1511.65 343.143 1469.45 C 379.13 1432.96 415.402 1396.76 451.954 1360.84 C 492.038 1320.44 532.417 1280.34 573.09 1240.53 C 626.603 1188.53 663.898 1146.94 744.905 1143.14 C 783.302 1141.3 821.387 1150.84 854.377 1170.58 C 879.297 1185.56 915.96 1225.17 937.925 1247.08 L 1046.55 1354.78 C 1065.72 1373.8 1085.07 1394.86 1105.03 1412.91 C 1180.25 1335.39 1260.27 1260.07 1335.1 1182.24 C 1339.88 1179.8 1380.53 1136.99 1388.45 1129.64 z" fill="rgb(165,105,6)" transform="translate(0,0)"></path>
<path d="M 358.305 1669.96 C 393.317 1666.92 407.978 1642.1 431.199 1619.35 C 524.426 1528.01 615.465 1434.31 709.318 1343.62 C 730.478 1323.17 755.965 1321.14 781.951 1333.72 C 801.525 1343.97 821.451 1371.7 838.391 1386.57 C 883.426 1431.69 928.947 1477.57 975.026 1521.61 C 990.288 1536.2 1026.54 1575.35 1041.15 1585.36 C 1057.96 1596.92 1077.67 1603.56 1098.05 1604.53 C 1152.53 1606.74 1178.5 1582.15 1212.81 1545.76 C 1226.58 1531.15 1243.84 1515.55 1258.26 1501.09 L 1437.36 1322.74 C 1449.48 1310.78 1461.67 1298.83 1473.58 1286.67 C 1480.41 1279.69 1486.48 1271.53 1493.65 1264.99 L 1495.16 1263.61 C 1502.32 1257.02 1514.25 1255.54 1523.28 1259.07 C 1541.26 1266.09 1544.58 1285.79 1552.06 1301.11 L 1552.5 1301.99 C 1553.8 1305.45 1555.25 1308.85 1556.86 1312.17 C 1594.03 1389.39 1694.37 1361.53 1710.35 1286.09 C 1712.12 1277.73 1713.41 1264.94 1716.11 1257.57 C 1719.09 1306.47 1731.33 1360.7 1696.26 1399.96 C 1659.14 1441.51 1598.74 1443.9 1557.56 1406.9 C 1536.88 1388.46 1531.28 1369.59 1516.41 1347.56 C 1448.17 1413.59 1380.43 1480.14 1313.18 1547.19 L 1260.16 1599.99 C 1242.16 1617.94 1221.38 1639.92 1199.97 1653.26 C 1169.52 1672.23 1134.18 1681.88 1098.32 1681.02 C 1028.7 1679.47 989.595 1637.86 943.635 1592.85 C 925.027 1574.63 907.01 1556 888.637 1537.61 L 811.329 1460.95 C 794.392 1444 769.947 1418.12 752.562 1402.81 L 510.651 1643.07 L 453.198 1699.91 C 442.095 1710.74 429.701 1723.87 417.01 1732.44 C 375.213 1760.68 320.797 1756.16 285.374 1719.75 C 254.15 1687.66 254.593 1656.25 265.29 1615.9 C 286.48 1658.66 310.521 1671.99 358.305 1669.96 z" fill="rgb(250,210,131)" transform="translate(0,0)"></path>
<path d="M 1299.19 1053.4 C 1298.56 1022.94 1304.51 1002.06 1326.17 979.515 C 1348.06 956.734 1374.16 946.821 1405.58 946.733 C 1448.6 946.612 1491.8 946.793 1534.83 946.508 C 1560.57 946.632 1615.9 944.278 1638.56 949.556 C 1660.53 954.67 1680.68 965.688 1696.85 981.42 C 1738.71 1022.31 1736.92 1065.64 1730 1119.31 C 1726.46 1146.75 1723.41 1175.6 1720.67 1203.12 C 1719.48 1214.7 1718.47 1226.3 1717.65 1237.91 C 1717.41 1241.48 1716.71 1255.29 1716.11 1257.57 C 1713.41 1264.94 1712.12 1277.73 1710.35 1286.09 C 1694.37 1361.53 1594.03 1389.39 1556.86 1312.17 C 1555.25 1308.85 1553.8 1305.45 1552.5 1301.99 C 1556.58 1302.43 1568.25 1314.58 1577.22 1314.78 C 1602.54 1315.34 1614.14 1293.68 1616.54 1271.79 C 1622.97 1212.97 1629.78 1154.17 1637.19 1095.53 C 1645.11 1032.84 1609.29 1039.75 1564.28 1039.99 L 1489.57 1040.34 L 1438.16 1040.05 C 1404.81 1039.77 1367.06 1039.06 1361.38 1085.82 C 1359.54 1100.94 1368.15 1114.23 1378.3 1125.03 L 1377.82 1126.35 L 1388.45 1129.64 C 1380.53 1136.99 1339.88 1179.8 1335.1 1182.24 C 1332.67 1178.87 1332.65 1180.51 1329.9 1178.75 C 1295.95 1157.03 1279.71 1117.61 1290.01 1078.43 C 1292.33 1069.58 1295.86 1061.6 1299.19 1053.4 z" fill="rgb(165,105,6)" transform="translate(0,0)"></path>
<path d="M 1299.19 1053.4 C 1305.94 1096.39 1336.74 1118.7 1377.82 1126.35 L 1388.45 1129.64 C 1380.53 1136.99 1339.88 1179.8 1335.1 1182.24 C 1332.67 1178.87 1332.65 1180.51 1329.9 1178.75 C 1295.95 1157.03 1279.71 1117.61 1290.01 1078.43 C 1292.33 1069.58 1295.86 1061.6 1299.19 1053.4 z" fill="rgb(250,210,131)" transform="translate(0,0)"></path>
<path d="M 1195.76 443.637 C 1206.67 471.39 1220.5 486.527 1248.61 498.948 C 1260.35 504.131 1273.02 506.899 1285.85 507.086 C 1290.58 507.791 1293.18 508.119 1297.94 508.208 C 1315.91 519.596 1333 533.109 1351.28 544.825 C 1345.92 551.543 1341.83 558.069 1336.65 564.797 C 1329.85 573.633 1321.34 581.079 1313.01 588.469 C 1292.81 584.229 1266.97 584.52 1248.75 576.208 C 1194.16 551.313 1172.65 498.036 1195.76 443.637 z" fill="rgb(250,210,131)" transform="translate(0,0)"></path>
<metadata><recraft-signature>{"signed_by": "recraft", "signature_b64": "3mLau3jO2TMmnpir32uOXpzEw6SDItiB8imEhkrlwZdukxpFGSz8wZSpP/8q2CJ19wo5a5sCsHNEOc9CPQzQCA==", "signing_algo": "Ed25519", "generation_timestamp": 1781914902, "identifier": "74507791-e78f-4a42-bc7a-45df0980af6e"}</recraft-signature></metadata></svg>