<svg xmlns="http://www.w3.org/2000/svg" height="1024" preserveAspectRatio="none" style="display: block;" version="1.1" viewBox="0 0 2048 2048" width="1024">
<path d="M 616.358 872.045 C 616.932 864.105 616.356 851.109 616.279 842.901 L 616.049 789.223 L 616.042 586.848 C 615.884 489.276 654.716 395.685 723.903 326.886 C 781.548 270.131 856.656 234.486 937.074 225.717 C 959.221 223.438 981.829 223.973 1004.1 223.966 C 1031.41 223.875 1058.72 223.94 1086.02 224.162 C 1153.43 223.078 1219 236.198 1277.4 271.007 C 1286.64 276.513 1303.11 286.212 1310.15 293.742 C 1324.4 302.561 1339.06 316.614 1350.78 328.759 C 1397.66 376.682 1430.48 436.559 1445.66 501.857 C 1455.13 542.196 1454.09 582.803 1454.06 623.989 C 1454.03 652.937 1457.03 681.228 1440.85 706.951 C 1429.15 725.552 1403.46 746.543 1380.61 747.572 C 1375.91 748.519 1374.2 748.975 1369.41 749.03 C 1361.25 750.391 1326.04 749.987 1315.98 749.752 C 1296.41 749.293 1268.02 750.818 1249.12 749.265 C 1242.35 748.719 1235.67 747.37 1229.22 745.245 C 1199.56 735.981 1177.24 711.374 1170.9 680.948 C 1165.8 656.009 1170.29 621.889 1168.87 595.883 C 1168.96 584.404 1168.83 572.869 1167.71 561.428 C 1161.13 494.062 1106.78 420.506 1040.68 399.977 C 1033.32 402.698 1026.82 406.346 1019.14 408.7 C 1008.71 416.109 1000.1 420.142 989.379 428.735 C 948.143 462.266 920.609 509.734 911.976 562.176 C 910.502 570.695 909.682 579.774 908.834 588.403 C 908.428 648.691 908.343 708.982 908.577 769.271 C 908.633 796.262 907.479 836.297 909.073 861.853 C 953.857 862.142 998.642 862.192 1043.43 862.004 C 1061.32 861.983 1090.6 861.041 1107.68 862.117 L 1250.79 862.034 C 1279.33 862.029 1310.27 861.282 1338.53 862.025 C 1348.48 860.985 1376.78 861.716 1386.33 864.043 C 1400.54 864.522 1414.8 868.701 1428.17 872.701 C 1475.31 886.803 1517.24 913.207 1550.5 949.395 C 1560.52 960.295 1586.72 992.423 1591.5 1005.88 C 1606.03 1025.39 1619.73 1072.46 1622.88 1096.65 C 1626.1 1121.35 1626.07 1147.14 1626.19 1172.03 L 1626.11 1274.18 L 1626.27 1381.62 C 1626.2 1425.79 1627.16 1468.1 1612.11 1510.54 C 1610.68 1514.57 1607.01 1524.9 1604.58 1527.93 C 1560.48 1636.43 1446.71 1707.39 1329.68 1698.08 C 1323.39 1698.89 1308.82 1698.19 1302 1698.36 C 1285.31 1698.76 1268.57 1698.33 1251.89 1698.02 C 1229.47 1698.41 1206.32 1699.31 1183.99 1698.78 C 1156.77 1700.11 1118.46 1698.94 1090.26 1698.97 L 904.857 1699.03 L 779.475 1698.45 C 742.286 1698.62 700.314 1699.93 663.617 1696.88 C 634.134 1694.2 605.384 1686.19 578.764 1673.23 C 513.682 1641.55 463.521 1585.74 438.941 1517.66 C 431.597 1496.31 426.878 1474.14 424.886 1451.65 C 422.929 1428.83 423.397 1401.36 423.325 1378.31 L 423.829 1248.33 C 423.954 1220.78 423.94 1193.23 423.786 1165.68 C 423.694 1143.13 422.926 1120.09 425.64 1097.75 C 429.28 1069.29 437.44 1041.6 449.814 1015.71 C 483.843 944.695 543.216 897.659 616.358 872.045 z M 663.617 1696.88 L 662.085 1694.86 C 678.33 1694.83 783.661 1698.24 792.681 1694.79 L 792.36 1693.32 C 779.585 1691.17 768.428 1688.5 756.163 1684.52 C 750.117 1682.56 739.949 1678.63 734.035 1679.15 L 733.493 1677.45 L 733.065 1677.19 C 727.776 1673.95 721.28 1671.44 715.556 1668.97 C 712.002 1667.24 708.568 1665.79 705.01 1664.14 C 703.583 1663.22 692.686 1657.39 691.101 1656.72 C 667.801 1643.2 646.497 1626.5 627.803 1607.11 C 580.402 1558.92 551.097 1495.84 544.844 1428.54 C 540.177 1378.12 544.689 1322.77 543.011 1271.88 C 542.209 1247.58 542.747 1220.91 543.179 1196.53 C 544.653 1188.32 543.225 1179.66 545.112 1170.44 C 545.613 1167.66 545.805 1157.01 546.027 1153.22 C 546.81 1139.89 547.427 1127.47 549.372 1114.2 C 558.967 1052.18 588.056 994.82 632.427 950.436 C 646.823 936.156 659.396 926.556 675.504 914.517 C 710.243 892.02 748.971 876.387 789.594 868.465 C 825.093 861.744 881.232 864.429 919.262 864.074 C 992.683 863.388 1066.74 864.714 1140.21 863.86 C 1130.89 862.696 1117.87 862.976 1107.68 862.117 C 1090.6 861.041 1061.32 861.983 1043.43 862.004 C 998.642 862.192 953.857 862.142 909.073 861.853 C 907.479 836.297 908.633 796.262 908.577 769.271 C 908.343 708.982 908.428 648.691 908.834 588.403 C 909.682 579.774 910.502 570.695 911.976 562.176 C 920.609 509.734 948.143 462.266 989.379 428.735 C 1000.1 420.142 1008.71 416.109 1019.14 408.7 C 1026.82 406.346 1033.32 402.698 1040.68 399.977 C 1106.78 420.506 1161.13 494.062 1167.71 561.428 C 1168.83 572.869 1168.96 584.404 1168.87 595.883 C 1170.29 621.889 1165.8 656.009 1170.9 680.948 C 1177.24 711.374 1199.56 735.981 1229.22 745.245 C 1235.67 747.37 1242.35 748.719 1249.12 749.265 C 1268.02 750.818 1296.41 749.293 1315.98 749.752 C 1326.04 749.987 1361.25 750.391 1369.41 749.03 C 1374.2 748.975 1375.91 748.519 1380.61 747.572 C 1403.46 746.543 1429.15 725.552 1440.85 706.951 C 1457.03 681.228 1454.03 652.937 1454.06 623.989 C 1454.09 582.803 1455.13 542.196 1445.66 501.857 C 1430.48 436.559 1397.66 376.682 1350.78 328.759 C 1339.06 316.614 1324.4 302.561 1310.15 293.742 C 1303.11 286.212 1286.64 276.513 1277.4 271.007 C 1219 236.198 1153.43 223.078 1086.02 224.162 C 1058.72 223.94 1031.41 223.875 1004.1 223.966 C 981.829 223.973 959.221 223.438 937.074 225.717 C 856.656 234.486 781.548 270.131 723.903 326.886 C 654.716 395.685 615.884 489.276 616.042 586.848 L 616.049 789.223 L 616.279 842.901 C 616.356 851.109 616.932 864.105 616.358 872.045 C 543.216 897.659 483.843 944.695 449.814 1015.71 C 437.44 1041.6 429.28 1069.29 425.64 1097.75 C 422.926 1120.09 423.694 1143.13 423.786 1165.68 C 423.94 1193.23 423.954 1220.78 423.829 1248.33 L 423.325 1378.31 C 423.397 1401.36 422.929 1428.83 424.886 1451.65 C 426.878 1474.14 431.597 1496.31 438.941 1517.66 C 463.521 1585.74 513.682 1641.55 578.764 1673.23 C 605.384 1686.19 634.134 1694.2 663.617 1696.88 z" fill="rgb(231,142,22)" transform="translate(0,0)"></path>
<path d="M 691.101 1656.72 C 692.686 1657.39 703.583 1663.22 705.01 1664.14 C 702.934 1665.58 701.129 1668.81 699.81 1671.06 C 693.575 1670 692.488 1666.1 684.99 1666.83 C 679.901 1667.33 681.774 1659.84 683.71 1657.66 C 684.533 1656.73 689.616 1656.87 691.101 1656.72 z" fill="rgb(233,214,173)" fill-opacity="0.811765" transform="translate(0,0)"></path>
<path d="M 715.556 1668.97 C 721.28 1671.44 727.776 1673.95 733.065 1677.19 L 733.493 1677.45 C 732.077 1677.69 730.665 1677.95 729.257 1678.24 C 724.108 1677.88 719.39 1677.97 714.288 1677.08 C 710.772 1673.67 711.31 1674.67 706.85 1672.94 C 711.835 1671.93 710.103 1672.22 714.059 1669.85 L 715.556 1668.97 z" fill="rgb(233,214,173)" fill-opacity="0.894118" transform="translate(0,0)"></path>
<path d="M 705.01 1664.14 C 708.568 1665.79 712.002 1667.24 715.556 1668.97 L 714.059 1669.85 C 710.103 1672.22 711.835 1671.93 706.85 1672.94 C 704.349 1672.19 702.364 1671.61 699.81 1671.06 C 701.129 1668.81 702.934 1665.58 705.01 1664.14 z" fill="rgb(233,214,173)" fill-opacity="0.47451" transform="translate(0,0)"></path>
<path d="M 616.358 872.045 C 616.932 864.105 616.356 851.109 616.279 842.901 L 616.049 789.223 L 616.042 586.848 C 615.884 489.276 654.716 395.685 723.903 326.886 C 781.548 270.131 856.656 234.486 937.074 225.717 C 959.221 223.438 981.829 223.973 1004.1 223.966 C 1031.41 223.875 1058.72 223.94 1086.02 224.162 C 1153.43 223.078 1219 236.198 1277.4 271.007 C 1286.64 276.513 1303.11 286.212 1310.15 293.742 C 1324.4 302.561 1339.06 316.614 1350.78 328.759 C 1397.66 376.682 1430.48 436.559 1445.66 501.857 C 1455.13 542.196 1454.09 582.803 1454.06 623.989 C 1454.03 652.937 1457.03 681.228 1440.85 706.951 C 1429.15 725.552 1403.46 746.543 1380.61 747.572 C 1375.91 748.519 1374.2 748.975 1369.41 749.03 C 1361.25 750.391 1326.04 749.987 1315.98 749.752 C 1296.41 749.293 1268.02 750.818 1249.12 749.265 C 1242.35 748.719 1235.67 747.37 1229.22 745.245 C 1199.56 735.981 1177.24 711.374 1170.9 680.948 C 1165.8 656.009 1170.29 621.889 1168.87 595.883 C 1168.96 584.404 1168.83 572.869 1167.71 561.428 C 1161.13 494.062 1106.78 420.506 1040.68 399.977 C 1033.32 402.698 1026.82 406.346 1019.14 408.7 C 1008.71 416.109 1000.1 420.142 989.379 428.735 C 948.143 462.266 920.609 509.734 911.976 562.176 C 910.502 570.695 909.682 579.774 908.834 588.403 C 908.428 648.691 908.343 708.982 908.577 769.271 C 908.633 796.262 907.479 836.297 909.073 861.853 C 953.857 862.142 998.642 862.192 1043.43 862.004 C 1061.32 861.983 1090.6 861.041 1107.68 862.117 C 1117.87 862.976 1130.89 862.696 1140.21 863.86 C 1066.74 864.714 992.683 863.388 919.262 864.074 C 881.232 864.429 825.093 861.744 789.594 868.465 C 748.971 876.387 710.243 892.02 675.504 914.517 C 659.396 926.556 646.823 936.156 632.427 950.436 C 588.056 994.82 558.967 1052.18 549.372 1114.2 C 547.427 1127.47 546.81 1139.89 546.027 1153.22 C 545.805 1157.01 545.613 1167.66 545.112 1170.44 C 543.225 1179.66 544.653 1188.32 543.179 1196.53 C 542.747 1220.91 542.209 1247.58 543.011 1271.88 C 544.689 1322.77 540.177 1378.12 544.844 1428.54 C 551.097 1495.84 580.402 1558.92 627.803 1607.11 C 646.497 1626.5 667.801 1643.2 691.101 1656.72 C 689.616 1656.87 684.533 1656.73 683.71 1657.66 C 681.774 1659.84 679.901 1667.33 684.99 1666.83 C 692.488 1666.1 693.575 1670 699.81 1671.06 C 702.364 1671.61 704.349 1672.19 706.85 1672.94 C 711.31 1674.67 710.772 1673.67 714.288 1677.08 C 719.39 1677.97 724.108 1677.88 729.257 1678.24 C 730.665 1677.95 732.077 1677.69 733.493 1677.45 L 734.035 1679.15 C 739.949 1678.63 750.117 1682.56 756.163 1684.52 C 768.428 1688.5 779.585 1691.17 792.36 1693.32 L 792.681 1694.79 C 783.661 1698.24 678.33 1694.83 662.085 1694.86 L 663.617 1696.88 C 634.134 1694.2 605.384 1686.19 578.764 1673.23 C 513.682 1641.55 463.521 1585.74 438.941 1517.66 C 431.597 1496.31 426.878 1474.14 424.886 1451.65 C 422.929 1428.83 423.397 1401.36 423.325 1378.31 L 423.829 1248.33 C 423.954 1220.78 423.94 1193.23 423.786 1165.68 C 423.694 1143.13 422.926 1120.09 425.64 1097.75 C 429.28 1069.29 437.44 1041.6 449.814 1015.71 C 483.843 944.695 543.216 897.659 616.358 872.045 z M 947.32 274.571 C 958.418 272.414 969.106 270.266 980.257 268.189 C 991.118 268.471 986.383 262.029 977.323 264.628 C 971.534 264.822 967.676 265.249 961.992 264.055 C 955.73 262.662 950.473 262.911 944.247 264.533 C 936.98 271.553 938.882 271.343 947.32 274.571 z M 734.966 373.911 C 737.017 378.732 737.292 379.438 741.309 374.237 C 744.967 369.502 749.126 365.795 753.022 361.137 C 757.278 356.085 764.137 351.582 767.336 346.069 C 767.707 345.431 765.932 343.283 765.68 342.94 C 756.58 350.458 742.36 364.778 734.966 373.911 z M 708.079 888.558 C 714 886.158 724.519 883.851 710.47 883.371 C 705.218 883.973 694.052 885.997 691.419 890.633 C 686.271 899.699 707.311 888.89 708.079 888.558 z M 585.95 921.024 C 585.169 921.567 585.393 921.375 584.628 922.112 C 587.693 929.594 595.228 922.554 587.477 921.339 L 585.95 921.024 z" fill="rgb(231,142,22)" transform="translate(0,0)"></path>
<path d="M 734.966 373.911 C 742.36 364.778 756.58 350.458 765.68 342.94 C 765.932 343.283 767.707 345.431 767.336 346.069 C 764.137 351.582 757.278 356.085 753.022 361.137 C 749.126 365.795 744.967 369.502 741.309 374.237 C 737.292 379.438 737.017 378.732 734.966 373.911 z" fill="rgb(233,214,173)" fill-opacity="0.937255" transform="translate(0,0)"></path>
<path d="M 710.47 883.371 C 724.519 883.851 714 886.158 708.079 888.558 C 707.311 888.89 686.271 899.699 691.419 890.633 C 694.052 885.997 705.218 883.973 710.47 883.371 z" fill="rgb(233,214,173)" fill-opacity="0.0823529" transform="translate(0,0)"></path>
<path d="M 977.323 264.628 C 986.383 262.029 991.118 268.471 980.257 268.189 C 979.163 266.598 978.807 265.79 977.323 264.628 z" fill="rgb(247,212,163)" fill-opacity="0.0784314" transform="translate(0,0)"></path>
<path d="M 584.628 922.112 C 585.393 921.375 585.169 921.567 585.95 921.024 L 587.477 921.339 C 595.228 922.554 587.693 929.594 584.628 922.112 z" fill="rgb(233,214,173)" fill-opacity="0.952941" transform="translate(0,0)"></path>
<path d="M 1086.02 224.162 C 1153.43 223.078 1219 236.198 1277.4 271.007 C 1286.64 276.513 1303.11 286.212 1310.15 293.742 C 1324.4 302.561 1339.06 316.614 1350.78 328.759 C 1397.66 376.682 1430.48 436.559 1445.66 501.857 C 1455.13 542.196 1454.09 582.803 1454.06 623.989 C 1454.03 652.937 1457.03 681.228 1440.85 706.951 C 1429.15 725.552 1403.46 746.543 1380.61 747.572 C 1375.91 748.519 1374.2 748.975 1369.41 749.03 C 1366.76 748.757 1364.1 748.522 1361.44 748.325 C 1328.55 749.479 1294.81 747.913 1261.3 749.13 C 1278.49 740.986 1291.89 732.295 1304.22 717.419 C 1313.52 706.147 1320.06 692.859 1323.32 678.614 C 1325.8 667.539 1325.68 654.97 1325.3 643.616 C 1324.34 614.962 1326.73 584.482 1323.94 556.05 C 1323.91 553.873 1324.01 553.807 1323.29 551.883 C 1323.13 549.359 1323 546.833 1322.9 544.306 C 1322.85 543.639 1322.81 542.972 1322.76 542.305 C 1313.16 483.09 1294.69 432.921 1261.48 382.965 C 1260.98 382.016 1261.01 381.975 1260.34 381.191 C 1259.61 380.28 1259.21 379.908 1258.7 378.873 C 1255.99 375.019 1253.23 371.194 1250.43 367.399 C 1192.51 289.191 1109.2 240.835 1013.25 226.526 C 1022.63 225.764 1029.28 225.711 1038.74 225.829 C 1053.46 224.176 1070.44 225.392 1086.02 224.162 z" fill="rgb(169,105,10)" transform="translate(0,0)"></path>
<path d="M 1086.02 224.162 C 1153.43 223.078 1219 236.198 1277.4 271.007 C 1286.64 276.513 1303.11 286.212 1310.15 293.742 C 1305.77 292.255 1286.85 279.01 1280.56 275.156 C 1268.16 267.599 1255.3 260.818 1242.06 254.853 C 1198.93 235.472 1146.92 226.443 1099.71 225.66 C 1079.6 225.326 1059.07 226.759 1038.74 225.829 C 1053.46 224.176 1070.44 225.392 1086.02 224.162 z" fill="rgb(123,73,3)" transform="translate(0,0)"></path>
<path d="M 1361.44 748.325 C 1368.22 747.125 1373.92 745.893 1380.61 747.572 C 1375.91 748.519 1374.2 748.975 1369.41 749.03 C 1366.76 748.757 1364.1 748.522 1361.44 748.325 z" fill="rgb(123,73,3)" transform="translate(0,0)"></path>
<path d="M 585.95 921.024 C 619.227 901.401 671.06 880.474 710.526 881.13 L 710.47 883.371 C 705.218 883.973 694.052 885.997 691.419 890.633 C 686.271 899.699 707.311 888.89 708.079 888.558 C 709.298 889.588 710.442 890.537 711.705 891.52 C 698.095 898.479 687.627 904.12 674.852 912.89 L 675.504 914.517 C 659.396 926.556 646.823 936.156 632.427 950.436 C 588.056 994.82 558.967 1052.18 549.372 1114.2 C 547.427 1127.47 546.81 1139.89 546.027 1153.22 C 545.805 1157.01 545.613 1167.66 545.112 1170.44 C 543.225 1179.66 544.653 1188.32 543.179 1196.53 C 542.747 1220.91 542.209 1247.58 543.011 1271.88 C 544.689 1322.77 540.177 1378.12 544.844 1428.54 C 551.097 1495.84 580.402 1558.92 627.803 1607.11 C 646.497 1626.5 667.801 1643.2 691.101 1656.72 C 689.616 1656.87 684.533 1656.73 683.71 1657.66 C 681.774 1659.84 679.901 1667.33 684.99 1666.83 C 692.488 1666.1 693.575 1670 699.81 1671.06 C 702.364 1671.61 704.349 1672.19 706.85 1672.94 C 711.31 1674.67 710.772 1673.67 714.288 1677.08 C 710.108 1677.14 707.346 1676.83 703.193 1676.35 C 626.273 1667.64 556.091 1628.35 508.45 1567.34 L 507.855 1570.17 C 505.585 1567.4 503.931 1564.91 501.778 1562.13 L 502.49 1559.14 C 501.475 1557.59 500.471 1556.04 499.48 1554.48 C 460.697 1493.34 459.477 1451.83 459.687 1383.13 L 459.89 1298.99 L 459.749 1188.64 C 459.72 1168.31 459.098 1143.9 460.225 1123.84 C 460.859 1111.02 462.631 1098.29 465.522 1085.78 C 481.513 1015.32 523.926 960.229 584.628 922.112 C 587.693 929.594 595.228 922.554 587.477 921.339 L 585.95 921.024 z" fill="rgb(233,214,173)" transform="translate(0,0)"></path>
<path d="M 543.179 1196.53 C 542.682 1163.93 543.132 1132.24 549.611 1100.12 C 564.898 1023.58 609.944 956.237 674.852 912.89 L 675.504 914.517 C 659.396 926.556 646.823 936.156 632.427 950.436 C 588.056 994.82 558.967 1052.18 549.372 1114.2 C 547.427 1127.47 546.81 1139.89 546.027 1153.22 C 545.805 1157.01 545.613 1167.66 545.112 1170.44 C 543.225 1179.66 544.653 1188.32 543.179 1196.53 z" fill="rgb(68,39,11)" transform="translate(0,0)"></path>
<path d="M 502.49 1559.14 C 504.514 1561.84 506.552 1564.54 508.45 1567.34 L 507.855 1570.17 C 505.585 1567.4 503.931 1564.91 501.778 1562.13 L 502.49 1559.14 z" fill="rgb(68,39,11)" transform="translate(0,0)"></path>
<path d="M 858.786 426.423 C 863.55 422.693 874.744 416.38 880.07 413.544 C 932.302 385.729 981.979 381.803 1038.05 399.19 C 1032.84 401.259 1022.89 404.899 1019.14 408.7 C 1008.71 416.109 1000.1 420.142 989.379 428.735 C 948.143 462.266 920.609 509.734 911.976 562.176 C 910.502 570.695 909.682 579.774 908.834 588.403 C 906.107 598.153 906.888 649.314 906.878 662.515 L 906.916 792.766 C 906.899 814.774 907.468 840.245 906.558 862.033 C 876.566 862.544 834.923 862.759 805.236 861.726 C 798.237 861.87 774.287 862.305 767.93 861.589 L 767.913 671.648 C 767.925 648.718 766.733 596.302 769.36 575.652 C 769.818 574.14 769.723 574.042 769.774 572.326 L 770.32 568.057 C 770.602 567.249 770.587 567.254 770.633 566.407 C 771 563.762 771.709 560.449 772.212 557.765 C 772.251 556.619 772.203 556.564 772.482 555.504 C 782.068 522.621 784.475 519.299 799.342 489.072 C 799.723 488.437 799.712 488.345 800.245 487.824 C 803.124 484.005 804.924 481.068 807.406 477.036 C 807.891 476.368 807.843 476.281 808.484 475.96 C 820.699 457.023 840.137 441.013 857.486 427.084 C 858.287 426.853 858.21 426.947 858.786 426.423 z" fill="rgb(123,73,3)" transform="translate(0,0)"></path>
<path d="M 767.93 861.589 C 774.885 861.209 798.713 860.459 805.236 861.726 C 798.237 861.87 774.287 862.305 767.93 861.589 z" fill="rgb(90,56,12)" transform="translate(0,0)"></path>
<path d="M 765.68 342.94 C 767.867 340.388 778.21 331.962 781.046 329.767 C 820.014 299.649 865.175 278.546 913.279 267.978 C 921.459 266.255 936.106 263.493 944.247 264.533 C 936.98 271.553 938.882 271.343 947.32 274.571 C 949.833 275.057 953.509 274.692 955.12 275.21 L 955.207 275.35 C 953.711 277.276 950.541 275.607 948.356 279.461 C 928.368 288.242 913.812 293.468 894.366 304.795 C 829.113 343.602 778.69 403.092 751.099 473.822 C 720.345 553.057 727.026 612.62 727.054 696.534 L 726.999 860.127 C 718.519 860.04 683.576 859.375 677.333 860.616 C 667.5 860.828 661.67 861.599 652.013 863.335 L 651.755 685.547 C 651.725 656.413 652.016 627.024 651.825 597.923 C 651.265 512.712 680.75 439.072 734.966 373.911 C 737.017 378.732 737.292 379.438 741.309 374.237 C 744.967 369.502 749.126 365.795 753.022 361.137 C 757.278 356.085 764.137 351.582 767.336 346.069 C 767.707 345.431 765.932 343.283 765.68 342.94 z" fill="rgb(233,214,173)" transform="translate(0,0)"></path>
<path d="M 673.87 862.923 C 706.094 862.429 738.326 862.854 770.526 864.196 C 777.084 865.305 785.464 863.528 789.917 866.416 C 774.217 868.973 761.416 873.562 746.385 876.919 C 739.545 878.447 723.598 877.757 716.022 877.957 C 715.593 878.301 713.569 879.865 713.286 880.22 L 710.526 881.13 C 671.06 880.474 619.227 901.401 585.95 921.024 C 585.169 921.567 585.393 921.375 584.628 922.112 C 523.926 960.229 481.513 1015.32 465.522 1085.78 C 462.631 1098.29 460.859 1111.02 460.225 1123.84 C 459.098 1143.9 459.72 1168.31 459.749 1188.64 L 459.89 1298.99 L 459.687 1383.13 C 459.477 1451.83 460.697 1493.34 499.48 1554.48 C 500.471 1556.04 501.475 1557.59 502.49 1559.14 L 501.778 1562.13 C 503.931 1564.91 505.585 1567.4 507.855 1570.17 L 508.45 1567.34 C 556.091 1628.35 626.273 1667.64 703.193 1676.35 C 707.346 1676.83 710.108 1677.14 714.288 1677.08 C 719.39 1677.97 724.108 1677.88 729.257 1678.24 C 730.665 1677.95 732.077 1677.69 733.493 1677.45 L 734.035 1679.15 C 739.949 1678.63 750.117 1682.56 756.163 1684.52 C 768.428 1688.5 779.585 1691.17 792.36 1693.32 L 792.681 1694.79 C 783.661 1698.24 678.33 1694.83 662.085 1694.86 C 656.684 1695.56 642.348 1692.56 636.645 1691.3 C 593.58 1681.81 554.909 1661.52 521.304 1633.15 C 465.727 1586.34 431.366 1519.1 425.991 1446.64 C 424.424 1428.01 424.932 1406.11 424.939 1387.22 L 425.015 1296.44 L 424.872 1183.76 C 424.891 1145.95 423.019 1111.26 431.416 1074.03 C 440.92 1031.42 460.794 991.821 489.273 958.735 C 535.59 903.488 602.033 869.001 673.87 862.923 z" fill="rgb(231,142,22)" transform="translate(0,0)"></path>
<path d="M 457.743 1122.62 C 461.484 1068.68 482.521 1017.4 517.73 976.373 C 568.835 915.854 638.211 884.493 716.022 877.957 C 715.593 878.301 713.569 879.865 713.286 880.22 L 710.526 881.13 C 671.06 880.474 619.227 901.401 585.95 921.024 C 585.169 921.567 585.393 921.375 584.628 922.112 C 523.926 960.229 481.513 1015.32 465.522 1085.78 C 462.631 1098.29 460.859 1111.02 460.225 1123.84 C 459.098 1143.9 459.72 1168.31 459.749 1188.64 L 459.89 1298.99 L 459.687 1383.13 C 459.477 1451.83 460.697 1493.34 499.48 1554.48 C 500.471 1556.04 501.475 1557.59 502.49 1559.14 L 501.778 1562.13 C 475.266 1524.25 460.019 1479.64 457.803 1433.46 C 458.752 1424 458.149 1403.13 458.13 1392.74 L 457.938 1312.67 C 457.738 1250.89 459.542 1183.53 457.743 1122.62 z" fill="rgb(42,24,6)" transform="translate(0,0)"></path>
<path d="M 508.45 1567.34 C 556.091 1628.35 626.273 1667.64 703.193 1676.35 C 707.346 1676.83 710.108 1677.14 714.288 1677.08 C 719.39 1677.97 724.108 1677.88 729.257 1678.24 C 723.61 1678.83 719.292 1678.5 713.666 1679 C 709.947 1679.1 702.713 1678.14 698.714 1677.66 C 623.367 1668.53 554.725 1629.87 507.855 1570.17 L 508.45 1567.34 z" fill="rgb(28,15,3)" transform="translate(0,0)"></path>
<path d="M 457.803 1433.46 C 456.383 1423.96 457.014 1394.56 457.013 1383.91 L 456.987 1284.16 L 456.981 1177.49 C 456.981 1165.57 456.245 1133.35 457.743 1122.62 C 459.542 1183.53 457.738 1250.89 457.938 1312.67 L 458.13 1392.74 C 458.149 1403.13 458.752 1424 457.803 1433.46 z" fill="rgb(90,56,12)" transform="translate(0,0)"></path>
<path d="M 733.493 1677.45 L 734.035 1679.15 C 727.864 1680.41 719.859 1680.47 713.666 1679 C 719.292 1678.5 723.61 1678.83 729.257 1678.24 C 730.665 1677.95 732.077 1677.69 733.493 1677.45 z" fill="rgb(123,73,3)" transform="translate(0,0)"></path>
<path d="M 963.14 259.902 C 979.922 259.898 1007.06 260.255 1022.45 265.802 C 861.404 278.31 733.772 427.59 729.521 585.7 C 728.619 619.222 729.339 653.414 729.329 687.02 L 729.441 860.724 L 765.747 861.168 L 765.778 681.742 C 765.769 648.271 763.808 608.278 767.145 575.425 C 777.802 470.524 871.375 385.722 976.236 386.072 C 1027.45 386.443 1076.42 407.144 1112.37 443.622 C 1140.28 471.735 1160.77 511.393 1167.86 550.401 C 1172.95 578.409 1170.35 608.308 1170.89 636.72 C 1171.26 656.375 1169.23 676.918 1177.11 695.686 C 1189.03 724.119 1219.22 746.029 1250.17 747.492 C 1267.38 748.199 1286.94 732.264 1298.11 720.474 C 1324.6 692.82 1323.75 665.379 1323.02 629.764 C 1322.68 613.332 1322.99 595.981 1322.64 579.378 C 1322.43 571.536 1322.1 563.699 1321.67 555.866 C 1322.89 555.597 1322.8 555.538 1323.94 556.05 C 1326.73 584.482 1324.34 614.962 1325.3 643.616 C 1325.68 654.97 1325.8 667.539 1323.32 678.614 C 1320.06 692.859 1313.52 706.147 1304.22 717.419 C 1291.89 732.295 1278.49 740.986 1261.3 749.13 C 1294.81 747.913 1328.55 749.479 1361.44 748.325 C 1364.1 748.522 1366.76 748.757 1369.41 749.03 C 1361.25 750.391 1326.04 749.987 1315.98 749.752 C 1296.41 749.293 1268.02 750.818 1249.12 749.265 C 1242.35 748.719 1235.67 747.37 1229.22 745.245 C 1199.56 735.981 1177.24 711.374 1170.9 680.948 C 1165.8 656.009 1170.29 621.889 1168.87 595.883 C 1168.96 584.404 1168.83 572.869 1167.71 561.428 C 1161.13 494.062 1106.78 420.506 1040.68 399.977 C 1033.32 402.698 1026.82 406.346 1019.14 408.7 C 1022.89 404.899 1032.84 401.259 1038.05 399.19 C 981.979 381.803 932.302 385.729 880.07 413.544 C 874.744 416.38 863.55 422.693 858.786 426.423 C 858.21 426.947 858.287 426.853 857.486 427.084 C 840.137 441.013 820.699 457.023 808.484 475.96 C 807.843 476.281 807.891 476.368 807.406 477.036 C 804.924 481.068 803.124 484.005 800.245 487.824 C 799.712 488.345 799.723 488.437 799.342 489.072 C 784.475 519.299 782.068 522.621 772.482 555.504 C 772.203 556.564 772.251 556.619 772.212 557.765 C 771.709 560.449 771 563.762 770.633 566.407 C 770.587 567.254 770.602 567.249 770.32 568.057 L 769.774 572.326 C 769.723 574.042 769.818 574.14 769.36 575.652 C 766.733 596.302 767.925 648.718 767.913 671.648 L 767.93 861.589 C 774.287 862.305 798.237 861.87 805.236 861.726 C 834.923 862.759 876.566 862.544 906.558 862.033 C 907.468 840.245 906.899 814.774 906.916 792.766 L 906.878 662.515 C 906.888 649.314 906.107 598.153 908.834 588.403 C 908.428 648.691 908.343 708.982 908.577 769.271 C 908.633 796.262 907.479 836.297 909.073 861.853 C 953.857 862.142 998.642 862.192 1043.43 862.004 C 1061.32 861.983 1090.6 861.041 1107.68 862.117 C 1117.87 862.976 1130.89 862.696 1140.21 863.86 C 1066.74 864.714 992.683 863.388 919.262 864.074 C 881.232 864.429 825.093 861.744 789.594 868.465 C 748.971 876.387 710.243 892.02 675.504 914.517 L 674.852 912.89 C 687.627 904.12 698.095 898.479 711.705 891.52 C 710.442 890.537 709.298 889.588 708.079 888.558 C 714 886.158 724.519 883.851 710.47 883.371 L 710.526 881.13 L 713.286 880.22 C 713.569 879.865 715.593 878.301 716.022 877.957 C 723.598 877.757 739.545 878.447 746.385 876.919 C 761.416 873.562 774.217 868.973 789.917 866.416 C 785.464 863.528 777.084 865.305 770.526 864.196 C 738.326 862.854 706.094 862.429 673.87 862.923 C 675.324 862.41 676.145 862.164 677.676 861.764 L 679.144 861.389 L 677.333 860.616 C 683.576 859.375 718.519 860.04 726.999 860.127 L 727.054 696.534 C 727.026 612.62 720.345 553.057 751.099 473.822 C 778.69 403.092 829.113 343.602 894.366 304.795 C 913.812 293.468 928.368 288.242 948.356 279.461 C 950.541 275.607 953.711 277.276 955.207 275.35 L 955.12 275.21 C 953.509 274.692 949.833 275.057 947.32 274.571 C 958.418 272.414 969.106 270.266 980.257 268.189 C 991.118 268.471 986.383 262.029 977.323 264.628 C 971.534 264.822 967.676 265.249 961.992 264.055 L 959.844 261.551 L 958.906 261.116 L 963.14 259.902 z" fill="rgb(42,24,6)" transform="translate(0,0)"></path>
<path d="M 959.844 261.551 C 966.142 262.651 972.506 261.813 979 262.166 C 990.003 262.765 1000.58 263.765 1011.52 265.064 C 987.507 268.398 971.101 274.063 948.356 279.461 C 950.541 275.607 953.711 277.276 955.207 275.35 L 955.12 275.21 C 953.509 274.692 949.833 275.057 947.32 274.571 C 958.418 272.414 969.106 270.266 980.257 268.189 C 991.118 268.471 986.383 262.029 977.323 264.628 C 971.534 264.822 967.676 265.249 961.992 264.055 L 959.844 261.551 z" fill="rgb(247,212,163)" transform="translate(0,0)"></path>
<path d="M 713.286 880.22 C 722.698 880.038 731.337 879.788 740.763 880.099 C 730.222 883.909 722.059 886.881 711.705 891.52 C 710.442 890.537 709.298 889.588 708.079 888.558 C 714 886.158 724.519 883.851 710.47 883.371 L 710.526 881.13 L 713.286 880.22 z" fill="rgb(247,212,163)" transform="translate(0,0)"></path>
<path d="M 770.526 864.196 C 778.79 864.024 786.994 864.173 795.209 864.064 L 796.06 865.018 L 795.834 864.072 C 796.263 864.267 796.693 864.462 797.122 864.657 C 796.557 866.114 791.37 866.132 789.917 866.416 C 785.464 863.528 777.084 865.305 770.526 864.196 z" fill="rgb(169,105,10)" transform="translate(0,0)"></path>
<path d="M 769.774 572.326 C 769.723 574.042 769.818 574.14 769.36 575.652 C 769.047 573.782 768.799 573.802 769.774 572.326 z" fill="rgb(90,56,12)" transform="translate(0,0)"></path>
<path d="M 616.358 872.045 C 616.932 864.105 616.356 851.109 616.279 842.901 L 616.049 789.223 L 616.042 586.848 C 615.884 489.276 654.716 395.685 723.903 326.886 C 781.548 270.131 856.656 234.486 937.074 225.717 C 959.221 223.438 981.829 223.973 1004.1 223.966 C 1031.41 223.875 1058.72 223.94 1086.02 224.162 C 1070.44 225.392 1053.46 224.176 1038.74 225.829 C 1029.28 225.711 1022.63 225.764 1013.25 226.526 C 1109.2 240.835 1192.51 289.191 1250.43 367.399 C 1253.23 371.194 1255.99 375.019 1258.7 378.873 C 1259.21 379.908 1259.61 380.28 1260.34 381.191 C 1261.01 381.975 1260.98 382.016 1261.48 382.965 C 1294.69 432.921 1313.16 483.09 1322.76 542.305 L 1320.29 542.86 C 1308.79 461.277 1271.05 385.652 1212.78 327.404 C 1149.81 264.5 1058.84 225.268 969.533 225.721 C 876.187 226.902 787.1 264.968 721.724 331.609 C 662.543 391.863 626.197 470.849 618.933 554.993 C 615.821 591.837 617.788 642.205 617.843 680.109 L 617.943 871.689 C 628.474 868.362 639.108 866.07 649.861 863.579 L 649.71 677.985 C 649.693 646.181 648.3 599.076 650.703 568.095 C 656.839 494.263 686.79 424.422 736.047 369.082 C 780.692 318.576 843.301 281.513 909.215 266.524 C 927.452 262.376 944.62 261.079 963.14 259.902 L 958.906 261.116 L 959.844 261.551 L 961.992 264.055 C 955.73 262.662 950.473 262.911 944.247 264.533 C 936.106 263.493 921.459 266.255 913.279 267.978 C 865.175 278.546 820.014 299.649 781.046 329.767 C 778.21 331.962 767.867 340.388 765.68 342.94 C 756.58 350.458 742.36 364.778 734.966 373.911 C 680.75 439.072 651.265 512.712 651.825 597.923 C 652.016 627.024 651.725 656.413 651.755 685.547 L 652.013 863.335 C 661.67 861.599 667.5 860.828 677.333 860.616 L 679.144 861.389 L 677.676 861.764 C 676.145 862.164 675.324 862.41 673.87 862.923 C 602.033 869.001 535.59 903.488 489.273 958.735 C 460.794 991.821 440.92 1031.42 431.416 1074.03 C 423.019 1111.26 424.891 1145.95 424.872 1183.76 L 425.015 1296.44 L 424.939 1387.22 C 424.932 1406.11 424.424 1428.01 425.991 1446.64 C 431.366 1519.1 465.727 1586.34 521.304 1633.15 C 554.909 1661.52 593.58 1681.81 636.645 1691.3 C 642.348 1692.56 656.684 1695.56 662.085 1694.86 L 663.617 1696.88 C 634.134 1694.2 605.384 1686.19 578.764 1673.23 C 513.682 1641.55 463.521 1585.74 438.941 1517.66 C 431.597 1496.31 426.878 1474.14 424.886 1451.65 C 422.929 1428.83 423.397 1401.36 423.325 1378.31 L 423.829 1248.33 C 423.954 1220.78 423.94 1193.23 423.786 1165.68 C 423.694 1143.13 422.926 1120.09 425.64 1097.75 C 429.28 1069.29 437.44 1041.6 449.814 1015.71 C 483.843 944.695 543.216 897.659 616.358 872.045 z" fill="rgb(28,15,3)" transform="translate(0,0)"></path>
<path d="M 1322.76 542.305 C 1322.81 542.972 1322.85 543.639 1322.9 544.306 C 1323 546.833 1323.13 549.359 1323.29 551.883 L 1320.8 550.894 C 1320.83 548.886 1320.86 547.094 1320.76 545.077 C 1320.34 543.911 1320.36 544.089 1320.29 542.86 L 1322.76 542.305 z" fill="rgb(28,15,3)" transform="translate(0,0)"></path>
<path d="M 1322.76 542.305 C 1322.81 542.972 1322.85 543.639 1322.9 544.306 C 1321.92 544.607 1321.52 544.649 1320.76 545.077 C 1320.34 543.911 1320.36 544.089 1320.29 542.86 L 1322.76 542.305 z" fill="rgb(68,39,11)" transform="translate(0,0)"></path>
<path d="M 1320.8 550.894 L 1323.29 551.883 C 1324.01 553.807 1323.91 553.873 1323.94 556.05 C 1322.8 555.538 1322.89 555.597 1321.67 555.866 C 1320.98 553.913 1321.02 552.987 1320.8 550.894 z" fill="rgb(68,39,11)" transform="translate(0,0)"></path>
<path d="M 1338.53 862.025 C 1348.48 860.985 1376.78 861.716 1386.33 864.043 C 1400.54 864.522 1414.8 868.701 1428.17 872.701 C 1475.31 886.803 1517.24 913.207 1550.5 949.395 C 1560.52 960.295 1586.72 992.423 1591.5 1005.88 C 1606.03 1025.39 1619.73 1072.46 1622.88 1096.65 C 1626.1 1121.35 1626.07 1147.14 1626.19 1172.03 L 1626.11 1274.18 L 1626.27 1381.62 C 1626.2 1425.79 1627.16 1468.1 1612.11 1510.54 C 1610.68 1514.57 1607.01 1524.9 1604.58 1527.93 C 1560.48 1636.43 1446.71 1707.39 1329.68 1698.08 C 1323.39 1698.89 1308.82 1698.19 1302 1698.36 C 1285.31 1698.76 1268.57 1698.33 1251.89 1698.02 L 1251.61 1697.12 C 1245.04 1697.98 1244.97 1696.85 1239.16 1696.14 C 1239.83 1694.46 1239.85 1694.24 1242.02 1693.87 C 1316.79 1680.98 1379.01 1643.02 1426.45 1581.78 C 1452.24 1548.56 1470.21 1509.95 1479.03 1468.82 C 1487.59 1429.1 1485.27 1396.42 1485.19 1356.24 L 1485.2 1244.65 L 1485.27 1166.35 C 1485.28 1148.69 1485.93 1128.04 1483.75 1110.81 C 1483.8 1109.43 1483.94 1109.42 1483.37 1108.35 C 1482.38 1082.68 1464.54 1033.03 1451.18 1010.94 L 1449.98 1013.25 C 1436.73 990.685 1424.93 973.496 1406.49 954.28 C 1356.88 902.493 1290.07 870.603 1218.61 864.602 C 1196.45 862.815 1163.74 864.275 1140.21 863.86 C 1130.89 862.696 1117.87 862.976 1107.68 862.117 L 1250.79 862.034 C 1279.33 862.029 1310.27 861.282 1338.53 862.025 z" fill="rgb(169,105,10)" transform="translate(0,0)"></path>
<path d="M 1591.5 1005.88 C 1606.03 1025.39 1619.73 1072.46 1622.88 1096.65 C 1626.1 1121.35 1626.07 1147.14 1626.19 1172.03 L 1626.11 1274.18 L 1626.27 1381.62 C 1626.2 1425.79 1627.16 1468.1 1612.11 1510.54 C 1610.68 1514.57 1607.01 1524.9 1604.58 1527.93 C 1604.46 1524.53 1616.25 1491.88 1617.86 1484.17 C 1625.01 1449.89 1624 1418.62 1624.04 1383.95 L 1624.01 1282.45 L 1624.04 1179.96 C 1623.97 1126.64 1625.35 1079.02 1601.99 1029.73 C 1599.08 1023.59 1594.11 1013.96 1592.11 1007.81 L 1591.5 1005.88 z" fill="rgb(90,56,12)" transform="translate(0,0)"></path>
<path d="M 1107.68 862.117 L 1250.79 862.034 C 1279.33 862.029 1310.27 861.282 1338.53 862.025 C 1329.78 863.399 1314.64 862.884 1304.98 863.83 C 1285.61 863.907 1257.71 863.201 1239.01 864.266 C 1257.42 868.808 1271.76 871.272 1290.06 877.496 C 1351.91 898.288 1404.97 939.273 1440.71 993.861 C 1441.03 994.617 1440.99 994.502 1441.56 995.13 C 1444.49 999.868 1448.65 1006.16 1451.18 1010.94 L 1449.98 1013.25 C 1436.73 990.685 1424.93 973.496 1406.49 954.28 C 1356.88 902.493 1290.07 870.603 1218.61 864.602 C 1196.45 862.815 1163.74 864.275 1140.21 863.86 C 1130.89 862.696 1117.87 862.976 1107.68 862.117 z" fill="rgb(28,15,3)" transform="translate(0,0)"></path>
<path d="M 1251.61 1697.12 C 1259.19 1695.89 1327.45 1695.65 1329.68 1698.08 C 1323.39 1698.89 1308.82 1698.19 1302 1698.36 C 1285.31 1698.76 1268.57 1698.33 1251.89 1698.02 L 1251.61 1697.12 z" fill="rgb(176,92,14)" transform="translate(0,0)"></path>
<path d="M 1338.53 862.025 C 1348.48 860.985 1376.78 861.716 1386.33 864.043 C 1383.92 864.274 1381.42 864.604 1379 864.372 C 1355.19 862.092 1328.28 865.447 1304.98 863.83 C 1314.64 862.884 1329.78 863.399 1338.53 862.025 z" fill="rgb(90,56,12)" transform="translate(0,0)"></path>
<path d="M 1451.18 1010.94 C 1464.54 1033.03 1482.38 1082.68 1483.37 1108.35 C 1483.94 1109.42 1483.8 1109.43 1483.75 1110.81 C 1485.93 1128.04 1485.28 1148.69 1485.27 1166.35 L 1485.2 1244.65 L 1485.19 1356.24 C 1485.27 1396.42 1487.59 1429.1 1479.03 1468.82 C 1470.21 1509.95 1452.24 1548.56 1426.45 1581.78 C 1379.01 1643.02 1316.79 1680.98 1242.02 1693.87 C 1239.85 1694.24 1239.83 1694.46 1239.16 1696.14 C 1244.97 1696.85 1245.04 1697.98 1251.61 1697.12 L 1251.89 1698.02 C 1229.47 1698.41 1206.32 1699.31 1183.99 1698.78 C 1190.95 1698.18 1196.74 1699.1 1204.26 1698.13 L 1205.28 1696.23 C 1236.43 1698.88 1298.5 1677.85 1327.15 1663.12 C 1395.54 1627.21 1447.08 1565.88 1470.67 1492.34 C 1476.99 1472.24 1480.93 1451.47 1482.42 1430.46 C 1483.66 1414 1482.98 1389.46 1482.97 1372.49 L 1482.93 1274.02 L 1482.98 1178.16 C 1483.01 1110.2 1482.3 1075.65 1449.98 1013.25 L 1451.18 1010.94 z" fill="rgb(28,15,3)" transform="translate(0,0)"></path>
<path d="M 543.179 1196.53 C 544.653 1188.32 543.225 1179.66 545.112 1170.44 C 545.99 1223.95 544.702 1278.11 545.25 1331.64 C 545.578 1363.72 544.238 1402.45 547.786 1434 C 555.518 1501.41 586.406 1564.06 635.179 1611.24 C 672.66 1647.26 718.705 1673.13 768.965 1686.4 C 781.792 1689.86 794.588 1691.7 807.471 1694.59 C 803.136 1695.19 796.857 1693.96 792.36 1693.32 C 779.585 1691.17 768.428 1688.5 756.163 1684.52 C 750.117 1682.56 739.949 1678.63 734.035 1679.15 L 733.493 1677.45 L 733.065 1677.19 C 727.776 1673.95 721.28 1671.44 715.556 1668.97 C 712.002 1667.24 708.568 1665.79 705.01 1664.14 C 703.583 1663.22 692.686 1657.39 691.101 1656.72 C 667.801 1643.2 646.497 1626.5 627.803 1607.11 C 580.402 1558.92 551.097 1495.84 544.844 1428.54 C 540.177 1378.12 544.689 1322.77 543.011 1271.88 C 542.209 1247.58 542.747 1220.91 543.179 1196.53 z" fill="rgb(42,24,6)" transform="translate(0,0)"></path>
<path d="M 792.36 1693.32 C 796.857 1693.96 803.136 1695.19 807.471 1694.59 C 810.575 1693.47 825.405 1695.48 830.512 1695.69 C 851.566 1696.52 872.54 1696.55 893.607 1696.51 L 1106.74 1696.53 L 1170.27 1696.27 C 1179.13 1696.21 1197.05 1695.55 1205.28 1696.23 L 1204.26 1698.13 C 1196.74 1699.1 1190.95 1698.18 1183.99 1698.78 C 1156.77 1700.11 1118.46 1698.94 1090.26 1698.97 L 904.857 1699.03 L 779.475 1698.45 C 742.286 1698.62 700.314 1699.93 663.617 1696.88 L 662.085 1694.86 C 678.33 1694.83 783.661 1698.24 792.681 1694.79 L 792.36 1693.32 z" fill="rgb(176,92,14)" transform="translate(0,0)"></path>
<metadata><recraft-signature>{"signed_by": "recraft", "signature_b64": "hBwWlFI06rHhcVjBYmsNN5pVgxK+uUm5BerY/DkZH9B/s7Tbto4pwxItQVaUsM1CtqlFRctul1l1j4Zy1tKvAQ==", "signing_algo": "Ed25519", "generation_timestamp": 1781914905, "identifier": "fbcda56a-cdbf-4ed7-b3a3-64c12572adff"}</recraft-signature></metadata></svg>