<svg xmlns="http://www.w3.org/2000/svg" height="1024" preserveAspectRatio="none" style="display: block;" version="1.1" viewBox="0 0 2048 2048" width="1024">
<path d="M 1023.89 208.662 C 1058.59 209.619 1083.29 215.863 1113.66 233.247 C 1156.66 257.867 1174.44 293.726 1198.2 334.836 L 1254.06 432.362 L 1516.66 892.051 L 1700.6 1213.13 L 1750.33 1300.58 C 1763.16 1322.82 1776 1343.39 1787.24 1366.57 C 1826.14 1446.82 1806.5 1540.14 1741.31 1600.39 C 1710.33 1628.9 1671.51 1647.44 1629.87 1653.62 C 1608.7 1656.82 1589.33 1656.32 1568.04 1656.3 L 1500.96 1656.24 L 1253.81 1656.24 L 716.814 1656.14 L 523.649 1656.33 C 496.867 1656.26 469.62 1656.7 442.906 1656.04 C 361.777 1654.02 281.234 1594.19 256.494 1516.96 C 242.648 1468.61 241.093 1416.14 263.659 1369.74 C 273.257 1350 286.151 1330.5 296.947 1311.22 C 326.571 1258.1 356.718 1205.28 387.383 1152.75 L 573.139 827.04 L 779.367 465.541 L 844.554 351.088 C 872.211 302.518 892.63 254.107 945.286 227.986 C 973.752 213.865 992.319 209.413 1023.89 208.662 z" fill="rgb(249,172,65)" transform="translate(0,0)"></path>
<path d="M 1023.89 208.662 C 1058.59 209.619 1083.29 215.863 1113.66 233.247 C 1156.66 257.867 1174.44 293.726 1198.2 334.836 L 1254.06 432.362 L 1516.66 892.051 L 1700.6 1213.13 L 1750.33 1300.58 C 1763.16 1322.82 1776 1343.39 1787.24 1366.57 C 1826.14 1446.82 1806.5 1540.14 1741.31 1600.39 C 1710.33 1628.9 1671.51 1647.44 1629.87 1653.62 C 1608.7 1656.82 1589.33 1656.32 1568.04 1656.3 L 1500.96 1656.24 L 1253.81 1656.24 L 716.814 1656.14 L 523.649 1656.33 C 496.867 1656.26 469.62 1656.7 442.906 1656.04 C 361.777 1654.02 281.234 1594.19 256.494 1516.96 L 459.367 1517.04 C 470.31 1518.87 491.068 1532.35 506.994 1533.97 C 524.924 1535.79 540.413 1535.63 558.278 1535.57 L 630.711 1535.23 L 869.5 1535.31 L 1312.7 1535.13 L 1448.16 1535.16 C 1472.97 1535.18 1497.83 1535.81 1523.24 1534.43 C 1608.69 1529.77 1685.62 1433.1 1648.45 1350.06 C 1631.37 1311.89 1603.24 1270.5 1582.18 1232.9 L 1401.63 917.112 L 1218.68 597.161 L 1157.22 489.118 C 1147.78 472.911 1137.64 453.18 1126.61 438.411 C 1108.21 413.781 1077.75 396.046 1047.74 390.442 C 1040.49 389.087 1033.03 389.491 1025.77 388.422 L 1023.85 388.13 L 1023.89 208.662 z" fill="rgb(196,122,4)" transform="translate(0,0)"></path>
<path d="M 256.494 1516.96 C 242.648 1468.61 241.093 1416.14 263.659 1369.74 C 273.257 1350 286.151 1330.5 296.947 1311.22 C 326.571 1258.1 356.718 1205.28 387.383 1152.75 L 573.139 827.04 L 779.367 465.541 L 844.554 351.088 C 872.211 302.518 892.63 254.107 945.286 227.986 C 973.752 213.865 992.319 209.413 1023.89 208.662 L 1023.85 388.13 C 994.834 387.718 956.155 402.69 935.84 423.005 C 916.896 441.949 897.198 482.207 882.987 507.335 L 839.838 582.934 L 633.662 946.002 C 580.514 1037.42 528.157 1129.3 476.595 1221.63 C 453.67 1261.88 429.334 1301.39 407.134 1341.93 C 380.868 1389.9 391.844 1452.31 428.498 1491.7 C 438.466 1502.41 449.305 1508.08 459.367 1517.04 L 256.494 1516.96 z" fill="rgb(249,202,135)" transform="translate(0,0)"></path>
<path d="M 1023.99 612.898 C 1039.26 614.167 1050.67 615.692 1064.97 621.455 C 1106.74 638.288 1132.75 682.966 1134.14 727.017 C 1134.68 744.347 1134.43 763.088 1134.46 780.932 C 1134.64 824.452 1134.59 867.973 1134.31 911.492 L 1134.44 1020.22 C 1134.55 1041.61 1135.45 1069.88 1133.58 1090.6 C 1131.09 1120.75 1116.71 1148.67 1093.6 1168.2 C 1074.18 1184.65 1049.44 1193.47 1024 1193.02 L 1023.82 916.4 C 1024.75 886.871 1024.08 853.854 1024.06 824.014 L 1023.99 612.898 z" fill="rgb(196,122,4)" transform="translate(0,0)"></path>
<path d="M 1024 1193.02 C 1003.77 1190.61 989.301 1185.95 972.495 1173.9 C 945.247 1154.61 926.829 1125.24 921.33 1092.31 C 919.08 1078.41 919.875 1038.16 919.886 1022.83 L 920.242 888.459 L 920.071 777.412 C 919.955 735.94 915.521 693.804 942.539 658.168 C 964.748 628.874 987.275 618.071 1022.99 612.595 L 1023.15 802.272 C 1023.16 836.95 1021.91 882.689 1023.82 916.4 L 1024 1193.02 z" fill="rgb(249,202,135)" transform="translate(0,0)"></path>
<path d="M 1023.9 1265.12 C 1055.36 1265.6 1083.95 1276.87 1106.01 1299.51 C 1123.63 1317.52 1133.33 1341.81 1132.97 1367 C 1132.19 1422.7 1080.13 1463.88 1026.34 1463.08 C 1025.51 1463.07 1024.68 1463.04 1023.85 1463.01 C 993.901 1460.2 969.606 1453.96 947.332 1432.41 C 929.243 1414.92 917.515 1390.52 917.238 1365.15 C 916.609 1307.69 968.874 1265.42 1023.9 1265.12 z" fill="rgb(196,122,4)" transform="translate(0,0)"></path>
<path d="M 1023.85 1463.01 C 993.901 1460.2 969.606 1453.96 947.332 1432.41 C 929.243 1414.92 917.515 1390.52 917.238 1365.15 C 916.609 1307.69 968.874 1265.42 1023.9 1265.12 L 1023.85 1463.01 z" fill="rgb(249,202,135)" transform="translate(0,0)"></path>
<metadata><recraft-signature>{"signed_by": "recraft", "signature_b64": "O4fkIbb/xDKGbuHYcwlpCyoqo5XEloE4xw7wtuOIcK1Fbim+sVWB9uvoewO0tBIRjQoIwl+PX068/0CZdLpgCg==", "signing_algo": "Ed25519", "generation_timestamp": 1781914985, "identifier": "d1d8d104-df12-45a0-94b0-7f828e4d98d1"}</recraft-signature></metadata></svg>